<?xml version="1.0" encoding="UTF-8" standalone="no"?>
<!-- Created with Inkscape (http://www.inkscape.org/) -->
<svg
   xmlns:dc="http://purl.org/dc/elements/1.1/"
   xmlns:cc="http://web.resource.org/cc/"
   xmlns:rdf="http://www.w3.org/1999/02/22-rdf-syntax-ns#"
   xmlns:svg="http://www.w3.org/2000/svg"
   xmlns="http://www.w3.org/2000/svg"
   xmlns:xlink="http://www.w3.org/1999/xlink"
   xmlns:sodipodi="http://sodipodi.sourceforge.net/DTD/sodipodi-0.dtd"
   xmlns:inkscape="http://www.inkscape.org/namespaces/inkscape"
   width="920"
   height="210"
   id="svg2"
   sodipodi:version="0.32"
   inkscape:version="0.45.1"
   sodipodi:docbase="/home/kde-devel/kde/src/kdeedu-trunk-git/kalzium/plasmoid"
   sodipodi:docname="testtube.svg"
   inkscape:output_extension="org.inkscape.output.svg.inkscape"
   version="1.0"
   inkscape:export-filename="/home/jra/Desktop/plasmoid2.png"
   inkscape:export-xdpi="90"
   inkscape:export-ydpi="90">
  <defs
     id="defs4">
    <linearGradient
       id="linearGradient9939">
      <stop
         id="stop9941"
         offset="0"
         style="stop-color:#00583f;stop-opacity:1;" />
      <stop
         style="stop-color:#00583f;stop-opacity:0;"
         offset="0.5"
         id="stop9943" />
      <stop
         id="stop9945"
         offset="0.75"
         style="stop-color:#00583f;stop-opacity:0;" />
      <stop
         id="stop9947"
         offset="1"
         style="stop-color:#00583f;stop-opacity:1;" />
    </linearGradient>
    <linearGradient
       id="linearGradient8458">
      <stop
         id="stop8460"
         offset="0"
         style="stop-color:#ffffff;stop-opacity:1;" />
      <stop
         style="stop-color:#ffffff;stop-opacity:0.24375001;"
         offset="0.16620499"
         id="stop8462" />
      <stop
         id="stop8466"
         offset="0.84210527"
         style="stop-color:#ffffff;stop-opacity:0;" />
      <stop
         id="stop8464"
         offset="1"
         style="stop-color:#ffffff;stop-opacity:1;" />
    </linearGradient>
    <linearGradient
       id="linearGradient8450">
      <stop
         id="stop8452"
         offset="0"
         style="stop-color:#ffffff;stop-opacity:0;" />
      <stop
         style="stop-color:#ffffff;stop-opacity:0;"
         offset="0.90789473"
         id="stop8456" />
      <stop
         id="stop8454"
         offset="1"
         style="stop-color:#ffffff;stop-opacity:1;" />
    </linearGradient>
    <linearGradient
       id="linearGradient6040">
      <stop
         style="stop-color:#ffffff;stop-opacity:0.71249998;"
         offset="0"
         id="stop6042" />
      <stop
         id="stop6046"
         offset="0.5"
         style="stop-color:#ffffff;stop-opacity:0.18125001;" />
      <stop
         style="stop-color:#ffffff;stop-opacity:0;"
         offset="1"
         id="stop6044" />
    </linearGradient>
    <linearGradient
       inkscape:collect="always"
       id="linearGradient5530">
      <stop
         style="stop-color:#000000;stop-opacity:1;"
         offset="0"
         id="stop5532" />
      <stop
         style="stop-color:#000000;stop-opacity:0;"
         offset="1"
         id="stop5534" />
    </linearGradient>
    <linearGradient
       id="linearGradient5697">
      <stop
         id="stop5699"
         offset="0"
         style="stop-color:#ffffff;stop-opacity:1;" />
      <stop
         id="stop5701"
         offset="1"
         style="stop-color:#ffffff;stop-opacity:0;" />
    </linearGradient>
    <linearGradient
       id="linearGradient3617">
      <stop
         id="stop3619"
         offset="0"
         style="stop-color:#000000;stop-opacity:1;" />
      <stop
         id="stop3621"
         offset="1"
         style="stop-color:#ffffff;stop-opacity:1;" />
    </linearGradient>
    <linearGradient
       id="linearGradient3744">
      <stop
         style="stop-color:#030303;stop-opacity:1;"
         offset="0"
         id="stop3746" />
      <stop
         id="stop3748"
         offset="0.5"
         style="stop-color:#000000;stop-opacity:0.53125;" />
      <stop
         style="stop-color:#ffffff;stop-opacity:0.42500001;"
         offset="0.75"
         id="stop3750" />
      <stop
         style="stop-color:#000000;stop-opacity:0.47450981;"
         offset="1"
         id="stop3752" />
    </linearGradient>
    <linearGradient
       id="linearGradient3734">
      <stop
         style="stop-color:#000000;stop-opacity:1;"
         offset="0"
         id="stop3736" />
      <stop
         id="stop3738"
         offset="0.5"
         style="stop-color:#000000;stop-opacity:0;" />
      <stop
         style="stop-color:#000000;stop-opacity:0.30588236;"
         offset="0.75"
         id="stop3740" />
      <stop
         style="stop-color:#000000;stop-opacity:0.99374998;"
         offset="1"
         id="stop3742" />
    </linearGradient>
    <linearGradient
       id="linearGradient3559">
      <stop
         style="stop-color:#000000;stop-opacity:1;"
         offset="0"
         id="stop3561" />
      <stop
         style="stop-color:#000000;stop-opacity:0;"
         offset="1"
         id="stop3563" />
    </linearGradient>
    <linearGradient
       id="linearGradient3521">
      <stop
         style="stop-color:#ffffff;stop-opacity:1;"
         offset="0"
         id="stop3527" />
      <stop
         style="stop-color:#ffffff;stop-opacity:0;"
         offset="1"
         id="stop3529" />
    </linearGradient>
    <linearGradient
       id="linearGradient3476">
      <stop
         style="stop-color:#ffffff;stop-opacity:1;"
         offset="0"
         id="stop3478" />
      <stop
         id="stop3500"
         offset="0.5"
         style="stop-color:#ffffff;stop-opacity:0.24375001;" />
      <stop
         style="stop-color:#ffffff;stop-opacity:0.46875;"
         offset="1"
         id="stop3480" />
    </linearGradient>
    <linearGradient
       inkscape:collect="always"
       xlink:href="#linearGradient8458"
       id="linearGradient10617"
       gradientUnits="userSpaceOnUse"
       gradientTransform="translate(-37.56786,-1691.1999)"
       x1="571.88531"
       y1="1714.325"
       x2="572.08624"
       y2="1871.2733" />
    <radialGradient
       inkscape:collect="always"
       xlink:href="#linearGradient3476"
       id="radialGradient2644"
       gradientUnits="userSpaceOnUse"
       gradientTransform="matrix(2.1153873,6.5541465e-4,-4.386023e-3,11.417741,-982.85147,-28057.448)"
       cx="891.7655"
       cy="2693.1809"
       fx="891.7655"
       fy="2693.1809"
       r="1.8862256" />
    <linearGradient
       inkscape:collect="always"
       xlink:href="#linearGradient5697"
       id="linearGradient2661"
       gradientUnits="userSpaceOnUse"
       gradientTransform="translate(-34.13085,-1205.8799)"
       x1="524.05499"
       y1="1287.4375"
       x2="524.05347"
       y2="1236.3125" />
    <linearGradient
       inkscape:collect="always"
       xlink:href="#linearGradient3521"
       id="linearGradient2665"
       gradientUnits="userSpaceOnUse"
       gradientTransform="matrix(0,1,1,0,1192.8045,-1752.8152)"
       x1="1864.7565"
       y1="-1063.7113"
       x2="1865.6616"
       y2="-1017.2823" />
    <radialGradient
       inkscape:collect="always"
       xlink:href="#linearGradient3521"
       id="radialGradient2668"
       gradientUnits="userSpaceOnUse"
       gradientTransform="matrix(-3.1851455e-6,1.2393664,0.1559995,4.0091549e-7,330.18855,-1999.5656)"
       cx="1692.9417"
       cy="-1022.0625"
       fx="1692.9417"
       fy="-1022.0625"
       r="76.09375" />
    <radialGradient
       inkscape:collect="always"
       xlink:href="#linearGradient8450"
       id="radialGradient2671"
       gradientUnits="userSpaceOnUse"
       gradientTransform="matrix(2.0572515,-1.1612885e-6,1.0533337e-6,1.861943,-922.86427,-6618.1632)"
       cx="827.55615"
       cy="3611.3184"
       fx="827.55615"
       fy="3611.3184"
       r="39.048321" />
    <linearGradient
       inkscape:collect="always"
       xlink:href="#linearGradient3521"
       id="linearGradient2674"
       gradientUnits="userSpaceOnUse"
       gradientTransform="translate(-34.13085,-4525.8799)"
       x1="503.08572"
       y1="4697.5938"
       x2="503.08572"
       y2="4703.751" />
    <linearGradient
       inkscape:collect="always"
       xlink:href="#linearGradient3476"
       id="linearGradient2677"
       gradientUnits="userSpaceOnUse"
       gradientTransform="translate(-34.13085,-4525.8799)"
       x1="523.14056"
       y1="4559.8945"
       x2="523.14056"
       y2="4567.8779" />
    <radialGradient
       inkscape:collect="always"
       xlink:href="#linearGradient3476"
       id="radialGradient2680"
       gradientUnits="userSpaceOnUse"
       gradientTransform="matrix(0.999971,-8.2400402e-3,5.0407936e-2,6.1172604,-207.61656,-21005.136)"
       cx="884.21075"
       cy="3452.3438"
       fx="884.21075"
       fy="3452.3438"
       r="3.9186939" />
    <radialGradient
       inkscape:collect="always"
       xlink:href="#linearGradient5697"
       id="radialGradient2684"
       gradientUnits="userSpaceOnUse"
       gradientTransform="matrix(1.5398346,2.043697e-2,-3.3399323e-2,2.5164903,-406.24855,-5620.4343)"
       cx="831.65204"
       cy="2253.134"
       fx="831.65204"
       fy="2253.134"
       r="30.7344" />
    <radialGradient
       inkscape:collect="always"
       xlink:href="#linearGradient6040"
       id="radialGradient2687"
       gradientUnits="userSpaceOnUse"
       gradientTransform="matrix(1.0043681,-2.8996165e-2,-2.716019e-2,-0.9407747,-1012.085,-262.5878)"
       cx="1808.8965"
       cy="-388.32962"
       fx="1808.8965"
       fy="-388.32962"
       r="73.5625" />
    <radialGradient
       inkscape:collect="always"
       xlink:href="#linearGradient3476"
       id="radialGradient2690"
       gradientUnits="userSpaceOnUse"
       gradientTransform="matrix(1.1025959e-2,1.8788856,0.1690953,-9.923103e-4,319.50545,-3386.2869)"
       cx="1854.6189"
       cy="-1030.7599"
       fx="1854.6189"
       fy="-1030.7599"
       r="76.087898" />
    <linearGradient
       inkscape:collect="always"
       xlink:href="#linearGradient5697"
       id="linearGradient2693"
       gradientUnits="userSpaceOnUse"
       gradientTransform="matrix(0,1,1,0,1197.8416,-1588.4977)"
       x1="1611.5767"
       y1="-692.59375"
       x2="1734.2285"
       y2="-692.59375" />
    <linearGradient
       inkscape:collect="always"
       xlink:href="#linearGradient3744"
       id="linearGradient2696"
       gradientUnits="userSpaceOnUse"
       gradientTransform="matrix(0,1,1,0,1198.5612,-1595.6936)"
       x1="1774.5641"
       y1="-716.1922"
       x2="1621.2075"
       y2="-718.42773" />
    <linearGradient
       inkscape:collect="always"
       xlink:href="#linearGradient3521"
       id="linearGradient2699"
       gradientUnits="userSpaceOnUse"
       gradientTransform="translate(-134.13085,-4165.8799)"
       x1="300.57904"
       y1="4196.2583"
       x2="300.57904"
       y2="4348.4341" />
    <linearGradient
       inkscape:collect="always"
       xlink:href="#linearGradient5530"
       id="linearGradient2714"
       gradientUnits="userSpaceOnUse"
       gradientTransform="translate(65.86915,-405.8799)"
       x1="155.15625"
       y1="620.81458"
       x2="155.15625"
       y2="429.19632" />
    <linearGradient
       inkscape:collect="always"
       xlink:href="#linearGradient3559"
       id="linearGradient2717"
       gradientUnits="userSpaceOnUse"
       gradientTransform="matrix(0,1,1,0,1292.8045,-1752.8152)"
       x1="1926.2791"
       y1="-1109.3978"
       x2="1825.7821"
       y2="-1110.3696" />
    <radialGradient
       inkscape:collect="always"
       xlink:href="#linearGradient3476"
       id="radialGradient2724"
       gradientUnits="userSpaceOnUse"
       gradientTransform="matrix(-3.7280282e-7,1.5820335,0.1830041,4.3124525e-8,357.85025,-2834.9792)"
       cx="1859.2812"
       cy="-1021.9818"
       fx="1859.2812"
       fy="-1021.9818"
       r="76.0879" />
    <linearGradient
       inkscape:collect="always"
       xlink:href="#linearGradient3734"
       id="linearGradient2727"
       gradientUnits="userSpaceOnUse"
       gradientTransform="matrix(0,1,1,0,1192.8045,-1592.8152)"
       x1="1782.5945"
       y1="-636.70557"
       x2="1619.0122"
       y2="-637.82343" />
    <linearGradient
       inkscape:collect="always"
       xlink:href="#linearGradient3521"
       id="linearGradient2730"
       gradientUnits="userSpaceOnUse"
       gradientTransform="matrix(0,1,1,0,1172.8045,-1752.8152)"
       x1="1864.7565"
       y1="-1063.7113"
       x2="1865.6616"
       y2="-1017.2823" />
    <linearGradient
       inkscape:collect="always"
       xlink:href="#linearGradient5697"
       id="linearGradient2733"
       gradientUnits="userSpaceOnUse"
       gradientTransform="translate(-34.13085,-2165.8799)"
       x1="839.46686"
       y1="2194.0986"
       x2="820.4978"
       y2="2226.5042" />
    <linearGradient
       inkscape:collect="always"
       xlink:href="#linearGradient5530"
       id="linearGradient2736"
       gradientUnits="userSpaceOnUse"
       gradientTransform="translate(-34.13085,-2325.8799)"
       x1="607.93628"
       y1="2493.4062"
       x2="607.97095"
       y2="2472.8438" />
    <linearGradient
       inkscape:collect="always"
       xlink:href="#linearGradient3617"
       id="linearGradient2739"
       gradientUnits="userSpaceOnUse"
       gradientTransform="translate(-34.13085,-2585.8799)"
       x1="887.50012"
       y1="2692.3281"
       x2="849.13342"
       y2="2654.7168" />
    <linearGradient
       inkscape:collect="always"
       xlink:href="#linearGradient3476"
       id="linearGradient2742"
       gradientUnits="userSpaceOnUse"
       gradientTransform="matrix(0,1,1,0,1192.8045,-1592.8152)"
       x1="1623.1853"
       y1="-782.01477"
       x2="1772.8416"
       y2="-783.13269" />
    <linearGradient
       inkscape:collect="always"
       xlink:href="#linearGradient9939"
       id="linearGradient2745"
       gradientUnits="userSpaceOnUse"
       gradientTransform="matrix(0,1,1,0,1192.8045,-1592.8152)"
       x1="1782.5945"
       y1="-636.70557"
       x2="1619.0122"
       y2="-637.82343" />
  </defs>
  <sodipodi:namedview
     id="base"
     pagecolor="#ffffff"
     bordercolor="#666666"
     borderopacity="1.0"
     gridtolerance="10000"
     guidetolerance="10"
     objecttolerance="10"
     inkscape:pageopacity="0.0"
     inkscape:pageshadow="2"
     inkscape:zoom="1.3896681"
     inkscape:cx="434.55318"
     inkscape:cy="134.31155"
     inkscape:document-units="px"
     inkscape:current-layer="layer1"
     inkscape:window-width="1270"
     inkscape:window-height="926"
     inkscape:window-x="0"
     inkscape:window-y="0"
     width="920px"
     height="210px" />
  <metadata
     id="metadata7">
    <rdf:RDF>
      <cc:Work
         rdf:about="">
        <dc:format>image/svg+xml</dc:format>
        <dc:type
           rdf:resource="http://purl.org/dc/dcmitype/StillImage" />
      </cc:Work>
    </rdf:RDF>
  </metadata>
  <g
     inkscape:label="Layer 1"
     inkscape:groupmode="layer"
     id="layer1">
    <g
       id="g3718">
      <path
         style="opacity:0.25;fill:url(#linearGradient10617);fill-opacity:1;fill-rule:nonzero;stroke:none;stroke-width:10;stroke-linecap:round;stroke-linejoin:round;stroke-miterlimit:4;stroke-dasharray:none;stroke-opacity:1"
         d="M 896.96334,65.3939 C 897.52664,66.2419 898.06494,67.112 898.58834,67.9876 C 898.06094,67.106 897.53104,66.2477 896.96334,65.3939 z "
         id="path10474" />
      <path
         style="opacity:0.2;fill:url(#linearGradient2745);fill-opacity:1;fill-rule:nonzero;stroke:none;stroke-width:10;stroke-linecap:round;stroke-linejoin:round;stroke-miterlimit:4;stroke-dasharray:none;stroke-opacity:1"
         d="M 178.11915,37.3701 C 178.82995,39.4335 178.83015,39.4338 178.11915,37.3701 z M 170.49415,41.4639 C 167.45165,53.8181 165.27535,78.2855 165.27535,106.4639 C 165.27535,134.6424 167.45165,159.1096 170.49415,171.4639 C 199.20925,171.4489 790.45205,171.111 789.71295,171.1513 C 790.46865,171.1102 791.20735,171.0333 791.93165,170.9639 C 825.09995,168.1437 851.18165,140.3569 851.18165,106.4639 C 851.18165,71.8171 823.93205,43.5122 789.71295,41.7763 C 789.71295,41.7763 199.13835,41.477 170.49415,41.4639 z M 178.65035,174.0263 C 178.65035,174.0264 178.47455,174.5258 178.11915,175.5576 C 178.47465,174.5257 178.65045,174.0263 178.65035,174.0263 z "
         id="path9412" />
      <path
         style="opacity:0.35;fill:url(#linearGradient2742);fill-opacity:1;fill-rule:nonzero;stroke:none;stroke-width:10;stroke-linecap:round;stroke-linejoin:round;stroke-miterlimit:4;stroke-dasharray:none;stroke-opacity:1"
         d="M 174.96295,32.9013 C 180.08865,32.9012 184.74415,65.8524 184.74415,106.4639 C 184.74415,147.0755 180.08875,180.0263 174.96295,180.0263 C 186.17105,180.0262 774.26555,180.0263 786.36915,180.0263 C 826.98055,180.0261 859.96295,147.0753 859.96295,106.4639 C 859.96285,65.8525 826.98055,32.9014 786.36915,32.9013 C 775.90545,32.9013 186.19875,32.9013 174.96295,32.9013 z "
         id="path9414"
         sodipodi:nodetypes="csssssc" />
      <path
         style="opacity:0.12000002;fill:url(#linearGradient2739);fill-opacity:1;fill-rule:nonzero;stroke:none;stroke-width:10;stroke-linecap:round;stroke-linejoin:round;stroke-miterlimit:4;stroke-dasharray:none;stroke-opacity:1"
         d="M 832.68165,61.1826 C 838.58805,73.6699 841.08795,89.391 841.08795,106.4639 C 841.08795,123.5195 838.60645,139.2327 832.71295,151.7139 C 844.13115,140.046 851.18165,124.0744 851.18165,106.4639 C 851.18165,88.838 844.11635,72.8626 832.68165,61.1826 z "
         id="path9417"
         sodipodi:nodetypes="cscsc" />
      <path
         sodipodi:nodetypes="ccccccc"
         id="path9419"
         d="M 835.08795,146.9639 C 827.82795,153.159 816.70925,159.3144 802.36915,159.2763 C 802.36915,159.2763 281.98435,159.3022 181.65035,159.3076 C 181.23165,162.3155 180.78775,165.1032 180.30665,167.5263 L 807.90035,167.5263 C 819.39645,163.4748 829.41275,156.2785 836.90035,146.9639 L 835.08795,146.9639 z "
         style="opacity:0.23188405;fill:url(#linearGradient2736);fill-opacity:1;fill-rule:nonzero;stroke:none;stroke-width:12;stroke-linecap:round;stroke-linejoin:round;stroke-miterlimit:4;stroke-dasharray:none;stroke-opacity:1" />
      <path
         style="opacity:0.15;fill:url(#linearGradient2733);fill-opacity:1;fill-rule:nonzero;stroke:none;stroke-width:10;stroke-linecap:round;stroke-linejoin:round;stroke-miterlimit:4;stroke-dasharray:none;stroke-opacity:1"
         d="M 786.36695,32.9036 C 826.97835,32.9036 859.96065,65.8547 859.96065,106.466 C 859.96065,147.0775 826.97835,180.0283 786.36695,180.0286 C 786.36695,180.0285 789.71065,171.1536 789.71065,171.1536 C 789.71065,171.1536 789.71065,41.7786 789.71065,41.7786 C 789.71065,41.7786 786.36695,32.9036 786.36695,32.9036 z "
         id="path9421"
         sodipodi:nodetypes="csscsc" />
      <path
         sodipodi:nodetypes="csssccsssc"
         id="path9423"
         d="M 132.80445,106.466 C 132.80445,65.8546 136.96005,32.9035 142.08565,32.9036 C 147.21145,32.9036 151.36695,65.8546 151.36695,106.466 C 151.36695,147.0775 147.21145,180.0286 142.08565,180.0286 C 136.95995,180.0286 132.80445,147.0775 132.80445,106.466 z M 134.52705,106.466 C 134.52705,142.3378 137.80815,171.466 142.33565,171.466 C 146.86325,171.466 150.55445,142.3378 150.55445,106.466 C 150.55445,70.5944 146.86325,41.4973 142.33565,41.4973 C 137.80815,41.4973 134.52705,70.5943 134.52705,106.466 z "
         style="opacity:0.35;fill:url(#linearGradient2730);fill-opacity:1;fill-rule:nonzero;stroke:none;stroke-width:10;stroke-linecap:round;stroke-linejoin:round;stroke-miterlimit:4;stroke-dasharray:none;stroke-opacity:1" />
      <path
         id="path9425"
         d="M 168.49415,30.3701 C 168.25005,30.3701 167.98685,30.4058 167.74415,30.4326 C 167.58555,30.4516 167.43225,30.4663 167.27535,30.4951 C 167.02655,30.5407 166.76745,30.6164 166.52535,30.6826 C 166.39045,30.7188 166.25125,30.7349 166.11915,30.7763 C 165.51165,30.967 164.94765,31.2121 164.43165,31.4639 C 164.32155,31.5182 164.19225,31.5654 164.08795,31.6201 C 164.07615,31.6262 164.06835,31.6452 164.05665,31.6513 C 163.77085,31.8023 163.50945,31.9473 163.27535,32.0889 C 163.26415,32.0956 163.25535,32.1134 163.24415,32.1201 C 163.19365,32.1509 163.16685,32.1841 163.11915,32.2139 C 162.48795,32.6043 162.10815,32.8856 162.08795,32.9013 C 162.08735,32.9018 162.05665,32.9013 162.05665,32.9013 C 156.93085,32.9013 152.80665,65.8524 152.80665,106.4639 C 152.80665,147.0754 156.93085,180.0262 162.05665,180.0263 C 162.05665,180.0263 162.08735,180.0259 162.08795,180.0263 C 162.10965,180.0433 162.52685,180.4059 163.24415,180.8389 C 163.25265,180.844 163.26675,180.8336 163.27535,180.8389 C 163.51505,180.983 163.76385,181.1232 164.05665,181.2763 C 164.06565,181.2811 164.07895,181.2716 164.08795,181.2763 C 164.68615,181.5879 165.37465,181.9177 166.11915,182.1513 C 166.12885,182.1544 166.14075,182.1483 166.15035,182.1513 C 166.51855,182.2657 166.88945,182.3653 167.27535,182.4326 C 167.43225,182.4614 167.58555,182.4761 167.74415,182.4951 C 167.78685,182.4998 167.82635,182.5224 167.86915,182.5263 C 168.09025,182.5488 168.30325,182.5576 168.52535,182.5576 C 168.72635,182.5566 168.91905,182.5457 169.11915,182.5263 C 169.70055,182.4726 170.28895,182.3206 170.83795,182.1513 C 171.22525,182.0319 171.57675,181.8964 171.93165,181.7451 C 171.94065,181.7412 171.95385,181.749 171.96295,181.7451 C 172.64415,181.4529 173.25745,181.1322 173.74415,180.8389 C 174.47965,180.3949 174.93165,180.0263 174.93165,180.0263 C 174.93215,180.0259 174.96295,180.0263 174.96295,180.0263 C 186.17115,180.0262 774.26555,180.0263 786.36915,180.0263 C 826.98055,180.0261 859.96295,147.0754 859.96295,106.4639 C 859.96295,65.8525 826.98055,32.9013 786.36915,32.9013 C 775.90545,32.9013 186.19885,32.9013 174.96295,32.9013 C 174.96295,32.9013 174.93215,32.9018 174.93165,32.9013 C 174.93165,32.9013 174.72895,32.7176 174.40035,32.4951 C 174.39425,32.4909 174.37545,32.4993 174.36915,32.4951 C 173.83945,32.1392 172.98805,31.6223 171.96295,31.1826 C 171.95405,31.1788 171.94055,31.1864 171.93165,31.1826 C 171.57675,31.0313 171.22525,30.8958 170.83795,30.7763 C 170.28895,30.6071 169.70055,30.4551 169.11915,30.4013 C 169.10865,30.4004 169.09845,30.4023 169.08795,30.4013 C 168.88755,30.3828 168.69535,30.3701 168.49415,30.3701 z M 168.43165,52.8076 C 170.24185,66.234 171.36915,85.2739 171.36915,106.4639 C 171.36915,127.6539 170.24185,146.6938 168.43165,160.1201 C 166.52825,146.6936 165.27535,127.6554 165.27535,106.4639 C 165.27535,85.2723 166.52825,66.2341 168.43165,52.8076 z "
         style="opacity:0.35;fill:url(#linearGradient2727);fill-opacity:1;fill-rule:nonzero;stroke:none;stroke-width:10;stroke-linecap:round;stroke-linejoin:round;stroke-miterlimit:4;stroke-dasharray:none;stroke-opacity:1" />
      <path
         style="opacity:0.35;fill:url(#radialGradient2724);fill-opacity:1;fill-rule:nonzero;stroke:none;stroke-width:10;stroke-linecap:round;stroke-linejoin:round;stroke-miterlimit:4;stroke-dasharray:none;stroke-opacity:1"
         d="M 156.89825,45.466 C 157.51545,42.1603 158.18745,39.4357 158.89825,37.3723 C 158.18725,39.4362 157.51575,42.1596 156.89825,45.466 z M 156.89825,167.466 C 157.51575,170.7725 158.18725,173.4959 158.89825,175.5598 C 158.18745,173.4964 157.51545,170.7718 156.89825,167.466 z M 162.08565,32.9036 C 162.08565,32.9036 165.30445,30.3782 168.52325,30.3782 C 171.74195,30.3782 174.96065,32.9036 174.96065,32.9036 C 180.08645,32.9036 184.74705,65.8546 184.74705,106.466 C 184.74705,147.0775 180.08645,180.0285 174.96065,180.0286 C 174.96065,180.0286 171.74195,182.554 168.52325,182.554 C 165.30445,182.554 162.08565,180.0286 162.08565,180.0286 C 167.21145,180.0286 171.36695,147.0775 171.36695,106.466 C 171.36695,65.8546 167.21145,32.9036 162.08565,32.9036 z "
         id="path9427"
         sodipodi:nodetypes="csccscczcsczcsc" />
      <path
         d="M 1132.8572 93.571426 A 73.571426 73.571426 0 1 1  985.71434,93.571426 A 73.571426 73.571426 0 1 1  1132.8572 93.571426 z"
         sodipodi:ry="73.571426"
         sodipodi:rx="73.571426"
         sodipodi:cy="93.571426"
         sodipodi:cx="1059.2858"
         id="path9429"
         style="opacity:0.5;fill:#ffdd00;fill-opacity:1;fill-rule:nonzero;stroke:none;stroke-width:10;stroke-linecap:round;stroke-linejoin:round;stroke-miterlimit:4;stroke-dasharray:none;stroke-opacity:1"
         sodipodi:type="arc"
         transform="matrix(0,0.842101,9.9420685e-2,0,218.59435,-785.5565)" />
      <path
         style="opacity:0.5;fill:#ffdd00;fill-opacity:1;fill-rule:nonzero;stroke:none;stroke-width:10;stroke-linecap:round;stroke-linejoin:round;stroke-miterlimit:4;stroke-dasharray:none;stroke-opacity:1"
         d="M 92.86695,106.466 C 92.86695,69.4903 97.11125,39.4973 102.33565,39.4973 C 107.56015,39.4973 111.80445,69.4903 111.80445,106.466 C 111.80445,143.4418 107.56025,173.4661 102.33565,173.466 C 97.11125,173.466 92.86695,143.4418 92.86695,106.466 z "
         id="path9431" />
      <path
         style="opacity:0.5;fill:#ffdd00;fill-opacity:1;fill-rule:nonzero;stroke:none;stroke-width:10;stroke-linecap:round;stroke-linejoin:round;stroke-miterlimit:4;stroke-dasharray:none;stroke-opacity:1"
         d="M 142.97065,106.466 C 142.97065,70.5943 146.63055,41.4973 151.15805,41.4973 C 155.68565,41.4973 159.37685,70.5944 159.37685,106.466 C 159.37685,142.3378 155.68565,171.466 151.15805,171.466 C 146.63055,171.466 142.97065,142.3378 142.97065,106.466 z "
         id="path9433" />
      <path
         sodipodi:nodetypes="cscccsscssccc"
         style="fill:#debc85;fill-opacity:1;fill-rule:nonzero;stroke:none;stroke-width:10;stroke-linecap:round;stroke-linejoin:round;stroke-miterlimit:4;stroke-dasharray:none;stroke-opacity:1"
         d="M 102.33795,39.4951 C 97.11375,39.4951 92.86915,69.4882 92.86915,106.4639 C 92.86915,143.4397 97.11355,173.4639 102.33795,173.4639 C 102.33795,173.4639 151.16025,171.4639 151.16025,171.4639 C 151.16025,171.4639 222.33785,171.4639 222.33795,171.4639 C 222.33795,171.4639 227.90035,168.4326 227.90035,168.4326 C 231.93805,168.4326 235.21295,140.6628 235.21295,106.4639 C 235.21295,74.9589 232.43235,48.9619 228.83795,45.0576 C 228.78355,44.9515 228.71155,44.8871 228.65035,44.8389 C 228.40465,44.6273 228.15275,44.5263 227.90035,44.5263 C 227.90035,44.5265 222.33795,41.4951 222.33795,41.4951 C 222.33795,41.4951 151.16025,41.4951 151.16025,41.4951 C 151.16025,41.4951 102.33795,39.4951 102.33795,39.4951 z "
         id="path9435" />
      <path
         style="opacity:0.5;fill:url(#linearGradient2717);fill-opacity:1;fill-rule:nonzero;stroke:none;stroke-width:10;stroke-linecap:round;stroke-linejoin:round;stroke-miterlimit:4;stroke-dasharray:none;stroke-opacity:1"
         d="M 102.33795,39.4951 C 97.11355,39.4951 92.86915,69.4882 92.86915,106.4639 C 92.86915,143.4396 97.11355,173.4639 102.33795,173.4639 C 102.33795,173.4639 151.16025,171.4639 151.16025,171.4639 C 151.16025,171.4639 222.33785,171.4639 222.33795,171.4639 C 217.81035,171.4639 214.15035,142.3356 214.15035,106.4639 C 214.15035,70.5921 217.81035,41.4951 222.33795,41.4951 C 222.33795,41.4951 151.16025,41.4951 151.16025,41.4951 C 151.16025,41.4951 102.33795,39.4951 102.33795,39.4951 z M 222.33795,171.4639 C 222.33795,171.4639 222.33795,171.4639 222.33795,171.4639 z "
         id="path9437"
         sodipodi:nodetypes="csccssccccc" />
      <path
         sodipodi:nodetypes="cscsssc"
         id="path9439"
         d="M 222.33795,41.4951 C 217.81035,41.4951 214.15035,70.5921 214.15035,106.4639 C 214.15035,142.3356 217.81035,171.4639 222.33795,171.4639 C 222.33795,171.4639 227.90035,168.4326 227.90035,168.4326 C 223.86275,168.4326 220.58785,140.6628 220.58795,106.4639 C 220.58795,72.2649 223.86275,44.5264 227.90035,44.5263 C 227.90035,44.5264 222.33795,41.4951 222.33795,41.4951 z "
         style="opacity:0.6;fill:url(#linearGradient2714);fill-opacity:1;fill-rule:nonzero;stroke:none;stroke-width:10;stroke-linecap:round;stroke-linejoin:round;stroke-miterlimit:4;stroke-dasharray:none;stroke-opacity:1" />
      <path
         d="M 1132.8572 93.571426 A 73.571426 73.571426 0 1 1  985.71434,93.571426 A 73.571426 73.571426 0 1 1  1132.8572 93.571426 z"
         sodipodi:ry="73.571426"
         sodipodi:rx="73.571426"
         sodipodi:cy="93.571426"
         sodipodi:cx="1059.2858"
         id="path9441"
         style="opacity:0.5;fill:#000000;fill-opacity:1;fill-rule:nonzero;stroke:none;stroke-width:10;stroke-linecap:round;stroke-linejoin:round;stroke-miterlimit:4;stroke-dasharray:none;stroke-opacity:1"
         sodipodi:type="arc"
         transform="matrix(0,0.842101,9.9420685e-2,0,218.59435,-785.5565)" />
      <path
         inkscape:label="#path9443"
         id="canvas"
         d="M 708.83814,46.214695 L 292.05694,46.433495 L 292.05694,78.995895 L 228.83954,93.776195 L 228.83954,111.7157 L 292.05694,126.4647 L 292.05694,159.1835 L 708.83814,159.0272 L 708.83814,157.9959 L 709.90074,157.9959 L 709.90074,47.245895 L 708.83814,47.245895 L 708.83814,46.214695 z "
         style="fill:#1ddf3d;fill-opacity:1;fill-rule:nonzero;stroke:none;stroke-width:0.2;stroke-linecap:round;stroke-linejoin:round;stroke-miterlimit:4;stroke-dasharray:none;stroke-opacity:1"
         sodipodi:nodetypes="ccccccccccccc" />
      <path
         sodipodi:nodetypes="csccscccccc"
         id="path9463"
         d="M 102.33795,39.4951 C 97.11355,39.4951 92.86915,69.488 92.86915,106.4639 C 92.86915,143.4396 97.11355,173.4639 102.33795,173.4639 C 102.33795,173.4639 151.15035,171.4639 151.15035,171.4639 C 146.62295,171.4638 142.96295,142.3356 142.96295,106.4639 C 142.96295,70.5921 146.62295,41.4951 151.15035,41.4951 C 151.15035,41.4951 102.33795,39.4951 102.33795,39.4951 z M 151.15035,41.4951 C 151.15035,41.4951 151.15035,41.4951 151.15035,41.4951 z M 151.15035,171.4639 C 151.15035,171.4639 151.15035,171.4639 151.15035,171.4639 z "
         style="opacity:0.02999998;fill:#000000;fill-opacity:1;fill-rule:nonzero;stroke:none;stroke-width:10;stroke-linecap:round;stroke-linejoin:round;stroke-miterlimit:4;stroke-dasharray:none;stroke-opacity:1" />
      <path
         style="opacity:0.25;fill:url(#linearGradient2699);fill-opacity:1;fill-rule:nonzero;stroke:none;stroke-width:10;stroke-linecap:round;stroke-linejoin:round;stroke-miterlimit:4;stroke-dasharray:none;stroke-opacity:1"
         d="M 180.10475,45.466 C 179.48755,42.1603 178.81555,39.4357 178.10475,37.3723 C 178.81575,39.4362 179.48725,42.1596 180.10475,45.466 z M 180.10475,167.466 C 179.48725,170.7725 178.81575,173.4959 178.10475,175.5598 C 178.81555,173.4964 179.48755,170.7718 180.10475,167.466 z M 174.91735,32.9036 C 174.91735,32.9036 171.69855,30.3782 168.47975,30.3782 C 165.26105,30.3782 162.04235,32.9036 162.04235,32.9036 C 156.91655,32.9036 152.79165,65.8546 152.79165,106.466 C 152.79165,147.0775 156.91655,180.0285 162.04235,180.0286 C 162.04235,180.0286 165.26105,182.554 168.47975,182.554 C 171.69855,182.554 174.91735,180.0286 174.91735,180.0286 C 169.79155,180.0286 165.27895,147.0775 165.27895,106.466 C 165.27895,65.8546 169.79155,32.9036 174.91735,32.9036 z "
         id="path9465"
         sodipodi:nodetypes="csccscczcsczcsc" />
      <path
         style="opacity:0.15;fill:url(#linearGradient2696);fill-opacity:1;fill-rule:nonzero;stroke:none;stroke-width:10;stroke-linecap:round;stroke-linejoin:round;stroke-miterlimit:4;stroke-opacity:1"
         d="M 176.25092,38.585513 C 173.20842,50.939713 171.03212,75.407113 171.03212,103.58551 C 171.03212,131.76401 173.20842,156.23121 176.25092,168.58551 C 194.61842,168.57981 770.74052,168.36671 792.12592,168.36671 C 794.53132,168.36671 796.78632,168.21611 798.90712,167.96051 C 799.02432,167.94631 799.13472,167.94411 799.25092,167.92921 C 814.57102,166.25071 828.28912,159.22961 838.50092,148.77291 C 844.03432,137.02141 846.54162,122.41621 846.81342,106.52291 C 846.57932,105.62191 846.43842,104.63551 846.43842,103.58551 C 846.43842,102.53531 846.57932,101.54921 846.81342,100.64791 C 846.53942,84.722613 843.99622,70.099013 838.43842,58.335513 C 828.17922,47.856813 814.39892,40.831813 799.00092,39.210513 C 798.82372,39.191813 798.64742,39.166913 798.46972,39.147913 C 798.39892,39.140113 798.32192,39.124313 798.25092,39.116713 C 797.33042,39.020713 796.39902,38.945113 795.46972,38.897913 C 794.38452,38.838613 793.27722,38.804213 792.12592,38.804213 C 773.62602,38.804213 194.34902,38.591113 176.25092,38.585513 z M 846.15712,67.835513 C 846.72482,68.689413 847.25472,69.547613 847.78212,70.429213 C 847.25872,69.553613 846.72042,68.683513 846.15712,67.835513 z M 852.06342,78.929213 C 852.33112,79.577413 852.56632,80.239313 852.81342,80.897913 C 852.56612,80.237913 852.33142,79.578813 852.06342,78.929213 z "
         id="path9467" />
      <path
         style="opacity:0.15;fill:url(#linearGradient2693);fill-opacity:1;fill-rule:nonzero;stroke:none;stroke-width:10;stroke-linecap:round;stroke-linejoin:round;stroke-miterlimit:4;stroke-dasharray:none;stroke-opacity:1"
         d="M 172.78132,34.750178 C 172.62272,34.769178 172.46942,34.783878 172.31252,34.812678 C 172.46832,34.785478 172.62402,34.767578 172.78132,34.750178 z M 179.96881,37.218878 C 174.84302,37.218878 170.31252,70.169978 170.31252,110.78148 C 170.31252,151.39288 174.84302,184.34408 179.96881,184.34388 C 179.96931,184.34348 180.00011,184.34388 180.00011,184.34388 C 194.69101,184.34378 782.13402,184.34388 791.40632,184.34388 C 791.40632,184.34388 794.75012,175.46908 794.75012,175.46888 C 794.75012,175.46898 799.21882,163.12518 799.21882,110.78148 C 799.21882,58.437778 794.75012,46.093878 794.75012,46.093878 C 794.75012,46.093878 791.40632,37.218878 791.40632,37.218878 C 783.39032,37.218878 194.72731,37.218878 180.00011,37.218878 C 180.00011,37.218878 179.96931,37.219478 179.96881,37.218878 z M 178.78131,185.15648 C 178.29731,185.44848 177.68061,185.76958 177.00011,186.06268 C 177.68131,185.77048 178.29451,185.44968 178.78131,185.15648 z M 172.31252,186.75018 C 172.46942,186.77898 172.62272,186.79368 172.78132,186.81268 C 172.62402,186.79528 172.46832,186.77738 172.31252,186.75018 z "
         id="path9469" />
      <path
         sodipodi:nodetypes="csccscczcsczcsc"
         id="path9630"
         d="M 180.10475,45.466 C 179.48755,42.1603 178.81555,39.4357 178.10475,37.3723 C 178.81575,39.4362 179.48725,42.1596 180.10475,45.466 z M 180.10475,167.466 C 179.48725,170.7725 178.81575,173.4959 178.10475,175.5598 C 178.81555,173.4964 179.48755,170.7718 180.10475,167.466 z M 174.91735,32.9036 C 174.91735,32.9036 171.69855,30.3782 168.47975,30.3782 C 165.26105,30.3782 162.04235,32.9036 162.04235,32.9036 C 156.91655,32.9036 152.79165,65.8546 152.79165,106.466 C 152.79165,147.0775 156.91655,180.0285 162.04235,180.0286 C 162.04235,180.0286 165.26105,182.554 168.47975,182.554 C 171.69855,182.554 174.91735,180.0286 174.91735,180.0286 C 169.79155,180.0286 165.27895,147.0775 165.27895,106.466 C 165.27895,65.8546 169.79155,32.9036 174.91735,32.9036 z "
         style="opacity:0.5;fill:url(#radialGradient2690);fill-opacity:1;fill-rule:nonzero;stroke:none;stroke-width:10;stroke-linecap:round;stroke-linejoin:round;stroke-miterlimit:4;stroke-dasharray:none;stroke-opacity:1" />
      <path
         sodipodi:nodetypes="csscscc"
         id="path9643"
         d="M 786.36695,32.9036 C 826.97835,32.9036 859.96065,65.8547 859.96065,106.466 C 859.96065,147.0775 826.97835,180.0283 786.36695,180.0286 C 786.36695,180.0285 789.71065,171.1536 789.71065,171.1536 C 789.71065,171.1536 794.18165,158.8099 794.18165,106.4661 C 794.18165,54.1224 789.71065,41.7786 789.71065,41.7786 C 789.71065,41.7786 786.36695,32.9036 786.36695,32.9036 z "
         style="opacity:0.25;fill:url(#radialGradient2687);fill-opacity:1;fill-rule:nonzero;stroke:none;stroke-width:10;stroke-linecap:round;stroke-linejoin:round;stroke-miterlimit:4;stroke-dasharray:none;stroke-opacity:1" />
      <path
         style="opacity:0.07000002;fill:url(#radialGradient2684);fill-opacity:1;fill-rule:nonzero;stroke:none;stroke-width:10;stroke-linecap:round;stroke-linejoin:round;stroke-miterlimit:4;stroke-opacity:1"
         d="M 789.71295,41.7763 C 789.71285,41.7763 794.18165,54.1202 794.18165,106.4639 C 794.18165,158.8076 789.71295,171.1515 789.71295,171.1513 C 823.93205,169.4155 851.18165,141.1108 851.18165,106.4639 C 851.18165,71.8171 823.93215,43.5122 789.71295,41.7763 z "
         id="path9645" />
      <path
         sodipodi:type="arc"
         style="opacity:0.15;fill:url(#radialGradient2644);fill-opacity:1;fill-rule:nonzero;stroke:none;stroke-width:12;stroke-linecap:round;stroke-linejoin:round;stroke-miterlimit:4;stroke-dasharray:none;stroke-opacity:1"
         id="path9647"
         sodipodi:cx="891.7655"
         sodipodi:cy="2693.1809"
         sodipodi:rx="1.1002983"
         sodipodi:ry="12.644697"
         d="M 892.8658 2693.1809 A 1.1002983 12.644697 0 1 1  890.6652,2693.1809 A 1.1002983 12.644697 0 1 1  892.8658 2693.1809 z"
         transform="matrix(0.8888889,0,0,1,65.30355,-2586.4388)" />
      <path
         sodipodi:nodetypes="ccssssc"
         id="path9649"
         d="M 856.40035,93.5576 C 855.68985,93.5577 849.92155,95.0723 849.46295,97.4951 C 849.46295,97.4951 849.24415,97.9718 849.24415,106.4639 C 849.24415,114.9559 849.46285,115.4637 849.46295,115.4639 C 849.92155,117.8859 855.68975,119.3701 856.40035,119.3701 C 857.79285,119.3702 856.61915,113.5893 856.61915,106.4639 C 856.61915,99.3386 857.79275,93.5577 856.40035,93.5576 z "
         style="opacity:0.25;fill:url(#radialGradient2680);fill-opacity:1;fill-rule:nonzero;stroke:none;stroke-width:12;stroke-linecap:round;stroke-linejoin:round;stroke-miterlimit:4;stroke-dasharray:none;stroke-opacity:1" />
      <path
         style="opacity:0.25;fill:url(#linearGradient2677);fill-opacity:1;fill-rule:nonzero;stroke:none;stroke-width:10;stroke-linecap:round;stroke-linejoin:round;stroke-miterlimit:4;stroke-dasharray:none;stroke-opacity:1"
         d="M 174.96295,32.9013 C 176.53215,32.9014 178.03875,36.0129 179.40035,41.4639 C 193.13305,41.4721 214.51255,41.4915 221.96295,41.4951 C 222.00635,41.4897 222.04415,41.4638 222.08795,41.4639 C 224.37285,41.4638 759.94255,41.6664 821.24415,41.6826 C 810.86065,36.0808 798.98525,32.9016 786.36915,32.9013 C 778.35315,32.9013 189.69005,32.9016 174.96295,32.9013 z "
         id="path9651" />
      <path
         style="opacity:0.12000002;fill:url(#linearGradient2674);fill-opacity:1;fill-rule:nonzero;stroke:none;stroke-width:10;stroke-linecap:round;stroke-linejoin:round;stroke-miterlimit:4;stroke-dasharray:none;stroke-opacity:1"
         d="M 821.24415,171.2451 C 757.60055,171.2613 224.72795,171.4638 222.08795,171.4639 C 222.04415,171.4638 222.00635,171.438 221.96295,171.4326 C 214.54615,171.4367 193.14945,171.4557 179.40035,171.4639 C 178.03875,176.9148 176.53215,180.0263 174.96295,180.0263 C 189.65385,180.0262 777.09685,180.0263 786.36915,180.0263 C 798.98525,180.0263 810.86065,176.8469 821.24415,171.2451 z "
         id="path9653" />
      <path
         sodipodi:nodetypes="cscscscc"
         id="path9655"
         d="M 789.71295,41.7763 C 823.93205,43.5121 851.18165,71.8171 851.18165,106.4639 C 851.18165,140.3569 825.09995,168.1437 791.93165,170.9639 C 791.20735,171.0334 790.46865,171.11 789.71295,171.1513 C 790.39685,171.1139 757.60055,171.2613 821.24415,171.2451 C 844.28525,158.8148 859.96295,134.4591 859.96295,106.4639 C 859.96295,78.4686 844.28525,54.113 821.24415,41.6826 C 759.94255,41.6664 789.71295,41.7763 789.71295,41.7763 z "
         style="opacity:0.12000002;fill:url(#radialGradient2671);fill-opacity:1;fill-rule:nonzero;stroke:none;stroke-width:10;stroke-linecap:round;stroke-linejoin:round;stroke-miterlimit:4;stroke-dasharray:none;stroke-opacity:1" />
      <path
         style="opacity:0.35;fill:url(#radialGradient2668);fill-opacity:1;fill-rule:nonzero;stroke:none;stroke-width:10;stroke-linecap:round;stroke-linejoin:round;stroke-miterlimit:4;stroke-dasharray:none;stroke-opacity:1"
         d="M 170.83795,30.7763 C 171.21505,30.8947 171.58585,31.0346 171.93165,31.1826 C 171.57655,31.0312 171.22545,30.8958 170.83795,30.7763 z M 171.96295,31.1826 C 172.98825,31.6242 173.84565,32.143 174.36915,32.4951 C 173.83945,32.1392 172.98805,31.6223 171.96295,31.1826 z M 174.93165,32.9013 C 173.36245,32.9013 171.83655,36.0129 170.49415,41.4639 C 174.16755,41.4639 178.90405,41.4639 179.40035,41.4639 C 178.03855,36.013 176.53225,32.9011 174.96295,32.9013 C 174.96295,32.9013 174.93215,32.9018 174.93165,32.9013 z M 170.49415,171.4639 C 171.83655,176.9148 173.36245,180.0263 174.93165,180.0263 C 174.93215,180.0259 174.96295,180.0263 174.96295,180.0263 C 176.53225,180.0261 178.03865,176.915 179.40035,171.4639 C 178.90155,171.4641 174.16695,171.4639 170.49415,171.4639 z M 173.74415,180.8389 C 173.26015,181.1309 172.64345,181.452 171.96295,181.7451 C 172.64445,181.4527 173.25725,181.1323 173.74415,180.8389 z M 171.93165,181.7451 C 171.58585,181.8931 171.21505,182.033 170.83795,182.1513 C 171.22525,182.0319 171.57675,181.8964 171.93165,181.7451 z M 170.83795,182.1513 C 170.28175,182.3259 169.70975,182.4692 169.11915,182.5263 C 169.70055,182.4726 170.28895,182.3206 170.83795,182.1513 z M 167.27535,182.4326 C 167.43225,182.4614 167.58555,182.4761 167.74415,182.4951 C 167.58685,182.4777 167.43115,182.4598 167.27535,182.4326 z "
         id="path9657" />
      <path
         id="path9659"
         d="M 162.08795,32.9013 C 156.96235,32.9013 152.80665,65.8526 152.80665,106.4639 C 152.80665,147.0753 156.96215,180.0262 162.08795,180.0263 C 164.24105,180.0263 166.23195,174.1556 167.80665,164.4013 L 166.02535,164.4013 C 164.91005,168.8814 163.67115,171.4639 162.33795,171.4639 C 157.81035,171.4639 154.52535,142.3358 154.52535,106.4639 C 154.52535,70.5921 157.81035,41.4949 162.33795,41.4951 C 163.95115,41.4951 165.44115,45.2415 166.71295,51.6201 L 168.24415,51.6201 C 166.60365,40.0227 164.45885,32.9013 162.08795,32.9013 z "
         style="opacity:0.35;fill:url(#linearGradient2665);fill-opacity:1;fill-rule:nonzero;stroke:none;stroke-width:10;stroke-linecap:round;stroke-linejoin:round;stroke-miterlimit:4;stroke-dasharray:none;stroke-opacity:1" />
      <path
         style="opacity:0.1;fill:#00583f;fill-opacity:1;fill-rule:nonzero;stroke:none;stroke-width:10;stroke-linecap:round;stroke-linejoin:round;stroke-miterlimit:4;stroke-dasharray:none;stroke-opacity:1"
         d="M 168.49415,30.3701 C 168.25005,30.3701 167.98685,30.4058 167.74415,30.4326 C 167.58555,30.4516 167.43225,30.4663 167.27535,30.4951 C 167.02655,30.5407 166.76745,30.6164 166.52535,30.6826 C 166.39045,30.7188 166.25125,30.7349 166.11915,30.7763 C 165.51165,30.967 164.94765,31.2121 164.43165,31.4639 C 164.32155,31.5182 164.19225,31.5654 164.08795,31.6201 C 164.07615,31.6262 164.06835,31.6452 164.05665,31.6513 C 163.77085,31.8023 163.50945,31.9473 163.27535,32.0889 C 163.26415,32.0956 163.25535,32.1134 163.24415,32.1201 C 163.19365,32.1509 163.16685,32.1841 163.11915,32.2139 C 162.48795,32.6043 162.10815,32.8856 162.08795,32.9013 C 162.08735,32.9018 162.05665,32.9013 162.05665,32.9013 C 161.91585,32.9013 161.75845,32.9459 161.61915,32.9951 C 157.95705,34.2895 154.87455,52.4056 153.52535,77.8389 C 153.29055,82.2389 153.11775,86.8637 152.99415,91.6513 C 152.87135,96.439 152.80665,101.3874 152.80665,106.4639 C 152.80665,111.5403 152.87135,116.4887 152.99415,121.2763 C 153.11775,126.064 153.29055,130.6888 153.52535,135.0889 C 154.87455,160.5221 157.95705,178.638 161.61915,179.9326 C 161.75845,179.9818 161.91585,180.0263 162.05665,180.0263 C 162.06695,180.0266 162.07765,180.0263 162.08795,180.0263 C 162.10965,180.0433 162.52685,180.4059 163.24415,180.8389 C 163.25265,180.844 163.26675,180.8336 163.27535,180.8389 C 163.51505,180.983 163.76385,181.1232 164.05665,181.2763 C 164.06565,181.2811 164.07895,181.2716 164.08795,181.2763 C 164.68615,181.5879 165.37465,181.9177 166.11915,182.1513 C 166.12885,182.1544 166.14075,182.1483 166.15035,182.1513 C 166.51855,182.2657 166.88945,182.3653 167.27535,182.4326 C 167.43225,182.4614 167.58555,182.4761 167.74415,182.4951 C 167.78685,182.4998 167.82635,182.5224 167.86915,182.5263 C 168.09025,182.5488 168.30325,182.5576 168.52535,182.5576 C 168.72635,182.5566 168.91905,182.5457 169.11915,182.5263 C 169.70055,182.4726 170.28895,182.3206 170.83795,182.1513 C 171.22525,182.0319 171.57675,181.8964 171.93165,181.7451 C 171.94065,181.7412 171.95385,181.749 171.96295,181.7451 C 172.64445,181.4528 173.25725,181.1323 173.74415,180.8389 C 174.47965,180.395 174.93165,180.0263 174.93165,180.0263 C 174.93215,180.0259 174.96295,180.0264 174.96295,180.0263 C 189.65385,180.0262 777.09685,180.0263 786.36915,180.0263 C 826.98055,180.0261 859.96295,147.0753 859.96295,106.4639 C 859.96295,65.8525 826.98055,32.9015 786.36915,32.9013 C 778.35315,32.9013 189.69005,32.9015 174.96295,32.9013 C 174.96295,32.9013 174.93215,32.9018 174.93165,32.9013 C 174.93165,32.9013 174.72895,32.7176 174.40035,32.4951 C 174.39425,32.4909 174.37545,32.4993 174.36915,32.4951 C 173.83945,32.1392 172.98805,31.6223 171.96295,31.1826 C 171.95405,31.1788 171.94055,31.1864 171.93165,31.1826 C 171.57675,31.0313 171.22525,30.8958 170.83795,30.7763 C 170.28885,30.6071 169.70055,30.4551 169.11915,30.4013 C 169.10865,30.4004 169.09845,30.4023 169.08795,30.4013 C 168.88755,30.3829 168.69535,30.3701 168.49415,30.3701 z M 170.49415,41.4639 C 189.08365,41.472 789.71295,41.7763 789.71295,41.7763 C 823.93205,43.5121 851.18165,71.8171 851.18165,106.4639 C 851.18165,140.3569 825.09995,168.1437 791.93165,170.9639 C 791.20735,171.0334 790.46865,171.1101 789.71295,171.1513 C 790.45855,171.1106 189.38235,171.4546 170.49415,171.4639 C 167.45165,159.1096 165.27535,134.6424 165.27535,106.4639 C 165.27535,78.2855 167.45165,53.8181 170.49415,41.4639 z "
         id="path9661" />
      <path
         style="opacity:0.8;fill:url(#linearGradient2661);fill-opacity:1;fill-rule:nonzero;stroke:none;stroke-width:10;stroke-linecap:round;stroke-linejoin:round;stroke-miterlimit:4;stroke-dasharray:none;stroke-opacity:1"
         d="M 168.52535,30.4326 C 168.36685,30.4516 168.21365,30.4663 168.05665,30.4951 C 168.21255,30.4679 168.36815,30.45 168.52535,30.4326 z M 175.71295,32.9013 C 171.69215,32.9013 168.03905,53.2133 166.65035,81.5576 C 171.56815,65.2069 174.25685,55.9932 196.65035,56.5263 C 196.65045,56.5263 770.12245,56.4951 770.12245,56.4951 C 794.19395,56.5588 807.48165,35.9687 805.74415,35.4951 C 798.45555,34.5183 786.36915,32.9013 786.36915,32.9013 C 786.24365,32.9013 190.24065,32.9013 175.74415,32.9013 C 175.74405,32.9013 175.71335,32.9019 175.71295,32.9013 z "
         id="path9663"
         sodipodi:nodetypes="cscccscccsc" />
    </g>
  </g>
</svg>
