<?xml version="1.0" encoding="UTF-8" standalone="no"?>
<!-- Created with Inkscape (http://www.inkscape.org/) -->
<svg
   xmlns:dc="http://purl.org/dc/elements/1.1/"
   xmlns:cc="http://web.resource.org/cc/"
   xmlns:rdf="http://www.w3.org/1999/02/22-rdf-syntax-ns#"
   xmlns:svg="http://www.w3.org/2000/svg"
   xmlns="http://www.w3.org/2000/svg"
   xmlns:xlink="http://www.w3.org/1999/xlink"
   xmlns:sodipodi="http://sodipodi.sourceforge.net/DTD/sodipodi-0.dtd"
   xmlns:inkscape="http://www.inkscape.org/namespaces/inkscape"
   width="300"
   height="150"
   id="svg2160"
   sodipodi:version="0.32"
   inkscape:version="0.45.1"
   version="1.0"
   sodipodi:docbase="/home/jra/Desktop"
   sodipodi:docname="tavle4cleandup.svg"
   inkscape:output_extension="org.inkscape.output.svg.inkscape">
  <defs
     id="defs2162">
    <linearGradient
       id="linearGradient4214">
      <stop
         style="stop-color:#000000;stop-opacity:0;"
         offset="0"
         id="stop4216" />
      <stop
         style="stop-color:#000000;stop-opacity:1;"
         offset="1"
         id="stop4218" />
    </linearGradient>
    <radialGradient
       inkscape:collect="always"
       xlink:href="#linearGradient4214"
       id="radialGradient4220"
       cx="271.80069"
       cy="132.21245"
       fx="271.80069"
       fy="132.21245"
       r="18.216324"
       gradientTransform="matrix(2.687933,2.2810311e-2,-7.6468845e-3,0.9010975,-459.9649,7.5601181)"
       gradientUnits="userSpaceOnUse" />
    <linearGradient
       inkscape:collect="always"
       xlink:href="#linearGradient4214"
       id="linearGradient4258"
       x1="228.76118"
       y1="142.95158"
       x2="228.71837"
       y2="146.18045"
       gradientUnits="userSpaceOnUse" />
  </defs>
  <sodipodi:namedview
     id="base"
     pagecolor="#ffffff"
     bordercolor="#666666"
     borderopacity="1.0"
     inkscape:pageopacity="0.0"
     inkscape:pageshadow="2"
     inkscape:zoom="2.4066667"
     inkscape:cx="209.45683"
     inkscape:cy="4.1913845"
     inkscape:current-layer="layer1"
     inkscape:document-units="px"
     width="300px"
     height="150px"
     inkscape:window-width="1680"
     inkscape:window-height="976"
     inkscape:window-x="0"
     inkscape:window-y="49"
     showguides="true"
     inkscape:guide-bbox="true" />
  <metadata
     id="metadata2165">
    <rdf:RDF>
      <cc:Work
         rdf:about="">
        <dc:format>image/svg+xml</dc:format>
        <dc:type
           rdf:resource="http://purl.org/dc/dcmitype/StillImage" />
      </cc:Work>
    </rdf:RDF>
  </metadata>
  <g
     id="layer1"
     inkscape:label="Layer 1"
     inkscape:groupmode="layer">
    <path
       style="opacity:1;fill:#888a85;fill-opacity:1;fill-rule:nonzero;stroke:none;stroke-width:12;stroke-linecap:round;stroke-linejoin:round;stroke-miterlimit:4;stroke-dasharray:none;stroke-opacity:1"
       d="M 6.3125 0.46875 L 2.84375 1.09375 L 2.84375 145.5 L 0.03125 146.8125 L 0.03125 149.90625 L 300.40625 149.90625 L 300.40625 146.8125 L 297.59375 145.5 L 297.59375 1.09375 L 294.125 0.46875 L 6.3125 0.46875 z "
       id="rect3196" />
    <path
       style="opacity:0.50485439;fill:#d3d7cf;fill-opacity:1;fill-rule:nonzero;stroke:none;stroke-width:12;stroke-linecap:round;stroke-linejoin:miter;stroke-miterlimit:4;stroke-dasharray:none;stroke-opacity:1"
       d="M 2.84375,1.0915923 L 2.84375,145.50674 L 297.59375,145.50674 L 297.59375,1.0915923 L 2.84375,1.0915923 z M 8.7634152,7.0112575 L 291.67409,7.0112575 L 291.67409,139.58708 L 8.7634152,139.58708 L 8.7634152,7.0112575 z "
       id="rect3146" />
    <path
       style="opacity:0.50485439;fill:#555753;fill-opacity:1;fill-rule:nonzero;stroke:none;stroke-width:12;stroke-linecap:round;stroke-linejoin:miter;stroke-miterlimit:4;stroke-dasharray:none;stroke-opacity:1"
       d="M 8.7634152,7.023651 L 8.7634152,139.59946 L 291.67409,139.59946 L 291.67409,7.023651 L 289.7317,7.023651 L 289.7317,138.67452 L 10.705805,138.67452 L 10.705805,7.023651 L 8.7634152,7.023651 z "
       id="path3173"
       sodipodi:nodetypes="ccccccccc" />
    <path
       style="opacity:0.75;fill:#ffffff;fill-opacity:1;fill-rule:nonzero;stroke:none;stroke-width:12;stroke-linecap:round;stroke-linejoin:round;stroke-miterlimit:4;stroke-dasharray:none;stroke-opacity:1"
       d="M 6.3043184,0.46566072 L 2.84375,1.1039858 L 297.59375,1.1039858 L 294.10235,0.46566072 L 6.3043184,0.46566072 z "
       id="rect3188"
       sodipodi:nodetypes="ccccc" />
    <path
       style="opacity:0.75;fill:#ffffff;fill-opacity:1;fill-rule:nonzero;stroke:none;stroke-width:12;stroke-linecap:round;stroke-linejoin:miter;stroke-miterlimit:4;stroke-dasharray:none;stroke-opacity:1"
       d="M 2.84375,145.5 L 297.59375,145.5 L 300.39369,146.81294 L 0.043811682,146.81294 L 2.84375,145.5 z "
       id="path3205"
       sodipodi:nodetypes="ccccc" />
    <path
       style="opacity:0.50485439;fill:#babdb6;fill-opacity:1;fill-rule:nonzero;stroke:none;stroke-width:12;stroke-linecap:round;stroke-linejoin:miter;stroke-miterlimit:4;stroke-dasharray:none;stroke-opacity:1"
       d="M 0.03125,146.8125 L 0.03125,149.90012 L 300.40625,149.90012 L 300.40625,146.8125 L 0.03125,146.8125 z "
       id="path4191"
       sodipodi:nodetypes="ccccc" />
    <path
       sodipodi:nodetypes="ccccc"
       id="path4228"
       d="M 8.7634152,7.023651 L 8.7634152,139.59946 L 10.705805,138.67452 L 10.705805,7.023651 L 8.7634152,7.023651 z "
       style="opacity:0.25;fill:#ffffff;fill-opacity:1;fill-rule:nonzero;stroke:none;stroke-width:12;stroke-linecap:round;stroke-linejoin:miter;stroke-miterlimit:4;stroke-dasharray:none;stroke-opacity:1" />
    <path
       style="opacity:0.75;fill:#ffffff;fill-opacity:1;fill-rule:nonzero;stroke:none;stroke-width:12;stroke-linecap:round;stroke-linejoin:miter;stroke-miterlimit:4;stroke-dasharray:none;stroke-opacity:1"
       d="M 8.7634152,139.59946 L 291.67409,139.59946 L 289.7317,138.67452 L 10.705805,138.67452 L 8.7634152,139.59946 z "
       id="path4230"
       sodipodi:nodetypes="ccccc" />
    <path
       sodipodi:nodetypes="ccccc"
       id="path4232"
       d="M 291.67409,139.59946 L 291.67409,7.023651 L 289.7317,7.023651 L 289.7317,138.67452 L 291.67409,139.59946 z "
       style="opacity:0.5;fill:#ffffff;fill-opacity:1;fill-rule:nonzero;stroke:none;stroke-width:12;stroke-linecap:round;stroke-linejoin:miter;stroke-miterlimit:4;stroke-dasharray:none;stroke-opacity:1" />
    <path
       style="opacity:1;fill:#1e2e1e;fill-opacity:1;fill-rule:nonzero;stroke:none;stroke-width:12;stroke-linecap:round;stroke-linejoin:round;stroke-miterlimit:4;stroke-dasharray:none;stroke-opacity:1"
       d="M 10.71875,7.03125 L 10.71875,138.6875 L 289.71875,138.6875 L 289.71875,7.03125 L 10.71875,7.03125 z "
       id="canvas"
       sodipodi:nodetypes="ccccc"
       inkscape:label="" />
    <path
       style="opacity:1;fill:#e3ad00;fill-opacity:1;fill-rule:nonzero;stroke:none;stroke-width:12;stroke-linecap:round;stroke-linejoin:miter;stroke-miterlimit:4;stroke-dasharray:none;stroke-opacity:1"
       d="M 255.90012,129.40625 L 255.90012,145.90625 L 256.78125,147.65625 L 293.21875,147.65625 L 293.21875,130.59375 L 290.88756,129.40625 L 255.90012,129.40625 z "
       id="rect4200"
       sodipodi:nodetypes="ccccccc" />
    <rect
       style="opacity:0.05;fill:#000000;fill-opacity:1;fill-rule:nonzero;stroke:none;stroke-width:12;stroke-linecap:round;stroke-linejoin:miter;stroke-miterlimit:4;stroke-dasharray:none;stroke-opacity:1"
       id="rect4196"
       width="36.432648"
       height="17.041077"
       x="256.79141"
       y="130.60843" />
    <path
       style="opacity:0.25;fill:#eeeeec;fill-opacity:1;fill-rule:nonzero;stroke:none;stroke-width:12;stroke-linecap:round;stroke-linejoin:miter;stroke-miterlimit:4;stroke-dasharray:none;stroke-opacity:1"
       d="M 255.90625,129.40625 L 256.78125,130.59375 L 293.21875,130.59375 L 290.875,129.40625 L 255.90625,129.40625 z "
       id="path4205"
       sodipodi:nodetypes="ccccc" />
    <path
       id="path4210"
       d="M 255.90625,129.40625 L 255.90625,145.90625 L 256.78125,147.65625 L 256.78125,130.59375 L 255.90625,129.40625 z "
       style="opacity:0.1;fill:#eeeeec;fill-opacity:1;fill-rule:nonzero;stroke:none;stroke-width:12;stroke-linecap:round;stroke-linejoin:miter;stroke-miterlimit:4;stroke-dasharray:none;stroke-opacity:1"
       sodipodi:nodetypes="ccccc" />
    <rect
       y="130.60843"
       x="256.79141"
       height="17.041077"
       width="36.432648"
       id="rect4212"
       style="opacity:0.2815534;fill:url(#radialGradient4220);fill-opacity:1.0;fill-rule:nonzero;stroke:none;stroke-width:12;stroke-linecap:round;stroke-linejoin:miter;stroke-miterlimit:4;stroke-dasharray:none;stroke-opacity:1" />
    <path
       style="fill:#eeeeec;fill-opacity:1;fill-rule:nonzero;stroke:none;stroke-width:12;stroke-linecap:round;stroke-linejoin:miter;stroke-miterlimit:4;stroke-opacity:1"
       d="M 217.125 141.1875 C 217.125 141.1875 216.71875 142.02006 216.71875 143.6875 C 216.71875 145.35171 217.125 146.1875 217.125 146.1875 L 241.8125 146.1875 C 241.8125 146.1875 242.3125 145.4556 242.3125 143.6875 C 242.3125 142.02329 241.8125 141.1875 241.8125 141.1875 L 217.125 141.1875 z "
       id="path4247" />
    <path
       style="fill:#eeeeec;fill-opacity:1;fill-rule:nonzero;stroke:none;stroke-width:12;stroke-linecap:round;stroke-linejoin:miter;stroke-miterlimit:4;stroke-opacity:1"
       d="M 217.12683,141.18565 L 241.80701,141.18565 C 241.80701,141.18565 241.28762,142.01884 241.28762,143.68305 C 241.28762,145.45114 241.80701,146.18045 241.80701,146.18045 L 217.12683,146.18045 C 217.12683,146.18045 216.71132,145.34726 216.71132,143.68305 C 216.71132,142.0156 217.12683,141.18565 217.12683,141.18565 z "
       id="rect4242"
       sodipodi:nodetypes="cczcczc" />
    <path
       sodipodi:nodetypes="cczcczc"
       id="path4245"
       d="M 217.12683,141.18565 L 241.80701,141.18565 C 241.80701,141.18565 242.3264,142.01884 242.3264,143.68305 C 242.3264,145.45114 241.80701,146.18045 241.80701,146.18045 L 217.12683,146.18045 C 217.12683,146.18045 217.64622,145.34726 217.64622,143.68305 C 217.64622,142.0156 217.12683,141.18565 217.12683,141.18565 z "
       style="fill:url(#linearGradient4258);fill-opacity:1.0;fill-rule:nonzero;stroke:none;stroke-width:12;stroke-linecap:round;stroke-linejoin:miter;stroke-miterlimit:4;stroke-opacity:1;opacity:0.25" />
  </g>
</svg>
