<?xml version="1.0" encoding="UTF-8" standalone="no"?>
<!-- Created with Inkscape (http://www.inkscape.org/) -->
<svg
   xmlns:dc="http://purl.org/dc/elements/1.1/"
   xmlns:cc="http://web.resource.org/cc/"
   xmlns:rdf="http://www.w3.org/1999/02/22-rdf-syntax-ns#"
   xmlns:svg="http://www.w3.org/2000/svg"
   xmlns="http://www.w3.org/2000/svg"
   xmlns:xlink="http://www.w3.org/1999/xlink"
   xmlns:sodipodi="http://sodipodi.sourceforge.net/DTD/sodipodi-0.dtd"
   xmlns:inkscape="http://www.inkscape.org/namespaces/inkscape"
   width="770"
   height="154"
   id="svg2"
   sodipodi:version="0.32"
   inkscape:version="0.45.1"
   sodipodi:docbase="/home/jra/Desktop"
   sodipodi:docname="plasmoid97correkted-and-canvas-little-smaller-than-black-area-to-get-margins.svg"
   inkscape:output_extension="org.inkscape.output.svg.inkscape"
   version="1.0"
   inkscape:export-filename="/home/jra/Desktop/plasmoid97.png"
   inkscape:export-xdpi="90"
   inkscape:export-ydpi="90">
  <defs
     id="defs4">
    <linearGradient
       inkscape:collect="always"
       id="linearGradient10862">
      <stop
         style="stop-color:#000000;stop-opacity:1;"
         offset="0"
         id="stop10864" />
      <stop
         style="stop-color:#000000;stop-opacity:0;"
         offset="1"
         id="stop10866" />
    </linearGradient>
    <linearGradient
       id="linearGradient10650">
      <stop
         style="stop-color:#000000;stop-opacity:0;"
         offset="0"
         id="stop10652" />
      <stop
         id="stop10656"
         offset="0.5"
         style="stop-color:#000000;stop-opacity:0.1125;" />
      <stop
         style="stop-color:#000000;stop-opacity:1;"
         offset="1"
         id="stop10654" />
    </linearGradient>
    <linearGradient
       id="linearGradient9939">
      <stop
         id="stop9941"
         offset="0"
         style="stop-color:#00583f;stop-opacity:1;" />
      <stop
         style="stop-color:#00583f;stop-opacity:0;"
         offset="0.5"
         id="stop9943" />
      <stop
         id="stop9945"
         offset="0.75"
         style="stop-color:#00583f;stop-opacity:0;" />
      <stop
         id="stop9947"
         offset="1"
         style="stop-color:#00583f;stop-opacity:1;" />
    </linearGradient>
    <linearGradient
       id="linearGradient8458">
      <stop
         id="stop8460"
         offset="0"
         style="stop-color:#ffffff;stop-opacity:1;" />
      <stop
         style="stop-color:#ffffff;stop-opacity:0.24375001;"
         offset="0.16620499"
         id="stop8462" />
      <stop
         id="stop8466"
         offset="0.84210527"
         style="stop-color:#ffffff;stop-opacity:0;" />
      <stop
         id="stop8464"
         offset="1"
         style="stop-color:#ffffff;stop-opacity:1;" />
    </linearGradient>
    <linearGradient
       id="linearGradient8450">
      <stop
         id="stop8452"
         offset="0"
         style="stop-color:#ffffff;stop-opacity:0;" />
      <stop
         style="stop-color:#ffffff;stop-opacity:0;"
         offset="0.90789473"
         id="stop8456" />
      <stop
         id="stop8454"
         offset="1"
         style="stop-color:#ffffff;stop-opacity:1;" />
    </linearGradient>
    <linearGradient
       id="linearGradient6040">
      <stop
         style="stop-color:#ffffff;stop-opacity:0.71249998;"
         offset="0"
         id="stop6042" />
      <stop
         id="stop6046"
         offset="0.5"
         style="stop-color:#ffffff;stop-opacity:0.18125001;" />
      <stop
         style="stop-color:#ffffff;stop-opacity:0;"
         offset="1"
         id="stop6044" />
    </linearGradient>
    <linearGradient
       inkscape:collect="always"
       id="linearGradient5530">
      <stop
         style="stop-color:#000000;stop-opacity:1;"
         offset="0"
         id="stop5532" />
      <stop
         style="stop-color:#000000;stop-opacity:0;"
         offset="1"
         id="stop5534" />
    </linearGradient>
    <linearGradient
       id="linearGradient5697">
      <stop
         id="stop5699"
         offset="0"
         style="stop-color:#ffffff;stop-opacity:1;" />
      <stop
         id="stop5701"
         offset="1"
         style="stop-color:#ffffff;stop-opacity:0;" />
    </linearGradient>
    <linearGradient
       id="linearGradient3617">
      <stop
         id="stop3619"
         offset="0"
         style="stop-color:#000000;stop-opacity:1;" />
      <stop
         id="stop3621"
         offset="1"
         style="stop-color:#ffffff;stop-opacity:1;" />
    </linearGradient>
    <linearGradient
       id="linearGradient3744">
      <stop
         style="stop-color:#030303;stop-opacity:1;"
         offset="0"
         id="stop3746" />
      <stop
         id="stop3748"
         offset="0.5"
         style="stop-color:#000000;stop-opacity:0.53125;" />
      <stop
         style="stop-color:#ffffff;stop-opacity:0.42500001;"
         offset="0.75"
         id="stop3750" />
      <stop
         style="stop-color:#000000;stop-opacity:0.47450981;"
         offset="1"
         id="stop3752" />
    </linearGradient>
    <linearGradient
       id="linearGradient3734">
      <stop
         style="stop-color:#000000;stop-opacity:1;"
         offset="0"
         id="stop3736" />
      <stop
         id="stop3738"
         offset="0.5"
         style="stop-color:#000000;stop-opacity:0;" />
      <stop
         style="stop-color:#000000;stop-opacity:0.30588236;"
         offset="0.75"
         id="stop3740" />
      <stop
         style="stop-color:#000000;stop-opacity:0.99374998;"
         offset="1"
         id="stop3742" />
    </linearGradient>
    <linearGradient
       id="linearGradient3559">
      <stop
         style="stop-color:#000000;stop-opacity:1;"
         offset="0"
         id="stop3561" />
      <stop
         style="stop-color:#000000;stop-opacity:0;"
         offset="1"
         id="stop3563" />
    </linearGradient>
    <linearGradient
       id="linearGradient3521">
      <stop
         style="stop-color:#ffffff;stop-opacity:1;"
         offset="0"
         id="stop3527" />
      <stop
         style="stop-color:#ffffff;stop-opacity:0;"
         offset="1"
         id="stop3529" />
    </linearGradient>
    <linearGradient
       id="linearGradient3476">
      <stop
         style="stop-color:#ffffff;stop-opacity:1;"
         offset="0"
         id="stop3478" />
      <stop
         id="stop3500"
         offset="0.5"
         style="stop-color:#ffffff;stop-opacity:0.24375001;" />
      <stop
         style="stop-color:#ffffff;stop-opacity:0.46875;"
         offset="1"
         id="stop3480" />
    </linearGradient>
    <linearGradient
       inkscape:collect="always"
       xlink:href="#linearGradient8458"
       id="linearGradient10617"
       gradientUnits="userSpaceOnUse"
       gradientTransform="translate(-37.56786,-1691.1999)"
       x1="571.88531"
       y1="1714.325"
       x2="572.08624"
       y2="1871.2733" />
    <linearGradient
       inkscape:collect="always"
       xlink:href="#linearGradient5697"
       id="linearGradient2286"
       gradientUnits="userSpaceOnUse"
       gradientTransform="translate(-125.36679,-1235.0824)"
       x1="524.05499"
       y1="1287.4375"
       x2="524.05347"
       y2="1236.3125" />
    <linearGradient
       inkscape:collect="always"
       xlink:href="#linearGradient3521"
       id="linearGradient2290"
       gradientUnits="userSpaceOnUse"
       gradientTransform="matrix(0,1,1,0,1101.5687,-1782.0177)"
       x1="1864.7565"
       y1="-1063.7113"
       x2="1865.6616"
       y2="-1017.2823" />
    <radialGradient
       inkscape:collect="always"
       xlink:href="#linearGradient3521"
       id="radialGradient2293"
       gradientUnits="userSpaceOnUse"
       gradientTransform="matrix(-3.1851455e-6,1.2393664,0.1559995,4.0091549e-7,238.9528,-2028.7681)"
       cx="1692.9417"
       cy="-1022.0625"
       fx="1692.9417"
       fy="-1022.0625"
       r="76.09375" />
    <radialGradient
       inkscape:collect="always"
       xlink:href="#linearGradient8450"
       id="radialGradient2296"
       gradientUnits="userSpaceOnUse"
       gradientTransform="matrix(2.0572515,-1.1612885e-6,1.0533337e-6,1.861943,-1014.1,-6647.3657)"
       cx="827.55615"
       cy="3611.3184"
       fx="827.55615"
       fy="3611.3184"
       r="39.048321" />
    <linearGradient
       inkscape:collect="always"
       xlink:href="#linearGradient3521"
       id="linearGradient2299"
       gradientUnits="userSpaceOnUse"
       gradientTransform="translate(-125.36679,-4555.0824)"
       x1="503.08572"
       y1="4697.5938"
       x2="503.08572"
       y2="4703.751" />
    <linearGradient
       inkscape:collect="always"
       xlink:href="#linearGradient3476"
       id="linearGradient2302"
       gradientUnits="userSpaceOnUse"
       gradientTransform="translate(-125.36679,-4555.0824)"
       x1="523.14056"
       y1="4559.8945"
       x2="523.14056"
       y2="4567.8779" />
    <radialGradient
       inkscape:collect="always"
       xlink:href="#linearGradient3476"
       id="radialGradient2305"
       gradientUnits="userSpaceOnUse"
       gradientTransform="matrix(0.999971,-8.2400402e-3,5.0407936e-2,6.1172604,-298.85231,-21034.354)"
       cx="884.21075"
       cy="3452.3438"
       fx="884.21075"
       fy="3452.3438"
       r="3.9186938" />
    <radialGradient
       inkscape:collect="always"
       xlink:href="#linearGradient6040"
       id="radialGradient2309"
       gradientUnits="userSpaceOnUse"
       gradientTransform="matrix(1.0043681,-2.8996165e-2,-2.716019e-2,-0.9407747,-1103.3207,-291.79025)"
       cx="1788.1462"
       cy="-387.69006"
       fx="1788.1462"
       fy="-387.69006"
       r="73.5625" />
    <radialGradient
       inkscape:collect="always"
       xlink:href="#linearGradient3476"
       id="radialGradient2312"
       gradientUnits="userSpaceOnUse"
       gradientTransform="matrix(1.1025959e-2,1.8788856,0.1690953,-9.923103e-4,228.2697,-3415.4894)"
       cx="1854.6189"
       cy="-1030.7599"
       fx="1854.6189"
       fy="-1030.7599"
       r="76.087898" />
    <linearGradient
       inkscape:collect="always"
       xlink:href="#linearGradient5697"
       id="linearGradient2315"
       gradientUnits="userSpaceOnUse"
       gradientTransform="matrix(0,1,1,0,1101.5687,-1622.0177)"
       x1="1611.5767"
       y1="-692.59375"
       x2="1734.2285"
       y2="-692.59375" />
    <linearGradient
       inkscape:collect="always"
       xlink:href="#linearGradient3744"
       id="linearGradient2318"
       gradientUnits="userSpaceOnUse"
       gradientTransform="matrix(0,1,1,0,1101.5687,-1622.0177)"
       x1="1774.5641"
       y1="-716.1922"
       x2="1621.2075"
       y2="-718.42773" />
    <linearGradient
       inkscape:collect="always"
       xlink:href="#linearGradient3521"
       id="linearGradient2321"
       gradientUnits="userSpaceOnUse"
       gradientTransform="translate(-225.3666,-4195.0824)"
       x1="300.57904"
       y1="4196.2583"
       x2="300.57904"
       y2="4348.4341" />
    <linearGradient
       inkscape:collect="always"
       xlink:href="#linearGradient10862"
       id="linearGradient2324"
       gradientUnits="userSpaceOnUse"
       gradientTransform="translate(-1045.3666,-7075.0824)"
       x1="1047"
       y1="7152.3594"
       x2="1105.2812"
       y2="7152.3594" />
    <linearGradient
       inkscape:collect="always"
       xlink:href="#linearGradient3617"
       id="linearGradient2338"
       gradientUnits="userSpaceOnUse"
       gradientTransform="translate(-1047.6014,-7337.7161)"
       x1="1220.3402"
       y1="7420.2329"
       x2="1220.3402"
       y2="7408.0757" />
    <linearGradient
       inkscape:collect="always"
       xlink:href="#linearGradient5530"
       id="linearGradient2342"
       gradientUnits="userSpaceOnUse"
       gradientTransform="translate(-25.366865,-435.08235)"
       x1="155.15625"
       y1="620.81458"
       x2="155.15625"
       y2="429.19632" />
    <linearGradient
       inkscape:collect="always"
       xlink:href="#linearGradient3559"
       id="linearGradient2345"
       gradientUnits="userSpaceOnUse"
       gradientTransform="matrix(0,1,1,0,1201.5687,-1782.0177)"
       x1="1926.2791"
       y1="-1109.3978"
       x2="1825.7821"
       y2="-1110.3696" />
    <radialGradient
       inkscape:collect="always"
       xlink:href="#linearGradient3476"
       id="radialGradient2352"
       gradientUnits="userSpaceOnUse"
       gradientTransform="matrix(-3.7280282e-7,1.5820335,0.1830041,4.3124525e-8,266.6145,-2864.1817)"
       cx="1859.2812"
       cy="-1021.9818"
       fx="1859.2812"
       fy="-1021.9818"
       r="76.087898" />
    <linearGradient
       inkscape:collect="always"
       xlink:href="#linearGradient10650"
       id="linearGradient2355"
       gradientUnits="userSpaceOnUse"
       gradientTransform="matrix(0,1,1,0,1101.5687,-1622.0177)"
       x1="1679.8007"
       y1="-659.05377"
       x2="1761.219"
       y2="-657.93677" />
    <radialGradient
       inkscape:collect="always"
       xlink:href="#linearGradient10650"
       id="radialGradient2358"
       gradientUnits="userSpaceOnUse"
       gradientTransform="matrix(1.8725709,9.6057077e-7,-1.2675537e-6,2.4684757,-2584.5473,-16677.532)"
       cx="1753.2223"
       cy="6778.144"
       fx="1753.2223"
       fy="6778.144"
       r="30.73435" />
    <linearGradient
       inkscape:collect="always"
       xlink:href="#linearGradient5697"
       id="linearGradient2361"
       gradientUnits="userSpaceOnUse"
       gradientTransform="translate(-125.36679,-2195.0824)"
       x1="839.46686"
       y1="2194.0986"
       x2="820.4978"
       y2="2226.5042" />
    <linearGradient
       inkscape:collect="always"
       xlink:href="#linearGradient5530"
       id="linearGradient2364"
       gradientUnits="userSpaceOnUse"
       gradientTransform="translate(-125.36679,-2355.0824)"
       x1="607.93628"
       y1="2493.4062"
       x2="607.97095"
       y2="2472.8438" />
    <linearGradient
       inkscape:collect="always"
       xlink:href="#linearGradient3617"
       id="linearGradient2367"
       gradientUnits="userSpaceOnUse"
       gradientTransform="translate(-125.36679,-2615.0824)"
       x1="887.50012"
       y1="2692.3281"
       x2="849.13342"
       y2="2654.7168" />
    <linearGradient
       inkscape:collect="always"
       xlink:href="#linearGradient3476"
       id="linearGradient2370"
       gradientUnits="userSpaceOnUse"
       gradientTransform="matrix(0,1,1,0,1101.5687,-1622.0177)"
       x1="1623.1853"
       y1="-782.01477"
       x2="1772.8416"
       y2="-783.13269" />
    <linearGradient
       inkscape:collect="always"
       xlink:href="#linearGradient9939"
       id="linearGradient2373"
       gradientUnits="userSpaceOnUse"
       gradientTransform="matrix(0,1,1,0,1101.5687,-1622.0177)"
       x1="1782.5945"
       y1="-636.70557"
       x2="1619.0122"
       y2="-637.82343" />
    <linearGradient
       inkscape:collect="always"
       xlink:href="#linearGradient3734"
       id="linearGradient2376"
       gradientUnits="userSpaceOnUse"
       gradientTransform="matrix(0,1,1,0,1101.5687,-1622.0177)"
       x1="1782.5945"
       y1="-636.70557"
       x2="1619.0122"
       y2="-637.82343" />
    <radialGradient
       inkscape:collect="always"
       xlink:href="#linearGradient3476"
       id="radialGradient2378"
       gradientUnits="userSpaceOnUse"
       gradientTransform="matrix(2.1153873,6.5541465e-4,-4.386023e-3,11.417741,-982.85147,-28057.448)"
       cx="891.7655"
       cy="2693.1809"
       fx="891.7655"
       fy="2693.1809"
       r="1.8862256" />
  </defs>
  <sodipodi:namedview
     id="base"
     pagecolor="#ffffff"
     bordercolor="#666666"
     borderopacity="1.0"
     gridtolerance="10000"
     guidetolerance="10"
     objecttolerance="10"
     inkscape:pageopacity="0.0"
     inkscape:pageshadow="2"
     inkscape:zoom="1.898428"
     inkscape:cx="321.21669"
     inkscape:cy="105"
     inkscape:document-units="px"
     inkscape:current-layer="layer1"
     inkscape:window-width="1321"
     inkscape:window-height="926"
     inkscape:window-x="196"
     inkscape:window-y="60"
     width="770px"
     height="154px" />
  <metadata
     id="metadata7">
    <rdf:RDF>
      <cc:Work
         rdf:about="">
        <dc:format>image/svg+xml</dc:format>
        <dc:type
           rdf:resource="http://purl.org/dc/dcmitype/StillImage" />
        <dc:title>Test-tube</dc:title>
        <dc:creator>
          <cc:Agent>
            <dc:title>Jarle Richard Akselsen</dc:title>
          </cc:Agent>
        </dc:creator>
        <cc:license
           rdf:resource="http://creativecommons.org/licenses/GPL/2.0/" />
      </cc:Work>
      <cc:License
         rdf:about="http://creativecommons.org/licenses/GPL/2.0/">
        <cc:permits
           rdf:resource="http://web.resource.org/cc/Reproduction" />
        <cc:permits
           rdf:resource="http://web.resource.org/cc/Distribution" />
        <cc:requires
           rdf:resource="http://web.resource.org/cc/Notice" />
        <cc:permits
           rdf:resource="http://web.resource.org/cc/DerivativeWorks" />
        <cc:requires
           rdf:resource="http://web.resource.org/cc/ShareAlike" />
        <cc:requires
           rdf:resource="http://web.resource.org/cc/SourceCode" />
      </cc:License>
    </rdf:RDF>
  </metadata>
  <g
     inkscape:label="Layer 1"
     inkscape:groupmode="layer"
     id="layer1">
    <path
       id="path10474"
       d="M 896.96334,65.3939 C 897.52664,66.2419 898.06494,67.112 898.58834,67.9876 C 898.06094,67.106 897.53104,66.2477 896.96334,65.3939 z "
       style="opacity:0.25;fill:url(#linearGradient10617);fill-opacity:1;fill-rule:nonzero;stroke:none;stroke-width:10;stroke-linecap:round;stroke-linejoin:round;stroke-miterlimit:4;stroke-dasharray:none;stroke-opacity:1" />
    <path
       style="opacity:0.35;fill:url(#linearGradient2376);fill-opacity:1;fill-rule:nonzero;stroke:none;stroke-width:10;stroke-linecap:round;stroke-linejoin:round;stroke-miterlimit:4;stroke-dasharray:none;stroke-opacity:1"
       d="M 77.258334,1.1675568 C 77.014234,1.1675568 76.751031,1.2032568 76.508331,1.2300568 C 76.349731,1.2490568 76.196431,1.2637568 76.039531,1.2925568 C 75.790731,1.3381568 75.531628,1.4138568 75.289528,1.4800568 C 75.154628,1.5162568 75.015428,1.5323568 74.883328,1.5737568 C 74.275825,1.7644568 73.711825,2.0095568 73.195822,2.261357 C 73.085722,2.315657 72.956422,2.362857 72.852122,2.417557 C 72.840322,2.423657 72.832522,2.442657 72.820822,2.448757 C 72.535019,2.599757 72.273619,2.744757 72.039519,2.886357 C 72.028319,2.893057 72.019519,2.910857 72.008319,2.917557 C 71.957819,2.948357 71.931019,2.981557 71.883319,3.011357 C 71.252116,3.4017572 70.872316,3.6830572 70.852116,3.6987572 C 70.851516,3.6992572 70.820816,3.6987572 70.820816,3.6987572 C 65.695001,3.6987572 61.570789,36.649858 61.570789,77.261382 C 61.570789,117.87295 65.695001,150.82375 70.820816,150.82385 C 70.820816,150.82385 70.851516,150.82345 70.852116,150.82385 C 70.873816,150.84085 71.291016,151.20345 72.008319,151.63645 C 72.016819,151.64155 72.030919,151.63115 72.039519,151.63645 C 72.279219,151.78055 72.528019,151.92075 72.820822,152.07385 C 72.829822,152.07865 72.843122,152.06915 72.852122,152.07385 C 73.450322,152.38545 74.138825,152.71525 74.883328,152.94885 C 74.893028,152.95195 74.904928,152.94585 74.914528,152.94885 C 75.282728,153.06325 75.653628,153.16285 76.039531,153.23015 C 76.196431,153.25895 76.349731,153.27365 76.508331,153.29265 C 76.551031,153.29735 76.590531,153.31995 76.633331,153.32385 C 76.854434,153.34635 77.067434,153.35515 77.289534,153.35515 C 77.490534,153.35415 77.683234,153.34325 77.883337,153.32385 C 78.464737,153.27015 79.05314,153.11815 79.60214,152.94885 C 79.989443,152.82945 80.340943,152.69395 80.695843,152.54265 C 80.704843,152.53875 80.718043,152.54655 80.727143,152.54265 C 81.408346,152.25045 82.021646,151.92975 82.508349,151.63645 C 83.243852,151.19245 83.695852,150.82385 83.695852,150.82385 C 83.696352,150.82345 83.727152,150.82385 83.727152,150.82385 C 94.935385,150.82375 683.0298,150.82385 695.1334,150.82385 C 735.7448,150.82365 768.7272,117.87295 768.7272,77.261382 C 768.7272,36.649958 735.7448,3.6987572 695.1334,3.6987572 C 684.6697,3.6987572 94.963085,3.6987572 83.727152,3.6987572 C 83.727152,3.6987572 83.696352,3.6992572 83.695852,3.6987572 C 83.695852,3.6987572 83.493152,3.5150572 83.164552,3.2925572 C 83.158452,3.2883572 83.139649,3.2967572 83.133349,3.2925572 C 82.603649,2.936657 81.752246,2.419757 80.727143,1.9800568 C 80.718243,1.9762568 80.704743,1.9838568 80.695843,1.9800568 C 80.340943,1.8287568 79.989443,1.6932568 79.60214,1.5737568 C 79.05314,1.4045568 78.464737,1.2525568 77.883337,1.1987568 C 77.872834,1.1978568 77.862634,1.1997568 77.852134,1.1987568 C 77.651734,1.1802568 77.459534,1.1675568 77.258334,1.1675568 z M 77.195834,23.605058 C 79.00604,37.031458 80.133343,56.071358 80.133343,77.261382 C 80.133343,98.451445 79.00604,117.49135 77.195834,130.91765 C 75.292428,117.49115 74.039525,98.452945 74.039525,77.261382 C 74.039525,56.069758 75.292428,37.031558 77.195834,23.605058 z "
       id="path11048" />
    <path
       id="path11050"
       d="M 86.883361,8.167558 C 87.594164,10.230958 87.594364,10.231258 86.883361,8.167558 z M 79.25834,12.261358 C 76.215831,24.615558 74.039525,49.082958 74.039525,77.261382 C 74.039525,105.43995 76.215831,129.90715 79.25834,142.26145 C 107.9735,142.24645 699.2163,141.90855 698.4772,141.94885 C 699.2329,141.90775 699.9716,141.83085 700.6959,141.76145 C 733.8642,138.94125 759.9459,111.15445 759.9459,77.261382 C 759.9459,42.614558 732.6963,14.309658 698.4772,12.573758 C 698.4772,12.573758 107.9026,12.274458 79.25834,12.261358 z M 87.414564,144.82385 C 87.414564,144.82395 87.238761,145.32335 86.883361,146.35515 C 87.238861,145.32325 87.414664,144.82385 87.414564,144.82385 z "
       style="opacity:0.2;fill:url(#linearGradient2373);fill-opacity:1;fill-rule:nonzero;stroke:none;stroke-width:10;stroke-linecap:round;stroke-linejoin:round;stroke-miterlimit:4;stroke-dasharray:none;stroke-opacity:1" />
    <path
       sodipodi:nodetypes="csssssc"
       id="path11052"
       d="M 83.727152,3.6987572 C 88.852867,3.6986572 93.508379,36.649858 93.508379,77.261382 C 93.508379,117.87305 88.852967,150.82385 83.727152,150.82385 C 94.935285,150.82375 683.0298,150.82385 695.1334,150.82385 C 735.7448,150.82365 768.7272,117.87285 768.7272,77.261382 C 768.7271,36.649958 735.7448,3.6988572 695.1334,3.6987572 C 684.6697,3.6987572 94.962985,3.6987572 83.727152,3.6987572 z "
       style="opacity:0.35;fill:url(#linearGradient2370);fill-opacity:1;fill-rule:nonzero;stroke:none;stroke-width:10;stroke-linecap:round;stroke-linejoin:round;stroke-miterlimit:4;stroke-dasharray:none;stroke-opacity:1" />
    <path
       sodipodi:nodetypes="cscsc"
       id="path11054"
       d="M 741.4459,31.980058 C 747.3523,44.467358 749.8522,60.188458 749.8522,77.261382 C 749.8522,94.317033 747.3707,110.03025 741.4772,122.51145 C 752.8954,110.84355 759.9459,94.871933 759.9459,77.261382 C 759.9459,59.635458 752.8806,43.660058 741.4459,31.980058 z "
       style="opacity:0.12000002;fill:url(#linearGradient2367);fill-opacity:1;fill-rule:nonzero;stroke:none;stroke-width:10;stroke-linecap:round;stroke-linejoin:round;stroke-miterlimit:4;stroke-dasharray:none;stroke-opacity:1" />
    <path
       style="opacity:0.23188405;fill:url(#linearGradient2364);fill-opacity:1;fill-rule:nonzero;stroke:none;stroke-width:12;stroke-linecap:round;stroke-linejoin:round;stroke-miterlimit:4;stroke-dasharray:none;stroke-opacity:1"
       d="M 743.8522,117.76145 C 736.5922,123.95655 725.4735,130.11195 711.1334,130.07385 C 711.1334,130.07385 190.7486,130.09975 90.41457,130.10515 C 89.99587,133.11305 89.55197,135.90075 89.070867,138.32385 L 716.6646,138.32385 C 728.1607,134.27235 738.177,127.07605 745.6646,117.76145 L 743.8522,117.76145 z "
       id="path11056"
       sodipodi:nodetypes="ccccccc" />
    <path
       sodipodi:nodetypes="csscsc"
       id="path11058"
       d="M 695.1312,3.7010572 C 735.7426,3.7010572 768.7249,36.652158 768.7249,77.263482 C 768.7249,117.87505 735.7426,150.82585 695.1312,150.82615 C 695.1312,150.82605 698.4749,141.95115 698.4749,141.95115 C 698.4749,141.95115 698.4749,12.576058 698.4749,12.576058 C 698.4749,12.576058 695.1312,3.7010572 695.1312,3.7010572 z "
       style="opacity:0.15;fill:url(#linearGradient2361);fill-opacity:1;fill-rule:nonzero;stroke:none;stroke-width:10;stroke-linecap:round;stroke-linejoin:round;stroke-miterlimit:4;stroke-dasharray:none;stroke-opacity:1" />
    <path
       style="opacity:0.22000002;fill:url(#radialGradient2358);fill-opacity:1;fill-rule:nonzero;stroke:none;stroke-width:10;stroke-linecap:round;stroke-linejoin:round;stroke-miterlimit:4;stroke-dasharray:none;stroke-opacity:1"
       d="M 698.4772,12.573758 C 698.4771,12.573758 702.9459,24.917658 702.9459,77.261382 C 702.9459,129.60515 698.4771,141.94905 698.4772,141.94885 C 732.6963,140.21305 759.9459,111.90825 759.9459,77.261382 C 759.9459,42.614558 732.6963,14.309758 698.4772,12.573758 z "
       id="path11060" />
    <path
       style="opacity:0.22000002;fill:url(#linearGradient2355);fill-opacity:1;fill-rule:nonzero;stroke:none;stroke-width:10;stroke-linecap:round;stroke-linejoin:round;stroke-miterlimit:4;stroke-dasharray:none;stroke-opacity:1"
       d="M 77.258334,1.1675568 C 77.014234,1.1675568 76.751031,1.2032568 76.508331,1.2300568 C 76.349731,1.2490568 76.196531,1.2637568 76.039531,1.2925568 C 75.790731,1.3381568 75.531628,1.4138568 75.289528,1.4800568 C 75.154628,1.5162568 75.015428,1.5324568 74.883328,1.5737568 C 74.275825,1.7644568 73.711825,2.0095568 73.195822,2.261357 C 73.085722,2.315657 72.956322,2.362857 72.852122,2.417557 C 72.840322,2.423657 72.832522,2.442757 72.820822,2.448757 C 72.535019,2.599757 72.273619,2.744757 72.039519,2.886357 C 72.028319,2.893057 72.019519,2.910857 72.008319,2.917557 C 71.957819,2.948357 71.931019,2.981457 71.883319,3.011357 C 71.252116,3.4017572 70.872216,3.6831572 70.852116,3.6987572 C 70.851516,3.6992572 70.820816,3.6987572 70.820816,3.6987572 C 65.695001,3.6987572 61.570789,36.649858 61.570789,77.261382 C 61.570789,117.87295 65.695001,150.82375 70.820816,150.82385 C 70.820816,150.82385 70.851516,150.82355 70.852116,150.82385 C 70.873816,150.84085 71.291016,151.20335 72.008319,151.63645 C 72.016819,151.64155 72.031019,151.63105 72.039519,151.63645 C 72.279219,151.78055 72.528019,151.92085 72.820822,152.07385 C 72.829822,152.07865 72.843022,152.06915 72.852122,152.07385 C 73.450322,152.38545 74.138825,152.71535 74.883328,152.94885 C 74.893028,152.95195 74.905028,152.94585 74.914528,152.94885 C 75.282728,153.06325 75.653728,153.16285 76.039531,153.23015 C 76.196431,153.25895 76.349731,153.27365 76.508331,153.29265 C 76.551031,153.29735 76.590531,153.32005 76.633331,153.32385 C 76.854434,153.34635 77.067534,153.35515 77.289534,153.35515 C 77.490534,153.35415 77.683234,153.34335 77.883337,153.32385 C 78.464737,153.27015 79.05314,153.11825 79.60214,152.94885 C 79.989443,152.82945 80.340943,152.69395 80.695843,152.54265 C 80.704843,152.53875 80.717943,152.54655 80.727143,152.54265 C 81.408346,152.25045 82.021646,151.92975 82.508349,151.63645 C 83.243852,151.19245 83.695852,150.82395 83.695852,150.82385 C 83.696352,150.82345 83.727052,150.82385 83.727152,150.82385 C 94.935385,150.82375 683.0298,150.82385 695.1334,150.82385 C 735.7448,150.82365 768.7271,117.87285 768.7272,77.261382 C 768.7272,36.649958 735.7448,3.6987572 695.1334,3.6987572 C 684.6697,3.6987572 94.963085,3.6987572 83.727152,3.6987572 C 83.727152,3.6987572 83.696352,3.6992572 83.695852,3.6987572 C 83.695852,3.6987572 83.493252,3.5150572 83.164552,3.2925572 C 83.158452,3.2883572 83.139649,3.2967572 83.133349,3.2925572 C 82.603649,2.936657 81.752146,2.419757 80.727143,1.9800568 C 80.718243,1.9762568 80.704743,1.9838568 80.695843,1.9800568 C 80.340943,1.8287568 79.989343,1.6932568 79.60214,1.5737568 C 79.05314,1.4045568 78.464737,1.2526568 77.883337,1.1987568 C 77.872834,1.1978568 77.862534,1.1997568 77.852134,1.1987568 C 77.651734,1.1802568 77.459534,1.1675568 77.258334,1.1675568 z M 698.4772,12.573758 C 732.6963,14.309758 759.9459,42.614558 759.9459,77.261382 C 759.9459,111.90825 732.6963,140.21305 698.4772,141.94885 C 698.477,141.94905 702.9459,129.60515 702.9459,77.261382 C 702.9459,24.917658 698.4771,12.573758 698.4772,12.573758 z M 77.195834,23.605058 C 79.00604,37.031458 80.133343,56.071358 80.133343,77.261382 C 80.133343,98.451445 79.00604,117.49135 77.195834,130.91765 C 75.292428,117.49115 74.039625,98.452845 74.039525,77.261382 C 74.039525,56.069758 75.292428,37.031558 77.195834,23.605058 z "
       id="path11062" />
    <path
       sodipodi:nodetypes="csccscczcsczcsc"
       id="path11064"
       d="M 65.662401,16.263458 C 66.279601,12.957758 66.951604,10.233158 67.662407,8.169758 C 66.951404,10.233658 66.279901,12.957058 65.662401,16.263458 z M 65.662401,138.26355 C 66.279901,141.57005 66.951404,144.29345 67.662407,146.35735 C 66.951604,144.29395 66.279601,141.56935 65.662401,138.26355 z M 70.849816,3.7010572 C 70.849816,3.7010572 74.068625,1.1756568 77.287434,1.1756568 C 80.506143,1.1756568 83.724852,3.7010572 83.724852,3.7010572 C 88.850667,3.7010572 93.511279,36.652058 93.511279,77.263482 C 93.511279,117.87505 88.850667,150.82605 83.724852,150.82615 C 83.724852,150.82615 80.506143,153.35155 77.287434,153.35155 C 74.068625,153.35155 70.849816,150.82615 70.849816,150.82615 C 75.975631,150.82615 80.131143,117.87505 80.131143,77.263482 C 80.131143,36.652058 75.975631,3.7010572 70.849816,3.7010572 z "
       style="opacity:0.35;fill:url(#radialGradient2352);fill-opacity:1;fill-rule:nonzero;stroke:none;stroke-width:10;stroke-linecap:round;stroke-linejoin:round;stroke-miterlimit:4;stroke-dasharray:none;stroke-opacity:1" />
    <path
       transform="matrix(0,0.842101,9.9420685e-2,0,127.3586,-814.75895)"
       sodipodi:type="arc"
       style="opacity:0.5;fill:#ffdd00;fill-opacity:1;fill-rule:nonzero;stroke:none;stroke-width:10;stroke-linecap:round;stroke-linejoin:round;stroke-miterlimit:4;stroke-dasharray:none;stroke-opacity:1"
       id="path11066"
       sodipodi:cx="1059.2858"
       sodipodi:cy="93.571426"
       sodipodi:rx="73.571426"
       sodipodi:ry="73.571426"
       d="M 1132.8572 93.571426 A 73.571426 73.571426 0 1 1  985.71434,93.571426 A 73.571426 73.571426 0 1 1  1132.8572 93.571426 z" />
    <path
       id="path11068"
       d="M 1.6309374,77.263482 C 1.6309374,40.287758 5.8752382,10.294758 11.099645,10.294758 C 16.32416,10.294758 20.568472,40.287758 20.568472,77.263482 C 20.568472,114.23935 16.32426,144.26365 11.099645,144.26355 C 5.8752382,144.26355 1.6309374,114.23935 1.6309374,77.263482 z "
       style="opacity:0.5;fill:#ffdd00;fill-opacity:1;fill-rule:nonzero;stroke:none;stroke-width:10;stroke-linecap:round;stroke-linejoin:round;stroke-miterlimit:4;stroke-dasharray:none;stroke-opacity:1" />
    <path
       id="path11070"
       d="M 51.734762,77.263482 C 51.734762,41.391758 55.394671,12.294758 59.922183,12.294758 C 64.449798,12.294758 68.141007,41.391858 68.141007,77.263482 C 68.141007,113.13535 64.449798,142.26355 59.922183,142.26355 C 55.394671,142.26355 51.734762,113.13535 51.734762,77.263482 z "
       style="opacity:0.5;fill:#ffdd00;fill-opacity:1;fill-rule:nonzero;stroke:none;stroke-width:10;stroke-linecap:round;stroke-linejoin:round;stroke-miterlimit:4;stroke-dasharray:none;stroke-opacity:1" />
    <path
       id="path11072"
       d="M 11.101945,10.292558 C 5.8777382,10.292558 1.6331374,40.285658 1.6331374,77.261382 C 1.6331374,114.23725 5.8775382,144.26145 11.101945,144.26145 C 11.101945,144.26145 59.924383,142.26145 59.924383,142.26145 C 59.924383,142.26145 131.1021,142.26145 131.1022,142.26145 C 131.1022,142.26145 136.6646,139.23015 136.6646,139.23015 C 140.7023,139.23015 143.9772,111.46035 143.9772,77.261382 C 143.9772,45.756358 141.1966,19.759358 137.6022,15.855058 C 137.5478,15.748958 137.4758,15.684558 137.4146,15.636358 C 137.1689,15.424758 136.917,15.323758 136.6646,15.323758 C 136.6646,15.323958 131.1022,12.292558 131.1022,12.292558 C 131.1022,12.292558 59.924383,12.292558 59.924383,12.292558 C 59.924383,12.292558 11.101945,10.292558 11.101945,10.292558 z "
       style="fill:#debc85;fill-opacity:1;fill-rule:nonzero;stroke:none;stroke-width:10;stroke-linecap:round;stroke-linejoin:round;stroke-miterlimit:4;stroke-dasharray:none;stroke-opacity:1"
       sodipodi:nodetypes="cscccsscssccc" />
    <path
       sodipodi:nodetypes="csccssccccc"
       id="path11074"
       d="M 11.101945,10.292558 C 5.8775382,10.292558 1.6331374,40.285658 1.6331374,77.261382 C 1.6331374,114.23715 5.8775382,144.26145 11.101945,144.26145 C 11.101945,144.26145 59.924383,142.26145 59.924383,142.26145 C 59.924383,142.26145 131.1021,142.26145 131.1022,142.26145 C 126.5746,142.26145 122.9146,113.13315 122.9146,77.261382 C 122.9146,41.389558 126.5746,12.292558 131.1022,12.292558 C 131.1022,12.292558 59.924383,12.292558 59.924383,12.292558 C 59.924383,12.292558 11.101945,10.292558 11.101945,10.292558 z M 131.1022,142.26145 C 131.1022,142.26145 131.1022,142.26145 131.1022,142.26145 z "
       style="opacity:0.5;fill:url(#linearGradient2345);fill-opacity:1;fill-rule:nonzero;stroke:none;stroke-width:10;stroke-linecap:round;stroke-linejoin:round;stroke-miterlimit:4;stroke-dasharray:none;stroke-opacity:1" />
    <path
       style="opacity:0.6;fill:url(#linearGradient2342);fill-opacity:1;fill-rule:nonzero;stroke:none;stroke-width:10;stroke-linecap:round;stroke-linejoin:round;stroke-miterlimit:4;stroke-dasharray:none;stroke-opacity:1"
       d="M 131.1022,12.292558 C 126.5746,12.292558 122.9146,41.389558 122.9146,77.261382 C 122.9146,113.13315 126.5746,142.26145 131.1022,142.26145 C 131.1022,142.26145 136.6646,139.23015 136.6646,139.23015 C 132.627,139.23015 129.3521,111.46035 129.3522,77.261382 C 129.3522,43.062358 132.627,15.323858 136.6646,15.323758 C 136.6646,15.323858 131.1022,12.292558 131.1022,12.292558 z "
       id="path11076"
       sodipodi:nodetypes="cscsssc" />
    <path
       transform="matrix(0,0.842101,9.9420685e-2,0,127.3586,-814.75895)"
       sodipodi:type="arc"
       style="opacity:0.5;fill:#000000;fill-opacity:1;fill-rule:nonzero;stroke:none;stroke-width:10;stroke-linecap:round;stroke-linejoin:round;stroke-miterlimit:4;stroke-dasharray:none;stroke-opacity:1"
       id="path11078"
       sodipodi:cx="1059.2858"
       sodipodi:cy="93.571426"
       sodipodi:rx="73.571426"
       sodipodi:ry="73.571426"
       d="M 1132.8572 93.571426 A 73.571426 73.571426 0 1 1  985.71434,93.571426 A 73.571426 73.571426 0 1 1  1132.8572 93.571426 z" />
    <path
       style="fill:url(#linearGradient2338);fill-opacity:1;fill-rule:nonzero;stroke:none;stroke-width:12;stroke-linecap:round;stroke-linejoin:round;stroke-miterlimit:4;stroke-opacity:1"
       d="M 136.6292,70.359264 L 628.8479,70.359264 C 628.8479,70.359264 628.0578,72.60847 628.0578,76.437882 C 628.0578,80.530694 628.8479,82.516497 628.8479,82.516497 L 136.6292,82.516497 C 136.6292,82.516497 135.8843,80.594594 135.8843,76.437882 C 135.8843,72.27697 136.6292,70.359264 136.6292,70.359264 z "
       id="path11080"
       sodipodi:nodetypes="cczcczc" />
    <rect
       inkscape:label=""
       style="fill:#000000;fill-opacity:1;fill-rule:nonzero;stroke:none;stroke-width:12;stroke-linecap:round;stroke-linejoin:round;stroke-miterlimit:4;stroke-dasharray:none;stroke-opacity:1"
       id="rect2274"
       width="414.44189"
       height="122.73603"
       x="201.53415"
       y="15.291561" />
    <path
       style="opacity:0.15;fill:#000000;fill-opacity:1;fill-rule:nonzero;stroke:none;stroke-width:12;stroke-linecap:round;stroke-linejoin:round;stroke-miterlimit:4;stroke-opacity:1"
       d="M 136.6334,70.355064 C 136.6334,70.355064 135.8834,72.28767 135.8834,76.448782 C 135.8834,80.605594 136.6334,82.511097 136.6334,82.511397 L 163.6959,82.511397 C 156.3183,79.495791 150.554,75.284579 147.2896,70.355064 L 136.6334,70.355064 z "
       id="path11082" />
    <rect
       y="18.253029"
       x="211.53415"
       height="116.8131"
       width="394.44189"
       id="canvas"
       style="fill:#000000;fill-opacity:1;fill-rule:nonzero;stroke:none;stroke-width:12;stroke-linecap:round;stroke-linejoin:round;stroke-miterlimit:4;stroke-dasharray:none;stroke-opacity:1;opacity:0"
       inkscape:label="" />
    <path
       style="opacity:0.02999998;fill:url(#linearGradient2324);fill-opacity:1;fill-rule:nonzero;stroke:none;stroke-width:10;stroke-linecap:round;stroke-linejoin:round;stroke-miterlimit:4;stroke-dasharray:none;stroke-opacity:1"
       d="M 11.101945,10.292558 C 5.8775382,10.292558 1.6331374,40.285458 1.6331374,77.261382 C 1.6331374,114.23715 5.8775382,144.26145 11.101945,144.26145 C 11.101945,144.26145 59.914483,142.26145 59.914483,142.26145 C 55.387071,142.26135 51.727062,113.13315 51.727062,77.261382 C 51.727062,41.389558 55.387071,12.292558 59.914483,12.292558 C 59.914483,12.292558 11.101945,10.292558 11.101945,10.292558 z M 59.914483,12.292558 C 59.914483,12.292558 59.914483,12.292558 59.914483,12.292558 z M 59.914483,142.26145 C 59.914483,142.26145 59.914483,142.26145 59.914483,142.26145 z "
       id="path11104"
       sodipodi:nodetypes="csccscccccc" />
    <path
       sodipodi:nodetypes="csccscczcsczcsc"
       id="path11106"
       d="M 88.868967,16.263458 C 88.251764,12.957758 87.579764,10.233158 86.868961,8.169758 C 87.579964,10.233658 88.251464,12.957058 88.868967,16.263458 z M 88.868967,138.26355 C 88.251464,141.57005 87.579964,144.29345 86.868961,146.35735 C 87.579764,144.29395 88.251764,141.56935 88.868967,138.26355 z M 83.681552,3.7010572 C 83.681552,3.7010572 80.462743,1.1756568 77.243934,1.1756568 C 74.025225,1.1756568 70.806516,3.7010572 70.806516,3.7010572 C 65.680701,3.7010572 61.555789,36.652058 61.555789,77.263482 C 61.555789,117.87505 65.680701,150.82605 70.806516,150.82615 C 70.806516,150.82615 74.025225,153.35155 77.243934,153.35155 C 80.462743,153.35155 83.681552,150.82615 83.681552,150.82615 C 78.555737,150.82615 74.043125,117.87505 74.043125,77.263482 C 74.043125,36.652058 78.555737,3.7010572 83.681552,3.7010572 z "
       style="opacity:0.25;fill:url(#linearGradient2321);fill-opacity:1;fill-rule:nonzero;stroke:none;stroke-width:10;stroke-linecap:round;stroke-linejoin:round;stroke-miterlimit:4;stroke-dasharray:none;stroke-opacity:1" />
    <path
       id="path11108"
       d="M 79.25834,12.261358 C 76.215831,24.615558 74.039525,49.082958 74.039525,77.261382 C 74.039525,105.43995 76.215831,129.90715 79.25834,142.26145 C 97.625891,142.25575 673.748,142.04265 695.1334,142.04265 C 697.5388,142.04265 699.7938,141.89205 701.9146,141.63645 C 702.0318,141.62225 702.1422,141.62005 702.2584,141.60515 C 717.5785,139.92665 731.2966,132.90555 741.5084,122.44885 C 747.0418,110.69735 749.5491,96.092136 749.8209,80.198791 C 749.5868,79.297788 749.4459,78.311385 749.4459,77.261382 C 749.4459,76.211179 749.5868,75.225076 749.8209,74.323776 C 749.5469,58.398458 747.0037,43.774858 741.4459,32.011358 C 731.1867,21.532658 717.4064,14.507658 702.0084,12.886358 C 701.8312,12.867658 701.6549,12.842758 701.4772,12.823758 C 701.4064,12.815958 701.3294,12.800158 701.2584,12.792558 C 700.3379,12.696558 699.4065,12.620958 698.4772,12.573758 C 697.392,12.514458 696.2847,12.480058 695.1334,12.480058 C 676.6335,12.480058 97.356491,12.266958 79.25834,12.261358 z M 749.1646,41.511358 C 749.7323,42.365258 750.2622,43.223458 750.7896,44.105058 C 750.2662,43.229458 749.7279,42.359358 749.1646,41.511358 z M 755.0709,52.605058 C 755.3386,53.253258 755.5738,53.915158 755.8209,54.573758 C 755.5736,53.913758 755.3389,53.254658 755.0709,52.605058 z "
       style="opacity:0.15;fill:url(#linearGradient2318);fill-opacity:1;fill-rule:nonzero;stroke:none;stroke-width:10;stroke-linecap:round;stroke-linejoin:round;stroke-miterlimit:4;stroke-opacity:1" />
    <path
       id="path11110"
       d="M 76.508331,1.2300568 C 76.349731,1.2490568 76.196531,1.2637568 76.039531,1.2925568 C 76.195331,1.2653568 76.351031,1.2474568 76.508331,1.2300568 z M 83.695852,3.6987572 C 78.570037,3.6987572 74.039725,36.649858 74.039525,77.261382 C 74.039525,117.87285 78.570037,150.82405 83.695852,150.82385 C 83.696352,150.82345 83.726952,150.82385 83.727152,150.82385 C 98.418094,150.82375 685.8611,150.82385 695.1334,150.82385 C 695.1334,150.82365 698.4772,141.94885 698.4772,141.94885 C 698.4771,141.94875 688.7896,129.60515 688.7896,77.261382 C 688.7897,24.917458 698.4772,12.573758 698.4772,12.573758 C 698.4772,12.573758 695.1334,3.6988572 695.1334,3.6987572 C 687.1174,3.6987572 98.454394,3.6987572 83.727152,3.6987572 C 83.727152,3.6987572 83.696352,3.6993572 83.695852,3.6987572 z M 82.508349,151.63645 C 82.024346,151.92845 81.407546,152.24955 80.727143,152.54265 C 81.408346,152.25045 82.021546,151.92955 82.508349,151.63645 z M 76.039531,153.23015 C 76.196431,153.25895 76.349731,153.27365 76.508331,153.29265 C 76.351031,153.27525 76.195331,153.25735 76.039531,153.23015 z "
       style="opacity:0.15;fill:url(#linearGradient2315);fill-opacity:1;fill-rule:nonzero;stroke:none;stroke-width:10;stroke-linecap:round;stroke-linejoin:round;stroke-miterlimit:4;stroke-dasharray:none;stroke-opacity:1" />
    <path
       style="opacity:0.5;fill:url(#radialGradient2312);fill-opacity:1;fill-rule:nonzero;stroke:none;stroke-width:10;stroke-linecap:round;stroke-linejoin:round;stroke-miterlimit:4;stroke-dasharray:none;stroke-opacity:1"
       d="M 88.868967,16.263458 C 88.251764,12.957758 87.579764,10.233158 86.868961,8.169758 C 87.579964,10.233658 88.251464,12.957058 88.868967,16.263458 z M 88.868967,138.26355 C 88.251464,141.57005 87.579964,144.29345 86.868961,146.35735 C 87.579764,144.29395 88.251764,141.56935 88.868967,138.26355 z M 83.681552,3.7010572 C 83.681552,3.7010572 80.462743,1.1756568 77.243934,1.1756568 C 74.025225,1.1756568 70.806516,3.7010572 70.806516,3.7010572 C 65.680701,3.7010572 61.555789,36.652058 61.555789,77.263482 C 61.555789,117.87505 65.680701,150.82605 70.806516,150.82615 C 70.806516,150.82615 74.025225,153.35155 77.243934,153.35155 C 80.462743,153.35155 83.681552,150.82615 83.681552,150.82615 C 78.555737,150.82615 74.043125,117.87505 74.043125,77.263482 C 74.043125,36.652058 78.555737,3.7010572 83.681552,3.7010572 z "
       id="path11112"
       sodipodi:nodetypes="csccscczcsczcsc" />
    <path
       style="opacity:0.25;fill:url(#radialGradient2309);fill-opacity:1;fill-rule:nonzero;stroke:none;stroke-width:10;stroke-linecap:round;stroke-linejoin:round;stroke-miterlimit:4;stroke-dasharray:none;stroke-opacity:1"
       d="M 695.1312,3.7010572 C 735.7426,3.7010572 768.7249,36.652158 768.7249,77.263482 C 768.7249,117.87505 735.7426,150.82585 695.1312,150.82615 C 695.1312,150.82605 698.4749,141.95115 698.4749,141.95115 C 698.4749,141.95115 688.7921,129.60745 688.7921,77.263582 C 688.7921,24.919858 698.4749,12.576058 698.4749,12.576058 C 698.4749,12.576058 695.1312,3.7010572 695.1312,3.7010572 z "
       id="path11114"
       sodipodi:nodetypes="csscscc" />
    <path
       transform="matrix(0.8888889,0,0,1,-25.932465,-2615.6413)"
       d="M 892.8658 2693.1809 A 1.1002983 12.644697 0 1 1  890.6652,2693.1809 A 1.1002983 12.644697 0 1 1  892.8658 2693.1809 z"
       sodipodi:ry="12.644697"
       sodipodi:rx="1.1002983"
       sodipodi:cy="2693.1809"
       sodipodi:cx="891.7655"
       id="path11116"
       style="opacity:0.15;fill:url(#radialGradient2378);fill-opacity:1;fill-rule:nonzero;stroke:none;stroke-width:12;stroke-linecap:round;stroke-linejoin:round;stroke-miterlimit:4;stroke-dasharray:none;stroke-opacity:1"
       sodipodi:type="arc" />
    <path
       style="opacity:0.25;fill:url(#radialGradient2305);fill-opacity:1;fill-rule:nonzero;stroke:none;stroke-width:12;stroke-linecap:round;stroke-linejoin:round;stroke-miterlimit:4;stroke-dasharray:none;stroke-opacity:1"
       d="M 765.1646,64.355058 C 764.4541,64.355158 758.6858,65.869758 758.2272,68.292558 C 758.2272,68.292558 758.0084,68.769258 758.0084,77.261382 C 758.0084,85.753406 758.2271,86.261209 758.2272,86.261409 C 758.6858,88.683415 764.454,90.167621 765.1646,90.167621 C 766.5571,90.167721 765.3834,84.386803 765.3834,77.261382 C 765.3834,70.136064 766.557,64.355158 765.1646,64.355058 z "
       id="path11118"
       sodipodi:nodetypes="ccssssc" />
    <path
       id="path11120"
       d="M 83.727152,3.6987572 C 85.296358,3.6988572 86.802961,6.8103578 88.164564,12.261358 C 101.8973,12.269558 123.2768,12.288958 130.7272,12.292558 C 130.7706,12.287158 130.8084,12.261258 130.8522,12.261358 C 133.1371,12.261258 668.7068,12.463858 730.0084,12.480058 C 719.6249,6.8782578 707.7495,3.6990572 695.1334,3.6987572 C 687.1174,3.6987572 98.454294,3.6990572 83.727152,3.6987572 z "
       style="opacity:0.25;fill:url(#linearGradient2302);fill-opacity:1;fill-rule:nonzero;stroke:none;stroke-width:10;stroke-linecap:round;stroke-linejoin:round;stroke-miterlimit:4;stroke-dasharray:none;stroke-opacity:1" />
    <path
       id="path11122"
       d="M 730.0084,142.04265 C 666.3648,142.05885 133.4922,142.26135 130.8522,142.26145 C 130.8084,142.26135 130.7706,142.23555 130.7272,142.23015 C 123.3104,142.23425 101.9137,142.25325 88.164564,142.26145 C 86.802961,147.71235 85.296358,150.82385 83.727152,150.82385 C 98.418094,150.82375 685.8611,150.82385 695.1334,150.82385 C 707.7495,150.82385 719.6249,147.64445 730.0084,142.04265 z "
       style="opacity:0.12000002;fill:url(#linearGradient2299);fill-opacity:1;fill-rule:nonzero;stroke:none;stroke-width:10;stroke-linecap:round;stroke-linejoin:round;stroke-miterlimit:4;stroke-dasharray:none;stroke-opacity:1" />
    <path
       style="opacity:0.12000002;fill:url(#radialGradient2296);fill-opacity:1;fill-rule:nonzero;stroke:none;stroke-width:10;stroke-linecap:round;stroke-linejoin:round;stroke-miterlimit:4;stroke-dasharray:none;stroke-opacity:1"
       d="M 698.4772,12.573758 C 732.6963,14.309558 759.9459,42.614558 759.9459,77.261382 C 759.9459,111.15445 733.8642,138.94125 700.6959,141.76145 C 699.9716,141.83095 699.2329,141.90755 698.4772,141.94885 C 699.1611,141.91145 666.3648,142.05885 730.0084,142.04265 C 753.0495,129.61235 768.7272,105.25665 768.7272,77.261382 C 768.7272,49.266058 753.0495,24.910458 730.0084,12.480058 C 668.7068,12.463858 698.4772,12.573758 698.4772,12.573758 z "
       id="path11124"
       sodipodi:nodetypes="cscscscc" />
    <path
       id="path11126"
       d="M 79.60214,1.5737568 C 79.97924,1.6921568 80.350043,1.8320568 80.695843,1.9800568 C 80.340743,1.8286568 79.989643,1.6932568 79.60214,1.5737568 z M 80.727143,1.9800568 C 81.752446,2.421657 82.609849,2.940457 83.133349,3.2925572 C 82.603649,2.936657 81.752246,2.419757 80.727143,1.9800568 z M 83.695852,3.6987572 C 82.126649,3.6987572 80.600743,6.8103578 79.25834,12.261358 C 82.931749,12.261358 87.668264,12.261358 88.164564,12.261358 C 86.802761,6.8104578 85.296458,3.6985572 83.727152,3.6987572 C 83.727152,3.6987572 83.696352,3.6992572 83.695852,3.6987572 z M 79.25834,142.26145 C 80.600743,147.71235 82.126649,150.82385 83.695852,150.82385 C 83.696352,150.82345 83.727152,150.82385 83.727152,150.82385 C 85.296458,150.82365 86.802861,147.71255 88.164564,142.26145 C 87.665764,142.26165 82.931149,142.26145 79.25834,142.26145 z M 82.508349,151.63645 C 82.024346,151.92845 81.407646,152.24955 80.727143,152.54265 C 81.408646,152.25025 82.021446,151.92985 82.508349,151.63645 z M 80.695843,152.54265 C 80.350043,152.69065 79.97924,152.83055 79.60214,152.94885 C 79.989443,152.82945 80.340943,152.69395 80.695843,152.54265 z M 79.60214,152.94885 C 79.04594,153.12345 78.473937,153.26675 77.883337,153.32385 C 78.464737,153.27015 79.05314,153.11815 79.60214,152.94885 z M 76.039531,153.23015 C 76.196431,153.25895 76.349731,153.27365 76.508331,153.29265 C 76.351031,153.27525 76.195331,153.25735 76.039531,153.23015 z "
       style="opacity:0.35;fill:url(#radialGradient2293);fill-opacity:1;fill-rule:nonzero;stroke:none;stroke-width:10;stroke-linecap:round;stroke-linejoin:round;stroke-miterlimit:4;stroke-dasharray:none;stroke-opacity:1" />
    <path
       style="opacity:0.35;fill:url(#linearGradient2290);fill-opacity:1;fill-rule:nonzero;stroke:none;stroke-width:10;stroke-linecap:round;stroke-linejoin:round;stroke-miterlimit:4;stroke-dasharray:none;stroke-opacity:1"
       d="M 70.852116,3.6987572 C 65.726501,3.6987572 61.570789,36.650058 61.570789,77.261382 C 61.570789,117.87285 65.726301,150.82375 70.852116,150.82385 C 73.005222,150.82385 74.996128,144.95315 76.570831,135.19885 L 74.789528,135.19885 C 73.674225,139.67895 72.435319,142.26145 71.102116,142.26145 C 66.574504,142.26145 63.289495,113.13335 63.289495,77.261382 C 63.289495,41.389558 66.574504,12.292358 71.102116,12.292558 C 72.715322,12.292558 74.205325,16.038958 75.477128,22.417558 L 77.008334,22.417558 C 75.367828,10.820158 73.223022,3.6987572 70.852116,3.6987572 z "
       id="path11128" />
    <path
       id="path11130"
       d="M 77.258334,1.1675568 C 77.014234,1.1675568 76.751031,1.2032568 76.508331,1.2300568 C 76.349731,1.2490568 76.196431,1.2637568 76.039531,1.2925568 C 75.790731,1.3381568 75.531628,1.4138568 75.289528,1.4800568 C 75.154628,1.5162568 75.015428,1.5323568 74.883328,1.5737568 C 74.275825,1.7644568 73.711825,2.0095568 73.195822,2.261357 C 73.085722,2.315657 72.956422,2.362857 72.852122,2.417557 C 72.840322,2.423657 72.832522,2.442657 72.820822,2.448757 C 72.535019,2.599757 72.273619,2.744757 72.039519,2.886357 C 72.028319,2.893057 72.019519,2.910857 72.008319,2.917557 C 71.957819,2.948357 71.931019,2.981557 71.883319,3.011357 C 71.252116,3.4017572 70.872316,3.6830572 70.852116,3.6987572 C 70.851516,3.6992572 70.820816,3.6987572 70.820816,3.6987572 C 70.680016,3.6987572 70.522616,3.7433572 70.383313,3.7925572 C 66.721204,5.0869574 63.638695,23.203058 62.289492,48.636358 C 62.054689,53.036358 61.881889,57.661158 61.758289,62.448758 C 61.635489,67.236458 61.570789,72.18487 61.570789,77.261382 C 61.570789,82.337797 61.635489,87.286212 61.758289,92.073824 C 61.881889,96.861539 62.054689,101.48635 62.289492,105.88645 C 63.638695,131.31965 66.721204,149.43555 70.383313,150.73015 C 70.522616,150.77935 70.680016,150.82385 70.820816,150.82385 C 70.831116,150.82415 70.841816,150.82385 70.852116,150.82385 C 70.873816,150.84085 71.291016,151.20345 72.008319,151.63645 C 72.016819,151.64155 72.030919,151.63115 72.039519,151.63645 C 72.279219,151.78055 72.528019,151.92075 72.820822,152.07385 C 72.829822,152.07865 72.843122,152.06915 72.852122,152.07385 C 73.450322,152.38545 74.138825,152.71525 74.883328,152.94885 C 74.893028,152.95195 74.904928,152.94585 74.914528,152.94885 C 75.282728,153.06325 75.653628,153.16285 76.039531,153.23015 C 76.196431,153.25895 76.349731,153.27365 76.508331,153.29265 C 76.551031,153.29735 76.590531,153.31995 76.633331,153.32385 C 76.854434,153.34635 77.067434,153.35515 77.289534,153.35515 C 77.490534,153.35415 77.683234,153.34325 77.883337,153.32385 C 78.464737,153.27015 79.05314,153.11815 79.60214,152.94885 C 79.989443,152.82945 80.340943,152.69395 80.695843,152.54265 C 80.704843,152.53875 80.718043,152.54655 80.727143,152.54265 C 81.408646,152.25035 82.021446,151.92985 82.508349,151.63645 C 83.243852,151.19255 83.695852,150.82385 83.695852,150.82385 C 83.696352,150.82345 83.727152,150.82395 83.727152,150.82385 C 98.418094,150.82375 685.8611,150.82385 695.1334,150.82385 C 735.7448,150.82365 768.7272,117.87285 768.7272,77.261382 C 768.7272,36.649958 735.7448,3.6989572 695.1334,3.6987572 C 687.1174,3.6987572 98.454294,3.6989572 83.727152,3.6987572 C 83.727152,3.6987572 83.696352,3.6992572 83.695852,3.6987572 C 83.695852,3.6987572 83.493152,3.5150572 83.164552,3.2925572 C 83.158452,3.2883572 83.139649,3.2967572 83.133349,3.2925572 C 82.603649,2.936657 81.752246,2.419757 80.727143,1.9800568 C 80.718243,1.9762568 80.704743,1.9838568 80.695843,1.9800568 C 80.340943,1.8287568 79.989443,1.6932568 79.60214,1.5737568 C 79.05304,1.4045568 78.464737,1.2525568 77.883337,1.1987568 C 77.872834,1.1978568 77.862634,1.1997568 77.852134,1.1987568 C 77.651734,1.1803568 77.459534,1.1675568 77.258334,1.1675568 z M 79.25834,12.261358 C 97.847891,12.269458 698.4772,12.573758 698.4772,12.573758 C 732.6963,14.309558 759.9459,42.614558 759.9459,77.261382 C 759.9459,111.15445 733.8642,138.94125 700.6959,141.76145 C 699.9716,141.83095 699.2329,141.90765 698.4772,141.94885 C 699.2228,141.90815 98.146594,142.25215 79.25834,142.26145 C 76.215831,129.90715 74.039525,105.43995 74.039525,77.261382 C 74.039525,49.082958 76.215831,24.615558 79.25834,12.261358 z "
       style="opacity:0.1;fill:#00583f;fill-opacity:1;fill-rule:nonzero;stroke:none;stroke-width:10;stroke-linecap:round;stroke-linejoin:round;stroke-miterlimit:4;stroke-dasharray:none;stroke-opacity:1" />
    <path
       sodipodi:nodetypes="cscccscccsc"
       id="path11132"
       d="M 77.289534,1.2300568 C 77.131034,1.2490568 76.977834,1.2637568 76.820831,1.2925568 C 76.976734,1.2653568 77.132334,1.2474568 77.289534,1.2300568 z M 84.477155,3.6987572 C 80.456343,3.6987572 76.803231,24.010758 75.414528,52.355058 C 80.332343,36.004358 83.021049,26.790658 105.4146,27.323758 C 105.4147,27.323758 678.8867,27.292558 678.8867,27.292558 C 702.9582,27.356258 716.2459,6.7661578 714.5084,6.2925576 C 707.2198,5.3157576 695.1334,3.6987572 695.1334,3.6987572 C 695.0079,3.6987572 99.004897,3.6987572 84.508355,3.6987572 C 84.508255,3.6987572 84.477555,3.6993572 84.477155,3.6987572 z "
       style="opacity:0.8;fill:url(#linearGradient2286);fill-opacity:1;fill-rule:nonzero;stroke:none;stroke-width:10;stroke-linecap:round;stroke-linejoin:round;stroke-miterlimit:4;stroke-dasharray:none;stroke-opacity:1" />
    <path
       style="fill:#888a85;fill-opacity:1;fill-rule:nonzero;stroke:none;stroke-width:12;stroke-linecap:round;stroke-linejoin:round;stroke-miterlimit:4;stroke-opacity:1"
       d="M 628.8522,70.355064 C 628.8522,70.354864 628.0709,72.61947 628.0709,76.448782 C 628.0709,80.541394 628.8522,82.511397 628.8522,82.511397 C 628.8522,82.511397 630.1647,80.541394 630.1646,76.448782 C 630.1646,72.61947 628.8522,70.354864 628.8522,70.355064 z "
       id="path11134" />
  </g>
</svg>
