<?xml version="1.0" encoding="UTF-8" standalone="no"?>
<!-- Created with Inkscape (http://www.inkscape.org/) -->
<svg
   xmlns:dc="http://purl.org/dc/elements/1.1/"
   xmlns:cc="http://web.resource.org/cc/"
   xmlns:rdf="http://www.w3.org/1999/02/22-rdf-syntax-ns#"
   xmlns:svg="http://www.w3.org/2000/svg"
   xmlns="http://www.w3.org/2000/svg"
   xmlns:xlink="http://www.w3.org/1999/xlink"
   xmlns:sodipodi="http://sodipodi.sourceforge.net/DTD/sodipodi-0.dtd"
   xmlns:inkscape="http://www.inkscape.org/namespaces/inkscape"
   width="40"
   height="40"
   id="svg1307"
   sodipodi:version="0.32"
   inkscape:version="0.44.1"
   version="1.0"
   sodipodi:docbase="/home/johann/Developpement/kdeedu"
   sodipodi:docname="h.svg">
  <defs
     id="defs1309">
    <linearGradient
       id="linearGradient2255">
      <stop
         style="stop-color:#003fa2;stop-opacity:1;"
         offset="0"
         id="stop2257" />
      <stop
         style="stop-color:#2b7eff;stop-opacity:1;"
         offset="1"
         id="stop2259" />
    </linearGradient>
    <linearGradient
       inkscape:collect="always"
       id="linearGradient2381">
      <stop
         style="stop-color:#000000;stop-opacity:1;"
         offset="0"
         id="stop2383" />
      <stop
         style="stop-color:#000000;stop-opacity:0;"
         offset="1"
         id="stop2385" />
    </linearGradient>
    <linearGradient
       inkscape:collect="always"
       id="linearGradient2332">
      <stop
         style="stop-color:#000000;stop-opacity:1;"
         offset="0"
         id="stop2334" />
      <stop
         style="stop-color:#000000;stop-opacity:0;"
         offset="1"
         id="stop2336" />
    </linearGradient>
    <linearGradient
       id="linearGradient2308">
      <stop
         style="stop-color:#0e0000;stop-opacity:1;"
         offset="0"
         id="stop2310" />
      <stop
         style="stop-color:#0e0000;stop-opacity:0;"
         offset="1"
         id="stop2312" />
    </linearGradient>
    <linearGradient
       id="linearGradient2298">
      <stop
         style="stop-color:#0e0000;stop-opacity:1;"
         offset="0"
         id="stop2300" />
      <stop
         id="stop2399"
         offset="0.63186812"
         style="stop-color:#4b0000;stop-opacity:1;" />
      <stop
         style="stop-color:#950000;stop-opacity:1;"
         offset="1"
         id="stop2302" />
    </linearGradient>
    <linearGradient
       inkscape:collect="always"
       id="linearGradient2450">
      <stop
         style="stop-color:#ffffff;stop-opacity:1;"
         offset="0"
         id="stop2452" />
      <stop
         style="stop-color:#ffffff;stop-opacity:0;"
         offset="1"
         id="stop2454" />
    </linearGradient>
    <linearGradient
       inkscape:collect="always"
       id="linearGradient2442">
      <stop
         style="stop-color:#ffffff;stop-opacity:1;"
         offset="0"
         id="stop2444" />
      <stop
         style="stop-color:#ffffff;stop-opacity:0;"
         offset="1"
         id="stop2446" />
    </linearGradient>
    <linearGradient
       inkscape:collect="always"
       id="linearGradient2434">
      <stop
         style="stop-color:#ffffff;stop-opacity:1;"
         offset="0"
         id="stop2436" />
      <stop
         style="stop-color:#ffffff;stop-opacity:0;"
         offset="1"
         id="stop2438" />
    </linearGradient>
    <linearGradient
       inkscape:collect="always"
       id="linearGradient2418">
      <stop
         style="stop-color:#ffffff;stop-opacity:1;"
         offset="0"
         id="stop2420" />
      <stop
         style="stop-color:#ffffff;stop-opacity:0;"
         offset="1"
         id="stop2422" />
    </linearGradient>
    <linearGradient
       inkscape:collect="always"
       id="linearGradient2319">
      <stop
         style="stop-color:#fffbfb;stop-opacity:1;"
         offset="0"
         id="stop2321" />
      <stop
         style="stop-color:#fffbfb;stop-opacity:0;"
         offset="1"
         id="stop2323" />
    </linearGradient>
    <linearGradient
       inkscape:collect="always"
       id="linearGradient3291">
      <stop
         style="stop-color:#000000;stop-opacity:1;"
         offset="0"
         id="stop3293" />
      <stop
         style="stop-color:#000000;stop-opacity:0;"
         offset="1"
         id="stop3295" />
    </linearGradient>
    <radialGradient
       inkscape:collect="always"
       xlink:href="#linearGradient3291"
       id="radialGradient3297"
       cx="63.912209"
       cy="115.70919"
       fx="14.046639"
       fy="115.70919"
       r="63.912209"
       gradientTransform="matrix(1,0,0,0.197802,0,92.82166)"
       gradientUnits="userSpaceOnUse" />
    <linearGradient
       inkscape:collect="always"
       xlink:href="#linearGradient2298"
       id="linearGradient2304"
       x1="11.898753"
       y1="124.81951"
       x2="115.87801"
       y2="19.340925"
       gradientUnits="userSpaceOnUse" />
    <linearGradient
       inkscape:collect="always"
       xlink:href="#linearGradient2308"
       id="linearGradient2314"
       x1="99.219933"
       y1="44.186584"
       x2="89.043434"
       y2="34.010086"
       gradientUnits="userSpaceOnUse"
       spreadMethod="reflect" />
    <linearGradient
       inkscape:collect="always"
       xlink:href="#linearGradient2332"
       id="linearGradient2338"
       x1="78.321938"
       y1="43.101406"
       x2="42.220444"
       y2="53.529778"
       gradientUnits="userSpaceOnUse"
       gradientTransform="matrix(0.275847,0,0,0.275847,2.730181,-0.262841)" />
    <radialGradient
       inkscape:collect="always"
       xlink:href="#linearGradient2418"
       id="radialGradient2346"
       gradientUnits="userSpaceOnUse"
       gradientTransform="matrix(0.281733,-0.138497,8.612061e-2,0.175187,-5.107537,11.85856)"
       cx="49.370686"
       cy="82.646782"
       fx="49.370686"
       fy="82.646782"
       r="24.015759" />
    <linearGradient
       inkscape:collect="always"
       xlink:href="#linearGradient2450"
       id="linearGradient2349"
       gradientUnits="userSpaceOnUse"
       x1="51.081425"
       y1="67.911621"
       x2="53.202446"
       y2="93.368103"
       gradientTransform="matrix(0.284283,0,0,0.284283,1.88413,-0.594685)" />
    <linearGradient
       inkscape:collect="always"
       xlink:href="#linearGradient2442"
       id="linearGradient2353"
       gradientUnits="userSpaceOnUse"
       x1="61.59375"
       y1="45.469845"
       x2="83.104774"
       y2="65.850647"
       gradientTransform="matrix(0.284283,0,0,0.284283,1.88413,-0.594685)" />
    <linearGradient
       inkscape:collect="always"
       xlink:href="#linearGradient2434"
       id="linearGradient2357"
       gradientUnits="userSpaceOnUse"
       x1="88.884148"
       y1="21.082905"
       x2="107.56925"
       y2="42.339241"
       gradientTransform="matrix(0.284283,0,0,0.284283,1.88413,-0.594685)" />
    <linearGradient
       inkscape:collect="always"
       xlink:href="#linearGradient2319"
       id="linearGradient2361"
       gradientUnits="userSpaceOnUse"
       x1="80.642197"
       y1="126.0212"
       x2="67.16008"
       y2="73.368515"
       gradientTransform="matrix(0.284283,0,0,0.284283,1.88413,-0.594685)" />
    <linearGradient
       inkscape:collect="always"
       xlink:href="#linearGradient2319"
       id="linearGradient2364"
       gradientUnits="userSpaceOnUse"
       x1="91.335419"
       y1="112.46372"
       x2="60.66777"
       y2="67.640007"
       gradientTransform="matrix(0.284283,0,0,0.284283,1.88413,-0.594685)" />
    <linearGradient
       inkscape:collect="always"
       xlink:href="#linearGradient2381"
       id="linearGradient2387"
       x1="76.512352"
       y1="58.947071"
       x2="64.790405"
       y2="100.00941"
       gradientUnits="userSpaceOnUse"
       gradientTransform="matrix(0.275847,0,0,0.275847,2.730181,-0.262841)" />
    <linearGradient
       inkscape:collect="always"
       xlink:href="#linearGradient2298"
       id="linearGradient2321"
       x1="-102.18439"
       y1="-41.8423"
       x2="-27.202675"
       y2="-41.8423"
       gradientUnits="userSpaceOnUse" />
    <linearGradient
       inkscape:collect="always"
       xlink:href="#linearGradient2255"
       id="linearGradient2261"
       x1="-32.323559"
       y1="191.84111"
       x2="-37.666389"
       y2="160.7121"
       gradientUnits="userSpaceOnUse" />
  </defs>
  <sodipodi:namedview
     id="base"
     pagecolor="#ffffff"
     bordercolor="#666666"
     borderopacity="1.0"
     inkscape:pageopacity="0.0"
     inkscape:pageshadow="2"
     inkscape:zoom="5.7347314"
     inkscape:cx="26.714409"
     inkscape:cy="18.958189"
     inkscape:current-layer="layer1"
     showgrid="false"
     inkscape:document-units="px"
     inkscape:grid-bbox="true"
     guidetolerance="0.1px"
     showguides="true"
     inkscape:guide-bbox="true"
     inkscape:window-width="1272"
     inkscape:window-height="901"
     inkscape:window-x="0"
     inkscape:window-y="0"
     width="40px"
     height="40px">
    <sodipodi:guide
       orientation="horizontal"
       position="50.045936"
       id="guide2204" />
  </sodipodi:namedview>
  <metadata
     id="metadata1312">
    <rdf:RDF>
      <cc:Work
         rdf:about="">
        <dc:format>image/svg+xml</dc:format>
        <dc:type
           rdf:resource="http://purl.org/dc/dcmitype/StillImage" />
        <cc:license
           rdf:resource="http://creativecommons.org/licenses/GPL/2.0/" />
        <dc:contributor>
          <cc:Agent>
            <dc:title>Oxygen team</dc:title>
          </cc:Agent>
        </dc:contributor>
      </cc:Work>
      <cc:License
         rdf:about="http://creativecommons.org/licenses/LGPL/2.1/">
        <cc:permits
           rdf:resource="http://web.resource.org/cc/Reproduction" />
        <cc:permits
           rdf:resource="http://web.resource.org/cc/Distribution" />
        <cc:requires
           rdf:resource="http://web.resource.org/cc/Notice" />
        <cc:permits
           rdf:resource="http://web.resource.org/cc/DerivativeWorks" />
        <cc:requires
           rdf:resource="http://web.resource.org/cc/ShareAlike" />
        <cc:requires
           rdf:resource="http://web.resource.org/cc/SourceCode" />
      </cc:License>
    </rdf:RDF>
  </metadata>
  <g
     id="layer1"
     inkscape:label="Layer 1"
     inkscape:groupmode="layer">
    <path
       style="fill:#280000;fill-opacity:1;fill-rule:evenodd;stroke:none;stroke-width:0.79006064px;stroke-linecap:butt;stroke-linejoin:miter;stroke-opacity:1"
       d="M 14.528036,19.478776 C 12.998108,20.245715 11.649198,21.296602 10.429946,22.507995 C 10.216224,22.704152 10.673493,22.951796 10.787909,22.917432 C 11.590507,22.618054 12.176108,22.788832 12.978706,22.489454"
       id="path1416"
       sodipodi:nodetypes="cccc" />
    <path
       sodipodi:nodetypes="ccc"
       id="path2276"
       d="M 50.892799,3.2812959 L 50.892799,0.48658747 L 50.892799,3.2812959 z "
       style="fill:white;fill-opacity:0.75688076;fill-rule:nonzero;stroke:none;stroke-width:0.5;stroke-linecap:round;stroke-linejoin:round;stroke-miterlimit:4;stroke-dasharray:none;stroke-dashoffset:4;stroke-opacity:1" />
    <path
       sodipodi:type="arc"
       style="opacity:0.38139535;fill:url(#radialGradient3297);fill-opacity:1;fill-rule:nonzero;stroke:none;stroke-width:0;stroke-linecap:round;stroke-linejoin:round;stroke-miterlimit:4;stroke-dasharray:none;stroke-dashoffset:4;stroke-opacity:1"
       id="path3289"
       sodipodi:cx="63.912209"
       sodipodi:cy="115.70919"
       sodipodi:rx="63.912209"
       sodipodi:ry="12.641975"
       d="M 127.82442 115.70919 A 63.912209 12.641975 0 1 1  0,115.70919 A 63.912209 12.641975 0 1 1  127.82442 115.70919 z"
       transform="matrix(0.275847,0,0,0.114937,2.730181,20.39025)" />
    <g
       id="g2337"
       transform="matrix(0.133345,0.148342,-0.1969,0.176993,48.76232,2.052351)">
      <path
         sodipodi:nodetypes="czzczz"
         id="path2331"
         d="M -40,155.42968 C -36.833333,152.00947 -32.426131,152.37592 -29,155.42968 C -25.573869,158.48344 -19.131815,167.79373 -19.631815,176.22212 C -20.131815,184.65051 -21.794251,190.6791 -30.211232,198.99316 C -40.01995,192.30287 -45.616782,186.38916 -46.950115,177.96077 C -48.283448,169.53238 -43.166667,158.8499 -40,155.42968 z "
         style="opacity:1;fill:#b5a8a8;fill-opacity:1;fill-rule:evenodd;stroke:none;stroke-width:1px;stroke-linecap:butt;stroke-linejoin:miter;stroke-opacity:1" />
      <path
         style="opacity:0.40573772;fill:url(#linearGradient2261);fill-opacity:1;fill-rule:evenodd;stroke:none;stroke-width:1px;stroke-linecap:butt;stroke-linejoin:miter;stroke-opacity:1"
         d="M -38.011331,154.86326 C -35.855763,152.5351 -32.855757,152.78455 -30.523571,154.86326 C -28.191385,156.94197 -23.677862,161.59829 -24.018214,167.33554 C -24.358567,173.07279 -26.696873,181.38949 -32.442038,187.13466 C -37.965569,183.15755 -43.406459,175.28781 -44.314066,169.55056 C -45.221673,163.81331 -40.166898,157.19142 -38.011331,154.86326 z "
         id="path2333"
         sodipodi:nodetypes="czzczz" />
      <path
         sodipodi:nodetypes="czzczz"
         id="path2335"
         d="M -37.392489,154.74933 C -36.117484,153.37224 -34.342999,153.51979 -32.963526,154.74933 C -31.584052,155.97888 -28.914332,158.73306 -29.115648,162.12661 C -29.316964,165.52016 -32.077942,170.95127 -35.476171,174.34951 C -38.595491,171.23019 -40.076709,166.40543 -40.613553,163.01188 C -41.150397,159.61833 -38.667493,156.12642 -37.392489,154.74933 z "
         style="fill:#dfdeff;fill-opacity:1;fill-rule:evenodd;stroke:none;stroke-width:1px;stroke-linecap:butt;stroke-linejoin:miter;stroke-opacity:1" />
    </g>
    <g
       id="g2297"
       transform="matrix(0.21751,0.21751,-0.21751,0.21751,25.10867,0.313596)">
      <path
         id="path1410"
         transform="matrix(0.634105,-0.634105,0.634105,0.634105,-52.99317,51.69598)"
         d="M 126.53125,0.8125 C 121.12,0.94356365 115.09225,3.3030809 110.4375,6.40625 C 98.388202,14.439115 85.063916,27.170872 73.09375,39.15625 C 46.885595,43.297674 22.766257,56.728266 5.125,72.6875 C 5.1196543,72.69281 5.0988882,72.713189 5.09375,72.71875 C 5.0888125,72.724534 5.0672435,72.744022 5.0625,72.75 C 5.0123814,72.817577 4.9698556,72.902037 4.9375,72.96875 C 4.9348053,72.974903 4.9088079,72.99373 4.90625,73 C 4.8336184,73.191432 4.8252249,73.435724 4.875,73.65625 C 5.1241866,74.651731 6.4717118,75.844416 7.53125,75.875 C 7.5858077,75.87556 7.6658862,75.849535 7.71875,75.84375 C 7.7537801,75.839165 7.8096388,75.851317 7.84375,75.84375 C 7.8669978,75.837825 7.8834809,75.819893 7.90625,75.8125 C 18.934683,72.231509 32.435233,68.612195 43.28125,70.34375 C 41.568867,72.727239 39.846742,75.469614 37.9375,78.90625 C 35.103813,84.006883 32.124139,88.686639 35.71875,92.28125 C 39.138987,95.701489 43.993117,92.896186 49.09375,90.0625 C 52.530387,88.153257 55.272761,86.431133 57.65625,84.71875 C 59.387804,95.564766 55.768487,109.06532 52.1875,120.09375 C 52.181955,120.11083 52.162281,120.13753 52.15625,120.15625 C 52.14323,120.21494 52.160595,120.31382 52.15625,120.375 C 52.154645,120.41197 52.154929,120.49358 52.15625,120.53125 C 52.22132,121.61705 53.466998,122.98102 54.46875,123.15625 C 54.556363,123.16927 54.659177,123.16124 54.75,123.15625 C 54.774355,123.15435 54.821136,123.15985 54.84375,123.15625 C 55.011556,123.11778 55.183737,123.01733 55.3125,122.875 C 71.271733,105.23374 84.702326,81.114405 88.84375,54.90625 C 100.82913,42.936083 113.56088,29.611798 121.59375,17.5625 C 124.82306,12.71853 127.24032,6.3897882 127.1875,0.8125 C 126.96964,0.81043684 126.75122,0.80717221 126.53125,0.8125 z "
         style="fill:url(#linearGradient2304);fill-opacity:1;fill-rule:evenodd;stroke:none;stroke-width:1px;stroke-linecap:butt;stroke-linejoin:miter;stroke-opacity:1" />
      <path
         sodipodi:nodetypes="csccsssccscc"
         style="fill:url(#linearGradient2314);fill-opacity:1;fill-rule:evenodd;stroke:none;stroke-width:1px;stroke-linecap:butt;stroke-linejoin:miter;stroke-opacity:1"
         d="M 126.53125,0.8125 C 121.12,0.94356365 115.09225,3.3030809 110.4375,6.40625 C 98.388202,14.439115 85.063916,27.170872 73.09375,39.15625 C 39.506904,43.912565 32.435233,68.612195 43.28125,70.34375 C 41.568867,72.727239 39.846742,75.469614 37.9375,78.90625 C 35.103813,84.006883 32.124139,88.686639 35.71875,92.28125 C 39.138987,95.701489 43.993117,92.896186 49.09375,90.0625 C 52.530387,88.153257 55.272761,86.431133 57.65625,84.71875 C 59.611142,104.09798 75.532036,113.99791 88.84375,54.90625 C 100.82913,42.936083 113.56088,29.611798 121.59375,17.5625 C 124.82306,12.71853 127.24032,6.3897882 127.1875,0.8125 C 126.96964,0.81043684 126.75122,0.80717221 126.53125,0.8125 z "
         transform="matrix(0.634105,-0.634105,0.634105,0.634105,-52.99317,51.69598)"
         id="path2306" />
    </g>
    <path
       style="opacity:0.18032789;fill:#f2f2f2;fill-opacity:1;fill-rule:evenodd;stroke:none;stroke-width:1px;stroke-linecap:butt;stroke-linejoin:miter;stroke-opacity:1"
       d="M 37.419471,0.25816215 C 33.468844,0.76190895 30.410616,4.3628237 23.205335,10.850929 C 23.698488,12.074749 22.940504,12.397298 20.012792,15.309808 C 17.058814,18.248444 16.502079,18.894826 15.087936,19.401221 C 14.045565,20.949436 11.795825,23.285066 12.118308,24.990759 C 13.294204,22.140899 15.550289,20.937224 21.336994,15.432879 C 24.503785,12.420612 33.866285,1.2812527 37.419471,0.25816215 z "
       id="path2301"
       sodipodi:nodetypes="cczccsc" />
    <path
       sodipodi:nodetypes="cczccsc"
       id="path2303"
       d="M 37.419471,0.25816215 C 33.468844,0.76190895 30.410616,4.3628237 23.205335,10.850929 C 23.698488,12.074749 22.940504,12.397298 20.012792,15.309808 C 17.058814,18.248444 16.502079,18.894826 15.087936,19.401221 C 14.045565,20.949436 11.795825,23.285066 12.118308,24.990759 C 12.926743,22.035905 14.815368,20.727253 20.602073,15.222901 C 23.768864,12.210634 30.769118,2.0161738 37.419471,0.25816215 z "
       style="opacity:0.18032789;fill:#f2f2f2;fill-opacity:1;fill-rule:evenodd;stroke:none;stroke-width:1px;stroke-linecap:butt;stroke-linejoin:miter;stroke-opacity:1" />
    <path
       style="opacity:0.18032789;fill:#f2f2f2;fill-opacity:1;fill-rule:evenodd;stroke:none;stroke-width:1px;stroke-linecap:butt;stroke-linejoin:miter;stroke-opacity:1"
       d="M 37.419471,0.25816215 C 33.468844,0.76190895 30.148143,4.2578351 22.942864,10.74594 C 23.436016,11.96976 22.783022,12.397298 19.855309,15.309808 C 16.901331,18.248444 16.344596,18.632355 14.930453,19.138749 C 13.888082,20.686964 11.795825,23.285066 12.118308,24.990759 C 13.294204,22.193392 15.025345,20.884732 20.81205,15.380386 C 23.978842,12.368117 31.031589,2.383634 37.419471,0.25816215 z "
       id="path2305"
       sodipodi:nodetypes="cczccsc" />
    <path
       sodipodi:nodetypes="cczccsc"
       id="path2307"
       d="M 37.419471,0.25816215 C 33.543213,0.96022075 30.272088,4.3074129 23.066809,10.795517 C 23.559961,12.019338 22.857389,12.422088 19.929677,15.334591 C 16.975698,18.273228 16.369385,18.756294 14.955242,19.262695 C 13.912871,20.810911 11.91977,23.260275 12.118308,24.990759 C 13.566883,21.99508 15.174079,20.983887 20.960785,15.479542 C 24.127576,12.467274 31.27948,2.5571575 37.419471,0.25816215 z "
       style="opacity:0.18032789;fill:#f2f2f2;fill-opacity:1;fill-rule:evenodd;stroke:none;stroke-width:1px;stroke-linecap:butt;stroke-linejoin:miter;stroke-opacity:1" />
    <path
       style="fill:#fefefe;fill-opacity:0.54471549;fill-rule:evenodd;stroke:none;stroke-width:1px;stroke-linecap:butt;stroke-linejoin:miter;stroke-opacity:1"
       d="M 4.1583917,20.157956 C 9.405212,15.70321 15.288608,12.355551 22.352487,11.060905 C 22.886871,10.935253 22.857184,11.433049 22.411863,11.5449 C 15.789175,12.266704 9.7534888,15.879106 4.1583917,20.157956 z "
       id="path2309"
       sodipodi:nodetypes="cccc" />
    <path
       sodipodi:nodetypes="cccc"
       id="path2311"
       d="M 4.1583917,20.157956 C 9.405212,15.70321 15.288608,12.355551 22.352487,11.060905 C 22.886871,10.935253 22.975936,11.522114 22.530615,11.633964 C 15.907927,12.355769 9.7534888,15.879106 4.1583917,20.157956 z "
       style="fill:#fefefe;fill-opacity:0.39024389;fill-rule:evenodd;stroke:none;stroke-width:1px;stroke-linecap:butt;stroke-linejoin:miter;stroke-opacity:1" />
    <path
       style="fill:#fefefe;fill-opacity:0.23577235;fill-rule:evenodd;stroke:none;stroke-width:1px;stroke-linecap:butt;stroke-linejoin:miter;stroke-opacity:1"
       d="M 4.1583917,20.157956 C 9.405212,15.70321 15.288608,12.355551 22.352487,11.060905 C 22.886871,10.935253 23.005623,11.640865 22.560304,11.752716 C 15.937616,12.474521 9.7534888,15.879106 4.1583917,20.157956 z "
       id="path2313"
       sodipodi:nodetypes="cccc" />
    <path
       sodipodi:nodetypes="cscccccc"
       id="path2327"
       d="M 25.573963,16.625129 C 25.829621,15.957087 23.79004,18.861654 23.138188,20.266521 C 22.228604,22.22685 22.082482,25.483104 21.215356,26.557877 C 20.334422,27.149737 20.050612,25.081688 19.576806,23.990757 C 19.428234,23.749664 19.171093,23.752855 19.103946,24.244604 C 19.193827,27.420943 18.569147,29.392748 17.669669,32.286405 C 17.491566,32.516881 18.019154,32.801636 18.085329,32.51641 C 21.874571,27.642443 24.522334,23.141078 25.573963,16.625129 z "
       style="opacity:0.295082;fill:url(#linearGradient2361);fill-opacity:1;fill-rule:evenodd;stroke:none;stroke-width:1px;stroke-linecap:butt;stroke-linejoin:miter;stroke-opacity:1" />
    <path
       sodipodi:nodetypes="cccc"
       id="path2315"
       d="M 4.1583917,20.157956 C 9.405212,15.70321 15.288608,12.355551 22.352487,11.060905 C 22.886871,10.935253 23.154063,11.818994 22.708743,11.930844 C 16.086055,12.652648 9.7534888,15.879106 4.1583917,20.157956 z "
       style="fill:#fefefe;fill-opacity:0.13821136;fill-rule:evenodd;stroke:none;stroke-width:1px;stroke-linecap:butt;stroke-linejoin:miter;stroke-opacity:1" />
    <path
       style="opacity:0.56967211;fill:url(#linearGradient2364);fill-opacity:1;fill-rule:evenodd;stroke:none;stroke-width:1px;stroke-linecap:butt;stroke-linejoin:miter;stroke-opacity:1"
       d="M 26.062517,16.353709 C 26.318175,15.685669 23.572905,18.753089 22.921053,20.157956 C 22.011468,22.118284 20.267747,24.375998 19.793942,23.285066 C 19.645369,23.043974 19.008241,23.210017 18.941094,23.701767 C 19.030976,26.878105 18.134876,29.772733 17.235398,32.666397 C 17.057295,32.896865 17.856302,33.2359 17.922477,32.950675 C 21.71172,28.076714 25.010889,22.869659 26.062517,16.353709 z "
       id="path2317"
       sodipodi:nodetypes="csccccc" />
    <path
       style="fill:white;fill-opacity:0.45934963;fill-rule:evenodd;stroke:none;stroke-width:1px;stroke-linecap:butt;stroke-linejoin:miter;stroke-opacity:1"
       d="M 32.927511,1.7205619 L 34.435847,3.2546821 L 31.432062,6.219789 L 29.601431,4.2215643 C 30.655971,3.3337442 31.76989,2.5053027 32.927511,1.7205619 z "
       id="path2346"
       sodipodi:nodetypes="ccccc" />
    <path
       style="fill:url(#linearGradient2357);fill-opacity:1;fill-rule:evenodd;stroke:none;stroke-width:1px;stroke-linecap:butt;stroke-linejoin:miter;stroke-opacity:1"
       d="M 31.419506,6.221666 L 33.315603,8.263618 C 32.298788,9.484916 31.216515,10.668807 30.106822,11.837033 L 28.06487,9.5763 L 31.419506,6.221666 z "
       id="path2348"
       sodipodi:nodetypes="ccccc" />
    <path
       style="fill:white;fill-opacity:0.45934963;fill-rule:evenodd;stroke:none;stroke-width:1px;stroke-linecap:butt;stroke-linejoin:miter;stroke-opacity:1"
       d="M 26.050963,7.372337 L 28.051052,9.582381 L 24.559183,13.041099 L 23.211055,11.626672 C 23.285199,10.949352 22.882502,10.702269 22.514893,10.853156 C 23.619474,9.705958 24.77756,8.519103 26.050963,7.372337 z "
       id="path2350"
       sodipodi:nodetypes="cccccc" />
    <path
       style="fill:url(#linearGradient2387);fill-opacity:1;fill-rule:evenodd;stroke:none;stroke-width:1px;stroke-linecap:butt;stroke-linejoin:miter;stroke-opacity:1"
       d="M 26.744309,15.26241 C 26.747836,18.663799 22.337795,28.211637 21.544982,27.811949 C 21.322578,27.420157 22.249829,26.459809 22.577431,23.910208 C 22.577431,23.104906 21.905417,21.998425 21.006106,22.299318 C 20.567926,22.445923 19.113641,25.780939 18.690968,25.358269 C 18.856315,24.288377 19.021661,23.218487 19.187007,22.148603 C 19.334165,21.780991 26.203853,14.91889 26.744309,15.26241 z "
       id="path2340"
       sodipodi:nodetypes="cccsccc" />
    <path
       style="fill:url(#linearGradient2353);fill-opacity:1;fill-rule:evenodd;stroke:none;stroke-width:1px;stroke-linecap:butt;stroke-linejoin:miter;stroke-opacity:1"
       d="M 26.691875,15.273247 C 25.401121,16.05403 24.082908,17.725155 22.780097,18.952965 L 20.813158,16.809228 L 24.570233,13.041099 L 26.691875,15.273247 z "
       id="path2352"
       sodipodi:nodetypes="ccccc" />
    <path
       style="fill:white;fill-opacity:0.45934963;fill-rule:evenodd;stroke:none;stroke-width:1px;stroke-linecap:butt;stroke-linejoin:miter;stroke-opacity:1"
       d="M 19.630784,15.538453 L 20.791057,16.820278 L 16.370969,21.174059 L 14.669236,19.461278 L 14.868139,19.151872 C 15.958093,18.906648 16.984973,18.143296 17.763297,17.416983 L 19.630784,15.538453 z "
       id="path2354"
       sodipodi:nodetypes="ccccccc" />
    <path
       style="fill:url(#linearGradient2349);fill-opacity:1;fill-rule:evenodd;stroke:none;stroke-width:1px;stroke-linecap:butt;stroke-linejoin:miter;stroke-opacity:1"
       d="M 16.359919,21.174059 L 18.072703,22.919998 L 18.238457,23.384103 C 17.379524,24.057475 16.366657,24.576905 15.39855,25.141092 L 13.851519,23.682461 L 16.359919,21.174059 z "
       id="path2356"
       sodipodi:nodetypes="cccccc" />
    <path
       style="opacity:0.49590167;fill:url(#radialGradient2346);fill-opacity:1;fill-rule:evenodd;stroke:none;stroke-width:1px;stroke-linecap:butt;stroke-linejoin:miter;stroke-opacity:1"
       d="M 22.492827,12.64679 C 22.492827,12.64679 17.745802,17.407698 17.128514,17.963615 C 16.612971,18.427897 15.359366,19.20721 14.815727,19.1094 C 11.766854,18.560894 8.838296,19.499435 8.838296,19.499435 C 11.784458,15.643314 17.056423,14.064547 22.492827,12.64679 z "
       id="path2416"
       sodipodi:nodetypes="csscc" />
    <path
       style="fill:white;fill-opacity:0.34959352;fill-rule:evenodd;stroke:none;stroke-width:1px;stroke-linecap:butt;stroke-linejoin:miter;stroke-opacity:1"
       d="M 13.85953,23.671903 L 12.470641,22.377616 C 11.936381,23.391889 11.317094,24.483903 12.092245,25.383295 L 13.85953,23.671903 z "
       id="path2458"
       sodipodi:nodetypes="cccc" />
    <path
       style="opacity:0.63524631;fill:#f2f2f2;fill-opacity:1;fill-rule:evenodd;stroke:none;stroke-width:1px;stroke-linecap:butt;stroke-linejoin:miter;stroke-opacity:1"
       d="M 37.419471,0.25816215 C 33.543213,0.96022075 30.530017,4.4363769 23.324737,10.924481 C 23.81789,12.148302 22.857389,12.615534 19.929677,15.528043 C 16.975698,18.466679 16.369385,18.756294 14.955242,19.262695 C 13.912871,20.810911 11.91977,23.260275 12.118308,24.990759 C 13.17999,21.99508 14.4535,20.545807 20.573891,15.415058 C 24.321023,12.273827 31.150516,2.1057822 37.419471,0.25816215 z "
       id="path1414"
       sodipodi:nodetypes="cczccsc" />
    <path
       sodipodi:nodetypes="cczccsc"
       id="path2289"
       d="M 37.419471,0.25816215 C 33.543213,0.96022075 30.354807,4.2830692 23.149529,10.771174 C 23.64268,11.994994 22.813586,12.571731 19.885874,15.484239 C 16.931896,18.422876 16.369385,18.756294 14.955242,19.262695 C 13.912871,20.810911 11.91977,23.260275 12.118308,24.990759 C 14.276186,22.510936 15.162802,21.126147 21.283195,15.995398 C 25.030327,12.854165 32.246711,3.3309423 37.419471,0.25816215 z "
       style="opacity:0.4713115;fill:#f2f2f2;fill-opacity:1;fill-rule:evenodd;stroke:none;stroke-width:1px;stroke-linecap:butt;stroke-linejoin:miter;stroke-opacity:1" />
    <path
       style="fill:url(#linearGradient2338);fill-opacity:1;fill-rule:evenodd;stroke:none;stroke-width:1px;stroke-linecap:butt;stroke-linejoin:miter;stroke-opacity:1"
       d="M 22.497366,10.825515 C 22.820891,10.770073 23.053284,10.846265 23.157058,11.10824 C 23.307523,11.462794 23.172178,11.789974 23.086377,11.956415 C 21.902173,13.941012 19.276759,15.830127 17.337636,17.752276 L 13.308806,17.116143 L 13.591531,13.534962 C 16.643426,12.3542 19.633439,11.379715 22.497366,10.825515 z "
       id="path2330"
       sodipodi:nodetypes="ccccccc" />
    <path
       style="fill:none;fill-opacity:0.75;fill-rule:evenodd;stroke:black;stroke-width:0.02758473;stroke-linecap:butt;stroke-linejoin:miter;stroke-miterlimit:4;stroke-dasharray:none;stroke-opacity:1"
       d="M 22.429887,10.822815 C 22.430374,10.814486 23.730972,9.559798 25.477588,7.947306 C 27.224205,6.334812 30.163778,3.727195 31.201401,2.9249565 C 33.930715,0.81479065 35.951696,0.24695045 37.421215,0.27330205 C 37.34981,0.99252675 37.626153,2.7434982 34.636901,6.611511 C 31.386211,10.821473 24.606551,17.188066 24.606551,17.188066"
       id="path2316"
       sodipodi:nodetypes="csscsc" />
    <path
       sodipodi:nodetypes="csscsc"
       id="path2318"
       d="M 22.509845,10.902773 C 22.500929,10.891308 23.788689,9.566191 25.530884,7.955686 C 27.273078,6.345181 29.436389,4.390978 31.265199,2.9980892 C 34.156033,0.79632485 35.656747,0.38363545 37.352874,0.32725645 C 37.281469,1.0464811 37.561407,2.7111254 34.572154,6.579138 C 31.321464,10.7891 24.856419,17.337995 24.856419,17.337995"
       style="fill:none;fill-opacity:0.75;fill-rule:evenodd;stroke:black;stroke-width:0.11033893;stroke-linecap:butt;stroke-linejoin:miter;stroke-miterlimit:4;stroke-dasharray:none;stroke-opacity:0.20325204" />
    <rect
       style="opacity:0.61162791;fill:#555753;fill-opacity:1;fill-rule:nonzero;stroke:none;stroke-width:0.69999999;stroke-linecap:round;stroke-linejoin:miter;stroke-miterlimit:4;stroke-dasharray:none;stroke-opacity:1"
       id="rect1951"
       width="39.82671"
       height="9.8642006"
       x="0.061651256"
       y="30.135799" />
    <text
       xml:space="preserve"
       style="font-size:12px;font-style:normal;font-weight:normal;fill:#eeeeec;fill-opacity:1;stroke:none;stroke-width:1px;stroke-linecap:butt;stroke-linejoin:miter;stroke-opacity:1;font-family:Bitstream Vera Sans"
       x="15.412813"
       y="39.198532"
       id="text2840"><tspan
         sodipodi:role="line"
         id="tspan2842"
         x="15.412813"
         y="39.198532">H</tspan></text>
  </g>
</svg>
