<?xml version="1.0" encoding="UTF-8" standalone="no"?>
<!-- Created with Inkscape (http://www.inkscape.org/) -->
<svg
   xmlns:dc="http://purl.org/dc/elements/1.1/"
   xmlns:cc="http://web.resource.org/cc/"
   xmlns:rdf="http://www.w3.org/1999/02/22-rdf-syntax-ns#"
   xmlns:svg="http://www.w3.org/2000/svg"
   xmlns="http://www.w3.org/2000/svg"
   xmlns:sodipodi="http://sodipodi.sourceforge.net/DTD/sodipodi-0.dtd"
   xmlns:inkscape="http://www.inkscape.org/namespaces/inkscape"
   width="48.000000pt"
   height="48.000000pt"
   id="svg6997"
   sodipodi:version="0.32"
   inkscape:version="0.44.1"
   sodipodi:docbase="/home/carsten/svn/kdeedu/kalzium/data/iconsets/school"
   sodipodi:docname="1.svg"
   inkscape:export-filename="/home/carsten/svn/kdeedu/kalzium/data/iconsets/school/1.png"
   inkscape:export-xdpi="300.00000"
   inkscape:export-ydpi="300.00000">
  <defs
     id="defs6999" />
  <sodipodi:namedview
     id="base"
     pagecolor="#ffffff"
     bordercolor="#666666"
     borderopacity="1.0"
     inkscape:pageopacity="0.0"
     inkscape:pageshadow="2"
     inkscape:zoom="24.265766"
     inkscape:cx="59.333111"
     inkscape:cy="1.2010764"
     inkscape:document-units="px"
     inkscape:current-layer="layer1"
     inkscape:window-width="1020"
     inkscape:window-height="687"
     inkscape:window-x="0"
     inkscape:window-y="0" />
  <metadata
     id="metadata7002">
    <rdf:RDF>
      <cc:Work
         rdf:about="">
        <dc:format>image/svg+xml</dc:format>
        <dc:type
           rdf:resource="http://purl.org/dc/dcmitype/StillImage" />
      </cc:Work>
    </rdf:RDF>
  </metadata>
  <g
     inkscape:label="Layer 1"
     inkscape:groupmode="layer"
     id="layer1">
    <rect
       style="opacity:1.0000000;color:#000000;fill:#9ac6de;fill-opacity:1.0000000;fill-rule:evenodd;stroke:none;stroke-width:2.5000014;stroke-linecap:round;stroke-linejoin:round;marker:none;marker-start:none;marker-mid:none;marker-end:none;stroke-miterlimit:4.0000000;stroke-dasharray:none;stroke-dashoffset:0.0000000;stroke-opacity:1.0000000;visibility:visible;display:inline;overflow:visible"
       id="rect7005"
       width="58.749470"
       height="58.749470"
       x="0.62526524"
       y="0.62526524" />
    <path
       style="opacity:1.0000000;color:#000000;fill:#ffffff;fill-opacity:0.34999999;fill-rule:evenodd;stroke:none;stroke-width:0.0000000;stroke-linecap:round;stroke-linejoin:round;marker:none;marker-start:none;marker-mid:none;marker-end:none;stroke-miterlimit:4.0000000;stroke-dasharray:none;stroke-dashoffset:0.0000000;stroke-opacity:1.0000000;visibility:visible;display:inline;overflow:visible"
       d="M 46.651392,6.1421947 C 44.849557,6.1421947 43.302626,7.0236298 42.247567,8.3216386 C 40.405007,8.5777909 38.967167,9.9766895 38.967167,11.736849 C 38.967167,12.741302 39.442788,13.634948 40.180466,14.275790 C 39.509779,14.574565 38.967166,15.112311 38.967167,15.893521 C 38.967167,16.952022 39.840957,17.803343 40.899458,17.803342 C 41.888435,17.803342 42.639096,17.035111 42.741874,16.073269 C 43.770265,17.034992 45.133372,17.646063 46.651392,17.646063 C 46.916536,17.646063 47.137203,17.523567 47.392852,17.488784 C 48.137091,18.437833 49.362091,19.084047 50.808063,19.084047 C 53.101481,19.084047 54.942265,17.519547 54.942265,15.578962 C 54.942265,15.315767 54.827429,15.084229 54.762518,14.837502 C 56.002284,14.339611 56.874556,13.451466 56.874556,12.388436 C 56.874556,10.800685 55.011302,9.5124688 52.717885,9.5124688 C 52.431208,9.5124688 52.179402,9.5864743 51.909019,9.6248117 C 51.024431,7.5851120 49.015065,6.1421940 46.651392,6.1421947 z "
       id="path12208" />
    <path
       style="opacity:1.0000000;color:#000000;fill:#ffffff;fill-opacity:0.40000001;fill-rule:evenodd;stroke:none;stroke-width:0.0000000;stroke-linecap:round;stroke-linejoin:round;marker:none;marker-start:none;marker-mid:none;marker-end:none;stroke-miterlimit:4.0000000;stroke-dasharray:none;stroke-dashoffset:0.0000000;stroke-opacity:1.0000000;visibility:visible;display:inline;overflow:visible"
       d="M 10.237106,40.639707 C 8.1610695,40.639707 6.3787277,41.336957 5.1631107,42.363735 C 3.0401521,42.566360 1.3835028,43.672945 1.3835028,45.065303 C 1.3835028,45.859865 1.9315034,46.566775 2.7814405,47.073705 C 2.0086893,47.310049 1.3835015,47.735427 1.3835028,48.353396 C 1.3835028,49.190712 2.3902651,49.864141 3.6098476,49.864141 C 4.7493269,49.864141 5.6142226,49.256439 5.7326418,48.495584 C 6.9175318,49.256344 8.4880751,49.739727 10.237106,49.739727 C 10.542600,49.739727 10.796847,49.642827 11.091401,49.615312 C 11.948897,50.366047 13.360316,50.877229 15.026335,50.877229 C 17.668763,50.877229 19.789676,49.639647 19.789676,48.104567 C 19.789676,47.896369 19.657364,47.713213 19.582576,47.518042 C 21.011008,47.124190 22.016021,46.421633 22.016021,45.580734 C 22.016021,44.324759 19.869220,43.305728 17.226792,43.305728 C 16.896489,43.305728 16.606363,43.364270 16.294834,43.394596 C 15.275630,41.781112 12.960480,40.639707 10.237106,40.639707 z "
       id="path12221" />
    <path
       style="opacity:1.0000000;color:#000000;fill:#ffffff;fill-opacity:0.34999999;fill-rule:evenodd;stroke:none;stroke-width:0.0000000;stroke-linecap:round;stroke-linejoin:round;marker:none;marker-start:none;marker-mid:none;marker-end:none;stroke-miterlimit:4.0000000;stroke-dasharray:none;stroke-dashoffset:0.0000000;stroke-opacity:1.0000000;visibility:visible;display:inline;overflow:visible"
       d="M 12.625712,6.5755831 C 9.9098730,6.5755831 7.5782396,7.7530425 5.9879871,9.4869813 C 3.2107652,9.8291593 1.0435597,11.697871 1.0435597,14.049171 C 1.0435597,15.390965 1.7604464,16.584736 2.8723214,17.440800 C 1.8614191,17.839916 1.0435580,18.558261 1.0435597,19.601838 C 1.0435597,21.015830 2.3605921,22.153063 3.9560322,22.153063 C 5.4466827,22.153063 6.5781246,21.126825 6.7330403,19.841955 C 8.2830948,21.126663 10.337656,21.942961 12.625712,21.942961 C 13.025355,21.942961 13.357958,21.779325 13.743290,21.732858 C 14.865052,23.000642 16.711450,23.863883 18.890911,23.863883 C 22.347696,23.863883 25.122244,21.773955 25.122244,19.181635 C 25.122244,18.830047 24.949156,18.520748 24.851318,18.191159 C 26.719971,17.526055 28.034715,16.339634 28.034715,14.919589 C 28.034715,12.798602 25.226303,11.077746 21.769516,11.077746 C 21.337418,11.077746 20.957881,11.176605 20.550343,11.227817 C 19.217035,8.5030969 16.188390,6.5755831 12.625712,6.5755831 z "
       id="path12227" />
    <g
       id="g12198"
       transform="matrix(1.100323,0.000000,0.000000,1.100323,-3.148688,-2.379088)">
      <path
         sodipodi:nodetypes="ccccc"
         id="rect10682"
         d="M 24.802767,27.453929 L 36.008914,27.453929 L 34.727030,34.481514 L 24.802767,34.481514 L 24.802767,27.453929 z "
         style="color:#000000;fill:#cccccc;fill-opacity:1.0000000;fill-rule:evenodd;stroke:#7f7f7f;stroke-width:0.90882444;stroke-linecap:round;stroke-linejoin:round;marker:none;marker-start:none;marker-mid:none;marker-end:none;stroke-miterlimit:4.0000000;stroke-dasharray:none;stroke-dashoffset:0.0000000;stroke-opacity:1.0000000;visibility:visible;display:inline;overflow:visible" />
      <path
         id="path9942"
         d="M 48.117251,23.702544 C 48.117251,27.712825 40.076178,30.967546 30.168420,30.967546 C 20.260668,30.967546 12.219592,27.712825 12.219592,23.702544 C 12.219592,19.692263 20.260668,16.437541 30.168420,16.437541 C 40.076178,16.437541 48.117251,19.692263 48.117251,23.702544 z "
         style="color:#000000;fill:#ff964b;fill-opacity:1.0000000;fill-rule:evenodd;stroke:none;stroke-width:2.5000000;stroke-linecap:round;stroke-linejoin:round;marker:none;marker-start:none;marker-mid:none;marker-end:none;stroke-miterlimit:4.0000000;stroke-dashoffset:0.0000000;stroke-opacity:1.0000000;visibility:visible;display:inline;overflow:visible" />
      <path
         id="path10685"
         d="M 48.117251,23.702543 C 48.117251,25.959074 40.076178,27.790462 30.168420,27.790462 C 20.260668,27.790462 12.219592,25.959074 12.219592,23.702543 C 12.219592,21.446013 20.260668,19.614626 30.168420,19.614626 C 40.076178,19.614626 48.117251,21.446013 48.117251,23.702543 z "
         style="color:#000000;fill:none;fill-opacity:1.0000000;fill-rule:evenodd;stroke:#e68845;stroke-width:0.58250391;stroke-linecap:round;stroke-linejoin:round;marker:none;marker-start:none;marker-mid:none;marker-end:none;stroke-miterlimit:4.0000000;stroke-dasharray:none;stroke-dashoffset:0.0000000;stroke-opacity:1.0000000;visibility:visible;display:inline;overflow:visible" />
      <path
         id="path11417"
         d="M 48.117251,23.702544 C 48.117251,24.410883 40.076178,24.985767 30.168420,24.985767 C 20.260668,24.985767 12.219592,24.410883 12.219592,23.702544 C 12.219592,22.994204 20.260668,22.419320 30.168420,22.419320 C 40.076178,22.419320 48.117251,22.994204 48.117251,23.702544 z "
         style="color:#000000;fill:none;fill-opacity:1.0000000;fill-rule:evenodd;stroke:#e68845;stroke-width:0.58250415;stroke-linecap:round;stroke-linejoin:round;marker:none;marker-start:none;marker-mid:none;marker-end:none;stroke-miterlimit:4.0000000;stroke-dasharray:none;stroke-dashoffset:0.0000000;stroke-opacity:1.0000000;visibility:visible;display:inline;overflow:visible" />
      <path
         id="path11413"
         d="M 48.117251,23.702544 C 48.117251,27.712825 40.076178,30.967546 30.168420,30.967546 C 20.260668,30.967546 12.219592,27.712825 12.219592,23.702544 C 12.219592,19.692263 20.260668,16.437541 30.168420,16.437541 C 40.076178,16.437541 48.117251,19.692263 48.117251,23.702544 z "
         style="color:#000000;fill:none;fill-opacity:1.0000000;fill-rule:evenodd;stroke:#b36f3f;stroke-width:1.1360306;stroke-linecap:round;stroke-linejoin:round;marker:none;marker-start:none;marker-mid:none;marker-end:none;stroke-miterlimit:4.0000000;stroke-dasharray:none;stroke-dashoffset:0.0000000;stroke-opacity:1.0000000;visibility:visible;display:inline;overflow:visible" />
      <path
         sodipodi:nodetypes="cccc"
         id="rect9945"
         d="M 12.897658,15.796599 L 19.735307,19.310742 L 12.897658,21.874510 L 12.897658,15.796599 z "
         style="color:#000000;fill:#c09438;fill-opacity:1.0000000;fill-rule:evenodd;stroke:#b36f3f;stroke-width:0.90882444;stroke-linecap:round;stroke-linejoin:round;marker:none;marker-start:none;marker-mid:none;marker-end:none;stroke-miterlimit:4.0000000;stroke-dasharray:none;stroke-dashoffset:0.0000000;stroke-opacity:1.0000000;visibility:visible;display:inline;overflow:visible" />
      <path
         sodipodi:nodetypes="cccc"
         id="path9952"
         d="M 12.897658,30.967546 L 19.735307,27.453404 L 12.897658,24.889636 L 12.897658,30.967546 z "
         style="color:#000000;fill:#c09438;fill-opacity:1.0000000;fill-rule:evenodd;stroke:#b36f3f;stroke-width:0.90882444;stroke-linecap:round;stroke-linejoin:round;marker:none;marker-start:none;marker-mid:none;marker-end:none;stroke-miterlimit:4.0000000;stroke-dasharray:none;stroke-dashoffset:0.0000000;stroke-opacity:1.0000000;visibility:visible;display:inline;overflow:visible" />
      <path
         sodipodi:nodetypes="cccc"
         id="path9954"
         d="M 12.019298,26.480952 L 18.856947,23.607752 L 12.019298,23.607752 L 12.019298,26.480952 z "
         style="color:#000000;fill:#c09438;fill-opacity:1.0000000;fill-rule:evenodd;stroke:#b36f3f;stroke-width:0.90882444;stroke-linecap:round;stroke-linejoin:round;marker:none;marker-start:none;marker-mid:none;marker-end:none;stroke-miterlimit:4.0000000;stroke-dasharray:none;stroke-dashoffset:0.0000000;stroke-opacity:1.0000000;visibility:visible;display:inline;overflow:visible" />
    </g>
    <path
       style="opacity:1.0000000;color:#000000;fill:#ffffff;fill-opacity:0.29999998;fill-rule:evenodd;stroke:none;stroke-width:0.0000000;stroke-linecap:round;stroke-linejoin:round;marker:none;marker-start:none;marker-mid:none;marker-end:none;stroke-miterlimit:4.0000000;stroke-dasharray:none;stroke-dashoffset:0.0000000;stroke-opacity:1.0000000;visibility:visible;display:inline;overflow:visible"
       d="M 44.850301,36.097824 C 43.231268,36.097824 41.841277,36.641587 40.893257,37.442337 C 39.237630,37.600358 37.945662,38.463349 37.945662,39.549203 C 37.945662,40.168857 38.373030,40.720153 39.035869,41.115492 C 38.433225,41.299808 37.945661,41.631547 37.945662,42.113481 C 37.945662,42.766477 38.730804,43.291663 39.681917,43.291663 C 40.570561,43.291663 41.245064,42.817736 41.337416,42.224369 C 42.261472,42.817661 43.486289,43.194636 44.850301,43.194636 C 45.088546,43.194636 45.286826,43.119067 45.516539,43.097608 C 46.185272,43.683084 47.285992,44.081737 48.585267,44.081737 C 50.646011,44.081737 52.300043,43.116587 52.300043,41.919427 C 52.300043,41.757061 52.196858,41.614223 52.138532,41.462015 C 53.252520,41.154863 54.036298,40.606962 54.036298,39.951171 C 54.036298,38.971677 52.362077,38.176968 50.301332,38.176968 C 50.043739,38.176968 49.817480,38.222623 49.574529,38.246273 C 48.779684,36.987970 46.974173,36.097824 44.850301,36.097824 z "
       id="path12225" />
  </g>
</svg>
