<?xml version="1.0" encoding="UTF-8" standalone="no"?>
<!-- Created with Inkscape (http://www.inkscape.org/) -->
<svg
   xmlns:dc="http://purl.org/dc/elements/1.1/"
   xmlns:cc="http://web.resource.org/cc/"
   xmlns:rdf="http://www.w3.org/1999/02/22-rdf-syntax-ns#"
   xmlns:svg="http://www.w3.org/2000/svg"
   xmlns="http://www.w3.org/2000/svg"
   xmlns:xlink="http://www.w3.org/1999/xlink"
   xmlns:sodipodi="http://sodipodi.sourceforge.net/DTD/sodipodi-0.dtd"
   xmlns:inkscape="http://www.inkscape.org/namespaces/inkscape"
   width="40"
   height="40"
   id="svg2"
   sodipodi:version="0.32"
   inkscape:version="0.44"
   version="1.0"
   sodipodi:docbase="/home/johann/Developpement/kdeedu-kalzium/kalzium/files"
   sodipodi:docname="12.svg">
  <defs
     id="defs4">
    <linearGradient
       id="linearGradient3291">
      <stop
         style="stop-color:#000000;stop-opacity:1"
         offset="0"
         id="stop3293" />
      <stop
         style="stop-color:#000000;stop-opacity:0"
         offset="1"
         id="stop3295" />
    </linearGradient>
    <radialGradient
       cx="63.912209"
       cy="115.70919"
       r="63.912209"
       fx="75.857941"
       fy="115.70919"
       id="radialGradient2595"
       xlink:href="#linearGradient3291"
       gradientUnits="userSpaceOnUse"
       gradientTransform="matrix(0.20203,0,0,3.954127e-2,-8.524114,-147.7744)" />
    <linearGradient
       id="linearGradient30402">
      <stop
         style="stop-color:#4f4f4f;stop-opacity:1;"
         offset="0"
         id="stop30404" />
      <stop
         id="stop30410"
         offset="1"
         style="stop-color:#343434;stop-opacity:1;" />
      <stop
         style="stop-color:#4f4f4f;stop-opacity:0;"
         offset="1"
         id="stop30406" />
    </linearGradient>
    <linearGradient
       id="linearGradient29501">
      <stop
         style="stop-color:black;stop-opacity:1;"
         offset="0"
         id="stop29503" />
      <stop
         id="stop29511"
         offset="0"
         style="stop-color:#4e4e4e;stop-opacity:1;" />
      <stop
         style="stop-color:black;stop-opacity:1;"
         offset="1"
         id="stop29515" />
      <stop
         style="stop-color:black;stop-opacity:0;"
         offset="1"
         id="stop29505" />
    </linearGradient>
    <linearGradient
       id="linearGradient27721">
      <stop
         style="stop-color:black;stop-opacity:1;"
         offset="0"
         id="stop27723" />
      <stop
         id="stop27729"
         offset="1"
         style="stop-color:#8b8b8b;stop-opacity:1;" />
      <stop
         style="stop-color:#1b1b1b;stop-opacity:0;"
         offset="1"
         id="stop27725" />
    </linearGradient>
    <linearGradient
       inkscape:collect="always"
       id="linearGradient26813">
      <stop
         style="stop-color:white;stop-opacity:1;"
         offset="0"
         id="stop26815" />
      <stop
         style="stop-color:white;stop-opacity:0;"
         offset="1"
         id="stop26817" />
    </linearGradient>
    <linearGradient
       id="linearGradient12563">
      <stop
         style="stop-color:#010011;stop-opacity:1;"
         offset="0"
         id="stop12565" />
      <stop
         id="stop12573"
         offset="1"
         style="stop-color:#65639c;stop-opacity:0.49803922;" />
      <stop
         style="stop-color:#030060;stop-opacity:0;"
         offset="1"
         id="stop12567" />
    </linearGradient>
    <linearGradient
       inkscape:collect="always"
       id="linearGradient5431">
      <stop
         style="stop-color:#000351;stop-opacity:1;"
         offset="0"
         id="stop5433" />
      <stop
         style="stop-color:#000351;stop-opacity:0;"
         offset="1"
         id="stop5435" />
    </linearGradient>
    <linearGradient
       inkscape:collect="always"
       xlink:href="#linearGradient12563"
       id="linearGradient12569"
       x1="1"
       y1="75"
       x2="199.00002"
       y2="75"
       gradientUnits="userSpaceOnUse"
       gradientTransform="matrix(0.202372,0,0,0.202372,-0.130594,-0.130633)" />
    <linearGradient
       inkscape:collect="always"
       xlink:href="#linearGradient5431"
       id="linearGradient17905"
       gradientUnits="userSpaceOnUse"
       gradientTransform="translate(-0.137543,0.526963)"
       x1="62.685715"
       y1="72.053574"
       x2="72.135712"
       y2="72.053574" />
    <radialGradient
       inkscape:collect="always"
       xlink:href="#linearGradient26813"
       id="radialGradient26819"
       cx="161.07143"
       cy="85.89286"
       fx="161.07143"
       fy="85.89286"
       r="55.357143"
       gradientTransform="matrix(1,-2.617201e-7,6.969827e-7,0.983872,-1.775902e-5,1.385376)"
       gradientUnits="userSpaceOnUse" />
    <radialGradient
       inkscape:collect="always"
       xlink:href="#linearGradient26813"
       id="radialGradient26826"
       gradientUnits="userSpaceOnUse"
       gradientTransform="matrix(-0.913798,-0.40617,1.290395e-2,-2.903122e-2,305.3641,152.9161)"
       cx="161.07143"
       cy="85.89286"
       fx="161.07143"
       fy="85.89286"
       r="55.357143" />
    <radialGradient
       inkscape:collect="always"
       xlink:href="#linearGradient26813"
       id="radialGradient26830"
       gradientUnits="userSpaceOnUse"
       gradientTransform="matrix(-0.828137,-0.599718,-1.8634e-2,2.573126e-2,293.9184,178.6731)"
       cx="161.07143"
       cy="85.89286"
       fx="161.07143"
       fy="85.89286"
       r="55.357143" />
    <radialGradient
       inkscape:collect="always"
       xlink:href="#linearGradient26813"
       id="radialGradient26834"
       gradientUnits="userSpaceOnUse"
       gradientTransform="matrix(-1.05722e-2,-0.948105,3.176788e-2,-3.542461e-4,156.4743,240.6003)"
       cx="161.07143"
       cy="85.89286"
       fx="161.07143"
       fy="85.89286"
       r="55.357143" />
    <linearGradient
       inkscape:collect="always"
       xlink:href="#linearGradient27721"
       id="linearGradient27727"
       x1="89.394936"
       y1="78.571434"
       x2="119.89079"
       y2="78.571434"
       gradientUnits="userSpaceOnUse"
       gradientTransform="matrix(0.202372,0,0,0.202372,-0.130596,-0.130633)" />
    <linearGradient
       inkscape:collect="always"
       xlink:href="#linearGradient29501"
       id="linearGradient29509"
       x1="27.064589"
       y1="101.33405"
       x2="103.35651"
       y2="101.33405"
       gradientUnits="userSpaceOnUse"
       gradientTransform="matrix(0.202372,0,0,0.202372,-0.130596,-0.130633)" />
    <linearGradient
       inkscape:collect="always"
       xlink:href="#linearGradient30402"
       id="linearGradient30408"
       x1="49.171413"
       y1="70.328583"
       x2="86.185699"
       y2="70.328583"
       gradientUnits="userSpaceOnUse"
       gradientTransform="matrix(0.202372,0,0,0.202372,-0.130594,-0.130633)" />
  </defs>
  <sodipodi:namedview
     id="base"
     pagecolor="#ffffff"
     bordercolor="#666666"
     borderopacity="1.0"
     inkscape:pageopacity="0.0"
     inkscape:pageshadow="2"
     inkscape:zoom="22.4"
     inkscape:cx="34.954517"
     inkscape:cy="26.072172"
     inkscape:document-units="px"
     inkscape:current-layer="layer1"
     width="40px"
     height="40px"
     inkscape:window-width="1908"
     inkscape:window-height="1116"
     inkscape:window-x="6"
     inkscape:window-y="31" />
  <metadata
     id="metadata7">
    <rdf:RDF>
      <cc:Work
         rdf:about="">
        <dc:format>image/svg+xml</dc:format>
        <dc:type
           rdf:resource="http://purl.org/dc/dcmitype/StillImage" />
      </cc:Work>
    </rdf:RDF>
  </metadata>
  <g
     inkscape:label="Ebene 1"
     inkscape:groupmode="layer"
     id="layer1">
    <rect
       style="opacity:1;fill:#030221;fill-opacity:1;fill-rule:evenodd;stroke:black;stroke-width:0.13644573;stroke-linecap:square;stroke-linejoin:bevel;stroke-miterlimit:4;stroke-dasharray:none;stroke-dashoffset:0;stroke-opacity:1"
       id="rect9878"
       width="39.933212"
       height="29.814617"
       x="0.13999942"
       y="0.1399973" />
    <rect
       style="opacity:1;fill:url(#linearGradient12569);fill-opacity:1;fill-rule:evenodd;stroke:black;stroke-width:0.13565932;stroke-linecap:square;stroke-linejoin:bevel;stroke-miterlimit:4;stroke-dasharray:none;stroke-dashoffset:0;stroke-opacity:1"
       id="rect11663"
       width="39.934006"
       height="29.815401"
       x="0.139606"
       y="0.13960317" />
    <path
       style="fill:url(#linearGradient29509);fill-opacity:1;fill-rule:evenodd;stroke:none;stroke-width:1px;stroke-linecap:butt;stroke-linejoin:miter;stroke-opacity:1"
       d="M 6.518771,21.913485 C 6.6559307,21.725045 7.2400564,21.624763 7.5306315,21.552118 C 7.8702752,21.467197 8.3338622,21.552118 8.6870425,21.552118 C 9.0914536,21.552118 9.5412776,21.428892 9.91573,21.33528 C 10.323226,21.233417 10.787938,21.276493 11.216692,21.190736 C 11.674173,21.099236 12.087122,21.263016 12.517656,21.263016 C 12.859995,21.263016 13.480988,21.636265 13.746344,21.768942 C 14.21152,22.001537 14.735155,21.985765 15.264134,21.985765 C 15.721881,21.985765 16.179627,21.985765 16.637373,21.985765 C 17.03619,21.985765 17.36042,22.040054 17.721509,22.130324 C 18.074068,22.218466 18.642882,22.134867 18.950197,22.058044 C 19.217982,21.991098 19.595707,21.985765 19.962056,21.985765 C 20.449606,21.985765 20.620105,22.244601 20.75709,21.696662 C 20.851755,21.318004 20.695542,20.850808 20.540263,20.540251 C 20.335954,20.131645 20.44726,19.724497 20.178883,19.45612 C 19.930545,19.207783 20.031735,18.912755 19.672954,18.733355 C 19.642079,18.717918 18.942568,19.022458 18.733369,19.022458 C 18.37199,19.022458 18.010612,19.022458 17.649233,19.022458 C 17.287855,19.022458 16.926476,19.022458 16.565097,19.022458 C 16.203719,19.022458 15.84234,19.022458 15.480961,19.022458 C 15.125742,19.022458 14.718914,19.032289 14.469101,19.094737 C 14.15393,19.173535 13.711757,19.094737 13.384965,19.094737 C 12.998495,19.094737 12.772376,18.950194 12.373105,18.950194 C 12.092575,18.950194 11.690839,18.877914 11.361244,18.877914 C 10.999866,18.877914 10.638487,18.877914 10.277109,18.877914 C 9.91573,18.877914 9.5543508,18.877914 9.1929731,18.877914 C 8.9151597,18.877914 8.6593873,19.022458 8.2533884,19.022458 C 7.8593094,19.022458 7.7014813,18.854925 7.4583551,18.733355 C 7.0153713,18.511867 6.6583264,18.521531 6.3019437,18.877914 C 5.7748213,19.405036 5.4949678,19.877216 5.3623593,20.540251 C 5.273716,20.98347 5.5762048,21.260022 5.7960136,21.479839 C 5.9337851,21.617606 6.0231285,21.861794 6.0851167,21.985765"
       id="path14345" />
    <path
       style="fill:black;fill-opacity:1;fill-rule:evenodd;stroke:none;stroke-width:0.2;stroke-linecap:butt;stroke-linejoin:miter;stroke-miterlimit:4;stroke-dasharray:none;stroke-opacity:1"
       d="M 8.9484019,8.3955208 C 8.7437964,8.4983713 8.026081,8.9824478 7.6939768,9.1401651 C 7.5302273,9.2179297 7.4587729,9.9486713 7.4587729,10.182679 C 7.4587729,10.665176 7.2859904,10.808747 7.1451659,11.076259 C 6.8694495,11.600008 6.6408058,11.739796 6.282746,12.19324 C 5.9871451,12.567583 5.6195534,12.748669 5.2635261,13.086819 C 5.0678813,13.272646 5.0283208,13.77766 5.0283208,14.054866 C 5.0283208,14.422295 5.0283208,14.762466 5.0283208,15.171847 C 5.0283208,15.527972 4.7931155,15.890129 4.7931155,16.288829 C 4.7931155,16.671817 4.4947706,16.975491 4.4011081,17.331328 C 4.3295893,17.603048 3.9882395,18.021333 3.8522968,18.150455 C 3.620268,18.370833 3.7008531,19.023674 3.6170913,19.341889 C 3.494094,19.809175 3.3529354,20.141536 3.146681,20.533338 C 2.9999266,20.812108 3.2450587,21.353878 3.3034852,21.575852 C 3.4339815,22.071628 3.1320476,22.232141 3.4602873,22.543899 C 3.710598,22.781645 4.052817,22.889373 4.4795092,22.990688 C 4.8158845,23.070565 5.2590302,23.064305 5.6555333,23.139608 C 5.9087683,23.187729 6.339124,22.876062 6.5963543,22.692834 C 6.8347075,22.523037 7.0471307,21.985461 7.1451659,21.799239 C 7.3700759,21.372005 7.3354192,21.001962 7.4587729,20.533338 C 7.5365603,20.237808 7.541032,19.699563 7.615574,19.416356 C 7.667999,19.217189 7.925929,18.981919 8.0075834,18.671712 C 8.0958702,18.336297 8.0782645,17.972195 8.0075834,17.703665 C 7.9230178,17.382381 8.7149439,17.628362 9.0268032,17.480263 C 9.3628428,17.320676 9.3404114,16.95349 9.3404114,16.586683 C 9.3404114,16.17949 9.4188127,15.975719 9.4188127,15.544169 C 9.4188127,15.137645 9.3570644,14.788327 9.2620086,14.427188 C 9.1765389,14.10247 9.2620086,13.646913 9.2620086,13.310221 C 9.2620086,12.942761 9.171347,12.686615 9.2620086,12.342175 C 9.371891,11.924711 9.497214,11.708905 9.497214,11.225194 C 9.497214,10.798871 9.5756153,10.608349 9.5756153,10.182679 C 9.5756153,9.9396914 9.3281891,9.4660534 9.2620086,9.2146326 C 9.1847332,8.9210475 9.0958038,8.7455224 8.9484019,8.3955208 z "
       id="path8983" />
    <path
       style="fill:url(#linearGradient27727);fill-opacity:1;fill-rule:evenodd;stroke:none;stroke-width:1px;stroke-linecap:butt;stroke-linejoin:miter;stroke-opacity:1"
       d="M 18.681837,8.612344 C 18.884159,8.7136903 19.593864,9.1906559 19.922259,9.3460484 C 20.084182,9.4226735 20.154839,10.142657 20.154839,10.373232 C 20.154839,10.848647 20.32569,10.990107 20.464942,11.253683 C 20.737583,11.769728 20.963674,11.907465 21.317738,12.35424 C 21.610039,12.723082 21.973531,12.901494 22.325582,13.234675 C 22.519045,13.417767 22.558162,13.915366 22.558162,14.1885 C 22.558162,14.55052 22.558162,14.885692 22.558162,15.289056 C 22.558162,15.639954 22.790738,15.996778 22.790738,16.389613 C 22.790738,16.766979 23.085752,17.066186 23.178374,17.416796 C 23.249093,17.684505 23.58663,18.096651 23.721059,18.223874 C 23.950497,18.441016 23.870812,19.084253 23.953639,19.397804 C 24.075262,19.858208 24.214843,20.185691 24.418796,20.571719 C 24.563915,20.846402 24.321517,21.38021 24.263746,21.598917 C 24.134705,22.0874 24.433267,22.245558 24.108691,22.552727 C 23.861175,22.786978 23.522776,22.893126 23.100844,22.992952 C 22.768224,23.071644 22.330025,23.065475 21.93795,23.139684 C 21.687543,23.18709 21.26199,22.880013 21.007634,22.699474 C 20.771939,22.532169 20.561886,22.002509 20.464942,21.819022 C 20.242547,21.398063 20.276815,21.033475 20.154839,20.571719 C 20.077919,20.280534 20.073498,19.750206 19.999789,19.471162 C 19.94795,19.274927 19.692896,19.043122 19.612153,18.737458 C 19.524853,18.406981 19.542263,18.048227 19.612153,17.783648 C 19.695776,17.467089 18.912688,17.709454 18.604311,17.563543 C 18.272022,17.406297 18.294202,17.044504 18.294202,16.683091 C 18.294202,16.281885 18.216678,16.081107 18.216678,15.655908 C 18.216678,15.255355 18.277736,14.911173 18.371731,14.555352 C 18.456247,14.235405 18.371731,13.786534 18.371731,13.454796 C 18.371731,13.092745 18.461381,12.840352 18.371731,12.500971 C 18.263077,12.08966 18.139152,11.877016 18.139152,11.400415 C 18.139152,10.980367 18.061626,10.792641 18.061626,10.373232 C 18.061626,10.133814 18.306289,9.6671505 18.371731,9.4194219 C 18.448144,9.130152 18.53608,8.9571948 18.681837,8.612344 z "
       id="path9870" />
    <rect
       style="opacity:1;fill:#262524;fill-opacity:1;fill-rule:evenodd;stroke:black;stroke-width:0.3540709;stroke-linecap:square;stroke-linejoin:bevel;stroke-miterlimit:4;stroke-dasharray:none;stroke-dashoffset:0;stroke-opacity:1"
       id="rect2764"
       width="9.5216846"
       height="8.9434776"
       x="8.8048077"
       y="8.5099144" />
    <rect
       style="opacity:1;fill:#323232;fill-opacity:1;fill-rule:evenodd;stroke:black;stroke-width:0.32317901;stroke-linecap:square;stroke-linejoin:bevel;stroke-miterlimit:4;stroke-dasharray:none;stroke-dashoffset:0;stroke-opacity:1"
       id="rect2766"
       width="8.8298187"
       height="8.0347862"
       x="9.1507425"
       y="9.3617916" />
    <rect
       style="opacity:1;fill:#303030;fill-opacity:1;fill-rule:evenodd;stroke:black;stroke-width:0.29911509;stroke-linecap:square;stroke-linejoin:bevel;stroke-miterlimit:4;stroke-dasharray:none;stroke-dashoffset:0;stroke-opacity:1"
       id="rect2760"
       width="8.2034006"
       height="7.4083686"
       x="9.4639502"
       y="9.9640846" />
    <rect
       style="opacity:1;fill:url(#linearGradient30408);fill-opacity:1;fill-rule:evenodd;stroke:black;stroke-width:0.26308364;stroke-linecap:square;stroke-linejoin:bevel;stroke-miterlimit:4;stroke-dasharray:none;stroke-dashoffset:0;stroke-opacity:1"
       id="rect1872"
       width="7.2275724"
       height="6.5048156"
       x="9.9518652"
       y="10.849533" />
    <rect
       style="opacity:1;fill:#321a00;fill-opacity:1;fill-rule:evenodd;stroke:black;stroke-width:0.14166041;stroke-linecap:square;stroke-linejoin:bevel;stroke-miterlimit:4;stroke-dasharray:none;stroke-dashoffset:0;stroke-opacity:1"
       id="rect2770"
       width="11.780944"
       height="1.7346175"
       x="7.6390452"
       y="17.49889" />
    <path
       sodipodi:type="arc"
       style="opacity:1;fill:black;fill-opacity:1;fill-rule:evenodd;stroke:black;stroke-width:0.69999999;stroke-linecap:square;stroke-linejoin:bevel;stroke-miterlimit:4;stroke-dasharray:none;stroke-dashoffset:0;stroke-opacity:1"
       id="path3657"
       sodipodi:cx="115.53571"
       sodipodi:cy="79.64286"
       sodipodi:rx="6.25"
       sodipodi:ry="6.0714288"
       d="M 121.78571 79.64286 A 6.25 6.0714288 0 1 1  109.28571,79.64286 A 6.25 6.0714288 0 1 1  121.78571 79.64286 z"
       transform="matrix(0.202372,0,0,0.202372,-9.707125,-1.907156)" />
    <path
       sodipodi:type="arc"
       style="opacity:1;fill:url(#linearGradient17905);fill-opacity:1;fill-rule:evenodd;stroke:black;stroke-width:0.69999999;stroke-linecap:square;stroke-linejoin:bevel;stroke-miterlimit:4;stroke-dasharray:none;stroke-dashoffset:0;stroke-opacity:1"
       id="path4544"
       sodipodi:cx="67.410713"
       sodipodi:cy="72.053574"
       sodipodi:rx="4.375"
       sodipodi:ry="3.8392856"
       d="M 71.785713 72.053574 A 4.375 3.8392856 0 1 1  63.035713,72.053574 A 4.375 3.8392856 0 1 1  71.785713 72.053574 z"
       transform="matrix(0.262741,0,0,0.285283,-4.055508,-6.381434)" />
    <path
       style="fill:#7a7a7a;fill-opacity:1;fill-rule:evenodd;stroke:#9d9d9d;stroke-width:0.20237203px;stroke-linecap:butt;stroke-linejoin:miter;stroke-opacity:1"
       d="M 32.104377,17.215577 C 32.176655,29.936098 32.176655,29.936098 32.176655,29.936098"
       id="path17907" />
    <rect
       style="opacity:1;fill:#7a7a7a;fill-opacity:1;fill-rule:evenodd;stroke:#9d9d9d;stroke-width:0.09484722;stroke-linecap:square;stroke-linejoin:bevel;stroke-miterlimit:4;stroke-dasharray:none;stroke-dashoffset:0;stroke-opacity:1"
       id="rect17911"
       width="8.9789209"
       height="1.0531557"
       x="33.800858"
       y="14.227289"
       transform="matrix(0.992927,0.118725,-0.400113,0.916466,0,0)" />
    <rect
       style="opacity:1;fill:#7a7a7a;fill-opacity:1;fill-rule:evenodd;stroke:#9d9d9d;stroke-width:0.11732053;stroke-linecap:square;stroke-linejoin:bevel;stroke-miterlimit:4;stroke-dasharray:none;stroke-dashoffset:0;stroke-opacity:1"
       id="rect17913"
       width="8.9612541"
       height="1.6145319"
       x="28.427742"
       y="12.060919"
       transform="matrix(0.992925,0.118745,-2.526241e-2,0.999681,0,0)" />
    <path
       style="fill:white;fill-opacity:1;fill-rule:nonzero;stroke:none;stroke-width:1px;stroke-linecap:butt;stroke-linejoin:miter;stroke-opacity:1"
       id="path20572"
       d="M 29.727828,17.73454 C 29.756305,17.712098 29.80762,17.694412 29.847359,17.67706 C 30.113094,17.591166 29.382778,17.957593 29.665458,17.762467 C 29.726041,17.718829 29.779452,17.667502 29.834368,17.61809 C 29.874683,17.591713 29.902496,17.555262 29.933647,17.521075 C 30.178108,17.377731 30.410371,17.20877 30.247446,17.483499 C 30.187625,17.594099 30.13244,17.637327 30.25407,17.703483 C 30.661118,17.800012 31.087883,17.736576 31.493892,17.66694 C 31.934314,17.545644 31.88202,17.538746 31.60933,17.642158 C 31.544011,17.594798 31.46651,17.608624 31.387688,17.613532 C 31.262008,17.662838 31.232746,17.65828 31.1326,17.574923 C 30.884178,17.355183 30.558679,17.274045 30.22958,17.215759 C 29.922635,17.141201 29.421659,17.350746 30.022943,17.096241 C 30.264219,17.289528 30.611874,17.338423 30.917443,17.404762 C 31.15542,17.444738 31.411162,17.522397 31.646624,17.459644 C 31.281958,17.73024 31.374845,17.588735 31.090321,17.646686 C 31.062259,17.61768 31.369618,17.421536 31.291101,17.620719 C 31.449944,17.698058 31.623122,17.727064 31.799026,17.735391 C 31.565723,17.947124 31.549034,17.868919 31.276678,17.740359 C 31.049528,17.611861 30.591632,17.894673 31.140238,17.627541 C 31.046162,17.849485 31.462835,17.86708 31.627253,17.883612 C 32.002084,17.889477 32.38124,17.849014 32.740593,17.748883 C 32.965317,17.717066 32.562018,17.875346 32.412737,17.810329 C 32.193841,17.759899 31.996981,17.925092 32.554301,17.638527 C 32.541881,17.752591 32.714331,17.819081 32.823788,17.870757 C 33.118717,17.987647 33.246841,17.870241 32.766435,18.072052 C 32.596798,17.877731 32.337357,17.801942 32.082592,17.742654 C 31.796029,17.659054 31.345603,17.919713 31.963668,17.604568 C 31.998116,17.670435 32.118901,17.671225 32.203634,17.677789 C 32.405083,17.585331 32.171423,17.892546 31.817966,17.639363 C 31.530354,17.489911 31.195462,17.427234 30.867524,17.418406 C 30.488204,17.369724 31.173056,17.310056 31.361773,17.363524 C 31.561159,17.418361 31.763027,17.448719 31.968463,17.42608 C 32.098553,17.413392 32.207821,17.510363 32.328706,17.558757 C 32.672637,17.674978 33.040223,17.756298 33.40806,17.724831 C 33.436665,17.717568 33.518959,17.68844 33.493879,17.703027 C 33.116698,17.922448 33.246812,17.840323 32.934205,17.775428 C 32.690948,17.720029 32.337186,17.958155 32.951296,17.639742 C 33.035797,17.758441 33.215827,17.80024 33.364582,17.841736 C 33.7813,17.796396 33.321054,18.097031 33.162225,17.950619 C 33.021313,17.866579 32.861875,17.837071 32.698465,17.825767 C 32.90724,17.603291 33.039224,17.677987 33.362783,17.721427 C 33.844805,17.677212 33.308335,17.879342 33.067532,17.743991 C 32.76688,17.607454 32.436396,17.52466 32.102555,17.497751 C 31.775793,17.540903 32.035964,17.470204 32.294405,17.331161 C 32.360556,17.41476 32.082036,17.39911 31.976539,17.434847 C 31.920349,17.359741 31.895157,17.375422 31.816802,17.397605 C 32.228721,17.13333 32.15252,17.327164 32.56594,17.491719 C 32.927705,17.611177 33.308451,17.684551 33.68639,17.594144 C 33.96457,17.523339 33.44427,17.670602 33.385132,17.691342 C 33.293483,17.687908 33.557832,17.634424 33.643743,17.604856 C 33.684318,17.660726 33.734024,17.71342 33.776119,17.766159 C 33.732046,17.818109 33.774472,17.867597 33.774899,17.895418 C 34.009677,17.986994 34.248914,17.785335 33.670807,18.087261 C 33.604131,18.080941 33.504537,18.113608 33.430537,18.137783 C 33.258586,18.123302 33.782956,17.873264 33.622203,18.095679 C 33.724677,18.094767 34.327455,17.770231 33.429161,18.20637 C 33.439661,18.189367 33.454186,18.174766 33.466698,18.158979 C 33.8255,17.868721 33.838407,18.020102 34.201203,17.969399 C 34.233388,17.960206 34.326382,17.925472 34.297754,17.941821 C 33.920676,18.157231 34.109012,17.932431 33.80199,17.71421 C 33.497171,17.553925 33.145364,17.451272 32.792592,17.497691 C 32.770217,17.50468 32.74784,17.511669 32.725467,17.518674 C 32.831537,17.465266 32.936364,17.40973 33.043682,17.358465 C 33.179859,17.293433 32.796451,17.526423 32.664888,17.599067 C 32.44194,17.451165 32.164423,17.405567 31.898616,17.364132 C 31.383112,17.447321 31.751477,17.118516 32.034288,17.21892 C 32.317015,17.29986 32.614849,17.370134 32.913167,17.355471 C 32.549856,17.592032 32.527111,17.35067 32.135133,17.20254 C 31.932857,17.136293 31.724311,17.083326 31.517023,17.138344 C 31.905799,16.894612 31.816815,16.983104 32.158871,17.097472 C 32.45986,17.196767 32.650046,17.039277 32.079728,17.321558 C 31.975684,17.27207 31.885134,17.289118 31.781197,17.307457 C 32.191349,17.057556 32.057458,17.168216 32.414201,17.309189 C 32.628581,17.385359 32.848358,17.439815 33.076781,17.425472 C 33.096626,17.410429 33.122296,17.418877 33.144074,17.415732 L 32.804498,17.644118 C 32.784993,17.646565 32.765838,17.650941 32.746043,17.651412 C 32.520686,17.638041 32.304998,17.578084 32.092735,17.50702 C 31.712253,17.372276 31.560261,17.298174 32.108816,17.073176 C 32.219109,17.069058 32.323637,17.064713 32.427727,17.113881 C 32.282014,17.232245 32.132086,17.446197 31.830462,17.301228 C 31.47813,17.18335 31.279416,17.143009 31.843254,16.904549 C 32.052702,16.885055 32.25358,16.940013 32.44963,17.009162 C 32.857153,17.163597 33.30748,17.323305 32.589644,17.572128 C 32.289416,17.562616 31.994982,17.489638 31.704835,17.423724 C 31.234546,17.282736 32.007166,17.05318 32.213241,17.161835 C 32.485966,17.211763 32.758849,17.268377 33.011416,17.378369 C 32.295072,17.810117 32.796163,17.377473 33.11264,17.279469 C 33.466985,17.26385 33.81362,17.373188 34.121137,17.528489 C 34.533906,17.803507 34.496603,18.065078 33.88361,18.187483 C 33.612968,18.214939 33.07421,18.182363 33.799813,17.920883 C 33.831796,17.977148 33.867657,17.986128 33.811347,18.05941 C 33.62937,18.166333 33.452768,18.391665 33.254252,18.278695 C 33.288862,18.067889 33.512111,18.001824 33.7507,17.906373 C 33.871486,17.877078 33.976906,17.834473 34.056406,17.935987 C 33.753935,18.107105 33.706968,18.212995 33.426003,18.099098 C 33.365905,18.034157 33.355135,18.02223 33.40718,17.946911 C 33.366466,17.901191 33.31138,17.838697 33.274988,17.782159 C 33.289947,17.586456 33.499994,17.46364 33.727597,17.474185 C 33.972753,17.645942 33.609198,17.706187 33.371067,17.814644 C 32.991424,17.877336 32.617125,17.791686 32.25623,17.682165 C 31.841062,17.532896 31.516848,17.422311 32.142563,17.159373 C 32.231935,17.164251 32.289536,17.161075 32.339097,17.249081 C 32.386636,17.442733 32.181117,17.579892 31.942487,17.541131 C 32.083358,17.429969 32.252512,17.226335 32.425982,17.287082 C 32.758455,17.335065 33.085981,17.423892 33.393553,17.549215 C 33.809648,17.757575 33.332239,17.976388 33.039763,17.93038 C 32.669381,17.874601 32.427849,17.847252 33.030754,17.605905 C 33.197239,17.630246 33.361263,17.667123 33.506068,17.751694 C 33.736088,17.982861 33.258133,18.132708 33.035335,18.047741 C 32.86164,17.993983 32.649268,17.948279 32.567283,17.787796 C 32.85137,17.624654 32.956607,17.50041 33.26321,17.566278 C 33.71525,17.671787 33.52879,17.798523 33.091384,17.938995 C 32.721632,17.945756 32.356736,17.857538 32.006019,17.757423 C 31.886509,17.716079 31.769303,17.634303 31.639922,17.652642 C 31.435987,17.655134 31.237342,17.617224 31.040798,17.565503 C 30.567191,17.445923 30.7945,17.289953 31.185897,17.208269 C 31.518075,17.235588 31.855285,17.302261 32.152382,17.444921 C 32.479684,17.665147 32.220109,17.807731 31.872198,17.897879 C 31.752444,17.879783 31.613432,17.87252 31.580488,17.75177 C 31.915406,17.560291 32.031707,17.452609 32.401327,17.541207 C 32.663398,17.609886 32.946613,17.691312 33.128345,17.889279 C 32.945155,18.025436 32.789062,18.249127 32.491243,18.071155 C 32.35045,18.001824 32.182026,17.932553 32.167536,17.783329 C 32.461143,17.622861 32.49359,17.526408 32.755521,17.600374 C 33.069337,17.764534 32.67761,17.867262 32.426641,17.970827 C 32.066888,18.053044 31.692734,18.086988 31.32257,18.082642 C 31.099069,18.060793 30.693611,18.041921 30.76673,17.765825 C 31.065058,17.594722 31.274882,17.386042 31.611761,17.538335 C 31.960658,17.708223 31.924971,17.768059 31.468189,17.95621 C 31.287287,17.932629 31.105648,17.896831 30.940921,17.819871 C 30.806968,17.593886 31.18841,17.520862 31.413365,17.419151 C 31.690996,17.396268 31.891709,17.494819 31.319435,17.695536 C 31.080849,17.706506 30.847934,17.642371 30.615922,17.596636 C 30.286951,17.525906 29.908592,17.480977 29.653362,17.268484 C 29.967115,17.050111 30.117309,16.924818 30.537685,17.018415 C 30.874914,17.084632 31.206911,17.169918 31.477514,17.376987 C 31.573749,17.431489 31.607213,17.418057 31.718358,17.388306 C 31.821169,17.387911 31.915622,17.381408 31.979734,17.466831 C 31.933639,17.734069 31.451447,17.80922 31.197978,17.871927 C 30.777158,17.934239 30.338718,17.99608 29.917133,17.908697 C 29.757069,17.837254 29.802804,17.761935 29.875177,17.637205 C 29.940505,17.519266 30.29946,17.135913 30.31596,17.363555 C 30.287736,17.403106 30.265887,17.446865 30.219192,17.472863 C 30.161721,17.521546 30.107665,17.572477 30.050497,17.621479 C 29.890688,17.741666 29.709715,17.835202 29.522444,17.915778 C 29.47824,17.934847 29.433687,17.962865 29.385138,17.963534 L 29.727828,17.73454 z " />
    <path
       style="fill:none;fill-opacity:0.75;fill-rule:evenodd;stroke:#686868;stroke-width:0.08094881;stroke-linecap:butt;stroke-linejoin:miter;stroke-miterlimit:4;stroke-dasharray:none;stroke-opacity:1"
       d="M 29.972244,17.576944 C 29.65178,17.622679 29.33262,17.540812 29.032659,17.540812 C 28.843891,17.540812 28.598016,17.468289 28.454454,17.4324 C 28.211518,17.371669 27.881463,17.4324 27.623282,17.4324 C 27.481682,17.4324 27.399208,17.735999 27.370318,17.793783 C 27.289019,17.956377 27.302604,18.100769 27.261903,18.263577 C 27.223139,18.41862 27.225765,18.593613 27.225765,18.769503 C 27.225765,18.994227 27.293778,19.077674 27.334181,19.239296 C 27.37754,19.41274 27.438258,19.619474 27.478733,19.781355 C 27.552375,20.075942 27.50889,20.202785 27.442594,20.467972 C 27.436751,20.491356 27.442594,20.516168 27.442594,20.540251 C 27.442594,20.722097 27.204288,21.052999 27.117353,21.226868 C 27.008885,21.443813 26.921004,21.578617 26.864389,21.805074 C 26.790183,22.101895 26.347784,22.561919 26.177769,22.816941 C 25.711377,23.516519 24.726517,24.232978 23.973358,24.51541 C 23.645887,24.638226 23.33496,24.850278 22.997635,24.985204 C 22.750761,25.083967 22.423936,25.085715 22.166467,25.021351 C 21.579236,24.874544 20.831709,24.228268 20.395711,23.86494 C 19.920833,23.469204 19.618728,22.979536 19.203161,22.56397 C 18.947617,22.308432 18.946874,21.979125 18.805645,21.696662 C 18.671166,21.427707 18.699642,20.891985 18.769507,20.612531 C 18.81506,20.43032 18.805645,20.250267 18.805645,20.034325 C 18.805645,19.851325 18.769507,19.734981 18.769507,19.528399 C 18.769507,19.512992 18.706109,19.401602 18.697231,19.38384"
       id="path21459" />
    <path
       style="fill:none;fill-opacity:0.75;fill-rule:evenodd;stroke:#6b6b6b;stroke-width:0.10118601;stroke-linecap:butt;stroke-linejoin:miter;stroke-miterlimit:4;stroke-dasharray:none;stroke-opacity:1"
       d="M 30.984105,18.010606 C 30.8571,18.030966 30.711827,18.200945 30.586588,18.263577 C 30.457863,18.32794 30.514311,18.627268 30.514311,18.769503 C 30.514311,18.969886 30.455313,19.11171 30.514311,19.347708 C 30.570845,19.57383 30.470404,19.77865 30.514311,19.998193 C 30.554627,20.199761 30.549289,20.361885 30.478173,20.504119 C 30.394282,20.671895 30.405898,21.028172 30.405898,21.226868 C 30.405898,21.46779 30.405898,21.708711 30.405898,21.949633 C 30.405898,22.23521 30.324542,22.383477 30.261347,22.63625 C 30.206204,22.856826 29.845096,23.197058 29.683141,23.359014 C 29.526755,23.515395 29.252806,23.682593 29.104934,23.756529 C 28.900379,23.858802 28.663563,23.981071 28.490591,24.154043 C 28.265617,24.379011 27.949452,24.442219 27.731697,24.659969 C 27.591959,24.799712 27.386093,24.886973 27.18963,24.985204 C 26.935393,25.112335 26.71281,25.271298 26.466871,25.418866 C 26.235876,25.557453 26.018435,25.657463 25.816391,25.707969 C 25.445123,25.800791 25.126162,25.81638 24.732252,25.81638 C 24.358665,25.81638 23.993381,25.852528 23.611981,25.852528 C 23.159134,25.852528 22.743732,25.816061 22.311018,25.671836 C 21.88085,25.528447 21.385165,25.472198 20.937776,25.382734 C 20.62683,25.320543 20.18548,25.08181 19.853643,24.949072 C 19.571613,24.836254 19.311468,24.668919 19.05861,24.479278 C 18.876746,24.342878 18.754419,23.979308 18.661094,23.792661 C 18.528545,23.527565 18.465418,23.220624 18.335853,22.961485 C 18.238647,22.767073 18.244769,22.452611 18.191302,22.238736 C 18.125407,21.975159 18.221236,21.67185 18.155163,21.407559 C 18.105539,21.209061 18.12303,20.993939 18.082887,20.793222 C 18.040612,20.581838 18.033001,20.378416 18.082887,20.178869 C 18.138374,19.95694 18.155163,19.767133 18.155163,19.528399 C 18.155163,19.492252 18.155163,19.45612 18.155163,19.419988"
       id="path22346" />
    <path
       sodipodi:type="arc"
       style="opacity:1;fill:url(#radialGradient26819);fill-opacity:1;fill-rule:evenodd;stroke:none;stroke-width:0.5;stroke-linecap:square;stroke-linejoin:bevel;stroke-miterlimit:4;stroke-dasharray:none;stroke-dashoffset:0;stroke-opacity:1"
       id="path25926"
       sodipodi:cx="161.07143"
       sodipodi:cy="85.89286"
       sodipodi:rx="55.357143"
       sodipodi:ry="54.464287"
       d="M 216.42857 85.89286 A 55.357143 54.464287 0 1 1  105.71428,85.89286 A 55.357143 54.464287 0 1 1  216.42857 85.89286 z"
       transform="matrix(0.200442,0,0,0.200442,8.609358e-2,1.447282e-2)" />
    <path
       sodipodi:type="arc"
       style="opacity:1;fill:url(#radialGradient26826);fill-opacity:1;fill-rule:evenodd;stroke:none;stroke-width:0.5;stroke-linecap:square;stroke-linejoin:bevel;stroke-miterlimit:4;stroke-dasharray:none;stroke-dashoffset:0;stroke-opacity:1"
       id="path26821"
       sodipodi:cx="161.07143"
       sodipodi:cy="85.89286"
       sodipodi:rx="55.357143"
       sodipodi:ry="54.464287"
       d="M 216.42857 85.89286 A 55.357143 54.464287 0 1 1  105.71428,85.89286 A 55.357143 54.464287 0 1 1  216.42857 85.89286 z"
       transform="matrix(0.200442,0,0,0.200442,0.444029,0.193462)" />
    <path
       sodipodi:type="arc"
       style="opacity:1;fill:url(#radialGradient26830);fill-opacity:1;fill-rule:evenodd;stroke:none;stroke-width:0.5;stroke-linecap:square;stroke-linejoin:bevel;stroke-miterlimit:4;stroke-dasharray:none;stroke-dashoffset:0;stroke-opacity:1"
       id="path26828"
       sodipodi:cx="161.07143"
       sodipodi:cy="85.89286"
       sodipodi:rx="55.357143"
       sodipodi:ry="54.464287"
       d="M 216.42857 85.89286 A 55.357143 54.464287 0 1 1  105.71428,85.89286 A 55.357143 54.464287 0 1 1  216.42857 85.89286 z"
       transform="matrix(-0.200442,0,0,0.200442,64.22774,0.336592)" />
    <path
       sodipodi:type="arc"
       style="opacity:1;fill:url(#radialGradient26834);fill-opacity:1;fill-rule:evenodd;stroke:none;stroke-width:0.5;stroke-linecap:square;stroke-linejoin:bevel;stroke-miterlimit:4;stroke-dasharray:none;stroke-dashoffset:0;stroke-opacity:1"
       id="path26832"
       sodipodi:cx="161.07143"
       sodipodi:cy="85.89286"
       sodipodi:rx="55.357143"
       sodipodi:ry="54.464287"
       d="M 216.42857 85.89286 A 55.357143 54.464287 0 1 1  105.71428,85.89286 A 55.357143 54.464287 0 1 1  216.42857 85.89286 z"
       transform="matrix(0.200442,0,0,0.200442,0.801962,-0.379213)" />
    <path
       style="fill:none;fill-opacity:0.75;fill-rule:evenodd;stroke:#321a00;stroke-width:0.48569289;stroke-linecap:butt;stroke-linejoin:miter;stroke-miterlimit:4;stroke-dasharray:none;stroke-opacity:1"
       d="M 7.8558725,19.239296 C 5.7598752,29.791554 5.7598752,29.791554 5.7598752,29.791554"
       id="path8979" />
    <path
       style="fill:none;fill-opacity:0.75;fill-rule:evenodd;stroke:#321a00;stroke-width:0.48569289;stroke-linecap:butt;stroke-linejoin:miter;stroke-miterlimit:4;stroke-dasharray:none;stroke-opacity:1"
       d="M 18.408128,19.167017 C 20.720951,29.863819 20.720951,29.863819 20.720951,29.863819"
       id="path8981" />
    <g
       id="g2986"
       transform="matrix(1.000972,0,0,1.011621,2.064621e-2,-0.343901)">
      <path
         d="M 127.82442,115.70919 C 127.82442,122.69116 99.209949,128.35117 63.91221,128.35117 C 28.614471,128.35117 -1.1622574e-08,122.69116 3.4646878e-18,115.70919 C -1.1622599e-08,108.72722 28.614471,103.06721 63.91221,103.06721 C 99.209949,103.06721 127.82442,108.72722 127.82442,115.70919 L 127.82442,115.70919 z "
         transform="matrix(0.277226,0,0,0.115512,2.70576,24.29338)"
         style="opacity:0.38139535;fill:url(#radialGradient2595);fill-opacity:1;fill-rule:nonzero;stroke:none;stroke-width:0;stroke-linecap:round;stroke-linejoin:round;stroke-miterlimit:4;stroke-dasharray:none;stroke-dashoffset:4;stroke-opacity:1"
         id="path2593" />
      <path
         d="M 10.956528,1.0198748 L 10.956528,-1.7748336 L 10.956528,1.0198748 z "
         style="fill:white;fill-opacity:0.75688076;fill-rule:nonzero;stroke:none;stroke-width:0.5;stroke-linecap:round;stroke-linejoin:round;stroke-miterlimit:4;stroke-dasharray:none;stroke-dashoffset:4;stroke-opacity:1"
         id="path2276" />
      <rect
         width="40.001965"
         height="10.004759"
         x="-0.0019644466"
         y="30"
         style="opacity:0.61162792;fill:#555753;fill-opacity:1;fill-rule:nonzero;stroke:none;stroke-width:0.69999999;stroke-linecap:round;stroke-linejoin:miter;stroke-miterlimit:4;stroke-dasharray:none;stroke-opacity:1"
         id="rect1951" />
      <text
         x="13.209517"
         y="36.929745"
         style="font-size:9.68200684px;font-style:normal;font-weight:normal;fill:#eeeeec;fill-opacity:1;stroke:none;stroke-width:1px;stroke-linecap:butt;stroke-linejoin:miter;stroke-opacity:1;font-family:Bitstream Vera Sans"
         id="text2840"
         xml:space="preserve"
         transform="scale(0.988929,1.011195)"><tspan
           x="13.209517"
           y="36.929745"
           id="tspan2842">Mg</tspan></text>
    </g>
  </g>
</svg>
