<?xml version="1.0" encoding="UTF-8" standalone="no"?>
<!-- Created with Inkscape (http://www.inkscape.org/) -->
<svg
   xmlns:dc="http://purl.org/dc/elements/1.1/"
   xmlns:cc="http://web.resource.org/cc/"
   xmlns:rdf="http://www.w3.org/1999/02/22-rdf-syntax-ns#"
   xmlns:svg="http://www.w3.org/2000/svg"
   xmlns="http://www.w3.org/2000/svg"
   xmlns:xlink="http://www.w3.org/1999/xlink"
   xmlns:sodipodi="http://sodipodi.sourceforge.net/DTD/sodipodi-0.dtd"
   xmlns:inkscape="http://www.inkscape.org/namespaces/inkscape"
   width="32px"
   height="32px"
   id="svg5151"
   sodipodi:version="0.32"
   inkscape:version="0.45"
   sodipodi:docname="template.svg"
   sodipodi:docbase="/home/noemie/Dessin vectoriel/atomes"
   inkscape:output_extension="org.inkscape.output.svg.inkscape"
   sodipodi:modified="true">
  <defs
     id="defs5153">
    <linearGradient
       id="linearGradient12563">
      <stop
         style="stop-color:#010011;stop-opacity:1;"
         offset="0"
         id="stop12565" />
      <stop
         id="stop12573"
         offset="1"
         style="stop-color:#65639c;stop-opacity:0.49803922;" />
      <stop
         style="stop-color:#030060;stop-opacity:0;"
         offset="1"
         id="stop12567" />
    </linearGradient>
    <linearGradient
       inkscape:collect="always"
       xlink:href="#linearGradient12563"
       id="linearGradient12569"
       x1="1"
       y1="75"
       x2="199.00002"
       y2="75"
       gradientUnits="userSpaceOnUse"
       gradientTransform="matrix(0.1614557,0,0,0.1614557,-7.00903e-2,-5.7300744e-2)" />
    <linearGradient
       id="linearGradient29501">
      <stop
         style="stop-color:black;stop-opacity:1;"
         offset="0"
         id="stop29503" />
      <stop
         id="stop29511"
         offset="0"
         style="stop-color:#4e4e4e;stop-opacity:1;" />
      <stop
         style="stop-color:black;stop-opacity:1;"
         offset="1"
         id="stop29515" />
      <stop
         style="stop-color:black;stop-opacity:0;"
         offset="1"
         id="stop29505" />
    </linearGradient>
    <linearGradient
       inkscape:collect="always"
       xlink:href="#linearGradient29501"
       id="linearGradient29509"
       x1="27.064589"
       y1="101.33405"
       x2="103.35651"
       y2="101.33405"
       gradientUnits="userSpaceOnUse"
       gradientTransform="matrix(0.1614557,0,0,0.1614557,-7.009199e-2,-5.7300611e-2)" />
    <linearGradient
       id="linearGradient27721">
      <stop
         style="stop-color:black;stop-opacity:1;"
         offset="0"
         id="stop27723" />
      <stop
         id="stop27729"
         offset="1"
         style="stop-color:#8b8b8b;stop-opacity:1;" />
      <stop
         style="stop-color:#1b1b1b;stop-opacity:0;"
         offset="1"
         id="stop27725" />
    </linearGradient>
    <linearGradient
       inkscape:collect="always"
       xlink:href="#linearGradient27721"
       id="linearGradient27727"
       x1="89.394936"
       y1="78.571434"
       x2="119.89079"
       y2="78.571434"
       gradientUnits="userSpaceOnUse"
       gradientTransform="matrix(0.1614557,0,0,0.1614557,-7.009199e-2,-5.7300611e-2)" />
    <linearGradient
       id="linearGradient30402">
      <stop
         style="stop-color:#4f4f4f;stop-opacity:1;"
         offset="0"
         id="stop30404" />
      <stop
         id="stop30410"
         offset="1"
         style="stop-color:#343434;stop-opacity:1;" />
      <stop
         style="stop-color:#4f4f4f;stop-opacity:0;"
         offset="1"
         id="stop30406" />
    </linearGradient>
    <linearGradient
       inkscape:collect="always"
       xlink:href="#linearGradient30402"
       id="linearGradient30408"
       x1="49.171413"
       y1="70.328583"
       x2="86.185699"
       y2="70.328583"
       gradientUnits="userSpaceOnUse"
       gradientTransform="matrix(0.1614557,0,0,0.1614557,-7.00903e-2,-5.7300744e-2)" />
    <linearGradient
       inkscape:collect="always"
       id="linearGradient5431">
      <stop
         style="stop-color:#000351;stop-opacity:1;"
         offset="0"
         id="stop5433" />
      <stop
         style="stop-color:#000351;stop-opacity:0;"
         offset="1"
         id="stop5435" />
    </linearGradient>
    <linearGradient
       inkscape:collect="always"
       xlink:href="#linearGradient5431"
       id="linearGradient17905"
       gradientUnits="userSpaceOnUse"
       gradientTransform="translate(-0.137543,0.526963)"
       x1="62.685715"
       y1="72.053574"
       x2="72.135712"
       y2="72.053574" />
    <radialGradient
       inkscape:collect="always"
       xlink:href="#linearGradient26813"
       id="radialGradient26819"
       cx="161.07143"
       cy="85.89286"
       fx="161.07143"
       fy="85.89286"
       r="55.357143"
       gradientTransform="matrix(1,-2.617201e-7,6.969827e-7,0.983872,-1.775902e-5,1.385376)"
       gradientUnits="userSpaceOnUse" />
    <radialGradient
       inkscape:collect="always"
       xlink:href="#linearGradient26813"
       id="radialGradient26826"
       gradientUnits="userSpaceOnUse"
       gradientTransform="matrix(-0.913798,-0.40617,1.290395e-2,-2.903122e-2,305.3641,152.9161)"
       cx="161.07143"
       cy="85.89286"
       fx="161.07143"
       fy="85.89286"
       r="55.357143" />
    <radialGradient
       inkscape:collect="always"
       xlink:href="#linearGradient26813"
       id="radialGradient26830"
       gradientUnits="userSpaceOnUse"
       gradientTransform="matrix(-0.828137,-0.599718,-1.8634e-2,2.573126e-2,293.9184,178.6731)"
       cx="161.07143"
       cy="85.89286"
       fx="161.07143"
       fy="85.89286"
       r="55.357143" />
    <linearGradient
       inkscape:collect="always"
       id="linearGradient26813">
      <stop
         style="stop-color:white;stop-opacity:1;"
         offset="0"
         id="stop26815" />
      <stop
         style="stop-color:white;stop-opacity:0;"
         offset="1"
         id="stop26817" />
    </linearGradient>
    <radialGradient
       inkscape:collect="always"
       xlink:href="#linearGradient26813"
       id="radialGradient26834"
       gradientUnits="userSpaceOnUse"
       gradientTransform="matrix(-1.05722e-2,-0.948105,3.176788e-2,-3.542461e-4,156.4743,240.6003)"
       cx="161.07143"
       cy="85.89286"
       fx="161.07143"
       fy="85.89286"
       r="55.357143" />
    <linearGradient
       id="linearGradient3291">
      <stop
         style="stop-color:#000000;stop-opacity:1"
         offset="0"
         id="stop3293" />
      <stop
         style="stop-color:#000000;stop-opacity:0"
         offset="1"
         id="stop3295" />
    </linearGradient>
    <radialGradient
       cx="63.912209"
       cy="115.70919"
       r="63.912209"
       fx="75.857941"
       fy="115.70919"
       id="radialGradient2595"
       xlink:href="#linearGradient3291"
       gradientUnits="userSpaceOnUse"
       gradientTransform="matrix(1,0,0,0.197802,0,92.82166)" />
  </defs>
  <sodipodi:namedview
     id="base"
     pagecolor="#ffffff"
     bordercolor="#666666"
     borderopacity="1.0"
     inkscape:pageopacity="0.0"
     inkscape:pageshadow="2"
     inkscape:zoom="11.197802"
     inkscape:cx="16"
     inkscape:cy="17.510642"
     inkscape:current-layer="layer1"
     showgrid="false"
     inkscape:grid-bbox="true"
     inkscape:document-units="px"
     inkscape:window-width="910"
     inkscape:window-height="626"
     inkscape:window-x="0"
     inkscape:window-y="49" />
  <metadata
     id="metadata5156">
    <rdf:RDF>
      <cc:Work
         rdf:about="">
        <dc:format>image/svg+xml</dc:format>
        <dc:type
           rdf:resource="http://purl.org/dc/dcmitype/StillImage" />
      </cc:Work>
    </rdf:RDF>
  </metadata>
  <g
     id="layer1"
     inkscape:label="Layer 1"
     inkscape:groupmode="layer">
    <g
       id="g5163"
       transform="matrix(0.7992338,0,0,0.7992338,1.5700521e-3,2.6845416e-2)">
      <path
         d="M 127.82442,115.70919 C 127.82442,122.69116 99.209949,128.35117 63.91221,128.35117 C 28.614471,128.35117 4.3227263e-15,122.69116 0,115.70919 C -4.3227263e-15,108.72722 28.614471,103.06721 63.91221,103.06721 C 99.209949,103.06721 127.82442,108.72722 127.82442,115.70919 L 127.82442,115.70919 z "
         transform="matrix(0.2772262,0,0,0.1155117,2.70576,24.293381)"
         style="opacity:0.38139535;fill:url(#radialGradient2595);fill-opacity:1;fill-rule:nonzero;stroke:none;stroke-width:0;stroke-linecap:round;stroke-linejoin:round;stroke-miterlimit:4;stroke-dasharray:none;stroke-dashoffset:4;stroke-opacity:1"
         id="path2593" />
      <path
         d="M 10.956528,1.0198748 L 10.956528,-1.7748336 L 10.956528,1.0198748 z "
         style="fill:#ffffff;fill-opacity:0.75688076;fill-rule:nonzero;stroke:none;stroke-width:0.5;stroke-linecap:round;stroke-linejoin:round;stroke-miterlimit:4;stroke-dasharray:none;stroke-dashoffset:4;stroke-opacity:1"
         id="path2276" />
      <rect
         width="40.001965"
         height="10.004759"
         x="-0.0019644466"
         y="30"
         style="opacity:0.61162792;fill:#555753;fill-opacity:1;fill-rule:nonzero;stroke:none;stroke-width:0.69999999;stroke-linecap:round;stroke-linejoin:miter;stroke-miterlimit:4;stroke-dasharray:none;stroke-opacity:1"
         id="rect1951" />
      <text
         x="12.312729"
         y="38.050797"
         style="font-size:12px;font-style:normal;font-weight:normal;line-height:125%;fill:#eeeeec;fill-opacity:1;stroke:none;stroke-width:1px;stroke-linecap:butt;stroke-linejoin:miter;stroke-opacity:1;font-family:Bitstream Vera Sans"
         id="text2840"
         xml:space="preserve"
         sodipodi:linespacing="125%"><tspan
           x="12.312729"
           y="38.050797"
           id="tspan2842">Mg<tspan
   style="font-size:4px;font-style:normal;font-variant:normal;font-weight:normal;font-stretch:normal;text-align:start;line-height:125%;writing-mode:lr-tb;text-anchor:start;font-family:Bitstream Vera Sans"
   id="tspan2294" /></tspan></text>
    </g>
    <rect
       style="opacity:1;fill:#030221;fill-opacity:1;fill-rule:evenodd;stroke:#000000;stroke-width:0.10885864;stroke-linecap:square;stroke-linejoin:bevel;stroke-miterlimit:4;stroke-dasharray:none;stroke-dashoffset:0;stroke-opacity:1"
       id="rect9878"
       width="31.859373"
       height="23.786591"
       x="0.14579335"
       y="0.15861283" />
    <rect
       style="opacity:1;fill:url(#linearGradient12569);fill-opacity:1;fill-rule:evenodd;stroke:#000000;stroke-width:0.10823124;stroke-linecap:square;stroke-linejoin:bevel;stroke-miterlimit:4;stroke-dasharray:none;stroke-dashoffset:0;stroke-opacity:1"
       id="rect11663"
       width="31.860006"
       height="23.787218"
       x="0.14547954"
       y="0.15829808" />
    <path
       style="fill:url(#linearGradient29509);fill-opacity:1;fill-rule:evenodd;stroke:none;stroke-width:1px;stroke-linecap:butt;stroke-linejoin:miter;stroke-opacity:1"
       d="M 5.2348823,17.52986 C 5.3443106,17.379519 5.8103357,17.299512 6.0421613,17.241555 C 6.3131347,17.173804 6.682992,17.241555 6.964765,17.241555 C 7.2874109,17.241555 7.6462878,17.143243 7.9450321,17.068558 C 8.2701391,16.98729 8.640894,17.021656 8.982961,16.953238 C 9.3479469,16.880238 9.6774043,17.010905 10.020891,17.010905 C 10.294015,17.010905 10.789454,17.308689 11.001159,17.414541 C 11.372284,17.600108 11.790049,17.587525 12.212076,17.587525 C 12.577275,17.587525 12.942472,17.587525 13.307669,17.587525 C 13.625852,17.587525 13.884529,17.630838 14.172611,17.702857 C 14.453888,17.773178 14.907698,17.706482 15.152879,17.645191 C 15.366522,17.59178 15.667878,17.587525 15.960157,17.587525 C 16.349132,17.587525 16.485159,17.794029 16.594448,17.356875 C 16.669973,17.054775 16.545344,16.682038 16.42146,16.434271 C 16.258458,16.108278 16.34726,15.783449 16.133145,15.569333 C 15.935016,15.371206 16.015748,15.135828 15.729506,14.9927 C 15.704874,14.980383 15.146792,15.223351 14.97989,15.223351 C 14.691575,15.223351 14.403263,15.223351 14.114948,15.223351 C 13.826635,15.223351 13.53832,15.223351 13.250007,15.223351 C 12.961693,15.223351 12.673379,15.223351 12.385064,15.223351 C 12.101665,15.223351 11.777092,15.231193 11.577787,15.281016 C 11.326338,15.343882 10.973565,15.281016 10.712844,15.281016 C 10.404513,15.281016 10.224111,15.165698 9.9055663,15.165698 C 9.6817548,15.165698 9.3612433,15.108031 9.0982869,15.108031 C 8.8099736,15.108031 8.5216595,15.108031 8.2333463,15.108031 C 7.9450321,15.108031 7.6567178,15.108031 7.3684048,15.108031 C 7.1467607,15.108031 6.9427013,15.223351 6.6187886,15.223351 C 6.304386,15.223351 6.1784681,15.08969 5.984498,14.9927 C 5.6310782,14.815992 5.3462219,14.823703 5.061894,15.108031 C 4.6413471,15.528578 4.4180753,15.905291 4.3122781,16.434271 C 4.241557,16.787878 4.4828876,17.008515 4.6582546,17.18389 C 4.768171,17.293803 4.8394506,17.488619 4.8889058,17.587525"
       id="path14345" />
    <path
       style="fill:#000000;fill-opacity:1;fill-rule:evenodd;stroke:none;stroke-width:0.2;stroke-linecap:butt;stroke-linejoin:miter;stroke-miterlimit:4;stroke-dasharray:none;stroke-opacity:1"
       d="M 7.1732819,6.7450054 C 7.0100442,6.827061 6.4374391,7.2132654 6.1724809,7.3390948 C 6.0418389,7.4011365 5.9848313,7.9841345 5.9848313,8.1708294 C 5.9848313,8.5557731 5.8469826,8.6703166 5.7346305,8.8837423 C 5.5146594,9.3015978 5.3322437,9.4131228 5.0465777,9.7748883 C 4.8107425,10.073545 4.5174718,10.218019 4.2334273,10.4878 C 4.0773387,10.636056 4.0457767,11.038965 4.0457767,11.260124 C 4.0457767,11.553264 4.0457767,11.824659 4.0457767,12.15127 C 4.0457767,12.435392 3.858126,12.724327 3.858126,13.042416 C 3.858126,13.347971 3.6201015,13.590246 3.545376,13.874139 C 3.4883172,14.090922 3.2159827,14.424636 3.1075254,14.527652 C 2.922409,14.703474 2.9867011,15.224321 2.9198746,15.478198 C 2.8217453,15.851006 2.7091267,16.116169 2.5445735,16.428755 C 2.4274904,16.651163 2.6230609,17.083395 2.6696744,17.26049 C 2.7737866,17.656029 2.5328988,17.784088 2.7947738,18.032814 C 2.9944758,18.222492 3.2675037,18.308438 3.6079258,18.38927 C 3.8762915,18.452997 4.2298405,18.448002 4.5461771,18.508081 C 4.7482122,18.546472 5.091557,18.29782 5.2967795,18.151637 C 5.4869417,18.01617 5.6564164,17.587283 5.7346305,17.438712 C 5.9140674,17.097858 5.8864177,16.802631 5.9848313,16.428755 C 6.0468914,16.192977 6.0504589,15.763556 6.1099298,15.537608 C 6.1517554,15.37871 6.3575361,15.191008 6.4226813,14.94352 C 6.493118,14.67592 6.479072,14.385433 6.4226813,14.171196 C 6.3552135,13.91487 6.9870252,14.111117 7.2358317,13.992962 C 7.5039296,13.86564 7.4860335,13.572694 7.4860335,13.280049 C 7.4860335,12.955183 7.5485833,12.792612 7.5485833,12.448314 C 7.5485833,12.123983 7.4993195,11.845291 7.4234824,11.557168 C 7.3552933,11.298104 7.4234824,10.934653 7.4234824,10.666034 C 7.4234824,10.372869 7.3511511,10.16851 7.4234824,9.8937109 C 7.5111484,9.5606516 7.6111332,9.3884775 7.6111332,9.002565 C 7.6111332,8.6624373 7.673683,8.5104359 7.673683,8.1708294 C 7.673683,7.9769699 7.4762823,7.5990935 7.4234824,7.3985061 C 7.3618309,7.1642794 7.2908815,7.0242418 7.1732819,6.7450054 z "
       id="path8983" />
    <path
       style="fill:url(#linearGradient27727);fill-opacity:1;fill-rule:evenodd;stroke:none;stroke-width:1px;stroke-linecap:butt;stroke-linejoin:miter;stroke-opacity:1"
       d="M 14.938776,6.9179905 C 15.100193,6.998846 15.666407,7.3793766 15.928405,7.5033519 C 16.057591,7.5644844 16.113962,8.1388993 16.113962,8.3228556 C 16.113962,8.7021494 16.250269,8.8150085 16.361367,9.0252936 C 16.578885,9.4370029 16.759264,9.5468921 17.041742,9.9033362 C 17.274944,10.197605 17.564944,10.339945 17.845816,10.605762 C 18.000164,10.751836 18.031373,11.148829 18.031373,11.366739 C 18.031373,11.655565 18.031373,11.922971 18.031373,12.244781 C 18.031373,12.524733 18.216925,12.809414 18.216925,13.122823 C 18.216925,13.423892 18.452293,13.662604 18.526188,13.942327 C 18.582609,14.15591 18.851901,14.484727 18.959151,14.586227 C 19.1422,14.759466 19.078627,15.272652 19.144707,15.522808 C 19.24174,15.890126 19.353099,16.151397 19.515817,16.459376 C 19.631595,16.678523 19.438206,17.104404 19.392116,17.278892 C 19.289165,17.668612 19.527362,17.794793 19.26841,18.039857 C 19.070938,18.226746 18.800958,18.311433 18.464333,18.391076 C 18.198963,18.453858 17.849361,18.448936 17.536557,18.508141 C 17.336778,18.545963 16.997265,18.300971 16.794335,18.156934 C 16.606294,18.023456 16.438711,17.600885 16.361367,17.454495 C 16.183936,17.118647 16.211277,16.827773 16.113962,16.459376 C 16.052594,16.227064 16.049066,15.80396 15.990261,15.581334 C 15.948903,15.424774 15.745416,15.239836 15.680998,14.995973 C 15.611349,14.732313 15.625238,14.446093 15.680998,14.235007 C 15.747714,13.982451 15.122953,14.175814 14.876925,14.059404 C 14.61182,13.93395 14.629515,13.645306 14.629515,13.356965 C 14.629515,13.036877 14.567666,12.876692 14.567666,12.537462 C 14.567666,12.217894 14.616379,11.9433 14.691369,11.659419 C 14.758797,11.404161 14.691369,11.046044 14.691369,10.781378 C 14.691369,10.492528 14.762893,10.291164 14.691369,10.020401 C 14.604683,9.69225 14.505813,9.5225991 14.505813,9.1423593 C 14.505813,8.8072384 14.443962,8.6574674 14.443962,8.3228556 C 14.443962,8.1318439 14.639158,7.759532 14.691369,7.5618907 C 14.752333,7.3311063 14.82249,7.1931175 14.938776,6.9179905 z "
       id="path9870" />
    <rect
       style="opacity:1;fill:#262524;fill-opacity:1;fill-rule:evenodd;stroke:#000000;stroke-width:0.28248358;stroke-linecap:square;stroke-linejoin:bevel;stroke-miterlimit:4;stroke-dasharray:none;stroke-dashoffset:0;stroke-opacity:1"
       id="rect2764"
       width="7.5965562"
       height="7.1352534"
       x="7.0587201"
       y="6.8362708" />
    <rect
       style="opacity:1;fill:#323232;fill-opacity:1;fill-rule:evenodd;stroke:#000000;stroke-width:0.25783753;stroke-linecap:square;stroke-linejoin:bevel;stroke-miterlimit:4;stroke-dasharray:none;stroke-dashoffset:0;stroke-opacity:1"
       id="rect2766"
       width="7.0445747"
       height="6.4102845"
       x="7.3347125"
       y="7.5159125" />
    <rect
       style="opacity:1;fill:#303030;fill-opacity:1;fill-rule:evenodd;stroke:#000000;stroke-width:0.23863894;stroke-linecap:square;stroke-linejoin:bevel;stroke-miterlimit:4;stroke-dasharray:none;stroke-dashoffset:0;stroke-opacity:1"
       id="rect2760"
       width="6.5448079"
       height="5.9105182"
       x="7.5845947"
       y="7.9964314" />
    <rect
       style="opacity:1;fill:url(#linearGradient30408);fill-opacity:1;fill-rule:evenodd;stroke:#000000;stroke-width:0.20989245;stroke-linecap:square;stroke-linejoin:bevel;stroke-miterlimit:4;stroke-dasharray:none;stroke-dashoffset:0;stroke-opacity:1"
       id="rect1872"
       width="5.7662764"
       height="5.1896486"
       x="7.9738607"
       y="8.7028561" />
    <rect
       style="opacity:1;fill:#321a00;fill-opacity:1;fill-rule:evenodd;stroke:#000000;stroke-width:0.113019;stroke-linecap:square;stroke-linejoin:bevel;stroke-miterlimit:4;stroke-dasharray:none;stroke-dashoffset:0;stroke-opacity:1"
       id="rect2770"
       width="9.3990307"
       height="1.3839064"
       x="6.1286554"
       y="14.007823" />
    <path
       sodipodi:type="arc"
       style="opacity:1;fill:#000000;fill-opacity:1;fill-rule:evenodd;stroke:#000000;stroke-width:0.69999999;stroke-linecap:square;stroke-linejoin:bevel;stroke-miterlimit:4;stroke-dasharray:none;stroke-dashoffset:0;stroke-opacity:1"
       id="path3657"
       sodipodi:cx="115.53571"
       sodipodi:cy="79.64286"
       sodipodi:rx="6.25"
       sodipodi:ry="6.0714288"
       d="M 121.78571 79.64286 A 6.25 6.0714288 0 1 1  109.28571,79.64286 A 6.25 6.0714288 0 1 1  121.78571 79.64286 z"
       transform="matrix(0.1614557,0,0,0.1614557,-7.7104037,-1.4746399)" />
    <path
       sodipodi:type="arc"
       style="opacity:1;fill:url(#linearGradient17905);fill-opacity:1;fill-rule:evenodd;stroke:#000000;stroke-width:0.69999999;stroke-linecap:square;stroke-linejoin:bevel;stroke-miterlimit:4;stroke-dasharray:none;stroke-dashoffset:0;stroke-opacity:1"
       id="path4544"
       sodipodi:cx="67.410713"
       sodipodi:cy="72.053574"
       sodipodi:rx="4.375"
       sodipodi:ry="3.8392856"
       d="M 71.785713 72.053574 A 4.375 3.8392856 0 1 1  63.035713,72.053574 A 4.375 3.8392856 0 1 1  71.785713 72.053574 z"
       transform="matrix(0.2096191,0,0,0.2276035,-3.2014511,-5.0442925)" />
    <path
       style="fill:#7a7a7a;fill-opacity:1;fill-rule:evenodd;stroke:#9d9d9d;stroke-width:0.16145574px;stroke-linecap:butt;stroke-linejoin:miter;stroke-opacity:1"
       d="M 25.6475,13.781791 C 25.705164,23.930432 25.705164,23.930432 25.705164,23.930432"
       id="path17907" />
    <rect
       style="opacity:1;fill:#7a7a7a;fill-opacity:1;fill-rule:evenodd;stroke:#9d9d9d;stroke-width:0.07567066;stroke-linecap:square;stroke-linejoin:bevel;stroke-miterlimit:4;stroke-dasharray:none;stroke-dashoffset:0;stroke-opacity:1"
       id="rect17911"
       width="7.1635294"
       height="0.84022498"
       x="27.019123"
       y="11.395195"
       transform="matrix(0.9929272,0.118725,-0.4001129,0.9164658,0,0)" />
    <rect
       style="opacity:1;fill:#7a7a7a;fill-opacity:1;fill-rule:evenodd;stroke:#9d9d9d;stroke-width:0.09360027;stroke-linecap:square;stroke-linejoin:bevel;stroke-miterlimit:4;stroke-dasharray:none;stroke-dashoffset:0;stroke-opacity:1"
       id="rect17913"
       width="7.1494374"
       height="1.2881004"
       x="22.715553"
       y="9.6651287"
       transform="matrix(0.9929248,0.118745,-2.5262403e-2,0.9996809,0,0)" />
    <path
       style="fill:#ffffff;fill-opacity:1;fill-rule:nonzero;stroke:none;stroke-width:1px;stroke-linecap:butt;stroke-linejoin:miter;stroke-opacity:1"
       id="path20572"
       d="M 23.75145,14.195828 C 23.774169,14.177924 23.815109,14.163814 23.846814,14.14997 C 24.058821,14.081442 23.476164,14.373783 23.70169,14.218109 C 23.750024,14.183294 23.792637,14.142345 23.836449,14.102922 C 23.868614,14.081878 23.890803,14.052797 23.915656,14.025522 C 24.110691,13.91116 24.295994,13.776361 24.16601,13.995544 C 24.118283,14.083782 24.074256,14.11827 24.171294,14.171051 C 24.496044,14.248063 24.836525,14.197453 25.160445,14.141896 C 25.511821,14.045124 25.4701,14.039621 25.252543,14.122124 C 25.200431,14.08434 25.138599,14.095371 25.075713,14.099287 C 24.975444,14.138623 24.952098,14.134987 24.8722,14.068483 C 24.674004,13.893171 24.414316,13.828438 24.151756,13.781936 C 23.906871,13.722452 23.507184,13.889631 23.986897,13.686583 C 24.179392,13.840791 24.456756,13.8798 24.700545,13.932726 C 24.890406,13.96462 25.094442,14.026577 25.282297,13.976511 C 24.991361,14.192398 25.065468,14.079503 24.838469,14.125737 C 24.816081,14.102596 25.061297,13.946109 24.998654,14.10502 C 25.125382,14.166722 25.263547,14.189864 25.403886,14.196507 C 25.217753,14.365431 25.204438,14.303038 24.987148,14.200471 C 24.805924,14.097953 24.440607,14.323585 24.878294,14.110463 C 24.803239,14.287533 25.135667,14.301571 25.266842,14.31476 C 25.565889,14.319439 25.868386,14.287158 26.155084,14.207271 C 26.334372,14.181887 26.012613,14.308166 25.893515,14.256294 C 25.718876,14.21606 25.561817,14.347853 26.006456,14.119228 C 25.996548,14.21023 26.134131,14.263277 26.221458,14.304504 C 26.456757,14.397762 26.558976,14.304092 26.1757,14.465101 C 26.040362,14.310069 25.833375,14.249602 25.630119,14.202302 C 25.401495,14.135604 25.042137,14.343562 25.53524,14.092135 C 25.562723,14.144684 25.659087,14.145315 25.726689,14.150552 C 25.887408,14.076787 25.70099,14.321888 25.418996,14.119895 C 25.189535,14.000659 24.922352,13.950655 24.660718,13.943611 C 24.35809,13.904772 24.904476,13.857168 25.055038,13.899826 C 25.214111,13.943576 25.375165,13.967795 25.539066,13.949734 C 25.642853,13.939611 25.730029,14.016976 25.826473,14.055586 C 26.100867,14.148309 26.394134,14.213187 26.6876,14.188082 C 26.710421,14.182288 26.776077,14.159049 26.756068,14.170687 C 26.455146,14.345744 26.558953,14.280223 26.30955,14.228449 C 26.115476,14.184251 25.833239,14.374232 26.323186,14.120197 C 26.390602,14.214897 26.534233,14.248245 26.652912,14.281351 C 26.985376,14.245178 26.618185,14.485029 26.491468,14.36822 C 26.379046,14.301171 26.251844,14.27763 26.121473,14.268611 C 26.288037,14.091115 26.393336,14.150709 26.651477,14.185366 C 27.036042,14.150091 26.608038,14.311353 26.415921,14.203368 C 26.176055,14.094437 25.91239,14.028383 25.646047,14.006914 C 25.38535,14.041341 25.592919,13.984937 25.799107,13.874006 C 25.851884,13.940702 25.629676,13.928217 25.545509,13.956729 C 25.500679,13.896807 25.480581,13.909318 25.418067,13.927016 C 25.746704,13.716173 25.685909,13.870817 26.015742,14.002102 C 26.304364,14.097408 26.60813,14.155946 26.909656,14.083818 C 27.131593,14.027329 26.716489,14.144817 26.669307,14.161364 C 26.596188,14.158624 26.80709,14.115954 26.875632,14.092364 C 26.908003,14.136938 26.947659,14.178979 26.981243,14.221054 C 26.946081,14.262501 26.979929,14.301983 26.98027,14.32418 C 27.167579,14.39724 27.358446,14.236353 26.897223,14.477235 C 26.844028,14.472193 26.76457,14.498255 26.705532,14.517542 C 26.568346,14.505989 26.986697,14.306505 26.858446,14.483951 C 26.940202,14.483224 27.421108,14.224303 26.704434,14.572262 C 26.712811,14.558696 26.7244,14.547048 26.734382,14.534453 C 27.02064,14.302881 27.030938,14.423655 27.320382,14.383203 C 27.34606,14.375869 27.420252,14.348157 27.397412,14.361201 C 27.096573,14.533058 27.246831,14.353709 27.001883,14.179609 C 26.758694,14.051731 26.478016,13.969832 26.196569,14.006866 C 26.178718,14.012443 26.160866,14.018018 26.143016,14.023606 C 26.22764,13.980997 26.311273,13.93669 26.396893,13.89579 C 26.505537,13.843905 26.199648,14.029789 26.094685,14.087746 C 25.916813,13.969747 25.695406,13.933368 25.48334,13.900311 C 25.072062,13.966681 25.365951,13.704354 25.591581,13.784458 C 25.817146,13.849033 26.054763,13.905099 26.292766,13.893401 C 26.002911,14.082133 25.984764,13.88957 25.672037,13.77139 C 25.510658,13.718537 25.344277,13.676279 25.178899,13.720173 C 25.489071,13.52572 25.418078,13.59632 25.690976,13.687565 C 25.93111,13.766784 26.082843,13.641136 25.627834,13.866344 C 25.544827,13.826862 25.472584,13.840463 25.389661,13.855094 C 25.716888,13.65572 25.610067,13.744006 25.894682,13.856477 C 26.065719,13.917246 26.24106,13.960692 26.423299,13.949248 C 26.439132,13.937247 26.459613,13.943988 26.476987,13.941478 L 26.206068,14.123688 C 26.190507,14.12564 26.175225,14.129132 26.159431,14.129507 C 25.979638,14.11884 25.807558,14.071005 25.638212,14.014309 C 25.334657,13.906808 25.213395,13.847688 25.651041,13.668181 C 25.739035,13.664896 25.822429,13.661429 25.905474,13.700657 C 25.789222,13.795089 25.669606,13.965783 25.428966,13.850125 C 25.14787,13.75608 24.989332,13.723896 25.439171,13.533648 C 25.606273,13.518095 25.766537,13.561941 25.922948,13.61711 C 26.248077,13.74032 26.607355,13.867738 26.034654,14.066254 C 25.795127,14.058664 25.560223,14.000441 25.328739,13.947854 C 24.953535,13.835372 25.569944,13.652228 25.734354,13.738915 C 25.951937,13.778748 26.169648,13.823915 26.371151,13.911669 C 25.799639,14.256125 26.199418,13.910955 26.451909,13.832765 C 26.734611,13.820304 27.011162,13.907535 27.256504,14.031437 C 27.585818,14.250851 27.556057,14.459537 27.067001,14.557194 C 26.851079,14.579098 26.421248,14.553109 27.000146,14.344495 C 27.025663,14.389385 27.054274,14.39655 27.009348,14.455015 C 26.864164,14.54032 26.723268,14.720094 26.564889,14.629964 C 26.592501,14.46178 26.770613,14.409072 26.960963,14.33292 C 27.057328,14.309548 27.141434,14.275556 27.204861,14.356546 C 26.963545,14.493066 26.926073,14.577548 26.701915,14.486679 C 26.653967,14.434868 26.645375,14.425352 26.686897,14.365262 C 26.654415,14.328785 26.610467,14.278926 26.581433,14.233819 C 26.593367,14.077684 26.760946,13.9797 26.942531,13.988113 C 27.138121,14.125144 26.848071,14.173208 26.658086,14.259737 C 26.355201,14.309753 26.056579,14.24142 25.768651,14.154043 C 25.437423,14.034954 25.178759,13.946727 25.677965,13.73695 C 25.749268,13.740842 25.795223,13.738308 25.834763,13.808521 C 25.872691,13.96302 25.708725,14.072448 25.518341,14.041524 C 25.630731,13.952837 25.765684,13.790374 25.904082,13.838839 C 26.169334,13.877121 26.430639,13.947988 26.676026,14.047973 C 27.007993,14.214206 26.627109,14.388778 26.393766,14.352073 C 26.098269,14.307572 25.905571,14.285752 26.386579,14.093201 C 26.519403,14.112621 26.650264,14.142042 26.765792,14.209514 C 26.949306,14.393943 26.567985,14.513493 26.390234,14.445705 C 26.251657,14.402816 26.082223,14.366353 26.016814,14.238317 C 26.243463,14.108159 26.327423,14.009036 26.572036,14.061586 C 26.932681,14.145763 26.78392,14.246875 26.43495,14.358946 C 26.139956,14.36434 25.848836,14.293958 25.569029,14.214085 C 25.473681,14.1811 25.380173,14.115858 25.27695,14.130489 C 25.114247,14.132477 24.955765,14.102232 24.798959,14.060968 C 24.421108,13.965565 24.602459,13.841129 24.914721,13.775961 C 25.179738,13.797756 25.448771,13.850949 25.685799,13.964766 C 25.946926,14.140466 25.739833,14.254221 25.462264,14.326143 C 25.366722,14.311706 25.255815,14.305911 25.229532,14.209575 C 25.496735,14.05681 25.589523,13.970899 25.884412,14.041584 C 26.093496,14.096377 26.31945,14.16134 26.464439,14.319281 C 26.318287,14.42791 26.193753,14.606374 25.956148,14.464385 C 25.843821,14.409072 25.709449,14.353806 25.697889,14.234753 C 25.932134,14.106729 25.95802,14.029777 26.166993,14.088789 C 26.41736,14.219758 26.104834,14.301716 25.904607,14.384342 C 25.617591,14.449936 25.319084,14.477017 25.023761,14.47355 C 24.845449,14.456119 24.521967,14.441062 24.580303,14.220788 C 24.818314,14.084279 24.985715,13.917791 25.254482,14.039293 C 25.532838,14.174833 25.504366,14.22257 25.139939,14.37268 C 24.995612,14.353867 24.850697,14.325306 24.719275,14.263907 C 24.612405,14.083612 24.916726,14.025352 25.096199,13.944206 C 25.317697,13.925949 25.47783,14.004575 25.02126,14.16471 C 24.830912,14.173463 24.645089,14.122294 24.459986,14.085806 C 24.197528,14.029376 23.895666,13.993532 23.692039,13.824001 C 23.942357,13.64978 24.062184,13.549819 24.397567,13.624492 C 24.666614,13.677321 24.931487,13.745364 25.147378,13.910567 C 25.224156,13.95405 25.250854,13.943333 25.339528,13.919597 C 25.421551,13.919282 25.496908,13.914093 25.548058,13.982246 C 25.511282,14.195453 25.126581,14.255409 24.92436,14.305437 C 24.588623,14.355151 24.238828,14.404489 23.90248,14.334774 C 23.774779,14.277776 23.811267,14.217684 23.869008,14.118173 C 23.921127,14.024079 24.207507,13.718234 24.220671,13.899851 C 24.198154,13.931404 24.180722,13.966316 24.143469,13.987058 C 24.097617,14.025898 24.054491,14.066532 24.00888,14.105626 C 23.881382,14.201514 23.736999,14.276138 23.587592,14.340423 C 23.552324,14.355636 23.516779,14.37799 23.478046,14.378524 L 23.75145,14.195828 z " />
    <path
       style="fill:none;fill-opacity:0.75;fill-rule:evenodd;stroke:#686868;stroke-width:0.0645823;stroke-linecap:butt;stroke-linejoin:miter;stroke-miterlimit:4;stroke-dasharray:none;stroke-opacity:1"
       d="M 23.946449,14.070096 C 23.690778,14.106584 23.436146,14.041269 23.196833,14.041269 C 23.04623,14.041269 22.850067,13.983409 22.735531,13.954776 C 22.541713,13.906324 22.27839,13.954776 22.072408,13.954776 C 21.959438,13.954776 21.893638,14.196992 21.870589,14.243093 C 21.805728,14.372813 21.816567,14.488012 21.784095,14.617903 C 21.753168,14.741599 21.755263,14.881211 21.755263,15.021539 C 21.755263,15.200828 21.809525,15.267403 21.841759,15.396348 C 21.876351,15.534724 21.924793,15.69966 21.957085,15.828811 C 22.015838,16.063837 21.981144,16.165034 21.928253,16.376605 C 21.923591,16.395262 21.928253,16.415057 21.928253,16.434271 C 21.928253,16.57935 21.738128,16.843349 21.66877,16.982065 C 21.582233,17.155148 21.512119,17.262696 21.466951,17.443367 C 21.407749,17.680176 21.054795,18.047191 20.919155,18.250651 C 20.547059,18.808786 19.761322,19.380389 19.160439,19.605718 C 18.899178,19.703702 18.651115,19.872881 18.381991,19.980527 C 18.185031,20.059322 17.924285,20.060717 17.718871,20.009366 C 17.250369,19.892241 16.65398,19.376631 16.306134,19.086762 C 15.927268,18.771038 15.686244,18.380372 15.354697,18.048827 C 15.15082,17.844955 15.150228,17.582229 15.037552,17.356875 C 14.930263,17.142298 14.952982,16.71489 15.008721,16.491936 C 15.045064,16.346566 15.037552,16.202917 15.037552,16.030635 C 15.037552,15.884635 15.008721,15.791813 15.008721,15.626998 C 15.008721,15.614707 14.958141,15.525838 14.951058,15.511667"
       id="path21459" />
    <path
       style="fill:none;fill-opacity:0.75;fill-rule:evenodd;stroke:#6b6b6b;stroke-width:0.08072787;stroke-linecap:butt;stroke-linejoin:miter;stroke-miterlimit:4;stroke-dasharray:none;stroke-opacity:1"
       d="M 24.753728,14.416078 C 24.652401,14.432322 24.5365,14.567934 24.436583,14.617903 C 24.333884,14.669253 24.378919,14.908061 24.378919,15.021539 C 24.378919,15.181407 24.331849,15.294557 24.378919,15.48284 C 24.424023,15.663244 24.343889,15.826653 24.378919,16.001808 C 24.411084,16.162622 24.406825,16.291967 24.350087,16.405444 C 24.283158,16.539299 24.292426,16.823542 24.292426,16.982065 C 24.292426,17.174276 24.292426,17.366487 24.292426,17.558699 C 24.292426,17.786537 24.227518,17.904827 24.1771,18.106493 C 24.133106,18.282472 23.845008,18.553915 23.715798,18.683127 C 23.591031,18.80789 23.372469,18.941283 23.254495,19.00027 C 23.091298,19.081865 22.902361,19.179414 22.764362,19.317413 C 22.584874,19.496897 22.332632,19.547325 22.158904,19.72105 C 22.047419,19.832539 21.883175,19.902157 21.726433,19.980527 C 21.5236,20.081955 21.346019,20.208778 21.149805,20.32651 C 20.965513,20.437077 20.792035,20.516867 20.630841,20.557161 C 20.334638,20.631216 20.080165,20.643653 19.765898,20.643653 C 19.467843,20.643653 19.176414,20.672492 18.872126,20.672492 C 18.510838,20.672492 18.179424,20.643398 17.834197,20.528334 C 17.491002,20.413936 17.095536,20.369059 16.738602,20.297683 C 16.490524,20.248066 16.138408,20.057601 15.873662,19.9517 C 15.648655,19.861693 15.441106,19.72819 15.239373,19.576891 C 15.094279,19.468069 14.996684,19.178007 14.922228,19.029097 C 14.816478,18.817599 14.766114,18.572716 14.662745,18.365971 C 14.585192,18.210865 14.590077,17.959983 14.547419,17.78935 C 14.494848,17.579064 14.571301,17.337079 14.518587,17.126223 C 14.478996,16.967858 14.492951,16.79623 14.460925,16.636095 C 14.427197,16.46745 14.421124,16.305156 14.460925,16.145954 C 14.505193,15.968896 14.518587,15.817464 14.518587,15.626998 C 14.518587,15.59816 14.518587,15.569333 14.518587,15.540507"
       id="path22346" />
    <path
       sodipodi:type="arc"
       style="opacity:1;fill:url(#radialGradient26819);fill-opacity:1;fill-rule:evenodd;stroke:none;stroke-width:0.5;stroke-linecap:square;stroke-linejoin:bevel;stroke-miterlimit:4;stroke-dasharray:none;stroke-dashoffset:0;stroke-opacity:1"
       id="path25926"
       sodipodi:cx="161.07143"
       sodipodi:cy="85.89286"
       sodipodi:rx="55.357143"
       sodipodi:ry="54.464287"
       d="M 216.42857 85.89286 A 55.357143 54.464287 0 1 1  105.71428,85.89286 A 55.357143 54.464287 0 1 1  216.42857 85.89286 z"
       transform="matrix(0.1599159,0,0,0.1599159,0.1027865,5.8467183e-2)" />
    <path
       sodipodi:type="arc"
       style="opacity:1;fill:url(#radialGradient26826);fill-opacity:1;fill-rule:evenodd;stroke:none;stroke-width:0.5;stroke-linecap:square;stroke-linejoin:bevel;stroke-miterlimit:4;stroke-dasharray:none;stroke-dashoffset:0;stroke-opacity:1"
       id="path26821"
       sodipodi:cx="161.07143"
       sodipodi:cy="85.89286"
       sodipodi:rx="55.357143"
       sodipodi:ry="54.464287"
       d="M 216.42857 85.89286 A 55.357143 54.464287 0 1 1  105.71428,85.89286 A 55.357143 54.464287 0 1 1  216.42857 85.89286 z"
       transform="matrix(0.1599159,0,0,0.1599159,0.3883534,0.2012677)" />
    <path
       sodipodi:type="arc"
       style="opacity:1;fill:url(#radialGradient26830);fill-opacity:1;fill-rule:evenodd;stroke:none;stroke-width:0.5;stroke-linecap:square;stroke-linejoin:bevel;stroke-miterlimit:4;stroke-dasharray:none;stroke-dashoffset:0;stroke-opacity:1"
       id="path26828"
       sodipodi:cx="161.07143"
       sodipodi:cy="85.89286"
       sodipodi:rx="55.357143"
       sodipodi:ry="54.464287"
       d="M 216.42857 85.89286 A 55.357143 54.464287 0 1 1  105.71428,85.89286 A 55.357143 54.464287 0 1 1  216.42857 85.89286 z"
       transform="matrix(-0.1599159,0,0,0.1599159,51.276047,0.3154592)" />
    <path
       sodipodi:type="arc"
       style="opacity:1;fill:url(#radialGradient26834);fill-opacity:1;fill-rule:evenodd;stroke:none;stroke-width:0.5;stroke-linecap:square;stroke-linejoin:bevel;stroke-miterlimit:4;stroke-dasharray:none;stroke-dashoffset:0;stroke-opacity:1"
       id="path26832"
       sodipodi:cx="161.07143"
       sodipodi:cy="85.89286"
       sodipodi:rx="55.357143"
       sodipodi:ry="54.464287"
       d="M 216.42857 85.89286 A 55.357143 54.464287 0 1 1  105.71428,85.89286 A 55.357143 54.464287 0 1 1  216.42857 85.89286 z"
       transform="matrix(0.1599159,0,0,0.1599159,0.6739182,-0.2556219)" />
    <path
       style="fill:none;fill-opacity:0.75;fill-rule:evenodd;stroke:#321a00;stroke-width:0.38749379;stroke-linecap:butt;stroke-linejoin:miter;stroke-miterlimit:4;stroke-dasharray:none;stroke-opacity:1"
       d="M 6.3016439,15.396348 C 4.6294228,23.815112 4.6294228,23.815112 4.6294228,23.815112"
       id="path8979" />
    <path
       style="fill:none;fill-opacity:0.75;fill-rule:evenodd;stroke:#321a00;stroke-width:0.38749379;stroke-linecap:butt;stroke-linejoin:miter;stroke-miterlimit:4;stroke-dasharray:none;stroke-opacity:1"
       d="M 14.720407,15.338682 C 16.565615,23.872767 16.565615,23.872767 16.565615,23.872767"
       id="path8981" />
  </g>
</svg>
