<?xml version="1.0" encoding="UTF-8" standalone="no"?>
<!-- Created with Inkscape (http://www.inkscape.org/) -->
<svg
   xmlns:dc="http://purl.org/dc/elements/1.1/"
   xmlns:cc="http://web.resource.org/cc/"
   xmlns:rdf="http://www.w3.org/1999/02/22-rdf-syntax-ns#"
   xmlns:svg="http://www.w3.org/2000/svg"
   xmlns="http://www.w3.org/2000/svg"
   xmlns:xlink="http://www.w3.org/1999/xlink"
   xmlns:sodipodi="http://sodipodi.sourceforge.net/DTD/sodipodi-0.dtd"
   xmlns:inkscape="http://www.inkscape.org/namespaces/inkscape"
   width="32px"
   height="32px"
   id="svg5038"
   sodipodi:version="0.32"
   inkscape:version="0.44.1"
   sodipodi:docname="15.svg"
   sodipodi:docbase="/home/carsten/svn/kalzium_www/files">
  <defs
     id="defs5040">
    <linearGradient
       inkscape:collect="always"
       id="linearGradient8009">
      <stop
         style="stop-color:#ffaa00;stop-opacity:1;"
         offset="0"
         id="stop8011" />
      <stop
         style="stop-color:#ffaa00;stop-opacity:0;"
         offset="1"
         id="stop8013" />
    </linearGradient>
    <linearGradient
       id="linearGradient8152">
      <stop
         style="stop-color:#ff0000;stop-opacity:1;"
         offset="0"
         id="stop8154" />
      <stop
         id="stop2182"
         offset="0.25"
         style="stop-color:#ff6c00;stop-opacity:1;" />
      <stop
         style="stop-color:#ff8800;stop-opacity:0.69803923;"
         offset="0.46875"
         id="stop2188" />
      <stop
         id="stop2183"
         offset="1"
         style="stop-color:#ff9b00;stop-opacity:0;" />
    </linearGradient>
    <radialGradient
       inkscape:collect="always"
       xlink:href="#linearGradient8152"
       id="radialGradient3175"
       gradientUnits="userSpaceOnUse"
       gradientTransform="matrix(1.4403576,0,0,1.6193256,-17.173417,-12.6123)"
       cx="23.430079"
       cy="16.771303"
       fx="23.430079"
       fy="16.771303"
       r="15.526079" />
    <radialGradient
       inkscape:collect="always"
       xlink:href="#linearGradient8009"
       id="radialGradient8015"
       cx="18.736916"
       cy="30.037678"
       fx="18.736916"
       fy="30.037678"
       r="13.527439"
       gradientTransform="matrix(1,0,0,8.642231e-2,0,27.441752)"
       gradientUnits="userSpaceOnUse" />
  </defs>
  <sodipodi:namedview
     id="base"
     pagecolor="#ffffff"
     bordercolor="#666666"
     borderopacity="1.0"
     inkscape:pageopacity="0.0"
     inkscape:pageshadow="2"
     inkscape:zoom="5.598901"
     inkscape:cx="-4.8748965"
     inkscape:cy="8.4556996"
     inkscape:current-layer="layer1"
     showgrid="false"
     inkscape:grid-bbox="true"
     inkscape:document-units="px"
     inkscape:window-width="933"
     inkscape:window-height="645"
     inkscape:window-x="50"
     inkscape:window-y="25" />
  <metadata
     id="metadata5043">
    <rdf:RDF>
      <cc:Work
         rdf:about="">
        <dc:format>image/svg+xml</dc:format>
        <dc:type
           rdf:resource="http://purl.org/dc/dcmitype/StillImage" />
      </cc:Work>
    </rdf:RDF>
  </metadata>
  <g
     id="layer1"
     inkscape:label="Layer 1"
     inkscape:groupmode="layer">
    <rect
       style="opacity:1;fill:#000000;fill-opacity:1;stroke:none;stroke-width:0.1;stroke-linecap:round;stroke-linejoin:round;stroke-miterlimit:4;stroke-dasharray:none;stroke-dashoffset:0;stroke-opacity:1"
       id="rect2173"
       width="32.863594"
       height="33.39941"
       x="-0.17860648"
       y="-0.14916642" />
    <path
       style="fill:none;fill-opacity:1;stroke:url(#radialGradient3175);stroke-width:0.51619965;stroke-linecap:round;stroke-linejoin:round;stroke-miterlimit:4;stroke-dasharray:0.51619969, 1.54859907;stroke-dashoffset:0;stroke-opacity:1"
       d="M 13.001977,-0.91699548 C 12.395103,-0.90599688 12.200285,0.15943248 13.840802,1.0832783 C 14.151082,1.2580108 14.432969,1.4948991 14.679627,1.7285279 C 14.537963,1.3170724 14.416324,0.89621895 14.260214,0.47029118 C 13.884997,-0.55344413 13.366103,-0.92359468 13.001977,-0.91699548 z M 14.679627,1.7285279 C 15.742142,4.8145434 16.393456,7.5107301 16.292751,9.9231979 C 16.44654,8.7227422 16.497824,7.487548 16.4218,6.3097997 C 16.590972,8.0705691 16.949666,9.8609382 16.712163,11.278223 C 17.879625,7.4321428 17.512477,1.3947654 20.938548,2.0834152 C 22.651549,2.4277329 20.891572,-0.76998388 18.61565,0.40576623 C 16.597631,1.4482816 16.263652,3.3040097 16.357275,5.3419257 C 16.144141,3.8869313 15.622791,2.6218732 14.679627,1.7285279 z M 16.292751,9.9231979 C 16.168416,10.89373 15.994989,11.844578 15.808813,12.697772 C 16.105965,11.810687 16.252365,10.890656 16.292751,9.9231979 z M 10.775866,1.5026905 C 8.0973653,1.5079105 7.0401492,2.0908844 10.550029,2.1802026 C 14.475014,2.2800844 15.233762,8.8927212 15.421664,12.891347 C 15.641402,9.3186726 15.996301,1.4925169 10.775866,1.5026905 z M 22.680722,2.40604 C 18.755583,2.4997169 19.342226,9.6406633 16.647638,12.600984 C 19.329279,10.2301 18.093283,4.6125346 23.164659,3.3739144 C 25.308289,2.8503597 27.857704,2.2846871 22.680722,2.40604 z M 8.5820183,3.3093894 C 8.2871713,3.302203 8.0007323,3.3216429 7.6786683,3.3739144 C 3.8607827,3.993565 4.8499466,4.7907136 7.6464063,4.1159515 C 11.463127,3.1950092 13.914883,9.3679654 15.131301,13.181709 C 14.463404,9.8931356 13.004709,3.4171861 8.5820183,3.3093894 z M 25.713395,4.2127389 C 25.471037,4.2331992 25.173283,4.2818806 24.87457,4.3417888 C 24.203891,4.4762967 23.670973,4.7720179 23.164659,5.1483508 C 23.844871,4.9755481 24.659728,4.8444527 25.616607,4.825726 C 27.660667,4.7857225 27.409898,4.069517 25.713395,4.2127389 z M 23.164659,5.1483508 C 18.700751,6.2823737 19.560971,10.301001 17.776825,12.149309 C 20.002337,10.185242 20.991671,6.7634861 23.164659,5.1483508 z M 28.713806,4.7934635 C 28.387665,4.8495239 27.665469,5.0636085 26.487694,5.4709756 C 22.777121,6.7543836 21.235681,11.739453 17.421937,12.955871 C 20.929748,12.243446 22.268686,7.1283731 27.229731,5.5032382 C 28.697458,5.0224417 29.257375,4.7000296 28.713806,4.7934635 z M 6.904369,5.6322879 C 6.3467588,5.6383394 5.7691703,5.7475734 5.1621952,5.9871749 C 2.7103923,6.9550189 2.2992171,8.8571886 5.3235072,6.729212 C 8.5345383,4.4698395 12.743423,10.167635 14.905464,13.536596 C 13.508932,10.733187 10.807638,5.5899312 6.904369,5.6322879 z M 6.3881692,7.9551867 C 5.3386164,7.8934979 4.3273046,8.2429979 3.4200207,9.1811608 C -1.0218385,13.774201 1.5053489,12.544629 3.7426455,9.8264104 C 6.2377754,6.794939 11.816094,11.26142 14.776414,13.956008 C 12.998252,11.944778 9.5368263,8.1402557 6.3881692,7.9551867 z M 29.520368,8.2778117 C 29.199004,8.2829313 28.816115,8.3164337 28.391181,8.3745992 C 28.325051,8.3836513 28.263125,8.3957479 28.197606,8.4068614 C 28.494322,8.4410987 28.787851,8.5086589 29.100956,8.6004365 C 31.507677,9.3058962 31.76991,8.2419755 29.520368,8.2778117 z M 28.197606,8.4068614 C 24.340295,7.9617834 21.790076,12.080068 19.002799,13.052659 C 22.282043,12.19859 24.838657,8.9766499 28.197606,8.4068614 z M 5.9042324,10.665235 C 4.5412422,10.707786 3.3387723,11.270331 2.5489338,12.697772 C -0.35051892,17.937824 0.74188288,16.934379 3.0651337,13.246234 C 5.1577953,9.9241465 11.219554,12.538836 14.776414,14.375421 C 12.724808,13.016482 8.9028113,10.571624 5.9042324,10.665235 z M 16.712163,11.310485 C 16.569965,11.774398 16.425979,12.218003 16.228225,12.600984 C 16.475306,12.227965 16.629048,11.787339 16.712163,11.310485 z M 28.068556,11.600847 C 24.692703,11.799375 21.328006,14.380128 17.905875,13.633384 C 21.29994,14.770312 24.938038,11.573179 30.133354,12.084784 C 32.799787,12.34736 32.255443,12.179822 29.520368,11.697635 C 29.03704,11.612425 28.55082,11.572486 28.068556,11.600847 z M 17.647775,12.278359 C 17.457221,12.437225 17.245348,12.594906 17.034788,12.730034 C 17.272337,12.611697 17.467556,12.442354 17.647775,12.278359 z M 18.422074,13.181709 C 18.180865,13.222666 17.962214,13.23449 17.7123,13.246234 C 17.959234,13.261421 18.181359,13.224507 18.422074,13.181709 z M 8.5497553,13.504334 C 6.2745376,13.486175 4.0672645,14.154259 2.6457214,16.343432 C 0.67217918,19.382685 1.2578764,21.465481 3.2587087,16.730582 C 4.7869841,13.113972 10.962194,13.94141 14.873202,14.794833 C 13.176169,14.226369 10.824973,13.522492 8.5497553,13.504334 z M 18.002662,14.052796 C 20.98682,16.029432 25.107844,14.538621 30.19788,15.698182 C 33.258195,16.395354 33.003863,16.166019 29.713942,15.181982 C 25.952347,14.056865 21.559523,15.889382 18.002662,14.052796 z M 18.002662,14.472208 C 20.373546,17.153849 24.93714,16.472217 29.359055,19.247055 C 31.951033,20.873572 32.071235,21.106532 29.004168,18.569543 C 25.978785,16.067034 20.962983,17.166797 18.002662,14.472208 z M 17.873612,14.891621 C 19.469651,18.095517 24.27404,18.398984 27.616881,22.408778 C 27.951735,22.810441 28.114453,23.066845 28.294393,23.312127 C 28.075222,22.94276 27.795294,22.40616 27.455569,21.699003 C 25.755374,18.15996 20.035652,18.260582 17.873612,14.891621 z M 12.034103,15.117458 C 8.7636303,15.254479 5.0824759,16.172972 3.678121,19.82778 C 2.2960917,23.424484 3.0909593,23.91801 4.3556328,20.053617 C 5.5768202,16.322105 11.068152,15.337621 15.066776,15.14972 C 14.173609,15.094785 13.124261,15.071784 12.034103,15.117458 z M 17.647775,15.246508 C 18.360201,18.754319 22.715063,20.410687 25.100408,25.054302 C 26.494812,27.768825 26.532686,27.438771 25.132671,24.312265 C 23.528064,20.728867 18.864195,19.060252 17.647775,15.246508 z M 15.357139,15.472345 C 11.849329,16.184769 6.2708038,17.754624 5.5493446,22.924978 C 4.8954775,27.610927 5.8651061,28.651356 6.2913817,22.95724 C 6.5844918,19.04194 11.543397,16.688764 15.357139,15.472345 z M 17.32515,15.53687 C 17.105413,19.109545 20.885574,21.826123 22.003209,26.925525 C 22.649623,29.874896 22.958757,29.541014 22.229047,26.248014 C 21.379617,22.414743 17.51305,19.535495 17.32515,15.53687 z M 16.970263,15.730444 C 15.833337,19.124511 16.757168,23.043715 18.518862,27.957925 C 19.502676,30.702256 19.952932,30.175584 18.906011,27.344938 C 17.544043,23.662474 16.11684,19.641453 16.970263,15.730444 z M 16.131438,15.827232 C 13.449798,18.198117 12.288026,22.046948 11.356591,27.183626 C 10.836433,30.052193 11.493178,29.803608 12.001841,26.828738 C 12.663573,22.958648 13.436848,18.787554 16.131438,15.827232 z M 16.55085,15.827232 C 14.574215,18.81139 14.443428,22.819729 14.873202,28.02245 C 15.113208,30.9279 15.700287,30.543668 15.421664,27.538513 C 15.059195,23.629023 14.714264,19.384094 16.55085,15.827232 z "
       id="path11433" />
    <path
       style="fill:#ffa900;fill-opacity:1;stroke:none;stroke-width:0.5;stroke-linecap:round;stroke-linejoin:round;stroke-miterlimit:4;stroke-dasharray:none;stroke-opacity:1"
       id="path2170"
       d="M 6.3820005,29.359931 C 8.4144417,22.051053 11.788329,17.222081 16.228448,14.601422 C 11.609025,18.052171 9.7321161,24.154556 8.6689467,29.825913 L 6.3820005,29.359931 z "
       sodipodi:nodetypes="cccc" />
    <path
       id="path2593"
       style="opacity:0.38600003;fill:url(#radialGradient8015);fill-opacity:1.0;fill-rule:nonzero;stroke:none;stroke-width:0;stroke-linecap:round;stroke-linejoin:round;stroke-miterlimit:4;stroke-dasharray:none;stroke-dashoffset:4;stroke-opacity:1"
       d="M 32.264355,30.037677 C 32.264355,30.683337 26.207914,31.20675 18.736916,31.20675 C 11.265918,31.20675 5.2094776,30.683337 5.2094776,30.037677 C 5.2094776,29.392017 11.265918,28.868605 18.736916,28.868605 C 26.207914,28.868605 32.264355,29.392017 32.264355,30.037677 L 32.264355,30.037677 z " />
    <rect
       id="rect1951"
       style="opacity:0.61162792;fill:#555753;fill-opacity:1;fill-rule:nonzero;stroke:none;stroke-width:0.69999999;stroke-linecap:round;stroke-linejoin:miter;stroke-miterlimit:4;stroke-dasharray:none;stroke-opacity:1"
       y="23.990475"
       x="-7.2436952e-11"
       height="8.0095272"
       width="32.024441" />
    <text
       xml:space="preserve"
       id="text2840"
       style="font-size:9.60686016px;font-style:normal;font-weight:normal;fill:#eeeeec;fill-opacity:1;stroke:none;stroke-width:1px;stroke-linecap:butt;stroke-linejoin:miter;stroke-opacity:1;font-family:Bitstream Vera Sans"
       y="31.33024"
       x="12.810735"><tspan
         id="tspan2842"
         y="31.33024"
         x="12.810735">P</tspan></text>
  </g>
</svg>
