<?xml version="1.0" encoding="UTF-8" standalone="no"?>
<!-- Created with Inkscape (http://www.inkscape.org/) -->
<svg
   xmlns:dc="http://purl.org/dc/elements/1.1/"
   xmlns:cc="http://web.resource.org/cc/"
   xmlns:rdf="http://www.w3.org/1999/02/22-rdf-syntax-ns#"
   xmlns:svg="http://www.w3.org/2000/svg"
   xmlns="http://www.w3.org/2000/svg"
   xmlns:xlink="http://www.w3.org/1999/xlink"
   xmlns:sodipodi="http://sodipodi.sourceforge.net/DTD/sodipodi-0.dtd"
   xmlns:inkscape="http://www.inkscape.org/namespaces/inkscape"
   width="32px"
   height="32px"
   id="svg5038"
   sodipodi:version="0.32"
   inkscape:version="0.45"
   sodipodi:modified="true">
  <defs
     id="defs5040">
    <linearGradient
       inkscape:collect="always"
       id="linearGradient8152">
      <stop
         style="stop-color:#ffdd00;stop-opacity:1;"
         offset="0"
         id="stop8154" />
      <stop
         style="stop-color:#ffdd00;stop-opacity:0;"
         offset="1"
         id="stop8156" />
    </linearGradient>
    <radialGradient
       inkscape:collect="always"
       xlink:href="#linearGradient8152"
       id="radialGradient8158"
       cx="23.430079"
       cy="16.771304"
       fx="23.430079"
       fy="16.771304"
       r="15.526079"
       gradientTransform="matrix(1,0,0,0.9807829,0,0.3222961)"
       gradientUnits="userSpaceOnUse" />
    <linearGradient
       inkscape:collect="always"
       id="linearGradient9153">
      <stop
         style="stop-color:#ffdd00;stop-opacity:1;"
         offset="0"
         id="stop9155" />
      <stop
         style="stop-color:#ffdd00;stop-opacity:0;"
         offset="1"
         id="stop9157" />
    </linearGradient>
    <linearGradient
       inkscape:collect="always"
       xlink:href="#linearGradient9153"
       id="linearGradient9159"
       x1="22.422709"
       y1="16.947203"
       x2="16.934582"
       y2="32.461716"
       gradientUnits="userSpaceOnUse" />
    <linearGradient
       inkscape:collect="always"
       id="linearGradient10137">
      <stop
         style="stop-color:#ffdd00;stop-opacity:1;"
         offset="0"
         id="stop10139" />
      <stop
         style="stop-color:#ffdd00;stop-opacity:0;"
         offset="1"
         id="stop10141" />
    </linearGradient>
    <radialGradient
       inkscape:collect="always"
       xlink:href="#linearGradient10137"
       id="radialGradient10143"
       cx="20.423899"
       cy="37.659147"
       fx="20.423899"
       fy="37.659147"
       r="17.718139"
       gradientTransform="matrix(0.9536681,0,0,8.2418165e-2,3.9248354,34.449808)"
       gradientUnits="userSpaceOnUse" />
  </defs>
  <sodipodi:namedview
     id="base"
     pagecolor="#ffffff"
     bordercolor="#666666"
     borderopacity="1.0"
     inkscape:pageopacity="0.0"
     inkscape:pageshadow="2"
     inkscape:zoom="11.197802"
     inkscape:cx="16"
     inkscape:cy="16"
     inkscape:current-layer="layer1"
     showgrid="false"
     inkscape:grid-bbox="true"
     inkscape:document-units="px"
     inkscape:window-width="910"
     inkscape:window-height="626"
     inkscape:window-x="0"
     inkscape:window-y="49" />
  <metadata
     id="metadata5043">
    <rdf:RDF>
      <cc:Work
         rdf:about="">
        <dc:format>image/svg+xml</dc:format>
        <dc:type
           rdf:resource="http://purl.org/dc/dcmitype/StillImage" />
      </cc:Work>
    </rdf:RDF>
  </metadata>
  <g
     id="layer1"
     inkscape:label="Layer 1"
     inkscape:groupmode="layer">
    <g
       id="g5030"
       transform="matrix(0.8005717,0,0,0.8005717,1.5726803e-3,-2.6676261e-2)">
      <path
         d="M 40.299679,37.553605 C 40.299679,38.360104 32.734534,39.013902 23.402455,39.013902 C 14.070377,39.013902 6.5052323,38.360104 6.5052323,37.553605 C 6.5052323,36.747106 14.070377,36.093309 23.402455,36.093309 C 32.734534,36.093309 40.299679,36.747106 40.299679,37.553605 L 40.299679,37.553605 z "
         style="opacity:0.38600003;fill:url(#radialGradient10143);fill-opacity:1;fill-rule:nonzero;stroke:none;stroke-width:0;stroke-linecap:round;stroke-linejoin:round;stroke-miterlimit:4;stroke-dasharray:none;stroke-dashoffset:4;stroke-opacity:1"
         id="path2593" />
      <rect
         width="40.001965"
         height="10.004759"
         x="-0.0019644466"
         y="30"
         style="opacity:0.61162792;fill:#555753;fill-opacity:1;fill-rule:nonzero;stroke:none;stroke-width:0.69999999;stroke-linecap:round;stroke-linejoin:miter;stroke-miterlimit:4;stroke-dasharray:none;stroke-opacity:1"
         id="rect1951" />
      <text
         x="16.000019"
         y="39.168156"
         style="font-size:12px;font-style:normal;font-weight:normal;fill:#eeeeec;fill-opacity:1;stroke:none;stroke-width:1px;stroke-linecap:butt;stroke-linejoin:miter;stroke-opacity:1;font-family:Bitstream Vera Sans"
         id="text2840"
         xml:space="preserve"><tspan
           x="16.000019"
           y="39.168156"
           id="tspan2842">P</tspan></text>
      <path
         sodipodi:nodetypes="cccc"
         d="M 13.842135,37.928704 C 14.6037,28.483372 17.597846,21.761788 22.422709,17.496044 C 17.574548,22.822317 14.982675,30.120095 15.02202,37.327523 L 13.842135,37.928704 z "
         id="path2170"
         style="fill:url(#linearGradient9159);fill-opacity:1;stroke:none;stroke-width:0.5;stroke-linecap:round;stroke-linejoin:round;stroke-miterlimit:4;stroke-dasharray:none;stroke-opacity:1" />
      <path
         id="path11433"
         d="M 19.96989,1.7936752 C 19.382061,1.8043287 19.193357,2.8363221 20.78239,3.7311752 C 21.082933,3.9004241 21.355973,4.1298783 21.59489,4.3561752 C 21.457672,3.9576323 21.339851,3.5499863 21.18864,3.1374252 C 20.825198,2.1458174 20.322588,1.7872831 19.96989,1.7936752 z M 21.59489,4.3561752 C 22.624061,7.3453435 23.254935,9.9569167 23.15739,12.293675 C 23.306353,11.130893 23.356027,9.9344623 23.28239,8.7936752 C 23.446253,10.499187 23.79369,12.233369 23.56364,13.606175 C 24.694465,9.8807956 24.338838,4.0328871 27.65739,4.6999252 C 29.316633,5.0334373 27.611889,1.9360732 25.40739,3.0749252 C 23.452702,4.0847238 23.129205,5.8822143 23.21989,7.8561752 C 23.013444,6.4468423 22.508456,5.2214851 21.59489,4.3561752 z M 23.15739,12.293675 C 23.036958,13.233749 22.868973,14.154757 22.68864,14.981175 C 22.976466,14.121929 23.118272,13.230772 23.15739,12.293675 z M 17.81364,4.1374252 C 15.219197,4.1424813 14.195159,4.70716 17.59489,4.7936752 C 21.396699,4.8904224 22.131636,11.295537 22.31364,15.168675 C 22.526483,11.708121 22.870244,4.1275709 17.81364,4.1374252 z M 29.34489,5.0124252 C 25.542932,5.1031623 26.111165,12.020007 23.50114,14.887425 C 26.098624,12.590946 24.901417,7.1496743 29.81364,5.9499252 C 31.889997,5.442801 34.359405,4.8948807 29.34489,5.0124252 z M 15.68864,5.8874252 C 15.403047,5.8804643 15.125596,5.8992941 14.81364,5.9499252 C 11.115569,6.5501296 12.073691,7.3222615 14.78239,6.6686752 C 18.479332,5.7766345 20.854146,11.755867 22.03239,15.449925 C 21.385453,12.264556 19.972536,5.9918389 15.68864,5.8874252 z M 32.28239,6.7624252 C 32.047638,6.7822434 31.759228,6.8293971 31.46989,6.8874252 C 30.820258,7.0177119 30.304065,7.3041526 29.81364,7.6686752 C 30.472505,7.5012955 31.26179,7.3743142 32.18864,7.3561752 C 34.168552,7.3174271 33.925653,6.6236979 32.28239,6.7624252 z M 29.81364,7.6686752 C 25.489821,8.7671095 26.323045,12.659621 24.59489,14.449925 C 26.75056,12.547495 27.708846,9.2331237 29.81364,7.6686752 z M 35.18864,7.3249252 C 34.872734,7.3792262 34.173203,7.5865923 33.03239,7.9811752 C 29.438264,9.2243067 27.945199,14.052931 24.25114,15.231175 C 27.648866,14.541108 28.945785,9.5865593 33.75114,8.0124252 C 35.172805,7.5467174 35.71515,7.2344235 35.18864,7.3249252 z M 14.06364,8.1374252 C 13.523529,8.1432863 12.964067,8.2490923 12.37614,8.4811752 C 10.001281,9.4186454 9.6030099,11.26112 12.53239,9.1999252 C 15.64265,7.0114574 19.71945,12.530441 21.81364,15.793675 C 20.460935,13.078244 17.844415,8.0963976 14.06364,8.1374252 z M 13.56364,10.387425 C 12.547025,10.327672 11.567451,10.666204 10.68864,11.574925 C 6.3861776,16.023823 8.8340553,14.832838 11.00114,12.199925 C 13.417966,9.2635888 18.821222,13.5899 21.68864,16.199925 C 19.966281,14.251812 16.613484,10.566686 13.56364,10.387425 z M 35.96989,10.699925 C 35.658612,10.704884 35.287738,10.737335 34.87614,10.793675 C 34.812086,10.802443 34.752103,10.81416 34.68864,10.824925 C 34.976044,10.858088 35.260362,10.923528 35.56364,11.012425 C 37.894832,11.695746 38.148836,10.665214 35.96989,10.699925 z M 34.68864,10.824925 C 30.952382,10.393815 28.482195,14.382857 25.78239,15.324925 C 28.958723,14.497659 31.435104,11.376832 34.68864,10.824925 z M 13.09489,13.012425 C 11.774674,13.05364 10.609941,13.598532 9.84489,14.981175 C 7.0364294,20.056781 8.0945488,19.084827 10.34489,15.512425 C 12.371878,12.294594 18.243404,14.827227 21.68864,16.606175 C 19.701418,15.289884 15.999366,12.921752 13.09489,13.012425 z M 23.56364,13.637425 C 23.425904,14.086779 23.286437,14.516462 23.09489,14.887425 C 23.334216,14.526112 23.483133,14.099314 23.56364,13.637425 z M 34.56364,13.918675 C 31.29373,14.110972 28.034626,16.610735 24.71989,15.887425 C 28.007441,16.988673 31.531366,13.891875 36.56364,14.387425 C 39.146393,14.64176 38.619131,14.47948 35.96989,14.012425 C 35.50173,13.92989 35.03077,13.891204 34.56364,13.918675 z M 24.46989,14.574925 C 24.285316,14.728805 24.080092,14.881538 23.87614,15.012425 C 24.106234,14.897802 24.295327,14.733773 24.46989,14.574925 z M 25.21989,15.449925 C 24.98625,15.489597 24.774461,15.50105 24.53239,15.512425 C 24.771575,15.527136 24.986729,15.49138 25.21989,15.449925 z M 15.65739,15.762425 C 13.453574,15.744837 11.315571,16.391954 9.93864,18.512425 C 8.0270326,21.456299 8.5943491,23.473731 10.53239,18.887425 C 12.012704,15.384314 17.99412,16.185785 21.78239,17.012425 C 20.138615,16.461801 17.861206,15.780013 15.65739,15.762425 z M 24.81364,16.293675 C 27.704147,18.208279 31.695843,16.764253 36.62614,17.887425 C 39.590414,18.562717 39.344064,18.34058 36.15739,17.387425 C 32.513843,16.297617 28.258877,18.072624 24.81364,16.293675 z M 24.81364,16.699925 C 27.11012,19.297409 31.530496,18.637169 35.81364,21.324925 C 38.324275,22.900398 38.440705,23.126046 35.46989,20.668675 C 32.539452,18.244701 27.681059,19.309951 24.81364,16.699925 z M 24.68864,17.106175 C 26.234591,20.209525 30.888206,20.503468 34.12614,24.387425 C 34.450485,24.776483 34.608096,25.02484 34.78239,25.262425 C 34.570097,24.904649 34.298954,24.384889 33.96989,23.699925 C 32.323051,20.271946 26.782829,20.36941 24.68864,17.106175 z M 19.03239,17.324925 C 15.864553,17.457646 12.298923,18.347314 10.93864,21.887425 C 9.5999828,25.371256 10.369905,25.849294 11.59489,22.106175 C 12.777753,18.491767 18.096753,17.538179 21.96989,17.356175 C 21.104752,17.302964 20.088336,17.280685 19.03239,17.324925 z M 24.46989,17.449925 C 25.159959,20.847652 29.378154,22.452039 31.68864,26.949925 C 33.039284,29.57926 33.07597,29.259564 31.71989,26.231175 C 30.16564,22.760234 25.648136,21.143984 24.46989,17.449925 z M 22.25114,17.668675 C 18.853414,18.358741 13.449958,19.87933 12.75114,24.887425 C 12.117793,29.426317 13.056992,30.434095 13.46989,24.918675 C 13.753801,21.126247 18.557083,18.84692 22.25114,17.668675 z M 24.15739,17.731175 C 23.944549,21.19173 27.606078,23.823055 28.68864,28.762425 C 29.314767,31.619236 29.6142,31.295833 28.90739,28.106175 C 28.084617,24.393203 24.339393,21.604313 24.15739,17.731175 z M 23.81364,17.918675 C 22.712394,21.206227 23.607233,25.002436 25.31364,29.762425 C 26.266579,32.420632 26.702706,31.910488 25.68864,29.168675 C 24.369414,25.601777 22.987,21.706945 23.81364,17.918675 z M 23.00114,18.012425 C 20.403657,20.308905 19.278344,24.03695 18.37614,29.012425 C 17.872306,31.790969 18.508441,31.550186 19.00114,28.668675 C 19.642106,24.920038 20.391113,20.879844 23.00114,18.012425 z M 23.40739,18.012425 C 21.492787,20.902932 21.366104,24.785479 21.78239,29.824925 C 22.014864,32.639195 22.583519,32.26702 22.31364,29.356175 C 21.962547,25.569375 21.628441,21.457663 23.40739,18.012425 z "
         style="fill:none;fill-opacity:1;stroke:url(#radialGradient8158);stroke-width:0.5;stroke-linecap:round;stroke-linejoin:round;stroke-miterlimit:4;stroke-dasharray:0.5, 1.5;stroke-dashoffset:0;stroke-opacity:1" />
    </g>
  </g>
</svg>
