<?xml version="1.0" encoding="UTF-8" standalone="no"?>
<!-- Created with Inkscape (http://www.inkscape.org/) -->
<svg
   xmlns:dc="http://purl.org/dc/elements/1.1/"
   xmlns:cc="http://web.resource.org/cc/"
   xmlns:rdf="http://www.w3.org/1999/02/22-rdf-syntax-ns#"
   xmlns:svg="http://www.w3.org/2000/svg"
   xmlns="http://www.w3.org/2000/svg"
   xmlns:xlink="http://www.w3.org/1999/xlink"
   xmlns:sodipodi="http://sodipodi.sourceforge.net/DTD/sodipodi-0.dtd"
   xmlns:inkscape="http://www.inkscape.org/namespaces/inkscape"
   width="48px"
   height="48px"
   id="svg2357"
   sodipodi:version="0.32"
   inkscape:version="0.45"
   sodipodi:modified="true">
  <defs
     id="defs2359">
    <filter
       id="filter3656">
      <feGaussianBlur
         id="feGaussianBlur3658"
         stdDeviation="2.2506447"
         inkscape:collect="always" />
    </filter>
    <linearGradient
       inkscape:collect="always"
       xlink:href="#linearGradient3250"
       id="linearGradient2287"
       gradientUnits="userSpaceOnUse"
       x1="26.929329"
       y1="20.9065"
       x2="18.848137"
       y2="22.208611"
       gradientTransform="matrix(-0.2165963,0.812271,-0.8192895,-0.1889973,27.295684,3.267965)" />
    <linearGradient
       inkscape:collect="always"
       xlink:href="#linearGradient3250"
       id="linearGradient2290"
       gradientUnits="userSpaceOnUse"
       x1="26.929329"
       y1="20.9065"
       x2="18.848137"
       y2="22.208611"
       gradientTransform="matrix(-0.2165963,0.812271,-0.8192895,-0.1889973,23.295684,3.267965)" />
    <linearGradient
       inkscape:collect="always"
       xlink:href="#linearGradient3228"
       id="linearGradient2278"
       gradientUnits="userSpaceOnUse"
       x1="19.014454"
       y1="15.864811"
       x2="27.933493"
       y2="24.831848"
       gradientTransform="matrix(0.5858982,0.6028445,-0.582762,0.6060888,23.779163,-2.670758)" />
    <linearGradient
       inkscape:collect="always"
       xlink:href="#linearGradient3220"
       id="linearGradient2276"
       gradientUnits="userSpaceOnUse"
       x1="27.010117"
       y1="23.672857"
       x2="20.707037"
       y2="17.566504"
       gradientTransform="matrix(0.5858982,0.6028445,-0.582762,0.6060888,23.779163,-2.670758)" />
    <linearGradient
       inkscape:collect="always"
       xlink:href="#linearGradient3180"
       id="linearGradient2273"
       gradientUnits="userSpaceOnUse"
       x1="18.710375"
       y1="19.813564"
       x2="30"
       y2="19.813564"
       gradientTransform="translate(0.353486,-0.619608)" />
    <linearGradient
       inkscape:collect="always"
       xlink:href="#linearGradient3250"
       id="linearGradient2268"
       gradientUnits="userSpaceOnUse"
       x1="26.929329"
       y1="20.9065"
       x2="18.848137"
       y2="22.208611"
       gradientTransform="matrix(-0.2165963,0.812271,-0.8192895,-0.1889973,23.295684,3.267965)" />
    <linearGradient
       inkscape:collect="always"
       xlink:href="#linearGradient3250"
       id="linearGradient2265"
       gradientUnits="userSpaceOnUse"
       x1="26.929329"
       y1="20.9065"
       x2="18.848137"
       y2="22.208611"
       gradientTransform="matrix(-0.2165963,0.812271,-0.8192895,-0.1889973,27.295684,3.267965)" />
    <linearGradient
       id="linearGradient3250">
      <stop
         style="stop-color:#6c0000;stop-opacity:1"
         offset="0"
         id="stop3252" />
      <stop
         style="stop-color:#a40000;stop-opacity:1"
         offset="1"
         id="stop3254" />
    </linearGradient>
    <linearGradient
       inkscape:collect="always"
       xlink:href="#linearGradient3250"
       id="linearGradient2262"
       gradientUnits="userSpaceOnUse"
       x1="26.929329"
       y1="20.9065"
       x2="18.848137"
       y2="22.208611"
       gradientTransform="matrix(-0.2165963,0.812271,-0.8192895,-0.1889973,31.966721,3.425248)" />
    <linearGradient
       id="linearGradient3228">
      <stop
         style="stop-color:#204a87;stop-opacity:1"
         offset="0"
         id="stop3230" />
      <stop
         style="stop-color:#000000;stop-opacity:1"
         offset="1"
         id="stop3232" />
    </linearGradient>
    <linearGradient
       inkscape:collect="always"
       xlink:href="#linearGradient3228"
       id="linearGradient2254"
       gradientUnits="userSpaceOnUse"
       x1="19.014454"
       y1="15.864811"
       x2="27.933493"
       y2="24.831848"
       gradientTransform="matrix(0.5858982,0.6028445,-0.582762,0.6060888,23.779163,-2.670758)" />
    <linearGradient
       id="linearGradient3220">
      <stop
         style="stop-color:#000000;stop-opacity:1"
         offset="0"
         id="stop3222" />
      <stop
         style="stop-color:#c1c3c0;stop-opacity:1"
         offset="1"
         id="stop3224" />
    </linearGradient>
    <linearGradient
       inkscape:collect="always"
       xlink:href="#linearGradient3220"
       id="linearGradient2252"
       gradientUnits="userSpaceOnUse"
       x1="27.010117"
       y1="23.672857"
       x2="20.707037"
       y2="17.566504"
       gradientTransform="matrix(0.5858982,0.6028445,-0.582762,0.6060888,23.779163,-2.670758)" />
    <linearGradient
       id="linearGradient3180">
      <stop
         style="stop-color:#f57900;stop-opacity:1"
         offset="0"
         id="stop3182" />
      <stop
         style="stop-color:#f57900;stop-opacity:0"
         offset="1"
         id="stop3184" />
    </linearGradient>
    <linearGradient
       inkscape:collect="always"
       xlink:href="#linearGradient3180"
       id="linearGradient2249"
       gradientUnits="userSpaceOnUse"
       x1="18.710375"
       y1="19.813564"
       x2="30"
       y2="19.813564"
       gradientTransform="translate(0.353486,-0.619608)" />
    <linearGradient
       id="linearGradient4467">
      <stop
         style="stop-color:#3465a4;stop-opacity:0.63636363"
         offset="0"
         id="stop4469" />
      <stop
         style="stop-color:#3465a4;stop-opacity:0"
         offset="1"
         id="stop4471" />
    </linearGradient>
    <linearGradient
       inkscape:collect="always"
       xlink:href="#linearGradient4467"
       id="linearGradient2245"
       gradientUnits="userSpaceOnUse"
       gradientTransform="matrix(0.6798311,0,0,0.7929132,42.482412,21.618251)"
       x1="-51.34446"
       y1="24.178755"
       x2="-28.773472"
       y2="24.178755" />
  </defs>
  <sodipodi:namedview
     id="base"
     pagecolor="#ffffff"
     bordercolor="#666666"
     borderopacity="1.0"
     inkscape:pageopacity="0.0"
     inkscape:pageshadow="2"
     inkscape:zoom="7"
     inkscape:cx="24"
     inkscape:cy="24"
     inkscape:current-layer="layer1"
     showgrid="true"
     inkscape:grid-bbox="true"
     inkscape:document-units="px"
     inkscape:window-width="808"
     inkscape:window-height="622"
     inkscape:window-x="236"
     inkscape:window-y="201" />
  <metadata
     id="metadata2362">
    <rdf:RDF>
      <cc:Work
         rdf:about="">
        <dc:format>image/svg+xml</dc:format>
        <dc:type
           rdf:resource="http://purl.org/dc/dcmitype/StillImage" />
      </cc:Work>
    </rdf:RDF>
  </metadata>
  <g
     id="layer1"
     inkscape:label="Layer 1"
     inkscape:groupmode="layer">
    <path
       id="use3391"
       style="fill:#2e3436;fill-rule:evenodd;stroke:#2e3436;stroke-width:1px;stroke-linecap:butt;stroke-linejoin:miter;stroke-opacity:1;filter:url(#filter3656)"
       d="M 15.283051,10.755392 L 15.220551,10.974142 L 0.970552,10.849142 L 1.001802,16.255392 C 0.616576,16.774164 0.317702,17.414484 0.126802,18.130392 C -0.274208,19.634246 -0.033221,21.063049 0.658052,21.880392 L -11.998199,53.505392 L 1.345552,53.724142 L 10.658051,22.724142 L 10.689301,22.724142 C 10.983291,22.737385 11.273038,22.684912 11.564301,22.567892 L 1.876802,55.099142 L 2.126802,86.880392 L 11.783051,42.911642 L 11.751801,22.474142 C 11.793872,22.453232 11.835141,22.435018 11.876801,22.411642 L 11.970551,38.255392 L 15.439301,22.036642 L 15.314301,14.036642 L 15.345551,10.974142 L 15.283051,10.974142 L 15.283051,10.755392 z M 26.095551,20.942892 C 25.506387,20.942234 24.975137,21.141863 24.595551,21.536642 C 23.583323,22.589387 24.015726,24.694183 25.533051,26.255392 C 27.050375,27.816602 29.083324,28.245636 30.095551,27.192892 C 30.374954,26.902305 30.52624,26.518324 30.595551,26.099142 L 30.783051,26.786642 L 52.533051,45.099142 L 51.626801,43.474142 L 30.658051,25.536642 C 30.622611,24.541086 30.109462,23.389665 29.189301,22.442892 C 28.240974,21.467136 27.077491,20.943988 26.095551,20.942892 z M 30.470551,26.849142 L 29.408051,28.192892 L 51.408051,47.130392 L 52.345551,45.536642 L 30.470551,26.849142 z " />
    <path
       id="path2161"
       style="fill:#eeeeec;fill-rule:evenodd;stroke:#babdb6;stroke-width:1px;stroke-linecap:butt;stroke-linejoin:miter;stroke-opacity:1"
       d="M 13.67003,11.035527 L -0.715207,10.913604 L -0.632655,22.400056 L 13.603148,22.30565 L 13.67003,11.035527 z " />
    <path
       id="use3242"
       style="fill:url(#linearGradient2290);fill-opacity:1;fill-rule:nonzero;stroke:#4b0000;stroke-width:1.1278609;stroke-linecap:round;stroke-linejoin:miter;stroke-miterlimit:4;stroke-dasharray:none;stroke-opacity:1"
       d="M 0.001793,22.612566 C -1.422652,22.284891 -2.122493,20.312067 -1.561112,18.206797 C -0.999731,16.101527 0.610159,14.661522 2.034141,14.990935 C 3.458586,15.318609 4.158427,17.291434 3.597046,19.396704 C 3.035665,21.501974 1.425775,22.941979 0.001793,22.612566 z " />
    <path
       id="use3258"
       style="fill:url(#linearGradient2287);fill-opacity:1;fill-rule:nonzero;stroke:#4b0000;stroke-width:1.1278609;stroke-linecap:round;stroke-linejoin:miter;stroke-miterlimit:4;stroke-dasharray:none;stroke-opacity:1"
       d="M 4.001793,22.612566 C 2.577348,22.284891 1.877507,20.312067 2.438888,18.206797 C 3.000269,16.101527 4.610159,14.661522 6.034141,14.990935 C 7.458586,15.318609 8.158427,17.291434 7.597046,19.396704 C 7.035665,21.501974 5.425775,22.941979 4.001793,22.612566 z " />
    <use
       xlink:href="#use3242"
       height="48"
       width="48"
       y="0"
       x="0"
       id="use3260"
       transform="translate(8.6710374,0.157284)" />
    <path
       id="path3141"
       style="fill:#fce94f;fill-opacity:1;fill-rule:nonzero;stroke:none;stroke-width:1;stroke-linecap:round;stroke-linejoin:miter;stroke-miterlimit:4;stroke-opacity:1"
       d="M 31.135559,17.029943 C 31.135559,23.147021 27.969533,29.910896 24.184611,29.910896 C 20.399689,29.910896 17.01834,24.890517 16.843388,19.080295 C 16.659271,12.965643 22.682486,14.733046 23.646299,1.694147 C 26.211235,3.481428 31.135559,10.912865 31.135559,17.029943 C 31.135559,17.029943 31.566208,16.737036 31.566208,16.737036" />
    <path
       id="path2157"
       style="fill:#babdb6;fill-rule:evenodd;stroke:#888a85;stroke-width:1px;stroke-linecap:butt;stroke-linejoin:miter;stroke-opacity:1"
       d="M 10.289075,38.310285 L 13.767051,22.102444 L 13.598999,10.808254 L 10.199425,22.481435 L 10.289075,38.310285 z " />
    <path
       id="path2159"
       style="fill:#2e3436;fill-rule:evenodd;stroke:#888a85;stroke-width:1px;stroke-linecap:butt;stroke-linejoin:miter;stroke-opacity:1"
       d="M 0.198137,55.159028 L 10.052066,21.987303 L 10.086081,42.987253 L 0.430971,86.94871 L 0.198137,55.159028 z " />
    <path
       id="path3137"
       style="fill:#c17d11;fill-opacity:1;fill-rule:evenodd;stroke:#8f5902;stroke-width:1px;stroke-linecap:butt;stroke-linejoin:miter;stroke-opacity:1"
       d="M 29.107728,26.850287 L 28.724587,25.370939 L 49.940788,43.535395 L 50.848287,45.160253 L 29.107728,26.850287 z " />
    <path
       id="path3135"
       style="fill:#e9b96e;fill-rule:evenodd;stroke:#c17d11;stroke-width:1px;stroke-linecap:butt;stroke-linejoin:miter;stroke-opacity:1"
       d="M 27.710902,28.249113 L 49.710902,47.189242 L 50.662188,45.612887 L 28.801214,26.914895 L 27.710902,28.249113 z " />
    <path
       id="path3139"
       style="fill:url(#linearGradient2276);fill-opacity:1;fill-rule:nonzero;stroke:url(#linearGradient2278);stroke-width:1.1278609;stroke-linecap:round;stroke-linejoin:miter;stroke-miterlimit:4;stroke-dasharray:none;stroke-opacity:1"
       d="M 28.423063,27.250024 C 27.410644,28.304265 25.358335,27.892151 23.839785,26.329679 C 22.321235,24.767208 21.911841,22.646416 22.925513,21.593465 C 23.937932,20.539225 25.990242,20.951338 27.508792,22.51381 C 29.027341,24.076282 29.436735,26.197073 28.423063,27.250024 z " />
    <path
       id="use3168"
       style="fill:url(#linearGradient2273);fill-opacity:1;fill-rule:nonzero;stroke:none;stroke-width:1;stroke-linecap:round;stroke-linejoin:miter;stroke-miterlimit:4;stroke-opacity:1"
       d="M 30.023352,19.988327 C 30.023352,23.947209 27.596289,28.324689 24.694783,28.324689 C 21.793277,28.324689 19.201148,25.075574 19.06703,21.315284 C 18.925887,17.357972 23.54326,18.501809 24.282115,10.063226 C 26.248385,11.219928 30.023352,16.029444 30.023352,19.988327 C 30.023352,19.988327 30.353486,19.798762 30.353486,19.798762" />
    <path
       id="path2163"
       style="fill:#e9b96e;fill-opacity:1;fill-rule:evenodd;stroke:#8f5902;stroke-width:1px;stroke-linecap:butt;stroke-linejoin:miter;stroke-opacity:1"
       d="M -0.669344,21.070481 L 9.53251,20.971509 L -0.339135,53.775084 L -13.675909,53.56746 L -0.669344,21.070481 z " />
    <path
       id="use3266"
       style="fill:#eeeeec;fill-rule:evenodd;stroke:#babdb6;stroke-width:1px;stroke-linecap:butt;stroke-linejoin:miter;stroke-opacity:1"
       d="M 13.67003,11.035527 L -0.715207,10.913604 L -0.632655,22.400056 L 13.603148,22.30565 L 13.67003,11.035527 z " />
    <path
       id="use3268"
       style="fill:url(#linearGradient2268);fill-opacity:1;fill-rule:nonzero;stroke:#4b0000;stroke-width:1.1278609;stroke-linecap:round;stroke-linejoin:miter;stroke-miterlimit:4;stroke-dasharray:none;stroke-opacity:1"
       d="M 0.001793,22.612566 C -1.422652,22.284891 -2.122493,20.312067 -1.561112,18.206797 C -0.999731,16.101527 0.610159,14.661522 2.034141,14.990935 C 3.458586,15.318609 4.158427,17.291434 3.597046,19.396704 C 3.035665,21.501974 1.425775,22.941979 0.001793,22.612566 z " />
    <path
       id="use3270"
       style="fill:url(#linearGradient2265);fill-opacity:1;fill-rule:nonzero;stroke:#4b0000;stroke-width:1.1278609;stroke-linecap:round;stroke-linejoin:miter;stroke-miterlimit:4;stroke-dasharray:none;stroke-opacity:1"
       d="M 4.001793,22.612566 C 2.577348,22.284891 1.877507,20.312067 2.438888,18.206797 C 3.000269,16.101527 4.610159,14.661522 6.034141,14.990935 C 7.458586,15.318609 8.158427,17.291434 7.597046,19.396704 C 7.035665,21.501974 5.425775,22.941979 4.001793,22.612566 z " />
    <path
       id="use3272"
       style="fill:url(#linearGradient2262);fill-opacity:1;fill-rule:nonzero;stroke:#4b0000;stroke-width:1.1278609;stroke-linecap:round;stroke-linejoin:miter;stroke-miterlimit:4;stroke-dasharray:none;stroke-opacity:1"
       d="M 8.67283,22.76985 C 7.248385,22.442175 6.548544,20.469351 7.109925,18.364081 C 7.671306,16.258811 9.281196,14.818805 10.705178,15.148218 C 12.129623,15.475893 12.829464,17.448717 12.268083,19.553987 C 11.706702,21.659257 10.096812,23.099263 8.67283,22.76985 z " />
    <path
       id="use3274"
       style="fill:#fce94f;fill-opacity:1;fill-rule:nonzero;stroke:none;stroke-width:1;stroke-linecap:round;stroke-linejoin:miter;stroke-miterlimit:4;stroke-opacity:1"
       d="M 31.135559,17.029943 C 31.135559,23.147021 27.969533,29.910896 24.184611,29.910896 C 20.399689,29.910896 17.01834,24.890517 16.843388,19.080295 C 16.659271,12.965643 22.682486,14.733046 23.646299,1.694147 C 26.211235,3.481428 31.135559,10.912865 31.135559,17.029943 C 31.135559,17.029943 31.566208,16.737036 31.566208,16.737036" />
    <path
       id="use3276"
       style="fill:#babdb6;fill-rule:evenodd;stroke:#888a85;stroke-width:1px;stroke-linecap:butt;stroke-linejoin:miter;stroke-opacity:1"
       d="M 10.289075,38.310285 L 13.767051,22.102444 L 13.598999,10.808254 L 10.199425,22.481435 L 10.289075,38.310285 z " />
    <path
       id="use3278"
       style="fill:#2e3436;fill-rule:evenodd;stroke:#888a85;stroke-width:1px;stroke-linecap:butt;stroke-linejoin:miter;stroke-opacity:1"
       d="M 0.198137,55.159028 L 10.052066,21.987303 L 10.086081,42.987253 L 0.430971,86.94871 L 0.198137,55.159028 z " />
    <path
       id="use3280"
       style="fill:#c17d11;fill-opacity:1;fill-rule:evenodd;stroke:#8f5902;stroke-width:1px;stroke-linecap:butt;stroke-linejoin:miter;stroke-opacity:1"
       d="M 29.107728,26.850287 L 28.724587,25.370939 L 49.940788,43.535395 L 50.848287,45.160253 L 29.107728,26.850287 z " />
    <path
       id="use3282"
       style="fill:#e9b96e;fill-rule:evenodd;stroke:#c17d11;stroke-width:1px;stroke-linecap:butt;stroke-linejoin:miter;stroke-opacity:1"
       d="M 27.710902,28.249113 L 49.710902,47.189242 L 50.662188,45.612887 L 28.801214,26.914895 L 27.710902,28.249113 z " />
    <path
       id="use3284"
       style="fill:url(#linearGradient2252);fill-opacity:1;fill-rule:nonzero;stroke:url(#linearGradient2254);stroke-width:1.1278609;stroke-linecap:round;stroke-linejoin:miter;stroke-miterlimit:4;stroke-dasharray:none;stroke-opacity:1"
       d="M 28.423063,27.250024 C 27.410644,28.304265 25.358335,27.892151 23.839785,26.329679 C 22.321235,24.767208 21.911841,22.646416 22.925513,21.593465 C 23.937932,20.539225 25.990242,20.951338 27.508792,22.51381 C 29.027341,24.076282 29.436735,26.197073 28.423063,27.250024 z " />
    <path
       id="use3286"
       style="fill:url(#linearGradient2249);fill-opacity:1;fill-rule:nonzero;stroke:none;stroke-width:1;stroke-linecap:round;stroke-linejoin:miter;stroke-miterlimit:4;stroke-opacity:1"
       d="M 30.023352,19.988327 C 30.023352,23.947209 27.596289,28.324689 24.694783,28.324689 C 21.793277,28.324689 19.201148,25.075574 19.06703,21.315284 C 18.925887,17.357972 23.54326,18.501809 24.282115,10.063226 C 26.248385,11.219928 30.023352,16.029444 30.023352,19.988327 C 30.023352,19.988327 30.353486,19.798762 30.353486,19.798762" />
    <path
       id="use3288"
       style="fill:#e9b96e;fill-opacity:1;fill-rule:evenodd;stroke:#8f5902;stroke-width:1px;stroke-linecap:butt;stroke-linejoin:miter;stroke-opacity:1"
       d="M -0.669344,21.070481 L 9.53251,20.971509 L -0.339135,53.775084 L -13.675909,53.56746 L -0.669344,21.070481 z " />
    <path
       id="path4457"
       style="fill:url(#linearGradient2245);fill-opacity:1;fill-rule:evenodd;stroke:none;stroke-width:1px;stroke-linecap:butt;stroke-linejoin:miter;stroke-opacity:1"
       d="M 7.612126,43.28895 C 12.369515,31.984471 17.643702,28.36174 22.921312,24.789904 L 22.595022,27.965081 C 15.964787,32.487392 11.10943,44.827183 7.576852,56.789904 L 7.612126,43.28895 z " />
  </g>
</svg>
