<?xml version="1.0" encoding="UTF-8" standalone="no"?>
<!-- Created with Inkscape (http://www.inkscape.org/) -->
<svg
   xmlns:dc="http://purl.org/dc/elements/1.1/"
   xmlns:cc="http://web.resource.org/cc/"
   xmlns:rdf="http://www.w3.org/1999/02/22-rdf-syntax-ns#"
   xmlns:svg="http://www.w3.org/2000/svg"
   xmlns="http://www.w3.org/2000/svg"
   xmlns:xlink="http://www.w3.org/1999/xlink"
   xmlns:sodipodi="http://sodipodi.sourceforge.net/DTD/sodipodi-0.dtd"
   xmlns:inkscape="http://www.inkscape.org/namespaces/inkscape"
   width="32px"
   height="32px"
   id="svg5151"
   sodipodi:version="0.32"
   inkscape:version="0.45"
   sodipodi:docname="template.svg"
   sodipodi:docbase="/home/noemie/Dessin vectoriel/atomes"
   inkscape:output_extension="org.inkscape.output.svg.inkscape"
   sodipodi:modified="true">
  <defs
     id="defs5153">
    <linearGradient
       id="linearGradient3291">
      <stop
         style="stop-color:#000000;stop-opacity:1"
         offset="0"
         id="stop3293" />
      <stop
         style="stop-color:#000000;stop-opacity:0"
         offset="1"
         id="stop3295" />
    </linearGradient>
    <radialGradient
       cx="63.912209"
       cy="115.70919"
       r="63.912209"
       fx="75.857941"
       fy="115.70919"
       id="radialGradient2595"
       xlink:href="#linearGradient3291"
       gradientUnits="userSpaceOnUse"
       gradientTransform="matrix(1,0,0,0.197802,0,92.82166)" />
    <radialGradient
       inkscape:collect="always"
       xlink:href="#linearGradient3291"
       id="radialGradient2195"
       gradientUnits="userSpaceOnUse"
       gradientTransform="matrix(0.2221484,0,0,1.8309037e-2,2.1697681,28.001874)"
       cx="63.912209"
       cy="115.70919"
       fx="75.857941"
       fy="115.70919"
       r="63.912209" />
  </defs>
  <sodipodi:namedview
     id="base"
     pagecolor="#ffffff"
     bordercolor="#666666"
     borderopacity="1.0"
     inkscape:pageopacity="0.0"
     inkscape:pageshadow="2"
     inkscape:zoom="11.197802"
     inkscape:cx="16"
     inkscape:cy="16"
     inkscape:current-layer="layer1"
     showgrid="false"
     inkscape:grid-bbox="true"
     inkscape:document-units="px"
     inkscape:window-width="910"
     inkscape:window-height="626"
     inkscape:window-x="0"
     inkscape:window-y="49" />
  <metadata
     id="metadata5156">
    <rdf:RDF>
      <cc:Work
         rdf:about="">
        <dc:format>image/svg+xml</dc:format>
        <dc:type
           rdf:resource="http://purl.org/dc/dcmitype/StillImage" />
      </cc:Work>
    </rdf:RDF>
  </metadata>
  <g
     id="layer1"
     inkscape:label="Layer 1"
     inkscape:groupmode="layer">
    <rect
       id="rect1951"
       style="opacity:0.61162792;fill:#555753;fill-opacity:1;fill-rule:nonzero;stroke:none;stroke-width:0.69999999;stroke-linecap:round;stroke-linejoin:miter;stroke-miterlimit:4;stroke-dasharray:none;stroke-opacity:1"
       y="23.982933"
       x="2.0588049e-11"
       height="8.017066"
       width="32.054585" />
    <path
       id="path2276"
       style="fill:#ffffff;fill-opacity:0.75688076;fill-rule:nonzero;stroke:none;stroke-width:0.5;stroke-linecap:round;stroke-linejoin:round;stroke-miterlimit:4;stroke-dasharray:none;stroke-dashoffset:4;stroke-opacity:1"
       d="M 8.7813172,0.76042511 L 8.7813172,-1.4790454 L 8.7813172,0.76042511 z " />
    <text
       xml:space="preserve"
       id="text2840"
       style="font-size:9.61590385px;font-style:normal;font-weight:normal;fill:#eeeeec;fill-opacity:1;stroke:none;stroke-width:1px;stroke-linecap:butt;stroke-linejoin:miter;stroke-opacity:1;font-family:Bitstream Vera Sans"
       y="31.329607"
       x="12.822794"><tspan
         id="tspan2842"
         y="31.329607"
         x="12.822794">Ar</tspan></text>
    <g
       id="g1317"
       transform="matrix(0.1598834,0,0,0.1198188,20.924697,41.996829)">
      <path
         style="fill:#adadad"
         d="M -130.78572,-249.57144 L -130.78572,-349.57144 L -30.78572,-349.57144 L 69.21428,-349.57144 L 69.21428,-249.57144 L 69.21428,-149.57144 L -30.78572,-149.57144 L -130.78572,-149.57144 L -130.78572,-249.57144 z "
         id="path1333" />
      <path
         style="fill:#8e8e8e"
         d="M -130.78572,-249.57144 L -130.78572,-349.57144 L -30.78572,-349.57144 L 69.21428,-349.57144 L 69.21428,-343.82454 C 69.21428,-338.33524 69.129337,-338.16923 67.319213,-340.12084 C 66.276922,-341.2446 64.488943,-342.16403 63.345928,-342.16403 C 61.417316,-342.16403 54.384404,-336.85435 45.478197,-328.67431 C 34.324581,-318.43011 23.785897,-309.53174 20.793441,-307.83167 C 15.907202,-305.0557 16.574332,-303.10658 22.744446,-302.13145 C 27.907917,-301.31542 28.330498,-301.48607 35.277627,-307.19262 C 39.231876,-310.44074 43.357254,-314.58748 44.44513,-316.40761 C 46.248104,-319.42419 65.400881,-332.28749 68.08943,-332.28749 C 68.888249,-332.28749 69.21428,-305.80823 69.21428,-240.92946 L 69.21428,-149.57144 L -30.78572,-149.57144 L -130.78572,-149.57144 L -130.78572,-249.57144 z M 25.599793,-269.8262 C 27.2897,-271.96923 28.098259,-274.84422 28.501658,-280.14431 C 29.045016,-287.28321 28.950881,-287.63667 25.182798,-292.6056 C 21.659088,-297.25228 20.849171,-297.71959 16.319399,-297.71959 C 11.821752,-297.71959 11.019161,-297.26671 8.114767,-293.08996 C 2.8551816,-285.52627 2.4087567,-277.2698 7.6517722,-284.52703 C 12.805513,-291.66069 21.134798,-289.24691 20.328228,-280.85346 C 20.073358,-278.20121 19.221565,-277.04906 16.824798,-276.11465 C 6.166052,-271.95921 6.1683215,-266.85539 16.828922,-266.85539 C 22.27913,-266.85539 23.613575,-267.30738 25.599793,-269.8262 z "
         id="path1331" />
      <path
         style="fill:#757575"
         d="M -130.78572,-249.57144 L -130.78572,-349.57144 L -30.78572,-349.57144 L 69.21428,-349.57144 L 69.21428,-345.8942 C 69.21428,-342.41986 69.071337,-342.29456 66.623606,-343.62323 C 63.127979,-345.52073 62.216808,-344.92076 43.825679,-328.61173 C 35.276456,-321.03039 25.609969,-312.78375 22.344601,-310.28588 C 18.28542,-307.18076 16.400757,-304.93455 16.386052,-303.18424 C 16.370073,-301.28339 15.396954,-300.32971 12.606819,-299.48053 C 9.3790158,-298.49815 8.3195235,-297.17283 5.0938655,-290.08255 C 2.2858759,-283.91035 1.635337,-281.47039 2.5149018,-280.40959 C 3.9381142,-278.69311 9.5396686,-281.7079 10.506954,-284.71096 C 11.294757,-287.15678 16.7357,-287.19895 18.426125,-284.77235 C 20.022031,-282.48142 19.067669,-279.20107 16.805254,-279.20107 C 14.485627,-279.20107 7.0381142,-272.01368 7.0381142,-269.77507 C 7.0381142,-267.33229 13.25999,-264.38625 18.419016,-264.38625 C 21.737886,-264.38625 23.409078,-265.25586 26.431171,-268.55537 C 30.077679,-272.53662 30.248052,-273.07902 30.212239,-280.59241 C 30.191617,-284.91976 29.840176,-289.84922 29.431264,-291.54675 C 28.769492,-294.29398 29.234881,-294.9959 33.666062,-297.93381 C 36.404114,-299.74917 42.581005,-304.9339 47.392498,-309.45544 C 54.658332,-316.28342 66.515088,-324.88008 68.666591,-324.88008 C 68.967824,-324.88008 69.21428,-285.43564 69.21428,-237.22576 L 69.21428,-149.57144 L -30.78572,-149.57144 L -130.78572,-149.57144 L -130.78572,-249.57144 z "
         id="path1329" />
      <path
         style="fill:#ab0000"
         d="M -130.78572,-249.57144 L -130.78572,-349.57144 L -34.412663,-349.57144 C 29.145192,-349.57144 61.960394,-349.15107 61.960394,-348.33687 C 61.960394,-347.65786 61.582601,-347.1023 61.12085,-347.1023 C 60.659099,-347.1023 58.871327,-345.46001 57.148031,-343.45276 C 53.946166,-339.72331 45.62829,-332.38276 27.245368,-317.06356 C 21.545886,-312.31397 15.716871,-307.19079 14.292,-305.67872 C 12.86713,-304.16666 9.7826945,-301.78442 7.4376893,-300.38486 C 1.4956686,-296.8385 -3.3245801,-287.71692 -3.3245801,-280.01891 C -3.3245801,-276.85305 -2.8511915,-274.2628 -2.2726112,-274.2628 C -1.6940309,-274.2628 1.2581867,-275.92946 4.2878655,-277.9665 C 7.3175339,-280.00354 10.574726,-281.67021 11.526052,-281.67021 C 14.678498,-281.67021 13.320425,-278.13815 8.7172023,-274.365 C 6.2210158,-272.31893 3.9230883,-269.85138 3.6107152,-268.88156 C 2.6725287,-265.96884 7.5206531,-261.68817 12.517638,-261.01716 C 18.509834,-260.21251 24.281596,-263.36696 32.570083,-271.97645 C 36.068622,-275.61048 43.063441,-282.18762 48.114125,-286.59231 C 53.164808,-290.99699 59.763513,-296.96921 62.777917,-299.86391 C 65.792332,-302.75861 68.473679,-305.127 68.736467,-305.127 C 68.999264,-305.127 69.21428,-270.127 69.21428,-227.34922 L 69.21428,-149.57144 L -30.78572,-149.57144 L -130.78572,-149.57144 L -130.78572,-249.57144 z "
         id="path1327" />
      <path
         style="fill:#920000"
         d="M -130.78572,-151.82538 C -130.78572,-153.06503 -129.7365,-155.20454 -128.45411,-156.57981 C -125.21732,-160.05108 -9.345233,-260.07358 -2.6475749,-265.17788 C 2.8473784,-269.3656 4.5050987,-270.19867 3.5042696,-268.26942 C 2.3877722,-266.11719 7.966767,-261.62827 12.517638,-261.01716 C 18.509834,-260.21251 24.281596,-263.36696 32.570083,-271.97645 C 36.068622,-275.61048 43.063441,-282.18762 48.114125,-286.59231 C 53.164808,-290.99699 59.763513,-296.96921 62.777917,-299.86391 C 65.792332,-302.75861 68.473679,-305.127 68.736467,-305.127 C 68.999264,-305.127 69.21428,-270.127 69.21428,-227.34922 L 69.21428,-149.57144 L -30.78572,-149.57144 C -126.91225,-149.57144 -130.78572,-149.65875 -130.78572,-151.82538 z M -130.78572,-254.98301 L -130.78572,-349.57144 L -34.412663,-349.57144 C 29.145192,-349.57144 61.960394,-349.15107 61.960394,-348.33687 C 61.960394,-347.65786 61.582601,-347.1023 61.12085,-347.1023 C 60.659099,-347.1023 58.871327,-345.46001 57.148031,-343.45276 C 53.946166,-339.72331 45.62829,-332.38276 27.245368,-317.06356 C 21.545886,-312.31397 15.716871,-307.19079 14.292,-305.67872 C 12.86713,-304.16666 9.7826945,-301.78442 7.4376893,-300.38486 C 1.4409847,-296.80586 -3.3245801,-287.72401 -3.3245801,-279.87492 C -3.3245801,-274.45292 -3.144777,-274.03084 -1.1056993,-274.66611 C 0.7525287,-275.24503 0.54198984,-274.64553 -2.4010361,-270.97774 C -6.4246319,-265.96325 -126.21554,-161.85082 -128.97225,-160.97243 C -130.68781,-160.42577 -130.78572,-165.5017 -130.78572,-254.98301 z "
         id="path1325" />
      <path
         style="fill:#4e0000"
         d="M -130.78572,-151.27258 C -130.78572,-152.75939 -8.0296993,-260.04942 -0.2152744,-265.3925 C 2.6484976,-267.3506 2.8650883,-267.31708 5.3548499,-264.53048 C 9.0434924,-260.40207 15.830239,-259.7172 21.649513,-262.88614 C 24.157285,-264.25177 29.071544,-268.34241 32.570083,-271.97645 C 36.068622,-275.61048 43.063441,-282.18762 48.114125,-286.59231 C 53.164808,-290.99699 59.763513,-296.96921 62.777917,-299.86391 C 65.792332,-302.75861 68.473679,-305.127 68.736467,-305.127 C 68.999264,-305.127 69.21428,-270.127 69.21428,-227.34922 L 69.21428,-149.57144 L -30.78572,-149.57144 C -115.04619,-149.57144 -130.78572,-149.83919 -130.78572,-151.27258 z M -130.78572,-255.61219 L -130.78572,-349.57144 L -34.412663,-349.57144 C 29.145192,-349.57144 61.960394,-349.15107 61.960394,-348.33687 C 61.960394,-347.65786 61.582601,-347.1023 61.12085,-347.1023 C 60.659099,-347.1023 58.871327,-345.46001 57.148031,-343.45276 C 53.946166,-339.72331 45.62829,-332.38276 27.245368,-317.06356 C 21.545886,-312.31397 15.716871,-307.19079 14.292,-305.67872 C 12.86713,-304.16666 9.7826945,-301.78442 7.4376893,-300.38486 C 4.6804769,-298.73928 1.9980209,-295.65682 -0.15447648,-291.66055 C -2.945119,-286.47953 -3.4383314,-284.47814 -3.206549,-279.27562 C -2.9774298,-274.13272 -3.3630568,-272.51867 -5.4589428,-269.84813 C -8.1520516,-266.41662 -126.55829,-163.58559 -129.21493,-162.37106 C -130.60999,-161.73329 -130.78572,-172.16444 -130.78572,-255.61219 z "
         id="path1323" />
      <path
         style="fill:#2d0000"
         d="M -130.78572,-150.76258 C -130.78572,-151.4177 -129.96966,-152.48101 -128.97225,-153.1255 C -127.97484,-153.76998 -99.179502,-178.49858 -64.982611,-208.07791 C -30.78572,-237.65725 -1.3453884,-262.79643 0.44035254,-263.94274 C 3.5644976,-265.94821 3.7948914,-265.926 6.5386531,-263.35475 C 9.8904562,-260.2137 16.72457,-259.77767 21.838239,-262.37861 C 23.672259,-263.31144 28.670239,-267.62561 32.94485,-271.96565 C 37.219461,-276.3057 44.21428,-282.89146 48.488891,-286.60069 C 52.763503,-290.30991 58.966467,-295.99574 62.273264,-299.23586 C 65.580052,-302.47599 68.49456,-305.127 68.749948,-305.127 C 69.005327,-305.127 69.21428,-270.127 69.21428,-227.34922 L 69.21428,-149.57144 L -30.78572,-149.57144 C -94.330421,-149.57144 -130.78572,-150.00567 -130.78572,-150.76258 z M -130.78572,-256.36156 L -130.78572,-349.57144 L -34.412663,-349.57144 C 29.145192,-349.57144 61.960394,-349.15107 61.960394,-348.33687 C 61.960394,-347.65786 61.509617,-347.1023 60.958663,-347.1023 C 60.40772,-347.1023 58.411855,-345.26155 56.52341,-343.01174 C 54.634974,-340.76194 50.305959,-336.60854 46.903378,-333.78197 C 30.08971,-319.81463 18.607544,-309.94442 15.32827,-306.63962 C 13.333451,-304.62928 9.7120727,-301.78407 7.280767,-300.31695 C 1.6348292,-296.91002 -3.2619169,-288.02961 -3.3416164,-281.05292 C -3.4083728,-275.2084 -4.8041241,-271.95593 -9.024062,-267.81131 C -13.785606,-263.13475 -129.55834,-163.15169 -130.2119,-163.15169 C -130.5275,-163.15169 -130.78572,-205.09613 -130.78572,-256.36156 z "
         id="path1321" />
      <path
         style="fill:#000000"
         d="M -127.76883,-152.14814 C -125.82456,-153.56027 -96.3216,-178.85712 -62.206693,-208.36339 C -28.091786,-237.86966 0.49012456,-262.31732 1.3086634,-262.69153 C 2.1272023,-263.06574 3.8549432,-262.48903 5.1480935,-261.40995 C 8.1664147,-258.89127 17.285254,-258.84149 22.25742,-261.31654 C 24.322,-262.34425 28.853648,-266.11646 32.327762,-269.69924 C 35.801876,-273.28202 43.307544,-280.19295 49.007026,-285.05686 C 54.706508,-289.92078 61.410518,-296.14856 63.904829,-298.89638 C 66.39914,-301.64421 68.614166,-303.89243 68.827109,-303.89243 C 69.040052,-303.89243 69.21428,-269.17021 69.21428,-226.73193 L 69.21428,-149.57144 L -31.044787,-149.57606 L -131.30385,-149.58067 L -127.76883,-152.14814 z M -130.78572,-256.83232 L -130.78572,-349.57144 L -34.412663,-349.57144 C 29.145192,-349.57144 61.960394,-349.15107 61.960394,-348.33687 C 61.960394,-347.65786 61.107845,-347.1023 60.065824,-347.1023 C 59.023814,-347.1023 56.109306,-344.87985 53.58914,-342.16351 C 49.320311,-337.56239 31.179824,-321.76094 20.509617,-313.34927 C 17.94485,-311.32738 14.680601,-308.46336 13.255731,-306.98478 C 11.83086,-305.5062 8.4999795,-302.82811 5.8537619,-301.03347 C -0.2259687,-296.91024 -4.5496993,-288.59453 -4.8809117,-280.38782 C -5.010062,-277.1877 -5.4417304,-273.94102 -5.840176,-273.17296 C -6.2386216,-272.4049 -32.998819,-248.91452 -65.307292,-220.97212 C -97.615765,-193.02971 -125.56551,-168.80097 -127.41784,-167.13048 L -130.78572,-164.09319 L -130.78572,-256.83232 z "
         id="path1319" />
    </g>
  </g>
</svg>
