<?xml version="1.0" encoding="UTF-8" standalone="no"?>
<!-- Created with Inkscape (http://www.inkscape.org/) -->
<svg
   xmlns:dc="http://purl.org/dc/elements/1.1/"
   xmlns:cc="http://web.resource.org/cc/"
   xmlns:rdf="http://www.w3.org/1999/02/22-rdf-syntax-ns#"
   xmlns:svg="http://www.w3.org/2000/svg"
   xmlns="http://www.w3.org/2000/svg"
   xmlns:sodipodi="http://sodipodi.sourceforge.net/DTD/sodipodi-0.dtd"
   xmlns:inkscape="http://www.inkscape.org/namespaces/inkscape"
   width="40"
   height="40"
   id="svg6997"
   sodipodi:version="0.32"
   inkscape:version="0.44"
   sodipodi:docbase="/home/johann/Developpement/kdeedu-kalzium/kalzium/files"
   sodipodi:docname="2.svg"
   inkscape:export-filename="/home/carsten/svn/kdeedu/kalzium/data/iconsets/school/1.png"
   inkscape:export-xdpi="300.00000"
   inkscape:export-ydpi="300.00000"
   version="1.0">
  <defs
     id="defs6999" />
  <sodipodi:namedview
     id="base"
     pagecolor="#ffffff"
     bordercolor="#666666"
     borderopacity="1.0"
     inkscape:pageopacity="0.0"
     inkscape:pageshadow="2"
     inkscape:zoom="12.132883"
     inkscape:cx="40.477366"
     inkscape:cy="35.088643"
     inkscape:document-units="px"
     inkscape:current-layer="layer1"
     inkscape:window-width="1129"
     inkscape:window-height="687"
     inkscape:window-x="18"
     inkscape:window-y="93"
     width="40px"
     height="40px" />
  <metadata
     id="metadata7002">
    <rdf:RDF>
      <cc:Work
         rdf:about="">
        <dc:format>image/svg+xml</dc:format>
        <dc:type
           rdf:resource="http://purl.org/dc/dcmitype/StillImage" />
      </cc:Work>
    </rdf:RDF>
  </metadata>
  <g
     inkscape:label="Layer 1"
     inkscape:groupmode="layer"
     id="layer1"
     transform="translate(-0.625265,-0.625265)">
    <rect
       style="opacity:1;color:black;fill:#9ac6de;fill-opacity:1;fill-rule:evenodd;stroke:none;stroke-width:2.50000143;stroke-linecap:round;stroke-linejoin:round;marker:none;marker-start:none;marker-mid:none;marker-end:none;stroke-miterlimit:4;stroke-dasharray:none;stroke-dashoffset:0;stroke-opacity:1;visibility:visible;display:inline;overflow:visible"
       id="rect7005"
       width="39.957565"
       height="39.957565"
       x="0.62526524"
       y="0.70768589" />
    <path
       style="opacity:1;color:black;fill:white;fill-opacity:0.35;fill-rule:evenodd;stroke:none;stroke-width:0;stroke-linecap:round;stroke-linejoin:round;marker:none;marker-start:none;marker-mid:none;marker-end:none;stroke-miterlimit:4;stroke-dasharray:none;stroke-dashoffset:0;stroke-opacity:1;visibility:visible;display:inline;overflow:visible"
       d="M 31.929239,4.459942 C 30.703749,4.459942 29.651627,5.0594367 28.934044,5.9422578 C 27.680855,6.1164759 26.70293,7.0679156 26.70293,8.2650615 C 26.70293,8.948225 27.026416,9.5560249 27.528137,9.9918838 C 27.071979,10.195092 26.702929,10.560831 26.70293,11.09216 C 26.70293,11.812083 27.297225,12.391096 28.017148,12.391095 C 28.689786,12.391095 29.200337,11.868595 29.27024,11.214412 C 29.969684,11.868514 30.896781,12.284124 31.929239,12.284124 C 32.109573,12.284124 32.259656,12.200811 32.433532,12.177154 C 32.939715,12.822635 33.77288,13.262148 34.756336,13.262148 C 36.31617,13.262148 37.568151,12.198077 37.568151,10.878217 C 37.568151,10.699209 37.490047,10.541732 37.445899,10.373924 C 38.289107,10.035291 38.88237,9.4312323 38.88237,8.7082286 C 38.88237,7.6283437 37.615106,6.752183 36.055273,6.752183 C 35.860294,6.752183 35.689032,6.8025167 35.505135,6.8285913 C 34.903496,5.4413204 33.536856,4.4599415 31.929239,4.459942 z "
       id="path12208" />
    <path
       style="opacity:1;color:black;fill:white;fill-opacity:0.4;fill-rule:evenodd;stroke:none;stroke-width:0;stroke-linecap:round;stroke-linejoin:round;marker:none;marker-start:none;marker-mid:none;marker-end:none;stroke-miterlimit:4;stroke-dasharray:none;stroke-dashoffset:0;stroke-opacity:1;visibility:visible;display:inline;overflow:visible"
       d="M 7.1626134,27.922904 C 5.7506286,27.922904 4.5383957,28.397128 3.7116122,29.095475 C 2.267714,29.233288 1.1409691,29.985915 1.1409691,30.932906 C 1.1409691,31.473315 1.5136834,31.954109 2.0917552,32.29889 C 1.5661802,32.459636 1.1409682,32.74895 1.1409691,33.169253 C 1.1409691,33.738741 1.8257032,34.196763 2.6551838,34.196763 C 3.4301834,34.196763 4.0184292,33.783444 4.0989702,33.26596 C 4.9048552,33.783379 5.9730365,34.112145 7.1626134,34.112145 C 7.3703905,34.112145 7.5433128,34.04624 7.7436492,34.027526 C 8.3268622,34.538127 9.2868175,34.8858 10.419935,34.8858 C 12.217143,34.8858 13.659649,34.044077 13.659649,33.000015 C 13.659649,32.858413 13.569659,32.733842 13.518794,32.601099 C 14.49032,32.333227 15.173864,31.855393 15.173864,31.283469 C 15.173864,30.429236 13.71375,29.736158 11.916543,29.736158 C 11.691892,29.736158 11.494567,29.775974 11.282685,29.7966 C 10.589489,28.699213 9.014875,27.922904 7.1626134,27.922904 z "
       id="path12221" />
    <path
       style="opacity:1;color:black;fill:white;fill-opacity:0.35;fill-rule:evenodd;stroke:none;stroke-width:0;stroke-linecap:round;stroke-linejoin:round;marker:none;marker-start:none;marker-mid:none;marker-end:none;stroke-miterlimit:4;stroke-dasharray:none;stroke-dashoffset:0;stroke-opacity:1;visibility:visible;display:inline;overflow:visible"
       d="M 8.7871876,4.7547046 C 6.9400508,4.7547046 5.3542256,5.5555358 4.2726394,6.734848 C 2.3837539,6.9675752 0.90976189,8.2385512 0.90976189,9.8377524 C 0.90976189,10.750354 1.3973415,11.562279 2.1535665,12.144518 C 1.4660166,12.415971 0.90976074,12.904542 0.90976189,13.614315 C 0.90976189,14.576021 1.8055216,15.349492 2.890636,15.349492 C 3.9044794,15.349492 4.6740125,14.651512 4.7793761,13.777627 C 5.8336222,14.651402 7.231001,15.206595 8.7871876,15.206595 C 9.0589988,15.206595 9.2852137,15.0953 9.5472914,15.063696 C 10.310241,15.92596 11.566041,16.513081 13.048368,16.513081 C 15.399448,16.513081 17.286515,15.091648 17.286515,13.328521 C 17.286515,13.089393 17.168792,12.879028 17.102249,12.654863 C 18.373185,12.202503 19.267388,11.395577 19.267388,10.429754 C 19.267388,8.9871968 17.357289,7.8167826 15.006208,7.8167826 C 14.712323,7.8167826 14.454186,7.88402 14.177006,7.9188511 C 13.270176,6.0656739 11.210289,4.7547046 8.7871876,4.7547046 z "
       id="path12227" />
    <g
       id="g12198"
       transform="matrix(0.748368,0,0,0.748368,-1.941532,-1.335679)">
      <path
         sodipodi:nodetypes="ccccc"
         id="rect10682"
         d="M 24.802767,27.453929 L 36.008914,27.453929 L 34.72703,34.481514 L 24.802767,34.481514 L 24.802767,27.453929 z "
         style="color:black;fill:#ccc;fill-opacity:1;fill-rule:evenodd;stroke:#7f7f7f;stroke-width:0.90882444;stroke-linecap:round;stroke-linejoin:round;marker:none;marker-start:none;marker-mid:none;marker-end:none;stroke-miterlimit:4;stroke-dasharray:none;stroke-dashoffset:0;stroke-opacity:1;visibility:visible;display:inline;overflow:visible" />
      <path
         id="path9942"
         d="M 48.117251,23.702544 C 48.117251,27.712825 40.076178,30.967546 30.16842,30.967546 C 20.260668,30.967546 12.219592,27.712825 12.219592,23.702544 C 12.219592,19.692263 20.260668,16.437541 30.16842,16.437541 C 40.076178,16.437541 48.117251,19.692263 48.117251,23.702544 z "
         style="color:black;fill:#ff964b;fill-opacity:1;fill-rule:evenodd;stroke:none;stroke-width:2.5;stroke-linecap:round;stroke-linejoin:round;marker:none;marker-start:none;marker-mid:none;marker-end:none;stroke-miterlimit:4;stroke-dashoffset:0;stroke-opacity:1;visibility:visible;display:inline;overflow:visible" />
      <path
         id="path10685"
         d="M 48.117251,23.702543 C 48.117251,25.959074 40.076178,27.790462 30.16842,27.790462 C 20.260668,27.790462 12.219592,25.959074 12.219592,23.702543 C 12.219592,21.446013 20.260668,19.614626 30.16842,19.614626 C 40.076178,19.614626 48.117251,21.446013 48.117251,23.702543 z "
         style="color:black;fill:none;fill-opacity:1;fill-rule:evenodd;stroke:#e68845;stroke-width:0.58250391;stroke-linecap:round;stroke-linejoin:round;marker:none;marker-start:none;marker-mid:none;marker-end:none;stroke-miterlimit:4;stroke-dasharray:none;stroke-dashoffset:0;stroke-opacity:1;visibility:visible;display:inline;overflow:visible" />
      <path
         id="path11417"
         d="M 48.117251,23.702544 C 48.117251,24.410883 40.076178,24.985767 30.16842,24.985767 C 20.260668,24.985767 12.219592,24.410883 12.219592,23.702544 C 12.219592,22.994204 20.260668,22.41932 30.16842,22.41932 C 40.076178,22.41932 48.117251,22.994204 48.117251,23.702544 z "
         style="color:black;fill:none;fill-opacity:1;fill-rule:evenodd;stroke:#e68845;stroke-width:0.58250415;stroke-linecap:round;stroke-linejoin:round;marker:none;marker-start:none;marker-mid:none;marker-end:none;stroke-miterlimit:4;stroke-dasharray:none;stroke-dashoffset:0;stroke-opacity:1;visibility:visible;display:inline;overflow:visible" />
      <path
         id="path11413"
         d="M 48.117251,23.702544 C 48.117251,27.712825 40.076178,30.967546 30.16842,30.967546 C 20.260668,30.967546 12.219592,27.712825 12.219592,23.702544 C 12.219592,19.692263 20.260668,16.437541 30.16842,16.437541 C 40.076178,16.437541 48.117251,19.692263 48.117251,23.702544 z "
         style="color:black;fill:none;fill-opacity:1;fill-rule:evenodd;stroke:#b36f3f;stroke-width:1.13603055;stroke-linecap:round;stroke-linejoin:round;marker:none;marker-start:none;marker-mid:none;marker-end:none;stroke-miterlimit:4;stroke-dasharray:none;stroke-dashoffset:0;stroke-opacity:1;visibility:visible;display:inline;overflow:visible" />
      <path
         sodipodi:nodetypes="cccc"
         id="rect9945"
         d="M 12.897658,15.796599 L 19.735307,19.310742 L 12.897658,21.87451 L 12.897658,15.796599 z "
         style="color:black;fill:#c09438;fill-opacity:1;fill-rule:evenodd;stroke:#b36f3f;stroke-width:0.90882444;stroke-linecap:round;stroke-linejoin:round;marker:none;marker-start:none;marker-mid:none;marker-end:none;stroke-miterlimit:4;stroke-dasharray:none;stroke-dashoffset:0;stroke-opacity:1;visibility:visible;display:inline;overflow:visible" />
      <path
         sodipodi:nodetypes="cccc"
         id="path9952"
         d="M 12.897658,30.967546 L 19.735307,27.453404 L 12.897658,24.889636 L 12.897658,30.967546 z "
         style="color:black;fill:#c09438;fill-opacity:1;fill-rule:evenodd;stroke:#b36f3f;stroke-width:0.90882444;stroke-linecap:round;stroke-linejoin:round;marker:none;marker-start:none;marker-mid:none;marker-end:none;stroke-miterlimit:4;stroke-dasharray:none;stroke-dashoffset:0;stroke-opacity:1;visibility:visible;display:inline;overflow:visible" />
      <path
         sodipodi:nodetypes="cccc"
         id="path9954"
         d="M 12.019298,26.480952 L 18.856947,23.607752 L 12.019298,23.607752 L 12.019298,26.480952 z "
         style="color:black;fill:#c09438;fill-opacity:1;fill-rule:evenodd;stroke:#b36f3f;stroke-width:0.90882444;stroke-linecap:round;stroke-linejoin:round;marker:none;marker-start:none;marker-mid:none;marker-end:none;stroke-miterlimit:4;stroke-dasharray:none;stroke-dashoffset:0;stroke-opacity:1;visibility:visible;display:inline;overflow:visible" />
    </g>
    <path
       style="opacity:1;color:black;fill:white;fill-opacity:0.3;fill-rule:evenodd;stroke:none;stroke-width:0;stroke-linecap:round;stroke-linejoin:round;marker:none;marker-start:none;marker-mid:none;marker-end:none;stroke-miterlimit:4;stroke-dasharray:none;stroke-dashoffset:0;stroke-opacity:1;visibility:visible;display:inline;overflow:visible"
       d="M 30.704255,24.833811 C 29.603094,24.833811 28.657712,25.203643 28.012931,25.748261 C 26.886881,25.855736 26.008169,26.442687 26.008169,27.181214 C 26.008169,27.602662 26.298837,27.977618 26.749657,28.246502 C 26.339777,28.371861 26.008168,28.597489 26.008169,28.925269 C 26.008169,29.369394 26.542171,29.726592 27.189056,29.726592 C 27.793454,29.726592 28.252207,29.404257 28.315019,29.000688 C 28.943502,29.404206 29.776542,29.6606 30.704255,29.6606 C 30.866293,29.6606 31.00115,29.609203 31.157386,29.594608 C 31.612215,29.992811 32.360853,30.263948 33.244535,30.263948 C 34.646119,30.263948 35.771084,29.607516 35.771084,28.793286 C 35.771084,28.682855 35.700904,28.585706 35.661235,28.482184 C 36.418897,28.273279 36.951972,27.900633 36.951972,27.454606 C 36.951972,26.788418 35.813275,26.247909 34.411691,26.247909 C 34.236493,26.247909 34.082606,26.278961 33.917367,26.295046 C 33.376765,25.43923 32.148774,24.833811 30.704255,24.833811 z "
       id="path12225" />
  </g>
</svg>
