<?xml version="1.0" encoding="UTF-8" standalone="no"?>
<!-- Created with Inkscape (http://www.inkscape.org/) -->
<svg
   xmlns:dc="http://purl.org/dc/elements/1.1/"
   xmlns:cc="http://web.resource.org/cc/"
   xmlns:rdf="http://www.w3.org/1999/02/22-rdf-syntax-ns#"
   xmlns:svg="http://www.w3.org/2000/svg"
   xmlns="http://www.w3.org/2000/svg"
   xmlns:xlink="http://www.w3.org/1999/xlink"
   xmlns:sodipodi="http://sodipodi.sourceforge.net/DTD/sodipodi-0.dtd"
   xmlns:inkscape="http://www.inkscape.org/namespaces/inkscape"
   width="32px"
   height="32px"
   id="svg4924"
   sodipodi:version="0.32"
   inkscape:version="0.45"
   sodipodi:modified="true">
  <defs
     id="defs4926">
    <radialGradient
       inkscape:collect="always"
       xlink:href="#linearGradient3291"
       id="radialGradient2136"
       gradientUnits="userSpaceOnUse"
       gradientTransform="matrix(0.1780225,-7.7823348e-2,9.2797997e-3,3.7397422e-2,7.1780093,18.958833)"
       cx="63.912209"
       cy="115.70919"
       fx="75.857941"
       fy="115.70919"
       r="63.912209" />
    <radialGradient
       inkscape:collect="always"
       xlink:href="#linearGradient7468"
       id="radialGradient27772"
       gradientUnits="userSpaceOnUse"
       gradientTransform="matrix(-0.8539822,0.7785636,-1.3887689,-1.5232992,18.269397,5.9659261)"
       cx="3.4252665"
       cy="3.9956257"
       fx="3.4252665"
       fy="3.9956257"
       r="4.4667506" />
    <linearGradient
       inkscape:collect="always"
       xlink:href="#linearGradient5306"
       id="linearGradient2128"
       gradientUnits="userSpaceOnUse"
       gradientTransform="matrix(0.885346,0,0,0.885346,-1.5132874,-1.4066401)"
       x1="20.1875"
       y1="15.921875"
       x2="30.40625"
       y2="15.921875" />
    <linearGradient
       inkscape:collect="always"
       xlink:href="#linearGradient5306"
       id="linearGradient2125"
       gradientUnits="userSpaceOnUse"
       gradientTransform="matrix(0.885346,0,0,0.885346,-1.5132874,-1.4066401)"
       x1="30.787806"
       y1="8.665884"
       x2="21.28125"
       y2="8.665884" />
    <linearGradient
       inkscape:collect="always"
       xlink:href="#linearGradient5306"
       id="linearGradient2122"
       gradientUnits="userSpaceOnUse"
       gradientTransform="matrix(0.885346,0,0,0.885346,-1.5132874,-1.4066401)"
       x1="21.84374"
       y1="10.243567"
       x2="26.5"
       y2="10.243567" />
    <linearGradient
       inkscape:collect="always"
       xlink:href="#linearGradient5306"
       id="linearGradient2119"
       gradientUnits="userSpaceOnUse"
       gradientTransform="matrix(0.885346,0,0,0.885346,-1.5132874,-1.4066401)"
       x1="23.399261"
       y1="6.8602948"
       x2="20.671068"
       y2="9.0720243" />
    <linearGradient
       inkscape:collect="always"
       xlink:href="#linearGradient5306"
       id="linearGradient2116"
       gradientUnits="userSpaceOnUse"
       gradientTransform="matrix(0.885346,0,0,0.885346,-1.5132874,-1.4066401)"
       x1="17.787682"
       y1="20.923355"
       x2="20.221527"
       y2="20.923355" />
    <linearGradient
       inkscape:collect="always"
       xlink:href="#linearGradient5306"
       id="linearGradient2113"
       gradientUnits="userSpaceOnUse"
       gradientTransform="matrix(0.885346,0,0,0.885346,-1.5132874,-1.4066401)"
       x1="26.363306"
       y1="17.963232"
       x2="27.353628"
       y2="20.640591" />
    <linearGradient
       inkscape:collect="always"
       xlink:href="#linearGradient5306"
       id="linearGradient2110"
       gradientUnits="userSpaceOnUse"
       gradientTransform="matrix(0.885346,0,0,0.885346,-1.5132874,-1.4066401)"
       x1="31.21875"
       y1="19.425468"
       x2="21.09375"
       y2="19.464272" />
    <linearGradient
       inkscape:collect="always"
       xlink:href="#linearGradient5352"
       id="linearGradient2107"
       gradientUnits="userSpaceOnUse"
       gradientTransform="matrix(0.885346,0,0,0.885346,-1.5132874,-1.4066401)"
       x1="12.436938"
       y1="7.6474481"
       x2="11.348073"
       y2="8.6951094" />
    <linearGradient
       inkscape:collect="always"
       xlink:href="#linearGradient5352"
       id="linearGradient2104"
       gradientUnits="userSpaceOnUse"
       gradientTransform="matrix(0.885346,0,0,0.885346,-1.5132874,-1.4066401)"
       x1="15.3125"
       y1="8.7059708"
       x2="14.828125"
       y2="13.875" />
    <linearGradient
       inkscape:collect="always"
       id="linearGradient7468">
      <stop
         style="stop-color:white;stop-opacity:1;"
         offset="0"
         id="stop7470" />
      <stop
         style="stop-color:white;stop-opacity:0;"
         offset="1"
         id="stop7472" />
    </linearGradient>
    <radialGradient
       inkscape:collect="always"
       xlink:href="#linearGradient7468"
       id="radialGradient7476"
       cx="6.1759672"
       cy="8.4471083"
       fx="6.1759672"
       fy="8.4471083"
       r="4.4667506"
       gradientTransform="matrix(0.7062048,0.463274,-0.8954871,1.3650618,8.0991771,-8.6218722)"
       gradientUnits="userSpaceOnUse" />
    <linearGradient
       inkscape:collect="always"
       xlink:href="#linearGradient5306"
       id="linearGradient2098"
       gradientUnits="userSpaceOnUse"
       gradientTransform="matrix(0.885346,0,0,0.885346,-1.5132874,-1.4066401)"
       x1="12.095323"
       y1="12.730466"
       x2="15.622918"
       y2="14.864591" />
    <linearGradient
       id="linearGradient5352">
      <stop
         style="stop-color:white;stop-opacity:1;"
         offset="0"
         id="stop5354" />
      <stop
         style="stop-color:#000000;stop-opacity:0"
         offset="1"
         id="stop5356" />
    </linearGradient>
    <linearGradient
       inkscape:collect="always"
       xlink:href="#linearGradient5352"
       id="linearGradient2095"
       gradientUnits="userSpaceOnUse"
       gradientTransform="matrix(0.885346,0,0,0.885346,-1.5132874,-1.4066401)"
       x1="13.318105"
       y1="13.852272"
       x2="7.4967022"
       y2="22.112026" />
    <linearGradient
       inkscape:collect="always"
       xlink:href="#linearGradient3220"
       id="linearGradient2092"
       gradientUnits="userSpaceOnUse"
       gradientTransform="matrix(0.885346,0,0,0.885346,-1.5132874,-1.4066401)"
       x1="17.8125"
       y1="14.890625"
       x2="18.0625"
       y2="14.890625" />
    <linearGradient
       inkscape:collect="always"
       xlink:href="#linearGradient3220"
       id="linearGradient2089"
       gradientUnits="userSpaceOnUse"
       gradientTransform="matrix(0.885346,0,0,0.885346,-1.5132874,-1.4066401)"
       x1="17.975273"
       y1="12.5"
       x2="27.980326"
       y2="10.422448" />
    <linearGradient
       inkscape:collect="always"
       xlink:href="#linearGradient3283"
       id="linearGradient2086"
       gradientUnits="userSpaceOnUse"
       gradientTransform="matrix(0.885346,0,0,0.885346,-1.5132874,-1.4066401)"
       x1="14.542876"
       y1="2.9461417"
       x2="21.78125"
       y2="9.9326038" />
    <linearGradient
       inkscape:collect="always"
       xlink:href="#linearGradient3283"
       id="linearGradient2083"
       gradientUnits="userSpaceOnUse"
       gradientTransform="matrix(0.885346,0,0,0.885346,-1.5132874,-1.4066401)"
       x1="13.753344"
       y1="3.370038"
       x2="20.41143"
       y2="10.117872" />
    <linearGradient
       id="linearGradient3395">
      <stop
         style="stop-color:#191919;stop-opacity:1"
         offset="0"
         id="stop3397" />
      <stop
         style="stop-color:#2b2b2b;stop-opacity:1"
         offset="1"
         id="stop3399" />
    </linearGradient>
    <linearGradient
       inkscape:collect="always"
       xlink:href="#linearGradient3395"
       id="linearGradient2080"
       gradientUnits="userSpaceOnUse"
       gradientTransform="matrix(0.885346,0,0,0.885346,-1.5132874,-1.4066401)"
       x1="13.15625"
       y1="7.703125"
       x2="19.40625"
       y2="7.703125" />
    <linearGradient
       inkscape:collect="always"
       xlink:href="#linearGradient3220"
       id="linearGradient2077"
       gradientUnits="userSpaceOnUse"
       gradientTransform="matrix(0.885346,0,0,0.885346,-1.5132874,-1.4066401)"
       x1="13.623058"
       y1="13.876162"
       x2="20.95166"
       y2="12.159535" />
    <linearGradient
       inkscape:collect="always"
       xlink:href="#linearGradient3283"
       id="linearGradient2074"
       gradientUnits="userSpaceOnUse"
       gradientTransform="matrix(0.885346,0,0,0.885346,-1.5132874,-1.4066401)"
       x1="9.21875"
       y1="5.125"
       x2="16.46875"
       y2="12.334465" />
    <linearGradient
       inkscape:collect="always"
       xlink:href="#linearGradient3283"
       id="linearGradient2071"
       gradientUnits="userSpaceOnUse"
       gradientTransform="matrix(0.885346,0,0,0.885346,-1.5132874,-1.4066401)"
       x1="10.69499"
       y1="4.34375"
       x2="18.206226"
       y2="11.65071" />
    <linearGradient
       inkscape:collect="always"
       xlink:href="#linearGradient3283"
       id="linearGradient2068"
       gradientUnits="userSpaceOnUse"
       gradientTransform="matrix(0.885346,0,0,0.885346,-1.5132874,-1.4066401)"
       x1="10.064582"
       y1="4.59375"
       x2="17.244795"
       y2="11.964343" />
    <linearGradient
       id="linearGradient3435">
      <stop
         style="stop-color:#000000;stop-opacity:1"
         offset="0"
         id="stop3437" />
      <stop
         style="stop-color:#000000;stop-opacity:0"
         offset="1"
         id="stop3439" />
    </linearGradient>
    <linearGradient
       inkscape:collect="always"
       xlink:href="#linearGradient3435"
       id="linearGradient2065"
       gradientUnits="userSpaceOnUse"
       x1="27.597212"
       y1="19.574732"
       x2="25.379351"
       y2="20.161589"
       gradientTransform="matrix(0.885346,0,0,0.885346,-1.5132874,-1.4066401)" />
    <linearGradient
       inkscape:collect="always"
       xlink:href="#linearGradient3220"
       id="linearGradient2062"
       gradientUnits="userSpaceOnUse"
       gradientTransform="matrix(0.885346,0,0,0.885346,-1.5132874,-1.4066401)"
       x1="17.708443"
       y1="10.854986"
       x2="23.822266"
       y2="8.7750473" />
    <linearGradient
       inkscape:collect="always"
       xlink:href="#linearGradient3220"
       id="linearGradient2059"
       gradientUnits="userSpaceOnUse"
       gradientTransform="matrix(0.885346,0,0,0.885346,-1.5132874,-1.4066401)"
       x1="14.903496"
       y1="11.986783"
       x2="19.689789"
       y2="11.453125" />
    <linearGradient
       inkscape:collect="always"
       xlink:href="#linearGradient3220"
       id="linearGradient2056"
       gradientUnits="userSpaceOnUse"
       gradientTransform="matrix(0.885346,0,0,0.885346,-1.5132874,-1.4066401)"
       x1="17.176542"
       y1="16.307228"
       x2="23.945713"
       y2="13.53125" />
    <linearGradient
       inkscape:collect="always"
       xlink:href="#linearGradient3220"
       id="linearGradient2053"
       gradientUnits="userSpaceOnUse"
       gradientTransform="matrix(0.885346,0,0,0.885346,-1.5132874,-1.4066401)"
       x1="29.71946"
       y1="12.116359"
       x2="39.043518"
       y2="7.583158" />
    <linearGradient
       inkscape:collect="always"
       xlink:href="#linearGradient3283"
       id="linearGradient2050"
       gradientUnits="userSpaceOnUse"
       gradientTransform="matrix(0.885346,0,0,0.885346,-1.5132874,-1.4066401)"
       x1="28.843277"
       y1="5.2601447"
       x2="30.639404"
       y2="10.859981" />
    <linearGradient
       inkscape:collect="always"
       xlink:href="#linearGradient5306"
       id="linearGradient2047"
       gradientUnits="userSpaceOnUse"
       gradientTransform="matrix(0.885346,0,0,0.885346,-1.5132874,-1.4066401)"
       x1="9"
       y1="18.515625"
       x2="20.15625"
       y2="18.515625" />
    <linearGradient
       inkscape:collect="always"
       xlink:href="#linearGradient5306"
       id="linearGradient2044"
       gradientUnits="userSpaceOnUse"
       gradientTransform="matrix(0.885346,0,0,0.885346,-1.5132874,-1.4066401)"
       x1="12.260382"
       y1="20.984375"
       x2="21.621368"
       y2="20.984375" />
    <linearGradient
       inkscape:collect="always"
       xlink:href="#linearGradient5306"
       id="linearGradient2041"
       gradientUnits="userSpaceOnUse"
       gradientTransform="matrix(0.885346,0,0,0.885346,-1.5132874,-1.4066401)"
       x1="30.25"
       y1="16.220057"
       x2="31.09375"
       y2="13.444786" />
    <linearGradient
       inkscape:collect="always"
       xlink:href="#linearGradient5306"
       id="linearGradient2038"
       gradientUnits="userSpaceOnUse"
       gradientTransform="matrix(0.885346,0,0,0.885346,-1.5132874,-1.4066401)"
       x1="30.28125"
       y1="11.453125"
       x2="37.1875"
       y2="11.453125" />
    <linearGradient
       id="linearGradient3220">
      <stop
         style="stop-color:#000000;stop-opacity:1"
         offset="0"
         id="stop3222" />
      <stop
         style="stop-color:#c1c3c0;stop-opacity:1"
         offset="1"
         id="stop3224" />
    </linearGradient>
    <linearGradient
       inkscape:collect="always"
       xlink:href="#linearGradient3220"
       id="linearGradient2035"
       gradientUnits="userSpaceOnUse"
       gradientTransform="matrix(0.885346,0,0,0.885346,-1.5132874,-1.4066401)"
       x1="18.765625"
       y1="11.230732"
       x2="17.03125"
       y2="19.265099" />
    <linearGradient
       id="linearGradient5306">
      <stop
         style="stop-color:#000000;stop-opacity:0.41414142"
         offset="0"
         id="stop5308" />
      <stop
         style="stop-color:#000000;stop-opacity:0.08080808"
         offset="1"
         id="stop5310" />
    </linearGradient>
    <linearGradient
       inkscape:collect="always"
       xlink:href="#linearGradient5306"
       id="linearGradient2032"
       gradientUnits="userSpaceOnUse"
       gradientTransform="matrix(0.885346,0,0,0.885346,-1.5132874,-1.4066401)"
       x1="20.585711"
       y1="12.558591"
       x2="22.09375"
       y2="13.140625" />
    <linearGradient
       id="linearGradient3283">
      <stop
         style="stop-color:#989898;stop-opacity:1"
         offset="0"
         id="stop3285" />
      <stop
         style="stop-color:#c1c3c0;stop-opacity:1"
         offset="0.5"
         id="stop3337" />
      <stop
         style="stop-color:#171717;stop-opacity:1"
         offset="1"
         id="stop3287" />
    </linearGradient>
    <linearGradient
       inkscape:collect="always"
       xlink:href="#linearGradient3283"
       id="linearGradient2029"
       gradientUnits="userSpaceOnUse"
       gradientTransform="matrix(0.885346,0,0,0.885346,-1.5132874,-1.4066401)"
       x1="6.2083406"
       y1="17.821348"
       x2="7.3756175"
       y2="20.498705" />
    <linearGradient
       inkscape:collect="always"
       xlink:href="#linearGradient3483"
       id="linearGradient2026"
       gradientUnits="userSpaceOnUse"
       gradientTransform="matrix(0.885346,0,0,0.885346,-1.5132874,-1.4066401)"
       x1="4.1549063"
       y1="19.998447"
       x2="6.6646013"
       y2="20.580482" />
    <linearGradient
       id="linearGradient3483">
      <stop
         style="stop-color:#ffffff;stop-opacity:1"
         offset="0"
         id="stop3485" />
      <stop
         style="stop-color:#c1c3c0;stop-opacity:1"
         offset="0.5"
         id="stop3487" />
      <stop
         style="stop-color:#171717;stop-opacity:1"
         offset="1"
         id="stop3489" />
    </linearGradient>
    <radialGradient
       inkscape:collect="always"
       xlink:href="#linearGradient3483"
       id="radialGradient2023"
       gradientUnits="userSpaceOnUse"
       gradientTransform="matrix(1.2985346,-0.9411128,0.6097378,0.8413088,-19.09901,10.961651)"
       cx="10.015114"
       cy="24.408993"
       fx="10.015114"
       fy="24.408993"
       r="1.2070673" />
    <radialGradient
       inkscape:collect="always"
       xlink:href="#linearGradient2783"
       id="radialGradient2020"
       gradientUnits="userSpaceOnUse"
       gradientTransform="matrix(2.120187,1.2811259e-7,-1.1428631e-7,1.8913694,-5.3528694,-16.056865)"
       cx="3.3482571"
       cy="14.704022"
       fx="3.3482571"
       fy="14.704022"
       r="1.140625" />
    <linearGradient
       id="linearGradient2783">
      <stop
         style="stop-color:#323232;stop-opacity:1;"
         offset="0"
         id="stop2785" />
      <stop
         id="stop2787"
         offset="0.07692308"
         style="stop-color:#dfe1e1;stop-opacity:1;" />
      <stop
         style="stop-color:#b6b1b1;stop-opacity:1;"
         offset="0.26289096"
         id="stop2799" />
      <stop
         id="stop2789"
         offset="0.5"
         style="stop-color:#8d8282;stop-opacity:1;" />
      <stop
         style="stop-color:#ffffff;stop-opacity:1;"
         offset="0.78201604"
         id="stop2791" />
      <stop
         style="stop-color:#dfd9df;stop-opacity:1;"
         offset="0.9005897"
         id="stop2793" />
      <stop
         style="stop-color:#3a3a3a;stop-opacity:1;"
         offset="1"
         id="stop2795" />
    </linearGradient>
    <linearGradient
       inkscape:collect="always"
       xlink:href="#linearGradient2783"
       id="linearGradient2017"
       gradientUnits="userSpaceOnUse"
       gradientTransform="matrix(0.885346,0,0,0.885346,-1.5132874,-1.4066401)"
       x1="8.3746748"
       y1="23.208607"
       x2="9.6880093"
       y2="22.277351" />
    <linearGradient
       inkscape:collect="always"
       xlink:href="#linearGradient3291"
       id="linearGradient2014"
       gradientUnits="userSpaceOnUse"
       gradientTransform="matrix(0.885346,0,0,0.885346,-1.5132874,-1.4066401)"
       x1="13.974097"
       y1="14.256775"
       x2="20.351671"
       y2="12.710065" />
    <linearGradient
       inkscape:collect="always"
       xlink:href="#linearGradient5250"
       id="linearGradient2009"
       gradientUnits="userSpaceOnUse"
       gradientTransform="matrix(0.885346,0,0,0.885346,-1.5132874,-1.4066401)"
       x1="23.399261"
       y1="6.8602948"
       x2="20.671068"
       y2="9.0720243" />
    <linearGradient
       inkscape:collect="always"
       id="linearGradient5682">
      <stop
         style="stop-color:white;stop-opacity:1;"
         offset="0"
         id="stop5684" />
      <stop
         style="stop-color:white;stop-opacity:0;"
         offset="1"
         id="stop5686" />
    </linearGradient>
    <radialGradient
       inkscape:collect="always"
       xlink:href="#linearGradient5682"
       id="radialGradient5688"
       cx="23.713623"
       cy="7.8564034"
       fx="23.713623"
       fy="7.8564034"
       r="5.037755"
       gradientTransform="matrix(-0.5258617,0.9547148,-1.1498702,-0.6333553,40.961035,-14.638838)"
       gradientUnits="userSpaceOnUse" />
    <linearGradient
       id="linearGradient5250">
      <stop
         style="stop-color:#d02222;stop-opacity:0;"
         offset="0"
         id="stop5252" />
      <stop
         style="stop-color:#ffffff;stop-opacity:0.27272728"
         offset="1"
         id="stop5254" />
    </linearGradient>
    <linearGradient
       inkscape:collect="always"
       xlink:href="#linearGradient5250"
       id="linearGradient2003"
       gradientUnits="userSpaceOnUse"
       gradientTransform="matrix(0.885346,0,0,0.885346,-1.5132874,-1.4066401)"
       x1="20.68198"
       y1="12.895536"
       x2="22.575102"
       y2="13.381301" />
    <linearGradient
       id="linearGradient3291">
      <stop
         style="stop-color:#000000;stop-opacity:1"
         offset="0"
         id="stop3293" />
      <stop
         style="stop-color:#000000;stop-opacity:0"
         offset="1"
         id="stop3295" />
    </linearGradient>
    <linearGradient
       inkscape:collect="always"
       xlink:href="#linearGradient3291"
       id="linearGradient2000"
       gradientUnits="userSpaceOnUse"
       gradientTransform="matrix(0.885346,0,0,0.885346,-1.5132874,-1.4066401)"
       x1="27.13666"
       y1="8.9184132"
       x2="28.81027"
       y2="7.0573068" />
  </defs>
  <sodipodi:namedview
     id="base"
     pagecolor="#ffffff"
     bordercolor="#666666"
     borderopacity="1.0"
     inkscape:pageopacity="0.0"
     inkscape:pageshadow="2"
     inkscape:zoom="5.598901"
     inkscape:cx="6.7853139"
     inkscape:cy="2.6454451"
     inkscape:current-layer="layer1"
     showgrid="false"
     inkscape:grid-bbox="true"
     inkscape:document-units="px"
     inkscape:window-width="910"
     inkscape:window-height="626"
     inkscape:window-x="0"
     inkscape:window-y="49" />
  <metadata
     id="metadata4929">
    <rdf:RDF>
      <cc:Work
         rdf:about="">
        <dc:format>image/svg+xml</dc:format>
        <dc:type
           rdf:resource="http://purl.org/dc/dcmitype/StillImage" />
      </cc:Work>
    </rdf:RDF>
  </metadata>
  <g
     id="layer1"
     inkscape:label="Layer 1"
     inkscape:groupmode="layer">
    <path
       id="path2280"
       style="fill:#555753;fill-opacity:1;fill-rule:evenodd;stroke:none;stroke-width:1px;stroke-linecap:butt;stroke-linejoin:miter;stroke-opacity:1"
       d="M 28.371768,2.1053617 L 22.503542,4.3527674 L 31.692933,4.577508 L 28.371768,2.1053617 z M 31.692933,4.577508 L 22.503542,4.3527674 L 21.230012,3.3289493 L 21.954175,7.3493083 L 31.293395,9.3220312 L 31.418251,5.7012109 L 31.692933,5.6013261 L 31.717905,4.577508 L 31.692933,4.577508 z " />
    <path
       id="path4471"
       style="fill:#888a85;fill-opacity:1;fill-rule:evenodd;stroke:none;stroke-width:1px;stroke-linecap:butt;stroke-linejoin:miter;stroke-opacity:1"
       d="M 12.209572,1.5260679 L 11.213558,1.7474044 L 11.047556,1.5814021 L 11.019889,1.553735 L 10.134544,1.8857396 L 10.217544,3.4627619 L 10.245212,3.490429 L 10.245212,3.5734301 L 10.494215,3.8224336 L 10.494215,4.2651065 L 8.6405227,2.4390808 L 7.6721752,2.6604172 L 7.6721752,3.1307572 L 6.6484942,3.3244266 L 6.6484942,4.1821054 C 6.6484944,4.1821054 7.8925537,5.0806243 9.0278603,6.2018006 C 10.163167,7.322976 11.185891,8.6641691 11.185891,8.6641691 L 11.351894,10.573196 C 11.351894,10.573196 12.458576,11.956548 12.458576,11.956548 L 14.478271,12.260885 L 16.331964,11.569209 L 21.948376,7.3361503 C 21.948376,7.3361503 21.919381,7.3120436 21.837709,7.2531487 L 18.406993,4.1821054 C 18.406993,4.1821054 16.890128,3.0953363 15.52962,2.5774161 C 14.169112,2.0594959 12.845915,2.0794091 12.845914,2.0794091 L 12.209572,1.5260679 z " />
    <path
       id="path2593"
       style="opacity:0.38139535;fill:url(#radialGradient2136);fill-opacity:1;fill-rule:nonzero;stroke:none;stroke-width:0;stroke-linecap:round;stroke-linejoin:round;stroke-miterlimit:4;stroke-dasharray:none;stroke-dashoffset:4;stroke-opacity:1"
       d="M 31.00739,13.338339 C 31.334946,14.658385 26.506464,17.955368 20.222673,20.702357 C 13.938881,23.449346 8.5793245,24.606109 8.2517682,23.286063 C 7.9242119,21.966017 12.752695,18.669034 19.036486,15.922046 C 25.320278,13.175058 30.679835,12.018293 31.00739,13.338339 L 31.00739,13.338339 z " />
    <path
       id="path4329"
       style="fill:#204a87;fill-opacity:1;fill-rule:evenodd;stroke:none;stroke-width:1px;stroke-linecap:butt;stroke-linejoin:miter;stroke-opacity:1"
       d="M 12.845914,2.0794091 L 17.825985,6.5061382 L 17.825985,8.9408388 L 17.327979,9.1345092 L 17.300312,9.1068422 L 15.944624,9.6601826 L 15.889291,8.7471703 L 15.584953,8.8578386 L 10.494215,3.7394325 L 10.494215,4.2651065 L 13.897262,7.6128201 L 13.92493,8.055493 L 16.636301,10.573196 L 16.331964,11.569209 L 14.478271,12.260885 L 14.478271,11.292539 L 14.533606,11.264872 L 13.565258,10.213524 L 12.04357,10.877533 L 11.932902,8.7195023 L 6.6484942,3.3244266 L 6.6484942,4.1821054 C 6.6484942,4.1821054 5.6049822,4.9174329 4.9331366,6.6168063 C 4.2760736,8.2787906 4.0477908,11.043536 4.0477908,11.043536 L 4.6841331,12.150217 L 4.7118001,15.774601 L 7.4508388,19.011647 L 10.355879,17.932632 L 10.770885,18.236969 L 15.086947,17.517627 L 16.387297,18.458306 L 17.189642,18.319971 C 17.189642,18.319971 19.471419,19.400281 23.193394,17.932632 C 26.116979,16.779804 26.126103,14.446584 26.126103,14.446583 L 26.015434,12.454554 L 26.015434,11.45854 L 31.299842,9.3281778 L 31.410511,5.7037935 L 25.406759,8.0278261 L 25.379092,7.1424805 L 25.379092,6.8381429 L 22.501718,4.3481077 L 21.229033,3.3244266 L 18.406993,4.1821054 C 18.406993,4.1821054 16.890128,3.0953363 15.52962,2.5774161 C 14.169112,2.0594959 12.956584,2.1070762 12.956583,2.1070762 L 12.928917,2.0794091 L 12.845914,2.0794091 z " />
    <path
       sodipodi:nodetypes="ccscccsc"
       d="M 4.6708381,12.146308 L 4.0524256,11.033166 C 4.0524256,11.033166 4.2766002,8.2889597 4.9336635,6.6269764 C 5.605509,4.9276019 6.6497584,4.1687854 6.6497584,4.1687854 C 7.5057413,4.364371 10.045334,7.1632221 11.195925,8.6631386 C 9.5768608,9.2188885 6.4441983,13.857566 6.4441983,13.857566 C 6.4441983,13.857566 5.8914285,13.502705 5.4480884,13.07489 C 5.0047484,12.647076 4.6708381,12.146308 4.6708381,12.146308 z "
       style="opacity:0.90178576;fill:url(#radialGradient27772);fill-opacity:1;fill-rule:evenodd;stroke:none;stroke-width:1px;stroke-linecap:butt;stroke-linejoin:miter;stroke-opacity:1"
       id="path10133" />
    <rect
       id="rect1951"
       style="opacity:0.61162792;fill:#555753;fill-opacity:1;fill-rule:nonzero;stroke:none;stroke-width:0.69999999;stroke-linecap:round;stroke-linejoin:miter;stroke-miterlimit:4;stroke-dasharray:none;stroke-opacity:1"
       y="24.129936"
       x="0.002943655"
       height="7.9945784"
       width="31.964672" />
    <text
       xml:space="preserve"
       id="text2840"
       style="font-size:9.58893108px;font-style:normal;font-weight:normal;fill:#eeeeec;fill-opacity:1;stroke:none;stroke-width:1px;stroke-linecap:butt;stroke-linejoin:miter;stroke-opacity:1;font-family:Bitstream Vera Sans"
       y="31.456003"
       x="10.404339"><tspan
         id="tspan2842"
         y="31.456003"
         x="10.404339">Fe</tspan></text>
    <path
       id="path3297"
       style="fill:url(#linearGradient2128);fill-opacity:1;fill-rule:evenodd;stroke:none;stroke-width:1px;stroke-linecap:butt;stroke-linejoin:miter;stroke-opacity:1"
       d="M 25.379092,6.8381429 L 18.047321,9.6878506 L 16.359631,16.687614 L 16.359631,16.715282 L 16.359631,18.541307 L 17.161976,18.347637 L 17.189642,16.853616 L 25.21309,13.61657 L 25.240757,13.588904 L 25.406759,8.0278261 L 25.379092,7.1424805 L 25.379092,6.8381429 z " />
    <path
       id="path3314"
       style="fill:url(#linearGradient2125);fill-opacity:1;fill-rule:evenodd;stroke:none;stroke-width:1px;stroke-linecap:butt;stroke-linejoin:miter;stroke-opacity:1"
       d="M 21.947839,7.3450999 L 17.825985,8.9408388 L 17.327979,9.1345092 L 18.047321,9.6878506 L 25.379092,6.8381429 L 22.501718,4.3481077 L 21.229033,3.3244266 L 18.406993,4.1821054 L 21.947839,7.3450999 z " />
    <path
       id="path3323"
       style="fill:url(#linearGradient2122);fill-opacity:1;fill-rule:evenodd;stroke:none;stroke-width:1px;stroke-linecap:butt;stroke-linejoin:miter;stroke-opacity:1"
       d="M 17.825985,6.5061382 L 17.825985,8.9408388 L 21.948376,7.3361503 C 21.948376,7.3361503 21.293316,6.7528407 19.996611,6.4834246 C 18.867727,6.2488779 17.82263,6.5027836 17.825985,6.5061382 z " />
    <path
       id="path3325"
       style="fill:url(#linearGradient2119);fill-opacity:1;fill-rule:evenodd;stroke:none;stroke-width:1px;stroke-linecap:butt;stroke-linejoin:miter;stroke-opacity:1"
       d="M 17.825985,6.5061382 C 17.82263,6.5027836 18.855132,6.2439244 19.984015,6.4784711 C 20.956545,6.6805328 21.59269,7.0764638 21.837709,7.2531487 L 18.406993,4.1821054 C 18.406993,4.1821054 16.890128,3.0953363 15.52962,2.5774161 C 14.169112,2.0594959 12.847768,2.0811674 12.847767,2.0811674 L 17.825985,6.5061382 z " />
    <path
       id="path3332"
       style="fill:url(#linearGradient2116);fill-opacity:1;fill-rule:evenodd;stroke:none;stroke-width:1px;stroke-linecap:butt;stroke-linejoin:miter;stroke-opacity:1"
       d="M 16.389757,18.454116 L 15.085535,17.507412 L 15.059444,15.781414 L 16.358836,16.72256 L 16.389757,18.454116 z " />
    <path
       id="path3358"
       style="fill:url(#linearGradient2113);fill-opacity:1;fill-rule:evenodd;stroke:none;stroke-width:1px;stroke-linecap:butt;stroke-linejoin:miter;stroke-opacity:1"
       d="M 26.015434,12.399221 L 25.268424,12.731226 L 25.240757,13.588904 L 25.21309,13.61657 L 17.189642,16.853616 C 17.189642,16.853616 20.080764,17.943709 23.276395,16.327943 C 25.385429,15.261579 25.955244,14.073786 26.070768,13.284566 L 26.070768,13.229233 L 26.015434,12.454554 L 26.015434,12.399221 z " />
    <path
       id="path3360"
       style="fill:url(#linearGradient2110);fill-opacity:1;fill-rule:evenodd;stroke:none;stroke-width:1px;stroke-linecap:butt;stroke-linejoin:miter;stroke-opacity:1"
       d="M 26.015434,12.399221 C 26.015434,12.399221 26.786836,14.546992 23.27102,16.324649 C 20.07539,17.940414 17.189642,16.853616 17.189642,16.853616 L 17.161976,18.319971 L 17.189642,18.319971 C 17.189642,18.319971 19.471419,19.400281 23.193394,17.932632 C 26.116979,16.779804 26.126103,14.446584 26.126103,14.446583 L 26.015434,12.454554 L 26.015434,12.399221 z " />
    <path
       id="path3385"
       style="fill:url(#linearGradient2107);fill-opacity:1;fill-rule:evenodd;stroke:none;stroke-width:1px;stroke-linecap:butt;stroke-linejoin:miter;stroke-opacity:1"
       d="M 11.934671,8.7089944 L 6.6484942,3.3244266 L 6.6484942,4.1821054 C 6.6484944,4.1821054 7.8925537,5.0806243 9.0278603,6.2018006 C 10.163167,7.322976 11.185891,8.6641691 11.185891,8.6641691 L 11.934671,8.7089944 z " />
    <path
       id="path3389"
       style="fill:url(#linearGradient2104);fill-opacity:1;fill-rule:evenodd;stroke:none;stroke-width:1px;stroke-linecap:butt;stroke-linejoin:miter;stroke-opacity:1"
       d="M 11.351894,10.573196 L 12.04357,10.877533 L 11.932878,8.7093382 C 11.932878,8.7093382 11.185891,8.6641691 11.185891,8.6641691 L 11.351894,10.573196 z " />
    <path
       id="path3403"
       style="opacity:0.28125;fill:url(#radialGradient7476);fill-opacity:1;fill-rule:evenodd;stroke:none;stroke-width:1px;stroke-linecap:butt;stroke-linejoin:miter;stroke-opacity:1"
       d="M 4.6708381,12.146308 L 4.0524256,11.033166 C 4.0524256,11.033166 4.2766002,8.2889597 4.9336635,6.6269764 C 5.605509,4.9276019 6.6497584,4.1687854 6.6497584,4.1687854 C 4.5669063,6.5177373 4.714115,8.532079 4.6748782,10.142005 C 4.6326722,11.873757 6.4441983,13.857566 6.4441983,13.857566 C 6.4441983,13.857566 5.8914285,13.502705 5.4480884,13.07489 C 5.0047484,12.647076 4.6708381,12.146308 4.6708381,12.146308 z "
       sodipodi:nodetypes="ccscscsc" />
    <path
       id="path3417"
       style="fill:url(#linearGradient2098);fill-opacity:1;fill-rule:evenodd;stroke:none;stroke-width:1px;stroke-linecap:butt;stroke-linejoin:miter;stroke-opacity:1"
       d="M 11.185891,8.6641691 C 11.185891,8.6641691 10.075062,9.1555108 8.6958564,10.379525 C 8.1709055,10.845409 7.7066098,11.483581 7.3401706,12.094883 L 7.4231717,12.094883 C 7.4231717,12.094883 7.7102388,11.734292 8.5748336,11.450704 C 9.4394301,11.167118 10.881554,10.960534 10.881554,10.960534 L 11.351894,10.573196 L 11.185891,8.6641691 z M 11.932902,8.8025044 L 12.04357,10.849866 L 11.960568,8.8301705 L 11.932902,8.8025044 z " />
    <path
       id="path3431"
       style="fill:url(#linearGradient2095);fill-opacity:1;fill-rule:evenodd;stroke:none;stroke-width:1px;stroke-linecap:butt;stroke-linejoin:miter;stroke-opacity:1"
       d="M 4.6841331,12.150217 L 4.7118001,15.774601 L 7.4508388,19.011647 L 7.3401706,13.644238 L 6.4548247,13.865574 C 6.454825,13.865574 5.9021507,13.491045 5.4588106,13.063229 C 5.0154705,12.635415 4.6841331,12.150217 4.6841331,12.150217 z " />
    <path
       id="path3455"
       style="fill:url(#linearGradient2092);fill-opacity:1;fill-rule:evenodd;stroke:none;stroke-width:1px;stroke-linecap:butt;stroke-linejoin:miter;stroke-opacity:1"
       d="M 14.478271,11.292539 L 14.256935,11.375539 L 14.284602,12.094883 L 14.478271,12.260885 L 14.478271,11.292539 z " />
    <path
       id="path3477"
       style="fill:url(#linearGradient2089);fill-opacity:1;fill-rule:evenodd;stroke:none;stroke-width:1px;stroke-linecap:butt;stroke-linejoin:miter;stroke-opacity:1"
       d="M 17.770651,6.4784711 L 16.580968,6.921144 L 16.663969,8.6088344 L 15.889291,8.8578386 L 15.944624,9.6601826 L 17.825985,8.9408388 L 17.825985,6.5061382 L 17.770651,6.4784711 z " />
    <path
       id="path3479"
       style="fill:url(#linearGradient2086);fill-opacity:1;fill-rule:evenodd;stroke:none;stroke-width:1px;stroke-linecap:butt;stroke-linejoin:miter;stroke-opacity:1"
       d="M 12.209572,1.5260679 L 11.213558,1.7474044 L 16.553302,6.6168063 L 16.580968,6.921144 L 17.770651,6.4784711 L 12.209572,1.5260679 z M 11.019889,1.553735 L 10.134544,1.8857396 L 11.047556,1.5814021 L 11.019889,1.553735 z M 10.134544,1.8857396 L 10.217544,3.4627619 L 10.245212,3.490429 L 10.134544,1.8857396 z " />
    <path
       id="path3485"
       style="fill:url(#linearGradient2083);fill-opacity:1;fill-rule:evenodd;stroke:none;stroke-width:1px;stroke-linecap:butt;stroke-linejoin:miter;stroke-opacity:1"
       d="M 10.14379,1.8806586 L 11.046043,1.5770089 L 16.557886,6.6243283 L 15.586027,6.9149537 L 10.14379,1.8806586 z " />
    <path
       id="path3502"
       style="fill:url(#linearGradient2080);fill-opacity:1;fill-rule:evenodd;stroke:none;stroke-width:1px;stroke-linecap:butt;stroke-linejoin:miter;stroke-opacity:1"
       d="M 10.134544,1.8857396 L 10.245212,3.5734301 L 15.667955,8.9408388 L 15.584953,6.921144 L 10.134544,1.8857396 z " />
    <path
       id="path3506"
       style="fill:url(#linearGradient2077);fill-opacity:1;fill-rule:evenodd;stroke:none;stroke-width:1px;stroke-linecap:butt;stroke-linejoin:miter;stroke-opacity:1"
       d="M 13.080037,8.3628735 L 13.091398,9.8407881 L 13.730582,9.610817 L 13.792423,10.136467 L 12.029949,10.878561 L 11.933319,8.7090493 L 13.080037,8.3628735 z " />
    <path
       id="path3513"
       style="fill:url(#linearGradient2074);fill-opacity:1;fill-rule:evenodd;stroke:none;stroke-width:1px;stroke-linecap:butt;stroke-linejoin:miter;stroke-opacity:1"
       d="M 7.6721752,3.1307572 L 6.6484942,3.3244266 L 11.932902,8.7195023 L 13.067252,8.3598314 L 7.6721752,3.1307572 z " />
    <path
       id="path3534"
       style="fill:url(#linearGradient2071);fill-opacity:1;fill-rule:evenodd;stroke:none;stroke-width:1px;stroke-linecap:butt;stroke-linejoin:miter;stroke-opacity:1"
       d="M 8.6405227,2.4390808 L 7.6721752,2.6604172 L 13.067252,7.9171585 L 13.897262,7.6128201 L 8.6405227,2.4390808 z " />
    <path
       id="path3536"
       style="fill:url(#linearGradient2068);fill-opacity:1;fill-rule:evenodd;stroke:none;stroke-width:1px;stroke-linecap:butt;stroke-linejoin:miter;stroke-opacity:1"
       d="M 7.6721752,2.6604172 L 7.6721752,3.1307572 L 13.067252,8.3598314 L 13.067252,7.9171585 L 7.6721752,2.6604172 z " />
    <path
       id="path3542"
       style="fill:url(#linearGradient2065);fill-opacity:1;fill-rule:nonzero;stroke:none;stroke-width:0.2;stroke-linecap:round;stroke-linejoin:round;stroke-miterlimit:4;stroke-dasharray:none;stroke-opacity:1"
       d="M 22.566887,15.767899 C 22.567131,15.985692 22.262238,16.162322 21.886049,16.162322 C 21.509861,16.162322 21.204968,15.985692 21.205212,15.767899 C 21.204968,15.550105 21.509861,15.373476 21.886049,15.373476 C 22.262238,15.373476 22.567131,15.550105 22.566887,15.767899 z " />
    <path
       id="path3492"
       style="fill:url(#linearGradient2062);fill-opacity:1;fill-rule:evenodd;stroke:none;stroke-width:1px;stroke-linecap:butt;stroke-linejoin:miter;stroke-opacity:1"
       d="M 15.667955,8.9408388 L 16.663969,8.6088344 L 16.553302,6.6168063 L 15.584953,6.921144 L 15.667955,8.9408388 z " />
    <path
       id="path3527"
       style="fill:url(#linearGradient2059);fill-opacity:1;fill-rule:evenodd;stroke:none;stroke-width:1px;stroke-linecap:butt;stroke-linejoin:miter;stroke-opacity:1"
       d="M 13.897262,7.6128201 L 13.067252,7.9171585 L 13.067252,8.3598314 L 13.094918,9.8538521 L 13.731261,9.6048485 L 14.035598,9.5495153 L 13.897262,7.6128201 z " />
    <path
       id="path3457"
       style="fill:url(#linearGradient2056);fill-opacity:1;fill-rule:evenodd;stroke:none;stroke-width:1px;stroke-linecap:butt;stroke-linejoin:miter;stroke-opacity:1"
       d="M 16.636301,10.573196 L 14.478271,11.292539 L 14.478271,12.260885 L 16.331964,11.569209 L 16.636301,10.573196 z " />
    <path
       id="path3544"
       style="fill:url(#linearGradient2053);fill-opacity:1;fill-rule:evenodd;stroke:none;stroke-width:1px;stroke-linecap:butt;stroke-linejoin:miter;stroke-opacity:1"
       d="M 31.714848,4.5694442 L 25.379092,7.1424805 L 25.406759,8.0278261 L 31.687181,5.5931254 L 31.714848,4.5694442 z " />
    <path
       id="path3548"
       style="fill:url(#linearGradient2050);fill-opacity:1;fill-rule:evenodd;stroke:none;stroke-width:1px;stroke-linecap:butt;stroke-linejoin:miter;stroke-opacity:1"
       d="M 22.51204,4.3543096 L 28.378581,2.1095339 L 31.704184,4.5660879 L 25.386749,7.1298696 L 25.389138,6.833014 L 22.51204,4.3543096 z " />
    <path
       id="path3580"
       style="fill:url(#linearGradient2047);fill-opacity:1;fill-rule:evenodd;stroke:none;stroke-width:1px;stroke-linecap:butt;stroke-linejoin:miter;stroke-opacity:1"
       d="M 10.881554,10.960534 C 10.881554,10.960534 9.4497837,11.174954 8.5851882,11.45854 C 7.720593,11.742129 7.4231717,12.094883 7.4231717,12.094883 L 7.3401706,12.094883 C 6.7872397,13.017291 6.4548247,13.865574 6.4548247,13.865574 L 7.3401706,13.644238 L 7.4508388,19.011647 L 15.05928,16.106605 L 15.05928,15.774601 L 16.331964,11.569209 L 14.478271,12.260885 L 14.284602,12.094883 L 14.256935,11.375539 L 12.458576,11.956548 C 12.458576,11.956548 11.740929,12.43722 11.241225,12.067216 C 10.722687,11.683265 10.881554,10.960534 10.881554,10.960534 z " />
    <path
       id="path3592"
       style="fill:url(#linearGradient2044);fill-opacity:1;fill-rule:evenodd;stroke:none;stroke-width:1px;stroke-linecap:butt;stroke-linejoin:miter;stroke-opacity:1"
       d="M 15.05928,16.106605 L 10.33764,17.914392 L 10.770885,18.236969 L 15.086947,17.517627 L 15.05928,16.106605 z " />
    <path
       id="path3603"
       style="fill:url(#linearGradient2041);fill-opacity:1;fill-rule:evenodd;stroke:none;stroke-width:1px;stroke-linecap:butt;stroke-linejoin:miter;stroke-opacity:1"
       d="M 26.015434,11.45854 L 25.296091,11.790545 L 25.268424,12.731226 L 26.015434,12.399221 L 26.015434,11.45854 z " />
    <path
       id="path3605"
       style="fill:url(#linearGradient2038);fill-opacity:1;fill-rule:evenodd;stroke:none;stroke-width:1px;stroke-linecap:butt;stroke-linejoin:miter;stroke-opacity:1"
       d="M 31.410511,5.6761264 L 25.406759,8.0278261 L 25.296091,11.790545 L 26.015434,11.45854 L 31.299842,9.3281778 L 31.410511,5.6761264 z " />
    <path
       id="path3624"
       style="fill:url(#linearGradient2035);fill-opacity:1;fill-rule:nonzero;stroke:none;stroke-width:0.2;stroke-linecap:round;stroke-linejoin:round;stroke-miterlimit:4;stroke-opacity:1"
       d="M 13.92493,8.055493 L 14.035598,9.5495153 L 13.731261,9.6048485 L 13.786595,10.130524 L 13.565258,10.213524 L 14.533606,11.264872 L 16.636301,10.573196 L 13.92493,8.055493 z " />
    <path
       id="path3631"
       style="fill:url(#linearGradient2032);fill-opacity:1;fill-rule:nonzero;stroke:none;stroke-width:0.2;stroke-linecap:round;stroke-linejoin:round;stroke-miterlimit:4;stroke-opacity:1"
       d="M 10.494215,3.7394325 L 10.494215,4.2651065 L 13.897262,7.6128201 L 13.92493,8.055493 L 16.636301,10.573196 L 15.05928,15.774601 L 16.359631,16.715282 L 18.047321,9.6878506 L 17.300312,9.1068422 L 15.944624,9.6601826 L 15.889291,8.7471703 L 15.584953,8.8578386 L 10.494215,3.7394325 z " />
    <path
       id="path3655"
       style="fill:url(#linearGradient2029);fill-opacity:1;fill-rule:evenodd;stroke:none;stroke-width:1px;stroke-linecap:butt;stroke-linejoin:miter;stroke-opacity:1"
       d="M 5.624813,13.81024 L 2.6091038,14.916923 C 2.6091038,14.916923 3.2578246,15.205481 3.5221167,15.802268 C 3.7864085,16.399057 3.6051177,17.268623 3.6051178,17.268623 L 4.4074625,16.964285 C 4.3345717,16.860537 4.2967943,16.742266 4.2967943,16.604613 C 4.2967944,16.25636 4.5666302,15.968271 4.9054695,15.968271 C 5.2353396,15.968271 5.5001154,16.241442 5.5141447,16.576946 L 6.6484942,16.161941 C 6.6484942,16.161941 6.8745027,15.217897 6.5931601,14.612584 C 6.3118169,14.007271 5.6248127,13.810241 5.624813,13.81024 z " />
    <path
       id="path3657"
       style="fill:url(#linearGradient2026);fill-opacity:1;fill-rule:evenodd;stroke:none;stroke-width:1px;stroke-linecap:butt;stroke-linejoin:miter;stroke-opacity:1"
       d="M 2.6091038,14.916923 C 2.6091038,14.916923 2.213465,15.118138 2.6327572,16.174821 C 3.0738322,17.286402 3.6051177,17.268623 3.6051178,17.268623 C 3.6051177,17.268623 3.7864085,16.399057 3.5221167,15.802268 C 3.2578246,15.205481 2.6091038,14.916923 2.6091038,14.916923 z " />
    <path
       id="path3661"
       style="fill:url(#radialGradient2023);fill-opacity:1;fill-rule:nonzero;stroke:none;stroke-width:0.2;stroke-linecap:round;stroke-linejoin:round;stroke-miterlimit:4;stroke-dasharray:none;stroke-opacity:1"
       d="M 10.16691,22.346624 C 10.16691,22.936835 9.6884496,23.415295 9.0982383,23.415295 C 8.5080268,23.415295 8.0295656,22.936835 8.0295656,22.346624 C 8.0295656,21.756411 8.5080268,21.277951 9.0982383,21.277951 C 9.6884496,21.277951 10.16691,21.756411 10.16691,22.346624 L 10.16691,22.346624 z " />
    <path
       id="path3663"
       style="fill:url(#radialGradient2020);fill-opacity:1;fill-rule:nonzero;stroke:none;stroke-width:0.2;stroke-linecap:round;stroke-linejoin:round;stroke-miterlimit:4;stroke-dasharray:none;stroke-opacity:1"
       d="M 1.2534179,10.462528 C 0.69032499,10.462528 0.22973682,10.923115 0.22973682,11.486208 C 0.22973682,12.049301 0.69032499,12.509889 1.2534179,12.509889 C 1.1299638,12.400832 1.0597486,12.244768 1.0597486,12.067216 C 1.0597486,11.738745 1.339953,11.45854 1.668424,11.45854 C 1.9147772,11.45854 2.1037239,11.604661 2.1940979,11.818212 C 2.2328603,11.710443 2.249432,11.607273 2.249432,11.486208 C 2.249432,10.923115 1.816511,10.462528 1.2534179,10.462528 z " />
    <path
       id="path3680"
       style="fill:url(#linearGradient2017);fill-opacity:1;fill-rule:evenodd;stroke:none;stroke-width:1px;stroke-linecap:butt;stroke-linejoin:miter;stroke-opacity:1"
       d="M 1.668424,11.45854 C 1.339953,11.45854 1.0597486,11.738745 1.0597486,12.067216 C 1.0597486,12.146592 1.0885329,12.220045 1.1150828,12.288552 C 1.1479206,12.373285 1.1851551,12.449586 1.2534179,12.509889 L 2.8857743,14.806254 L 4.0754577,14.391249 L 2.0004285,11.569209 C 1.9914958,11.562887 1.9820791,11.54732 1.9727615,11.541542 C 1.8889033,11.489534 1.7792828,11.45854 1.668424,11.45854 z M 4.9054695,15.968271 C 4.5666302,15.968271 4.2967944,16.25636 4.2967943,16.604613 C 4.2967943,16.67344 4.3059056,16.73854 4.3244613,16.798282 L 4.3797954,16.908951 C 4.3899808,16.927072 4.395314,16.946993 4.4074625,16.964285 L 8.0595141,22.08269 L 8.0871814,22.055024 C 8.2201271,21.616105 8.6287267,21.280345 9.1108621,21.280345 C 9.1411136,21.280345 9.1642453,21.305545 9.1938631,21.308013 L 5.8738166,16.82595 C 5.8738166,16.82595 5.4211301,16.272668 5.4034766,16.244941 L 5.3758094,16.217274 C 5.2649935,16.064104 5.1049518,15.968271 4.9054695,15.968271 z " />
    <path
       id="path2271"
       style="fill:url(#linearGradient2014);fill-opacity:1;fill-rule:nonzero;stroke:none;stroke-width:0.2;stroke-linecap:round;stroke-linejoin:round;stroke-miterlimit:4;stroke-opacity:1"
       d="M 13.568717,10.223899 L 12.04357,10.877533 L 11.351894,10.573196 L 10.881554,10.960534 C 10.881554,10.960537 10.722687,11.683265 11.241225,12.067216 C 11.740929,12.437219 12.458576,11.956548 12.458576,11.956548 L 14.547439,11.264872 L 13.568717,10.223899 z " />
    <path
       id="path2292"
       style="fill:#000000;fill-opacity:1;fill-rule:nonzero;stroke:none;stroke-width:0.2;stroke-linecap:round;stroke-linejoin:round;stroke-miterlimit:4;stroke-dasharray:none;stroke-opacity:1"
       d="M 11.589412,3.6867697 C 11.620267,3.9409177 11.516512,4.1625784 11.35767,4.1818627 C 11.198827,4.201147 11.045048,4.0107525 11.014192,3.7566046 C 10.983337,3.5024566 11.087092,3.280796 11.245934,3.2615117 C 11.404777,3.2422273 11.558556,3.4326218 11.589412,3.6867697 L 11.589412,3.6867697 z " />
    <use
       xlink:href="#path2292"
       height="40"
       width="40"
       y="0"
       x="0"
       id="use2294"
       style="fill:#000000;fill-opacity:1"
       transform="translate(3.0778294,3.0391996)" />
    <path
       id="path4279"
       style="fill:url(#linearGradient2009);fill-opacity:1;fill-rule:evenodd;stroke:none;stroke-width:1px;stroke-linecap:butt;stroke-linejoin:miter;stroke-opacity:1"
       d="M 17.825985,6.5061382 C 17.82263,6.5027836 18.855132,6.2439244 19.984015,6.4784711 C 20.956545,6.6805328 21.59269,7.0764638 21.837709,7.2531487 L 18.406993,4.1821054 C 18.406993,4.1821054 16.890128,3.0953363 15.52962,2.5774161 C 14.169112,2.0594959 12.847768,2.0811674 12.847767,2.0811674 L 17.825985,6.5061382 z " />
    <path
       id="path5258"
       style="opacity:0.2767857;fill:url(#radialGradient5688);fill-opacity:1;fill-rule:evenodd;stroke:none;stroke-width:1px;stroke-linecap:butt;stroke-linejoin:miter;stroke-opacity:1"
       d="M 21.947839,7.3450999 L 17.825985,8.9408388 L 17.327979,9.1345092 L 18.047321,9.6878506 C 18.047321,9.6878506 22.006745,8.2902837 22.651346,6.6822717 C 23.310851,5.0370792 22.469954,4.3225586 21.229033,3.3244266 L 18.406993,4.1821054 L 21.947839,7.3450999 z "
       sodipodi:nodetypes="ccccsccc" />
    <path
       id="path5262"
       style="fill:url(#linearGradient2003);fill-opacity:1;fill-rule:nonzero;stroke:none;stroke-width:0.2;stroke-linecap:round;stroke-linejoin:round;stroke-miterlimit:4;stroke-opacity:1"
       d="M 10.494215,3.7394325 L 10.494215,4.2651065 L 13.897262,7.6128201 L 13.92493,8.055493 L 16.636301,10.573196 L 15.05928,15.774601 L 16.359631,16.715282 L 18.047321,9.6878506 L 17.300312,9.1068422 L 15.944624,9.6601826 L 15.889291,8.7471703 L 15.584953,8.8578386 L 10.494215,3.7394325 z " />
    <path
       id="path5266"
       style="fill:url(#linearGradient2000);fill-opacity:1;fill-rule:evenodd;stroke:none;stroke-width:1px;stroke-linecap:butt;stroke-linejoin:miter;stroke-opacity:1"
       d="M 22.51204,4.3543096 L 28.378581,2.1095339 L 31.704184,4.5660879 L 25.386749,7.1298696 L 25.389138,6.833014 L 22.51204,4.3543096 z " />
  </g>
</svg>
