<?xml version="1.0" encoding="UTF-8" standalone="no"?>
<!-- Created with Inkscape (http://www.inkscape.org/) -->
<svg
   xmlns:dc="http://purl.org/dc/elements/1.1/"
   xmlns:cc="http://web.resource.org/cc/"
   xmlns:rdf="http://www.w3.org/1999/02/22-rdf-syntax-ns#"
   xmlns:svg="http://www.w3.org/2000/svg"
   xmlns="http://www.w3.org/2000/svg"
   xmlns:xlink="http://www.w3.org/1999/xlink"
   xmlns:sodipodi="http://sodipodi.sourceforge.net/DTD/sodipodi-0.dtd"
   xmlns:inkscape="http://www.inkscape.org/namespaces/inkscape"
   width="40"
   height="40"
   id="svg2193"
   sodipodi:version="0.32"
   inkscape:version="0.45.1"
   version="1.0"
   sodipodi:docbase="/home/jra/Desktop"
   sodipodi:docname="magnet-edited8test2.svg"
   inkscape:output_extension="org.inkscape.output.svg.inkscape">
  <defs
     id="defs2195">
    <linearGradient
       inkscape:collect="always"
       id="linearGradient3262">
      <stop
         style="stop-color:#ffffff;stop-opacity:1;"
         offset="0"
         id="stop3264" />
      <stop
         style="stop-color:#ffffff;stop-opacity:0;"
         offset="1"
         id="stop3266" />
    </linearGradient>
    <linearGradient
       inkscape:collect="always"
       id="linearGradient3239">
      <stop
         style="stop-color:#eeeeec;stop-opacity:1;"
         offset="0"
         id="stop3241" />
      <stop
         style="stop-color:#eeeeec;stop-opacity:0;"
         offset="1"
         id="stop3243" />
    </linearGradient>
    <linearGradient
       id="linearGradient3220">
      <stop
         id="stop3222"
         offset="0"
         style="stop-color:#000000;stop-opacity:1;" />
      <stop
         id="stop3224"
         offset="1"
         style="stop-color:#e3e3e3;stop-opacity:0.8116883;" />
    </linearGradient>
    <linearGradient
       id="linearGradient3291">
      <stop
         id="stop3293"
         offset="0"
         style="stop-color:#000000;stop-opacity:1;" />
      <stop
         id="stop3295"
         offset="1"
         style="stop-color:#000000;stop-opacity:0;" />
    </linearGradient>
    <radialGradient
       inkscape:collect="always"
       xlink:href="#linearGradient3291"
       id="radialGradient2595"
       gradientUnits="userSpaceOnUse"
       gradientTransform="matrix(1,0,0,0.197802,0,92.82166)"
       cx="63.912209"
       cy="115.70919"
       fx="63.912209"
       fy="115.70919"
       r="63.912209" />
    <linearGradient
       inkscape:collect="always"
       xlink:href="#linearGradient3262"
       id="linearGradient2282"
       gradientUnits="userSpaceOnUse"
       gradientTransform="matrix(0.6760953,0,0,0.5457616,6.3801028,12.556976)"
       x1="22.560963"
       y1="23.330904"
       x2="40.261745"
       y2="23.330904" />
    <linearGradient
       inkscape:collect="always"
       xlink:href="#linearGradient3262"
       id="linearGradient2289"
       gradientUnits="userSpaceOnUse"
       gradientTransform="matrix(0.6760953,0,0,0.5457616,6.3801028,12.556976)"
       x1="6.75"
       y1="10.824957"
       x2="33.355286"
       y2="10.824957" />
    <linearGradient
       inkscape:collect="always"
       xlink:href="#linearGradient3262"
       id="linearGradient3268"
       x1="30.031254"
       y1="22.531254"
       x2="18.648973"
       y2="-4.4944277"
       gradientUnits="userSpaceOnUse"
       gradientTransform="matrix(-0.6448349,0,0,0.6569763,33.675157,9.0496648)" />
    <linearGradient
       inkscape:collect="always"
       xlink:href="#linearGradient3291"
       id="linearGradient3272"
       gradientUnits="userSpaceOnUse"
       gradientTransform="matrix(0.6760953,0,0,0.5457616,6.3801028,12.556976)"
       x1="33.351162"
       y1="8.6622429"
       x2="-6.475194"
       y2="9.2007008" />
    <linearGradient
       inkscape:collect="always"
       xlink:href="#linearGradient3291"
       id="linearGradient3276"
       gradientUnits="userSpaceOnUse"
       gradientTransform="matrix(0.6760953,0,0,0.5457616,6.3801028,12.556976)"
       x1="37.004131"
       y1="16.912527"
       x2="4.532671"
       y2="25.966114" />
    <linearGradient
       inkscape:collect="always"
       xlink:href="#linearGradient3220"
       id="linearGradient3284"
       x1="20.191437"
       y1="28.815584"
       x2="21.629772"
       y2="22.904177"
       gradientUnits="userSpaceOnUse"
       gradientTransform="matrix(-0.6448349,0,0,0.6569763,33.675157,9.0496648)" />
    <linearGradient
       inkscape:collect="always"
       xlink:href="#linearGradient3220"
       id="linearGradient4261"
       x1="-2.0714016"
       y1="14.997039"
       x2="32.74847"
       y2="24.999784"
       gradientUnits="userSpaceOnUse"
       gradientTransform="matrix(-0.6448349,0,0,0.6569763,33.675157,9.0496648)" />
    <linearGradient
       inkscape:collect="always"
       xlink:href="#linearGradient3220"
       id="linearGradient4269"
       x1="31.134928"
       y1="19.305"
       x2="32.991272"
       y2="13.891536"
       gradientUnits="userSpaceOnUse"
       gradientTransform="matrix(-0.6448349,0,0,0.6569763,33.675157,9.0496648)" />
    <linearGradient
       inkscape:collect="always"
       xlink:href="#linearGradient3239"
       id="linearGradient4277"
       x1="28.700464"
       y1="19.850115"
       x2="38.841488"
       y2="29.218752"
       gradientUnits="userSpaceOnUse"
       gradientTransform="matrix(-0.6448349,0,0,0.6569763,33.675157,9.0496648)" />
    <radialGradient
       inkscape:collect="always"
       xlink:href="#linearGradient3239"
       id="radialGradient3260"
       cx="21.617331"
       cy="17.060429"
       fx="21.617331"
       fy="17.060429"
       r="8.5490208"
       gradientTransform="matrix(0.915945,0,0,0.5141381,1.7239396,10.696972)"
       gradientUnits="userSpaceOnUse" />
    <linearGradient
       inkscape:collect="always"
       xlink:href="#linearGradient3291"
       id="linearGradient3332"
       x1="33.592896"
       y1="13.54718"
       x2="7.4905581"
       y2="22.56286"
       gradientUnits="userSpaceOnUse"
       gradientTransform="matrix(0.915945,0,0,0.8678679,1.7239396,4.6621878)" />
  </defs>
  <sodipodi:namedview
     id="base"
     pagecolor="#ffffff"
     bordercolor="#666666"
     borderopacity="1.0"
     inkscape:pageopacity="0.0"
     inkscape:pageshadow="2"
     inkscape:zoom="17.3"
     inkscape:cx="27.429369"
     inkscape:cy="20"
     inkscape:current-layer="layer1"
     showgrid="false"
     inkscape:grid-bbox="true"
     inkscape:document-units="px"
     width="40px"
     height="40px"
     gridempspacing="2"
     inkscape:window-width="1167"
     inkscape:window-height="914"
     inkscape:window-x="821"
     inkscape:window-y="46" />
  <metadata
     id="metadata2198">
    <rdf:RDF>
      <cc:Work
         rdf:about="">
        <dc:format>image/svg+xml</dc:format>
        <dc:type
           rdf:resource="http://purl.org/dc/dcmitype/StillImage" />
        <dc:creator>
          <cc:Agent>
            <dc:title>Jarle Akselsen</dc:title>
          </cc:Agent>
        </dc:creator>
        <cc:license
           rdf:resource="http://creativecommons.org/licenses/GPL/2.0/" />
      </cc:Work>
      <cc:License
         rdf:about="http://creativecommons.org/licenses/GPL/2.0/">
        <cc:permits
           rdf:resource="http://web.resource.org/cc/Reproduction" />
        <cc:permits
           rdf:resource="http://web.resource.org/cc/Distribution" />
        <cc:requires
           rdf:resource="http://web.resource.org/cc/Notice" />
        <cc:permits
           rdf:resource="http://web.resource.org/cc/DerivativeWorks" />
        <cc:requires
           rdf:resource="http://web.resource.org/cc/ShareAlike" />
        <cc:requires
           rdf:resource="http://web.resource.org/cc/SourceCode" />
      </cc:License>
    </rdf:RDF>
  </metadata>
  <g
     id="layer1"
     inkscape:label="Layer 1"
     inkscape:groupmode="layer">
    <path
       transform="matrix(0.1762777,-1.4444241e-3,-8.6186783e-2,0.5093298,23.231027,-34.127272)"
       d="M 127.82442 115.70919 A 63.912209 12.641975 0 1 1  0,115.70919 A 63.912209 12.641975 0 1 1  127.82442 115.70919 z"
       sodipodi:ry="12.641975"
       sodipodi:rx="63.912209"
       sodipodi:cy="115.70919"
       sodipodi:cx="63.912209"
       id="path2593"
       style="opacity:0.38139535;fill:url(#radialGradient2595);fill-opacity:1;fill-rule:nonzero;stroke:none;stroke-width:0;stroke-linecap:round;stroke-linejoin:round;stroke-miterlimit:4;stroke-dasharray:none;stroke-dashoffset:4;stroke-opacity:1"
       sodipodi:type="arc" />
    <path
       style="fill:#590000;fill-opacity:1;fill-rule:nonzero;stroke:none;stroke-width:1;stroke-linecap:round;stroke-linejoin:round;stroke-miterlimit:4;stroke-dasharray:none;stroke-opacity:1"
       d="M 24.335133,13.646635 C 26.718254,13.717564 29.000728,14.504652 30.323746,15.835677 C 31.041826,16.558103 31.394255,17.328597 31.398039,18.117869 L 31.398039,20.446634 C 31.422306,21.993871 30.142915,23.527954 27.809443,24.38225 C 27.62816,24.448618 20.28635,27.100543 22.803694,26.175401 L 22.803694,24.009648 L 22.757979,23.963072 L 22.757979,23.823348 L 21.112254,22.426088 C 21.141341,22.415412 21.151734,22.41347 21.180826,22.402799 L 21.203683,22.402799 C 23.425307,21.587988 25.634108,20.770782 26.39229,20.493212 C 27.358241,20.13957 28.099644,19.666699 28.518019,19.119238 C 28.444543,19.02201 28.359548,18.910019 28.266588,18.816497 C 26.87096,17.412428 24.59151,16.758543 22.277976,17.60554 C 21.287416,17.968188 18.187589,19.086457 15.80936,19.957594 C 15.764619,19.973982 15.783594,19.965236 15.740789,19.980883 L 15.740789,17.908281 L 15.717932,17.884991 L 15.717932,17.745266 L 14.255065,16.464443 L 20.12939,14.298689 C 21.443697,13.815325 22.905258,13.604074 24.335133,13.646635 z "
       id="path2245" />
    <path
       style="fill:#555555;fill-opacity:1;fill-rule:nonzero;stroke:none;stroke-width:1;stroke-linecap:round;stroke-linejoin:round;stroke-miterlimit:4;stroke-dasharray:none;stroke-opacity:1"
       d="M 14.309957,16.440651 L 15.801139,17.734072 L 15.801139,19.951367 C 13.798031,20.685098 11.777778,21.436894 10.944725,21.737522 L 10.944725,21.716991 L 9.614755,20.341448 L 9.614755,18.165215 L 14.309957,16.440651 z M 21.181482,22.394497 L 22.85402,23.831633 L 22.85402,26.192642 C 20.084798,27.209565 17.252018,28.245692 17.252018,28.245692 L 15.760837,26.685375 L 15.760837,24.406487 C 16.55263,24.11661 18.861164,23.245506 21.181482,22.394497 z "
       id="path2267" />
    <rect
       style="opacity:0.61162792;fill:#555753;fill-opacity:1;fill-rule:nonzero;stroke:none;stroke-width:0.69999999;stroke-linecap:round;stroke-linejoin:miter;stroke-miterlimit:4;stroke-dasharray:none;stroke-opacity:1"
       id="rect1951"
       width="40.001965"
       height="10.004759"
       x="-0.0019644466"
       y="30" />
    <text
       xml:space="preserve"
       style="font-size:12px;font-style:normal;font-weight:normal;fill:#eeeeec;fill-opacity:1;stroke:none;stroke-width:1px;stroke-linecap:butt;stroke-linejoin:miter;stroke-opacity:1;font-family:Bitstream Vera Sans"
       x="12.000019"
       y="39.168156"
       id="text2840"><tspan
         sodipodi:role="line"
         id="tspan2842"
         x="12.000019"
         y="39.168156">Co</tspan></text>
    <path
       style="opacity:0.85;fill:url(#linearGradient4277);fill-opacity:1;fill-rule:nonzero;stroke:none;stroke-width:1;stroke-linecap:round;stroke-linejoin:round;stroke-miterlimit:4;stroke-dasharray:none;stroke-opacity:1"
       d="M 9.614755,18.165215 L 10.944725,19.520227 L 10.944725,21.716991 L 9.614755,20.341448 L 9.614755,18.165215 z M 15.760837,24.406487 L 17.252018,25.884686 C 17.252018,25.884686 17.252018,28.245692 17.252018,28.245692 L 15.760837,26.685375 L 15.760837,24.406487 z "
       id="path4187" />
    <path
       style="opacity:0.25;fill:url(#linearGradient2289);fill-opacity:1;fill-rule:nonzero;stroke:none;stroke-width:1;stroke-linecap:round;stroke-linejoin:round;stroke-miterlimit:4;stroke-dasharray:none;stroke-opacity:1"
       d="M 24.345202,15.208817 C 24.501868,15.213685 24.653917,15.215438 24.808679,15.229349 C 24.922131,15.239663 25.039313,15.255319 25.151247,15.27041 C 25.193053,15.275989 25.230603,15.2847 25.272152,15.290939 C 25.33024,15.299774 25.37583,15.301357 25.433362,15.311474 C 25.598073,15.340118 25.757833,15.375105 25.916986,15.414123 C 26.059326,15.449383 26.203417,15.493928 26.340162,15.537306 C 26.412982,15.560325 26.490813,15.594143 26.56182,15.619429 C 26.680885,15.661773 26.811172,15.693994 26.924542,15.742614 C 27.067577,15.804294 27.215163,15.876391 27.347715,15.947919 C 27.376748,15.963586 27.399833,15.993378 27.428318,16.00951 C 27.516428,16.059488 27.587581,16.098834 27.670132,16.153225 C 27.737532,16.197688 27.808265,16.249579 27.871644,16.296938 C 28.018391,16.405846 28.151387,16.501401 28.274665,16.625427 C 28.361891,16.71318 28.447311,16.823785 28.516478,16.912852 C 28.585644,17.001919 28.646255,17.089838 28.697837,17.179749 C 28.749421,17.269662 28.784269,17.356353 28.818744,17.446647 C 28.840444,17.499529 28.862442,17.557672 28.879198,17.61089 C 28.888665,17.646111 28.892388,17.678358 28.899349,17.713542 C 28.994878,18.196522 28.854312,18.671374 28.516478,19.109617 C 28.443002,19.012387 28.367625,18.915713 28.274665,18.822191 C 28.155045,18.70185 28.013235,18.578811 27.871644,18.473172 C 26.461318,17.32061 24.377341,16.83925 22.269638,17.61089 C 22.210762,17.632445 21.959987,17.727982 21.886769,17.754604 C 21.781924,17.787171 21.66675,17.799238 21.564351,17.836725 C 20.645903,18.172973 18.438842,18.996271 16.224313,19.807655 C 16.064445,19.865992 15.955654,19.894767 15.801139,19.951367 L 15.801139,17.734072 C 18.17728,16.859638 20.573792,15.98208 21.564351,15.619429 C 21.740689,15.55487 21.904972,15.504817 22.088281,15.455185 C 22.124131,15.445281 22.17315,15.443988 22.209186,15.434655 C 22.319658,15.406608 22.439503,15.375332 22.551754,15.352534 C 22.600812,15.342366 22.64348,15.320622 22.692814,15.311474 C 22.769321,15.297575 22.837407,15.302467 22.914474,15.290939 C 23.070144,15.267662 23.240979,15.243078 23.398101,15.229349 C 23.551491,15.215875 23.706723,15.213094 23.861576,15.208817 C 24.019029,15.204469 24.188536,15.203953 24.345202,15.208817 z "
       id="path4191" />
    <path
       style="opacity:0.35;fill:url(#linearGradient3268);fill-opacity:1;fill-rule:nonzero;stroke:none;stroke-width:1;stroke-linecap:round;stroke-linejoin:round;stroke-miterlimit:4;stroke-dasharray:none;stroke-opacity:1"
       d="M 24.345202,13.648499 C 26.728324,13.71943 29.007058,14.493712 30.330077,15.824735 C 32.446905,17.954372 31.320268,20.74026 27.811189,22.02495 C 27.72524,22.056417 25.301548,22.950885 22.85402,23.852164 L 22.85402,23.831633 L 21.201633,22.394497 C 23.423258,21.579685 25.642432,20.762735 26.400614,20.485162 C 28.714151,19.638165 29.670291,18.050026 28.274665,16.645957 C 26.879038,15.241883 23.877888,14.792961 21.564351,15.63996 C 20.574296,16.002425 18.175917,16.864279 15.801139,17.734072 L 14.309957,16.440651 L 20.133623,14.305476 C 21.447931,13.822113 22.915328,13.60594 24.345202,13.648499 z "
       id="path4193" />
    <path
       style="opacity:0.3;fill:url(#linearGradient2282);fill-opacity:1;fill-rule:nonzero;stroke:none;stroke-width:1;stroke-linecap:round;stroke-linejoin:round;stroke-miterlimit:4;stroke-dasharray:none;stroke-opacity:1"
       d="M 31.398084,18.124155 L 31.398084,20.4441 C 31.42235,21.991334 30.144663,23.531661 27.811189,24.385958 C 27.725299,24.417401 25.300033,25.294408 22.85402,26.192642 L 22.85402,23.831633 C 25.301875,22.929904 27.72524,22.035886 27.811189,22.004418 C 28.089537,21.902513 28.32704,21.793125 28.576931,21.675929 C 30.359168,20.840094 31.395641,19.511789 31.398084,18.124155 z "
       id="path4195" />
    <path
       id="path4197"
       d="M 14.303093,16.445531 L 9.612684,18.16809 L 10.943745,19.515442 C 11.776797,19.214809 13.802076,18.474641 15.803183,17.741713 L 14.303093,16.445531 z M 21.190817,22.397741 C 18.8705,23.24875 16.545119,24.109437 15.753327,24.399318 L 17.253415,25.900159 C 17.253415,25.900159 20.091074,24.849972 22.859926,23.830367 L 21.190817,22.397741 z "
       style="opacity:0.75;fill:url(#linearGradient4261);fill-opacity:1;fill-rule:nonzero;stroke:none;stroke-width:1;stroke-linecap:round;stroke-linejoin:round;stroke-miterlimit:4;stroke-dasharray:none;stroke-opacity:1"
       sodipodi:nodetypes="cccccccccc" />
    <path
       id="path4201"
       d="M 22.859926,23.830367 C 20.092559,24.8498 17.261011,25.894027 17.261011,25.894027 L 17.261011,28.247624 C 17.261011,28.247624 20.090704,27.200887 22.859926,26.183962 L 22.859926,23.830367 z "
       style="opacity:0.15;fill:url(#linearGradient3284);fill-opacity:1;fill-rule:nonzero;stroke:none;stroke-width:1;stroke-linecap:round;stroke-linejoin:round;stroke-miterlimit:4;stroke-dasharray:none;stroke-opacity:1" />
    <path
       id="path4199"
       d="M 15.803183,17.741713 C 13.800072,18.475445 11.776797,19.214809 10.943745,19.515442 L 10.943745,21.732595 C 11.776797,21.431968 13.800072,20.6926 15.803183,19.958869 L 15.803183,17.741713 z "
       style="opacity:0.15;fill:url(#linearGradient4269);fill-opacity:1;fill-rule:nonzero;stroke:none;stroke-width:1;stroke-linecap:round;stroke-linejoin:round;stroke-miterlimit:4;stroke-dasharray:none;stroke-opacity:1" />
    <path
       id="path3270"
       d="M 24.345202,15.208817 C 24.501868,15.213685 24.653917,15.215438 24.808679,15.229349 C 24.922131,15.239663 25.039313,15.255319 25.151247,15.27041 C 25.193053,15.275989 25.230603,15.2847 25.272152,15.290939 C 25.33024,15.299774 25.37583,15.301357 25.433362,15.311474 C 25.598073,15.340118 25.757833,15.375105 25.916986,15.414123 C 26.059326,15.449383 26.203417,15.493928 26.340162,15.537306 C 26.412982,15.560325 26.490813,15.594143 26.56182,15.619429 C 26.680885,15.661773 26.811172,15.693994 26.924542,15.742614 C 27.067577,15.804294 27.215163,15.876391 27.347715,15.947919 C 27.376748,15.963586 27.399833,15.993378 27.428318,16.00951 C 27.516428,16.059488 27.587581,16.098834 27.670132,16.153225 C 27.737532,16.197688 27.808265,16.249579 27.871644,16.296938 C 28.018391,16.405846 28.151387,16.501401 28.274665,16.625427 C 28.361891,16.71318 28.447311,16.823785 28.516478,16.912852 C 28.585644,17.001919 28.646255,17.089838 28.697837,17.179749 C 28.749421,17.269662 28.784269,17.356353 28.818744,17.446647 C 28.840444,17.499529 28.862442,17.557672 28.879198,17.61089 C 28.888665,17.646111 28.892388,17.678358 28.899349,17.713542 C 28.994878,18.196522 28.854312,18.671374 28.516478,19.109617 C 28.443002,19.012387 28.367625,18.915713 28.274665,18.822191 C 28.155045,18.70185 28.013235,18.578811 27.871644,18.473172 C 26.461318,17.32061 24.377341,16.83925 22.269638,17.61089 C 22.210762,17.632445 21.959987,17.727982 21.886769,17.754604 C 21.781924,17.787171 21.66675,17.799238 21.564351,17.836725 C 20.645903,18.172973 18.438842,18.996271 16.224313,19.807655 C 16.064445,19.865992 15.955654,19.894767 15.801139,19.951367 L 15.801139,17.734072 C 18.17728,16.859638 20.573792,15.98208 21.564351,15.619429 C 21.740689,15.55487 21.904972,15.504817 22.088281,15.455185 C 22.124131,15.445281 22.17315,15.443988 22.209186,15.434655 C 22.319658,15.406608 22.439503,15.375332 22.551754,15.352534 C 22.600812,15.342366 22.64348,15.320622 22.692814,15.311474 C 22.769321,15.297575 22.837407,15.302467 22.914474,15.290939 C 23.070144,15.267662 23.240979,15.243078 23.398101,15.229349 C 23.551491,15.215875 23.706723,15.213094 23.861576,15.208817 C 24.019029,15.204469 24.188536,15.203953 24.345202,15.208817 z "
       style="opacity:0.5;fill:url(#linearGradient3272);fill-opacity:1;fill-rule:nonzero;stroke:none;stroke-width:1;stroke-linecap:round;stroke-linejoin:round;stroke-miterlimit:4;stroke-dasharray:none;stroke-opacity:1" />
    <path
       id="path3274"
       d="M 31.398084,18.124155 L 31.398084,20.4441 C 31.42235,21.991334 30.144663,23.531661 27.811189,24.385958 C 27.725299,24.417401 25.300033,25.294408 22.85402,26.192642 L 22.85402,23.831633 C 25.301875,22.929904 27.72524,22.035886 27.811189,22.004418 C 28.089537,21.902513 28.32704,21.793125 28.576931,21.675929 C 30.359168,20.840094 31.395641,19.511789 31.398084,18.124155 z "
       style="opacity:0.3;fill:url(#linearGradient3276);fill-opacity:1;fill-rule:nonzero;stroke:none;stroke-width:1;stroke-linecap:round;stroke-linejoin:round;stroke-miterlimit:4;stroke-dasharray:none;stroke-opacity:1" />
    <path
       style="opacity:0.5;fill:url(#radialGradient3260);fill-opacity:1;fill-rule:nonzero;stroke:none;stroke-width:1;stroke-linecap:round;stroke-linejoin:round;stroke-miterlimit:4;stroke-dasharray:none;stroke-opacity:1"
       d="M 24.250461,15.076609 C 23.31042,15.047726 22.370203,15.192918 21.502626,15.510542 C 20.512571,15.873006 18.095501,16.729057 15.720723,17.598849 L 15.806593,17.734454 C 18.181371,16.864661 20.569817,16.008611 21.559872,15.646148 C 23.873409,14.799148 26.890715,15.245544 28.286343,16.649619 C 28.247852,16.606129 28.243382,16.557184 28.200473,16.514014 C 27.328206,15.636468 25.817195,15.124747 24.250461,15.076609 z M 28.286343,16.649619 C 28.460797,16.825129 28.584166,17.012583 28.687069,17.192037 C 28.600433,17.00238 28.451295,16.835988 28.286343,16.649619 z M 31.120048,16.975069 C 31.85458,18.836742 30.580726,20.844859 27.742501,21.883946 C 27.656549,21.915412 25.238201,22.799766 22.790673,23.701045 L 22.84792,23.836649 L 22.84792,23.863769 C 25.295448,22.96249 27.713801,22.051018 27.799747,22.019551 C 30.706961,20.955208 31.973007,18.873362 31.120048,16.975069 z "
       id="path3247"
       sodipodi:nodetypes="csccsssccsccscccsc" />
    <path
       sodipodi:nodetypes="cccccccccc"
       id="path3275"
       d="M 14.309957,16.440651 L 15.801139,17.734072 L 15.660083,17.816196 L 14.168902,16.522775 L 14.309957,16.440651 z M 21.181482,22.394497 L 22.85402,23.831633 L 22.712965,23.913755 L 21.040422,22.476621 L 21.181482,22.394497 z "
       style="opacity:1;fill:#888888;fill-opacity:1;fill-rule:nonzero;stroke:none;stroke-width:1;stroke-linecap:round;stroke-linejoin:round;stroke-miterlimit:4;stroke-dasharray:none;stroke-opacity:1" />
    <path
       sodipodi:nodetypes="cccccccccc"
       id="path3285"
       d="M 15.801139,17.734072 L 15.801139,19.951367 C 15.741704,19.97314 15.719516,19.991167 15.660083,20.012961 L 15.660083,17.816196 L 15.801139,17.734072 z M 22.85402,23.831633 L 22.85402,26.192642 C 22.782763,26.21881 22.784257,26.228058 22.712965,26.254233 L 22.712965,23.913755 L 22.85402,23.831633 z "
       style="opacity:1;fill:#4a1e1e;fill-opacity:1;fill-rule:nonzero;stroke:none;stroke-width:1;stroke-linecap:round;stroke-linejoin:round;stroke-miterlimit:4;stroke-dasharray:none;stroke-opacity:1" />
    <path
       style="opacity:0.5;fill:url(#linearGradient3332);fill-opacity:1;fill-rule:nonzero;stroke:none;stroke-width:1;stroke-linecap:round;stroke-linejoin:round;stroke-miterlimit:4;stroke-dasharray:none;stroke-opacity:1"
       d="M 23.763865,17.110674 C 23.576508,17.122657 23.381701,17.161298 23.191399,17.192037 C 23.15545,17.197799 23.112938,17.185584 23.076906,17.192037 C 23.019676,17.202396 22.962587,17.207043 22.905167,17.219157 C 22.876445,17.225141 22.84806,17.23985 22.819297,17.246277 C 22.561357,17.304621 22.306477,17.368055 22.046468,17.463244 C 21.987592,17.484802 21.718961,17.599348 21.645742,17.625971 C 21.619916,17.635384 21.530091,17.643089 21.502626,17.653092 C 21.442,17.66606 21.387601,17.686571 21.330886,17.707332 C 20.412438,18.043582 18.221487,18.84865 16.006956,19.660035 C 15.842731,19.720048 15.736251,19.764649 15.577607,19.822761 C 15.553152,19.831718 15.544819,19.840918 15.52036,19.849882 C 15.496113,19.861581 15.469331,19.864226 15.434491,19.877002 C 13.525264,20.576984 11.63191,21.283807 10.797519,21.585617 L 10.940636,21.721222 L 10.940636,21.748342 C 11.749089,21.456591 13.719556,20.725308 15.663477,20.012607 C 15.698317,19.999832 15.725099,19.997185 15.749347,19.985485 C 15.773804,19.976524 15.782138,19.967323 15.806593,19.958365 C 15.965237,19.900255 16.071717,19.855652 16.235942,19.79564 C 18.450472,18.984255 20.641424,18.179185 21.559872,17.842938 C 21.616586,17.822175 21.670987,17.801664 21.731612,17.788695 C 21.759077,17.778693 21.848903,17.770989 21.874729,17.761574 C 21.947946,17.734951 22.216578,17.620405 22.275454,17.598849 C 22.535462,17.503659 22.790343,17.440226 23.048283,17.381883 C 23.077045,17.375454 23.105432,17.360747 23.134153,17.354762 C 23.191573,17.342647 23.248662,17.338001 23.305893,17.327642 C 23.341923,17.321188 23.384437,17.333403 23.420386,17.327642 C 23.610686,17.296902 23.805495,17.258261 23.992851,17.246277 C 24.455144,17.217223 24.903961,17.251738 25.338145,17.327642 C 25.578333,17.369629 25.797083,17.419448 26.025104,17.490367 C 26.141731,17.526638 26.255641,17.555458 26.368583,17.598849 C 26.476458,17.640295 26.579229,17.686787 26.68344,17.734454 C 26.605299,17.693225 26.536544,17.636091 26.454453,17.598849 C 26.350243,17.551181 26.247469,17.50469 26.139597,17.463244 C 26.026655,17.419853 25.912742,17.391035 25.796118,17.354762 C 25.568097,17.283844 25.349344,17.234026 25.109159,17.192037 C 24.674975,17.116132 24.226155,17.081617 23.763865,17.110674 z M 31.377657,17.951422 C 31.410235,18.388129 31.348179,18.831999 31.177294,19.253222 L 31.177294,20.310937 C 31.201562,21.858173 29.904231,23.389165 27.570761,24.243463 C 27.484871,24.274906 25.064947,25.162328 22.618934,26.06056 C 22.547998,26.086609 22.546789,26.088745 22.475817,26.114803 C 19.817839,27.090677 17.178013,28.064025 17.094641,28.094626 L 17.237757,28.25735 C 17.237757,28.257351 20.005196,27.241565 22.704804,26.250406 C 22.775775,26.22435 22.776984,26.222214 22.84792,26.196166 C 25.293933,25.297934 27.713857,24.410511 27.799747,24.379067 C 30.13322,23.524771 31.430549,21.993777 31.406281,20.44654 L 31.406281,18.114147 C 31.406021,18.060113 31.38119,18.005267 31.377657,17.951422 z "
       id="path3316" />
  </g>
</svg>
