<?xml version="1.0" encoding="UTF-8" standalone="no"?>
<!-- Created with Inkscape (http://www.inkscape.org/) -->
<svg
   xmlns:dc="http://purl.org/dc/elements/1.1/"
   xmlns:cc="http://web.resource.org/cc/"
   xmlns:rdf="http://www.w3.org/1999/02/22-rdf-syntax-ns#"
   xmlns:svg="http://www.w3.org/2000/svg"
   xmlns="http://www.w3.org/2000/svg"
   xmlns:xlink="http://www.w3.org/1999/xlink"
   xmlns:sodipodi="http://sodipodi.sourceforge.net/DTD/sodipodi-0.dtd"
   xmlns:inkscape="http://www.inkscape.org/namespaces/inkscape"
   width="40"
   height="40"
   id="svg2193"
   sodipodi:version="0.32"
   inkscape:version="0.45.1"
   version="1.0"
   sodipodi:docbase="/home/jra/Desktop"
   sodipodi:docname="nikkelcoin.svg"
   inkscape:output_extension="org.inkscape.output.svg.inkscape">
  <sodipodi:namedview
     id="base"
     pagecolor="#ffffff"
     bordercolor="#666666"
     borderopacity="1.0"
     inkscape:pageopacity="0.0"
     inkscape:pageshadow="2"
     inkscape:zoom="14.625451"
     inkscape:cx="19.15625"
     inkscape:cy="20.68891"
     inkscape:current-layer="layer1"
     showgrid="false"
     inkscape:grid-bbox="true"
     inkscape:document-units="px"
     width="40px"
     height="40px"
     gridempspacing="2"
     inkscape:window-width="1167"
     inkscape:window-height="914"
     inkscape:window-x="52"
     inkscape:window-y="78" />
  <defs
     id="defs2195">
    <linearGradient
       id="linearGradient4146">
      <stop
         style="stop-color:#000000;stop-opacity:0.66233766;"
         offset="0"
         id="stop4148" />
      <stop
         id="stop4150"
         offset="0.5"
         style="stop-color:#ffffff;stop-opacity:1;" />
      <stop
         style="stop-color:#000000;stop-opacity:0.12987013;"
         offset="1"
         id="stop4152" />
    </linearGradient>
    <linearGradient
       id="linearGradient4134">
      <stop
         id="stop4136"
         offset="0"
         style="stop-color:#000000;stop-opacity:1;" />
      <stop
         style="stop-color:#000000;stop-opacity:0;"
         offset="0.25"
         id="stop4138" />
      <stop
         style="stop-color:#000000;stop-opacity:1;"
         offset="0.5"
         id="stop4140" />
      <stop
         id="stop4142"
         offset="0.75"
         style="stop-color:#000000;stop-opacity:1;" />
      <stop
         id="stop4144"
         offset="1"
         style="stop-color:#000000;stop-opacity:0.3116883;" />
    </linearGradient>
    <linearGradient
       id="linearGradient3981">
      <stop
         style="stop-color:#626262;stop-opacity:1;"
         offset="0"
         id="stop3983" />
      <stop
         style="stop-color:#000000;stop-opacity:0;"
         offset="1"
         id="stop3985" />
    </linearGradient>
    <linearGradient
       id="linearGradient3501">
      <stop
         style="stop-color:#000000;stop-opacity:1;"
         offset="0"
         id="stop3503" />
      <stop
         style="stop-color:#000000;stop-opacity:0;"
         offset="1"
         id="stop3505" />
    </linearGradient>
    <linearGradient
       id="linearGradient3910">
      <stop
         style="stop-color:#ffffff;stop-opacity:0.46103895;"
         offset="0"
         id="stop3912" />
      <stop
         id="stop3918"
         offset="0.5"
         style="stop-color:#ffffff;stop-opacity:1;" />
      <stop
         style="stop-color:#ffffff;stop-opacity:0.50649351;"
         offset="1"
         id="stop3914" />
    </linearGradient>
    <linearGradient
       id="linearGradient3845">
      <stop
         id="stop3847"
         offset="0"
         style="stop-color:#000000;stop-opacity:1;" />
      <stop
         style="stop-color:#000000;stop-opacity:0;"
         offset="0.5"
         id="stop3851" />
      <stop
         id="stop3849"
         offset="1"
         style="stop-color:#000000;stop-opacity:0.40909091;" />
    </linearGradient>
    <linearGradient
       id="linearGradient3827">
      <stop
         style="stop-color:#000000;stop-opacity:1;"
         offset="0"
         id="stop3829" />
      <stop
         id="stop3839"
         offset="0.25"
         style="stop-color:#ffffff;stop-opacity:1;" />
      <stop
         id="stop3835"
         offset="0.5"
         style="stop-color:#000000;stop-opacity:1;" />
      <stop
         style="stop-color:#000000;stop-opacity:1;"
         offset="0.75"
         id="stop3837" />
      <stop
         style="stop-color:#a6a6a6;stop-opacity:1;"
         offset="1"
         id="stop3831" />
    </linearGradient>
    <linearGradient
       id="linearGradient3239"
       inkscape:collect="always">
      <stop
         offset="0"
         style="stop-color:#eeeeec;stop-opacity:1;"
         id="stop3241" />
      <stop
         offset="1"
         style="stop-color:#eeeeec;stop-opacity:0;"
         id="stop3243" />
    </linearGradient>
    <linearGradient
       id="linearGradient3291">
      <stop
         offset="0"
         style="stop-color:#000000;stop-opacity:1;"
         id="stop3293" />
      <stop
         offset="1"
         style="stop-color:#000000;stop-opacity:0;"
         id="stop3295" />
    </linearGradient>
    <radialGradient
       r="63.912209"
       id="radialGradient2595"
       fx="75.857941"
       fy="115.70919"
       gradientUnits="userSpaceOnUse"
       inkscape:collect="always"
       cy="115.70919"
       cx="63.912209"
       xlink:href="#linearGradient3291"
       gradientTransform="matrix(1,0,0,0.197802,0,92.82166)" />
    <radialGradient
       inkscape:collect="always"
       xlink:href="#linearGradient3291"
       id="radialGradient4414"
       gradientUnits="userSpaceOnUse"
       gradientTransform="matrix(1,0,0,0.197802,0,92.82166)"
       cx="63.912209"
       cy="115.70919"
       fx="75.857941"
       fy="115.70919"
       r="63.912209" />
    <linearGradient
       inkscape:collect="always"
       xlink:href="#linearGradient3845"
       id="linearGradient4416"
       gradientUnits="userSpaceOnUse"
       x1="6.7807331"
       y1="11.486151"
       x2="37.554825"
       y2="24.236246" />
    <linearGradient
       inkscape:collect="always"
       xlink:href="#linearGradient3827"
       id="linearGradient4418"
       gradientUnits="userSpaceOnUse"
       gradientTransform="matrix(0.8476663,0,0,0.8476663,-98.64482,13.357853)"
       x1="120.625"
       y1="-40.75"
       x2="159.59375"
       y2="-40.75" />
    <radialGradient
       inkscape:collect="always"
       xlink:href="#linearGradient3981"
       id="radialGradient4420"
       gradientUnits="userSpaceOnUse"
       gradientTransform="matrix(-1.4808499,1.6581035e-2,-7.1863571e-3,-0.6418123,599.5656,31.186809)"
       cx="237.72618"
       cy="9.2338028"
       fx="237.72618"
       fy="9.2338028"
       r="19.0625" />
    <radialGradient
       inkscape:collect="always"
       xlink:href="#linearGradient3981"
       id="radialGradient4422"
       gradientUnits="userSpaceOnUse"
       gradientTransform="matrix(-1.4808499,1.6581035e-2,-7.1863571e-3,-0.6418123,599.5656,31.186809)"
       cx="236.2171"
       cy="9.1948166"
       fx="236.2171"
       fy="9.1948166"
       r="19.0625" />
    <radialGradient
       inkscape:collect="always"
       xlink:href="#linearGradient3981"
       id="radialGradient4424"
       gradientUnits="userSpaceOnUse"
       gradientTransform="matrix(-1.4808499,1.6581035e-2,-7.1863571e-3,-0.6418123,599.5656,31.186809)"
       cx="236.2171"
       cy="9.1948166"
       fx="236.2171"
       fy="9.1948166"
       r="19.0625" />
    <linearGradient
       inkscape:collect="always"
       xlink:href="#linearGradient3827"
       id="linearGradient4426"
       gradientUnits="userSpaceOnUse"
       gradientTransform="matrix(0.8476663,0,0,0.8476663,-47.784845,13.357853)"
       x1="63.3125"
       y1="-46.59375"
       x2="97.125"
       y2="-46.59375" />
    <linearGradient
       inkscape:collect="always"
       xlink:href="#linearGradient3910"
       id="linearGradient4428"
       gradientUnits="userSpaceOnUse"
       gradientTransform="matrix(0.8476663,0,0,0.8476663,-98.64482,13.357853)"
       x1="120.625"
       y1="-40.75"
       x2="159.59375"
       y2="-40.75" />
    <linearGradient
       inkscape:collect="always"
       xlink:href="#linearGradient3501"
       id="linearGradient4430"
       gradientUnits="userSpaceOnUse"
       gradientTransform="matrix(0.8476663,0,0,0.8476663,3.07514,-37.502128)"
       x1="-0.95538092"
       y1="17.265625"
       x2="6.4057508"
       y2="17.265625" />
    <linearGradient
       inkscape:collect="always"
       xlink:href="#linearGradient3501"
       id="linearGradient4432"
       gradientUnits="userSpaceOnUse"
       gradientTransform="matrix(0.8476663,0,0,0.8476663,3.07514,-37.502128)"
       x1="41.714905"
       y1="16.421875"
       x2="32.640072"
       y2="16.421875" />
    <radialGradient
       inkscape:collect="always"
       xlink:href="#linearGradient3239"
       id="radialGradient4434"
       gradientUnits="userSpaceOnUse"
       gradientTransform="matrix(1.3327889,1.5043791e-2,-8.1166504e-3,0.7190863,-160.83171,30.114693)"
       cx="132.1315"
       cy="-73.878075"
       fx="132.1315"
       fy="-73.878075"
       r="16.627993" />
    <radialGradient
       inkscape:collect="always"
       xlink:href="#linearGradient3291"
       id="radialGradient4460"
       gradientUnits="userSpaceOnUse"
       gradientTransform="matrix(1,0,0,0.197802,0,92.82166)"
       cx="63.912209"
       cy="115.70919"
       fx="75.857941"
       fy="115.70919"
       r="63.912209" />
    <linearGradient
       inkscape:collect="always"
       xlink:href="#linearGradient3827"
       id="linearGradient4462"
       gradientUnits="userSpaceOnUse"
       gradientTransform="matrix(0.8476663,0,0,0.8476663,-98.644824,-6.642147)"
       x1="120.625"
       y1="-40.75"
       x2="159.59375"
       y2="-40.75" />
    <linearGradient
       inkscape:collect="always"
       xlink:href="#linearGradient3910"
       id="linearGradient4464"
       gradientUnits="userSpaceOnUse"
       gradientTransform="matrix(0.8476663,0,0,0.8476663,-98.644824,-6.642147)"
       x1="120.625"
       y1="-40.75"
       x2="159.59375"
       y2="-40.75" />
    <linearGradient
       inkscape:collect="always"
       xlink:href="#linearGradient3845"
       id="linearGradient4466"
       gradientUnits="userSpaceOnUse"
       x1="6.7807331"
       y1="11.486151"
       x2="37.554825"
       y2="24.236246" />
    <radialGradient
       inkscape:collect="always"
       xlink:href="#linearGradient3981"
       id="radialGradient4468"
       gradientUnits="userSpaceOnUse"
       gradientTransform="matrix(-1.4808499,1.6581035e-2,-7.1863571e-3,-0.6418123,599.5656,31.186809)"
       cx="237.72618"
       cy="9.2338028"
       fx="237.72618"
       fy="9.2338028"
       r="19.0625" />
    <radialGradient
       inkscape:collect="always"
       xlink:href="#linearGradient3981"
       id="radialGradient4471"
       gradientUnits="userSpaceOnUse"
       gradientTransform="matrix(-1.4808499,1.6581035e-2,-7.1863571e-3,-0.6418123,599.5656,31.186809)"
       cx="236.2171"
       cy="9.1948166"
       fx="236.2171"
       fy="9.1948166"
       r="19.0625" />
    <radialGradient
       inkscape:collect="always"
       xlink:href="#linearGradient3981"
       id="radialGradient4473"
       gradientUnits="userSpaceOnUse"
       gradientTransform="matrix(-1.4808499,1.6581035e-2,-7.1863571e-3,-0.6418123,599.5656,31.186809)"
       cx="236.2171"
       cy="9.1948166"
       fx="236.2171"
       fy="9.1948166"
       r="19.0625" />
    <linearGradient
       inkscape:collect="always"
       xlink:href="#linearGradient3827"
       id="linearGradient4475"
       gradientUnits="userSpaceOnUse"
       gradientTransform="matrix(0.8476663,0,0,0.8476663,-47.784845,-6.642147)"
       x1="63.3125"
       y1="-46.59375"
       x2="97.125"
       y2="-46.59375" />
    <linearGradient
       inkscape:collect="always"
       xlink:href="#linearGradient3501"
       id="linearGradient4477"
       gradientUnits="userSpaceOnUse"
       gradientTransform="matrix(0.8476663,0,0,0.8476663,3.075135,-57.502128)"
       x1="-0.95538092"
       y1="17.265625"
       x2="6.4057508"
       y2="17.265625" />
    <linearGradient
       inkscape:collect="always"
       xlink:href="#linearGradient3501"
       id="linearGradient4479"
       gradientUnits="userSpaceOnUse"
       gradientTransform="matrix(0.8476663,0,0,0.8476663,3.075135,-57.502128)"
       x1="41.714905"
       y1="16.421875"
       x2="32.640072"
       y2="16.421875" />
    <radialGradient
       inkscape:collect="always"
       xlink:href="#linearGradient3239"
       id="radialGradient4481"
       gradientUnits="userSpaceOnUse"
       gradientTransform="matrix(1.3327889,1.5043791e-2,-8.1166504e-3,0.7190863,-160.83172,10.114693)"
       cx="132.1315"
       cy="-73.878075"
       fx="132.1315"
       fy="-73.878075"
       r="16.627993" />
    <radialGradient
       inkscape:collect="always"
       xlink:href="#linearGradient3291"
       id="radialGradient4510"
       gradientUnits="userSpaceOnUse"
       gradientTransform="matrix(1,0,0,0.197802,0,92.82166)"
       cx="63.912209"
       cy="115.70919"
       fx="75.857941"
       fy="115.70919"
       r="63.912209" />
    <linearGradient
       inkscape:collect="always"
       xlink:href="#linearGradient3845"
       id="linearGradient4512"
       gradientUnits="userSpaceOnUse"
       gradientTransform="matrix(1.2657774,0,0,1.3577871,-7.94791,-6.4451218)"
       x1="6.7807331"
       y1="11.486151"
       x2="37.554825"
       y2="24.236246" />
    <linearGradient
       inkscape:collect="always"
       xlink:href="#linearGradient3827"
       id="linearGradient4514"
       gradientUnits="userSpaceOnUse"
       gradientTransform="translate(-120,64.254602)"
       x1="120.625"
       y1="-40.75"
       x2="159.59375"
       y2="-40.75" />
    <radialGradient
       inkscape:collect="always"
       xlink:href="#linearGradient3239"
       id="radialGradient4516"
       gradientUnits="userSpaceOnUse"
       gradientTransform="matrix(1.5606585,1.7615857e-2,-9.5043693e-3,0.8420297,-191.76992,83.518142)"
       cx="132.1315"
       cy="-73.878075"
       fx="132.1315"
       fy="-73.878075"
       r="16.627993" />
    <linearGradient
       inkscape:collect="always"
       xlink:href="#linearGradient3827"
       id="linearGradient4518"
       gradientUnits="userSpaceOnUse"
       gradientTransform="translate(-60,64.254602)"
       x1="63.3125"
       y1="-46.59375"
       x2="97.125"
       y2="-46.59375" />
    <linearGradient
       inkscape:collect="always"
       xlink:href="#linearGradient3910"
       id="linearGradient4520"
       gradientUnits="userSpaceOnUse"
       gradientTransform="translate(-120,64.254602)"
       x1="120.625"
       y1="-40.75"
       x2="159.59375"
       y2="-40.75" />
    <linearGradient
       inkscape:collect="always"
       xlink:href="#linearGradient3501"
       id="linearGradient4522"
       gradientUnits="userSpaceOnUse"
       x1="-0.95538092"
       y1="17.265625"
       x2="6.4057508"
       y2="17.265625"
       gradientTransform="translate(0,4.2545976)" />
    <linearGradient
       inkscape:collect="always"
       xlink:href="#linearGradient3501"
       id="linearGradient4524"
       gradientUnits="userSpaceOnUse"
       x1="41.714905"
       y1="16.421875"
       x2="32.640072"
       y2="16.421875"
       gradientTransform="translate(0,4.2545976)" />
    <radialGradient
       inkscape:collect="always"
       xlink:href="#linearGradient3981"
       id="radialGradient4526"
       gradientUnits="userSpaceOnUse"
       gradientTransform="matrix(-1.4808499,1.6581035e-2,-7.1863571e-3,-0.6418123,379.5656,15.441411)"
       cx="237.72618"
       cy="9.2338028"
       fx="237.72618"
       fy="9.2338028"
       r="19.0625" />
    <linearGradient
       inkscape:collect="always"
       xlink:href="#linearGradient4146"
       id="linearGradient4530"
       gradientUnits="userSpaceOnUse"
       x1="-43.821999"
       y1="53.046875"
       x2="-32.445755"
       y2="53.046875"
       gradientTransform="translate(60,-35.745398)" />
    <radialGradient
       inkscape:collect="always"
       xlink:href="#linearGradient4134"
       id="radialGradient4532"
       gradientUnits="userSpaceOnUse"
       gradientTransform="matrix(1.8414103,5.797996e-7,-2.8742064e-7,0.9128315,93.590697,-49.377998)"
       cx="-39.957428"
       cy="75.162071"
       fx="-39.957428"
       fy="75.162071"
       r="3.453125" />
  </defs>
  <metadata
     id="metadata2198">
    <rdf:RDF>
      <cc:Work
         rdf:about="">
        <dc:format>image/svg+xml</dc:format>
        <dc:type
           rdf:resource="http://purl.org/dc/dcmitype/StillImage" />
        <dc:creator>
          <cc:Agent>
            <dc:title>Jarle Akselsen</dc:title>
          </cc:Agent>
        </dc:creator>
        <cc:license
           rdf:resource="http://creativecommons.org/licenses/GPL/2.0/" />
      </cc:Work>
      <cc:License
         rdf:about="http://creativecommons.org/licenses/GPL/2.0/">
        <cc:permits
           rdf:resource="http://web.resource.org/cc/Reproduction" />
        <cc:permits
           rdf:resource="http://web.resource.org/cc/Distribution" />
        <cc:requires
           rdf:resource="http://web.resource.org/cc/Notice" />
        <cc:permits
           rdf:resource="http://web.resource.org/cc/DerivativeWorks" />
        <cc:requires
           rdf:resource="http://web.resource.org/cc/ShareAlike" />
        <cc:requires
           rdf:resource="http://web.resource.org/cc/SourceCode" />
      </cc:License>
    </rdf:RDF>
  </metadata>
  <g
     inkscape:label="Layer 1"
     id="layer1"
     inkscape:groupmode="layer">
    <path
       style="opacity:0.38139535;fill:url(#radialGradient4510);fill-opacity:1;fill-rule:nonzero;stroke:none;stroke-width:0;stroke-linecap:round;stroke-linejoin:round;stroke-miterlimit:4;stroke-dasharray:none;stroke-dashoffset:4;stroke-opacity:1"
       id="path4484"
       sodipodi:cx="63.912209"
       sodipodi:cy="115.70919"
       sodipodi:type="arc"
       d="M 127.82442 115.70919 A 63.912209 12.641975 0 1 1  0,115.70919 A 63.912209 12.641975 0 1 1  127.82442 115.70919 z"
       transform="matrix(0.3081354,0,0,0.5843014,0.493227,-42.842438)"
       sodipodi:rx="63.912209"
       sodipodi:ry="12.641975" />
    <path
       style="opacity:1;fill:#bbbbbb;fill-opacity:1;fill-rule:nonzero;stroke:none;stroke-width:1;stroke-linecap:round;stroke-linejoin:round;stroke-miterlimit:4;stroke-dasharray:none;stroke-opacity:1"
       d="M 20.125,9.1608476 C 9.37393,9.1608476 0.625001,13.039011 0.625,17.817102 C 0.625,17.923972 0.647595,18.023662 0.65625,18.129602 C 0.647413,18.182092 0.625,18.232282 0.625,18.285852 C 0.625,18.619742 0.625,19.865312 0.625,20.160852 C 0.625,24.989562 9.373931,28.910852 20.125,28.910852 C 20.796942,28.910852 21.470576,28.909502 22.125,28.879602 C 31.941362,28.431112 39.59375,24.687772 39.59375,20.160852 C 39.59375,19.865022 39.59375,18.619738 39.59375,18.285852 C 39.59375,18.232442 39.570869,18.182112 39.5625,18.129602 C 39.56332,18.119562 39.56176,18.1084 39.5625,18.098352 C 39.569528,18.002852 39.59375,17.913362 39.59375,17.817102 C 39.59375,13.039011 30.876071,9.1608476 20.125,9.1608476 z M 20.09375,18.004602 C 21.098475,18.004602 21.992509,18.171802 22.625,18.442102 C 21.992079,18.714832 21.10365,18.910852 20.09375,18.910852 C 19.080376,18.910852 18.164438,18.716472 17.53125,18.442102 C 18.163997,18.170392 19.086014,18.004602 20.09375,18.004602 z "
       id="path4486" />
    <path
       style="opacity:0.5;fill:url(#linearGradient4512);fill-opacity:1;fill-rule:nonzero;stroke:none;stroke-width:1;stroke-linecap:round;stroke-linejoin:round;stroke-miterlimit:4;stroke-dasharray:none;stroke-opacity:1"
       d="M 20.125,9.1608476 C 19.453058,9.1608476 18.779653,9.1625266 18.125,9.1920976 C 16.815694,9.2512396 15.564134,9.3671466 14.34375,9.5358476 C 14.333717,9.5372276 14.322526,9.5344606 14.3125,9.5358476 C 13.103181,9.7039966 11.939606,9.9277036 10.84375,10.192098 C 6.975871,11.12529 3.885596,12.629981 2.15625,14.442102 C 1.90975,14.700969 1.689783,14.952363 1.5,15.223352 C 1.303952,15.500383 1.164392,15.778885 1.03125,16.067102 C 0.901457,16.348759 0.816532,16.619981 0.75,16.910852 C 0.721277,17.036423 0.672746,17.158758 0.65625,17.285852 C 0.65364,17.305957 0.65855,17.32821 0.65625,17.348352 C 0.636938,17.505996 0.625,17.657335 0.625,17.817102 C 0.625,17.923972 0.647595,18.023662 0.65625,18.129602 C 0.657109,18.14012 0.655306,18.150343 0.65625,18.160852 C 1.070827,22.776523 9.638273,26.473352 20.125,26.473352 C 30.611727,26.473352 39.147923,22.776521 39.5625,18.160852 C 39.560083,18.150878 39.564109,18.1397 39.5625,18.129602 C 39.563316,18.119562 39.561761,18.108402 39.5625,18.098352 C 39.569528,18.002852 39.59375,17.913362 39.59375,17.817102 C 39.59375,17.657335 39.581744,17.505996 39.5625,17.348352 C 39.546841,17.211208 39.52988,17.077495 39.5,16.942102 C 39.497894,16.932889 39.502171,16.920057 39.5,16.910852 C 39.433468,16.619981 39.317293,16.348759 39.1875,16.067102 C 38.928128,15.50378 38.555134,14.95985 38.0625,14.442102 C 36.829998,13.147765 34.905091,12.011848 32.5,11.129599 C 31.538445,10.776681 30.50968,10.458724 29.40625,10.192098 C 28.30282,9.9254716 27.125444,9.7045486 25.90625,9.5358476 C 24.72613,9.3725536 23.514511,9.2529176 22.25,9.1920976 C 22.208131,9.1900836 22.166948,9.1939926 22.125,9.1920976 C 21.460318,9.1615836 20.807735,9.1608476 20.125,9.1608476 z M 20.09375,16.160852 C 22.004374,16.160852 23.53125,16.781342 23.53125,17.535852 C 23.53125,17.891552 23.189498,18.198852 22.625,18.442102 C 21.992079,18.714832 21.10365,18.910852 20.09375,18.910852 C 19.080376,18.910852 18.164438,18.716472 17.53125,18.442102 C 16.970621,18.199172 16.625,17.890182 16.625,17.535852 C 16.625,16.781342 18.183128,16.160852 20.09375,16.160852 z "
       id="path4488" />
    <path
       style="opacity:0.5;fill:url(#linearGradient4514);fill-opacity:1;fill-rule:nonzero;stroke:none;stroke-width:1;stroke-linecap:round;stroke-linejoin:round;stroke-miterlimit:4;stroke-dasharray:none;stroke-opacity:1"
       d="M 0.65625,18.098352 C 0.65147,18.162011 0.625,18.22191 0.625,18.285852 C 0.625,18.619738 0.625,19.865313 0.625,20.160852 C 0.625,24.989562 9.37393,28.910852 20.125,28.910852 C 30.87607,28.910852 39.59375,24.989562 39.59375,20.160852 C 39.59375,19.865022 39.59375,18.619738 39.59375,18.285852 C 39.59375,18.222103 39.56598,18.161969 39.5625,18.098352 C 39.22068,22.743457 30.65948,26.473352 20.125,26.473352 C 9.59052,26.473352 0.99807,22.743457 0.65625,18.098352 z "
       sodipodi:nodetypes="cssssscsc"
       id="path4490" />
    <path
       style="opacity:0.75;fill:url(#radialGradient4516);fill-opacity:1;fill-rule:nonzero;stroke:none;stroke-width:0.30000001;stroke-linecap:round;stroke-linejoin:round;stroke-miterlimit:4;stroke-dasharray:none;stroke-opacity:1"
       d="M 20.25,9.5983476 C 11.717143,9.5983476 4.546332,12.04292 2.34375,15.379602 C 4.726915,12.1666 11.767557,9.8170976 20.09375,9.8170976 C 30.377033,9.8170976 38.71875,13.373561 38.71875,17.754602 C 38.71875,18.302232 38.591928,18.831822 38.34375,19.348352 C 38.670414,18.759982 38.875,18.166552 38.875,17.535852 C 38.875,13.154811 30.533283,9.5983476 20.25,9.5983476 z M 20.78125,10.317098 C 20.781248,10.317098 20.53125,11.317099 20.53125,11.317099 C 20.531252,11.317099 20.84375,11.379599 20.84375,11.379599 C 21.225307,11.209699 21.477235,11.162669 21.9375,11.192099 C 22.654968,11.237969 23.070006,11.443709 23,11.754599 C 23.071872,11.694119 23.13828,11.615659 23.15625,11.535849 C 23.193169,11.371889 23.109013,11.232269 22.90625,11.129599 C 22.879411,11.123839 22.840351,11.134909 22.8125,11.129599 C 22.632312,11.095219 22.437127,11.049809 22.21875,11.035849 C 21.765253,11.006859 21.428725,11.024669 21,11.129599 C 20.989817,11.134019 20.979079,11.124999 20.96875,11.129599 C 20.96875,11.129599 20.687501,11.098349 20.6875,11.098349 C 20.6875,11.098349 20.783467,10.584808 20.84375,10.317098 C 20.840026,10.316858 20.78125,10.317098 20.78125,10.317098 z M 21.28125,10.348348 C 21.28125,10.348348 21.24228,10.462598 21.21875,10.567098 C 21.388727,10.577968 23.46875,10.723348 23.46875,10.723348 C 23.46875,10.723348 23.538035,10.599078 23.59375,10.504598 C 23.59375,10.504598 23.305414,10.480888 23.1875,10.473348 C 23.105612,10.482548 22.985099,10.453128 22.8125,10.442098 C 22.812501,10.442098 21.853146,10.384908 21.28125,10.348348 z M 16.375,10.410848 C 16.215838,10.422088 16.075353,10.416928 15.9375,10.442098 C 15.920252,10.449078 15.921497,10.466058 15.90625,10.473348 C 15.791896,10.528028 15.717228,10.570938 15.75,10.629598 C 15.754452,10.637568 15.775975,10.654238 15.78125,10.660848 C 15.784607,10.665058 15.80843,10.656988 15.8125,10.660848 C 15.958285,10.605758 16.145585,10.552048 16.375,10.535848 C 16.917749,10.497528 17.377747,10.629498 17.5,10.848348 C 17.544103,10.927298 17.526529,11.011829 17.5,11.098349 C 17.672132,10.914788 17.739153,10.778008 17.65625,10.629598 C 17.625687,10.574888 17.567014,10.515188 17.5,10.473348 C 17.482558,10.462458 17.457122,10.452028 17.4375,10.442098 C 17.125724,10.391888 16.775833,10.382548 16.375,10.410848 z M 15.1875,10.723348 C 15.067608,10.816998 15.004826,10.932608 15.0625,11.035849 C 15.136779,11.168819 15.404731,11.241109 15.65625,11.223349 C 15.854815,11.209329 15.980829,11.144669 15.9375,11.067099 C 15.926357,11.047159 15.882562,11.024019 15.84375,11.004599 C 15.822251,11.008079 15.804611,11.002949 15.78125,11.004599 C 15.529731,11.022359 15.293028,10.950068 15.21875,10.817098 C 15.203662,10.790088 15.18925,10.750278 15.1875,10.723348 z M 18.28125,11.098349 C 18.153611,11.214639 17.968127,11.311489 17.71875,11.442099 C 17.457871,11.578579 17.234087,11.678719 16.5625,11.9421 C 16.5625,11.9421 16.825014,11.923199 17,11.910849 C 17.167725,11.838539 17.43206,11.729089 17.5625,11.660849 C 17.965143,11.449969 18.195128,11.271659 18.28125,11.098349 z M 20.3125,11.723349 C 20.230779,11.750859 20.167189,11.768519 20.15625,11.817099 C 20.104371,12.04749 20.798223,12.2895 21.71875,12.34835 C 22.849104,12.42062 23.689368,12.16265 23.78125,11.754599 C 23.580445,11.94469 23.194771,12.05764 22.65625,12.09835 C 22.647773,12.10196 22.63376,12.09489 22.625,12.09835 C 22.384093,12.19355 22.069472,12.21852 21.65625,12.1921 C 21.216291,12.16397 20.853747,12.06773 20.875,11.97335 C 20.874999,11.97335 20.90625,11.9421 20.90625,11.9421 C 20.646956,11.874569 20.457714,11.813239 20.375,11.723349 C 20.357492,11.727559 20.328216,11.718059 20.3125,11.723349 z M 19.03125,11.97335 C 18.93079,11.98044 18.457072,12.03042 17.9375,12.0671 C 17.002729,12.1331 15.96875,12.22335 15.96875,12.22335 C 15.96875,12.22335 15.953548,12.18958 15.9375,12.16085 C 15.854173,12.19398 15.815166,12.21789 15.71875,12.2546 C 15.718752,12.2546 15.8125,12.4421 15.8125,12.4421 C 15.812501,12.4421 19.03125,12.22335 19.03125,12.22335 C 19.031249,12.22335 19.025055,12.09153 19.03125,11.97335 z M 20.4375,12.59835 C 15.0798,12.59835 10.576041,14.145042 9.28125,16.254602 C 10.741275,14.255392 15.106953,12.8171 20.28125,12.8171 C 26.649616,12.8171 31.8125,15.006662 31.8125,17.723352 C 31.8125,18.040582 31.759494,18.360642 31.625,18.660852 C 31.83782,18.287692 31.96875,17.906162 31.96875,17.504602 C 31.96875,14.787912 26.805866,12.59835 20.4375,12.59835 z M 19.375,13.535851 C 19.198639,13.557491 19.005409,13.589851 18.84375,13.629601 C 18.843751,13.629601 19.65625,13.942102 19.65625,13.942102 C 19.90741,13.909502 20.157043,13.906362 20.40625,13.942102 C 20.406251,13.942102 21.1875,13.629601 21.1875,13.629601 C 21.098711,13.607151 21.00023,13.615331 20.90625,13.598351 C 20.738015,13.668051 20.5625,13.723351 20.5625,13.723351 C 20.313293,13.687611 20.03241,13.690751 19.78125,13.723351 C 19.78125,13.723351 19.581012,13.621201 19.375,13.535851 z M 17.9375,14.067102 C 17.658335,14.343312 17.67969,14.651002 18.0625,14.910852 C 18.062501,14.910852 18.84375,14.598352 18.84375,14.598352 C 18.80805,14.555632 18.789809,14.517922 18.78125,14.473352 C 18.552019,14.568322 18.21875,14.692102 18.21875,14.692102 C 17.931081,14.496832 17.851747,14.286472 17.9375,14.067102 z M 21.375,14.223352 C 21.307723,14.251222 21.1875,14.285852 21.1875,14.285852 C 21.253529,14.381452 21.259045,14.472042 21.1875,14.567102 C 21.187501,14.567102 21.96875,14.910852 21.96875,14.910852 C 22.13766,14.792922 22.216813,14.668442 22.25,14.535852 C 22.205992,14.582602 22.187835,14.648232 22.125,14.692102 C 22.125,14.692102 21.343751,14.348352 21.34375,14.348352 C 21.379522,14.300822 21.374284,14.272392 21.375,14.223352 z M 19.28125,15.067102 C 19.07873,15.151012 18.875,15.254602 18.875,15.254602 C 19.583554,15.423472 20.483661,15.427652 21.1875,15.254602 C 21.1875,15.254602 21.009983,15.167222 20.84375,15.098352 C 20.330172,15.163872 19.779598,15.155282 19.28125,15.067102 z M 1.1875,15.817102 C 1.103956,15.970928 1.0042,16.130802 0.9375,16.285852 C 0.863778,16.457223 0.831993,16.611681 0.78125,16.785852 C 0.745005,16.91026 0.710919,17.034416 0.6875,17.160852 C 0.679694,17.202997 0.662563,17.243444 0.65625,17.285852 C 0.651971,17.316734 0.659795,17.348634 0.65625,17.379602 C 0.638968,17.520046 0.625,17.673234 0.625,17.817102 C 0.625,17.923972 0.6476,18.023662 0.65625,18.129602 C 0.657112,18.140121 0.655304,18.150343 0.65625,18.160852 C 1.071923,22.776538 9.638274,26.473352 20.125,26.473352 C 27.859749,26.473352 34.487413,24.442662 37.625,21.535852 C 34.399886,24.334452 27.840596,26.254602 20.28125,26.254602 C 9.530181,26.254602 0.78125,22.376442 0.78125,17.598352 C 0.78125,16.994752 0.920076,16.391652 1.1875,15.817102 z M 20.15625,15.942102 C 19.949797,15.944282 19.727356,15.957312 19.53125,15.973352 C 19.305792,15.991792 19.113628,16.000872 18.90625,16.035852 C 18.698872,16.070832 18.497089,16.111232 18.3125,16.160852 C 17.535056,16.369842 16.999237,16.717512 16.84375,17.098352 C 17.315746,16.561562 18.58047,16.160852 20.09375,16.160852 C 22.004372,16.160852 23.53125,16.781342 23.53125,17.535852 C 23.53125,17.610192 23.497303,17.683332 23.46875,17.754602 C 23.590541,17.613662 23.6875,17.474012 23.6875,17.317102 C 23.6875,17.034162 23.462902,16.755442 23.09375,16.535852 C 22.982104,16.469442 22.85698,16.437162 22.71875,16.379602 C 22.706579,16.375012 22.699797,16.352882 22.6875,16.348352 C 22.597759,16.312282 22.474298,16.286542 22.375,16.254602 C 22.163848,16.191492 21.924876,16.111582 21.6875,16.067102 C 21.480569,16.028332 21.285565,15.996252 21.0625,15.973352 C 21.031153,15.970282 21.000437,15.976082 20.96875,15.973352 C 20.710487,15.949912 20.430065,15.942102 20.15625,15.942102 z M 36.875,16.035852 C 36.760931,16.054612 36.733231,16.086782 36.59375,16.160852 C 36.536526,16.190142 36.442104,16.212312 36.375,16.223352 C 36.228454,16.247452 36.125998,16.211372 36.0625,16.160852 C 35.922243,16.218552 35.833164,16.283582 35.84375,16.348352 C 35.857311,16.431342 36.030871,16.473002 36.21875,16.442102 C 36.285847,16.431062 36.380276,16.408892 36.4375,16.379602 C 36.576982,16.305532 36.604681,16.304612 36.71875,16.285852 C 37.040829,16.232872 37.373248,16.365182 37.40625,16.567102 C 37.410171,16.591092 37.379253,16.606132 37.375,16.629602 C 37.507014,16.541062 37.580109,16.456092 37.5625,16.348352 C 37.557664,16.318762 37.547737,16.281102 37.53125,16.254602 C 37.37201,16.139692 37.155678,16.052882 36.875,16.035852 z M 2.8125,16.067102 C 2.812501,16.067102 2.78125,16.160852 2.78125,16.160852 C 2.971016,16.217142 2.989814,16.267582 2.9375,16.410852 C 2.9375,16.410852 2.625,17.254602 2.625,17.254602 C 2.625,17.254602 5.03125,17.317102 5.03125,17.317102 C 5.031248,17.317102 5.15625,17.192102 5.15625,17.192102 C 5.062657,17.157312 5.032974,17.130442 4.96875,17.098352 C 4.896239,17.096362 4.705444,17.071892 4.53125,17.067102 C 4.557214,17.087702 4.561852,17.107802 4.59375,17.129602 C 4.593751,17.129602 3.25,17.098352 3.25,17.098352 C 3.25,17.098352 3.278272,17.044012 3.28125,17.035852 C 3.116474,17.031322 2.78125,17.035852 2.78125,17.035852 C 2.78125,17.035852 3.09375,16.160852 3.09375,16.160852 C 3.106828,16.125032 3.091353,16.122622 3.09375,16.098352 C 2.9647,16.086772 2.8125,16.067102 2.8125,16.067102 z M 6.25,16.067102 C 5.497687,16.046402 4.952486,16.206832 4.84375,16.504602 C 4.83939,16.516542 4.846643,16.524492 4.84375,16.535852 C 5.078062,16.362742 5.529515,16.270322 6.09375,16.285852 C 6.838623,16.306352 7.260535,16.523152 7.1875,16.817102 C 7.255903,16.763792 7.317744,16.669562 7.34375,16.598352 C 7.457613,16.286532 7.022461,16.088362 6.25,16.067102 z M 4.5,16.442102 C 4.442376,16.504422 4.36991,16.557962 4.34375,16.629602 C 4.305091,16.735472 4.320008,16.823732 4.375,16.910852 C 4.513164,16.914652 4.703154,16.910422 4.71875,16.910852 C 4.708316,16.888702 4.688739,16.872442 4.6875,16.848352 C 4.51797,16.713852 4.456575,16.590362 4.5,16.442102 z M 8.4375,16.473352 C 8.19001,16.895132 8.03125,17.329712 8.03125,17.785852 C 8.03125,20.730882 13.514971,23.129602 20.28125,23.129602 C 25.874518,23.129602 30.563911,21.486482 32.03125,19.254602 C 30.406447,21.373132 25.844941,22.910852 20.4375,22.910852 C 13.671221,22.910852 8.1875,20.512142 8.1875,17.567102 C 8.1875,17.198972 8.274339,16.819932 8.4375,16.473352 z M 33.15625,16.598352 C 33.06684,16.613062 32.96875,16.629602 32.96875,16.629602 C 32.968752,16.629602 33.1875,17.973352 33.1875,17.973352 C 33.187501,17.973352 34.46875,17.879602 34.46875,17.879602 C 34.468749,17.879602 34.53125,17.785852 34.53125,17.785852 C 34.53125,17.785852 34.375,17.754602 34.375,17.754602 C 34.121256,17.750852 33.974797,17.730752 33.875,17.692102 C 33.859921,17.692972 33.858535,17.691252 33.84375,17.692102 C 33.60647,17.705782 33.34375,17.723352 33.34375,17.723352 C 33.34375,17.723352 33.206293,16.904532 33.15625,16.598352 z M 33.71875,16.660852 C 33.726986,16.711242 33.758173,16.800912 33.78125,16.942102 C 34.117163,17.086402 34.389883,17.183192 34.625,17.254602 C 35.33547,17.470072 35.960904,17.504662 36.53125,17.410852 C 37.161003,17.307272 37.616251,17.037852 37.71875,16.723352 C 37.521691,16.940502 37.165584,17.113472 36.6875,17.192102 C 36.144048,17.281482 35.545941,17.227102 34.875,17.035852 C 34.839023,17.028792 34.815728,17.011842 34.78125,17.004602 C 34.412012,16.927092 34.091636,16.818312 33.71875,16.660852 z M 7.46875,16.848352 C 7.232271,17.089232 6.824386,17.234862 6.40625,17.223352 C 6.288701,17.220122 6.191802,17.193902 6.125,17.160852 C 6.017645,17.188302 5.92564,17.232752 5.90625,17.285852 C 5.871376,17.381362 6.046151,17.466882 6.28125,17.473352 C 6.818407,17.488132 7.306741,17.209422 7.46875,16.848352 z M 11.28125,16.848352 C 11.117237,16.869682 10.963447,16.904992 10.8125,16.942102 C 10.8125,16.942102 11.59375,17.285852 11.59375,17.285852 C 11.84491,17.253252 12.125793,17.250112 12.375,17.285852 C 12.375,17.285852 13.15625,16.973352 13.15625,16.973352 C 13.066653,16.950692 12.969875,16.927932 12.875,16.910852 C 12.703039,16.982102 12.53125,17.067102 12.53125,17.067102 C 12.282043,17.031362 12.001163,17.034502 11.75,17.067102 C 11.75,17.067102 11.50925,16.942812 11.28125,16.848352 z M 27.4375,16.879602 C 27.273487,16.900932 27.119697,16.936242 26.96875,16.973352 C 26.968748,16.973352 27.75,17.317102 27.75,17.317102 C 28.001164,17.284502 28.282043,17.281362 28.53125,17.317102 C 28.531251,17.317102 29.3125,16.973352 29.3125,16.973352 C 29.233396,16.953352 29.145786,16.957762 29.0625,16.942102 C 28.86827,17.022572 28.65625,17.098352 28.65625,17.098352 C 28.407043,17.062612 28.157413,17.034502 27.90625,17.067102 C 27.90625,17.067102 27.660131,16.971842 27.4375,16.879602 z M 16.40625,17.160852 C 16.282228,17.329952 16.1875,17.505482 16.1875,17.692102 C 16.1875,18.653502 17.965728,19.442102 20.15625,19.442102 C 21.950545,19.442102 23.447169,18.911892 23.9375,18.192102 C 23.319455,18.804032 21.929835,19.223352 20.3125,19.223352 C 18.121978,19.223352 16.34375,18.434752 16.34375,17.473352 C 16.34375,17.363752 16.362054,17.265052 16.40625,17.160852 z M 9.90625,17.379602 C 9.607541,17.659542 9.640628,17.989452 10.03125,18.254602 C 10.03125,18.254602 10.8125,17.942102 10.8125,17.942102 C 10.775833,17.898222 10.758014,17.831642 10.75,17.785852 C 10.521473,17.880532 10.1875,18.035852 10.1875,18.035852 C 9.899831,17.840582 9.820497,17.598972 9.90625,17.379602 z M 26.03125,17.410852 C 25.743676,17.688702 25.801302,18.023702 26.1875,18.285852 C 26.187501,18.285852 26.96875,17.942102 26.96875,17.942102 C 26.933048,17.899382 26.914809,17.861672 26.90625,17.817102 C 26.679558,17.911022 26.312501,18.067102 26.3125,18.067102 C 26.026197,17.872762 25.947675,17.629282 26.03125,17.410852 z M 13.34375,17.535852 C 13.271159,17.565922 13.15625,17.629602 13.15625,17.629602 C 13.222281,17.725202 13.196545,17.815792 13.125,17.910852 C 13.125,17.910852 13.9375,18.254602 13.9375,18.254602 C 14.080537,18.154732 14.141848,18.022302 14.1875,17.910852 C 14.152302,17.943632 14.138501,17.973362 14.09375,18.004602 C 14.09375,18.004602 13.28125,17.692102 13.28125,17.692102 C 13.317023,17.644572 13.343033,17.584892 13.34375,17.535852 z M 29.5,17.567102 C 29.41506,17.602292 29.28125,17.660852 29.28125,17.660852 C 29.347283,17.756452 29.352796,17.847042 29.28125,17.942102 C 29.281251,17.942102 30.0625,18.254602 30.0625,18.254602 C 30.21698,18.146742 30.302831,18.031672 30.34375,17.910852 C 30.302967,17.951842 30.274193,17.997142 30.21875,18.035852 C 30.21875,18.035852 29.4375,17.723352 29.4375,17.723352 C 29.473273,17.675822 29.499283,17.616142 29.5,17.567102 z M 5.90625,17.910852 C 5.906251,17.910852 5.875,18.035852 5.875,18.035852 C 5.874999,18.035852 6.03125,18.035852 6.03125,18.035852 C 6.592657,18.072962 6.739339,18.131732 6.84375,18.379602 C 6.843749,18.379602 6.909691,18.520652 6.96875,18.660852 C 7.081126,18.707142 7.096127,18.720632 7.25,18.785852 C 7.25,18.785852 6.968751,18.160852 6.96875,18.160852 C 6.916545,18.036922 6.863266,17.959652 6.75,17.910852 C 6.364044,17.911532 5.90625,17.910852 5.90625,17.910852 z M 4.0625,18.348352 C 3.586318,18.398942 3.297224,18.561222 3.3125,18.754602 C 3.441801,18.673282 3.641705,18.626452 3.90625,18.598352 C 4.415253,18.544282 4.96941,18.594692 5.6875,18.754602 C 6.252135,18.882432 6.652231,18.997432 7.3125,19.285852 C 7.3125,19.285852 7.78125,19.254602 7.78125,19.254602 C 7.78125,19.254602 7.712403,19.094972 7.6875,19.035852 C 7.563154,19.049062 7.4375,19.067102 7.4375,19.067102 C 7.290299,19.002802 7.187878,18.961292 7.0625,18.910852 C 7.072048,18.933522 7.09375,19.004602 7.09375,19.004602 C 6.454911,18.733832 6.237063,18.640152 5.90625,18.535852 C 5.88233,18.528322 5.867472,18.511852 5.84375,18.504602 C 5.751622,18.484092 5.680655,18.490172 5.59375,18.473352 C 5.003278,18.359102 4.506199,18.301212 4.0625,18.348352 z M 11.28125,18.410852 C 11.063139,18.501222 10.84375,18.567102 10.84375,18.567102 C 11.552303,18.735972 12.421161,18.740152 13.125,18.567102 C 13.125,18.567102 12.950688,18.512302 12.78125,18.442102 C 12.28792,18.504052 11.763342,18.490422 11.28125,18.410852 z M 36.96875,18.410852 C 36.542983,18.422182 36.20989,18.429862 35.75,18.442102 C 35.813827,18.499622 35.822244,18.574622 35.84375,18.629602 C 36.191813,18.620342 36.84375,18.598352 36.84375,18.598352 C 36.881221,18.530192 36.960667,18.425062 36.96875,18.410852 z M 27.40625,18.442102 C 27.194018,18.530032 26.96875,18.598352 26.96875,18.598352 C 27.677303,18.767222 28.577411,18.771402 29.28125,18.598352 C 29.281249,18.598352 29.099935,18.540652 28.9375,18.473352 C 28.438603,18.536002 27.89256,18.524182 27.40625,18.442102 z M 34.28125,18.442102 C 34.196564,18.475462 34.097636,18.502002 34,18.504602 C 33.947927,18.505992 33.954792,18.526332 33.78125,18.504602 C 33.78125,18.504602 33.718748,18.473352 33.71875,18.473352 C 33.497441,18.479242 33.203671,18.655102 33.09375,18.848352 C 33.073102,18.884652 33.070107,18.909042 33.0625,18.942102 C 33.196239,18.805572 33.389602,18.727952 33.5625,18.723352 C 33.562498,18.723352 33.625,18.723352 33.625,18.723352 C 33.798542,18.745082 33.791677,18.724742 33.84375,18.723352 C 34.039022,18.718152 34.260077,18.659262 34.3125,18.567102 C 34.341247,18.516562 34.338316,18.472792 34.28125,18.442102 z M 35.15625,18.473352 C 35.156248,18.473352 35.03125,18.598352 35.03125,18.598352 C 35.304681,18.700882 35.414116,18.787662 35.40625,18.910852 C 35.436831,18.877632 35.479439,18.853252 35.5,18.817102 C 35.542277,18.742772 35.578029,18.685252 35.5625,18.629602 C 35.546349,18.571722 35.493922,18.523642 35.40625,18.473352 C 35.358811,18.474612 35.15625,18.473352 35.15625,18.473352 z M 2.96875,18.567102 C 2.815541,18.705072 2.76692,18.884712 2.84375,19.067102 C 2.994059,19.423922 3.691865,19.670932 4.375,19.598352 C 4.696475,19.564202 4.887351,19.451862 4.84375,19.348352 C 4.83312,19.323122 4.787643,19.304582 4.75,19.285852 C 4.678756,19.306602 4.625801,19.338312 4.53125,19.348352 C 4.360466,19.366492 4.195494,19.366072 4.03125,19.348352 C 4.003255,19.354492 3.975452,19.375572 3.9375,19.379602 C 3.636117,19.411622 3.298639,19.278972 3.1875,19.098352 C 3.17383,19.088352 3.168893,19.077502 3.15625,19.067102 C 3.078587,19.003242 3.032316,18.925072 3,18.848352 C 2.958693,18.750292 2.940169,18.654972 2.96875,18.567102 z M 32.75,19.004602 C 32.713658,19.049482 32.651964,19.082202 32.625,19.129602 C 32.342591,19.626102 32.824412,19.936312 33.78125,19.910852 C 34.653468,19.887652 35.435531,19.572582 35.6875,19.129602 C 35.710161,19.089762 35.738942,19.071072 35.75,19.035852 C 35.437115,19.416162 34.729001,19.671042 33.9375,19.692102 C 33.050775,19.715692 32.589081,19.440442 32.75,19.004602 z M 36.4375,19.379602 C 36.383088,19.475262 36.28125,19.629602 36.28125,19.629602 C 36.281248,19.629602 37.03125,19.660852 37.03125,19.660852 C 37.031253,19.660852 37.09375,19.535852 37.09375,19.535852 C 36.97263,19.501822 36.95228,19.477532 36.96875,19.410852 C 36.758135,19.402272 36.437498,19.379602 36.4375,19.379602 z M 19.34375,20.192102 C 19.182682,20.214072 19.02378,20.218022 18.875,20.254602 C 18.874999,20.254602 19.6875,20.598352 19.6875,20.598352 C 19.951218,20.564122 20.238333,20.592072 20.5,20.629602 C 20.499999,20.629602 21.3125,20.285852 21.3125,20.285852 C 21.223165,20.263262 21.125619,20.240662 21.03125,20.223352 C 20.841954,20.301782 20.656249,20.379602 20.65625,20.379602 C 20.394583,20.342072 20.107467,20.345372 19.84375,20.379602 C 19.84375,20.379602 19.578963,20.289552 19.34375,20.192102 z M 17.875,20.785852 C 17.616381,21.068612 17.643656,21.366512 18.03125,21.629602 C 18.031251,21.629602 18.875,21.285852 18.875,21.285852 C 18.840363,21.244402 18.822858,21.204042 18.8125,21.160852 C 18.576599,21.258592 18.187501,21.410852 18.1875,21.410852 C 17.906473,21.220092 17.816696,21.001362 17.875,20.785852 z M 21.5,20.910852 C 21.438379,20.936382 21.3125,20.973352 21.3125,20.973352 C 21.38183,21.073732 21.387623,21.186042 21.3125,21.285852 C 21.312501,21.285852 22.125,21.629602 22.125,21.629602 C 22.27519,21.524742 22.358315,21.402872 22.40625,21.285852 C 22.365081,21.326272 22.336069,21.372582 22.28125,21.410852 C 22.28125,21.410852 21.437501,21.067102 21.4375,21.067102 C 21.475062,21.017192 21.499247,20.962342 21.5,20.910852 z M 19.3125,21.785852 C 19.093769,21.876472 18.875,21.973352 18.875,21.973352 C 19.618978,22.150662 20.542218,22.155052 21.28125,21.973352 C 21.281249,21.973352 21.118728,21.910492 20.96875,21.848352 C 20.429116,21.919652 19.838842,21.877012 19.3125,21.785852 z M 24.59375,23.192102 C 23.888131,23.434562 23.483946,23.625052 23.09375,23.848352 C 22.666234,24.096092 22.42982,24.289312 22.375,24.473352 C 22.493636,24.353252 22.685411,24.213182 22.9375,24.067102 C 23.367453,23.821042 23.768679,23.666702 24.625,23.379602 C 24.625,23.379602 24.602001,23.234562 24.59375,23.192102 z M 24,23.223352 C 24,23.223352 22.375001,23.348352 22.375,23.348352 C 21.724888,23.392822 21.573496,23.447042 21.375,23.692102 C 21.375,23.692102 21.312499,23.754602 21.3125,23.754602 C 21.3125,23.754602 21.03125,23.754602 21.03125,23.754602 C 21.03125,23.754602 21.120273,23.573222 21.1875,23.410852 C 21.185309,23.411002 21.125,23.410852 21.125,23.410852 C 21.125001,23.410852 20.875,23.973352 20.875,23.973352 C 20.875,23.973352 21.15625,23.973352 21.15625,23.973352 C 21.15625,23.973352 21.21875,23.910852 21.21875,23.910852 C 21.417247,23.665792 21.568638,23.611572 22.21875,23.567102 C 22.218751,23.567102 22.86549,23.506072 23.34375,23.473352 C 23.543843,23.399102 23.615325,23.355702 24,23.223352 z M 17.46875,23.254602 C 17.206303,23.336772 17.032405,23.498542 16.9375,23.660852 C 16.916659,23.696492 16.914789,23.721202 16.90625,23.754602 C 17.175783,23.504472 17.712951,23.367012 18.375,23.410852 C 18.827302,23.440812 19.152062,23.529872 19.09375,23.629602 C 19.084182,23.608692 19.080886,23.589102 19.09375,23.567102 C 19.107471,23.543632 19.106383,23.523022 19.21875,23.442102 C 19.21875,23.442102 19.250002,23.410852 19.25,23.410852 C 19.006427,23.345272 18.705994,23.278592 18.34375,23.254602 C 18.053234,23.235362 17.790027,23.235602 17.53125,23.254602 C 17.51133,23.260132 17.487956,23.248592 17.46875,23.254602 z M 19.09375,23.629602 C 19.093748,23.629602 19.0625,23.660852 19.0625,23.660852 C 18.950134,23.741772 18.951221,23.762382 18.9375,23.785852 C 18.886044,23.873852 19.034288,23.959062 19.25,23.973352 C 19.486583,23.989022 19.721224,23.919772 19.78125,23.817102 C 19.809996,23.767942 19.811592,23.708072 19.78125,23.660852 C 19.675699,23.708792 19.559216,23.764732 19.40625,23.754602 C 19.244466,23.743882 19.122453,23.692342 19.09375,23.629602 z M 16.0625,23.785852 C 16.032246,23.818762 15.989504,23.844112 15.96875,23.879602 C 15.738917,24.272662 16.275687,24.592192 17.3125,24.660852 C 17.778716,24.691732 18.133837,24.646532 18.625,24.535852 C 18.624999,24.535852 18.507127,24.738332 18.40625,24.910852 C 18.407056,24.910902 18.4375,24.910852 18.4375,24.910852 C 18.4375,24.910852 18.781252,24.317102 18.78125,24.317102 C 18.385815,24.456112 18.08276,24.532842 17.65625,24.504602 C 17.379651,24.486282 17.18849,24.414792 17.03125,24.348352 C 16.403701,24.245662 16.035659,24.051712 16.0625,23.785852 z M 21.5625,24.473352 C 21.409078,24.608892 21.352656,24.733402 21.375,24.848352 C 21.439892,25.182232 22.221253,25.387482 23.25,25.317102 C 24.15663,25.255082 24.852432,24.950432 24.84375,24.660852 C 24.68085,24.789592 24.396738,24.927172 24.03125,25.004602 C 24.000984,25.018502 23.974113,25.022912 23.9375,25.035852 C 23.760538,25.098412 23.542011,25.143012 23.28125,25.160852 C 22.927741,25.185032 22.623267,25.152192 22.4375,25.067102 C 21.916456,25.005022 21.573634,24.847672 21.53125,24.629602 C 21.521115,24.577462 21.536555,24.529762 21.5625,24.473352 z M 24.1875,24.473352 C 24.039784,24.507482 23.925125,24.565922 23.9375,24.629602 C 23.943191,24.658892 23.97612,24.669162 24.03125,24.692102 C 24.101812,24.719922 24.162297,24.767912 24.1875,24.785852 C 24.303521,24.732562 24.385835,24.654102 24.375,24.598352 C 24.365323,24.548562 24.328623,24.528982 24.1875,24.473352 z M 16.25,25.035852 C 16.160318,25.045532 16.08921,25.057032 16,25.098352 C 16,25.098352 15.890838,25.072292 15.8125,25.067102 C 15.71905,25.165682 15.59375,25.317102 15.59375,25.317102 C 15.593749,25.317102 15.84375,25.317102 15.84375,25.317102 C 16.02217,25.234462 16.113868,25.231102 16.46875,25.254602 C 16.468749,25.254602 18.5625,25.379602 18.5625,25.379602 C 18.5625,25.379602 18.644998,25.233542 18.6875,25.160852 C 18.67554,25.160062 18.416252,25.138542 18.28125,25.129602 C 18.281251,25.129602 17.32563,25.082252 16.625,25.035852 C 16.447559,25.024102 16.339682,25.026172 16.25,25.035852 z "
       id="path4492" />
    <path
       style="opacity:0.25;fill:url(#linearGradient4518);fill-opacity:1;fill-rule:nonzero;stroke:none;stroke-width:1;stroke-linecap:round;stroke-linejoin:round;stroke-miterlimit:4;stroke-opacity:1"
       d="M 20.125,9.1608476 C 19.621,9.1608476 19.1195,9.1753586 18.625,9.1920976 C 18.2692,9.2041416 17.91277,9.2029116 17.5625,9.2233476 C 17.42379,9.2314326 17.29171,9.2426746 17.15625,9.2545976 C 16.9413,9.2691606 16.74385,9.2994446 16.53125,9.3170976 C 16.41755,9.3286446 16.30226,9.3378486 16.1875,9.3483476 C 16.1439,9.3523146 16.10598,9.3754976 16.0625,9.3795976 C 14.73583,9.5047106 13.46326,9.6723876 12.25,9.9108476 C 11.94694,9.9705096 11.63848,10.032136 11.34375,10.098348 C 11.03596,10.167613 10.73568,10.240915 10.4375,10.317098 C 10.03056,10.421072 9.60659,10.513264 9.21875,10.629598 C 8.82954,10.746098 8.46235,10.876267 8.09375,11.004599 C 7.97092,11.047445 7.83918,11.085484 7.71875,11.129599 C 7.483,11.215966 7.25752,11.319743 7.03125,11.410849 C 6.75406,11.522651 6.48105,11.635973 6.21875,11.754599 C 6.14901,11.786035 6.06866,11.816445 6,11.848349 C 5.68615,11.994961 5.3841,12.161035 5.09375,12.3171 C 4.69676,12.530211 4.31898,12.743773 3.96875,12.973351 C 3.64782,13.183718 3.34153,13.406558 3.0625,13.629601 C 3.05117,13.638658 3.04251,13.651774 3.03125,13.660851 C 2.98056,13.694674 2.92082,13.716324 2.875,13.754601 C 2.83114,13.791235 2.7927,13.842656 2.75,13.879602 C 2.53776,14.063747 2.33897,14.250634 2.15625,14.442102 C 1.92999,14.679192 1.74122,14.944792 1.5625,15.192102 C 1.54608,15.214826 1.51601,15.231797 1.5,15.254602 C 1.38396,15.439477 1.27664,15.625586 1.1875,15.817102 C 0.92008,16.39165 0.78125,16.994752 0.78125,17.598352 C 0.78125,22.376441 9.53018,26.254602 20.28125,26.254602 C 28.34455,26.254602 35.26295,24.079841 38.21875,20.973352 C 38.40178,20.780993 38.56679,20.578757 38.71875,20.379602 C 38.74148,20.347119 38.75936,20.318498 38.78125,20.285852 C 39.24147,19.599498 39.50047,18.87429 39.5625,18.129602 C 39.56332,18.119562 39.56176,18.108402 39.5625,18.098352 C 39.56953,18.002852 39.59375,17.913362 39.59375,17.817102 C 39.59375,13.039011 30.87607,9.1608476 20.125,9.1608476 z M 20.25,9.5983476 C 30.53328,9.5983476 38.875,13.154807 38.875,17.535852 C 38.875,18.16655 38.67041,18.759983 38.34375,19.348352 C 38.21966,19.606615 38.05645,19.849866 37.875,20.098352 C 37.73235,20.27649 37.57721,20.457407 37.40625,20.629602 C 34.69237,23.582369 27.98269,25.692102 20.09375,25.692102 C 9.81047,25.692102 1.46875,22.135646 1.46875,17.754602 C 1.46875,17.123904 1.67334,16.530471 2,15.942102 C 2.08394,15.767395 2.20208,15.581184 2.3125,15.410852 C 2.32068,15.39965 2.33546,15.390783 2.34375,15.379602 C 4.54633,12.042921 11.71714,9.5983476 20.25,9.5983476 z M 20.84375,10.317098 C 20.78347,10.584811 20.6875,11.098349 20.6875,11.098349 C 20.6875,11.098349 20.96875,11.129599 20.96875,11.129599 C 20.97908,11.125 20.98982,11.134019 21,11.129599 C 21,11.129599 21.125,10.567098 21.125,10.567098 C 21.125,10.567098 21.2117,10.566647 21.21875,10.567098 C 21.24228,10.462603 21.28125,10.348348 21.28125,10.348348 C 21.11775,10.337895 20.86993,10.318772 20.84375,10.317098 z M 23.375,10.379598 C 23.30439,10.418729 23.26939,10.464152 23.1875,10.473348 C 23.30541,10.480886 23.59375,10.504598 23.59375,10.504598 C 23.59375,10.504598 23.63136,10.453061 23.65625,10.410848 C 23.65625,10.410848 23.375,10.379598 23.375,10.379598 z M 15.78125,10.473348 C 15.51164,10.53516 15.3137,10.624773 15.1875,10.723348 C 15.18925,10.750281 15.20366,10.790088 15.21875,10.817098 C 15.29303,10.95007 15.52973,11.022357 15.78125,11.004599 C 15.80461,11.00295 15.82225,11.008077 15.84375,11.004599 C 15.82866,10.997045 15.82937,10.979414 15.8125,10.973349 C 15.65932,10.920815 15.62006,10.895442 15.59375,10.848348 C 15.55661,10.781861 15.63464,10.72015 15.78125,10.660848 C 15.77598,10.654237 15.75445,10.637568 15.75,10.629598 C 15.71723,10.570934 15.7919,10.528025 15.90625,10.473348 C 15.8677,10.480762 15.81774,10.464982 15.78125,10.473348 z M 17.5,10.473348 C 17.56701,10.515183 17.62569,10.574886 17.65625,10.629598 C 17.73915,10.778008 17.67213,10.914784 17.5,11.098349 C 17.48899,11.110089 17.48085,11.117637 17.46875,11.129599 C 17.41323,11.264436 17.32688,11.396659 17.09375,11.567099 C 16.81355,11.768732 16.47196,11.948343 15.9375,12.16085 C 15.95355,12.189578 15.96875,12.22335 15.96875,12.22335 C 15.96875,12.22335 17.00273,12.133097 17.9375,12.0671 C 17.9375,12.0671 16.4375,12.16085 16.4375,12.16085 C 16.77329,12.029162 16.83228,11.983161 17,11.910849 C 16.82501,11.923203 16.5625,11.9421 16.5625,11.9421 C 17.23409,11.678723 17.45787,11.578577 17.71875,11.442099 C 17.96813,11.311492 18.15361,11.214635 18.28125,11.098349 C 18.32833,11.003608 18.32774,10.900324 18.28125,10.817098 C 18.18386,10.642756 17.89846,10.545261 17.5,10.473348 z M 17.9375,12.0671 C 18.45707,12.030417 18.93079,11.980443 19.03125,11.97335 C 19.03904,11.824802 19.0625,11.660849 19.0625,11.660849 C 19.0625,11.660849 18.8125,11.660849 18.8125,11.660849 C 18.8125,11.660849 18.78125,11.723349 18.78125,11.723349 C 18.67691,11.955315 18.53982,12.024576 17.9375,12.0671 z M 22.90625,11.129599 C 23.10901,11.232272 23.19317,11.371892 23.15625,11.535849 C 23.13828,11.615654 23.07187,11.694123 23,11.754599 C 22.96909,11.891863 22.8385,12.020841 22.65625,12.09835 C 23.19477,12.057642 23.58044,11.944692 23.78125,11.754599 C 23.84407,11.475628 23.5077,11.258595 22.90625,11.129599 z M 20.625,11.660849 C 20.53206,11.654908 20.44853,11.70568 20.375,11.723349 C 20.45771,11.813238 20.64696,11.874573 20.90625,11.9421 C 20.9853,11.865495 20.96375,11.870556 20.96875,11.848349 C 20.9875,11.765074 20.83483,11.674263 20.625,11.660849 z M 20.28125,12.47335 C 14.78365,12.47335 10.14457,14.026367 8.59375,16.192102 C 8.53599,16.287243 8.48325,16.376164 8.4375,16.473352 C 8.27434,16.819936 8.1875,17.198973 8.1875,17.567102 C 8.1875,20.512137 13.67122,22.910851 20.4375,22.910852 C 25.84494,22.910852 30.40645,21.373133 32.03125,19.254602 C 32.33898,18.786537 32.53125,18.296407 32.53125,17.785852 C 32.53125,14.840817 27.04753,12.47335 20.28125,12.47335 z M 20.4375,12.59835 C 26.80587,12.59835 31.96875,14.787916 31.96875,17.504602 C 31.96875,17.906159 31.83782,18.287697 31.625,18.660852 C 31.61552,18.682009 31.60386,18.702293 31.59375,18.723352 C 31.5638,18.773214 31.5335,18.830371 31.5,18.879602 C 31.46869,18.935522 31.41076,18.980701 31.375,19.035852 C 30.0287,21.112393 25.58414,22.629603 20.28125,22.629602 C 13.91288,22.629602 8.75,20.440035 8.75,17.723352 C 8.75,17.302789 8.89222,16.893733 9.125,16.504602 C 9.16642,16.418364 9.22938,16.339107 9.28125,16.254602 C 10.57604,14.145041 15.0798,12.59835 20.4375,12.59835 z M 20.03125,13.473351 C 19.80682,13.472668 19.59173,13.509257 19.375,13.535851 C 19.58101,13.621205 19.78125,13.723351 19.78125,13.723351 C 20.03241,13.690748 20.31329,13.687606 20.5625,13.723351 C 20.5625,13.723351 20.73802,13.668053 20.90625,13.598351 C 20.62089,13.546803 20.33746,13.474283 20.03125,13.473351 z M 18.0625,13.942102 C 18.00904,13.979424 17.97738,14.027643 17.9375,14.067102 C 17.85175,14.286476 17.93108,14.496836 18.21875,14.692102 C 18.21875,14.692102 18.55202,14.568325 18.78125,14.473352 C 18.76912,14.410213 18.79762,14.346853 18.84375,14.285852 C 18.84375,14.285852 18.0625,13.942102 18.0625,13.942102 z M 21.96875,13.973352 C 21.96875,13.973352 21.59464,14.132353 21.375,14.223352 C 21.37428,14.272389 21.37952,14.300823 21.34375,14.348352 C 21.34375,14.348352 22.125,14.692102 22.125,14.692102 C 22.18784,14.648232 22.20599,14.582598 22.25,14.535852 C 22.29888,14.340578 22.21151,14.148193 21.96875,13.973352 z M 19.6875,14.910852 C 19.6875,14.910852 19.47826,14.98548 19.28125,15.067102 C 19.7796,15.155278 20.33017,15.163868 20.84375,15.098352 C 20.62146,15.006253 20.375,14.910852 20.375,14.910852 C 20.14556,14.940497 19.91824,14.938209 19.6875,14.910852 z M 5.625,15.973352 C 5.16332,16.017142 4.79514,16.15934 4.5625,16.348352 C 4.54886,16.372967 4.50941,16.385094 4.5,16.410852 C 4.49596,16.421923 4.50313,16.431417 4.5,16.442102 C 4.45658,16.59036 4.51797,16.713857 4.6875,16.848352 C 4.6858,16.815392 4.67355,16.761556 4.6875,16.723352 C 4.71468,16.648909 4.76565,16.593554 4.84375,16.535852 C 4.84664,16.524488 4.83939,16.516541 4.84375,16.504602 C 4.95249,16.20683 5.49769,16.046399 6.25,16.067102 C 7.02246,16.08836 7.45761,16.286536 7.34375,16.598352 C 7.31774,16.669565 7.2559,16.763789 7.1875,16.817102 C 7.1848,16.827989 7.19157,16.837216 7.1875,16.848352 C 7.12082,17.030948 6.88463,17.167135 6.65625,17.160852 C 6.65625,17.160852 6.5625,17.160852 6.5625,17.160852 C 6.37694,17.130211 6.39749,17.13108 6.34375,17.129602 C 6.26511,17.127437 6.19371,17.143288 6.125,17.160852 C 6.1918,17.193902 6.2887,17.220118 6.40625,17.223352 C 6.82439,17.23486 7.23227,17.08923 7.46875,16.848352 C 7.48492,16.831882 7.48548,16.80307 7.5,16.785852 C 7.63864,16.331361 7.0924,15.999973 6.125,15.973352 C 5.95623,15.968708 5.77889,15.958755 5.625,15.973352 z M 19.34375,15.973352 C 19.1863,15.987643 19.05633,16.013568 18.90625,16.035852 C 19.11363,16.000872 19.30579,15.991792 19.53125,15.973352 C 19.4708,15.977558 19.40326,15.96795 19.34375,15.973352 z M 36.875,16.035852 C 36.71907,16.026394 36.5461,16.038959 36.375,16.067102 C 36.25139,16.087432 36.14985,16.124915 36.0625,16.160852 C 36.126,16.211376 36.22845,16.247456 36.375,16.223352 C 36.4421,16.212317 36.53653,16.190146 36.59375,16.160852 C 36.73323,16.086783 36.76093,16.054613 36.875,16.035852 z M 3.09375,16.098352 C 3.09135,16.122626 3.10683,16.125036 3.09375,16.160852 C 3.09375,16.160852 2.78125,17.035852 2.78125,17.035852 C 2.78125,17.035852 3.11647,17.031317 3.28125,17.035852 C 3.32242,16.923117 3.59375,16.129602 3.59375,16.129602 C 3.59375,16.129602 3.32229,16.118862 3.09375,16.098352 z M 18.3125,16.160852 C 17.51181,16.349664 16.85589,16.634204 16.5,17.004602 C 16.46765,17.054961 16.42833,17.108804 16.40625,17.160852 C 16.36205,17.265048 16.34375,17.363753 16.34375,17.473352 C 16.34375,18.434748 18.12198,19.223352 20.3125,19.223352 C 21.92983,19.223352 23.31946,18.804036 23.9375,18.192102 C 23.94542,18.180472 23.96137,18.172581 23.96875,18.160852 C 24.00303,18.125177 24.0023,18.072668 24.03125,18.035852 C 24.08415,17.92228 24.125,17.812277 24.125,17.692102 C 24.125,17.245571 23.7241,16.846131 23.09375,16.535852 C 23.4629,16.755446 23.6875,17.03416 23.6875,17.317102 C 23.6875,17.474014 23.59054,17.613658 23.46875,17.754602 C 23.36119,18.023091 23.05995,18.248637 22.625,18.442102 C 22.47517,18.508746 22.30478,18.575827 22.125,18.629602 C 22.11524,18.632606 22.10359,18.626635 22.09375,18.629602 C 21.85196,18.700433 21.59775,18.773601 21.3125,18.817102 C 21.28304,18.822021 21.2486,18.812512 21.21875,18.817102 C 20.86369,18.871699 20.49576,18.910852 20.09375,18.910852 C 19.86148,18.910852 19.62605,18.898648 19.40625,18.879602 C 19.38497,18.877862 19.36489,18.881497 19.34375,18.879602 C 19.28914,18.874442 19.24113,18.854579 19.1875,18.848352 C 19.00589,18.828376 18.82474,18.816786 18.65625,18.785852 C 18.47377,18.751063 18.32028,18.706665 18.15625,18.660852 C 18.12143,18.651493 18.09641,18.639441 18.0625,18.629602 C 17.91871,18.586779 17.78201,18.554373 17.65625,18.504602 C 17.61021,18.486324 17.57467,18.461369 17.53125,18.442102 C 16.98212,18.198437 16.625,17.885465 16.625,17.535852 C 16.625,17.37894 16.71982,17.239296 16.84375,17.098352 C 16.99924,16.717514 17.53506,16.369838 18.3125,16.160852 z M 37.53125,16.254602 C 37.54774,16.281105 37.55766,16.31876 37.5625,16.348352 C 37.58011,16.456089 37.50701,16.541059 37.375,16.629602 C 37.36805,16.634262 37.3823,16.656277 37.375,16.660852 C 37.3124,16.846043 37.04228,16.993328 36.59375,17.067102 C 36.08379,17.150977 35.53655,17.162795 34.875,17.035852 C 35.54594,17.227104 36.14405,17.281485 36.6875,17.192102 C 37.16558,17.113468 37.52169,16.940501 37.71875,16.723352 C 37.72519,16.703593 37.74633,16.680931 37.75,16.660852 C 37.75886,16.612328 37.75814,16.585641 37.75,16.535852 C 37.73223,16.427147 37.63741,16.331207 37.53125,16.254602 z M 33.4375,16.535852 C 33.4375,16.535852 33.29181,16.576056 33.15625,16.598352 C 33.20629,16.904535 33.34375,17.723352 33.34375,17.723352 C 33.34375,17.723352 33.60647,17.705785 33.84375,17.692102 C 33.74518,17.647601 33.70807,17.599207 33.6875,17.473352 C 33.6875,17.473352 33.5625,16.848352 33.5625,16.848352 C 33.67895,16.899861 33.69246,16.903962 33.78125,16.942102 C 33.75817,16.800907 33.72699,16.711242 33.71875,16.660852 C 33.62352,16.620638 33.54612,16.585754 33.4375,16.535852 z M 12,16.817102 C 11.76346,16.816382 11.50875,16.818772 11.28125,16.848352 C 11.50925,16.942815 11.75,17.067102 11.75,17.067102 C 12.00116,17.034499 12.28204,17.031357 12.53125,17.067102 C 12.53125,17.067102 12.70304,16.982098 12.875,16.910852 C 12.59037,16.859609 12.3053,16.818031 12,16.817102 z M 28.125,16.848352 C 27.88846,16.847632 27.665,16.850022 27.4375,16.879602 C 27.66013,16.97184 27.90625,17.067102 27.90625,17.067102 C 28.15741,17.034499 28.40704,17.062607 28.65625,17.098352 C 28.65625,17.098352 28.86827,17.022574 29.0625,16.942102 C 28.76845,16.886822 28.44221,16.849318 28.125,16.848352 z M 4.375,16.910852 C 4.40555,16.959255 4.46634,17.015606 4.53125,17.067102 C 4.70544,17.071896 4.89624,17.096357 4.96875,17.098352 C 4.84804,17.038035 4.74922,16.975527 4.71875,16.910852 C 4.70315,16.910423 4.51316,16.914654 4.375,16.910852 z M 10,17.285852 C 9.95418,17.317842 9.94209,17.34601 9.90625,17.379602 C 9.8205,17.598976 9.89983,17.840586 10.1875,18.035852 C 10.1875,18.035852 10.52147,17.880533 10.75,17.785852 C 10.73916,17.723897 10.76725,17.658188 10.8125,17.598352 C 10.8125,17.598352 10,17.285852 10,17.285852 z M 13.9375,17.285852 C 13.9375,17.285852 13.56708,17.443325 13.34375,17.535852 C 13.34303,17.584889 13.31702,17.644573 13.28125,17.692102 C 13.28125,17.692102 14.09375,18.004602 14.09375,18.004602 C 14.1385,17.973358 14.1523,17.943628 14.1875,17.910852 C 14.27515,17.696865 14.20551,17.478879 13.9375,17.285852 z M 26.15625,17.317102 C 26.1061,17.352112 26.06945,17.373945 26.03125,17.410852 C 25.94768,17.629281 26.0262,17.872763 26.3125,18.067102 C 26.3125,18.067102 26.67956,17.911023 26.90625,17.817102 C 26.89412,17.753963 26.89137,17.690604 26.9375,17.629602 C 26.9375,17.629602 26.15625,17.317102 26.15625,17.317102 z M 30.09375,17.317102 C 30.09375,17.317102 29.72993,17.471839 29.5,17.567102 C 29.49928,17.616139 29.47327,17.675823 29.4375,17.723352 C 29.4375,17.723352 30.21875,18.035852 30.21875,18.035852 C 30.27419,17.997143 30.30297,17.951846 30.34375,17.910852 C 30.41346,17.705016 30.35059,17.502086 30.09375,17.317102 z M 6.75,17.910852 C 6.86327,17.959646 6.91654,18.036917 6.96875,18.160852 C 6.96875,18.160852 7.25,18.785852 7.25,18.785852 C 7.09613,18.720633 7.08113,18.707142 6.96875,18.660852 C 7.02001,18.782537 7.03666,18.849517 7.0625,18.910852 C 7.18788,18.96129 7.2903,19.002802 7.4375,19.067102 C 7.4375,19.067102 7.56315,19.049062 7.6875,19.035852 C 7.55997,18.733101 7.21875,17.910852 7.21875,17.910852 C 7.21875,17.910852 6.96442,17.910473 6.75,17.910852 z M 3.875,18.254602 C 3.49325,18.295158 3.18115,18.392817 3,18.535852 C 2.99472,18.547886 2.97275,18.554799 2.96875,18.567102 C 2.94017,18.654977 2.95869,18.750294 3,18.848352 C 3.03232,18.925069 3.07859,19.003245 3.15625,19.067102 C 3.10921,18.955425 3.1832,18.835925 3.3125,18.754602 C 3.29722,18.561218 3.58632,18.398938 4.0625,18.348352 C 4.5062,18.301213 5.00328,18.359102 5.59375,18.473352 C 4.94178,18.29779 4.36346,18.202709 3.875,18.254602 z M 11.625,18.254602 C 11.625,18.254602 11.45846,18.33743 11.28125,18.410852 C 11.76334,18.490427 12.28792,18.504055 12.78125,18.442102 C 12.56071,18.35073 12.34375,18.254602 12.34375,18.254602 C 12.1143,18.284247 11.85574,18.281959 11.625,18.254602 z M 27.78125,18.285852 C 27.78125,18.285852 27.59183,18.365216 27.40625,18.442102 C 27.89256,18.52418 28.4386,18.536004 28.9375,18.473352 C 28.71328,18.380454 28.46875,18.285852 28.46875,18.285852 C 28.23931,18.315497 28.01199,18.313209 27.78125,18.285852 z M 34,18.379602 C 33.52309,18.39229 33.02364,18.666677 32.75,19.004602 C 32.58908,19.440441 33.05077,19.715693 33.9375,19.692102 C 34.729,19.671043 35.43712,19.416162 35.75,19.035852 C 35.75277,19.027047 35.74798,19.013184 35.75,19.004602 C 35.78025,18.875878 35.71712,18.755055 35.5625,18.629602 C 35.57803,18.685256 35.54228,18.742776 35.5,18.817102 C 35.47944,18.853251 35.43683,18.877633 35.40625,18.910852 C 35.40546,18.923171 35.37822,18.929043 35.375,18.942102 C 35.36749,18.972572 35.36387,19.000473 35.34375,19.035852 C 35.1645,19.350996 34.60402,19.578957 33.875,19.598352 C 33.12646,19.618267 32.78104,19.39711 32.96875,19.067102 C 32.9928,19.024829 33.02505,18.980331 33.0625,18.942102 C 33.07011,18.90904 33.0731,18.884653 33.09375,18.848352 C 33.20367,18.655105 33.49744,18.479239 33.71875,18.473352 C 33.71875,18.473352 33.78125,18.504602 33.78125,18.504602 C 33.95479,18.526337 33.94793,18.505988 34,18.504602 C 34.09764,18.502004 34.19656,18.475465 34.28125,18.442102 C 34.22418,18.411411 34.11391,18.376571 34,18.379602 z M 35.5625,18.629602 C 35.5625,18.629602 35.74593,18.632204 35.84375,18.629602 C 35.82224,18.574618 35.81383,18.499628 35.75,18.442102 C 35.62006,18.445559 35.47164,18.471612 35.40625,18.473352 C 35.49392,18.523638 35.54635,18.571722 35.5625,18.629602 z M 36.96875,18.410852 C 36.92897,18.480789 36.4375,19.379602 36.4375,19.379602 C 36.4375,19.379602 36.75813,19.402275 36.96875,19.410852 C 36.97558,19.383204 36.97472,19.361544 37,19.317102 C 37,19.317102 37.07922,19.178838 37.125,19.098352 C 37.13142,19.085817 37.11671,19.081681 37.125,19.067102 C 37.125,19.067102 37.22954,18.939255 37.28125,18.848352 C 37.40145,18.637024 37.5,18.410852 37.5,18.410852 C 37.5,18.410852 37.15421,18.405918 36.96875,18.410852 z M 4.4375,19.223352 C 4.37053,19.230468 4.27099,19.260382 4.21875,19.285852 C 4.13429,19.328973 4.08724,19.33608 4.03125,19.348352 C 4.19549,19.366074 4.36047,19.366496 4.53125,19.348352 C 4.6258,19.338307 4.67876,19.306598 4.75,19.285852 C 4.66575,19.243942 4.56711,19.209583 4.4375,19.223352 z M 20.09375,20.129602 C 19.83441,20.128813 19.59227,20.1582 19.34375,20.192102 C 19.57896,20.289554 19.84375,20.379602 19.84375,20.379602 C 20.10747,20.345369 20.39458,20.34207 20.65625,20.379602 C 20.65625,20.379602 20.84195,20.301779 21.03125,20.223352 C 20.72811,20.167743 20.4197,20.130594 20.09375,20.129602 z M 18.03125,20.629602 C 17.96109,20.678587 17.92289,20.733488 17.875,20.785852 C 17.8167,21.001365 17.90647,21.220095 18.1875,21.410852 C 18.1875,21.410852 18.5766,21.258589 18.8125,21.160852 C 18.79577,21.091088 18.79271,21.040839 18.84375,20.973352 C 18.84375,20.973352 18.03125,20.629602 18.03125,20.629602 z M 22.15625,20.629602 C 22.15625,20.629602 21.72304,20.818443 21.5,20.910852 C 21.49925,20.962341 21.47506,21.017196 21.4375,21.067102 C 21.4375,21.067102 22.28125,21.410852 22.28125,21.410852 C 22.33607,21.372578 22.36508,21.326272 22.40625,21.285852 C 22.49829,21.061166 22.43766,20.83228 22.15625,20.629602 z M 19.71875,21.629602 C 19.71875,21.629602 19.51251,21.702985 19.3125,21.785852 C 19.83884,21.877009 20.42912,21.91965 20.96875,21.848352 C 20.72553,21.747583 20.46875,21.629602 20.46875,21.629602 C 20.22783,21.660729 19.96103,21.658327 19.71875,21.629602 z M 24.59375,23.160852 C 24.59375,23.160852 21.30755,23.402639 21.1875,23.410852 C 21.12027,23.573226 21.03125,23.754602 21.03125,23.754602 C 21.03125,23.754602 21.3125,23.754602 21.3125,23.754602 C 21.3125,23.754602 21.375,23.692102 21.375,23.692102 C 21.5735,23.447043 21.72489,23.392826 22.375,23.348352 C 22.375,23.348352 24,23.223352 24,23.223352 C 23.61533,23.355704 23.54384,23.399098 23.34375,23.473352 C 23.55597,23.458834 23.84375,23.442102 23.84375,23.442102 C 23.0363,23.719917 22.79547,23.829323 22.46875,23.973352 C 22.04889,24.158613 21.74133,24.315362 21.5625,24.473352 C 21.53656,24.529762 21.52112,24.577462 21.53125,24.629602 C 21.57363,24.847672 21.91646,25.005022 22.4375,25.067102 C 22.31542,25.011182 22.23658,24.940102 22.21875,24.848352 C 22.19568,24.729672 22.2395,24.610522 22.375,24.473352 C 22.42982,24.289312 22.66623,24.096096 23.09375,23.848352 C 23.48395,23.625047 23.88813,23.434558 24.59375,23.192102 C 24.59241,23.185191 24.59375,23.160852 24.59375,23.160852 z M 17.46875,23.254602 C 16.85197,23.307808 16.35011,23.492188 16.09375,23.723352 C 16.08776,23.743061 16.06444,23.76664 16.0625,23.785852 C 16.03566,24.051708 16.4037,24.245662 17.03125,24.348352 C 16.76918,24.237626 16.66119,24.084933 16.78125,23.879602 C 16.80943,23.831412 16.86133,23.796291 16.90625,23.754602 C 16.91479,23.721202 16.91666,23.696494 16.9375,23.660852 C 17.03241,23.498542 17.2063,23.336773 17.46875,23.254602 z M 19.25,23.410852 C 19.25,23.410852 19.21875,23.442102 19.21875,23.442102 C 19.10638,23.523021 19.10747,23.543636 19.09375,23.567102 C 19.08089,23.589102 19.08418,23.608687 19.09375,23.629602 C 19.12245,23.692345 19.24447,23.743887 19.40625,23.754602 C 19.55922,23.764733 19.6757,23.708795 19.78125,23.660852 C 19.71885,23.563725 19.51426,23.482007 19.25,23.410852 z M 18.90625,24.285852 C 18.86026,24.303542 18.82452,24.301892 18.78125,24.317102 C 18.78125,24.317102 18.4375,24.910852 18.4375,24.910852 C 18.4375,24.910852 18.40706,24.910902 18.40625,24.910852 C 18.34771,25.010972 18.28125,25.129602 18.28125,25.129602 C 18.41625,25.138542 18.67554,25.160062 18.6875,25.160852 C 18.68842,25.160912 18.71875,25.160852 18.71875,25.160852 C 18.88432,24.877682 19.1875,24.348352 19.1875,24.348352 C 19.1875,24.348352 18.90625,24.285852 18.90625,24.285852 z M 24.3125,24.442102 C 24.26459,24.445382 24.23002,24.463532 24.1875,24.473352 C 24.32862,24.528982 24.36532,24.548562 24.375,24.598352 C 24.38583,24.654102 24.30352,24.732562 24.1875,24.785852 C 24.2127,24.803792 24.21391,24.792212 24.21875,24.817102 C 24.22958,24.872852 24.14727,24.951312 24.03125,25.004602 C 24.39674,24.927172 24.68085,24.789592 24.84375,24.660852 C 24.84347,24.651512 24.84557,24.638932 24.84375,24.629602 C 24.81643,24.489022 24.58397,24.423532 24.3125,24.442102 z M 15.90625,24.973352 C 15.90625,24.973352 15.84976,25.027792 15.8125,25.067102 C 15.89084,25.072292 16,25.098352 16,25.098352 C 16.17842,25.015712 16.27012,25.012352 16.625,25.035852 C 16.32035,25.015672 15.90625,24.973352 15.90625,24.973352 z "
       id="path4494" />
    <path
       style="opacity:0.5;fill:url(#linearGradient4520);fill-opacity:1;fill-rule:nonzero;stroke:none;stroke-width:1;stroke-linecap:round;stroke-linejoin:round;stroke-miterlimit:4;stroke-dasharray:none;stroke-opacity:1"
       d="M 0.65625,18.098352 C 0.65147,18.162011 0.625,18.22191 0.625,18.285852 C 0.62966,18.305729 0.620039,18.328515 0.625,18.348352 C 0.666798,18.515501 0.718485,18.684163 0.78125,18.848352 C 0.78125,18.822858 0.78125,18.811176 0.78125,18.785852 C 0.72536,18.562369 0.67304,18.326588 0.65625,18.098352 z M 39.5625,18.098352 C 39.5457,18.326588 39.49324,18.562369 39.4375,18.785852 C 39.4375,18.811173 39.4375,18.822862 39.4375,18.848352 C 39.500085,18.684163 39.55206,18.515501 39.59375,18.348352 C 39.59375,18.335266 39.59375,18.296982 39.59375,18.285852 C 39.59375,18.222103 39.56598,18.161969 39.5625,18.098352 z M 0.90625,21.535852 C 2.388812,25.707822 10.422775,28.910852 20.125,28.910852 C 29.827225,28.910852 37.834904,25.707822 39.3125,21.535852 C 38.517569,23.242447 36.644365,24.784572 34,25.973352 C 33.948444,25.997322 33.895912,26.012152 33.84375,26.035852 C 33.673565,26.110752 33.488634,26.182502 33.3125,26.254602 C 33.01605,26.379592 32.719787,26.481882 32.40625,26.598352 C 31.931287,26.770372 31.447338,26.946482 30.9375,27.098352 C 30.46385,27.242392 29.971089,27.379532 29.46875,27.504602 C 28.35637,27.776352 27.197833,27.988902 25.96875,28.160852 C 24.125704,28.423802 22.16202,28.598352 20.125,28.598352 C 18.087982,28.598352 16.126138,28.423802 14.28125,28.160852 C 13.709142,28.080892 13.142265,28.013082 12.59375,27.910852 C 12.550651,27.902652 12.511689,27.887932 12.46875,27.879602 C 11.93423,27.778052 11.415492,27.657482 10.90625,27.535852 C 10.853532,27.522982 10.802421,27.517692 10.75,27.504602 C 10.246537,27.381792 9.788291,27.239782 9.3125,27.098352 C 9.26104,27.082732 9.207357,27.082942 9.15625,27.067102 C 8.69702,26.927842 8.243085,26.754062 7.8125,26.598352 C 7.748507,26.574632 7.6883,26.559932 7.625,26.535852 C 7.377525,26.444212 7.143374,26.351472 6.90625,26.254602 C 6.728919,26.179992 6.545983,26.113372 6.375,26.035852 C 5.951826,25.850012 5.572119,25.644312 5.1875,25.442102 C 3.092586,24.340702 1.592652,23.004623 0.90625,21.535852 z "
       id="path4496" />
    <path
       style="opacity:0.5;fill:url(#linearGradient4522);fill-opacity:1;fill-rule:nonzero;stroke:none;stroke-width:1;stroke-linecap:round;stroke-linejoin:round;stroke-miterlimit:4;stroke-dasharray:none;stroke-opacity:1"
       d="M 0.625,18.348352 C 0.625,18.727862 0.625,19.875164 0.625,20.160852 C 0.625,20.906895 0.853932,21.629668 1.25,22.317102 C 1.107349,22.064469 0.99891,21.7966 0.90625,21.535852 C 1.435041,22.667365 2.449243,23.70222 3.84375,24.629602 L 3.84375,22.535852 C 2.216777,21.433143 1.136712,20.156141 0.78125,18.785852 C 0.769894,18.754733 0.760586,18.72345 0.75,18.692102 C 0.710808,18.576047 0.654161,18.464967 0.625,18.348352 z M 1.25,22.317102 C 1.39348,22.566132 1.559416,22.795958 1.75,23.035852 C 1.559743,22.792425 1.392651,22.569735 1.25,22.317102 z M 1.75,23.035852 C 1.944723,23.280956 2.165088,23.519847 2.40625,23.754602 C 2.170771,23.521472 1.940257,23.279279 1.75,23.035852 z "
       id="path4498" />
    <path
       style="opacity:0.5;fill:url(#linearGradient4524);fill-opacity:1;fill-rule:nonzero;stroke:none;stroke-width:1;stroke-linecap:round;stroke-linejoin:round;stroke-miterlimit:4;stroke-dasharray:none;stroke-opacity:1"
       d="M 39.59375,18.348352 C 39.559148,18.487083 39.486458,18.617209 39.4375,18.754602 C 39.435063,18.764481 39.439953,18.776019 39.4375,18.785852 C 39.248904,19.503939 38.863981,20.193431 38.3125,20.848352 L 38.3125,23.004602 C 38.7313,22.531323 39.076197,22.043159 39.3125,21.535852 C 39.476258,21.087181 39.59375,20.630974 39.59375,20.160852 C 39.59375,19.874883 39.59375,18.727844 39.59375,18.348352 z M 39.3125,21.535852 C 39.245899,21.723898 39.155192,21.914447 39.0625,22.098352 C 39.159869,21.910956 39.242514,21.727602 39.3125,21.535852 z M 38.46875,23.035852 C 38.425734,23.091062 38.357883,23.1374 38.3125,23.192102 L 38.3125,23.254602 C 38.372001,23.184114 38.412999,23.107126 38.46875,23.035852 z "
       id="path4500" />
    <path
       style="opacity:0.75;fill:url(#radialGradient4526);fill-opacity:1;fill-rule:nonzero;stroke:none;stroke-width:0.30000001;stroke-linecap:round;stroke-linejoin:round;stroke-miterlimit:4;stroke-dasharray:none;stroke-opacity:1"
       d="M 20.90625,10.098348 C 20.90625,10.098348 20.86093,10.240788 20.84375,10.317098 C 20.86993,10.318767 21.11775,10.337898 21.28125,10.348348 C 21.85315,10.384908 22.8125,10.442098 22.8125,10.442098 C 22.9851,10.453129 23.10561,10.482548 23.1875,10.473348 C 23.26939,10.464148 23.30439,10.418729 23.375,10.379598 C 23.375,10.379598 23.65625,10.410848 23.65625,10.410848 C 23.71197,10.316367 23.78125,10.192098 23.78125,10.192098 C 23.78125,10.192098 23.53125,10.160848 23.53125,10.160848 C 23.39004,10.239108 23.31395,10.245419 22.96875,10.223348 C 22.96875,10.223347 20.90625,10.098348 20.90625,10.098348 z M 17.1875,10.160848 C 16.975667,10.148808 16.76953,10.175278 16.53125,10.192098 C 15.747057,10.247457 15.170941,10.468518 15.1875,10.723348 C 15.330782,10.611429 15.582885,10.535539 15.90625,10.473348 C 15.921497,10.466058 15.920252,10.449078 15.9375,10.442098 C 16.084112,10.382798 16.28966,10.334158 16.53125,10.317098 C 16.902996,10.290847 17.230952,10.33762 17.4375,10.442098 C 17.457123,10.452028 17.482559,10.462458 17.5,10.473348 C 17.898459,10.545258 18.183861,10.642758 18.28125,10.817098 C 18.327741,10.900327 18.328331,11.003608 18.28125,11.098349 C 18.472356,10.924238 18.516363,10.739528 18.4375,10.598348 C 18.30519,10.361498 17.823002,10.196967 17.1875,10.160848 z M 21.125,10.567098 C 21.125,10.567098 21,11.129599 21,11.129599 C 21.36599,10.970739 21.64594,10.913469 22.09375,10.942098 C 22.38964,10.961018 22.63483,11.05616 22.8125,11.129599 C 22.84035,11.134909 22.87941,11.123838 22.90625,11.129599 C 23.5077,11.258599 23.84407,11.475629 23.78125,11.754599 C 23.84819,11.691239 23.92027,11.612359 23.9375,11.535849 C 24.02126,11.163889 23.38352,10.881568 22.375,10.817098 C 21.92151,10.788108 21.58498,10.805918 21.15625,10.910848 C 21.15625,10.910848 21.18258,10.727738 21.21875,10.567098 C 21.2117,10.566648 21.125,10.567098 21.125,10.567098 z M 15.78125,10.660848 C 15.634639,10.720148 15.556609,10.781857 15.59375,10.848348 C 15.620057,10.895438 15.659316,10.920818 15.8125,10.973349 C 15.829373,10.979419 15.828656,10.997048 15.84375,11.004599 C 16.004993,10.978519 16.131981,10.916787 16.09375,10.848348 C 16.078274,10.820648 16.029009,10.776258 15.96875,10.754598 C 15.857985,10.716609 15.839827,10.686777 15.8125,10.660848 C 15.808431,10.656988 15.784606,10.665057 15.78125,10.660848 z M 17.46875,11.129599 C 17.401638,11.195929 17.320112,11.27424 17.21875,11.348349 C 16.894867,11.581419 16.589826,11.763659 15.875,12.03585 C 15.875001,12.035851 15.905405,12.103389 15.9375,12.16085 C 16.471955,11.94834 16.813553,11.768729 17.09375,11.567099 C 17.326884,11.396658 17.413226,11.26444 17.46875,11.129599 z M 18.9375,11.442099 C 18.937501,11.442099 18.90625,11.504599 18.90625,11.504599 C 18.880165,11.562589 18.848824,11.622918 18.8125,11.660849 C 18.812501,11.660849 19.062499,11.660849 19.0625,11.660849 C 19.0625,11.660849 19.039036,11.824799 19.03125,11.97335 C 19.045507,11.97234 19.1875,11.97335 19.1875,11.97335 C 19.187502,11.97335 19.21875,11.442099 19.21875,11.442099 C 19.218749,11.442099 18.9375,11.442099 18.9375,11.442099 z M 18.8125,11.660849 C 18.703525,11.774629 18.545487,11.785208 18.09375,11.817099 C 18.093751,11.8171 17.437971,11.879929 17,11.910849 C 16.832275,11.98316 16.773294,12.02916 16.4375,12.16085 C 16.4375,12.16085 17.937502,12.0671 17.9375,12.0671 C 18.539817,12.02458 18.67691,11.955309 18.78125,11.723349 C 18.78125,11.723349 18.812501,11.660849 18.8125,11.660849 z M 20.78125,11.442099 C 20.55112,11.427389 20.33438,11.5012 20.3125,11.598349 C 20.30277,11.641549 20.33665,11.681669 20.375,11.723349 C 20.44853,11.70568 20.53206,11.654909 20.625,11.660849 C 20.83483,11.674259 20.9875,11.76507 20.96875,11.848349 C 20.96375,11.870559 20.98529,11.865498 20.90625,11.9421 C 21.1679,12.01024 21.49935,12.074331 21.875,12.09835 C 22.14629,12.115689 22.3933,12.114411 22.625,12.09835 C 22.63376,12.094891 22.64777,12.101961 22.65625,12.09835 C 22.8385,12.02084 22.96909,11.89186 23,11.754599 C 22.78438,11.936029 22.34473,12.00937 21.78125,11.97335 C 21.34129,11.94522 21.01,11.848979 21.03125,11.754599 C 21.03125,11.754599 21.03125,11.723349 21.03125,11.723349 C 21.1103,11.646749 21.12,11.651809 21.125,11.629599 C 21.14375,11.54632 20.99108,11.455509 20.78125,11.442099 z M 20.4375,12.2546 C 15.456223,12.2546 11.194064,13.559634 9.28125,15.410852 C 11.274434,13.650748 15.449374,12.47335 20.28125,12.47335 C 27.04753,12.47335 32.53125,14.840812 32.53125,17.785852 C 32.53125,18.168762 32.4339,18.551602 32.25,18.910852 C 32.51878,18.478022 32.6875,18.036702 32.6875,17.567102 C 32.6875,14.622072 27.20378,12.2546 20.4375,12.2546 z M 20.1875,13.254601 C 19.780439,13.253361 19.360325,13.291011 19,13.379601 C 19,13.379601 19.187956,13.458351 19.375,13.535851 C 19.887438,13.472971 20.41175,13.509021 20.90625,13.598351 C 21.12522,13.507631 21.34375,13.410851 21.34375,13.410851 C 20.98536,13.320221 20.59456,13.255841 20.1875,13.254601 z M 18.21875,13.723351 C 18.072294,13.825601 17.982163,13.952842 17.9375,14.067102 C 17.977381,14.027642 18.009044,13.979422 18.0625,13.942102 C 18.0625,13.942102 18.843748,14.285852 18.84375,14.285852 C 18.797617,14.346852 18.769124,14.410212 18.78125,14.473352 C 18.87162,14.435912 19,14.379602 19,14.379602 C 18.913725,14.276352 18.921302,14.139912 19,14.035852 C 19.000002,14.035852 18.21875,13.723351 18.21875,13.723351 z M 22.125,13.723351 C 22.125,13.723351 21.34375,14.067102 21.34375,14.067102 C 21.37676,14.114902 21.37572,14.174312 21.375,14.223352 C 21.59464,14.132352 21.96875,13.973352 21.96875,13.973352 C 22.21151,14.148192 22.29887,14.340582 22.25,14.535852 C 22.49852,14.271872 22.47128,13.972752 22.125,13.723351 z M 19.8125,14.692102 C 19.812499,14.692102 19.03125,15.035852 19.03125,15.035852 C 19.109446,15.054492 19.19926,15.052592 19.28125,15.067102 C 19.478256,14.985482 19.6875,14.910852 19.6875,14.910852 C 19.918241,14.938212 20.14556,14.940492 20.375,14.910852 C 20.375,14.910852 20.62146,15.006252 20.84375,15.098352 C 21.01131,15.076972 21.15846,15.042472 21.3125,15.004602 C 21.3125,15.004602 20.53125,14.692102 20.53125,14.692102 C 20.30181,14.721752 20.04324,14.719462 19.8125,14.692102 z M 20.3125,15.723352 C 18.496438,15.723352 16.970941,16.271452 16.5,17.004602 C 16.855888,16.634202 17.511813,16.349662 18.3125,16.160852 C 18.504184,16.115652 18.697497,16.066852 18.90625,16.035852 C 19.11305,16.005142 19.310877,15.988682 19.53125,15.973352 C 19.727356,15.957312 19.949797,15.944282 20.15625,15.942102 C 20.43007,15.942102 20.71049,15.949912 20.96875,15.973352 C 21.00044,15.976082 21.03115,15.970282 21.0625,15.973352 C 21.27989,15.994662 21.4889,16.030172 21.6875,16.067102 C 21.94054,16.114152 22.16026,16.185522 22.375,16.254602 C 22.4743,16.286542 22.59776,16.312282 22.6875,16.348352 C 22.6998,16.352882 22.70658,16.375012 22.71875,16.379602 C 22.85354,16.430462 22.97544,16.477612 23.09375,16.535852 C 23.7241,16.846132 24.125,17.245572 24.125,17.692102 C 24.125,17.812272 24.08415,17.922282 24.03125,18.035852 C 24.17198,17.856852 24.28125,17.672702 24.28125,17.473352 C 24.28125,16.511952 22.50302,15.723352 20.3125,15.723352 z M 6.28125,15.754602 C 5.436551,15.731352 4.770466,15.972972 4.5625,16.348352 C 4.872694,16.096332 5.449934,15.954772 6.125,15.973352 C 7.092398,15.999972 7.638635,16.331362 7.5,16.785852 C 7.556261,16.719132 7.628527,16.643022 7.65625,16.567102 C 7.827565,16.097972 7.268663,15.781772 6.28125,15.754602 z M 37,15.817102 C 36.84407,15.807642 36.70235,15.820212 36.53125,15.848352 C 36.20918,15.901322 35.98282,16.024492 36,16.129602 C 36.00298,16.147862 36.04459,16.146602 36.0625,16.160852 C 36.14985,16.124912 36.25139,16.087432 36.375,16.067102 C 36.5461,16.038962 36.71907,16.026392 36.875,16.035852 C 37.14988,15.990642 37.43524,16.100262 37.53125,16.254602 C 37.63741,16.331212 37.73223,16.427142 37.75,16.535852 C 37.75814,16.585642 37.75886,16.612332 37.75,16.660852 C 37.83934,16.543662 37.92761,16.447802 37.90625,16.317102 C 37.86184,16.045342 37.4678,15.845472 37,15.817102 z M 2.96875,15.848352 C 2.968751,15.848352 2.9375,15.942102 2.9375,15.942102 C 3.079824,15.984322 3.100942,16.025532 3.09375,16.098352 C 3.322288,16.118862 3.59375,16.129602 3.59375,16.129602 C 3.59375,16.129602 3.322418,16.923112 3.28125,17.035852 C 3.693458,17.047192 4.034152,17.053422 4.53125,17.067102 C 4.46634,17.015602 4.405551,16.959252 4.375,16.910852 C 3.985338,16.900132 3.40625,16.879602 3.40625,16.879602 C 3.406251,16.879602 3.75,15.910852 3.75,15.910852 C 3.749999,15.910852 2.96875,15.848352 2.96875,15.848352 z M 2,15.942102 C 1.673336,16.530472 1.46875,17.123902 1.46875,17.754602 C 1.46875,22.135642 9.810467,25.692102 20.09375,25.692102 C 27.48963,25.692102 33.84154,23.825642 36.84375,21.160852 C 33.75838,23.727152 27.48043,25.473352 20.25,25.473352 C 9.966717,25.473352 1.625,21.916892 1.625,17.535852 C 1.625,16.988222 1.751822,16.458632 2,15.942102 z M 33.59375,16.317102 C 33.59375,16.317102 33.125,16.379602 33.125,16.379602 C 33.125,16.379602 33.14656,16.539042 33.15625,16.598352 C 33.29181,16.576052 33.4375,16.535852 33.4375,16.535852 C 33.54612,16.585752 33.62352,16.620642 33.71875,16.660852 C 33.71698,16.650012 33.71875,16.598352 33.71875,16.598352 C 34.27579,16.844742 34.48399,16.914312 34.78125,17.004602 C 34.81573,17.011842 34.83902,17.028792 34.875,17.035852 C 35.53655,17.162792 36.08379,17.150972 36.59375,17.067102 C 37.04228,16.993332 37.3124,16.846042 37.375,16.660852 C 37.22889,16.752342 37.01504,16.804762 36.75,16.848352 C 36.24004,16.932232 35.6928,16.912792 35.03125,16.785852 C 34.51158,16.683862 34.16738,16.580642 33.59375,16.317102 z M 9.125,16.504602 C 8.892221,16.893732 8.75,17.302792 8.75,17.723352 C 8.75,20.440032 13.912883,22.629602 20.28125,22.629602 C 25.2389,22.629602 29.43557,21.280312 31.0625,19.410852 C 29.32531,21.183222 25.23133,22.410852 20.4375,22.410852 C 14.069133,22.410852 8.90625,20.221282 8.90625,17.504602 C 8.90625,17.165022 8.971389,16.824472 9.125,16.504602 z M 4.84375,16.535852 C 4.765646,16.593552 4.714684,16.648912 4.6875,16.723352 C 4.673549,16.761552 4.685804,16.815392 4.6875,16.848352 C 4.688739,16.872442 4.708316,16.888702 4.71875,16.910852 C 4.749219,16.975532 4.848038,17.038032 4.96875,17.098352 C 5.004939,17.099352 5.1875,17.098352 5.1875,17.098352 C 5.187502,17.098352 5.3125,16.973352 5.3125,16.973352 C 4.926074,16.829712 4.800361,16.706312 4.84375,16.535852 z M 12.125,16.598352 C 11.717939,16.597112 11.329074,16.634762 10.96875,16.723352 C 10.96875,16.723352 11.132949,16.786912 11.28125,16.848352 C 11.80239,16.780592 12.369855,16.819912 12.875,16.910852 C 13.091776,16.821042 13.3125,16.723352 13.3125,16.723352 C 12.954114,16.632722 12.532061,16.599592 12.125,16.598352 z M 28.28125,16.629602 C 27.87419,16.628362 27.45407,16.666012 27.09375,16.754602 C 27.09375,16.754602 27.27622,16.812782 27.4375,16.879602 C 27.9701,16.810352 28.54919,16.845602 29.0625,16.942102 C 29.26217,16.859382 29.46875,16.754602 29.46875,16.754602 C 29.11036,16.663972 28.68831,16.630842 28.28125,16.629602 z M 7.1875,16.817102 C 7.080511,16.900492 6.951812,16.945932 6.8125,16.942102 C 6.8125,16.942102 6.71875,16.942102 6.71875,16.942102 C 6.533186,16.911462 6.55374,16.912332 6.5,16.910852 C 6.298488,16.905302 6.094299,16.948772 6.0625,17.035852 C 6.045063,17.083612 6.058198,17.127802 6.125,17.160852 C 6.193707,17.143292 6.265111,17.127432 6.34375,17.129602 C 6.39749,17.131082 6.376937,17.130212 6.5625,17.160852 C 6.5625,17.160852 6.65625,17.160852 6.65625,17.160852 C 6.88463,17.167132 7.120819,17.030952 7.1875,16.848352 C 7.191567,16.837212 7.184795,16.827992 7.1875,16.817102 z M 33.5625,16.848352 C 33.5625,16.848352 33.6875,17.473352 33.6875,17.473352 C 33.70807,17.599212 33.74518,17.647602 33.84375,17.692102 C 33.85853,17.691252 33.85992,17.692972 33.875,17.692102 C 34.23764,17.671192 34.625,17.660852 34.625,17.660852 C 34.625,17.660852 34.65625,17.535852 34.65625,17.535852 C 34.65625,17.535852 34.5,17.535852 34.5,17.535852 C 33.96125,17.527892 33.85364,17.475062 33.8125,17.223352 C 33.8125,17.223352 33.80396,17.081022 33.78125,16.942102 C 33.69246,16.903962 33.67895,16.899862 33.5625,16.848352 z M 10.15625,17.067102 C 10.009793,17.169352 9.950913,17.265342 9.90625,17.379602 C 9.942095,17.346012 9.95418,17.317842 10,17.285852 C 10,17.285852 10.812501,17.598352 10.8125,17.598352 C 10.767249,17.658192 10.739158,17.723902 10.75,17.785852 C 10.838352,17.749242 10.96875,17.692102 10.96875,17.692102 C 10.882474,17.588852 10.858802,17.483662 10.9375,17.379602 C 10.937501,17.379602 10.15625,17.067102 10.15625,17.067102 z M 14.09375,17.067102 C 14.093749,17.067102 13.28125,17.410852 13.28125,17.410852 C 13.314265,17.458652 13.344467,17.486812 13.34375,17.535852 C 13.567076,17.443322 13.9375,17.285852 13.9375,17.285852 C 14.205506,17.478882 14.275152,17.696862 14.1875,17.910852 C 14.480813,17.637722 14.457672,17.329212 14.09375,17.067102 z M 26.3125,17.098352 C 26.16471,17.201532 26.07538,17.295502 26.03125,17.410852 C 26.06945,17.373942 26.1061,17.352112 26.15625,17.317102 C 26.15625,17.317102 26.9375,17.629602 26.9375,17.629602 C 26.89137,17.690602 26.89412,17.753962 26.90625,17.817102 C 26.98999,17.782402 27.125,17.723352 27.125,17.723352 C 27.03872,17.620102 27.01505,17.514912 27.09375,17.410852 C 27.09375,17.410852 26.3125,17.098352 26.3125,17.098352 z M 30.25,17.098352 C 30.25,17.098352 29.4375,17.410852 29.4375,17.410852 C 29.47052,17.458652 29.50072,17.518062 29.5,17.567102 C 29.72993,17.471842 30.09375,17.317102 30.09375,17.317102 C 30.35059,17.502082 30.41346,17.705012 30.34375,17.910852 C 30.6102,17.643022 30.60349,17.352942 30.25,17.098352 z M 6.0625,17.692102 C 6.0625,17.692102 6.03125,17.817102 6.03125,17.817102 C 6.031248,17.817102 6.1875,17.817102 6.1875,17.817102 C 6.468203,17.835662 6.636734,17.862062 6.75,17.910852 C 6.96442,17.910472 7.218749,17.910852 7.21875,17.910852 C 7.21875,17.910852 7.55997,18.733102 7.6875,19.035852 C 7.796557,19.024262 7.90625,19.004602 7.90625,19.004602 C 7.906251,19.004602 7.375,17.692102 7.375,17.692102 C 7.375002,17.692102 6.0625,17.692102 6.0625,17.692102 z M 4.46875,18.004602 C 4.312338,18.000542 4.14232,18.020732 4,18.035852 C 3.454096,18.093852 3.107924,18.290012 3,18.535852 C 3.181148,18.392822 3.49325,18.295162 3.875,18.254602 C 4.363457,18.202712 4.941781,18.297792 5.59375,18.473352 C 5.680655,18.490162 5.751622,18.484082 5.84375,18.504602 C 5.867472,18.511852 5.88233,18.528322 5.90625,18.535852 C 6.309616,18.630042 6.650241,18.745002 7.0625,18.910852 C 7.036663,18.849522 7.020009,18.782532 6.96875,18.660852 C 6.614571,18.514952 6.313632,18.396282 6.0625,18.317102 C 5.469559,18.130382 4.937985,18.016782 4.46875,18.004602 z M 12.5,18.004602 C 12.270558,18.034252 12.011991,18.063212 11.78125,18.035852 C 11.781248,18.035852 11,18.348352 11,18.348352 C 11.094513,18.370882 11.18134,18.394362 11.28125,18.410852 C 11.458465,18.337432 11.624999,18.254602 11.625,18.254602 C 11.855741,18.281962 12.114304,18.284252 12.34375,18.254602 C 12.34375,18.254602 12.560712,18.350732 12.78125,18.442102 C 12.952153,18.420642 13.124313,18.386932 13.28125,18.348352 C 13.28125,18.348352 12.5,18.004602 12.5,18.004602 z M 27.9375,18.035852 C 27.9375,18.035852 27.125,18.379602 27.125,18.379602 C 27.21437,18.400902 27.31202,18.426202 27.40625,18.442102 C 27.59183,18.365212 27.78125,18.285852 27.78125,18.285852 C 28.01199,18.313212 28.23931,18.315492 28.46875,18.285852 C 28.46875,18.285852 28.71328,18.380452 28.9375,18.473352 C 29.1084,18.451892 29.28056,18.418182 29.4375,18.379602 C 29.4375,18.379602 28.625,18.035852 28.625,18.035852 C 28.39555,18.065502 28.16824,18.063212 27.9375,18.035852 z M 39.5625,18.129602 C 39.51819,18.661522 39.37707,19.189552 39.125,19.692102 C 39.32517,19.341522 39.49337,18.995412 39.59375,18.629602 C 39.59375,18.51859 39.59375,18.347064 39.59375,18.285852 C 39.59375,18.232442 39.57087,18.182112 39.5625,18.129602 z M 34.15625,18.160852 C 33.616,18.175222 33.01124,18.506522 32.78125,18.910852 C 32.76056,18.947232 32.76272,18.970142 32.75,19.004602 C 33.02364,18.666672 33.52309,18.392292 34,18.379602 C 34.11391,18.376572 34.22418,18.411412 34.28125,18.442102 C 34.36594,18.408742 34.44254,18.363182 34.46875,18.317102 C 34.52625,18.216022 34.38407,18.154792 34.15625,18.160852 z M 37.65625,18.192102 C 37.65625,18.192102 35.3125,18.254602 35.3125,18.254602 C 35.3125,18.254602 35.1875,18.379602 35.1875,18.379602 C 35.27864,18.413782 35.34893,18.440472 35.40625,18.473352 C 35.47164,18.471612 35.62006,18.445562 35.75,18.442102 C 35.73683,18.430232 35.73381,18.423072 35.71875,18.410852 C 35.71875,18.410852 37,18.379602 37,18.379602 C 37,18.379602 36.97028,18.408162 36.96875,18.410852 C 37.15421,18.405922 37.5,18.410852 37.5,18.410852 C 37.5517,18.319952 37.65625,18.192102 37.65625,18.192102 z M 35.5625,18.629602 C 35.71712,18.755052 35.78025,18.875882 35.75,19.004602 C 35.77609,18.971312 35.82391,18.945732 35.84375,18.910852 C 35.90868,18.796712 35.87857,18.718622 35.84375,18.629602 C 35.74593,18.632202 35.5625,18.629602 35.5625,18.629602 z M 3.3125,18.754602 C 3.183199,18.835922 3.109207,18.955422 3.15625,19.067102 C 3.168893,19.077502 3.17383,19.088352 3.1875,19.098352 C 3.382782,19.241142 3.702761,19.312902 4.03125,19.348352 C 4.08724,19.336082 4.134291,19.328972 4.21875,19.285852 C 4.270995,19.260382 4.370525,19.230472 4.4375,19.223352 C 4.567111,19.209582 4.665751,19.243942 4.75,19.285852 C 4.920985,19.236062 5.030777,19.202662 5,19.129602 C 4.965578,19.047892 4.781272,18.984682 4.59375,19.004602 C 4.526775,19.011722 4.427245,19.041632 4.375,19.067102 C 4.248312,19.131782 4.207605,19.148752 4.09375,19.160852 C 3.772278,19.195002 3.396258,19.015942 3.3125,18.817102 C 3.303091,18.794772 3.314197,18.776092 3.3125,18.754602 z M 33.0625,18.942102 C 33.02505,18.980332 32.9928,19.024832 32.96875,19.067102 C 32.78104,19.397112 33.12646,19.618272 33.875,19.598352 C 34.60402,19.578962 35.1645,19.350992 35.34375,19.035852 C 35.36387,19.000472 35.36749,18.972572 35.375,18.942102 C 35.12569,19.179782 34.64877,19.363172 34.03125,19.379602 C 33.36505,19.397322 33.00095,19.209602 33.0625,18.942102 z M 37.125,19.098352 C 37.07922,19.178842 37,19.317102 37,19.317102 C 36.97472,19.361542 36.97558,19.383202 36.96875,19.410852 C 37.0429,19.413872 37.15625,19.410852 37.15625,19.410852 C 37.15625,19.410852 37.21875,19.317102 37.21875,19.317102 C 37.06388,19.273582 37.06468,19.216182 37.125,19.098352 z M 20.25,19.910852 C 19.822586,19.909552 19.37834,19.942832 19,20.035852 C 18.999999,20.035852 19.177495,20.123222 19.34375,20.192102 C 19.904624,20.115592 20.48692,20.123492 21.03125,20.223352 C 21.25304,20.131462 21.46875,20.035852 21.46875,20.035852 C 21.09244,19.940692 20.67741,19.912152 20.25,19.910852 z M 18.15625,20.379602 C 17.981918,20.501312 17.912001,20.649082 17.875,20.785852 C 17.922892,20.733492 17.961088,20.678592 18.03125,20.629602 C 18.03125,20.629602 18.84375,20.973352 18.84375,20.973352 C 18.792712,21.040842 18.795767,21.091092 18.8125,21.160852 C 18.895892,21.126302 19.03125,21.067102 19.03125,21.067102 C 18.94066,20.958692 18.917367,20.832612 19,20.723352 C 19,20.723352 18.15625,20.379602 18.15625,20.379602 z M 22.28125,20.410852 C 22.28125,20.410852 21.46875,20.754602 21.46875,20.754602 C 21.50342,20.804792 21.50075,20.859362 21.5,20.910852 C 21.72304,20.818442 22.15625,20.629602 22.15625,20.629602 C 22.43766,20.832282 22.49829,21.061162 22.40625,21.285852 C 22.69443,21.002912 22.65573,20.680562 22.28125,20.410852 z M 19.875,21.410852 C 19.875001,21.410852 19.03125,21.754602 19.03125,21.754602 C 19.118718,21.775452 19.220549,21.769922 19.3125,21.785852 C 19.512511,21.702982 19.718749,21.629602 19.71875,21.629602 C 19.961028,21.658322 20.22783,21.660732 20.46875,21.629602 C 20.46875,21.629602 20.72553,21.747582 20.96875,21.848352 C 21.13671,21.826162 21.2827,21.792662 21.4375,21.754602 C 21.4375,21.754602 20.625,21.410852 20.625,21.410852 C 20.38408,21.441982 20.11728,21.439572 19.875,21.410852 z M 24.75,22.942102 C 24.75,22.942102 21.28125,23.160852 21.28125,23.160852 C 21.28125,23.160852 21.23502,23.296082 21.1875,23.410852 C 21.30755,23.402642 24.59375,23.160852 24.59375,23.160852 C 24.59375,23.160852 24.59241,23.185192 24.59375,23.192102 C 24.66564,23.167402 24.70207,23.156152 24.78125,23.129602 C 24.78125,23.129602 24.75,22.942102 24.75,22.942102 z M 17.6875,23.035852 C 16.911168,23.092842 16.314094,23.306202 16.125,23.629602 C 16.108159,23.658402 16.102243,23.695432 16.09375,23.723352 C 16.350111,23.492192 16.851972,23.307812 17.46875,23.254602 C 17.487956,23.248592 17.51133,23.260132 17.53125,23.254602 C 17.804845,23.178622 18.157703,23.167362 18.53125,23.192102 C 18.983552,23.222052 19.308312,23.311122 19.25,23.410852 C 19.514264,23.482012 19.718846,23.563722 19.78125,23.660852 C 19.838951,23.634642 19.916284,23.634642 19.9375,23.598352 C 20.07986,23.354892 19.44635,23.098522 18.5,23.035852 C 18.209483,23.016612 17.946277,23.016852 17.6875,23.035852 z M 23.84375,23.442102 C 23.84375,23.442102 23.55597,23.458832 23.34375,23.473352 C 23.12384,23.554962 22.79607,23.679192 22.625,23.754602 C 22.00832,24.026702 21.66042,24.260462 21.5625,24.473352 C 21.74133,24.315362 22.04889,24.158612 22.46875,23.973352 C 22.79547,23.829322 23.0363,23.719912 23.84375,23.442102 z M 16.90625,23.754602 C 16.861328,23.796292 16.809427,23.831412 16.78125,23.879602 C 16.66119,24.084932 16.769183,24.237622 17.03125,24.348352 C 17.170854,24.371192 17.303659,24.399922 17.46875,24.410852 C 17.934966,24.441732 18.290087,24.427782 18.78125,24.317102 C 18.824516,24.301892 18.860264,24.303542 18.90625,24.285852 C 18.90625,24.285852 19.1875,24.348352 19.1875,24.348352 C 19.234827,24.267412 19.34375,24.129602 19.34375,24.129602 C 19.34375,24.129602 19.0625,24.067102 19.0625,24.067102 C 18.596228,24.246462 18.285677,24.285932 17.8125,24.254602 C 17.154924,24.211052 16.836078,24.029062 16.90625,23.754602 z M 24.46875,24.192102 C 24.25442,24.206762 24.07781,24.297592 24.09375,24.379602 C 24.09945,24.408892 24.13237,24.450412 24.1875,24.473352 C 24.23002,24.463522 24.26459,24.445382 24.3125,24.442102 C 24.58397,24.423532 24.81643,24.489022 24.84375,24.629602 C 24.93716,24.552592 25.01593,24.492812 25,24.410852 C 24.97268,24.270272 24.74022,24.173532 24.46875,24.192102 z M 22.375,24.473352 C 22.2395,24.610522 22.19568,24.729672 22.21875,24.848352 C 22.23658,24.940102 22.31542,25.011182 22.4375,25.067102 C 22.71419,25.100072 23.01818,25.122762 23.375,25.098352 C 23.57465,25.084692 23.76174,25.069092 23.9375,25.035852 C 23.97411,25.022912 24.00098,25.018502 24.03125,25.004602 C 24.14727,24.951312 24.22959,24.872852 24.21875,24.817102 C 24.21391,24.792202 24.2127,24.803792 24.1875,24.785852 C 24.01095,24.866942 23.72096,24.920572 23.40625,24.942102 C 22.82043,24.982182 22.41997,24.860972 22.375,24.629602 C 22.36599,24.583232 22.36057,24.521782 22.375,24.473352 z M 16.0625,24.754602 C 16.062499,24.754602 15.71875,25.067102 15.71875,25.067102 C 15.718749,25.067102 15.774043,25.064552 15.8125,25.067102 C 15.849762,25.027792 15.90625,24.973352 15.90625,24.973352 C 15.90625,24.973352 16.320348,25.015672 16.625,25.035852 C 17.32563,25.082252 18.281251,25.129602 18.28125,25.129602 C 18.28125,25.129602 18.347708,25.010972 18.40625,24.910852 C 18.345517,24.906832 16.0625,24.754602 16.0625,24.754602 z "
       id="path4502" />
    <path
       style="opacity:0.5;fill:url(#linearGradient4530);fill-opacity:1;fill-rule:nonzero;stroke:none;stroke-width:1;stroke-linecap:round;stroke-linejoin:round;stroke-miterlimit:4;stroke-dasharray:none;stroke-opacity:1"
       id="path4506"
       d="M 20.09375,16.160852 C 18.183128,16.160852 16.625,16.781342 16.625,17.535852 C 16.625,17.890182 16.970621,18.199172 17.53125,18.442102 C 18.163997,18.170392 19.086014,18.004602 20.09375,18.004602 C 21.098475,18.004602 21.992509,18.171802 22.625,18.442102 C 23.189498,18.198852 23.53125,17.891552 23.53125,17.535852 C 23.53125,16.781342 22.004374,16.160852 20.09375,16.160852 z " />
    <path
       d="M 20.09375,16.160852 C 18.183128,16.160852 16.625,16.781342 16.625,17.535852 C 16.625,17.890182 16.970621,18.199172 17.53125,18.442102 C 18.163997,18.170392 19.086014,18.004602 20.09375,18.004602 C 21.098475,18.004602 21.992509,18.171802 22.625,18.442102 C 23.189498,18.198852 23.53125,17.891552 23.53125,17.535852 C 23.53125,16.781342 22.004374,16.160852 20.09375,16.160852 z "
       id="path4508"
       style="opacity:0.4;fill:url(#radialGradient4532);fill-opacity:1;fill-rule:nonzero;stroke:none;stroke-width:1;stroke-linecap:round;stroke-linejoin:round;stroke-miterlimit:4;stroke-dasharray:none;stroke-opacity:1" />
    <rect
       style="opacity:0.61162792;fill:#555753;fill-opacity:1;fill-rule:nonzero;stroke:none;stroke-width:0.69999999;stroke-linecap:round;stroke-linejoin:miter;stroke-miterlimit:4;stroke-dasharray:none;stroke-opacity:1"
       id="rect1951"
       width="40.001965"
       y="30"
       x="-0.0019644466"
       height="10.004759" />
    <text
       xml:space="preserve"
       style="font-size:12px;font-style:normal;font-weight:normal;fill:#eeeeec;fill-opacity:1;stroke:none;stroke-width:1px;stroke-linecap:butt;stroke-linejoin:miter;stroke-opacity:1;font-family:Bitstream Vera Sans"
       id="text2840"
       y="39.168152"
       x="13.913648"><tspan
         sodipodi:role="line"
         id="tspan2842"
         y="39.168152"
         x="13.913648">Ni</tspan></text>
  </g>
</svg>
