<?xml version="1.0" encoding="UTF-8" standalone="no"?>
<!-- Created with Inkscape (http://www.inkscape.org/) -->
<svg
   xmlns:dc="http://purl.org/dc/elements/1.1/"
   xmlns:cc="http://web.resource.org/cc/"
   xmlns:rdf="http://www.w3.org/1999/02/22-rdf-syntax-ns#"
   xmlns:svg="http://www.w3.org/2000/svg"
   xmlns="http://www.w3.org/2000/svg"
   xmlns:xlink="http://www.w3.org/1999/xlink"
   xmlns:sodipodi="http://sodipodi.sourceforge.net/DTD/sodipodi-0.dtd"
   xmlns:inkscape="http://www.inkscape.org/namespaces/inkscape"
   width="40"
   height="40"
   id="svg2193"
   sodipodi:version="0.32"
   inkscape:version="0.45.1"
   version="1.0"
   sodipodi:docbase="/home/jra/Desktop"
   sodipodi:docname="coppercoin.svg"
   inkscape:output_extension="org.inkscape.output.svg.inkscape">
  <sodipodi:namedview
     id="base"
     pagecolor="#ffffff"
     bordercolor="#666666"
     borderopacity="1.0"
     inkscape:pageopacity="0.0"
     inkscape:pageshadow="2"
     inkscape:zoom="14.625451"
     inkscape:cx="19.15625"
     inkscape:cy="19.782279"
     inkscape:current-layer="layer1"
     showgrid="false"
     inkscape:grid-bbox="true"
     inkscape:document-units="px"
     width="40px"
     height="40px"
     gridempspacing="2"
     inkscape:window-width="1167"
     inkscape:window-height="914"
     inkscape:window-x="52"
     inkscape:window-y="78" />
  <defs
     id="defs2195">
    <linearGradient
       id="linearGradient3981">
      <stop
         style="stop-color:#626262;stop-opacity:1;"
         offset="0"
         id="stop3983" />
      <stop
         style="stop-color:#000000;stop-opacity:0;"
         offset="1"
         id="stop3985" />
    </linearGradient>
    <linearGradient
       id="linearGradient3501">
      <stop
         style="stop-color:#000000;stop-opacity:1;"
         offset="0"
         id="stop3503" />
      <stop
         style="stop-color:#000000;stop-opacity:0;"
         offset="1"
         id="stop3505" />
    </linearGradient>
    <linearGradient
       id="linearGradient3910">
      <stop
         style="stop-color:#ffffff;stop-opacity:0.46103895;"
         offset="0"
         id="stop3912" />
      <stop
         id="stop3918"
         offset="0.5"
         style="stop-color:#ffffff;stop-opacity:1;" />
      <stop
         style="stop-color:#ffffff;stop-opacity:0.50649351;"
         offset="1"
         id="stop3914" />
    </linearGradient>
    <linearGradient
       id="linearGradient3845">
      <stop
         id="stop3847"
         offset="0"
         style="stop-color:#000000;stop-opacity:1;" />
      <stop
         style="stop-color:#000000;stop-opacity:0;"
         offset="0.5"
         id="stop3851" />
      <stop
         id="stop3849"
         offset="1"
         style="stop-color:#000000;stop-opacity:0.40909091;" />
    </linearGradient>
    <linearGradient
       id="linearGradient3827">
      <stop
         style="stop-color:#000000;stop-opacity:1;"
         offset="0"
         id="stop3829" />
      <stop
         id="stop3839"
         offset="0.25"
         style="stop-color:#ffffff;stop-opacity:1;" />
      <stop
         id="stop3835"
         offset="0.5"
         style="stop-color:#000000;stop-opacity:1;" />
      <stop
         style="stop-color:#000000;stop-opacity:1;"
         offset="0.75"
         id="stop3837" />
      <stop
         style="stop-color:#a6a6a6;stop-opacity:1;"
         offset="1"
         id="stop3831" />
    </linearGradient>
    <linearGradient
       id="linearGradient3239"
       inkscape:collect="always">
      <stop
         offset="0"
         style="stop-color:#eeeeec;stop-opacity:1;"
         id="stop3241" />
      <stop
         offset="1"
         style="stop-color:#eeeeec;stop-opacity:0;"
         id="stop3243" />
    </linearGradient>
    <linearGradient
       id="linearGradient3291">
      <stop
         offset="0"
         style="stop-color:#000000;stop-opacity:1;"
         id="stop3293" />
      <stop
         offset="1"
         style="stop-color:#000000;stop-opacity:0;"
         id="stop3295" />
    </linearGradient>
    <radialGradient
       inkscape:collect="always"
       xlink:href="#linearGradient3291"
       id="radialGradient4414"
       gradientUnits="userSpaceOnUse"
       gradientTransform="matrix(1,0,0,0.197802,0,92.82166)"
       cx="63.912209"
       cy="115.70919"
       fx="75.857941"
       fy="115.70919"
       r="63.912209" />
    <linearGradient
       inkscape:collect="always"
       xlink:href="#linearGradient3845"
       id="linearGradient4416"
       gradientUnits="userSpaceOnUse"
       x1="6.7807331"
       y1="11.486151"
       x2="37.554825"
       y2="24.236246" />
    <linearGradient
       inkscape:collect="always"
       xlink:href="#linearGradient3827"
       id="linearGradient4418"
       gradientUnits="userSpaceOnUse"
       gradientTransform="matrix(0.8476663,0,0,0.8476663,-98.64482,57.612455)"
       x1="120.625"
       y1="-40.75"
       x2="159.59375"
       y2="-40.75" />
    <radialGradient
       inkscape:collect="always"
       xlink:href="#linearGradient3981"
       id="radialGradient4420"
       gradientUnits="userSpaceOnUse"
       gradientTransform="matrix(-1.4808499,1.6581035e-2,-7.1863571e-3,-0.6418123,599.5656,31.186809)"
       cx="237.72618"
       cy="9.2338028"
       fx="237.72618"
       fy="9.2338028"
       r="19.0625" />
    <radialGradient
       inkscape:collect="always"
       xlink:href="#linearGradient3981"
       id="radialGradient4422"
       gradientUnits="userSpaceOnUse"
       gradientTransform="matrix(-1.4808499,1.6581035e-2,-7.1863571e-3,-0.6418123,599.5656,31.186809)"
       cx="236.2171"
       cy="9.1948166"
       fx="236.2171"
       fy="9.1948166"
       r="19.0625" />
    <radialGradient
       inkscape:collect="always"
       xlink:href="#linearGradient3981"
       id="radialGradient4424"
       gradientUnits="userSpaceOnUse"
       gradientTransform="matrix(-1.4808499,1.6581035e-2,-7.1863571e-3,-0.6418123,599.5656,31.186809)"
       cx="236.2171"
       cy="9.1948166"
       fx="236.2171"
       fy="9.1948166"
       r="19.0625" />
    <linearGradient
       inkscape:collect="always"
       xlink:href="#linearGradient3827"
       id="linearGradient4426"
       gradientUnits="userSpaceOnUse"
       gradientTransform="matrix(0.8476663,0,0,0.8476663,-47.784845,57.612455)"
       x1="63.3125"
       y1="-46.59375"
       x2="97.125"
       y2="-46.59375" />
    <linearGradient
       inkscape:collect="always"
       xlink:href="#linearGradient3910"
       id="linearGradient4428"
       gradientUnits="userSpaceOnUse"
       gradientTransform="matrix(0.8476663,0,0,0.8476663,-98.64482,57.612455)"
       x1="120.625"
       y1="-40.75"
       x2="159.59375"
       y2="-40.75" />
    <linearGradient
       inkscape:collect="always"
       xlink:href="#linearGradient3501"
       id="linearGradient4430"
       gradientUnits="userSpaceOnUse"
       gradientTransform="matrix(0.8476663,0,0,0.8476663,3.07514,6.7524696)"
       x1="-0.95538092"
       y1="17.265625"
       x2="6.4057508"
       y2="17.265625" />
    <linearGradient
       inkscape:collect="always"
       xlink:href="#linearGradient3501"
       id="linearGradient4432"
       gradientUnits="userSpaceOnUse"
       gradientTransform="matrix(0.8476663,0,0,0.8476663,3.07514,6.7524696)"
       x1="41.714905"
       y1="16.421875"
       x2="32.640072"
       y2="16.421875" />
    <radialGradient
       inkscape:collect="always"
       xlink:href="#linearGradient3239"
       id="radialGradient4434"
       gradientUnits="userSpaceOnUse"
       gradientTransform="matrix(1.3327889,1.5043791e-2,-8.1166504e-3,0.7190863,-160.83171,74.369295)"
       cx="132.1315"
       cy="-73.878075"
       fx="132.1315"
       fy="-73.878075"
       r="16.627993" />
    <radialGradient
       inkscape:collect="always"
       xlink:href="#linearGradient3981"
       id="radialGradient4468"
       gradientUnits="userSpaceOnUse"
       gradientTransform="matrix(-1.4808499,1.6581035e-2,-7.1863571e-3,-0.6418123,599.5656,31.186809)"
       cx="237.72618"
       cy="9.2338028"
       fx="237.72618"
       fy="9.2338028"
       r="19.0625" />
  </defs>
  <metadata
     id="metadata2198">
    <rdf:RDF>
      <cc:Work
         rdf:about="">
        <dc:format>image/svg+xml</dc:format>
        <dc:type
           rdf:resource="http://purl.org/dc/dcmitype/StillImage" />
        <dc:creator>
          <cc:Agent>
            <dc:title>Jarle Akselsen</dc:title>
          </cc:Agent>
        </dc:creator>
        <cc:license
           rdf:resource="http://creativecommons.org/licenses/GPL/2.0/" />
      </cc:Work>
      <cc:License
         rdf:about="http://creativecommons.org/licenses/GPL/2.0/">
        <cc:permits
           rdf:resource="http://web.resource.org/cc/Reproduction" />
        <cc:permits
           rdf:resource="http://web.resource.org/cc/Distribution" />
        <cc:requires
           rdf:resource="http://web.resource.org/cc/Notice" />
        <cc:permits
           rdf:resource="http://web.resource.org/cc/DerivativeWorks" />
        <cc:requires
           rdf:resource="http://web.resource.org/cc/ShareAlike" />
        <cc:requires
           rdf:resource="http://web.resource.org/cc/SourceCode" />
      </cc:License>
    </rdf:RDF>
  </metadata>
  <g
     inkscape:label="Layer 1"
     id="layer1"
     inkscape:groupmode="layer">
    <path
       sodipodi:ry="12.641975"
       sodipodi:rx="63.912209"
       transform="matrix(0.2611959,0,0,0.4952926,3.49323,-33.170096)"
       d="M 127.82442 115.70919 A 63.912209 12.641975 0 1 1  0,115.70919 A 63.912209 12.641975 0 1 1  127.82442 115.70919 z"
       sodipodi:type="arc"
       sodipodi:cy="115.70919"
       sodipodi:cx="63.912209"
       id="path4388"
       style="opacity:0.38139535;fill:url(#radialGradient4414);fill-opacity:1;fill-rule:nonzero;stroke:none;stroke-width:0;stroke-linecap:round;stroke-linejoin:round;stroke-miterlimit:4;stroke-dasharray:none;stroke-dashoffset:4;stroke-opacity:1" />
    <path
       d="M 20.13442,10.911333 C 11.02111,10.911333 3.60493,14.198723 3.60493,18.248949 C 3.60493,18.339539 3.62408,18.424046 3.63141,18.513845 C 3.62392,18.558336 3.60493,18.60088 3.60493,18.646293 C 3.60493,18.929317 3.60493,19.985148 3.60493,20.235666 C 3.60493,24.328801 11.02111,27.652748 20.13442,27.652748 C 29.24773,27.652748 36.63743,24.328802 36.63743,20.235666 C 36.63743,19.984902 36.63743,18.929317 36.63743,18.646293 C 36.63743,18.601018 36.61803,18.558358 36.61093,18.513845 C 36.61162,18.505335 36.6103,18.495874 36.61093,18.487356 C 36.6169,18.406399 36.63743,18.330544 36.63743,18.248949 C 36.63743,14.198723 29.24773,10.911333 20.13442,10.911333 z "
       id="path4391"
       style="opacity:1;fill:#ee8b6c;fill-opacity:1;fill-rule:nonzero;stroke:none;stroke-width:1;stroke-linecap:round;stroke-linejoin:round;stroke-miterlimit:4;stroke-dasharray:none;stroke-opacity:1"
       sodipodi:nodetypes="cssssssssssc" />
    <path
       sodipodi:ry="6.3750477"
       sodipodi:rx="15.387047"
       transform="matrix(1.0729569,0,0,1.1509503,-3.662041,-2.3173224)"
       d="M 37.554827 17.861198 A 15.387047 6.3750477 0 1 1  6.7807331,17.861198 A 15.387047 6.3750477 0 1 1  37.554827 17.861198 z"
       sodipodi:type="arc"
       sodipodi:cy="17.861198"
       sodipodi:cx="22.16778"
       id="path4393"
       style="opacity:0.5;fill:url(#linearGradient4416);fill-opacity:1;fill-rule:nonzero;stroke:none;stroke-width:1;stroke-linecap:round;stroke-linejoin:round;stroke-miterlimit:4;stroke-dasharray:none;stroke-opacity:1" />
    <path
       style="opacity:0.5;fill:url(#linearGradient4418);fill-opacity:1;fill-rule:nonzero;stroke:none;stroke-width:1;stroke-linecap:round;stroke-linejoin:round;stroke-miterlimit:4;stroke-dasharray:none;stroke-opacity:1"
       d="M 3.63141,18.487356 C 3.62736,18.541316 3.60493,18.592092 3.60493,18.646293 C 3.60493,18.929317 3.60493,19.985148 3.60493,20.235666 C 3.60493,24.328801 11.02111,27.652748 20.13442,27.652748 C 29.24773,27.652748 36.63743,24.328802 36.63743,20.235666 C 36.63743,19.984902 36.63743,18.929317 36.63743,18.646293 C 36.63743,18.592255 36.61389,18.541281 36.61093,18.487356 C 36.32118,22.424854 29.06414,25.586561 20.13442,25.586561 C 11.2047,25.586561 3.92117,22.424854 3.63141,18.487356 z "
       sodipodi:nodetypes="cssssscsc"
       id="path4395" />
    <g
       transform="matrix(0.8476663,0,0,0.8476663,-183.41146,-10.200852)"
       id="g4397"
       style="opacity:0.75;fill:url(#radialGradient4420);fill-opacity:1">
      <path
         style="opacity:1;fill:url(#radialGradient4422);fill-opacity:1;fill-rule:nonzero;stroke:none;stroke-width:0.30000001;stroke-linecap:round;stroke-linejoin:round;stroke-miterlimit:4;stroke-dasharray:none;stroke-opacity:1"
         d="M 244.28125,26.25 C 243.84608,26.291471 243.47519,26.42473 243.21875,26.59375 C 243.21875,26.59375 243.38191,26.633274 243.53125,26.65625 C 243.72089,26.589119 243.92119,26.5224 244.15625,26.5 C 244.28197,26.488023 244.42452,26.495593 244.5625,26.5 C 244.63407,26.401592 244.75,26.25 244.75,26.25 C 244.59265,26.245891 244.42631,26.23618 244.28125,26.25 z M 245.59375,26.34375 C 245.59375,26.34375 245.53331,26.483067 245.46875,26.59375 C 245.80808,26.684584 246.05009,26.837801 246.1875,27 C 246.2912,27.015363 246.4375,27.03125 246.4375,27.03125 C 246.4672,26.763151 246.12788,26.48673 245.59375,26.34375 z M 232.71875,26.6875 C 232.71875,26.6875 232.89317,26.839574 233,26.9375 C 233.30695,26.942751 233.61194,26.961591 233.875,27.03125 C 234.10632,26.984989 234.40625,26.937507 234.40625,26.9375 C 233.98795,26.736811 233.33507,26.63074 232.71875,26.6875 z M 231.90625,26.84375 C 231.56638,26.968908 231.37895,27.156511 231.34375,27.34375 C 231.43876,27.245055 231.58575,27.165742 231.78125,27.09375 C 231.78125,27.09375 232.09968,27.358381 232.15625,27.40625 C 232.16432,27.327531 232.20422,27.25152 232.3125,27.1875 C 232.3125,27.187501 231.90625,26.84375 231.90625,26.84375 z M 242.90625,26.9375 C 242.89016,27.031032 242.93292,27.131622 243,27.21875 C 243.24,27.254304 243.625,27.3125 243.625,27.3125 C 243.6503,27.388153 243.73112,27.41803 243.84375,27.46875 C 243.91551,27.361107 244.00001,27.250006 244,27.25 C 243.8576,27.188401 243.77867,27.14824 243.75,27.0625 C 243.75,27.062501 242.90625,26.93749 242.90625,26.9375 z M 234.78125,27.25 C 234.78125,27.250001 234.03125,27.40624 234.03125,27.40625 C 234.03333,27.487419 234.00849,27.587991 233.90625,27.65625 C 233.90625,27.65624 234.65625,27.5 234.65625,27.5 C 234.69383,27.569767 234.72365,27.646728 234.71875,27.71875 C 234.84273,27.575489 234.86267,27.401163 234.78125,27.25 z M 245.375,27.28125 C 245.23463,27.343821 245.04359,27.39155 244.84375,27.40625 C 244.84375,27.406251 244.5625,27.75 244.5625,27.75 C 244.59458,27.750835 244.6245,27.750102 244.65625,27.75 C 244.68305,27.717241 244.71875,27.65625 244.71875,27.65625 C 244.91859,27.64155 245.10963,27.59382 245.25,27.53125 C 245.25,27.53125 245.47148,27.567827 245.6875,27.59375 C 245.75182,27.573425 245.82071,27.552727 245.875,27.53125 C 245.99178,27.485071 246.07199,27.43381 246.15625,27.375 C 246.15625,27.375001 245.375,27.28125 245.375,27.28125 z M 232.5,27.75 C 232.5,27.750001 231.75,27.90625 231.75,27.90625 C 231.86948,27.966685 232.00568,27.990471 232.15625,28.03125 C 232.24476,28.01281 232.375,28 232.375,28 C 232.53605,28.05283 232.73477,28.06081 232.9375,28.0625 C 232.9375,28.0625 233.00349,28.133405 233.0625,28.1875 C 233.18767,28.187984 233.31116,28.167879 233.4375,28.15625 C 233.4375,28.156251 233.0625,27.8125 233.0625,27.8125 C 232.85977,27.810811 232.66105,27.80283 232.5,27.75 z M 240.46875,29.09375 C 240.46875,29.093751 239.65625,29.28125 239.65625,29.28125 C 239.63986,29.386221 239.5876,29.460866 239.53125,29.53125 C 239.53125,29.53125 240.34375,29.34375 240.34375,29.34375 C 240.34376,29.343742 240.85889,30.043438 241.0625,30.3125 C 241.08365,30.308015 241.34375,30.25 241.34375,30.25 C 241.34375,30.250001 240.46876,29.09374 240.46875,29.09375 z M 239.53125,29.53125 C 239.3944,29.702182 239.10814,29.807661 238.34375,29.96875 C 238.34375,29.968751 231.93751,31.31249 231.9375,31.3125 C 231.9375,31.3125 232.13244,31.479362 232.15625,31.5 C 232.76889,31.371489 238.21875,30.21875 238.21875,30.21875 C 239.29789,29.99133 239.47505,29.89115 239.53125,29.53125 z M 254.21875,29.53125 C 254.06246,29.526841 253.90408,29.54831 253.75,29.5625 C 253.75,29.5625 253.92329,29.691282 254.03125,29.78125 C 254.05206,29.781001 254.073,29.780665 254.09375,29.78125 C 254.37899,29.789298 254.65637,29.837073 254.90625,29.90625 C 255.14616,29.860113 255.46875,29.8125 255.46875,29.8125 C 255.15502,29.661891 254.68763,29.54448 254.21875,29.53125 z M 252.9375,29.71875 C 252.62146,29.835138 252.48099,30.014795 252.4375,30.1875 C 252.52624,30.105652 252.64554,30.030238 252.8125,29.96875 C 252.8125,29.96875 253.13093,30.233381 253.1875,30.28125 C 253.18972,30.280805 253.21875,30.28125 253.21875,30.28125 C 253.22682,30.202501 253.23546,30.12646 253.34375,30.0625 C 253.34375,30.062501 252.9375,29.71875 252.9375,29.71875 z M 255.8125,30.125 C 255.8125,30.125001 255.03125,30.28124 255.03125,30.28125 C 255.03346,30.367831 255.02508,30.46126 254.90625,30.53125 C 254.90625,30.53124 255.6875,30.375 255.6875,30.375 C 255.72369,30.442195 255.72654,30.524891 255.71875,30.59375 C 255.85895,30.446671 255.89595,30.279944 255.8125,30.125 z M 225.375,30.46875 C 224.74557,30.452301 224.12318,30.58713 223.78125,30.8125 C 223.78125,30.8125 223.95796,30.850254 224.125,30.875 C 224.43545,30.780552 224.80168,30.714802 225.1875,30.71875 C 225.25907,30.620344 225.375,30.468757 225.375,30.46875 z M 226.21875,30.59375 C 226.21875,30.593751 225.9375,30.9375 225.9375,30.9375 C 225.96232,30.948263 225.97854,30.956134 226,30.96875 C 226.04507,30.913668 226.09375,30.84375 226.09375,30.84375 C 226.43306,30.934565 226.68428,31.065763 226.8125,31.21875 C 226.897,31.228139 227.03125,31.25 227.03125,31.25 C 227.06094,30.981851 226.75289,30.73671 226.21875,30.59375 z M 253.53125,30.59375 C 253.53125,30.593751 252.75,30.78126 252.75,30.78125 C 252.85426,30.833978 252.95944,30.868392 253.09375,30.90625 C 253.10789,30.902856 253.11141,30.909512 253.125,30.90625 C 253.25385,30.875325 253.40625,30.84375 253.40625,30.84375 C 253.56732,30.89657 253.76598,30.93582 253.96875,30.9375 C 253.96875,30.9375 254.05336,31.001881 254.125,31.0625 C 254.25417,31.062988 254.37366,31.042871 254.5,31.03125 C 254.5,31.031251 254.09375,30.6875 254.09375,30.6875 C 253.89098,30.685821 253.69232,30.64657 253.53125,30.59375 z M 223.5,31.15625 C 223.48391,31.249809 223.52667,31.345598 223.59375,31.4375 C 223.83375,31.473054 224.21875,31.53125 224.21875,31.53125 C 224.24742,31.61696 224.29508,31.68843 224.4375,31.75 C 224.50207,31.639317 224.5625,31.5 224.5625,31.5 C 224.42008,31.438431 224.37242,31.36696 224.34375,31.28125 C 224.34375,31.281251 223.5,31.15624 223.5,31.15625 z M 225.96875,31.5 C 225.82837,31.562591 225.60608,31.61036 225.40625,31.625 C 225.40625,31.625001 225.1875,31.96874 225.1875,31.96875 C 225.19819,31.969028 225.20809,31.968578 225.21875,31.96875 C 225.24295,31.93073 225.28125,31.875 225.28125,31.875 C 225.48108,31.86036 225.70337,31.81259 225.84375,31.75 C 225.84375,31.749994 226.08413,31.777364 226.3125,31.8125 C 226.36263,31.800441 226.42067,31.800257 226.46875,31.78125 C 226.58553,31.735041 226.69699,31.6838 226.78125,31.625 C 226.78125,31.625001 225.96875,31.49999 225.96875,31.5 z M 241.5,31.9375 C 240.73822,31.978112 239.94445,32.08391 239.15625,32.25 C 237.73855,32.548749 236.97493,32.87549 236.21875,33.5625 C 236.21875,33.562499 234.69546,32.267962 234.34375,31.96875 C 234.31294,31.975285 234,32.03125 234,32.03125 C 234,32.03125 236.09375,33.8125 236.09375,33.8125 C 236.84993,33.12549 237.61355,32.79875 239.03125,32.5 C 242.18405,31.83564 245.34655,32.19754 246.75,33.40625 C 247.30187,33.881553 247.47269,34.373938 247.3125,34.84375 C 247.63606,34.30361 247.52189,33.713391 246.875,33.15625 C 245.82242,32.249717 243.78533,31.815665 241.5,31.9375 z M 254.6875,34.5625 C 254.22566,34.603969 253.81895,34.73729 253.5625,34.90625 C 253.5625,34.906249 253.74075,34.919111 253.90625,34.9375 C 253.92114,34.939155 253.92227,34.935807 253.9375,34.9375 C 254.12896,34.877866 254.33158,34.833235 254.5625,34.8125 C 254.68566,34.801444 254.8117,34.808352 254.9375,34.8125 C 255.01686,34.715504 255.15626,34.562493 255.15625,34.5625 C 254.9989,34.558389 254.84145,34.54868 254.6875,34.5625 z M 256,34.65625 C 256,34.656249 255.71876,35 255.71875,35 C 255.74357,35.010763 255.76163,35.018633 255.78125,35.03125 C 255.82632,34.976168 255.875,34.90625 255.875,34.90625 C 256.21603,34.997512 256.42203,35.149309 256.53125,35.3125 C 256.61709,35.325707 256.75,35.34375 256.75,35.34375 C 256.7797,35.075669 256.53414,34.79919 256,34.65625 z M 253.28125,35.25 C 253.26579,35.33989 253.29112,35.447114 253.34375,35.53125 C 253.56616,35.556912 253.96875,35.59375 253.96875,35.59375 C 253.99253,35.66486 254.05581,35.751187 254.15625,35.8125 C 254.2394,35.710871 254.34375,35.59375 254.34375,35.59375 C 254.20134,35.532129 254.12242,35.4295 254.09375,35.34375 C 254.09375,35.343749 253.28124,35.25 253.28125,35.25 z M 245,35.3125 C 244.66144,35.732498 243.89647,36.070909 242.75,36.3125 C 241.37462,36.602319 239.91861,36.58793 239.5625,36.28125 C 239.5625,36.281249 239.46875,36.1875 239.46875,36.1875 C 239.35545,35.885779 239.36504,35.88463 239.28125,35.8125 C 238.96705,35.541859 238.12471,35.42424 237.46875,35.5625 C 236.95166,35.671447 236.67137,35.889765 236.6875,36.125 C 236.81483,35.996144 237.02831,35.878962 237.34375,35.8125 C 237.99971,35.67424 238.84205,35.79186 239.15625,36.0625 C 239.24004,36.13463 239.23045,36.13578 239.34375,36.4375 C 239.34375,36.4375 239.4375,36.53125 239.4375,36.53125 C 239.79361,36.83793 241.24962,36.85232 242.625,36.5625 C 243.98437,36.276045 244.78609,35.837532 245,35.3125 z M 226.25,35.46875 C 226.09371,35.464339 225.93532,35.48581 225.78125,35.5 C 225.78125,35.499999 225.91229,35.618088 226.03125,35.71875 C 226.06249,35.717838 226.09388,35.717872 226.125,35.71875 C 226.41414,35.726908 226.68517,35.80425 226.9375,35.875 C 227.16373,35.829754 227.5,35.75 227.5,35.75 C 227.18628,35.599429 226.71888,35.48198 226.25,35.46875 z M 255.71875,35.59375 C 255.57837,35.656299 255.4186,35.67281 255.21875,35.6875 C 255.21875,35.687499 254.9375,36.03125 254.9375,36.03125 C 254.96972,36.032089 254.99936,36.030794 255.03125,36.03125 C 255.05805,35.998491 255.09375,35.9375 255.09375,35.9375 C 255.2936,35.92281 255.45337,35.9063 255.59375,35.84375 C 255.59375,35.84375 255.83338,35.879813 256.0625,35.90625 C 256.11435,35.887438 256.16913,35.863364 256.21875,35.84375 C 256.33553,35.797529 256.44699,35.7463 256.53125,35.6875 C 256.53125,35.687499 255.71875,35.59375 255.71875,35.59375 z M 225,35.65625 C 224.64223,35.787979 224.43508,35.989519 224.40625,36.1875 C 224.50643,36.075817 224.65799,35.986152 224.875,35.90625 C 224.875,35.906259 225.19343,36.170882 225.25,36.21875 C 225.25807,36.139999 225.29797,36.064 225.40625,36 C 225.40625,35.999999 225,35.65626 225,35.65625 z M 227.875,36.0625 C 227.875,36.062499 227.09375,36.25 227.09375,36.25 C 227.09596,36.336559 227.02507,36.39872 226.90625,36.46875 C 226.90625,36.46875 226.95721,36.490237 226.96875,36.5 C 226.96875,36.5 227.75,36.3125 227.75,36.3125 C 227.78619,36.379697 227.78904,36.462388 227.78125,36.53125 C 227.92145,36.38417 227.95844,36.21745 227.875,36.0625 z M 225.59375,36.5625 C 225.59375,36.562499 224.8125,36.71875 224.8125,36.71875 C 224.93252,36.779456 225.0637,36.834133 225.21875,36.875 C 225.32915,36.85292 225.46875,36.8125 225.46875,36.8125 C 225.6298,36.86535 225.79724,36.87336 226,36.875 C 226,36.874996 226.08461,36.93938 226.15625,37 C 226.28342,37.000486 226.4049,36.980375 226.53125,36.96875 C 226.53125,36.968749 226.125,36.62499 226.125,36.625 C 225.92224,36.623359 225.7548,36.61535 225.59375,36.5625 z M 246.9375,38.4375 C 246.78343,38.434029 246.62282,38.45457 246.46875,38.46875 C 246.46875,38.468749 246.63031,38.595429 246.75,38.6875 C 246.77065,38.687186 246.79205,38.687039 246.8125,38.6875 C 247.10908,38.694173 247.37337,38.745591 247.625,38.8125 C 247.84398,38.766877 248.15625,38.687493 248.15625,38.6875 C 247.84252,38.536969 247.3997,38.4479 246.9375,38.4375 z M 245.6875,38.625 C 245.32974,38.756714 245.12258,38.958273 245.09375,39.15625 C 245.19393,39.044558 245.34549,38.954893 245.5625,38.875 C 245.56249,38.875 245.88093,39.139631 245.9375,39.1875 C 245.94558,39.108749 245.98547,39.03278 246.09375,38.96875 C 246.09375,38.968749 245.68749,38.625 245.6875,38.625 z M 235.375,38.75 C 234.74558,38.733539 234.1232,38.86843 233.78125,39.09375 C 233.78125,39.093749 233.95796,39.131502 234.125,39.15625 C 234.42702,39.064364 234.78128,38.999118 235.15625,39 C 235.23561,38.903006 235.375,38.75 235.375,38.75 z M 236.15625,38.875 C 236.15625,38.874999 235.90624,39.21875 235.90625,39.21875 C 235.92153,39.225371 235.92349,39.243403 235.9375,39.25 C 235.98022,39.191256 236.03125,39.125 236.03125,39.125 C 236.35961,39.212861 236.58721,39.353266 236.71875,39.5 C 236.82454,39.516276 236.96875,39.53125 236.96875,39.53125 C 236.99844,39.263139 236.69039,39.01792 236.15625,38.875 z M 248.5625,39.03125 C 248.5625,39.031249 247.8125,39.1875 247.8125,39.1875 C 247.81471,39.274069 247.71257,39.33623 247.59375,39.40625 C 247.59375,39.40625 247.63767,39.453033 247.65625,39.46875 C 247.66032,39.456754 247.68783,39.450485 247.6875,39.4375 C 247.6875,39.4375 248.4375,39.28125 248.4375,39.28125 C 248.47369,39.348442 248.47654,39.402818 248.46875,39.46875 C 248.60167,39.332703 248.64418,39.182887 248.5625,39.03125 z M 233.5,39.4375 C 233.48391,39.531051 233.53145,39.626846 233.59375,39.71875 C 233.82728,39.754678 234.1875,39.8125 234.1875,39.8125 C 234.21331,39.889684 234.31558,39.942757 234.4375,40 C 234.51639,39.894813 234.59375,39.78125 234.59375,39.78125 C 234.45134,39.719649 234.34118,39.64826 234.3125,39.5625 C 234.3125,39.562499 233.50001,39.4375 233.5,39.4375 z M 246.28125,39.5 C 246.28125,39.499999 245.53125,39.6875 245.53125,39.6875 C 245.63551,39.740222 245.74655,39.77464 245.875,39.8125 C 245.88875,39.809062 245.89318,39.815768 245.90625,39.8125 C 246.01736,39.784722 246.15625,39.75 246.15625,39.75 C 246.31732,39.80284 246.516,39.8421 246.71875,39.84375 C 246.71875,39.84375 246.78474,39.914655 246.84375,39.96875 C 246.96892,39.969237 247.09241,39.949129 247.21875,39.9375 C 247.21875,39.937499 246.84374,39.59375 246.84375,39.59375 C 246.641,39.592099 246.44232,39.55284 246.28125,39.5 z M 235.9375,39.78125 C 235.79712,39.843859 235.60608,39.8603 235.40625,39.875 C 235.40625,39.874999 235.34582,40.014317 235.28125,40.125 C 235.48108,40.1103 235.67212,40.09386 235.8125,40.03125 C 235.8125,40.031245 236.03284,40.06034 236.25,40.09375 C 236.32487,40.070924 236.40626,40.055979 236.46875,40.03125 C 236.58552,39.985089 236.66575,39.96507 236.75,39.90625 C 236.75,39.906249 235.9375,39.78124 235.9375,39.78125 z M 235.28125,40.125 C 235.24532,40.18659 235.1875,40.25 235.1875,40.25 C 235.19114,40.243752 235.21529,40.255931 235.21875,40.25 C 235.2494,40.197466 235.28125,40.125 235.28125,40.125 z "
         id="path4399" />
      <path
         style="opacity:1;fill:url(#radialGradient4424);fill-opacity:1;fill-rule:nonzero;stroke:none;stroke-width:1;stroke-linecap:round;stroke-linejoin:round;stroke-miterlimit:4;stroke-dasharray:none;stroke-opacity:1"
         d="M 238.125,24.9375 C 237.93532,24.946068 237.75055,24.957778 237.5625,24.96875 C 237.91444,24.948236 238.26748,24.949565 238.625,24.9375 C 238.46022,24.943078 238.28862,24.930109 238.125,24.9375 z M 231.34375,25.84375 C 231.03596,25.913015 230.73568,25.986317 230.4375,26.0625 C 230.73301,25.987208 231.0388,25.912257 231.34375,25.84375 z M 222,31.6875 C 221.67334,32.275869 221.46875,32.869302 221.46875,33.5 C 221.46875,37.881044 229.81047,41.437499 240.09375,41.4375 C 247.48963,41.4375 253.84154,39.571037 256.84375,36.90625 C 253.75838,39.472551 247.48043,41.21875 240.25,41.21875 C 229.96672,41.218749 221.625,37.662294 221.625,33.28125 C 221.625,32.73362 221.75182,32.204026 222,31.6875 z M 259.5625,33.875 C 259.51819,34.40692 259.37707,34.934952 259.125,35.4375 C 259.32517,35.086924 259.49337,34.740808 259.59375,34.375 C 259.59375,34.263988 259.59375,34.092462 259.59375,34.03125 C 259.59375,33.977839 259.57087,33.927511 259.5625,33.875 z "
         id="path4402" />
    </g>
    <path
       style="opacity:0.25;fill:url(#linearGradient4426);fill-opacity:1;fill-rule:nonzero;stroke:none;stroke-width:1;stroke-linecap:round;stroke-linejoin:round;stroke-miterlimit:4;stroke-opacity:1"
       d="M 20.13442,10.911333 C 13.29944,10.911333 7.4159,12.754806 4.90292,15.388075 C 4.71111,15.589049 4.55111,15.814189 4.39961,16.023825 C 4.3857,16.043083 4.36021,16.057477 4.34664,16.076803 C 3.95317,16.703653 3.73737,17.381321 3.73737,18.063523 C 3.73737,22.113748 11.15354,25.401135 20.26688,25.401135 C 27.10186,25.401135 32.96636,23.557662 35.47189,20.924395 C 35.62702,20.761339 35.7669,20.589916 35.89572,20.421095 C 35.91497,20.393562 35.93015,20.369301 35.94869,20.341625 C 36.39455,19.676715 36.63743,18.978027 36.63743,18.248949 C 36.63743,14.198722 29.24773,10.911333 20.13442,10.911333 z M 20.24037,11.282189 C 28.95717,11.282189 36.02816,14.296882 36.02816,18.010542 C 36.02816,18.545167 35.85473,19.048198 35.57784,19.546938 C 35.47265,19.765857 35.33431,19.972052 35.18049,20.182688 C 35.05959,20.333691 34.92806,20.487052 34.78315,20.63301 C 32.48269,23.135975 26.79511,24.924321 20.10794,24.924321 C 11.39114,24.92432 4.32015,21.909631 4.32015,18.195971 C 4.32015,17.661346 4.49358,17.158316 4.77047,16.659576 C 4.84163,16.511479 4.94177,16.353634 5.03536,16.209251 C 5.04231,16.199758 5.05483,16.192239 5.06184,16.182762 C 6.9289,13.354371 13.00735,11.282189 20.24037,11.282189 z M 23.55157,12.262304 C 23.35233,12.281292 23.18254,12.337849 23.02179,12.394752 C 23.22205,12.425564 23.44561,12.44774 23.44562,12.44773 C 23.55992,12.402051 23.68834,12.353199 23.84297,12.341773 C 23.84297,12.341773 23.87407,12.292361 23.89593,12.262304 C 23.77898,12.258566 23.65815,12.252148 23.55157,12.262304 z M 24.66415,12.341773 C 24.63368,12.39398 24.58468,12.44773 24.58468,12.44773 C 24.69475,12.495446 24.73954,12.541152 24.7701,12.606667 C 24.7701,12.606667 25.06363,12.655062 25.2734,12.686137 C 25.15693,12.548645 24.95178,12.418765 24.66415,12.341773 z M 14.09479,12.633159 C 14.12667,12.662376 14.17426,12.712626 14.17426,12.712626 C 14.3312,12.71399 14.49529,12.727809 14.6246,12.765607 C 14.6246,12.765607 14.74293,12.731343 14.8365,12.712626 C 14.61352,12.653577 14.355,12.637608 14.09479,12.633159 z M 13.06171,12.765607 C 12.89599,12.826629 12.77139,12.893865 12.69084,12.977523 C 12.68929,12.98588 12.69169,12.995621 12.69084,13.004012 C 12.68518,13.05995 12.69086,13.107192 12.71735,13.162949 C 12.71735,13.162949 13.37959,13.030502 13.37959,13.030502 C 13.33163,12.989924 13.06171,12.765607 13.06171,12.765607 z M 22.57145,12.871563 C 22.68176,13.014828 22.90131,13.134062 23.20721,13.21593 C 23.20721,13.21593 23.24548,13.145293 23.28668,13.083482 C 23.19121,13.040487 23.12269,13.015161 23.10126,12.951034 C 23.10126,12.951034 22.77491,12.901699 22.57145,12.871563 z M 15.49874,13.109971 C 15.49874,13.109971 14.863,13.242411 14.863,13.242419 C 14.86424,13.243555 14.86072,13.26685 14.863,13.268908 C 14.90835,13.310138 15.12789,13.507315 15.1279,13.507315 C 15.23139,13.469211 15.3449,13.448579 15.41927,13.401356 C 15.47505,13.365932 15.5167,13.335875 15.55173,13.295397 C 15.55588,13.234348 15.53059,13.169112 15.49874,13.109971 z M 24.4787,13.13646 C 24.35972,13.189499 24.19778,13.229957 24.02839,13.242419 C 24.02839,13.242419 23.99812,13.294118 23.9754,13.321889 C 24.21882,13.321107 24.45204,13.289659 24.66415,13.242419 C 24.72717,13.228372 24.78681,13.209274 24.84957,13.189441 C 24.66646,13.167469 24.4787,13.13646 24.4787,13.13646 z M 13.56501,13.533804 C 13.56501,13.533804 13.4546,13.544664 13.37959,13.560293 C 13.60823,13.622216 13.87579,13.69169 14.14778,13.692741 C 14.09776,13.646892 14.04183,13.586783 14.04183,13.586783 C 13.86997,13.58535 13.70152,13.578587 13.56501,13.533804 z M 20.31984,14.672856 C 20.31984,14.672856 19.63112,14.831794 19.63112,14.831794 C 19.58347,15.136869 19.43331,15.22179 18.51856,15.414566 C 18.51856,15.414566 13.8989,16.391704 13.37959,16.500637 C 13.70708,16.784462 16.37291,19.096615 16.37291,19.096615 C 16.37291,19.096615 17.22057,18.990657 17.22057,18.990657 C 17.26079,18.889259 17.32889,18.812376 17.37951,18.725762 C 17.68655,18.200311 18.18669,17.913317 19.23377,17.692668 C 21.13502,17.292018 22.95458,17.604502 23.94892,18.460867 C 24.42619,18.871908 24.53196,19.276058 24.31976,19.626407 C 24.30501,19.650787 24.31125,19.681972 24.29328,19.705877 C 24.28955,19.716489 24.27108,19.721829 24.2668,19.732366 C 24.08547,20.177416 23.40588,20.549135 22.25359,20.791948 C 21.08771,21.037619 19.85352,21.025422 19.55165,20.765458 C 19.55165,20.765458 19.47218,20.685991 19.47218,20.685991 C 19.37613,20.430231 19.38428,20.429258 19.31324,20.368114 C 19.04692,20.138703 18.33289,20.038999 17.77686,20.156199 C 17.50945,20.212534 17.32849,20.311864 17.22057,20.421095 C 17.22115,20.429765 17.21899,20.438887 17.22057,20.447584 C 17.23311,20.517143 17.27534,20.592603 17.35302,20.6595 C 18.08988,21.294131 20.55595,21.385468 22.99529,20.871417 C 23.74415,20.71364 24.39321,20.535317 24.90253,20.315136 C 25.47552,20.067406 25.87777,19.794609 26.12106,19.493959 C 26.15005,19.458128 26.17643,19.424323 26.20053,19.388 C 26.20802,19.369708 26.22076,19.353399 26.22701,19.335022 C 26.36281,18.93678 26.218,18.519396 25.75022,18.116501 C 24.56055,17.091919 21.87982,16.785147 19.20729,17.348305 C 18.00556,17.601545 17.35825,17.878511 16.71727,18.460867 C 16.71727,18.460867 14.94246,16.950961 14.94246,16.950961 C 14.94246,16.950961 15.20772,16.903517 15.23385,16.89798 C 15.19894,16.868287 15.04843,16.739043 15.04843,16.739043 C 15.04843,16.739043 20.4879,15.587615 20.92912,15.494033 C 20.75651,15.265961 20.31985,14.672849 20.31984,14.672856 z M 31.92228,15.043711 C 31.95622,15.071989 32.00175,15.123181 32.00175,15.123181 C 32.1587,15.124569 32.3228,15.164826 32.45206,15.202648 C 32.45206,15.202648 32.57221,15.167319 32.66399,15.14967 C 32.45218,15.091029 32.21704,15.050534 31.97527,15.043711 C 31.95767,15.043211 31.93991,15.0435 31.92228,15.043711 z M 30.8892,15.202648 C 30.74765,15.254772 30.64653,15.318695 30.57132,15.388075 C 30.55519,15.402944 30.558,15.425644 30.54481,15.441055 C 30.54163,15.496992 30.54483,15.544242 30.57132,15.599992 C 30.57132,15.599992 31.15997,15.476969 31.20705,15.467544 C 31.15912,15.426967 30.8892,15.202648 30.8892,15.202648 z M 33.32623,15.547014 C 33.32623,15.547014 32.66399,15.679452 32.66399,15.679462 C 32.66399,15.679462 32.95536,15.970847 32.95536,15.970847 C 33.13072,15.906271 33.2654,15.824039 33.35271,15.73244 C 33.35933,15.67407 33.3569,15.603968 33.32623,15.547014 z M 7.12803,15.838399 C 6.92313,15.857048 6.74202,15.919053 6.57177,15.970847 C 6.77603,16.001108 6.9956,16.023818 6.9956,16.023825 C 7.1099,15.978136 7.26479,15.929311 7.41943,15.917866 C 7.41943,15.917866 7.45053,15.868456 7.4724,15.838399 C 7.35694,15.837219 7.23986,15.828226 7.12803,15.838399 z M 8.24061,15.944356 C 8.24061,15.944356 8.19934,16.003625 8.16114,16.050314 C 8.23812,16.095564 8.29537,16.156265 8.32008,16.209251 C 8.32008,16.209251 8.64616,16.239599 8.84986,16.262232 C 8.74117,16.132546 8.52823,16.021332 8.24061,15.944356 z M 31.3925,15.944356 C 31.3925,15.944356 31.2633,15.971126 31.15409,15.997336 C 31.39967,16.0638 31.71042,16.128682 32.00175,16.129784 C 31.94103,16.078398 31.86929,16.023825 31.86929,16.023825 C 31.69742,16.0224 31.52903,15.989129 31.3925,15.944356 z M 6.12143,16.447658 C 6.23173,16.598772 6.45129,16.736652 6.75719,16.818513 C 6.75719,16.818513 6.80619,16.764763 6.83666,16.712554 C 6.71593,16.660362 6.67553,16.59978 6.65124,16.527128 C 6.65124,16.527128 6.32488,16.477793 6.12143,16.447658 z M 8.02868,16.712554 C 7.90969,16.76561 7.72127,16.806102 7.55186,16.818513 C 7.55186,16.818513 7.51941,16.865753 7.4989,16.89798 C 7.76209,16.902235 8.01288,16.869304 8.24061,16.818513 C 8.30989,16.803092 8.36533,16.780138 8.42603,16.765532 C 8.23246,16.735747 8.02868,16.712546 8.02868,16.712554 z M 32.37259,19.308533 C 32.17686,19.326114 32.00511,19.363943 31.84281,19.41449 C 32.03939,19.436335 32.24016,19.46747 32.24016,19.46747 C 32.35446,19.421788 32.48285,19.399496 32.63751,19.388 C 32.63751,19.388 32.66775,19.336301 32.69047,19.308533 C 32.58384,19.305014 32.477,19.299156 32.37259,19.308533 z M 33.48517,19.388 C 33.48517,19.388 33.4439,19.44727 33.4057,19.493959 C 33.47604,19.539208 33.51343,19.599918 33.53814,19.652896 C 33.53814,19.652896 33.84348,19.701908 34.04145,19.732366 C 33.94886,19.594034 33.77424,19.465358 33.48517,19.388 z M 31.33951,19.917792 C 31.43136,20.064624 31.63674,20.178661 31.94876,20.262158 C 31.94876,20.262158 31.99003,20.202888 32.02823,20.156199 C 31.94309,20.104228 31.88947,20.03105 31.86929,19.970772 C 31.86929,19.970772 31.52805,19.939543 31.33951,19.917792 z M 8.18762,20.076729 C 8.24834,20.128115 8.32008,20.182688 8.32008,20.182688 C 8.47702,20.184086 8.64112,20.197861 8.77039,20.235666 C 8.77039,20.235666 8.88237,20.223867 8.95581,20.209177 C 8.74194,20.149206 8.51219,20.083647 8.26709,20.076729 C 8.24071,20.075984 8.2141,20.075958 8.18762,20.076729 z M 33.24676,20.182688 C 33.12777,20.23571 32.99233,20.249705 32.82293,20.262158 C 32.82293,20.262158 32.79266,20.313857 32.76994,20.341625 C 33.01323,20.345109 33.24667,20.335904 33.45868,20.288647 C 33.5264,20.273566 33.58463,20.25724 33.64411,20.235666 C 33.44988,20.213255 33.24676,20.182688 33.24676,20.182688 z M 7.2075,20.235666 C 7.02355,20.303395 6.89509,20.379406 6.81017,20.474073 C 6.80201,20.53001 6.81017,20.577251 6.83666,20.63301 C 6.83666,20.63301 7.52538,20.500555 7.52538,20.500562 C 7.47742,20.459985 7.2075,20.235676 7.2075,20.235666 z M 9.64456,20.580032 C 9.64456,20.580032 8.98232,20.738969 8.98232,20.738969 C 9.04919,20.795559 9.27369,21.003856 9.27369,21.003865 C 9.44906,20.939299 9.58373,20.857057 9.67104,20.765458 C 9.67763,20.707089 9.67523,20.636996 9.64456,20.580032 z M 7.7108,21.003865 C 7.7108,21.003865 7.59247,21.038128 7.4989,21.056843 C 7.73269,21.11847 8.01795,21.161751 8.29357,21.162802 C 8.23285,21.111416 8.16114,21.056843 8.16114,21.056843 C 7.98925,21.055455 7.84734,21.048663 7.7108,21.003865 z M 25.75022,22.593239 C 25.79469,22.62746 25.85617,22.672708 25.85617,22.672708 C 26.01311,22.674072 26.17721,22.687915 26.30648,22.725686 C 26.30648,22.725686 26.41689,22.714829 26.49193,22.699197 C 26.27861,22.642481 26.05458,22.598894 25.80318,22.593239 C 25.78585,22.59285 25.76772,22.592976 25.75022,22.593239 z M 24.74361,22.752177 C 24.55965,22.819897 24.43118,22.895908 24.34627,22.990582 C 24.33812,23.04652 24.34629,23.093778 24.37275,23.14952 C 24.37275,23.14952 25.06148,23.017064 25.06147,23.017072 C 25.01354,22.976494 24.74361,22.752177 24.74361,22.752177 z M 15.60469,22.858134 C 15.3998,22.876783 15.21868,22.938781 15.04843,22.990582 C 15.25269,23.020845 15.47226,23.04357 15.47226,23.043563 C 15.58657,22.997898 15.71496,22.949056 15.86961,22.937604 C 15.86961,22.937604 15.89985,22.885905 15.92257,22.858134 C 15.8161,22.857889 15.70791,22.848743 15.60469,22.858134 z M 16.66428,22.964093 C 16.66428,22.964093 16.62102,23.02026 16.58481,23.070052 C 16.67387,23.111986 16.74329,23.144645 16.77024,23.2025 C 16.77024,23.2025 17.04402,23.250732 17.24705,23.281967 C 17.13555,23.15759 16.94263,23.03857 16.66428,22.964093 z M 27.18065,23.096541 C 27.18065,23.096541 26.54489,23.228989 26.54489,23.228989 C 26.54518,23.239992 26.52185,23.245307 26.51841,23.255478 C 26.59778,23.322648 26.80978,23.493885 26.80978,23.493885 C 26.98322,23.43003 27.11977,23.366981 27.20713,23.281967 C 27.20863,23.274627 27.20625,23.262862 27.20713,23.255478 C 27.21375,23.199592 27.21132,23.153495 27.18065,23.096541 z M 14.59809,23.467396 C 14.70055,23.618509 14.90147,23.756407 15.20737,23.838248 C 15.20737,23.838248 15.26355,23.772157 15.31332,23.705801 C 15.20997,23.657281 15.12327,23.612286 15.10139,23.546863 C 15.10139,23.546863 14.79606,23.497851 14.59809,23.467396 z M 25.24692,23.493885 C 25.24692,23.493885 25.12918,23.523316 25.03499,23.546863 C 25.26916,23.61305 25.54802,23.678219 25.82969,23.679311 C 25.77965,23.633452 25.72371,23.573353 25.72371,23.573353 C 25.55186,23.571954 25.38345,23.538676 25.24692,23.493885 z M 16.47886,23.732292 C 16.35987,23.785363 16.19793,23.7993 16.02854,23.811759 C 16.02854,23.811759 16.00153,23.873189 15.97556,23.917718 C 16.2363,23.92182 16.46359,23.888889 16.69078,23.838248 C 16.74554,23.82606 16.79459,23.802079 16.8497,23.78527 C 16.66563,23.756949 16.47886,23.732282 16.47886,23.732292 z "
       id="path4404" />
    <path
       style="opacity:0.5;fill:url(#linearGradient4428);fill-opacity:1;fill-rule:nonzero;stroke:none;stroke-width:1;stroke-linecap:round;stroke-linejoin:round;stroke-miterlimit:4;stroke-dasharray:none;stroke-opacity:1"
       d="M 3.63141,18.487356 C 3.62736,18.541316 3.60493,18.592092 3.60493,18.646293 C 3.60887,18.663143 3.60072,18.682458 3.60493,18.699271 C 3.64037,18.840959 3.68417,18.983928 3.73737,19.123104 C 3.73737,19.101495 3.73737,19.091592 3.73737,19.070126 C 3.68999,18.880687 3.64565,18.680823 3.63141,18.487356 z M 36.61093,18.487356 C 36.5967,18.680823 36.55222,18.880687 36.50497,19.070126 C 36.50497,19.091589 36.50497,19.101499 36.50497,19.123104 C 36.55801,18.983928 36.60208,18.840959 36.63743,18.699271 C 36.63743,18.68818 36.63743,18.655728 36.63743,18.646293 C 36.63743,18.592255 36.61389,18.541281 36.61093,18.487356 z M 3.84334,21.401209 C 5.10006,24.937646 11.91017,27.652748 20.13442,27.652748 C 28.35867,27.652748 35.14651,24.937646 36.39902,21.401209 C 35.72517,22.847832 34.13733,24.155038 31.8958,25.162728 C 31.85208,25.183047 31.80755,25.195615 31.76334,25.215706 C 31.61907,25.279201 31.46231,25.340015 31.31303,25.401135 C 31.06173,25.507086 30.81059,25.593789 30.54481,25.69252 C 30.14221,25.838331 29.73199,25.98762 29.2998,26.116353 C 28.89832,26.238454 28.48063,26.354703 28.05479,26.460716 C 27.11188,26.691068 26.12983,26.871243 25.08798,27.016997 C 23.52567,27.239889 21.86112,27.387852 20.13442,27.387852 C 18.40772,27.387852 16.74471,27.239889 15.18086,27.016997 C 14.6959,26.949219 14.2154,26.891736 13.75043,26.805082 C 13.7139,26.798134 13.68088,26.785655 13.64448,26.778592 C 13.19138,26.692508 12.75166,26.590308 12.32,26.487206 C 12.27532,26.476295 12.23198,26.471809 12.18754,26.460716 C 11.76079,26.356618 11.37235,26.236235 10.96904,26.116353 C 10.92541,26.10311 10.8799,26.103288 10.83658,26.089864 C 10.44731,25.971818 10.06253,25.824505 9.69752,25.69252 C 9.64328,25.672409 9.59225,25.659956 9.53858,25.639539 C 9.32882,25.561859 9.13033,25.483244 8.92933,25.401135 C 8.77901,25.337892 8.62393,25.281422 8.47902,25.215706 C 8.12029,25.058173 7.79843,24.883815 7.4724,24.712406 C 5.69662,23.778785 4.42516,22.646237 3.84334,21.401209 z "
       id="path4406" />
    <path
       id="path4408"
       d="M 3.60493,18.699271 C 3.60493,19.020971 3.60493,19.993499 3.60493,20.235666 C 3.60493,20.868063 3.79897,21.480733 4.13471,22.063448 C 4.01381,21.8493 3.92187,21.622236 3.84334,21.401209 C 4.29158,22.360354 5.15128,23.237565 6.33336,24.023677 L 6.33336,22.248875 C 4.95422,21.314145 4.03869,20.231675 3.73737,19.070126 C 3.72774,19.043747 3.71985,19.017231 3.71088,18.990657 C 3.67766,18.892281 3.62965,18.798123 3.60493,18.699271 z M 4.13471,22.063448 C 4.25635,22.274541 4.397,22.469357 4.55854,22.672708 C 4.39727,22.466364 4.25564,22.277596 4.13471,22.063448 z M 4.55854,22.672708 C 4.72362,22.880474 4.91042,23.082975 5.11483,23.281967 C 4.91523,23.084351 4.71982,22.879052 4.55854,22.672708 z "
       style="opacity:0.5;fill:url(#linearGradient4430);fill-opacity:1;fill-rule:nonzero;stroke:none;stroke-width:1;stroke-linecap:round;stroke-linejoin:round;stroke-miterlimit:4;stroke-dasharray:none;stroke-opacity:1" />
    <path
       id="path4410"
       d="M 36.63743,18.699271 C 36.60809,18.81687 36.54649,18.927172 36.50497,19.043637 C 36.50292,19.05201 36.50706,19.06179 36.50497,19.070126 C 36.34511,19.678824 36.01881,20.263283 35.55136,20.818439 L 35.55136,22.646219 C 35.90635,22.245036 36.19872,21.831236 36.39902,21.401209 C 36.53782,21.020884 36.63743,20.634175 36.63743,20.235666 C 36.63743,19.99326 36.63743,19.020955 36.63743,18.699271 z M 36.39902,21.401209 C 36.34256,21.560608 36.26568,21.722131 36.18709,21.87802 C 36.26964,21.719172 36.33968,21.563748 36.39902,21.401209 z M 35.68379,22.672708 C 35.64734,22.719508 35.58981,22.758787 35.55136,22.805156 L 35.55136,22.858134 C 35.6018,22.798385 35.63653,22.733125 35.68379,22.672708 z "
       style="opacity:0.5;fill:url(#linearGradient4432);fill-opacity:1;fill-rule:nonzero;stroke:none;stroke-width:1;stroke-linecap:round;stroke-linejoin:round;stroke-miterlimit:4;stroke-dasharray:none;stroke-opacity:1" />
    <path
       id="path4412"
       d="M 20.2445,11.28515 C 13.01148,11.28515 6.93203,13.36556 5.06499,16.193951 C 7.08511,13.470395 13.06079,11.461364 20.11864,11.461364 C 28.83541,11.461364 35.90229,14.494152 35.90229,18.207816 C 35.90229,18.672025 35.78543,19.104161 35.57505,19.542002 C 35.85195,19.043261 36.02816,18.541051 36.02816,18.006431 C 36.02816,14.292767 28.96127,11.28515 20.2445,11.28515 z M 23.91978,12.241738 C 23.89775,12.272016 23.86945,12.317257 23.86945,12.317257 C 23.71367,12.328769 23.58184,12.37193 23.46668,12.41795 C 23.46668,12.417956 23.24051,12.398648 23.03872,12.367604 C 22.90085,12.41641 22.76183,12.452268 22.66112,12.518643 C 22.66112,12.518643 23.36598,12.619346 23.36599,12.619338 C 23.48114,12.573314 23.5878,12.530156 23.74358,12.518643 C 23.74359,12.518643 23.97015,12.241738 23.97015,12.241738 C 23.95221,12.241269 23.93793,12.242316 23.91978,12.241738 z M 24.59948,12.41795 C 24.54433,12.512473 24.49878,12.619338 24.49878,12.619338 C 24.6097,12.667409 24.66938,12.729546 24.70018,12.795551 C 24.70019,12.795551 25.40501,12.896244 25.40501,12.896244 C 25.41427,12.812742 25.3717,12.724029 25.30434,12.644512 C 25.09301,12.613201 24.80087,12.56899 24.80087,12.56899 C 24.77008,12.502985 24.71039,12.466023 24.59948,12.41795 z M 13.69944,12.594164 C 13.69944,12.594164 14.00151,12.896244 14.00151,12.896244 C 14.15962,12.89762 14.32437,12.908511 14.45464,12.946591 C 14.45463,12.946591 15.1343,12.820731 15.1343,12.820724 C 15.03149,12.771398 14.91236,12.729408 14.78187,12.694858 C 14.68759,12.713712 14.5805,12.745205 14.5805,12.745205 C 14.45025,12.707125 14.28549,12.696232 14.12737,12.694858 C 14.12736,12.694859 14.08398,12.623605 14.05185,12.594164 C 13.93724,12.592203 13.81347,12.583663 13.69944,12.594164 z M 22.38422,12.820724 C 22.34385,13.055539 22.64722,13.274713 23.11425,13.399712 C 23.11425,13.399712 23.31564,13.072467 23.31564,13.072457 C 23.30132,13.066269 23.30329,13.05306 23.29045,13.047284 C 23.24895,13.109558 23.21495,13.198323 23.21495,13.198323 C 22.90678,13.115846 22.69672,12.990229 22.58562,12.845897 C 22.51395,12.835282 22.38422,12.820721 22.38422,12.820724 z M 12.61698,12.971764 C 12.51019,13.089984 12.48068,13.221367 12.54145,13.349366 C 12.54145,13.349366 13.22114,13.223497 13.22114,13.223497 C 13.22802,13.156272 13.25454,13.076784 13.34701,13.022111 C 13.34701,13.022111 13.32618,13.000626 13.32184,12.996938 C 13.32183,12.996938 12.64215,13.147978 12.64215,13.147977 C 12.61548,13.091806 12.61127,13.028121 12.61698,12.971764 z M 24.87638,13.17315 C 24.81316,13.193132 24.76366,13.20935 24.70018,13.223497 C 24.48651,13.27109 24.24054,13.298228 23.99532,13.299019 C 23.92754,13.381851 23.81912,13.500405 23.81912,13.500405 C 24.09428,13.50757 24.33699,13.477739 24.57431,13.424885 C 24.69296,13.398446 24.827,13.363645 24.92674,13.324192 C 25.02645,13.284754 25.10651,13.248548 25.17847,13.198323 C 25.17848,13.198323 25.02044,13.190439 24.87638,13.17315 z M 14.80707,13.248671 C 14.8009,13.31481 14.77069,13.372137 14.6812,13.424885 C 14.6812,13.424885 14.98326,13.70179 14.98327,13.70179 C 15.08753,13.663405 15.18524,13.648673 15.26017,13.601098 C 15.40715,13.507758 15.50402,13.390022 15.5119,13.273845 C 15.47662,13.314627 15.44225,13.33885 15.38603,13.374539 C 15.31109,13.422115 15.18821,13.436844 15.08397,13.475232 C 15.08396,13.475231 14.85275,13.290208 14.80707,13.248671 z M 13.32184,13.525578 C 13.13482,13.564538 12.86871,13.651444 12.86871,13.651444 C 13.22484,13.831578 13.76471,13.902431 14.30359,13.85283 C 14.30359,13.85283 14.19697,13.763486 14.1022,13.676617 C 13.82819,13.675559 13.55219,13.587963 13.32184,13.525578 z M 32.00044,15.035977 C 31.88436,15.037367 31.76212,15.050643 31.64801,15.061151 C 31.64802,15.061151 31.97527,15.338066 31.97527,15.338059 C 32.13337,15.339459 32.29814,15.375471 32.42837,15.413578 C 32.42837,15.413578 33.13323,15.262539 33.13323,15.262539 C 33.0283,15.212161 32.89302,15.174706 32.75563,15.13667 C 32.66315,15.154455 32.52907,15.187017 32.52907,15.187017 C 32.39882,15.148912 32.23407,15.112898 32.07594,15.111497 C 32.07594,15.1115 32.03462,15.064467 32.00044,15.035977 z M 30.61591,15.438752 C 30.51404,15.557805 30.47903,15.687173 30.54038,15.81635 C 30.54038,15.81635 31.19488,15.665321 31.19488,15.66531 C 31.20177,15.59806 31.2031,15.543719 31.29558,15.489098 C 31.29558,15.489098 31.27477,15.467612 31.27041,15.463925 C 31.22295,15.473421 30.64108,15.589792 30.64108,15.589791 C 30.6144,15.533626 30.6127,15.495105 30.61591,15.438752 z M 20.92417,15.489098 C 20.47967,15.583378 15.00843,16.747765 15.00843,16.747764 C 15.00843,16.747764 15.14947,16.868887 15.18466,16.898803 C 15.71422,16.786466 21.05001,15.640131 21.05003,15.640137 C 21.05003,15.640137 20.95932,15.535541 20.92417,15.489098 z M 32.75563,15.66531 C 32.75752,15.73925 32.73124,15.8321 32.62977,15.891871 C 32.62977,15.891871 32.93183,16.168778 32.93183,16.168778 C 33.24467,16.053571 33.41535,15.892073 33.4353,15.715657 C 33.34733,15.807938 33.2092,15.902335 33.03253,15.967392 C 33.03253,15.967392 32.75563,15.665312 32.75563,15.66531 z M 7.35574,15.841523 C 7.33373,15.871803 7.30541,15.917045 7.30541,15.917045 C 7.14962,15.928573 6.99263,15.971709 6.87745,16.017738 C 6.87746,16.017733 6.65531,15.997876 6.44951,15.967392 C 6.29705,16.013776 6.17497,16.050502 6.07192,16.118431 C 6.07192,16.118431 6.77678,16.24429 6.77678,16.244297 C 6.89193,16.198266 7.04892,16.129958 7.20471,16.118431 C 7.20471,16.118431 7.43128,15.841532 7.43128,15.841523 C 7.41335,15.841056 7.37365,15.841707 7.35574,15.841523 z M 31.19488,15.992565 C 31.00217,16.038817 30.79211,16.093263 30.79211,16.093258 C 31.14826,16.273372 31.76362,16.369383 32.3025,16.319817 C 32.3025,16.319817 32.17755,16.204393 32.07594,16.118431 C 31.78246,16.117322 31.46746,16.059522 31.22006,15.992565 C 31.20845,15.99535 31.20696,15.989665 31.19488,15.992565 z M 8.06061,16.042912 C 7.98959,16.129701 7.90957,16.244297 7.90957,16.244297 C 8.02045,16.292377 8.08018,16.354504 8.11094,16.42051 C 8.11093,16.42051 8.84097,16.49603 8.84097,16.49603 C 8.85023,16.412502 8.82833,16.344488 8.76547,16.26947 C 8.56025,16.24667 8.21164,16.193951 8.21164,16.193951 C 8.18674,16.140564 8.13814,16.088493 8.06061,16.042912 z M 5.82018,16.42051 C 5.7798,16.655391 6.08316,16.899688 6.55021,17.02467 C 6.55022,17.02467 6.59576,16.917806 6.65091,16.823284 C 6.34274,16.740816 6.10751,16.597923 5.99638,16.445683 C 5.92474,16.435067 5.82018,16.420508 5.82018,16.42051 z M 13.32184,16.49603 C 13.29232,16.502216 13.01974,16.546378 13.01974,16.546378 C 13.01974,16.546378 16.21676,19.340616 16.21676,19.340616 C 16.21675,19.340616 17.07265,19.21475 17.07265,19.21475 C 17.10373,19.136431 17.16149,19.082799 17.19852,19.013362 C 17.19852,19.013362 16.34263,19.114055 16.34263,19.114056 C 16.34264,19.114056 13.65177,16.781974 13.32184,16.49603 z M 4.08323,16.546378 C 3.78505,17.095397 3.60493,17.666264 3.60493,18.258163 C 3.60493,22.308389 11.03048,25.583599 20.1438,25.583599 C 26.70027,25.583599 32.31125,23.868828 34.97089,21.404828 C 32.23705,23.777102 26.67746,25.407387 20.26967,25.407386 C 11.15635,25.407386 3.7308,22.107003 3.7308,18.056777 C 3.73081,17.545124 3.85655,17.033402 4.08323,16.546378 z M 8.3375,16.772937 C 8.27635,16.78765 8.20592,16.807747 8.13614,16.823284 C 7.90671,16.874457 7.67126,16.903087 7.40611,16.898803 C 7.35202,16.983776 7.25505,17.125359 7.25505,17.125362 C 7.53025,17.132521 7.79813,17.077602 8.03544,17.02467 C 8.15408,16.998257 8.26297,16.988571 8.36267,16.94915 C 8.46241,16.909687 8.54246,16.873498 8.61441,16.823284 C 8.61441,16.823284 8.48158,16.795102 8.3375,16.772937 z M 20.6221,17.528137 C 20.16522,17.541902 19.69125,17.60344 19.21238,17.704349 C 18.15749,17.926646 17.6589,18.20708 17.34955,18.736456 C 17.67229,18.327846 18.19011,18.099939 19.11169,17.905738 C 21.02713,17.502098 22.8677,17.823356 23.86945,18.68611 C 24.25516,19.018308 24.41254,19.345368 24.34775,19.642695 C 24.56152,19.289731 24.45097,18.898833 23.97015,18.484723 C 23.21882,17.837659 21.99269,17.486834 20.6221,17.528137 z M 32.7808,19.340616 C 32.75791,19.368593 32.73047,19.416136 32.73047,19.416136 C 32.57466,19.427716 32.44286,19.445633 32.32768,19.491656 C 32.32768,19.491656 32.12295,19.463315 31.92491,19.441309 C 31.91189,19.439864 31.91245,19.442722 31.89974,19.441309 C 31.74701,19.490901 31.60071,19.549161 31.49697,19.617522 C 31.49697,19.617522 32.20181,19.693041 32.20181,19.693041 C 32.31699,19.64702 32.44879,19.629103 32.6046,19.617522 C 32.60459,19.617522 32.85634,19.340606 32.85633,19.340616 C 32.82946,19.339914 32.80766,19.341502 32.7808,19.340616 z M 26.16023,19.516829 C 25.91511,19.819722 25.504,20.097971 24.92674,20.347548 C 24.41358,20.569372 23.768,20.742407 23.01356,20.901361 C 20.55602,21.419247 18.06676,21.339342 17.32439,20.699975 C 17.24613,20.63258 17.21114,20.543492 17.19852,20.473416 C 17.06931,20.6122 17.05211,20.753612 17.22369,20.901361 C 17.96607,21.540727 20.43015,21.645809 22.88769,21.127922 C 23.64213,20.968967 24.31292,20.77076 24.82604,20.548936 C 25.52691,20.245906 25.95334,19.893248 26.16023,19.516829 z M 33.48566,19.516829 C 33.41464,19.603619 33.33464,19.693041 33.33463,19.693041 C 33.4455,19.741121 33.48004,19.828441 33.51083,19.89443 C 33.51084,19.89443 34.2157,19.995123 34.21569,19.995123 C 34.22487,19.912352 34.19299,19.822306 34.14016,19.743388 C 33.94074,19.712705 33.6367,19.667867 33.6367,19.667868 C 33.61178,19.614496 33.55652,19.562415 33.48566,19.516829 z M 31.24524,19.919603 C 31.20486,20.154417 31.45785,20.373616 31.92491,20.49859 C 31.9249,20.49859 32.15147,20.221682 32.15147,20.221682 C 32.1307,20.212697 32.11879,20.182115 32.10114,20.171335 C 32.06263,20.218375 32.0256,20.297201 32.0256,20.297201 C 31.71124,20.213085 31.51397,20.092704 31.42144,19.944776 C 31.36402,19.938152 31.24524,19.919603 31.24524,19.919603 z M 8.08577,20.095816 C 7.97849,20.098948 7.86389,20.111282 7.75853,20.120989 C 7.75853,20.120989 8.11094,20.423068 8.11094,20.423068 C 8.26904,20.424477 8.43382,20.435327 8.56407,20.473416 C 8.56407,20.473416 9.24376,20.347548 9.24376,20.347548 C 9.14107,20.298256 9.00009,20.284413 8.86615,20.246855 C 8.79217,20.261655 8.66477,20.272028 8.66477,20.272028 C 8.53452,20.23394 8.36976,20.223091 8.21164,20.221682 C 8.21164,20.221682 8.14696,20.147584 8.08577,20.095816 z M 33.73739,20.272028 C 33.67749,20.293762 33.60424,20.307182 33.536,20.322374 C 33.32242,20.369983 33.10143,20.376229 32.85633,20.372721 C 32.78856,20.455554 32.6801,20.574109 32.6801,20.574109 C 32.95529,20.581273 33.198,20.576658 33.4353,20.523763 C 33.55396,20.497339 33.66284,20.462481 33.76256,20.423068 C 33.86229,20.383597 33.96751,20.347416 34.03946,20.297201 C 34.03946,20.297201 33.88019,20.288505 33.73739,20.272028 z M 6.70125,20.49859 C 6.59872,20.612869 6.56759,20.753717 6.62571,20.876188 C 6.62571,20.876189 7.30541,20.750313 7.30541,20.750322 C 7.31231,20.68307 7.36398,20.603591 7.45644,20.548936 C 7.45644,20.548935 7.43564,20.527451 7.43128,20.523763 C 7.43128,20.523754 6.72641,20.674801 6.72641,20.674802 C 6.69975,20.61863 6.69303,20.554947 6.70125,20.49859 z M 8.89133,20.775495 C 8.89321,20.849417 8.84177,20.891904 8.74028,20.951707 C 8.74028,20.951708 9.06753,21.253779 9.06753,21.253789 C 9.38037,21.138602 9.55105,20.977092 9.571,20.800668 C 9.48305,20.89295 9.37007,20.962181 9.1934,21.027227 C 9.1934,21.027221 8.9587,20.832506 8.89133,20.775495 z M 7.40611,21.077575 C 7.20854,21.117084 6.95298,21.178269 6.95298,21.178269 C 7.30912,21.3584 7.87413,21.429238 8.41304,21.379655 C 8.41304,21.379654 8.28805,21.289406 8.18647,21.203443 C 7.90877,21.202381 7.64166,21.139659 7.40611,21.077575 z M 25.78262,22.638321 C 25.66741,22.640076 25.54431,22.652991 25.43021,22.663494 C 25.43021,22.663494 25.78262,22.940392 25.78262,22.9404 C 25.94072,22.941774 26.10548,22.952694 26.23574,22.990747 C 26.23574,22.990747 26.86507,22.839699 26.86507,22.839707 C 26.76906,22.793643 26.65784,22.770924 26.53783,22.739014 C 26.46224,22.754764 26.33644,22.764187 26.33644,22.764187 C 26.20617,22.726135 26.04141,22.715216 25.88331,22.713841 C 25.88331,22.713838 25.82744,22.672799 25.78262,22.638321 z M 15.8895,22.915226 C 15.86662,22.943203 15.83916,22.990747 15.83916,22.990747 C 15.68336,23.002284 15.55156,23.045435 15.4364,23.091441 C 15.4364,23.091446 15.21423,23.071584 15.00843,23.041094 C 14.85599,23.08748 14.70875,23.124221 14.60567,23.192135 C 14.60566,23.192134 15.31053,23.292835 15.31053,23.292828 C 15.4257,23.246823 15.5575,23.203672 15.7133,23.192135 C 15.71331,23.192134 15.96503,22.915226 15.96503,22.915226 C 15.93815,22.914524 15.91633,22.915291 15.8895,22.915226 z M 24.37291,23.041094 C 24.27039,23.155383 24.23925,23.29625 24.29739,23.418694 C 24.29739,23.418694 24.97709,23.267645 24.97708,23.267654 C 24.98399,23.200401 25.01048,23.146122 25.10294,23.091441 C 25.10294,23.091442 25.08214,23.069956 25.07778,23.066268 C 25.07779,23.066259 24.39808,23.192134 24.39808,23.192135 C 24.37142,23.135975 24.3647,23.097451 24.37291,23.041094 z M 16.54402,23.116615 C 16.48126,23.20293 16.41815,23.292828 16.41816,23.292828 C 16.52903,23.34089 16.58876,23.402984 16.61952,23.46904 C 16.61952,23.46904 17.32441,23.569733 17.32439,23.569733 C 17.33415,23.481527 17.29409,23.421702 17.22369,23.343174 C 17.01914,23.311704 16.74539,23.24248 16.74539,23.242481 C 16.71825,23.184195 16.63372,23.158866 16.54402,23.116615 z M 26.563,23.292828 C 26.54332,23.350878 26.47304,23.418214 26.38677,23.46904 C 26.38677,23.46904 26.7392,23.771121 26.7392,23.771121 C 27.03827,23.661011 27.20992,23.503723 27.24267,23.343174 C 27.15467,23.428825 27.01462,23.480224 26.8399,23.54456 C 26.8399,23.54456 26.64299,23.360497 26.563,23.292828 z M 14.35394,23.494213 C 14.31356,23.729079 14.59174,23.973408 15.0588,24.098373 C 15.05881,24.098373 15.28535,23.796295 15.28535,23.796295 C 15.27318,23.791034 15.27175,23.77655 15.26017,23.771121 C 15.21006,23.837969 15.15948,23.896987 15.15948,23.896987 C 14.85131,23.814531 14.65852,23.671628 14.55533,23.519386 C 14.48203,23.508108 14.35394,23.494213 14.35394,23.494213 z M 25.02741,23.594906 C 24.83955,23.641878 24.62465,23.6956 24.62465,23.6956 C 24.98079,23.875699 25.54581,23.971761 26.0847,23.922161 C 26.0847,23.92216 25.9529,23.807645 25.85814,23.720774 C 25.57437,23.719672 25.28851,23.661584 25.05261,23.594906 C 25.04142,23.597697 25.03917,23.59197 25.02741,23.594906 z M 16.82092,23.846641 C 16.76538,23.863573 16.69987,23.884707 16.64471,23.896987 C 16.41584,23.948005 16.20254,23.976642 15.93986,23.972507 C 15.9369,23.977572 15.91779,23.967171 15.91469,23.972507 C 15.85954,24.067031 15.81399,24.173893 15.81399,24.173893 C 16.08916,24.18111 16.30671,24.151269 16.54402,24.098373 C 16.66268,24.071958 16.79671,24.037143 16.89645,23.99768 C 16.99615,23.95826 17.07623,23.947219 17.14818,23.896987 C 17.14818,23.896988 16.98043,23.871184 16.82092,23.846641 z "
       style="opacity:0.75;fill:url(#radialGradient4434);fill-opacity:1;fill-rule:nonzero;stroke:none;stroke-width:0.30000001;stroke-linecap:round;stroke-linejoin:round;stroke-miterlimit:4;stroke-dasharray:none;stroke-opacity:1" />
    <rect
       height="10.004759"
       x="-0.0019644466"
       y="30"
       width="40.001965"
       id="rect3604"
       style="opacity:0.61162792;fill:#555753;fill-opacity:1;fill-rule:nonzero;stroke:none;stroke-width:0.69999999;stroke-linecap:round;stroke-linejoin:miter;stroke-miterlimit:4;stroke-dasharray:none;stroke-opacity:1" />
    <text
       x="12.189939"
       y="39.168156"
       id="text3598"
       style="font-size:12px;font-style:normal;font-weight:normal;fill:#eeeeec;fill-opacity:1;stroke:none;stroke-width:1px;stroke-linecap:butt;stroke-linejoin:miter;stroke-opacity:1;font-family:Bitstream Vera Sans"
       xml:space="preserve"><tspan
         x="12.189939"
         y="39.168156"
         id="tspan3600"
         sodipodi:role="line">Cu</tspan></text>
  </g>
</svg>
