<?xml version="1.0" encoding="UTF-8" standalone="no"?>
<!-- Created with Inkscape (http://www.inkscape.org/) -->
<svg
   xmlns:dc="http://purl.org/dc/elements/1.1/"
   xmlns:cc="http://web.resource.org/cc/"
   xmlns:rdf="http://www.w3.org/1999/02/22-rdf-syntax-ns#"
   xmlns:svg="http://www.w3.org/2000/svg"
   xmlns="http://www.w3.org/2000/svg"
   xmlns:xlink="http://www.w3.org/1999/xlink"
   xmlns:sodipodi="http://sodipodi.sourceforge.net/DTD/sodipodi-0.dtd"
   xmlns:inkscape="http://www.inkscape.org/namespaces/inkscape"
   version="1.0"
   width="40"
   height="40"
   id="svg2193"
   sodipodi:version="0.32"
   inkscape:version="0.45"
   sodipodi:docname="39.svg"
   sodipodi:docbase="/home/johann/Developpement/kdeedu-kalzium/kalzium/files"
   inkscape:output_extension="org.inkscape.output.svg.inkscape"
   sodipodi:modified="true">
  <metadata
     id="metadata91">
    <rdf:RDF>
      <cc:Work
         rdf:about="">
        <dc:format>image/svg+xml</dc:format>
        <dc:type
           rdf:resource="http://purl.org/dc/dcmitype/StillImage" />
      </cc:Work>
    </rdf:RDF>
  </metadata>
  <sodipodi:namedview
     inkscape:window-height="480"
     inkscape:window-width="640"
     inkscape:pageshadow="2"
     inkscape:pageopacity="0.0"
     guidetolerance="10.0"
     gridtolerance="10.0"
     objecttolerance="10.0"
     borderopacity="1.0"
     bordercolor="#666666"
     pagecolor="#ffffff"
     id="base" />
  <defs
     id="defs2195">
    <linearGradient
       id="linearGradient4358">
      <stop
         style="stop-color:#6f6f6f;stop-opacity:1"
         offset="0"
         id="stop4360" />
      <stop
         style="stop-color:#afafaf;stop-opacity:1"
         offset="0.375"
         id="stop4362" />
      <stop
         style="stop-color:#333333;stop-opacity:1"
         offset="1"
         id="stop4364" />
    </linearGradient>
    <linearGradient
       id="linearGradient3343">
      <stop
         style="stop-color:#ffffff;stop-opacity:1"
         offset="0"
         id="stop3345" />
      <stop
         style="stop-color:#ffffff;stop-opacity:0.969697"
         offset="0.75"
         id="stop3353" />
      <stop
         style="stop-color:#e0e0e0;stop-opacity:0"
         offset="1"
         id="stop3347" />
    </linearGradient>
    <linearGradient
       id="linearGradient3366">
      <stop
         style="stop-color:#ef2929;stop-opacity:1"
         offset="0"
         id="stop3368" />
      <stop
         style="stop-color:#ef2929;stop-opacity:0"
         offset="1"
         id="stop3370" />
    </linearGradient>
    <linearGradient
       id="linearGradient3350">
      <stop
         style="stop-color:#bfbfbf;stop-opacity:1"
         offset="0"
         id="stop3352" />
      <stop
         style="stop-color:#eeeeec;stop-opacity:1"
         offset="0.5"
         id="stop3356" />
      <stop
         style="stop-color:#838383;stop-opacity:1"
         offset="1"
         id="stop3354" />
    </linearGradient>
    <linearGradient
       id="linearGradient3332">
      <stop
         style="stop-color:#1f1f1f;stop-opacity:1"
         offset="0"
         id="stop3334" />
      <stop
         style="stop-color:#6a6a69;stop-opacity:1"
         offset="0.625"
         id="stop3338" />
      <stop
         style="stop-color:#eeeeec;stop-opacity:1"
         offset="1"
         id="stop3336" />
    </linearGradient>
    <linearGradient
       id="linearGradient4521">
      <stop
         style="stop-color:#2e3436;stop-opacity:1"
         offset="0"
         id="stop4523" />
      <stop
         style="stop-color:#2e3436;stop-opacity:0"
         offset="1"
         id="stop4525" />
    </linearGradient>
    <linearGradient
       id="linearGradient4511">
      <stop
         style="stop-color:#ffffff;stop-opacity:1"
         offset="0"
         id="stop4513" />
      <stop
         style="stop-color:#e6e6e5;stop-opacity:1"
         offset="0.5"
         id="stop4519" />
      <stop
         style="stop-color:#888a85;stop-opacity:1"
         offset="1"
         id="stop4515" />
    </linearGradient>
    <linearGradient
       id="linearGradient3211">
      <stop
         style="stop-color:#888a85;stop-opacity:1"
         offset="0"
         id="stop3213" />
      <stop
         style="stop-color:#888a85;stop-opacity:0"
         offset="1"
         id="stop3215" />
    </linearGradient>
    <linearGradient
       id="linearGradient3239">
      <stop
         style="stop-color:#eeeeec;stop-opacity:1"
         offset="0"
         id="stop3241" />
      <stop
         style="stop-color:#eeeeec;stop-opacity:0"
         offset="1"
         id="stop3243" />
    </linearGradient>
    <linearGradient
       id="linearGradient3291">
      <stop
         style="stop-color:#000000;stop-opacity:1"
         offset="0"
         id="stop3293" />
      <stop
         style="stop-color:#000000;stop-opacity:0"
         offset="1"
         id="stop3295" />
    </linearGradient>
    <radialGradient
       cx="63.912209"
       cy="115.70919"
       r="63.912209"
       fx="75.857941"
       fy="115.70919"
       id="radialGradient2595"
       xlink:href="#linearGradient3291"
       gradientUnits="userSpaceOnUse"
       gradientTransform="matrix(1,0,0,0.1978018,0,92.821679)" />
    <linearGradient
       x1="11.018672"
       y1="25.580914"
       x2="11.018672"
       y2="42.091286"
       id="linearGradient3251"
       xlink:href="#linearGradient3211"
       gradientUnits="userSpaceOnUse"
       gradientTransform="matrix(1.0931643,0,0,0.8709947,21.650645,-13.123893)" />
    <radialGradient
       cx="15.850687"
       cy="19.807138"
       r="7.5051694"
       fx="15.850687"
       fy="19.807138"
       id="radialGradient4517"
       xlink:href="#linearGradient4511"
       gradientUnits="userSpaceOnUse"
       gradientTransform="matrix(1,0,0,0.4401545,0,9.9021748)" />
    <linearGradient
       x1="-8.0687027"
       y1="-12.875"
       x2="-7.895874"
       y2="-1.28125"
       id="linearGradient4527"
       xlink:href="#linearGradient4521"
       gradientUnits="userSpaceOnUse"
       gradientTransform="translate(24,24)" />
    <radialGradient
       cx="-25.293867"
       cy="-11.41899"
       r="2.3354275"
       fx="-25.293867"
       fy="-11.41899"
       id="radialGradient3330"
       xlink:href="#linearGradient3332"
       gradientUnits="userSpaceOnUse" />
    <linearGradient
       x1="31.34375"
       y1="13.448201"
       x2="35.211559"
       y2="12.03793"
       id="linearGradient3348"
       xlink:href="#linearGradient3350"
       gradientUnits="userSpaceOnUse" />
    <linearGradient
       x1="32.5625"
       y1="19.080051"
       x2="34.6875"
       y2="18.058819"
       id="linearGradient3364"
       xlink:href="#linearGradient3350"
       gradientUnits="userSpaceOnUse" />
    <linearGradient
       x1="35.845745"
       y1="19.484035"
       x2="32.393013"
       y2="17.587116"
       id="linearGradient3372"
       xlink:href="#linearGradient3366"
       gradientUnits="userSpaceOnUse" />
    <radialGradient
       cx="-25.293867"
       cy="-11.41899"
       r="2.3354275"
       fx="-25.293867"
       fy="-11.41899"
       id="radialGradient3380"
       xlink:href="#linearGradient3332"
       gradientUnits="userSpaceOnUse" />
    <linearGradient
       x1="39.047077"
       y1="18.803392"
       x2="39.047077"
       y2="18.393236"
       id="linearGradient3390"
       xlink:href="#linearGradient3332"
       gradientUnits="userSpaceOnUse"
       gradientTransform="translate(-5.328125,-0.265625)" />
    <radialGradient
       cx="14.292458"
       cy="15.37422"
       r="18.625"
       fx="14.292458"
       fy="15.37422"
       id="radialGradient3361"
       xlink:href="#linearGradient3343"
       gradientUnits="userSpaceOnUse"
       gradientTransform="matrix(1.4900093,-9.3032721e-3,4.4752357e-3,0.7167524,-6.6049923,5.3030455)" />
    <linearGradient
       x1="17.154512"
       y1="5.8813572"
       x2="17.579948"
       y2="1.7745711"
       id="linearGradient3378"
       xlink:href="#linearGradient3239"
       gradientUnits="userSpaceOnUse" />
    <linearGradient
       x1="3.8588829"
       y1="27.872631"
       x2="8.999999"
       y2="27.872631"
       id="linearGradient4356"
       xlink:href="#linearGradient4358"
       gradientUnits="userSpaceOnUse" />
    <linearGradient
       x1="-27.629295"
       y1="-11.41899"
       x2="-22.958441"
       y2="-11.41899"
       id="linearGradient3299"
       xlink:href="#linearGradient3239"
       gradientUnits="userSpaceOnUse" />
    <linearGradient
       inkscape:collect="always"
       xlink:href="#linearGradient3239"
       id="linearGradient2244"
       gradientUnits="userSpaceOnUse"
       x1="17.154512"
       y1="5.8813572"
       x2="17.579948"
       y2="1.7745711" />
    <linearGradient
       inkscape:collect="always"
       xlink:href="#linearGradient3332"
       id="linearGradient2252"
       gradientUnits="userSpaceOnUse"
       gradientTransform="translate(-5.328125,-0.265625)"
       x1="39.047077"
       y1="18.803392"
       x2="39.047077"
       y2="18.393236" />
    <radialGradient
       inkscape:collect="always"
       xlink:href="#linearGradient3332"
       id="radialGradient2257"
       gradientUnits="userSpaceOnUse"
       cx="-25.293867"
       cy="-11.41899"
       fx="-25.293867"
       fy="-11.41899"
       r="2.3354275"
       gradientTransform="matrix(0.4378321,0,0,0.4287043,44.805355,24.01971)" />
    <linearGradient
       inkscape:collect="always"
       xlink:href="#linearGradient3239"
       id="linearGradient2262"
       gradientUnits="userSpaceOnUse"
       x1="-27.629295"
       y1="-11.41899"
       x2="-22.958441"
       y2="-11.41899"
       gradientTransform="matrix(0.9227446,0,0,0.9227446,57.101615,24.115391)" />
    <radialGradient
       inkscape:collect="always"
       xlink:href="#linearGradient3332"
       id="radialGradient2265"
       gradientUnits="userSpaceOnUse"
       cx="-25.293867"
       cy="-11.41899"
       fx="-25.293867"
       fy="-11.41899"
       r="2.3354275"
       gradientTransform="matrix(0.9227446,0,0,0.9227446,57.101615,24.115391)" />
    <linearGradient
       inkscape:collect="always"
       xlink:href="#linearGradient3350"
       id="linearGradient2269"
       gradientUnits="userSpaceOnUse"
       x1="32.5625"
       y1="19.080051"
       x2="34.6875"
       y2="18.058819" />
    <linearGradient
       inkscape:collect="always"
       xlink:href="#linearGradient3350"
       id="linearGradient2272"
       gradientUnits="userSpaceOnUse"
       x1="31.34375"
       y1="13.448201"
       x2="35.211559"
       y2="12.03793" />
    <linearGradient
       inkscape:collect="always"
       xlink:href="#linearGradient3366"
       id="linearGradient2275"
       gradientUnits="userSpaceOnUse"
       x1="35.845745"
       y1="19.484035"
       x2="32.393013"
       y2="17.587116" />
    <linearGradient
       inkscape:collect="always"
       xlink:href="#linearGradient4521"
       id="linearGradient2284"
       gradientUnits="userSpaceOnUse"
       gradientTransform="translate(24,24)"
       x1="-8.0687027"
       y1="-12.875"
       x2="-7.895874"
       y2="-1.28125" />
    <radialGradient
       inkscape:collect="always"
       xlink:href="#linearGradient4511"
       id="radialGradient2287"
       gradientUnits="userSpaceOnUse"
       gradientTransform="matrix(1.1467182,0,0,0.4855029,-2.7825856,11.056529)"
       cx="15.850687"
       cy="19.807138"
       fx="15.850687"
       fy="19.807138"
       r="7.5051694" />
    <linearGradient
       inkscape:collect="always"
       xlink:href="#linearGradient3211"
       id="linearGradient2293"
       gradientUnits="userSpaceOnUse"
       gradientTransform="matrix(1.0931643,0,0,0.8709947,21.650645,-13.123893)"
       x1="11.018672"
       y1="25.580914"
       x2="11.018672"
       y2="42.091286" />
    <radialGradient
       inkscape:collect="always"
       xlink:href="#linearGradient3343"
       id="radialGradient2296"
       gradientUnits="userSpaceOnUse"
       gradientTransform="matrix(1.4900093,-9.3032721e-3,4.4752357e-3,0.7167524,-6.6049923,5.3030455)"
       cx="14.292458"
       cy="15.37422"
       fx="14.292458"
       fy="15.37422"
       r="18.625" />
    <radialGradient
       inkscape:collect="always"
       xlink:href="#linearGradient3291"
       id="radialGradient2301"
       gradientUnits="userSpaceOnUse"
       gradientTransform="matrix(0.2772262,0,0,2.2848422e-2,2.70576,27.015371)"
       cx="63.912209"
       cy="115.70919"
       fx="75.857941"
       fy="115.70919"
       r="63.912209" />
    <linearGradient
       inkscape:collect="always"
       xlink:href="#linearGradient4358"
       id="linearGradient2305"
       gradientUnits="userSpaceOnUse"
       x1="3.8588829"
       y1="27.872631"
       x2="8.999999"
       y2="27.872631" />
  </defs>
  <path
     id="use3207"
     style="fill:url(#linearGradient2305);fill-opacity:1;fill-rule:nonzero;stroke:none;stroke-width:1;stroke-linecap:round;stroke-linejoin:miter;stroke-miterlimit:4;stroke-dasharray:none;stroke-opacity:1"
     d="M 3.858883,26.192413 L 3.858883,28.468838 C 3.904348,29.066062 5.015871,29.55285 6.408543,29.55285 C 7.801214,29.55285 8.954534,29.066062 8.999999,28.468838 L 8.999999,26.192413 C 8.954534,26.789637 7.801214,27.276425 6.408543,27.276425 C 5.015871,27.276425 3.904348,26.789637 3.858883,26.192413 z " />
  <use
     xlink:href="#use3207"
     height="40"
     width="40"
     y="0"
     x="0"
     id="use2275"
     transform="translate(26.554169,2.7887165e-8)" />
  <path
     id="path2593"
     style="opacity:0.38139535;fill:url(#radialGradient2301);fill-opacity:1;fill-rule:nonzero;stroke:none;stroke-width:0;stroke-linecap:round;stroke-linejoin:round;stroke-miterlimit:4;stroke-dasharray:none;stroke-dashoffset:4;stroke-opacity:1"
     d="M 38.142038,29.659146 C 38.142038,30.465645 30.209357,31.119443 20.423899,31.119443 C 10.638441,31.119443 2.70576,30.465645 2.70576,29.659146 C 2.70576,28.852647 10.638441,28.19885 20.423899,28.19885 C 30.209357,28.19885 38.142038,28.852647 38.142038,29.659146 L 38.142038,29.659146 z " />
  <path
     id="path2276"
     style="fill:#ffffff;fill-opacity:0.75688076;fill-rule:nonzero;stroke:none;stroke-width:0.5;stroke-linecap:round;stroke-linejoin:round;stroke-miterlimit:4;stroke-dasharray:none;stroke-dashoffset:4;stroke-opacity:1"
     d="M 10.956528,1.0198748 L 10.956528,-1.7748336 L 10.956528,1.0198748 z " />
  <path
     id="rect2168"
     style="fill:#babdb6;fill-opacity:1;fill-rule:nonzero;stroke:none;stroke-width:1.01436031;stroke-linecap:round;stroke-linejoin:miter;stroke-miterlimit:4;stroke-dasharray:none;stroke-opacity:1"
     d="M 3.53125,1.1875 L 1.25,6.8125 L 1.125,6.8125 L 1.125,28.34375 L 38.375,28.34375 L 38.375,6.8125 L 36.15625,1.21875 L 3.53125,1.1875 z " />
  <path
     id="path2360"
     style="fill:url(#radialGradient2296);fill-opacity:1;fill-rule:nonzero;stroke:none;stroke-width:1.01436031;stroke-linecap:round;stroke-linejoin:miter;stroke-miterlimit:4;stroke-dasharray:none;stroke-opacity:1"
     d="M 1.125,6.8125 L 1.125,28.34375 L 29.5625,28.34375 L 29.5625,6.8125 L 1.125,6.8125 z M 29.78125,6.8125 L 29.78125,28.34375 L 38.375,28.34375 L 38.375,6.8125 L 29.78125,6.8125 z " />
  <rect
     id="rect3209"
     style="opacity:0.44174757;fill:url(#linearGradient2293);fill-opacity:1;fill-rule:nonzero;stroke:none;stroke-width:1;stroke-linecap:round;stroke-linejoin:miter;stroke-miterlimit:4;stroke-dasharray:none;stroke-opacity:1"
     y="9.1569481"
     x="30.436779"
     height="14.843052"
     width="6.5181618" />
  <rect
     id="rect1951"
     style="opacity:0.61162792;fill:#555753;fill-opacity:1;fill-rule:nonzero;stroke:none;stroke-width:0.69999999;stroke-linecap:round;stroke-linejoin:miter;stroke-miterlimit:4;stroke-dasharray:none;stroke-opacity:1"
     y="30"
     x="-0.0019645691"
     height="10.004759"
     width="40.001965" />
  <text
     xml:space="preserve"
     id="text2840"
     style="font-size:12px;font-style:normal;font-weight:normal;fill:#eeeeec;fill-opacity:1;stroke:none;stroke-width:1px;stroke-linecap:butt;stroke-linejoin:miter;stroke-opacity:1;font-family:Bitstream Vera Sans"
     y="39.168156"
     x="16.290915"><tspan
       id="tspan2842"
       y="39.168156"
       x="16.290915">Y</tspan></text>
  <path
     id="path3254"
     style="fill:url(#radialGradient2287);fill-opacity:1;fill-rule:nonzero;stroke:none;stroke-width:0.2;stroke-linecap:round;stroke-linejoin:round;stroke-miterlimit:4;stroke-dasharray:none;stroke-opacity:1"
     d="M 24,19.64378 C 24.001097,21.656514 20.147597,23.288403 15.393686,23.288403 C 10.639774,23.288403 6.7862738,21.656514 6.7873713,19.64378 C 6.7862738,17.631047 10.639774,15.999158 15.393686,15.999158 C 20.147597,15.999158 24.001097,17.631047 24,19.64378 z " />
  <path
     id="path4481"
     style="opacity:0.97000002;fill:url(#linearGradient2284);fill-opacity:1;fill-rule:nonzero;stroke:none;stroke-width:0.2;stroke-linecap:round;stroke-linejoin:round;stroke-miterlimit:4;stroke-dasharray:none;stroke-opacity:1"
     d="M 5.71875,11.125 L 5.71875,22.71875 L 24.8125,22.71875 L 24.8125,11.125 L 5.71875,11.125 z " />
  <path
     id="rect3746"
     style="fill:#2e3436;fill-opacity:1;fill-rule:nonzero;stroke:none;stroke-width:0.2;stroke-linecap:round;stroke-linejoin:round;stroke-miterlimit:4;stroke-dasharray:none;stroke-opacity:1"
     d="M 2.3125,10 L 2.3125,24 L 28.3125,24 L 28.3125,10 L 2.3125,10 z M 6.84375,11.15625 L 7.53125,11.15625 C 7.5407908,11.178118 7.5625,11.197268 7.5625,11.21875 C 7.5624999,11.418229 7.38698,11.5625 7.1875,11.5625 C 6.9880199,11.5625 6.8125,11.41823 6.8125,11.21875 C 6.8125,11.197268 6.8342091,11.178118 6.84375,11.15625 z M 8.84375,11.15625 L 9.53125,11.15625 C 9.5407908,11.178118 9.5625,11.197268 9.5625,11.21875 C 9.5624999,11.418229 9.38698,11.5625 9.1875,11.5625 C 8.9880199,11.5625 8.8125,11.41823 8.8125,11.21875 C 8.8125,11.197268 8.8342091,11.178118 8.84375,11.15625 z M 10.84375,11.15625 L 11.53125,11.15625 C 11.540791,11.178118 11.5625,11.197268 11.5625,11.21875 C 11.5625,11.418229 11.38698,11.5625 11.1875,11.5625 C 10.98802,11.5625 10.8125,11.41823 10.8125,11.21875 C 10.8125,11.197268 10.834209,11.178118 10.84375,11.15625 z M 12.84375,11.15625 L 13.53125,11.15625 C 13.540791,11.178118 13.5625,11.197268 13.5625,11.21875 C 13.5625,11.418229 13.38698,11.5625 13.1875,11.5625 C 12.98802,11.5625 12.8125,11.41823 12.8125,11.21875 C 12.8125,11.197268 12.834209,11.178118 12.84375,11.15625 z M 14.84375,11.15625 L 15.53125,11.15625 C 15.540791,11.178118 15.5625,11.197268 15.5625,11.21875 C 15.5625,11.418229 15.38698,11.5625 15.1875,11.5625 C 14.98802,11.5625 14.8125,11.41823 14.8125,11.21875 C 14.8125,11.197268 14.834209,11.178118 14.84375,11.15625 z M 16.84375,11.15625 L 17.53125,11.15625 C 17.540791,11.178118 17.5625,11.197268 17.5625,11.21875 C 17.562501,11.418229 17.38698,11.5625 17.1875,11.5625 C 16.988021,11.5625 16.8125,11.41823 16.8125,11.21875 C 16.812501,11.197268 16.834209,11.178118 16.84375,11.15625 z M 18.84375,11.15625 L 19.53125,11.15625 C 19.540791,11.178118 19.5625,11.197268 19.5625,11.21875 C 19.562501,11.418229 19.38698,11.5625 19.1875,11.5625 C 18.988021,11.5625 18.8125,11.41823 18.8125,11.21875 C 18.812501,11.197268 18.834209,11.178118 18.84375,11.15625 z M 20.84375,11.15625 L 21.53125,11.15625 C 21.540791,11.178118 21.5625,11.197268 21.5625,11.21875 C 21.562501,11.418229 21.38698,11.5625 21.1875,11.5625 C 20.988021,11.5625 20.8125,11.41823 20.8125,11.21875 C 20.812501,11.197268 20.834209,11.178118 20.84375,11.15625 z M 22.84375,11.15625 L 23.53125,11.15625 C 23.540791,11.178118 23.5625,11.197268 23.5625,11.21875 C 23.562501,11.418229 23.38698,11.5625 23.1875,11.5625 C 22.988021,11.5625 22.8125,11.41823 22.8125,11.21875 C 22.812501,11.197268 22.834209,11.178118 22.84375,11.15625 z M 6.0625,11.375 C 6.1057299,11.356705 6.16888,11.375 6.21875,11.375 C 6.4182299,11.374999 6.5625,11.51927 6.5625,11.71875 C 6.5624999,11.918231 6.41823,12.09375 6.21875,12.09375 C 6.0192699,12.09375 5.84375,11.91823 5.84375,11.71875 C 5.8437499,11.569141 5.932811,11.429884 6.0625,11.375 z M 8.0625,11.375 C 8.1057299,11.356705 8.16888,11.375 8.21875,11.375 C 8.4182299,11.374999 8.5625,11.51927 8.5625,11.71875 C 8.5624999,11.918231 8.41823,12.09375 8.21875,12.09375 C 8.0192699,12.09375 7.84375,11.91823 7.84375,11.71875 C 7.8437499,11.569141 7.932811,11.429884 8.0625,11.375 z M 10.0625,11.375 C 10.10573,11.356705 10.16888,11.375 10.21875,11.375 C 10.31849,11.374999 10.403341,11.403341 10.46875,11.46875 C 10.529752,11.529753 10.5625,11.61901 10.5625,11.71875 C 10.5625,11.868361 10.468482,12.003785 10.34375,12.0625 C 10.30052,12.080795 10.26862,12.09375 10.21875,12.09375 C 10.16888,12.09375 10.10573,12.080795 10.0625,12.0625 C 9.9289789,12.003784 9.84375,11.86836 9.84375,11.71875 C 9.8437499,11.66888 9.856705,11.63698 9.875,11.59375 C 9.8930409,11.540315 9.930877,11.50846 9.96875,11.46875 C 10.000914,11.435026 10.019798,11.393072 10.0625,11.375 z M 12.0625,11.375 C 12.10573,11.356705 12.16888,11.375 12.21875,11.375 C 12.41823,11.374999 12.5625,11.51927 12.5625,11.71875 C 12.5625,11.918231 12.41823,12.09375 12.21875,12.09375 C 12.01927,12.09375 11.84375,11.91823 11.84375,11.71875 C 11.84375,11.569141 11.932811,11.429884 12.0625,11.375 z M 14.0625,11.375 C 14.10573,11.356705 14.16888,11.375 14.21875,11.375 C 14.41823,11.374999 14.5625,11.51927 14.5625,11.71875 C 14.5625,11.918231 14.41823,12.09375 14.21875,12.09375 C 14.01927,12.09375 13.84375,11.91823 13.84375,11.71875 C 13.84375,11.569141 13.932811,11.429884 14.0625,11.375 z M 16.0625,11.375 C 16.105731,11.356705 16.16888,11.375 16.21875,11.375 C 16.418231,11.374999 16.5625,11.51927 16.5625,11.71875 C 16.562501,11.918231 16.41823,12.09375 16.21875,12.09375 C 16.019271,12.09375 15.84375,11.91823 15.84375,11.71875 C 15.84375,11.569141 15.932811,11.429884 16.0625,11.375 z M 18.0625,11.375 C 18.105731,11.356705 18.16888,11.375 18.21875,11.375 C 18.418231,11.374999 18.5625,11.51927 18.5625,11.71875 C 18.562501,11.918231 18.41823,12.09375 18.21875,12.09375 C 18.019271,12.09375 17.84375,11.91823 17.84375,11.71875 C 17.843751,11.569141 17.932811,11.429884 18.0625,11.375 z M 20.0625,11.375 C 20.105731,11.356705 20.16888,11.375 20.21875,11.375 C 20.418231,11.374999 20.5625,11.51927 20.5625,11.71875 C 20.562501,11.918231 20.41823,12.09375 20.21875,12.09375 C 20.019271,12.09375 19.84375,11.91823 19.84375,11.71875 C 19.843751,11.569141 19.932811,11.429884 20.0625,11.375 z M 22.0625,11.375 C 22.105731,11.356705 22.16888,11.375 22.21875,11.375 C 22.418231,11.374999 22.5625,11.51927 22.5625,11.71875 C 22.562501,11.918231 22.41823,12.09375 22.21875,12.09375 C 22.019271,12.09375 21.84375,11.91823 21.84375,11.71875 C 21.843751,11.569141 21.932811,11.429884 22.0625,11.375 z M 24.0625,11.375 C 24.105731,11.356705 24.16888,11.375 24.21875,11.375 C 24.418231,11.374999 24.5625,11.51927 24.5625,11.71875 C 24.562501,11.918231 24.41823,12.09375 24.21875,12.09375 C 24.019271,12.09375 23.84375,11.91823 23.84375,11.71875 C 23.843751,11.569141 23.932811,11.429884 24.0625,11.375 z M 7.1875,11.84375 C 7.3869789,11.843752 7.5625,12.01927 7.5625,12.21875 C 7.5624999,12.41823 7.38698,12.5625 7.1875,12.5625 C 6.9880199,12.562499 6.8125,12.41823 6.8125,12.21875 C 6.8124989,12.019271 6.98802,11.84375 7.1875,11.84375 z M 9.1875,11.84375 C 9.3869789,11.843752 9.5625,12.01927 9.5625,12.21875 C 9.5624999,12.41823 9.38698,12.5625 9.1875,12.5625 C 8.9880199,12.562499 8.8125,12.41823 8.8125,12.21875 C 8.8124989,12.019271 8.98802,11.84375 9.1875,11.84375 z M 11.1875,11.84375 C 11.386979,11.843752 11.5625,12.01927 11.5625,12.21875 C 11.5625,12.41823 11.38698,12.5625 11.1875,12.5625 C 10.98802,12.562499 10.8125,12.41823 10.8125,12.21875 C 10.812499,12.019271 10.98802,11.84375 11.1875,11.84375 z M 13.1875,11.84375 C 13.386979,11.843752 13.5625,12.01927 13.5625,12.21875 C 13.5625,12.41823 13.38698,12.5625 13.1875,12.5625 C 12.98802,12.562499 12.8125,12.41823 12.8125,12.21875 C 12.812499,12.019271 12.98802,11.84375 13.1875,11.84375 z M 15.1875,11.84375 C 15.386979,11.843752 15.5625,12.01927 15.5625,12.21875 C 15.5625,12.41823 15.38698,12.5625 15.1875,12.5625 C 14.98802,12.562499 14.8125,12.41823 14.8125,12.21875 C 14.8125,12.019271 14.98802,11.84375 15.1875,11.84375 z M 17.1875,11.84375 C 17.38698,11.843752 17.5625,12.01927 17.5625,12.21875 C 17.562501,12.41823 17.38698,12.5625 17.1875,12.5625 C 16.988021,12.562499 16.8125,12.41823 16.8125,12.21875 C 16.812501,12.019271 16.98802,11.84375 17.1875,11.84375 z M 19.1875,11.84375 C 19.38698,11.843752 19.5625,12.01927 19.5625,12.21875 C 19.562501,12.41823 19.38698,12.5625 19.1875,12.5625 C 18.988021,12.562499 18.8125,12.41823 18.8125,12.21875 C 18.812501,12.019271 18.98802,11.84375 19.1875,11.84375 z M 21.1875,11.84375 C 21.38698,11.843752 21.5625,12.01927 21.5625,12.21875 C 21.562501,12.41823 21.38698,12.5625 21.1875,12.5625 C 20.988021,12.562499 20.8125,12.41823 20.8125,12.21875 C 20.812501,12.019271 20.98802,11.84375 21.1875,11.84375 z M 23.1875,11.84375 C 23.386981,11.843752 23.5625,12.01927 23.5625,12.21875 C 23.562501,12.41823 23.38698,12.5625 23.1875,12.5625 C 22.988021,12.562499 22.8125,12.41823 22.8125,12.21875 C 22.812501,12.019271 22.98802,11.84375 23.1875,11.84375 z M 6.0625,12.375 C 6.1057299,12.356705 6.16888,12.375 6.21875,12.375 C 6.4182299,12.375002 6.5625,12.51927 6.5625,12.71875 C 6.5624999,12.91823 6.41823,13.09375 6.21875,13.09375 C 6.0192699,13.093749 5.84375,12.91823 5.84375,12.71875 C 5.8437499,12.56914 5.932811,12.429884 6.0625,12.375 z M 8.0625,12.375 C 8.1057299,12.356705 8.16888,12.375 8.21875,12.375 C 8.4182299,12.375002 8.5625,12.51927 8.5625,12.71875 C 8.5624999,12.91823 8.41823,13.09375 8.21875,13.09375 C 8.0192699,13.093749 7.84375,12.91823 7.84375,12.71875 C 7.8437499,12.56914 7.932811,12.429884 8.0625,12.375 z M 10.0625,12.375 C 10.10573,12.356705 10.16888,12.375 10.21875,12.375 C 10.31849,12.375001 10.403341,12.403341 10.46875,12.46875 C 10.529752,12.529752 10.5625,12.61901 10.5625,12.71875 C 10.5625,12.86836 10.468482,13.003784 10.34375,13.0625 C 10.30052,13.080795 10.26862,13.09375 10.21875,13.09375 C 10.16888,13.09375 10.10573,13.080795 10.0625,13.0625 C 9.9289789,13.003784 9.84375,12.86836 9.84375,12.71875 C 9.8437499,12.66888 9.856705,12.63698 9.875,12.59375 C 9.8930409,12.540315 9.930877,12.50846 9.96875,12.46875 C 10.000914,12.435026 10.019798,12.393072 10.0625,12.375 z M 12.0625,12.375 C 12.10573,12.356705 12.16888,12.375 12.21875,12.375 C 12.41823,12.375002 12.5625,12.51927 12.5625,12.71875 C 12.5625,12.91823 12.41823,13.09375 12.21875,13.09375 C 12.01927,13.093749 11.84375,12.91823 11.84375,12.71875 C 11.84375,12.56914 11.932811,12.429884 12.0625,12.375 z M 14.0625,12.375 C 14.10573,12.356705 14.16888,12.375 14.21875,12.375 C 14.41823,12.375002 14.5625,12.51927 14.5625,12.71875 C 14.5625,12.91823 14.41823,13.09375 14.21875,13.09375 C 14.01927,13.093749 13.84375,12.91823 13.84375,12.71875 C 13.84375,12.56914 13.932811,12.429884 14.0625,12.375 z M 16.0625,12.375 C 16.105731,12.356705 16.16888,12.375 16.21875,12.375 C 16.418231,12.375002 16.5625,12.51927 16.5625,12.71875 C 16.562501,12.91823 16.41823,13.09375 16.21875,13.09375 C 16.019271,13.093749 15.84375,12.91823 15.84375,12.71875 C 15.84375,12.56914 15.932811,12.429884 16.0625,12.375 z M 18.0625,12.375 C 18.105731,12.356705 18.16888,12.375 18.21875,12.375 C 18.418231,12.375002 18.5625,12.51927 18.5625,12.71875 C 18.562501,12.91823 18.41823,13.09375 18.21875,13.09375 C 18.019271,13.093749 17.84375,12.91823 17.84375,12.71875 C 17.843751,12.56914 17.932811,12.429884 18.0625,12.375 z M 20.0625,12.375 C 20.105731,12.356705 20.16888,12.375 20.21875,12.375 C 20.418231,12.375002 20.5625,12.51927 20.5625,12.71875 C 20.562501,12.91823 20.41823,13.09375 20.21875,13.09375 C 20.019271,13.093749 19.84375,12.91823 19.84375,12.71875 C 19.843751,12.56914 19.932811,12.429884 20.0625,12.375 z M 22.0625,12.375 C 22.105731,12.356705 22.16888,12.375 22.21875,12.375 C 22.418231,12.375002 22.5625,12.51927 22.5625,12.71875 C 22.562501,12.91823 22.41823,13.09375 22.21875,13.09375 C 22.019271,13.093749 21.84375,12.91823 21.84375,12.71875 C 21.843751,12.56914 21.932811,12.429884 22.0625,12.375 z M 24.0625,12.375 C 24.105731,12.356705 24.16888,12.375 24.21875,12.375 C 24.418231,12.375002 24.5625,12.51927 24.5625,12.71875 C 24.562501,12.91823 24.41823,13.09375 24.21875,13.09375 C 24.019271,13.093749 23.84375,12.91823 23.84375,12.71875 C 23.843751,12.56914 23.932811,12.429884 24.0625,12.375 z M 7.1875,12.84375 C 7.3869789,12.843749 7.5625,13.01927 7.5625,13.21875 C 7.5624999,13.418231 7.38698,13.5625 7.1875,13.5625 C 6.9880199,13.5625 6.8125,13.41823 6.8125,13.21875 C 6.8124989,13.019272 6.98802,12.84375 7.1875,12.84375 z M 9.1875,12.84375 C 9.3869789,12.843749 9.5625,13.01927 9.5625,13.21875 C 9.5624999,13.418231 9.38698,13.5625 9.1875,13.5625 C 8.9880199,13.5625 8.8125,13.41823 8.8125,13.21875 C 8.8124989,13.019272 8.98802,12.84375 9.1875,12.84375 z M 11.1875,12.84375 C 11.386979,12.843749 11.5625,13.01927 11.5625,13.21875 C 11.5625,13.418231 11.38698,13.5625 11.1875,13.5625 C 10.98802,13.5625 10.8125,13.41823 10.8125,13.21875 C 10.812499,13.019272 10.98802,12.84375 11.1875,12.84375 z M 13.1875,12.84375 C 13.386979,12.843749 13.5625,13.01927 13.5625,13.21875 C 13.5625,13.418231 13.38698,13.5625 13.1875,13.5625 C 12.98802,13.5625 12.8125,13.41823 12.8125,13.21875 C 12.812499,13.019272 12.98802,12.84375 13.1875,12.84375 z M 15.1875,12.84375 C 15.386979,12.843749 15.5625,13.01927 15.5625,13.21875 C 15.5625,13.418231 15.38698,13.5625 15.1875,13.5625 C 14.98802,13.5625 14.8125,13.41823 14.8125,13.21875 C 14.8125,13.019272 14.98802,12.84375 15.1875,12.84375 z M 17.1875,12.84375 C 17.38698,12.843749 17.5625,13.01927 17.5625,13.21875 C 17.562501,13.418231 17.38698,13.5625 17.1875,13.5625 C 16.988021,13.5625 16.8125,13.41823 16.8125,13.21875 C 16.812501,13.019272 16.98802,12.84375 17.1875,12.84375 z M 19.1875,12.84375 C 19.38698,12.843749 19.5625,13.01927 19.5625,13.21875 C 19.562501,13.418231 19.38698,13.5625 19.1875,13.5625 C 18.988021,13.5625 18.8125,13.41823 18.8125,13.21875 C 18.812501,13.019272 18.98802,12.84375 19.1875,12.84375 z M 21.1875,12.84375 C 21.38698,12.843749 21.5625,13.01927 21.5625,13.21875 C 21.562501,13.418231 21.38698,13.5625 21.1875,13.5625 C 20.988021,13.5625 20.8125,13.41823 20.8125,13.21875 C 20.812501,13.019272 20.98802,12.84375 21.1875,12.84375 z M 23.1875,12.84375 C 23.386981,12.843749 23.5625,13.01927 23.5625,13.21875 C 23.562501,13.418231 23.38698,13.5625 23.1875,13.5625 C 22.988021,13.5625 22.8125,13.41823 22.8125,13.21875 C 22.812501,13.019272 22.98802,12.84375 23.1875,12.84375 z M 6.0625,13.375 C 6.1057299,13.356705 6.16888,13.375 6.21875,13.375 C 6.4182299,13.374999 6.5625,13.51927 6.5625,13.71875 C 6.5624999,13.918231 6.41823,14.09375 6.21875,14.09375 C 6.0192699,14.09375 5.84375,13.91823 5.84375,13.71875 C 5.8437499,13.569141 5.932811,13.429884 6.0625,13.375 z M 8.0625,13.375 C 8.1057299,13.356705 8.16888,13.375 8.21875,13.375 C 8.4182299,13.374999 8.5625,13.51927 8.5625,13.71875 C 8.5624999,13.918231 8.41823,14.09375 8.21875,14.09375 C 8.0192699,14.09375 7.84375,13.91823 7.84375,13.71875 C 7.8437499,13.569141 7.932811,13.429884 8.0625,13.375 z M 10.0625,13.375 C 10.10573,13.356705 10.16888,13.375 10.21875,13.375 C 10.31849,13.374999 10.403341,13.403341 10.46875,13.46875 C 10.529752,13.529753 10.5625,13.61901 10.5625,13.71875 C 10.5625,13.868361 10.468482,14.003785 10.34375,14.0625 C 10.30052,14.080795 10.26862,14.09375 10.21875,14.09375 C 10.16888,14.09375 10.10573,14.080795 10.0625,14.0625 C 9.9289789,14.003784 9.84375,13.86836 9.84375,13.71875 C 9.8437499,13.66888 9.856705,13.63698 9.875,13.59375 C 9.8930409,13.540315 9.930877,13.50846 9.96875,13.46875 C 10.000914,13.435026 10.019798,13.393072 10.0625,13.375 z M 12.0625,13.375 C 12.10573,13.356705 12.16888,13.375 12.21875,13.375 C 12.41823,13.374999 12.5625,13.51927 12.5625,13.71875 C 12.5625,13.918231 12.41823,14.09375 12.21875,14.09375 C 12.01927,14.09375 11.84375,13.91823 11.84375,13.71875 C 11.84375,13.569141 11.932811,13.429884 12.0625,13.375 z M 14.0625,13.375 C 14.10573,13.356705 14.16888,13.375 14.21875,13.375 C 14.41823,13.374999 14.5625,13.51927 14.5625,13.71875 C 14.5625,13.918231 14.41823,14.09375 14.21875,14.09375 C 14.01927,14.09375 13.84375,13.91823 13.84375,13.71875 C 13.84375,13.569141 13.932811,13.429884 14.0625,13.375 z M 16.0625,13.375 C 16.105731,13.356705 16.16888,13.375 16.21875,13.375 C 16.418231,13.374999 16.5625,13.51927 16.5625,13.71875 C 16.562501,13.918231 16.41823,14.09375 16.21875,14.09375 C 16.019271,14.09375 15.84375,13.91823 15.84375,13.71875 C 15.84375,13.569141 15.932811,13.429884 16.0625,13.375 z M 18.0625,13.375 C 18.105731,13.356705 18.16888,13.375 18.21875,13.375 C 18.418231,13.374999 18.5625,13.51927 18.5625,13.71875 C 18.562501,13.918231 18.41823,14.09375 18.21875,14.09375 C 18.019271,14.09375 17.84375,13.91823 17.84375,13.71875 C 17.843751,13.569141 17.932811,13.429884 18.0625,13.375 z M 20.0625,13.375 C 20.105731,13.356705 20.16888,13.375 20.21875,13.375 C 20.418231,13.374999 20.5625,13.51927 20.5625,13.71875 C 20.562501,13.918231 20.41823,14.09375 20.21875,14.09375 C 20.019271,14.09375 19.84375,13.91823 19.84375,13.71875 C 19.843751,13.569141 19.932811,13.429884 20.0625,13.375 z M 22.0625,13.375 C 22.105731,13.356705 22.16888,13.375 22.21875,13.375 C 22.418231,13.374999 22.5625,13.51927 22.5625,13.71875 C 22.562501,13.918231 22.41823,14.09375 22.21875,14.09375 C 22.019271,14.09375 21.84375,13.91823 21.84375,13.71875 C 21.843751,13.569141 21.932811,13.429884 22.0625,13.375 z M 24.0625,13.375 C 24.105731,13.356705 24.16888,13.375 24.21875,13.375 C 24.418231,13.374999 24.5625,13.51927 24.5625,13.71875 C 24.562501,13.918231 24.41823,14.09375 24.21875,14.09375 C 24.019271,14.09375 23.84375,13.91823 23.84375,13.71875 C 23.843751,13.569141 23.932811,13.429884 24.0625,13.375 z M 7.1875,13.84375 C 7.3869789,13.843752 7.5625,14.01927 7.5625,14.21875 C 7.5624999,14.41823 7.38698,14.5625 7.1875,14.5625 C 6.9880199,14.562499 6.8125,14.41823 6.8125,14.21875 C 6.8124989,14.019271 6.98802,13.84375 7.1875,13.84375 z M 9.1875,13.84375 C 9.3869789,13.843752 9.5625,14.01927 9.5625,14.21875 C 9.5624999,14.41823 9.38698,14.5625 9.1875,14.5625 C 8.9880199,14.562499 8.8125,14.41823 8.8125,14.21875 C 8.8124989,14.019271 8.98802,13.84375 9.1875,13.84375 z M 11.1875,13.84375 C 11.386979,13.843752 11.5625,14.01927 11.5625,14.21875 C 11.5625,14.41823 11.38698,14.5625 11.1875,14.5625 C 10.98802,14.562499 10.8125,14.41823 10.8125,14.21875 C 10.812499,14.019271 10.98802,13.84375 11.1875,13.84375 z M 13.1875,13.84375 C 13.386979,13.843752 13.5625,14.01927 13.5625,14.21875 C 13.5625,14.41823 13.38698,14.5625 13.1875,14.5625 C 12.98802,14.562499 12.8125,14.41823 12.8125,14.21875 C 12.812499,14.019271 12.98802,13.84375 13.1875,13.84375 z M 15.1875,13.84375 C 15.386979,13.843752 15.5625,14.01927 15.5625,14.21875 C 15.5625,14.41823 15.38698,14.5625 15.1875,14.5625 C 14.98802,14.562499 14.8125,14.41823 14.8125,14.21875 C 14.8125,14.019271 14.98802,13.84375 15.1875,13.84375 z M 17.1875,13.84375 C 17.38698,13.843752 17.5625,14.01927 17.5625,14.21875 C 17.562501,14.41823 17.38698,14.5625 17.1875,14.5625 C 16.988021,14.562499 16.8125,14.41823 16.8125,14.21875 C 16.812501,14.019271 16.98802,13.84375 17.1875,13.84375 z M 19.1875,13.84375 C 19.38698,13.843752 19.5625,14.01927 19.5625,14.21875 C 19.562501,14.41823 19.38698,14.5625 19.1875,14.5625 C 18.988021,14.562499 18.8125,14.41823 18.8125,14.21875 C 18.812501,14.019271 18.98802,13.84375 19.1875,13.84375 z M 21.1875,13.84375 C 21.38698,13.843752 21.5625,14.01927 21.5625,14.21875 C 21.562501,14.41823 21.38698,14.5625 21.1875,14.5625 C 20.988021,14.562499 20.8125,14.41823 20.8125,14.21875 C 20.812501,14.019271 20.98802,13.84375 21.1875,13.84375 z M 23.1875,13.84375 C 23.386981,13.843752 23.5625,14.01927 23.5625,14.21875 C 23.562501,14.41823 23.38698,14.5625 23.1875,14.5625 C 22.988021,14.562499 22.8125,14.41823 22.8125,14.21875 C 22.812501,14.019271 22.98802,13.84375 23.1875,13.84375 z M 6.0625,14.375 C 6.1057299,14.356705 6.16888,14.375 6.21875,14.375 C 6.4182299,14.375002 6.5625,14.51927 6.5625,14.71875 C 6.5624999,14.91823 6.41823,15.09375 6.21875,15.09375 C 6.0192699,15.093749 5.84375,14.91823 5.84375,14.71875 C 5.8437499,14.56914 5.932811,14.429884 6.0625,14.375 z M 8.0625,14.375 C 8.1057299,14.356705 8.16888,14.375 8.21875,14.375 C 8.4182299,14.375002 8.5625,14.51927 8.5625,14.71875 C 8.5624999,14.91823 8.41823,15.09375 8.21875,15.09375 C 8.0192699,15.093749 7.84375,14.91823 7.84375,14.71875 C 7.8437499,14.56914 7.932811,14.429884 8.0625,14.375 z M 10.0625,14.375 C 10.10573,14.356705 10.16888,14.375 10.21875,14.375 C 10.31849,14.375001 10.403341,14.403341 10.46875,14.46875 C 10.529752,14.529752 10.5625,14.61901 10.5625,14.71875 C 10.5625,14.86836 10.468482,15.003784 10.34375,15.0625 C 10.30052,15.080795 10.26862,15.09375 10.21875,15.09375 C 10.16888,15.09375 10.10573,15.080795 10.0625,15.0625 C 9.9289789,15.003784 9.84375,14.86836 9.84375,14.71875 C 9.8437499,14.66888 9.856705,14.63698 9.875,14.59375 C 9.8930409,14.540315 9.930877,14.50846 9.96875,14.46875 C 10.000914,14.435026 10.019798,14.393072 10.0625,14.375 z M 12.0625,14.375 C 12.10573,14.356705 12.16888,14.375 12.21875,14.375 C 12.41823,14.375002 12.5625,14.51927 12.5625,14.71875 C 12.5625,14.91823 12.41823,15.09375 12.21875,15.09375 C 12.01927,15.093749 11.84375,14.91823 11.84375,14.71875 C 11.84375,14.56914 11.932811,14.429884 12.0625,14.375 z M 14.0625,14.375 C 14.10573,14.356705 14.16888,14.375 14.21875,14.375 C 14.41823,14.375002 14.5625,14.51927 14.5625,14.71875 C 14.5625,14.91823 14.41823,15.09375 14.21875,15.09375 C 14.01927,15.093749 13.84375,14.91823 13.84375,14.71875 C 13.84375,14.56914 13.932811,14.429884 14.0625,14.375 z M 16.0625,14.375 C 16.105731,14.356705 16.16888,14.375 16.21875,14.375 C 16.418231,14.375002 16.5625,14.51927 16.5625,14.71875 C 16.562501,14.91823 16.41823,15.09375 16.21875,15.09375 C 16.019271,15.093749 15.84375,14.91823 15.84375,14.71875 C 15.84375,14.56914 15.932811,14.429884 16.0625,14.375 z M 18.0625,14.375 C 18.105731,14.356705 18.16888,14.375 18.21875,14.375 C 18.418231,14.375002 18.5625,14.51927 18.5625,14.71875 C 18.562501,14.91823 18.41823,15.09375 18.21875,15.09375 C 18.019271,15.093749 17.84375,14.91823 17.84375,14.71875 C 17.843751,14.56914 17.932811,14.429884 18.0625,14.375 z M 20.0625,14.375 C 20.105731,14.356705 20.16888,14.375 20.21875,14.375 C 20.418231,14.375002 20.5625,14.51927 20.5625,14.71875 C 20.562501,14.91823 20.41823,15.09375 20.21875,15.09375 C 20.019271,15.093749 19.84375,14.91823 19.84375,14.71875 C 19.843751,14.56914 19.932811,14.429884 20.0625,14.375 z M 22.0625,14.375 C 22.105731,14.356705 22.16888,14.375 22.21875,14.375 C 22.418231,14.375002 22.5625,14.51927 22.5625,14.71875 C 22.562501,14.91823 22.41823,15.09375 22.21875,15.09375 C 22.019271,15.093749 21.84375,14.91823 21.84375,14.71875 C 21.843751,14.56914 21.932811,14.429884 22.0625,14.375 z M 24.0625,14.375 C 24.105731,14.356705 24.16888,14.375 24.21875,14.375 C 24.418231,14.375002 24.5625,14.51927 24.5625,14.71875 C 24.562501,14.91823 24.41823,15.09375 24.21875,15.09375 C 24.019271,15.093749 23.84375,14.91823 23.84375,14.71875 C 23.843751,14.56914 23.932811,14.429884 24.0625,14.375 z M 7.1875,14.84375 C 7.3869789,14.843749 7.5625,15.01927 7.5625,15.21875 C 7.5624999,15.418231 7.38698,15.5625 7.1875,15.5625 C 6.9880199,15.5625 6.8125,15.41823 6.8125,15.21875 C 6.8124989,15.019272 6.98802,14.84375 7.1875,14.84375 z M 9.1875,14.84375 C 9.3869789,14.843749 9.5625,15.01927 9.5625,15.21875 C 9.5624999,15.418231 9.38698,15.5625 9.1875,15.5625 C 8.9880199,15.5625 8.8125,15.41823 8.8125,15.21875 C 8.8124989,15.019272 8.98802,14.84375 9.1875,14.84375 z M 11.1875,14.84375 C 11.386979,14.843749 11.5625,15.01927 11.5625,15.21875 C 11.5625,15.418231 11.38698,15.5625 11.1875,15.5625 C 10.98802,15.5625 10.8125,15.41823 10.8125,15.21875 C 10.812499,15.019272 10.98802,14.84375 11.1875,14.84375 z M 13.1875,14.84375 C 13.386979,14.843749 13.5625,15.01927 13.5625,15.21875 C 13.5625,15.418231 13.38698,15.5625 13.1875,15.5625 C 12.98802,15.5625 12.8125,15.41823 12.8125,15.21875 C 12.812499,15.019272 12.98802,14.84375 13.1875,14.84375 z M 15.1875,14.84375 C 15.386979,14.843749 15.5625,15.01927 15.5625,15.21875 C 15.5625,15.418231 15.38698,15.5625 15.1875,15.5625 C 14.98802,15.5625 14.8125,15.41823 14.8125,15.21875 C 14.8125,15.019272 14.98802,14.84375 15.1875,14.84375 z M 17.1875,14.84375 C 17.38698,14.843749 17.5625,15.01927 17.5625,15.21875 C 17.562501,15.418231 17.38698,15.5625 17.1875,15.5625 C 16.988021,15.5625 16.8125,15.41823 16.8125,15.21875 C 16.812501,15.019272 16.98802,14.84375 17.1875,14.84375 z M 19.1875,14.84375 C 19.38698,14.843749 19.5625,15.01927 19.5625,15.21875 C 19.562501,15.418231 19.38698,15.5625 19.1875,15.5625 C 18.988021,15.5625 18.8125,15.41823 18.8125,15.21875 C 18.812501,15.019272 18.98802,14.84375 19.1875,14.84375 z M 21.1875,14.84375 C 21.38698,14.843749 21.5625,15.01927 21.5625,15.21875 C 21.562501,15.418231 21.38698,15.5625 21.1875,15.5625 C 20.988021,15.5625 20.8125,15.41823 20.8125,15.21875 C 20.812501,15.019272 20.98802,14.84375 21.1875,14.84375 z M 23.1875,14.84375 C 23.386981,14.843749 23.5625,15.01927 23.5625,15.21875 C 23.562501,15.418231 23.38698,15.5625 23.1875,15.5625 C 22.988021,15.5625 22.8125,15.41823 22.8125,15.21875 C 22.812501,15.019272 22.98802,14.84375 23.1875,14.84375 z M 6.0625,15.375 C 6.1057299,15.356705 6.16888,15.375 6.21875,15.375 C 6.4182299,15.374999 6.5625,15.51927 6.5625,15.71875 C 6.5624999,15.918231 6.41823,16.09375 6.21875,16.09375 C 6.0192699,16.093751 5.84375,15.91823 5.84375,15.71875 C 5.8437499,15.569141 5.932811,15.429884 6.0625,15.375 z M 8.0625,15.375 C 8.1057299,15.356705 8.16888,15.375 8.21875,15.375 C 8.4182299,15.374999 8.5625,15.51927 8.5625,15.71875 C 8.5624999,15.918231 8.41823,16.09375 8.21875,16.09375 C 8.0192699,16.093751 7.84375,15.91823 7.84375,15.71875 C 7.8437499,15.569141 7.932811,15.429884 8.0625,15.375 z M 10.0625,15.375 C 10.10573,15.356705 10.16888,15.375 10.21875,15.375 C 10.31849,15.374999 10.403341,15.403341 10.46875,15.46875 C 10.529752,15.529753 10.5625,15.61901 10.5625,15.71875 C 10.5625,15.868361 10.468482,16.003785 10.34375,16.0625 C 10.30052,16.080796 10.26862,16.09375 10.21875,16.09375 C 10.16888,16.093751 10.10573,16.080795 10.0625,16.0625 C 9.9289789,16.003785 9.84375,15.86836 9.84375,15.71875 C 9.8437499,15.66888 9.856705,15.63698 9.875,15.59375 C 9.8930409,15.540315 9.930877,15.50846 9.96875,15.46875 C 10.000914,15.435026 10.019798,15.393072 10.0625,15.375 z M 12.0625,15.375 C 12.10573,15.356705 12.16888,15.375 12.21875,15.375 C 12.41823,15.374999 12.5625,15.51927 12.5625,15.71875 C 12.5625,15.918231 12.41823,16.09375 12.21875,16.09375 C 12.01927,16.093751 11.84375,15.91823 11.84375,15.71875 C 11.84375,15.569141 11.932811,15.429884 12.0625,15.375 z M 14.0625,15.375 C 14.10573,15.356705 14.16888,15.375 14.21875,15.375 C 14.41823,15.374999 14.5625,15.51927 14.5625,15.71875 C 14.5625,15.918231 14.41823,16.09375 14.21875,16.09375 C 14.01927,16.093751 13.84375,15.91823 13.84375,15.71875 C 13.84375,15.569141 13.932811,15.429884 14.0625,15.375 z M 16.0625,15.375 C 16.105731,15.356705 16.16888,15.375 16.21875,15.375 C 16.418231,15.374999 16.5625,15.51927 16.5625,15.71875 C 16.562501,15.918231 16.41823,16.09375 16.21875,16.09375 C 16.019271,16.093751 15.84375,15.91823 15.84375,15.71875 C 15.84375,15.569141 15.932811,15.429884 16.0625,15.375 z M 18.0625,15.375 C 18.105731,15.356705 18.16888,15.375 18.21875,15.375 C 18.418231,15.374999 18.5625,15.51927 18.5625,15.71875 C 18.562501,15.918231 18.41823,16.09375 18.21875,16.09375 C 18.019271,16.093751 17.84375,15.91823 17.84375,15.71875 C 17.843751,15.569141 17.932811,15.429884 18.0625,15.375 z M 20.0625,15.375 C 20.105731,15.356705 20.16888,15.375 20.21875,15.375 C 20.418231,15.374999 20.5625,15.51927 20.5625,15.71875 C 20.562501,15.918231 20.41823,16.09375 20.21875,16.09375 C 20.019271,16.093751 19.84375,15.91823 19.84375,15.71875 C 19.843751,15.569141 19.932811,15.429884 20.0625,15.375 z M 22.0625,15.375 C 22.105731,15.356705 22.16888,15.375 22.21875,15.375 C 22.418231,15.374999 22.5625,15.51927 22.5625,15.71875 C 22.562501,15.918231 22.41823,16.09375 22.21875,16.09375 C 22.019271,16.093751 21.84375,15.91823 21.84375,15.71875 C 21.843751,15.569141 21.932811,15.429884 22.0625,15.375 z M 24.0625,15.375 C 24.105731,15.356705 24.16888,15.375 24.21875,15.375 C 24.418231,15.374999 24.5625,15.51927 24.5625,15.71875 C 24.562501,15.918231 24.41823,16.09375 24.21875,16.09375 C 24.019271,16.093751 23.84375,15.91823 23.84375,15.71875 C 23.843751,15.569141 23.932811,15.429884 24.0625,15.375 z M 7.1875,15.84375 C 7.3869789,15.843752 7.5625,16.01927 7.5625,16.21875 C 7.5624999,16.418231 7.38698,16.5625 7.1875,16.5625 C 6.9880199,16.5625 6.8125,16.41823 6.8125,16.21875 C 6.8124989,16.019272 6.98802,15.84375 7.1875,15.84375 z M 9.1875,15.84375 C 9.3869789,15.843752 9.5625,16.01927 9.5625,16.21875 C 9.5624999,16.418231 9.38698,16.5625 9.1875,16.5625 C 8.9880199,16.5625 8.8125,16.41823 8.8125,16.21875 C 8.8124989,16.019272 8.98802,15.84375 9.1875,15.84375 z M 11.1875,15.84375 C 11.386979,15.843752 11.5625,16.01927 11.5625,16.21875 C 11.5625,16.418231 11.38698,16.5625 11.1875,16.5625 C 10.98802,16.5625 10.8125,16.41823 10.8125,16.21875 C 10.812499,16.019272 10.98802,15.84375 11.1875,15.84375 z M 13.1875,15.84375 C 13.386979,15.843752 13.5625,16.01927 13.5625,16.21875 C 13.5625,16.418231 13.38698,16.5625 13.1875,16.5625 C 12.98802,16.5625 12.8125,16.41823 12.8125,16.21875 C 12.812499,16.019272 12.98802,15.84375 13.1875,15.84375 z M 15.1875,15.84375 C 15.386979,15.843752 15.5625,16.01927 15.5625,16.21875 C 15.5625,16.418231 15.38698,16.5625 15.1875,16.5625 C 14.98802,16.5625 14.8125,16.41823 14.8125,16.21875 C 14.8125,16.019272 14.98802,15.84375 15.1875,15.84375 z M 17.1875,15.84375 C 17.38698,15.843752 17.5625,16.01927 17.5625,16.21875 C 17.562501,16.418231 17.38698,16.5625 17.1875,16.5625 C 16.988021,16.5625 16.8125,16.41823 16.8125,16.21875 C 16.812501,16.019272 16.98802,15.84375 17.1875,15.84375 z M 19.1875,15.84375 C 19.38698,15.843752 19.5625,16.01927 19.5625,16.21875 C 19.562501,16.418231 19.38698,16.5625 19.1875,16.5625 C 18.988021,16.5625 18.8125,16.41823 18.8125,16.21875 C 18.812501,16.019272 18.98802,15.84375 19.1875,15.84375 z M 21.1875,15.84375 C 21.38698,15.843752 21.5625,16.01927 21.5625,16.21875 C 21.562501,16.418231 21.38698,16.5625 21.1875,16.5625 C 20.988021,16.5625 20.8125,16.41823 20.8125,16.21875 C 20.812501,16.019272 20.98802,15.84375 21.1875,15.84375 z M 23.1875,15.84375 C 23.386981,15.843752 23.5625,16.01927 23.5625,16.21875 C 23.562501,16.418231 23.38698,16.5625 23.1875,16.5625 C 22.988021,16.5625 22.8125,16.41823 22.8125,16.21875 C 22.812501,16.019272 22.98802,15.84375 23.1875,15.84375 z M 6.0625,16.375 C 6.1057299,16.356706 6.16888,16.375 6.21875,16.375 C 6.4182299,16.375003 6.5625,16.51927 6.5625,16.71875 C 6.5624999,16.918231 6.41823,17.09375 6.21875,17.09375 C 6.0192699,17.09375 5.84375,16.91823 5.84375,16.71875 C 5.8437499,16.569141 5.932811,16.429884 6.0625,16.375 z M 8.0625,16.375 C 8.1057299,16.356706 8.16888,16.375 8.21875,16.375 C 8.4182299,16.375003 8.5625,16.51927 8.5625,16.71875 C 8.5624999,16.918231 8.41823,17.09375 8.21875,17.09375 C 8.0192699,17.09375 7.84375,16.91823 7.84375,16.71875 C 7.8437499,16.569141 7.932811,16.429884 8.0625,16.375 z M 10.0625,16.375 C 10.10573,16.356706 10.16888,16.375 10.21875,16.375 C 10.41823,16.375003 10.5625,16.51927 10.5625,16.71875 C 10.5625,16.918231 10.41823,17.09375 10.21875,17.09375 C 10.019269,17.09375 9.84375,16.91823 9.84375,16.71875 C 9.8437499,16.569141 9.9328112,16.429884 10.0625,16.375 z M 12.0625,16.375 C 12.10573,16.356706 12.16888,16.375 12.21875,16.375 C 12.41823,16.375003 12.5625,16.51927 12.5625,16.71875 C 12.5625,16.918231 12.41823,17.09375 12.21875,17.09375 C 12.01927,17.09375 11.84375,16.91823 11.84375,16.71875 C 11.84375,16.569141 11.932811,16.429884 12.0625,16.375 z M 14.0625,16.375 C 14.10573,16.356706 14.16888,16.375 14.21875,16.375 C 14.41823,16.375003 14.5625,16.51927 14.5625,16.71875 C 14.5625,16.918231 14.41823,17.09375 14.21875,17.09375 C 14.01927,17.09375 13.84375,16.91823 13.84375,16.71875 C 13.84375,16.569141 13.932811,16.429884 14.0625,16.375 z M 16.0625,16.375 C 16.105731,16.356706 16.16888,16.375 16.21875,16.375 C 16.418231,16.375003 16.5625,16.51927 16.5625,16.71875 C 16.562501,16.918231 16.41823,17.09375 16.21875,17.09375 C 16.019271,17.09375 15.84375,16.91823 15.84375,16.71875 C 15.84375,16.569141 15.932811,16.429884 16.0625,16.375 z M 18.0625,16.375 C 18.105731,16.356706 18.16888,16.375 18.21875,16.375 C 18.418231,16.375003 18.5625,16.51927 18.5625,16.71875 C 18.562501,16.918231 18.41823,17.09375 18.21875,17.09375 C 18.019271,17.09375 17.84375,16.91823 17.84375,16.71875 C 17.843751,16.569141 17.932811,16.429884 18.0625,16.375 z M 20.0625,16.375 C 20.105731,16.356706 20.16888,16.375 20.21875,16.375 C 20.418231,16.375003 20.5625,16.51927 20.5625,16.71875 C 20.562501,16.918231 20.41823,17.09375 20.21875,17.09375 C 20.019271,17.09375 19.84375,16.91823 19.84375,16.71875 C 19.843751,16.569141 19.932811,16.429884 20.0625,16.375 z M 22.0625,16.375 C 22.105731,16.356706 22.16888,16.375 22.21875,16.375 C 22.418231,16.375003 22.5625,16.51927 22.5625,16.71875 C 22.562501,16.918231 22.41823,17.09375 22.21875,17.09375 C 22.019271,17.09375 21.84375,16.91823 21.84375,16.71875 C 21.843751,16.569141 21.932811,16.429884 22.0625,16.375 z M 24.0625,16.375 C 24.105731,16.356706 24.16888,16.375 24.21875,16.375 C 24.418231,16.375003 24.5625,16.51927 24.5625,16.71875 C 24.562501,16.918231 24.41823,17.09375 24.21875,17.09375 C 24.019271,17.09375 23.84375,16.91823 23.84375,16.71875 C 23.843751,16.569141 23.932811,16.429884 24.0625,16.375 z M 7.1875,16.84375 C 7.3869789,16.84375 7.5625,17.01927 7.5625,17.21875 C 7.5624999,17.418232 7.38698,17.5625 7.1875,17.5625 C 6.9880199,17.562501 6.8125,17.41823 6.8125,17.21875 C 6.8124989,17.019273 6.98802,16.84375 7.1875,16.84375 z M 9.1875,16.84375 C 9.3869789,16.84375 9.5625,17.01927 9.5625,17.21875 C 9.5624999,17.418232 9.38698,17.5625 9.1875,17.5625 C 8.9880199,17.562501 8.8125,17.41823 8.8125,17.21875 C 8.8124989,17.019273 8.98802,16.84375 9.1875,16.84375 z M 11.1875,16.84375 C 11.386979,16.84375 11.5625,17.01927 11.5625,17.21875 C 11.5625,17.418232 11.38698,17.5625 11.1875,17.5625 C 10.98802,17.562501 10.8125,17.41823 10.8125,17.21875 C 10.812499,17.019273 10.98802,16.84375 11.1875,16.84375 z M 13.1875,16.84375 C 13.386979,16.84375 13.5625,17.01927 13.5625,17.21875 C 13.5625,17.418232 13.38698,17.5625 13.1875,17.5625 C 12.98802,17.562501 12.8125,17.41823 12.8125,17.21875 C 12.812499,17.019273 12.98802,16.84375 13.1875,16.84375 z M 15.1875,16.84375 C 15.386979,16.84375 15.5625,17.01927 15.5625,17.21875 C 15.5625,17.418232 15.38698,17.5625 15.1875,17.5625 C 14.98802,17.562501 14.8125,17.41823 14.8125,17.21875 C 14.8125,17.019273 14.98802,16.84375 15.1875,16.84375 z M 17.1875,16.84375 C 17.38698,16.84375 17.5625,17.01927 17.5625,17.21875 C 17.562501,17.418232 17.38698,17.5625 17.1875,17.5625 C 16.988021,17.562501 16.8125,17.41823 16.8125,17.21875 C 16.812501,17.019273 16.98802,16.84375 17.1875,16.84375 z M 19.1875,16.84375 C 19.38698,16.84375 19.5625,17.01927 19.5625,17.21875 C 19.562501,17.418232 19.38698,17.5625 19.1875,17.5625 C 18.988021,17.562501 18.8125,17.41823 18.8125,17.21875 C 18.812501,17.019273 18.98802,16.84375 19.1875,16.84375 z M 21.1875,16.84375 C 21.38698,16.84375 21.5625,17.01927 21.5625,17.21875 C 21.562501,17.418232 21.38698,17.5625 21.1875,17.5625 C 20.988021,17.562501 20.8125,17.41823 20.8125,17.21875 C 20.812501,17.019273 20.98802,16.84375 21.1875,16.84375 z M 23.1875,16.84375 C 23.386981,16.84375 23.5625,17.01927 23.5625,17.21875 C 23.562501,17.418232 23.38698,17.5625 23.1875,17.5625 C 22.988021,17.562501 22.8125,17.41823 22.8125,17.21875 C 22.812501,17.019273 22.98802,16.84375 23.1875,16.84375 z M 6.0625,17.375 C 6.1057299,17.356706 6.16888,17.375 6.21875,17.375 C 6.4182299,17.375 6.5625,17.51927 6.5625,17.71875 C 6.5624999,17.918232 6.41823,18.09375 6.21875,18.09375 C 6.0192699,18.093751 5.84375,17.91823 5.84375,17.71875 C 5.8437499,17.569142 5.932811,17.429884 6.0625,17.375 z M 8.0625,17.375 C 8.1057299,17.356706 8.16888,17.375 8.21875,17.375 C 8.4182299,17.375 8.5625,17.51927 8.5625,17.71875 C 8.5624999,17.918232 8.41823,18.09375 8.21875,18.09375 C 8.0192699,18.093751 7.84375,17.91823 7.84375,17.71875 C 7.8437499,17.569142 7.932811,17.429884 8.0625,17.375 z M 10.0625,17.375 C 10.10573,17.356706 10.16888,17.375 10.21875,17.375 C 10.41823,17.375 10.5625,17.51927 10.5625,17.71875 C 10.5625,17.918232 10.41823,18.09375 10.21875,18.09375 C 10.019269,18.093751 9.84375,17.91823 9.84375,17.71875 C 9.8437499,17.569142 9.9328112,17.429884 10.0625,17.375 z M 12.0625,17.375 C 12.10573,17.356706 12.16888,17.375 12.21875,17.375 C 12.41823,17.375 12.5625,17.51927 12.5625,17.71875 C 12.5625,17.918232 12.41823,18.09375 12.21875,18.09375 C 12.01927,18.093751 11.84375,17.91823 11.84375,17.71875 C 11.84375,17.569142 11.932811,17.429884 12.0625,17.375 z M 14.0625,17.375 C 14.10573,17.356706 14.16888,17.375 14.21875,17.375 C 14.41823,17.375 14.5625,17.51927 14.5625,17.71875 C 14.5625,17.918232 14.41823,18.09375 14.21875,18.09375 C 14.01927,18.093751 13.84375,17.91823 13.84375,17.71875 C 13.84375,17.569142 13.932811,17.429884 14.0625,17.375 z M 16.0625,17.375 C 16.105731,17.356706 16.16888,17.375 16.21875,17.375 C 16.418231,17.375 16.5625,17.51927 16.5625,17.71875 C 16.562501,17.918232 16.41823,18.09375 16.21875,18.09375 C 16.019271,18.093751 15.84375,17.91823 15.84375,17.71875 C 15.84375,17.569142 15.932811,17.429884 16.0625,17.375 z M 18.0625,17.375 C 18.105731,17.356706 18.16888,17.375 18.21875,17.375 C 18.418231,17.375 18.5625,17.51927 18.5625,17.71875 C 18.562501,17.918232 18.41823,18.09375 18.21875,18.09375 C 18.019271,18.093751 17.84375,17.91823 17.84375,17.71875 C 17.843751,17.569142 17.932811,17.429884 18.0625,17.375 z M 20.0625,17.375 C 20.105731,17.356706 20.16888,17.375 20.21875,17.375 C 20.418231,17.375 20.5625,17.51927 20.5625,17.71875 C 20.562501,17.918232 20.41823,18.09375 20.21875,18.09375 C 20.019271,18.093751 19.84375,17.91823 19.84375,17.71875 C 19.843751,17.569142 19.932811,17.429884 20.0625,17.375 z M 22.0625,17.375 C 22.105731,17.356706 22.16888,17.375 22.21875,17.375 C 22.418231,17.375 22.5625,17.51927 22.5625,17.71875 C 22.562501,17.918232 22.41823,18.09375 22.21875,18.09375 C 22.019271,18.093751 21.84375,17.91823 21.84375,17.71875 C 21.843751,17.569142 21.932811,17.429884 22.0625,17.375 z M 24.0625,17.375 C 24.105731,17.356706 24.16888,17.375 24.21875,17.375 C 24.418231,17.375 24.5625,17.51927 24.5625,17.71875 C 24.562501,17.918232 24.41823,18.09375 24.21875,18.09375 C 24.019271,18.093751 23.84375,17.91823 23.84375,17.71875 C 23.843751,17.569142 23.932811,17.429884 24.0625,17.375 z M 7.1875,17.84375 C 7.3869789,17.843753 7.5625,18.01927 7.5625,18.21875 C 7.5624999,18.418231 7.38698,18.5625 7.1875,18.5625 C 6.9880199,18.5625 6.8125,18.41823 6.8125,18.21875 C 6.8124989,18.019272 6.98802,17.84375 7.1875,17.84375 z M 9.1875,17.84375 C 9.3869789,17.843753 9.5625,18.01927 9.5625,18.21875 C 9.5624999,18.418231 9.38698,18.5625 9.1875,18.5625 C 8.9880199,18.5625 8.8125,18.41823 8.8125,18.21875 C 8.8124989,18.019272 8.98802,17.84375 9.1875,17.84375 z M 11.1875,17.84375 C 11.386979,17.843753 11.5625,18.01927 11.5625,18.21875 C 11.5625,18.418231 11.38698,18.5625 11.1875,18.5625 C 10.98802,18.5625 10.8125,18.41823 10.8125,18.21875 C 10.812499,18.019272 10.98802,17.84375 11.1875,17.84375 z M 13.1875,17.84375 C 13.386979,17.843753 13.5625,18.01927 13.5625,18.21875 C 13.5625,18.418231 13.38698,18.5625 13.1875,18.5625 C 12.98802,18.5625 12.8125,18.41823 12.8125,18.21875 C 12.812499,18.019272 12.98802,17.84375 13.1875,17.84375 z M 15.1875,17.84375 C 15.386979,17.843753 15.5625,18.01927 15.5625,18.21875 C 15.5625,18.418231 15.38698,18.5625 15.1875,18.5625 C 14.98802,18.5625 14.8125,18.41823 14.8125,18.21875 C 14.8125,18.019272 14.98802,17.84375 15.1875,17.84375 z M 17.1875,17.84375 C 17.38698,17.843753 17.5625,18.01927 17.5625,18.21875 C 17.562501,18.418231 17.38698,18.5625 17.1875,18.5625 C 16.988021,18.5625 16.8125,18.41823 16.8125,18.21875 C 16.812501,18.019272 16.98802,17.84375 17.1875,17.84375 z M 19.1875,17.84375 C 19.38698,17.843753 19.5625,18.01927 19.5625,18.21875 C 19.562501,18.418231 19.38698,18.5625 19.1875,18.5625 C 18.988021,18.5625 18.8125,18.41823 18.8125,18.21875 C 18.812501,18.019272 18.98802,17.84375 19.1875,17.84375 z M 21.1875,17.84375 C 21.38698,17.843753 21.5625,18.01927 21.5625,18.21875 C 21.562501,18.418231 21.38698,18.5625 21.1875,18.5625 C 20.988021,18.5625 20.8125,18.41823 20.8125,18.21875 C 20.812501,18.019272 20.98802,17.84375 21.1875,17.84375 z M 23.1875,17.84375 C 23.386981,17.843753 23.5625,18.01927 23.5625,18.21875 C 23.562501,18.418231 23.38698,18.5625 23.1875,18.5625 C 22.988021,18.5625 22.8125,18.41823 22.8125,18.21875 C 22.812501,18.019272 22.98802,17.84375 23.1875,17.84375 z M 6.0625,18.375 C 6.1057299,18.356706 6.16888,18.375 6.21875,18.375 C 6.4182299,18.375003 6.5625,18.51927 6.5625,18.71875 C 6.5624999,18.918231 6.41823,19.09375 6.21875,19.09375 C 6.0192699,19.09375 5.84375,18.91823 5.84375,18.71875 C 5.8437499,18.569141 5.932811,18.429884 6.0625,18.375 z M 8.0625,18.375 C 8.1057299,18.356706 8.16888,18.375 8.21875,18.375 C 8.4182299,18.375003 8.5625,18.51927 8.5625,18.71875 C 8.5624999,18.918231 8.41823,19.09375 8.21875,19.09375 C 8.0192699,19.09375 7.84375,18.91823 7.84375,18.71875 C 7.8437499,18.569141 7.932811,18.429884 8.0625,18.375 z M 10.0625,18.375 C 10.10573,18.356706 10.16888,18.375 10.21875,18.375 C 10.41823,18.375003 10.5625,18.51927 10.5625,18.71875 C 10.5625,18.918231 10.41823,19.09375 10.21875,19.09375 C 10.019269,19.09375 9.84375,18.91823 9.84375,18.71875 C 9.8437499,18.569141 9.9328112,18.429884 10.0625,18.375 z M 12.0625,18.375 C 12.10573,18.356706 12.16888,18.375 12.21875,18.375 C 12.41823,18.375003 12.5625,18.51927 12.5625,18.71875 C 12.5625,18.918231 12.41823,19.09375 12.21875,19.09375 C 12.01927,19.09375 11.84375,18.91823 11.84375,18.71875 C 11.84375,18.569141 11.932811,18.429884 12.0625,18.375 z M 14.0625,18.375 C 14.10573,18.356706 14.16888,18.375 14.21875,18.375 C 14.41823,18.375003 14.5625,18.51927 14.5625,18.71875 C 14.5625,18.918231 14.41823,19.09375 14.21875,19.09375 C 14.01927,19.09375 13.84375,18.91823 13.84375,18.71875 C 13.84375,18.569141 13.932811,18.429884 14.0625,18.375 z M 16.0625,18.375 C 16.105731,18.356706 16.16888,18.375 16.21875,18.375 C 16.418231,18.375003 16.5625,18.51927 16.5625,18.71875 C 16.562501,18.918231 16.41823,19.09375 16.21875,19.09375 C 16.019271,19.09375 15.84375,18.91823 15.84375,18.71875 C 15.84375,18.569141 15.932811,18.429884 16.0625,18.375 z M 18.0625,18.375 C 18.105731,18.356706 18.16888,18.375 18.21875,18.375 C 18.418231,18.375003 18.5625,18.51927 18.5625,18.71875 C 18.562501,18.918231 18.41823,19.09375 18.21875,19.09375 C 18.019271,19.09375 17.84375,18.91823 17.84375,18.71875 C 17.843751,18.569141 17.932811,18.429884 18.0625,18.375 z M 20.0625,18.375 C 20.105731,18.356706 20.16888,18.375 20.21875,18.375 C 20.418231,18.375003 20.5625,18.51927 20.5625,18.71875 C 20.562501,18.918231 20.41823,19.09375 20.21875,19.09375 C 20.019271,19.09375 19.84375,18.91823 19.84375,18.71875 C 19.843751,18.569141 19.932811,18.429884 20.0625,18.375 z M 22.0625,18.375 C 22.105731,18.356706 22.16888,18.375 22.21875,18.375 C 22.418231,18.375003 22.5625,18.51927 22.5625,18.71875 C 22.562501,18.918231 22.41823,19.09375 22.21875,19.09375 C 22.019271,19.09375 21.84375,18.91823 21.84375,18.71875 C 21.843751,18.569141 21.932811,18.429884 22.0625,18.375 z M 24.0625,18.375 C 24.105731,18.356706 24.16888,18.375 24.21875,18.375 C 24.418231,18.375003 24.5625,18.51927 24.5625,18.71875 C 24.562501,18.918231 24.41823,19.09375 24.21875,19.09375 C 24.019271,19.09375 23.84375,18.91823 23.84375,18.71875 C 23.843751,18.569141 23.932811,18.429884 24.0625,18.375 z M 7.1875,18.84375 C 7.3869789,18.843752 7.5625,19.01927 7.5625,19.21875 C 7.5624999,19.41823 7.38698,19.5625 7.1875,19.5625 C 6.9880199,19.562499 6.8125,19.41823 6.8125,19.21875 C 6.8124989,19.019271 6.98802,18.84375 7.1875,18.84375 z M 9.1875,18.84375 C 9.3869789,18.843752 9.5625,19.01927 9.5625,19.21875 C 9.5624999,19.41823 9.38698,19.5625 9.1875,19.5625 C 8.9880199,19.562499 8.8125,19.41823 8.8125,19.21875 C 8.8124989,19.019271 8.98802,18.84375 9.1875,18.84375 z M 11.1875,18.84375 C 11.386979,18.843752 11.5625,19.01927 11.5625,19.21875 C 11.5625,19.41823 11.38698,19.5625 11.1875,19.5625 C 10.98802,19.562499 10.8125,19.41823 10.8125,19.21875 C 10.812499,19.019271 10.98802,18.84375 11.1875,18.84375 z M 13.1875,18.84375 C 13.386979,18.843752 13.5625,19.01927 13.5625,19.21875 C 13.5625,19.41823 13.38698,19.5625 13.1875,19.5625 C 12.98802,19.562499 12.8125,19.41823 12.8125,19.21875 C 12.812499,19.019271 12.98802,18.84375 13.1875,18.84375 z M 15.1875,18.84375 C 15.386979,18.843752 15.5625,19.01927 15.5625,19.21875 C 15.5625,19.41823 15.38698,19.5625 15.1875,19.5625 C 14.98802,19.562499 14.8125,19.41823 14.8125,19.21875 C 14.8125,19.019271 14.98802,18.84375 15.1875,18.84375 z M 17.1875,18.84375 C 17.38698,18.843752 17.5625,19.01927 17.5625,19.21875 C 17.562501,19.41823 17.38698,19.5625 17.1875,19.5625 C 16.988021,19.562499 16.8125,19.41823 16.8125,19.21875 C 16.812501,19.019271 16.98802,18.84375 17.1875,18.84375 z M 19.1875,18.84375 C 19.38698,18.843752 19.5625,19.01927 19.5625,19.21875 C 19.562501,19.41823 19.38698,19.5625 19.1875,19.5625 C 18.988021,19.562499 18.8125,19.41823 18.8125,19.21875 C 18.812501,19.019271 18.98802,18.84375 19.1875,18.84375 z M 21.1875,18.84375 C 21.38698,18.843752 21.5625,19.01927 21.5625,19.21875 C 21.562501,19.41823 21.38698,19.5625 21.1875,19.5625 C 20.988021,19.562499 20.8125,19.41823 20.8125,19.21875 C 20.812501,19.019271 20.98802,18.84375 21.1875,18.84375 z M 23.1875,18.84375 C 23.386981,18.843752 23.5625,19.01927 23.5625,19.21875 C 23.562501,19.41823 23.38698,19.5625 23.1875,19.5625 C 22.988021,19.562499 22.8125,19.41823 22.8125,19.21875 C 22.812501,19.019271 22.98802,18.84375 23.1875,18.84375 z M 6.0625,19.375 C 6.1057299,19.356706 6.16888,19.375 6.21875,19.375 C 6.4182299,19.375 6.5625,19.51927 6.5625,19.71875 C 6.5624999,19.918232 6.41823,20.09375 6.21875,20.09375 C 6.0192699,20.093751 5.84375,19.91823 5.84375,19.71875 C 5.8437499,19.569142 5.932811,19.429884 6.0625,19.375 z M 8.0625,19.375 C 8.1057299,19.356706 8.16888,19.375 8.21875,19.375 C 8.4182299,19.375 8.5625,19.51927 8.5625,19.71875 C 8.5624999,19.918232 8.41823,20.09375 8.21875,20.09375 C 8.0192699,20.093751 7.84375,19.91823 7.84375,19.71875 C 7.8437499,19.569142 7.932811,19.429884 8.0625,19.375 z M 10.0625,19.375 C 10.10573,19.356706 10.16888,19.375 10.21875,19.375 C 10.41823,19.375 10.5625,19.51927 10.5625,19.71875 C 10.5625,19.918232 10.41823,20.09375 10.21875,20.09375 C 10.019269,20.093751 9.84375,19.91823 9.84375,19.71875 C 9.8437499,19.569142 9.9328112,19.429884 10.0625,19.375 z M 12.0625,19.375 C 12.10573,19.356706 12.16888,19.375 12.21875,19.375 C 12.41823,19.375 12.5625,19.51927 12.5625,19.71875 C 12.5625,19.918232 12.41823,20.09375 12.21875,20.09375 C 12.01927,20.093751 11.84375,19.91823 11.84375,19.71875 C 11.84375,19.569142 11.932811,19.429884 12.0625,19.375 z M 14.0625,19.375 C 14.10573,19.356706 14.16888,19.375 14.21875,19.375 C 14.41823,19.375 14.5625,19.51927 14.5625,19.71875 C 14.5625,19.918232 14.41823,20.09375 14.21875,20.09375 C 14.01927,20.093751 13.84375,19.91823 13.84375,19.71875 C 13.84375,19.569142 13.932811,19.429884 14.0625,19.375 z M 16.0625,19.375 C 16.105731,19.356706 16.16888,19.375 16.21875,19.375 C 16.418231,19.375 16.5625,19.51927 16.5625,19.71875 C 16.562501,19.918232 16.41823,20.09375 16.21875,20.09375 C 16.019271,20.093751 15.84375,19.91823 15.84375,19.71875 C 15.84375,19.569142 15.932811,19.429884 16.0625,19.375 z M 18.0625,19.375 C 18.105731,19.356706 18.16888,19.375 18.21875,19.375 C 18.418231,19.375 18.5625,19.51927 18.5625,19.71875 C 18.562501,19.918232 18.41823,20.09375 18.21875,20.09375 C 18.019271,20.093751 17.84375,19.91823 17.84375,19.71875 C 17.843751,19.569142 17.932811,19.429884 18.0625,19.375 z M 20.0625,19.375 C 20.105731,19.356706 20.16888,19.375 20.21875,19.375 C 20.418231,19.375 20.5625,19.51927 20.5625,19.71875 C 20.562501,19.918232 20.41823,20.09375 20.21875,20.09375 C 20.019271,20.093751 19.84375,19.91823 19.84375,19.71875 C 19.843751,19.569142 19.932811,19.429884 20.0625,19.375 z M 22.0625,19.375 C 22.105731,19.356706 22.16888,19.375 22.21875,19.375 C 22.418231,19.375 22.5625,19.51927 22.5625,19.71875 C 22.562501,19.918232 22.41823,20.09375 22.21875,20.09375 C 22.019271,20.093751 21.84375,19.91823 21.84375,19.71875 C 21.843751,19.569142 21.932811,19.429884 22.0625,19.375 z M 24.0625,19.375 C 24.105731,19.356706 24.16888,19.375 24.21875,19.375 C 24.418231,19.375 24.5625,19.51927 24.5625,19.71875 C 24.562501,19.918232 24.41823,20.09375 24.21875,20.09375 C 24.019271,20.093751 23.84375,19.91823 23.84375,19.71875 C 23.843751,19.569142 23.932811,19.429884 24.0625,19.375 z M 7.1875,19.84375 C 7.3869789,19.843751 7.5625,20.01927 7.5625,20.21875 C 7.5624999,20.418229 7.38698,20.5625 7.1875,20.5625 C 6.9880199,20.562501 6.8125,20.41823 6.8125,20.21875 C 6.8124989,20.019269 6.98802,19.84375 7.1875,19.84375 z M 9.1875,19.84375 C 9.3869789,19.843751 9.5625,20.01927 9.5625,20.21875 C 9.5624999,20.418229 9.38698,20.5625 9.1875,20.5625 C 8.9880199,20.562501 8.8125,20.41823 8.8125,20.21875 C 8.8124989,20.019269 8.98802,19.84375 9.1875,19.84375 z M 11.1875,19.84375 C 11.386979,19.843751 11.5625,20.01927 11.5625,20.21875 C 11.5625,20.418229 11.38698,20.5625 11.1875,20.5625 C 10.98802,20.562501 10.8125,20.41823 10.8125,20.21875 C 10.812499,20.019269 10.98802,19.84375 11.1875,19.84375 z M 13.1875,19.84375 C 13.386979,19.843751 13.5625,20.01927 13.5625,20.21875 C 13.5625,20.418229 13.38698,20.5625 13.1875,20.5625 C 12.98802,20.562501 12.8125,20.41823 12.8125,20.21875 C 12.812499,20.019269 12.98802,19.84375 13.1875,19.84375 z M 15.1875,19.84375 C 15.386979,19.843751 15.5625,20.01927 15.5625,20.21875 C 15.5625,20.418229 15.38698,20.5625 15.1875,20.5625 C 14.98802,20.562501 14.8125,20.41823 14.8125,20.21875 C 14.8125,20.019269 14.98802,19.84375 15.1875,19.84375 z M 17.1875,19.84375 C 17.38698,19.843751 17.5625,20.01927 17.5625,20.21875 C 17.562501,20.418229 17.38698,20.5625 17.1875,20.5625 C 16.988021,20.562501 16.8125,20.41823 16.8125,20.21875 C 16.812501,20.019269 16.98802,19.84375 17.1875,19.84375 z M 19.1875,19.84375 C 19.38698,19.843751 19.5625,20.01927 19.5625,20.21875 C 19.562501,20.418229 19.38698,20.5625 19.1875,20.5625 C 18.988021,20.562501 18.8125,20.41823 18.8125,20.21875 C 18.812501,20.019269 18.98802,19.84375 19.1875,19.84375 z M 21.1875,19.84375 C 21.38698,19.843751 21.5625,20.01927 21.5625,20.21875 C 21.562501,20.418229 21.38698,20.5625 21.1875,20.5625 C 20.988021,20.562501 20.8125,20.41823 20.8125,20.21875 C 20.812501,20.019269 20.98802,19.84375 21.1875,19.84375 z M 23.1875,19.84375 C 23.386981,19.843751 23.5625,20.01927 23.5625,20.21875 C 23.562501,20.418229 23.38698,20.5625 23.1875,20.5625 C 22.988021,20.562501 22.8125,20.41823 22.8125,20.21875 C 22.812501,20.019269 22.98802,19.84375 23.1875,19.84375 z M 6.0625,20.375 C 6.1057299,20.356706 6.16888,20.375 6.21875,20.375 C 6.4182299,20.375003 6.5625,20.51927 6.5625,20.71875 C 6.5624999,20.918231 6.41823,21.09375 6.21875,21.09375 C 6.0192699,21.09375 5.84375,20.91823 5.84375,20.71875 C 5.8437499,20.569141 5.932811,20.429884 6.0625,20.375 z M 8.0625,20.375 C 8.1057299,20.356706 8.16888,20.375 8.21875,20.375 C 8.4182299,20.375003 8.5625,20.51927 8.5625,20.71875 C 8.5624999,20.918231 8.41823,21.09375 8.21875,21.09375 C 8.0192699,21.09375 7.84375,20.91823 7.84375,20.71875 C 7.8437499,20.569141 7.932811,20.429884 8.0625,20.375 z M 10.0625,20.375 C 10.10573,20.356706 10.16888,20.375 10.21875,20.375 C 10.41823,20.375003 10.5625,20.51927 10.5625,20.71875 C 10.5625,20.918231 10.41823,21.09375 10.21875,21.09375 C 10.019269,21.09375 9.84375,20.91823 9.84375,20.71875 C 9.8437499,20.569141 9.9328112,20.429884 10.0625,20.375 z M 12.0625,20.375 C 12.10573,20.356706 12.16888,20.375 12.21875,20.375 C 12.41823,20.375003 12.5625,20.51927 12.5625,20.71875 C 12.5625,20.918231 12.41823,21.09375 12.21875,21.09375 C 12.01927,21.09375 11.84375,20.91823 11.84375,20.71875 C 11.84375,20.569141 11.932811,20.429884 12.0625,20.375 z M 14.0625,20.375 C 14.10573,20.356706 14.16888,20.375 14.21875,20.375 C 14.41823,20.375003 14.5625,20.51927 14.5625,20.71875 C 14.5625,20.918231 14.41823,21.09375 14.21875,21.09375 C 14.01927,21.09375 13.84375,20.91823 13.84375,20.71875 C 13.84375,20.569141 13.932811,20.429884 14.0625,20.375 z M 16.0625,20.375 C 16.105731,20.356706 16.16888,20.375 16.21875,20.375 C 16.418231,20.375003 16.5625,20.51927 16.5625,20.71875 C 16.562501,20.918231 16.41823,21.09375 16.21875,21.09375 C 16.019271,21.09375 15.84375,20.91823 15.84375,20.71875 C 15.84375,20.569141 15.932811,20.429884 16.0625,20.375 z M 18.0625,20.375 C 18.105731,20.356706 18.16888,20.375 18.21875,20.375 C 18.418231,20.375003 18.5625,20.51927 18.5625,20.71875 C 18.562501,20.918231 18.41823,21.09375 18.21875,21.09375 C 18.019271,21.09375 17.84375,20.91823 17.84375,20.71875 C 17.843751,20.569141 17.932811,20.429884 18.0625,20.375 z M 20.0625,20.375 C 20.105731,20.356706 20.16888,20.375 20.21875,20.375 C 20.418231,20.375003 20.5625,20.51927 20.5625,20.71875 C 20.562501,20.918231 20.41823,21.09375 20.21875,21.09375 C 20.019271,21.09375 19.84375,20.91823 19.84375,20.71875 C 19.843751,20.569141 19.932811,20.429884 20.0625,20.375 z M 22.0625,20.375 C 22.105731,20.356706 22.16888,20.375 22.21875,20.375 C 22.418231,20.375003 22.5625,20.51927 22.5625,20.71875 C 22.562501,20.918231 22.41823,21.09375 22.21875,21.09375 C 22.019271,21.09375 21.84375,20.91823 21.84375,20.71875 C 21.843751,20.569141 21.932811,20.429884 22.0625,20.375 z M 24.0625,20.375 C 24.105731,20.356706 24.16888,20.375 24.21875,20.375 C 24.418231,20.375003 24.5625,20.51927 24.5625,20.71875 C 24.562501,20.918231 24.41823,21.09375 24.21875,21.09375 C 24.019271,21.09375 23.84375,20.91823 23.84375,20.71875 C 23.843751,20.569141 23.932811,20.429884 24.0625,20.375 z M 7.1875,20.84375 C 7.3869789,20.843752 7.5625,21.01927 7.5625,21.21875 C 7.5624999,21.41823 7.38698,21.5625 7.1875,21.5625 C 6.9880199,21.562499 6.8125,21.41823 6.8125,21.21875 C 6.8124989,21.019271 6.98802,20.84375 7.1875,20.84375 z M 9.1875,20.84375 C 9.3869789,20.843752 9.5625,21.01927 9.5625,21.21875 C 9.5624999,21.41823 9.38698,21.5625 9.1875,21.5625 C 8.9880199,21.562499 8.8125,21.41823 8.8125,21.21875 C 8.8124989,21.019271 8.98802,20.84375 9.1875,20.84375 z M 11.1875,20.84375 C 11.386979,20.843752 11.5625,21.01927 11.5625,21.21875 C 11.5625,21.41823 11.38698,21.5625 11.1875,21.5625 C 10.98802,21.562499 10.8125,21.41823 10.8125,21.21875 C 10.812499,21.019271 10.98802,20.84375 11.1875,20.84375 z M 13.1875,20.84375 C 13.386979,20.843752 13.5625,21.01927 13.5625,21.21875 C 13.5625,21.41823 13.38698,21.5625 13.1875,21.5625 C 12.98802,21.562499 12.8125,21.41823 12.8125,21.21875 C 12.812499,21.019271 12.98802,20.84375 13.1875,20.84375 z M 15.1875,20.84375 C 15.386979,20.843752 15.5625,21.01927 15.5625,21.21875 C 15.5625,21.41823 15.38698,21.5625 15.1875,21.5625 C 14.98802,21.562499 14.8125,21.41823 14.8125,21.21875 C 14.8125,21.019271 14.98802,20.84375 15.1875,20.84375 z M 17.1875,20.84375 C 17.38698,20.843752 17.5625,21.01927 17.5625,21.21875 C 17.562501,21.41823 17.38698,21.5625 17.1875,21.5625 C 16.988021,21.562499 16.8125,21.41823 16.8125,21.21875 C 16.812501,21.019271 16.98802,20.84375 17.1875,20.84375 z M 19.1875,20.84375 C 19.38698,20.843752 19.5625,21.01927 19.5625,21.21875 C 19.562501,21.41823 19.38698,21.5625 19.1875,21.5625 C 18.988021,21.562499 18.8125,21.41823 18.8125,21.21875 C 18.812501,21.019271 18.98802,20.84375 19.1875,20.84375 z M 21.1875,20.84375 C 21.38698,20.843752 21.5625,21.01927 21.5625,21.21875 C 21.562501,21.41823 21.38698,21.5625 21.1875,21.5625 C 20.988021,21.562499 20.8125,21.41823 20.8125,21.21875 C 20.812501,21.019271 20.98802,20.84375 21.1875,20.84375 z M 23.1875,20.84375 C 23.386981,20.843752 23.5625,21.01927 23.5625,21.21875 C 23.562501,21.41823 23.38698,21.5625 23.1875,21.5625 C 22.988021,21.562499 22.8125,21.41823 22.8125,21.21875 C 22.812501,21.019271 22.98802,20.84375 23.1875,20.84375 z M 6.0625,21.375 C 6.1057299,21.356706 6.16888,21.375 6.21875,21.375 C 6.4182299,21.375 6.5625,21.51927 6.5625,21.71875 C 6.5624999,21.918232 6.41823,22.09375 6.21875,22.09375 C 6.0192699,22.093751 5.84375,21.91823 5.84375,21.71875 C 5.8437499,21.569142 5.932811,21.429884 6.0625,21.375 z M 8.0625,21.375 C 8.1057299,21.356706 8.16888,21.375 8.21875,21.375 C 8.4182299,21.375 8.5625,21.51927 8.5625,21.71875 C 8.5624999,21.918232 8.41823,22.09375 8.21875,22.09375 C 8.0192699,22.093751 7.84375,21.91823 7.84375,21.71875 C 7.8437499,21.569142 7.932811,21.429884 8.0625,21.375 z M 10.0625,21.375 C 10.10573,21.356706 10.16888,21.375 10.21875,21.375 C 10.41823,21.375 10.5625,21.51927 10.5625,21.71875 C 10.5625,21.918232 10.41823,22.09375 10.21875,22.09375 C 10.019269,22.093751 9.84375,21.91823 9.84375,21.71875 C 9.8437499,21.569142 9.9328112,21.429884 10.0625,21.375 z M 12.0625,21.375 C 12.10573,21.356706 12.16888,21.375 12.21875,21.375 C 12.41823,21.375 12.5625,21.51927 12.5625,21.71875 C 12.5625,21.918232 12.41823,22.09375 12.21875,22.09375 C 12.01927,22.093751 11.84375,21.91823 11.84375,21.71875 C 11.84375,21.569142 11.932811,21.429884 12.0625,21.375 z M 14.0625,21.375 C 14.10573,21.356706 14.16888,21.375 14.21875,21.375 C 14.41823,21.375 14.5625,21.51927 14.5625,21.71875 C 14.5625,21.918232 14.41823,22.09375 14.21875,22.09375 C 14.01927,22.093751 13.84375,21.91823 13.84375,21.71875 C 13.84375,21.569142 13.932811,21.429884 14.0625,21.375 z M 16.0625,21.375 C 16.105731,21.356706 16.16888,21.375 16.21875,21.375 C 16.418231,21.375 16.5625,21.51927 16.5625,21.71875 C 16.562501,21.918232 16.41823,22.09375 16.21875,22.09375 C 16.019271,22.093751 15.84375,21.91823 15.84375,21.71875 C 15.84375,21.569142 15.932811,21.429884 16.0625,21.375 z M 18.0625,21.375 C 18.105731,21.356706 18.16888,21.375 18.21875,21.375 C 18.418231,21.375 18.5625,21.51927 18.5625,21.71875 C 18.562501,21.918232 18.41823,22.09375 18.21875,22.09375 C 18.019271,22.093751 17.84375,21.91823 17.84375,21.71875 C 17.843751,21.569142 17.932811,21.429884 18.0625,21.375 z M 20.0625,21.375 C 20.105731,21.356706 20.16888,21.375 20.21875,21.375 C 20.418231,21.375 20.5625,21.51927 20.5625,21.71875 C 20.562501,21.918232 20.41823,22.09375 20.21875,22.09375 C 20.019271,22.093751 19.84375,21.91823 19.84375,21.71875 C 19.843751,21.569142 19.932811,21.429884 20.0625,21.375 z M 22.0625,21.375 C 22.105731,21.356706 22.16888,21.375 22.21875,21.375 C 22.418231,21.375 22.5625,21.51927 22.5625,21.71875 C 22.562501,21.918232 22.41823,22.09375 22.21875,22.09375 C 22.019271,22.093751 21.84375,21.91823 21.84375,21.71875 C 21.843751,21.569142 21.932811,21.429884 22.0625,21.375 z M 24.0625,21.375 C 24.105731,21.356706 24.16888,21.375 24.21875,21.375 C 24.418231,21.375 24.5625,21.51927 24.5625,21.71875 C 24.562501,21.918232 24.41823,22.09375 24.21875,22.09375 C 24.019271,22.093751 23.84375,21.91823 23.84375,21.71875 C 23.843751,21.569142 23.932811,21.429884 24.0625,21.375 z M 7.1875,21.84375 C 7.3869789,21.843751 7.5625,22.01927 7.5625,22.21875 C 7.5624999,22.418229 7.38698,22.5625 7.1875,22.5625 C 6.9880199,22.562501 6.8125,22.41823 6.8125,22.21875 C 6.8124989,22.019269 6.98802,21.84375 7.1875,21.84375 z M 9.1875,21.84375 C 9.3869789,21.843751 9.5625,22.01927 9.5625,22.21875 C 9.5624999,22.418229 9.38698,22.5625 9.1875,22.5625 C 8.9880199,22.562501 8.8125,22.41823 8.8125,22.21875 C 8.8124989,22.019269 8.98802,21.84375 9.1875,21.84375 z M 11.1875,21.84375 C 11.386979,21.843751 11.5625,22.01927 11.5625,22.21875 C 11.5625,22.418229 11.38698,22.5625 11.1875,22.5625 C 10.98802,22.562501 10.8125,22.41823 10.8125,22.21875 C 10.812499,22.019269 10.98802,21.84375 11.1875,21.84375 z M 13.1875,21.84375 C 13.386979,21.843751 13.5625,22.01927 13.5625,22.21875 C 13.5625,22.418229 13.38698,22.5625 13.1875,22.5625 C 12.98802,22.562501 12.8125,22.41823 12.8125,22.21875 C 12.812499,22.019269 12.98802,21.84375 13.1875,21.84375 z M 15.1875,21.84375 C 15.386979,21.843751 15.5625,22.01927 15.5625,22.21875 C 15.5625,22.418229 15.38698,22.5625 15.1875,22.5625 C 14.98802,22.562501 14.8125,22.41823 14.8125,22.21875 C 14.8125,22.019269 14.98802,21.84375 15.1875,21.84375 z M 17.1875,21.84375 C 17.38698,21.843751 17.5625,22.01927 17.5625,22.21875 C 17.562501,22.418229 17.38698,22.5625 17.1875,22.5625 C 16.988021,22.562501 16.8125,22.41823 16.8125,22.21875 C 16.812501,22.019269 16.98802,21.84375 17.1875,21.84375 z M 19.1875,21.84375 C 19.38698,21.843751 19.5625,22.01927 19.5625,22.21875 C 19.562501,22.418229 19.38698,22.5625 19.1875,22.5625 C 18.988021,22.562501 18.8125,22.41823 18.8125,22.21875 C 18.812501,22.019269 18.98802,21.84375 19.1875,21.84375 z M 21.1875,21.84375 C 21.38698,21.843751 21.5625,22.01927 21.5625,22.21875 C 21.562501,22.418229 21.38698,22.5625 21.1875,22.5625 C 20.988021,22.562501 20.8125,22.41823 20.8125,22.21875 C 20.812501,22.019269 20.98802,21.84375 21.1875,21.84375 z M 23.1875,21.84375 C 23.386981,21.843751 23.5625,22.01927 23.5625,22.21875 C 23.562501,22.418229 23.38698,22.5625 23.1875,22.5625 C 22.988021,22.562501 22.8125,22.41823 22.8125,22.21875 C 22.812501,22.019269 22.98802,21.84375 23.1875,21.84375 z M 6.21875,22.375 C 6.4086396,22.375003 6.5494908,22.50286 6.5625,22.6875 L 5.84375,22.6875 C 5.859482,22.50286 6.0288604,22.375 6.21875,22.375 z M 8.21875,22.375 C 8.4086396,22.375003 8.5494908,22.50286 8.5625,22.6875 L 7.84375,22.6875 C 7.859482,22.50286 8.0288604,22.375 8.21875,22.375 z M 10.21875,22.375 C 10.31849,22.375002 10.403341,22.403341 10.46875,22.46875 C 10.523652,22.523652 10.556646,22.599781 10.5625,22.6875 L 9.84375,22.6875 C 9.8531519,22.599322 9.9065518,22.523887 9.96875,22.46875 C 9.9960037,22.441497 10.027712,22.423722 10.0625,22.40625 C 10.111203,22.381791 10.160568,22.375 10.21875,22.375 z M 12.21875,22.375 C 12.408639,22.375003 12.549491,22.50286 12.5625,22.6875 L 11.84375,22.6875 C 11.859482,22.50286 12.02886,22.375 12.21875,22.375 z M 14.21875,22.375 C 14.408639,22.375003 14.549491,22.50286 14.5625,22.6875 L 13.84375,22.6875 C 13.859482,22.50286 14.02886,22.375 14.21875,22.375 z M 16.21875,22.375 C 16.40864,22.375003 16.549491,22.50286 16.5625,22.6875 L 15.84375,22.6875 C 15.859482,22.50286 16.02886,22.375 16.21875,22.375 z M 18.21875,22.375 C 18.40864,22.375003 18.549491,22.50286 18.5625,22.6875 L 17.84375,22.6875 C 17.859483,22.50286 18.02886,22.375 18.21875,22.375 z M 20.21875,22.375 C 20.40864,22.375003 20.549491,22.50286 20.5625,22.6875 L 19.84375,22.6875 C 19.859483,22.50286 20.02886,22.375 20.21875,22.375 z M 22.21875,22.375 C 22.40864,22.375003 22.549491,22.50286 22.5625,22.6875 L 21.84375,22.6875 C 21.859483,22.50286 22.02886,22.375 22.21875,22.375 z M 24.21875,22.375 C 24.40864,22.375003 24.549491,22.50286 24.5625,22.6875 L 23.84375,22.6875 C 23.859483,22.50286 24.02886,22.375 24.21875,22.375 z " />
  <rect
     id="rect2281"
     style="fill:#eeeeec;fill-opacity:1;fill-rule:nonzero;stroke:#888a85;stroke-width:0.2;stroke-linecap:round;stroke-linejoin:round;stroke-miterlimit:4;stroke-dasharray:none;stroke-opacity:1"
     y="21.683334"
     x="31.445835"
     height="2.3249269"
     width="4.6543379" />
  <path
     id="path2303"
     style="fill:url(#linearGradient2275);fill-opacity:1;fill-rule:nonzero;stroke:none;stroke-width:0.2;stroke-linecap:round;stroke-linejoin:round;stroke-miterlimit:4;stroke-dasharray:none;stroke-opacity:1"
     d="M 34.185652,17.26631 C 34.086495,17.247344 33.978369,17.245805 33.87328,17.247017 C 33.094539,17.255997 32.474843,17.85124 32.393012,18.606759 C 32.50767,18.012102 33.011904,17.572693 33.640911,17.565439 C 34.280977,17.558057 34.829102,18.003348 34.945996,18.608695 L 35.519324,18.437049 C 35.421246,17.802886 34.809653,17.385673 34.185652,17.26631 z " />
  <path
     id="path3282"
     style="fill:url(#linearGradient2272);fill-opacity:1;fill-rule:nonzero;stroke:none;stroke-width:0.2;stroke-linecap:round;stroke-linejoin:round;stroke-miterlimit:4;stroke-dasharray:none;stroke-opacity:1"
     d="M 33.65625,11 C 32.367094,11 31.34375,12.054594 31.34375,13.34375 C 31.34375,13.739219 31.420023,14.110937 31.59375,14.4375 C 31.491712,14.175216 31.4375,13.891977 31.4375,13.59375 C 31.4375,12.304594 32.460844,11.25 33.75,11.25 C 34.675119,11.25 35.465683,11.78179 35.84375,12.5625 C 35.520095,11.660971 34.668723,11 33.65625,11 z " />
  <path
     id="path3295"
     style="fill:url(#linearGradient2269);fill-opacity:1;fill-rule:nonzero;stroke:none;stroke-width:0.2;stroke-linecap:round;stroke-linejoin:round;stroke-miterlimit:4;stroke-dasharray:none;stroke-opacity:1"
     d="M 33.65625,17.78125 C 33.052308,17.78125 32.562498,18.271057 32.5625,18.875 C 32.5625,19.065976 32.601377,19.24993 32.6875,19.40625 C 32.663946,19.316987 32.65625,19.221631 32.65625,19.125 C 32.656249,18.521059 33.146058,18.03125 33.75,18.03125 C 34.161214,18.03125 34.500593,18.25808 34.6875,18.59375 C 34.556696,18.135954 34.155859,17.78125 33.65625,17.78125 z " />
  <path
     id="path3340"
     style="opacity:0.98000004;fill:#eeeeec;fill-opacity:1;fill-rule:nonzero;stroke:none;stroke-width:0.2;stroke-linecap:round;stroke-linejoin:round;stroke-miterlimit:4;stroke-dasharray:none;stroke-opacity:1"
     d="M 36.09726,13.578578 C 36.09726,14.868399 35.051654,15.914006 33.761833,15.914006 C 32.472011,15.914006 31.426405,14.868399 31.426405,13.578578 C 31.426405,12.288757 32.472011,11.24315 33.761832,11.24315 C 35.051654,11.24315 36.09726,12.288757 36.09726,13.578578 L 36.09726,13.578578 z " />
  <path
     id="path3308"
     style="fill:url(#radialGradient2265);fill-opacity:1;fill-rule:nonzero;stroke:none;stroke-width:0.2;stroke-linecap:round;stroke-linejoin:round;stroke-miterlimit:4;stroke-dasharray:none;stroke-opacity:1"
     d="M 35.916838,13.57858 C 35.916838,14.768755 34.952011,15.733583 33.761836,15.733583 C 32.57166,15.733583 31.606832,14.768755 31.606832,13.57858 C 31.606832,12.388404 32.57166,11.423576 33.761835,11.423576 C 34.952011,11.423576 35.916838,12.388404 35.916838,13.57858 L 35.916838,13.57858 z " />
  <path
     id="path2326"
     style="fill:url(#linearGradient2262);fill-opacity:1;fill-rule:nonzero;stroke:none;stroke-width:0.2;stroke-linecap:round;stroke-linejoin:round;stroke-miterlimit:4;stroke-dasharray:none;stroke-opacity:1"
     d="M 35.916838,13.57858 C 35.916838,14.768755 34.952011,15.733583 33.761836,15.733583 C 32.57166,15.733583 31.606832,14.768755 31.606832,13.57858 C 31.606832,12.388404 32.57166,11.423576 33.761835,11.423576 C 34.952011,11.423576 35.916838,12.388404 35.916838,13.57858 L 35.916838,13.57858 z " />
  <path
     id="path3300"
     style="fill:#eeeeec;fill-opacity:1;fill-rule:nonzero;stroke:none;stroke-width:0.2;stroke-linecap:round;stroke-linejoin:round;stroke-miterlimit:4;stroke-dasharray:none;stroke-opacity:1"
     d="M 33.75,11.25 C 33.266566,11.25 32.806226,11.402889 32.4375,11.65625 C 32.790092,12.099389 33,12.824416 33,13.625 C 33.000001,14.390306 32.79517,15.054183 32.46875,15.5 C 32.833144,15.738874 33.276176,15.90625 33.75,15.90625 C 34.20904,15.90625 34.638822,15.760296 35,15.53125 C 34.658331,15.08667 34.4375,14.410955 34.4375,13.625 C 34.437499,12.805274 34.66422,12.065534 35.03125,11.625 C 34.665394,11.387056 34.218649,11.25 33.75,11.25 z " />
  <path
     id="path3374"
     style="opacity:0.98000004;fill:#eeeeec;fill-opacity:1;fill-rule:nonzero;stroke:none;stroke-width:0.2;stroke-linecap:round;stroke-linejoin:round;stroke-miterlimit:4;stroke-dasharray:none;stroke-opacity:1"
     d="M 34.839021,19.12434 C 34.839021,19.723586 34.342893,20.209372 33.730887,20.209372 C 33.118881,20.209372 32.622752,19.723586 32.622752,19.12434 C 32.622752,18.525093 33.118881,18.039307 33.730886,18.039307 C 34.342893,18.039307 34.839021,18.525093 34.839021,19.12434 L 34.839021,19.12434 z " />
  <path
     id="path3376"
     style="fill:url(#radialGradient2257);fill-opacity:1;fill-rule:nonzero;stroke:none;stroke-width:0.2;stroke-linecap:round;stroke-linejoin:round;stroke-miterlimit:4;stroke-dasharray:none;stroke-opacity:1"
     d="M 34.753413,19.12434 C 34.753413,19.677292 34.295613,20.125548 33.730888,20.125548 C 33.166163,20.125548 32.708363,19.677292 32.708363,19.12434 C 32.708363,18.571388 33.166163,18.123132 33.730888,18.123132 C 34.295613,18.123132 34.753413,18.571388 34.753413,19.12434 L 34.753413,19.12434 z " />
  <use
     xlink:href="#path2326"
     height="40"
     width="40"
     y="0"
     x="0"
     id="use3301"
     transform="matrix(0.4674209,0,0,0.4674209,17.951331,12.776838)" />
  <path
     id="path3378"
     style="fill:#eeeeec;fill-opacity:1;fill-rule:nonzero;stroke:none;stroke-width:0.2;stroke-linecap:round;stroke-linejoin:round;stroke-miterlimit:4;stroke-dasharray:none;stroke-opacity:1"
     d="M 33.725271,18.042488 C 33.495887,18.042488 33.27746,18.11352 33.102504,18.23123 C 33.269804,18.437112 33.369405,18.773956 33.369405,19.145906 C 33.369406,19.501464 33.272215,19.809899 33.117332,20.017025 C 33.290233,20.128005 33.500447,20.205767 33.725271,20.205767 C 33.94308,20.205767 34.147007,20.137958 34.318382,20.031543 C 34.156263,19.824993 34.051482,19.511058 34.051482,19.145906 C 34.051482,18.765064 34.159058,18.421383 34.333211,18.216711 C 34.159616,18.106163 33.94764,18.042488 33.725271,18.042488 z " />
  <rect
     id="rect3382"
     style="fill:url(#linearGradient2252);fill-opacity:1;fill-rule:nonzero;stroke:none;stroke-width:0.2;stroke-linecap:round;stroke-linejoin:round;stroke-miterlimit:4;stroke-dasharray:none;stroke-opacity:1"
     y="18.180563"
     x="33.671875"
     height="0.33159712"
     width="0.09415701" />
  <use
     xlink:href="#rect3382"
     height="40"
     width="40"
     y="0"
     x="0"
     id="use3392"
     transform="translate(0,-6.6875)" />
  <path
     id="text3394"
     style="font-size:0.49339229px;font-style:normal;font-weight:normal;fill:#000000;fill-opacity:1;stroke:none;stroke-width:1px;stroke-linecap:butt;stroke-linejoin:miter;stroke-opacity:1;font-family:Bitstream Vera Sans"
     d="M 33.688567,10.443313 C 33.662542,10.443313 33.64294,10.455219 33.629761,10.47903 C 33.616748,10.502688 33.610242,10.538329 33.610242,10.585953 C 33.610242,10.633422 33.616748,10.669063 33.629761,10.692875 C 33.64294,10.716533 33.662542,10.728361 33.688567,10.728361 C 33.714759,10.728361 33.734362,10.716533 33.747374,10.692875 C 33.760553,10.669063 33.767142,10.633422 33.767143,10.585953 C 33.767142,10.538329 33.760553,10.502688 33.747374,10.47903 C 33.734362,10.455219 33.714759,10.443313 33.688567,10.443313 M 33.688567,10.406203 C 33.730441,10.406204 33.762388,10.421588 33.78441,10.452358 C 33.806597,10.482974 33.817691,10.527506 33.817691,10.585953 C 33.817691,10.644246 33.806597,10.688777 33.78441,10.719547 C 33.762388,10.750163 33.730441,10.76547 33.688567,10.76547 C 33.646693,10.76547 33.614662,10.750163 33.592474,10.719547 C 33.570454,10.688777 33.559443,10.644246 33.559443,10.585953 C 33.559443,10.527506 33.570454,10.482974 33.592474,10.452358 C 33.614662,10.421588 33.646693,10.406204 33.688567,10.406203" />
  <path
     id="text3402"
     style="font-size:0.49339229px;font-style:normal;font-weight:normal;fill:#000000;fill-opacity:1;stroke:none;stroke-width:1px;stroke-linecap:butt;stroke-linejoin:miter;stroke-opacity:1;font-family:Bitstream Vera Sans"
     d="M 36.265126,13.733126 L 36.347706,13.733126 L 36.347706,13.468952 L 36.257869,13.485652 L 36.257869,13.442975 L 36.347205,13.426276 L 36.397754,13.426276 L 36.397754,13.733126 L 36.480334,13.733126 L 36.480334,13.772555 L 36.265126,13.772555 L 36.265126,13.733126 M 36.582182,13.426276 L 36.780623,13.426276 L 36.780623,13.465705 L 36.628476,13.465705 L 36.628476,13.550593 C 36.635817,13.548274 36.643156,13.546573 36.650497,13.54549 C 36.657837,13.544254 36.665178,13.543635 36.672519,13.543635 C 36.714225,13.543635 36.747257,13.554227 36.771614,13.57541 C 36.79597,13.596594 36.808149,13.625276 36.808149,13.661458 C 36.808149,13.698723 36.795636,13.727714 36.770613,13.748433 C 36.745588,13.768998 36.710305,13.779281 36.66476,13.779281 C 36.649079,13.779281 36.633063,13.778044 36.616715,13.77557 C 36.600533,13.773097 36.583766,13.769385 36.566416,13.764437 L 36.566416,13.717355 C 36.581431,13.724931 36.596946,13.730575 36.612961,13.734286 C 36.628977,13.737996 36.645909,13.739853 36.66376,13.739853 C 36.692621,13.739853 36.715476,13.732817 36.732326,13.718746 C 36.749176,13.704675 36.7576,13.68558 36.757601,13.661458 C 36.7576,13.637337 36.749176,13.618241 36.732326,13.60417 C 36.715476,13.590099 36.692621,13.583064 36.66376,13.583064 C 36.650247,13.583064 36.636734,13.584456 36.623221,13.587239 C 36.609875,13.590022 36.596195,13.594351 36.582182,13.600227 L 36.582182,13.426276" />
  <path
     id="text3406"
     style="font-size:0.49339229px;font-style:normal;font-weight:normal;fill:#000000;fill-opacity:1;stroke:none;stroke-width:1px;stroke-linecap:butt;stroke-linejoin:miter;stroke-opacity:1;font-family:Bitstream Vera Sans"
     d="M 30.710682,13.467096 L 30.58306,13.651949 L 30.710682,13.651949 L 30.710682,13.467096 M 30.697419,13.426276 L 30.760981,13.426276 L 30.760981,13.651949 L 30.814281,13.651949 L 30.814281,13.690914 L 30.760981,13.690914 L 30.760981,13.772555 L 30.710682,13.772555 L 30.710682,13.690914 L 30.54202,13.690914 L 30.54202,13.645686 L 30.697419,13.426276 M 30.897612,13.426276 L 31.096053,13.426276 L 31.096053,13.465705 L 30.943907,13.465705 L 30.943907,13.550593 C 30.951246,13.548274 30.958587,13.546573 30.965927,13.54549 C 30.973268,13.544254 30.980609,13.543635 30.987949,13.543635 C 31.029656,13.543635 31.062688,13.554227 31.087045,13.57541 C 31.1114,13.596594 31.123579,13.625276 31.123579,13.661458 C 31.123579,13.698723 31.111067,13.727714 31.086043,13.748433 C 31.061019,13.768998 31.025736,13.779281 30.980191,13.779281 C 30.96451,13.779281 30.948494,13.778044 30.932145,13.77557 C 30.915963,13.773097 30.899196,13.769385 30.881847,13.764437 L 30.881847,13.717355 C 30.896861,13.724931 30.912377,13.730575 30.928391,13.734286 C 30.944407,13.737996 30.961339,13.739853 30.979191,13.739853 C 31.008051,13.739853 31.030906,13.732817 31.047756,13.718746 C 31.064606,13.704675 31.07303,13.68558 31.073031,13.661458 C 31.07303,13.637337 31.064606,13.618241 31.047756,13.60417 C 31.030906,13.590099 31.008051,13.583064 30.979191,13.583064 C 30.965677,13.583064 30.952164,13.584456 30.938652,13.587239 C 30.925305,13.590022 30.911626,13.594351 30.897612,13.600227 L 30.897612,13.426276" />
  <path
     id="text3410"
     style="font-size:0.49339229px;font-style:normal;font-weight:normal;fill:#000000;fill-opacity:1;stroke:none;stroke-width:1px;stroke-linecap:butt;stroke-linejoin:miter;stroke-opacity:1;font-family:Bitstream Vera Sans"
     d="M 33.666021,16.301688 C 33.69021,16.306481 33.709062,16.316454 33.722575,16.331608 C 33.736254,16.34676 33.743094,16.36547 33.743094,16.387736 C 33.743094,16.421908 33.730416,16.448348 33.705059,16.467057 C 33.6797,16.485767 33.643665,16.495122 33.596954,16.495122 C 33.581272,16.495122 33.56509,16.493652 33.548407,16.490715 C 33.531892,16.487932 33.514791,16.483679 33.497108,16.477958 L 33.497108,16.432731 C 33.511121,16.440308 33.526469,16.446029 33.543152,16.449894 C 33.559835,16.45376 33.577269,16.455693 33.595452,16.455693 C 33.62715,16.455693 33.651256,16.449894 33.667772,16.438297 C 33.684455,16.4267 33.692796,16.409847 33.692797,16.387736 C 33.692796,16.367325 33.685038,16.3514 33.669524,16.339957 C 33.654175,16.32836 33.632738,16.322562 33.605212,16.322562 L 33.56167,16.322562 L 33.56167,16.28406 L 33.607214,16.28406 C 33.632071,16.28406 33.651089,16.279499 33.664269,16.270376 C 33.677447,16.261099 33.684038,16.247801 33.684038,16.230484 C 33.684038,16.212702 33.677198,16.199096 33.663518,16.189663 C 33.650005,16.180077 33.630569,16.175284 33.605212,16.175283 C 33.591365,16.175284 33.576518,16.176675 33.560669,16.179458 C 33.54482,16.182241 33.527387,16.186571 33.508369,16.192446 L 33.508369,16.150697 C 33.527554,16.14575 33.545487,16.14204 33.562171,16.139565 C 33.57902,16.137091 33.594869,16.135854 33.609716,16.135854 C 33.648086,16.135854 33.678449,16.143972 33.700804,16.160207 C 33.723158,16.176289 33.734336,16.198091 33.734336,16.225613 C 33.734336,16.244787 33.728414,16.261022 33.71657,16.27432 C 33.704724,16.287463 33.687875,16.296586 33.666021,16.301688 M 33.94629,16.172963 C 33.920265,16.172964 33.900663,16.184869 33.887484,16.208682 C 33.874471,16.23234 33.867965,16.26798 33.867965,16.315603 C 33.867965,16.363074 33.874471,16.398714 33.887484,16.422526 C 33.900663,16.446183 33.920265,16.458012 33.94629,16.458012 C 33.972482,16.458012 33.992084,16.446183 34.005097,16.422526 C 34.018276,16.398714 34.024866,16.363074 34.024866,16.315603 C 34.024866,16.26798 34.018276,16.23234 34.005097,16.208682 C 33.992084,16.184869 33.972482,16.172964 33.94629,16.172963 M 33.94629,16.135854 C 33.988164,16.135854 34.020111,16.151239 34.042133,16.182009 C 34.06432,16.212625 34.075414,16.257156 34.075415,16.315603 C 34.075414,16.373897 34.06432,16.418429 34.042133,16.449198 C 34.020111,16.479814 33.988164,16.495122 33.94629,16.495122 C 33.904417,16.495122 33.872386,16.479814 33.850198,16.449198 C 33.828176,16.418429 33.817166,16.373897 33.817166,16.315603 C 33.817166,16.257156 33.828176,16.212625 33.850198,16.182009 C 33.872386,16.151239 33.904417,16.135854 33.94629,16.135854" />
  <path
     id="path3363"
     style="fill:url(#linearGradient2244);fill-opacity:1;fill-rule:nonzero;stroke:none;stroke-width:1;stroke-linecap:round;stroke-linejoin:miter;stroke-miterlimit:4;stroke-opacity:1"
     d="M 3.53125,1.1875 L 1.65625,5.8125 L 37.96875,5.8125 L 36.15625,1.21875 L 3.53125,1.1875 z M 1.59375,6 L 1.25,6.8125 L 29.5,6.8125 L 29.46875,6 L 1.59375,6 z M 29.71875,6 L 29.75,6.8125 L 38.375,6.8125 L 38.0625,6 L 29.71875,6 z " />
</svg>
