<?xml version="1.0" encoding="UTF-8" standalone="no"?>
<!-- Created with Inkscape (http://www.inkscape.org/) -->
<svg
   xmlns:dc="http://purl.org/dc/elements/1.1/"
   xmlns:cc="http://web.resource.org/cc/"
   xmlns:rdf="http://www.w3.org/1999/02/22-rdf-syntax-ns#"
   xmlns:svg="http://www.w3.org/2000/svg"
   xmlns="http://www.w3.org/2000/svg"
   xmlns:xlink="http://www.w3.org/1999/xlink"
   xmlns:sodipodi="http://sodipodi.sourceforge.net/DTD/sodipodi-0.dtd"
   xmlns:inkscape="http://www.inkscape.org/namespaces/inkscape"
   width="32px"
   height="32px"
   id="svg4897"
   sodipodi:version="0.32"
   inkscape:version="0.45"
   sodipodi:modified="true">
  <defs
     id="defs4899">
    <linearGradient
       id="linearGradient3291">
      <stop
         style="stop-color:#000000;stop-opacity:1"
         offset="0"
         id="stop3293" />
      <stop
         style="stop-color:#000000;stop-opacity:0"
         offset="1"
         id="stop3295" />
    </linearGradient>
    <radialGradient
       inkscape:collect="always"
       xlink:href="#linearGradient3291"
       id="radialGradient11403"
       gradientUnits="userSpaceOnUse"
       gradientTransform="matrix(0.2218001,0,0,8.1368685e-2,2.1663682,12.580199)"
       cx="63.912209"
       cy="115.70919"
       fx="75.857941"
       fy="115.70919"
       r="63.912209" />
    <linearGradient
       id="linearGradient3152">
      <stop
         style="stop-color:#000000;stop-opacity:1"
         offset="0"
         id="stop3154" />
      <stop
         style="stop-color:#000000;stop-opacity:0"
         offset="0.5"
         id="stop3158" />
      <stop
         style="stop-color:#ffffff;stop-opacity:1"
         offset="1"
         id="stop3156" />
    </linearGradient>
    <linearGradient
       inkscape:collect="always"
       xlink:href="#linearGradient3152"
       id="linearGradient11392"
       gradientUnits="userSpaceOnUse"
       gradientTransform="matrix(1.0519372,0,0,1.0519372,30.008296,18.754761)"
       x1="3.2683585"
       y1="-11.624844"
       x2="-29.021406"
       y2="-11.773203" />
    <linearGradient
       id="linearGradient2783">
      <stop
         style="stop-color:#323232;stop-opacity:1;"
         offset="0"
         id="stop2785" />
      <stop
         id="stop2787"
         offset="0.07692308"
         style="stop-color:#dfe1e1;stop-opacity:1;" />
      <stop
         style="stop-color:#b6b1b1;stop-opacity:1;"
         offset="0.26289096"
         id="stop2799" />
      <stop
         id="stop2789"
         offset="0.5"
         style="stop-color:#8d8282;stop-opacity:1;" />
      <stop
         style="stop-color:#ffffff;stop-opacity:1;"
         offset="0.78201604"
         id="stop2791" />
      <stop
         style="stop-color:#dfd9df;stop-opacity:1;"
         offset="0.9005897"
         id="stop2793" />
      <stop
         style="stop-color:#3a3a3a;stop-opacity:1;"
         offset="1"
         id="stop2795" />
    </linearGradient>
    <radialGradient
       inkscape:collect="always"
       xlink:href="#linearGradient2783"
       id="radialGradient14951"
       cx="19.96316"
       cy="12.193407"
       fx="19.96316"
       fy="12.193407"
       r="19.20851"
       gradientTransform="matrix(0.9625806,7.1999429e-8,-4.7076092e-8,0.5999451,-3.1953312,3.1341751)"
       gradientUnits="userSpaceOnUse" />
    <linearGradient
       id="linearGradient2370">
      <stop
         id="stop2378"
         offset="0"
         style="stop-color:#000000;stop-opacity:1;" />
      <stop
         style="stop-color:#2a2a2a;stop-opacity:1;"
         offset="1"
         id="stop2374" />
    </linearGradient>
    <linearGradient
       inkscape:collect="always"
       xlink:href="#linearGradient2370"
       id="linearGradient18356"
       x1="-2.4487181"
       y1="31.719992"
       x2="10.382318"
       y2="17.545345"
       gradientUnits="userSpaceOnUse"
       gradientTransform="matrix(0.8000697,0,0,0.8000697,1.5717165e-3,-6.5928391e-3)" />
    <linearGradient
       inkscape:collect="always"
       id="linearGradient2368">
      <stop
         style="stop-color:#ffffff;stop-opacity:1;"
         offset="0"
         id="stop2370" />
      <stop
         style="stop-color:#ffffff;stop-opacity:0;"
         offset="1"
         id="stop2372" />
    </linearGradient>
    <radialGradient
       inkscape:collect="always"
       xlink:href="#linearGradient2368"
       id="radialGradient16566"
       gradientUnits="userSpaceOnUse"
       gradientTransform="matrix(0.8000697,0,0,0.210972,-0.1079971,10.932935)"
       cx="14.910576"
       cy="18.779354"
       fx="14.910576"
       fy="18.779354"
       r="15.878167" />
    <linearGradient
       id="linearGradient9501"
       inkscape:collect="always">
      <stop
         id="stop9503"
         offset="0"
         style="stop-color:white;stop-opacity:1;" />
      <stop
         id="stop16388"
         offset="1"
         style="stop-color:white;stop-opacity:0;" />
    </linearGradient>
    <linearGradient
       inkscape:collect="always"
       xlink:href="#linearGradient9501"
       id="linearGradient16563"
       gradientUnits="userSpaceOnUse"
       x1="-0.91660535"
       y1="5.6293931"
       x2="25.356119"
       y2="6.2796063"
       gradientTransform="matrix(0.8000697,0,0,0.8000697,-0.2551364,1.7185293e-2)" />
  </defs>
  <sodipodi:namedview
     id="base"
     pagecolor="#ffffff"
     bordercolor="#666666"
     borderopacity="1.0"
     inkscape:pageopacity="0.0"
     inkscape:pageshadow="2"
     inkscape:zoom="11.197802"
     inkscape:cx="16"
     inkscape:cy="16"
     inkscape:current-layer="layer1"
     showgrid="false"
     inkscape:grid-bbox="true"
     inkscape:document-units="px"
     inkscape:window-width="910"
     inkscape:window-height="626"
     inkscape:window-x="0"
     inkscape:window-y="49" />
  <metadata
     id="metadata4902">
    <rdf:RDF>
      <cc:Work
         rdf:about="">
        <dc:format>image/svg+xml</dc:format>
        <dc:type
           rdf:resource="http://purl.org/dc/dcmitype/StillImage" />
      </cc:Work>
    </rdf:RDF>
  </metadata>
  <g
     id="layer1"
     inkscape:label="Layer 1"
     inkscape:groupmode="layer">
    <path
       id="path2593"
       style="opacity:0.38139535;fill:url(#radialGradient11403);fill-opacity:1;fill-rule:nonzero;stroke:none;stroke-width:0;stroke-linecap:round;stroke-linejoin:round;stroke-miterlimit:4;stroke-dasharray:none;stroke-dashoffset:4;stroke-opacity:1"
       d="M 30.517839,21.995304 C 30.517839,24.867434 24.171145,27.195758 16.342104,27.195758 C 8.5130608,27.195758 2.1663682,24.867434 2.1663682,21.995304 C 2.1663682,19.123174 8.5130608,16.794851 16.342104,16.794851 C 24.171145,16.794851 30.517839,19.123174 30.517839,21.995304 L 30.517839,21.995304 z " />
    <rect
       id="rect1951"
       style="opacity:0.61162792;fill:#555753;fill-opacity:1;fill-rule:nonzero;stroke:none;stroke-width:0.69999999;stroke-linecap:round;stroke-linejoin:miter;stroke-miterlimit:4;stroke-dasharray:none;stroke-opacity:1"
       y="23.995495"
       x="0"
       height="8.0045042"
       width="32.00436" />
    <text
       xml:space="preserve"
       id="text2840"
       style="font-size:8.86188793px;font-style:normal;font-weight:normal;fill:#eeeeec;fill-opacity:1;stroke:none;stroke-width:1px;stroke-linecap:butt;stroke-linejoin:miter;stroke-opacity:1;font-family:Bitstream Vera Sans"
       transform="scale(1.0833849,0.923033)"
       y="32.820858"
       x="9.313158"><tspan
         id="tspan2842"
         y="32.820858"
         x="9.313158">Ag</tspan></text>
    <path
       id="path3200"
       style="fill:#eeeeec;fill-opacity:1;fill-rule:nonzero;stroke:none;stroke-width:1;stroke-linecap:round;stroke-linejoin:round;stroke-miterlimit:4;stroke-dasharray:none;stroke-opacity:1"
       d="M 16.037257,1.2663056 C 8.5157794,1.2663056 2.5145678,4.2825908 1.2772592,8.0381504 C 0.7167977,9.7393004 0.65267159,10.354868 0.65267159,11.424074 C 0.65267159,12.607655 0.66815605,13.582059 1.2115131,15.052905 C 2.6518771,18.951915 8.4054826,22.330642 16.037257,22.330644 C 23.669027,22.330643 29.697132,18.888203 30.830121,15.052905 C 31.273274,13.552786 31.388964,12.512611 31.388964,11.424074 C 31.388964,10.559644 31.354036,10.150844 30.764376,8.0381504 C 29.698895,4.2206406 23.558732,1.2663056 16.037257,1.2663056 z M 16.037257,5.9085813 C 22.103176,5.9085813 27.243107,8.5518189 28.956359,11.456947 C 28.951304,11.465635 28.961474,11.481145 28.956359,11.489819 C 27.243107,14.394948 22.103176,16.486521 16.037257,16.486521 C 9.9713358,16.486521 4.8314015,14.394948 3.1181492,11.489819 C 3.1130336,11.481145 3.1232038,11.465635 3.1181492,11.456947 C 4.8314015,8.5518189 9.9713358,5.9085813 16.037257,5.9085813 z " />
    <path
       id="path3202"
       style="opacity:1;fill:url(#linearGradient11392);fill-opacity:1;fill-rule:nonzero;stroke:none;stroke-width:1;stroke-linecap:round;stroke-linejoin:round;stroke-miterlimit:4;stroke-dasharray:none;stroke-opacity:1"
       d="M 16.037257,2.2196237 C 8.5715075,2.2196237 2.4935605,5.4128173 2.4935616,9.3530725 C 2.4935616,10.082312 2.7325617,10.794129 3.1181492,11.456947 C 4.8314004,8.5518189 9.9713358,5.9085813 16.037257,5.9085813 C 22.103176,5.9085813 27.243107,8.5518189 28.956359,11.456947 C 29.341947,10.794129 29.548074,10.082312 29.548074,9.3530725 C 29.548074,5.4128173 23.503004,2.2196237 16.037257,2.2196237 z " />
    <path
       id="path3204"
       style="fill:url(#radialGradient14951);fill-opacity:1;fill-rule:nonzero;stroke:none;stroke-width:1;stroke-linecap:round;stroke-linejoin:round;stroke-miterlimit:4;stroke-dasharray:none;stroke-opacity:1"
       d="M 16.037257,1.2663056 C 8.5157794,1.2663056 2.5145678,4.2825908 1.2772592,8.0381504 C 0.7167977,9.7393004 0.65267159,10.354868 0.65267159,11.424074 C 0.65267159,12.607655 0.66815605,13.569261 1.2115131,15.040107 C 2.6518771,18.939117 8.4054826,22.337919 16.037257,22.337921 C 23.669027,22.33792 29.697132,18.875405 30.830121,15.040107 C 31.273274,13.539988 31.388964,12.512611 31.388964,11.424074 C 31.388964,10.559644 31.354036,10.150844 30.764376,8.0381504 C 29.698895,4.2206406 23.558732,1.2663056 16.037257,1.2663056 z M 16.037257,2.2196237 C 23.503004,2.2196237 29.548074,5.4128173 29.548074,9.3530725 C 29.548074,10.082312 29.341947,10.794129 28.956359,11.456947 C 28.951304,11.465635 28.961474,11.481145 28.956359,11.489819 C 27.243107,14.394948 22.103176,16.486521 16.037257,16.486521 C 9.9713358,16.486521 4.8314015,14.394948 3.1181492,11.489819 C 3.1130336,11.481145 3.1232038,11.465635 3.1181492,11.456947 C 2.7325617,10.794129 2.4935616,10.082312 2.4935616,9.3530725 C 2.4935605,5.4128173 8.5715075,2.2196237 16.037257,2.2196237 z " />
    <path
       style="opacity:0.45535715;fill:url(#linearGradient18356);fill-opacity:1;fill-rule:nonzero;stroke:none;stroke-width:1;stroke-linecap:round;stroke-linejoin:round;stroke-miterlimit:4;stroke-dasharray:none;stroke-opacity:1"
       d="M 2.9187036,5.6176728 C 2.1321704,6.3950491 1.5621119,7.2518859 1.2685599,8.1428931 C 0.70809828,9.8440421 0.64350555,10.448981 0.64350555,11.518186 C 0.64350555,12.701768 0.65019647,13.672656 1.1935535,15.143501 C 2.6339173,19.042512 8.3880699,22.444135 16.019844,22.444137 C 23.651615,22.444137 29.688144,18.9788 30.821133,15.143501 C 31.264284,13.643383 31.37118,12.606724 31.37118,11.518186 C 31.371181,10.653757 31.360789,10.255585 30.771128,8.1428931 C 30.553289,7.3623953 30.106541,6.6081625 29.496017,5.9176992 C 31.45057,9.3862045 31.572708,13.190281 29.371007,16.118586 C 25.746038,20.939867 18.523867,20.132975 11.472896,17.370132 C 7.3743872,15.76418 2.3682941,14.437436 2.2361729,9.4430056 C 2.2361729,8.7649344 2.3883478,8.0406235 2.7244339,7.4192668 C 2.6358909,6.7892442 2.8779401,6.2335758 2.9187036,5.6176728 z "
       id="path3206"
       sodipodi:nodetypes="cssssssscssccc" />
    <path
       style="fill:url(#radialGradient16566);fill-opacity:1;fill-rule:nonzero;stroke:none;stroke-width:1;stroke-linecap:round;stroke-linejoin:round;stroke-miterlimit:4;stroke-dasharray:none;stroke-opacity:1"
       d="M 28.842932,11.545007 C 27.101721,14.425245 21.974399,16.495439 15.941809,16.495439 C 10.362055,16.495436 5.5821467,14.714844 3.5157284,12.170062 C 1.4248336,13.353054 7.890419,18.466702 14.381162,18.236243 C 18.964726,18.073501 26.29836,16.366317 28.842932,11.545007 z "
       id="path6831"
       sodipodi:nodetypes="cscsc" />
    <path
       d="M 15.780549,2.2434016 C 11.236473,2.1051279 9.226947,3.297923 9.4681824,6.9548475 C 10.297067,6.7548421 12.003577,5.9843808 15.780549,5.9323593 C 21.845893,5.848819 26.986399,8.5755969 28.699651,11.480725 C 29.085239,10.817907 29.291366,10.10609 29.291366,9.3768506 C 29.291366,5.4365953 23.246297,2.2434016 15.780549,2.2434016 z "
       style="opacity:0.52427183;fill:url(#linearGradient16563);fill-opacity:1;fill-rule:nonzero;stroke:none;stroke-width:1;stroke-linecap:round;stroke-linejoin:round;stroke-miterlimit:4;stroke-dasharray:none;stroke-opacity:1"
       id="path8614"
       sodipodi:nodetypes="ccscsc" />
  </g>
</svg>
