<?xml version="1.0" encoding="UTF-8" standalone="no"?>
<!-- Created with Inkscape (http://www.inkscape.org/) -->
<svg
   xmlns:dc="http://purl.org/dc/elements/1.1/"
   xmlns:cc="http://web.resource.org/cc/"
   xmlns:rdf="http://www.w3.org/1999/02/22-rdf-syntax-ns#"
   xmlns:svg="http://www.w3.org/2000/svg"
   xmlns="http://www.w3.org/2000/svg"
   xmlns:xlink="http://www.w3.org/1999/xlink"
   xmlns:sodipodi="http://sodipodi.sourceforge.net/DTD/sodipodi-0.dtd"
   xmlns:inkscape="http://www.inkscape.org/namespaces/inkscape"
   width="32px"
   height="32px"
   id="svg5040"
   sodipodi:version="0.32"
   inkscape:version="0.44.1"
   sodipodi:docbase="/home/carsten/svn/kalzium_www/files"
   sodipodi:docname="5_2.svg">
  <defs
     id="defs5042">
    <linearGradient
       inkscape:collect="always"
       id="linearGradient8021">
      <stop
         style="stop-color:#00bf00;stop-opacity:1;"
         offset="0"
         id="stop8023" />
      <stop
         style="stop-color:#00bf00;stop-opacity:0;"
         offset="1"
         id="stop8025" />
    </linearGradient>
    <radialGradient
       inkscape:collect="always"
       xlink:href="#linearGradient8021"
       id="radialGradient8027"
       cx="15.265994"
       cy="35.713379"
       fx="15.265994"
       fy="35.713379"
       r="12.956253"
       gradientTransform="matrix(1,0,0,0.2416175,0,15.693367)"
       gradientUnits="userSpaceOnUse" />
    <linearGradient
       inkscape:collect="always"
       id="linearGradient7044">
      <stop
         style="stop-color:#00bf00;stop-opacity:1;"
         offset="0"
         id="stop7046" />
      <stop
         style="stop-color:#00bf00;stop-opacity:0;"
         offset="1"
         id="stop7048" />
    </linearGradient>
    <radialGradient
       inkscape:collect="always"
       xlink:href="#linearGradient7044"
       id="radialGradient7050"
       cx="14.998084"
       cy="34.239861"
       fx="14.998084"
       fy="34.239861"
       r="12.956253"
       gradientTransform="matrix(0.9379659,2.2242579e-8,-1.1646103e-8,0.4690758,0.9303935,8.2612524)"
       gradientUnits="userSpaceOnUse" />
    <linearGradient
       inkscape:collect="always"
       id="linearGradient6067">
      <stop
         style="stop-color:#e20800;stop-opacity:1;"
         offset="0"
         id="stop6069" />
      <stop
         style="stop-color:#e20800;stop-opacity:0;"
         offset="1"
         id="stop6071" />
    </linearGradient>
    <radialGradient
       inkscape:collect="always"
       xlink:href="#linearGradient6067"
       id="radialGradient6073"
       cx="15.513486"
       cy="27.328955"
       fx="15.513486"
       fy="27.328955"
       r="10.798396"
       gradientTransform="matrix(0.9999771,6.75973e-3,-8.2700474e-3,1.2234007,0.2394988,-9.2222641)"
       gradientUnits="userSpaceOnUse" />
  </defs>
  <sodipodi:namedview
     id="base"
     pagecolor="#ffffff"
     bordercolor="#666666"
     borderopacity="1.0"
     inkscape:pageopacity="0.0"
     inkscape:pageshadow="2"
     inkscape:zoom="11.197802"
     inkscape:cx="16"
     inkscape:cy="16"
     inkscape:current-layer="layer1"
     showgrid="true"
     inkscape:grid-bbox="true"
     inkscape:document-units="px"
     inkscape:window-width="925"
     inkscape:window-height="669"
     inkscape:window-x="0"
     inkscape:window-y="49" />
  <metadata
     id="metadata5045">
    <rdf:RDF>
      <cc:Work
         rdf:about="">
        <dc:format>image/svg+xml</dc:format>
        <dc:type
           rdf:resource="http://purl.org/dc/dcmitype/StillImage" />
      </cc:Work>
    </rdf:RDF>
  </metadata>
  <g
     id="layer1"
     inkscape:label="Layer 1"
     inkscape:groupmode="layer">
    <g
       id="g26828"
       transform="matrix(0.8016387,0,0,0.8016387,1.5747764e-3,-6.9363339e-2)">
      <rect
         width="40.001965"
         height="10.004759"
         x="-0.0019644466"
         y="30"
         style="opacity:0.61162792;fill:#555753;fill-opacity:1;fill-rule:nonzero;stroke:none;stroke-width:0.69999999;stroke-linecap:round;stroke-linejoin:miter;stroke-miterlimit:4;stroke-dasharray:none;stroke-opacity:1"
         id="rect1951" />
      <text
         x="16.000019"
         y="39.168156"
         style="font-size:12px;font-style:normal;font-weight:normal;fill:#eeeeec;fill-opacity:1;stroke:none;stroke-width:1px;stroke-linecap:butt;stroke-linejoin:miter;stroke-opacity:1;font-family:Bitstream Vera Sans"
         id="text2840"
         xml:space="preserve"><tspan
           x="16.000019"
           y="39.168156"
           id="tspan2842">B</tspan></text>
      <g
         transform="translate(4.2113218,5.8712998)"
         id="g10163">
        <path
           sodipodi:nodetypes="csscssccccccsssc"
           id="path11085"
           d="M 3.0287178,23.936521 C 2.5302871,21.760859 1.9334619,16.550755 2.5800905,15.425165 C 5.5598161,10.238338 2.3915698,17.799766 5.6425794,17.401867 C 8.2934428,17.077422 8.611547,13.81781 10.367637,11.671479 C 11.196765,12.524449 9.7685619,14.617707 10.367637,15.290672 C 11.254095,16.286464 14.267553,13.72928 14.087363,12.174145 C 13.785003,9.5646311 19.930553,1.1686987 19.315087,4.2320269 C 19.500012,7.1230441 20.841578,4.5065211 21.426282,3.1261623 C 22.153744,1.6797322 23.576603,1.7657046 24.140677,1.7186985 C 23.854587,3.8946374 23.497824,5.1559801 24.944942,6.9464216 C 25.586305,8.1612058 25.44628,9.4576331 25.347074,10.76668 C 26.00288,11.214596 26.744707,10.635737 27.458271,10.264015 C 27.762767,12.487008 27.069776,14.599779 26.754538,16.497069 C 26.599661,17.429212 28.777553,17.310611 29.267867,16.396536 C 30.784411,13.569301 31.047529,19.233907 31.077464,21.021061 C 31.098113,22.253897 30.559003,23.039642 30.172665,24.238122"
           style="fill:#00bf00;fill-opacity:0.35736676;fill-rule:evenodd;stroke:none;stroke-width:0.5;stroke-linecap:round;stroke-linejoin:round;stroke-miterlimit:4;stroke-dasharray:none;stroke-opacity:1" />
        <path
           style="fill:#ffdd00;fill-opacity:1;fill-rule:evenodd;stroke:#00bf00;stroke-width:0.5;stroke-linecap:round;stroke-linejoin:round;stroke-miterlimit:4;stroke-dasharray:none;stroke-opacity:1"
           d="M 2.1432777,23.784102 C 1.7005234,21.851469 1.1703656,17.223351 1.7447636,16.223493 C 4.3916436,11.616052 1.5773013,18.332843 4.465162,17.979391 C 6.8199148,17.691187 7.1024856,14.795685 8.6624143,12.889107 C 9.3989262,13.646797 8.1302583,15.506231 8.6624143,16.104023 C 9.4498519,16.988582 12.126696,14.717044 11.966634,13.335623 C 11.698049,11.017601 17.15712,3.559523 16.610403,6.2806669 C 16.774671,8.8487475 17.96638,6.5244992 18.485771,5.2983312 C 19.131972,4.0134723 20.395893,4.0898413 20.896958,4.0480859 C 20.642826,5.9809649 20.325914,7.1014113 21.611384,8.6918543 C 22.181104,9.770943 22.056721,10.922555 21.968597,12.085377 C 22.551147,12.483259 23.210109,11.96906 23.843965,11.638861 C 24.114448,13.613538 23.498867,15.490305 23.218842,17.175662 C 23.081266,18.003681 25.015879,17.898328 25.451423,17.086359 C 26.798564,14.574935 27.032291,19.606786 27.058882,21.194308 C 27.077225,22.289432 26.598336,22.987407 26.255152,24.052012"
           id="path2168"
           sodipodi:nodetypes="csscssccccccsssc" />
        <path
           sodipodi:nodetypes="csscssccccccsssc"
           id="path4112"
           d="M 3.7589789,24.20098 C 3.3849603,22.947045 2.9371072,19.654507 3.4223324,19.005778 C 5.6582957,16.016365 3.2808678,20.374371 5.7204006,20.145043 C 7.7095882,19.958049 7.9482911,18.079382 9.2660477,16.842351 C 9.8882193,17.33396 8.8165066,18.540401 9.2660477,18.928262 C 9.9312393,19.502184 12.192514,18.028359 12.057301,17.132061 C 11.830412,15.628077 16.441986,10.789108 15.980145,12.554647 C 16.118911,14.220876 17.125613,12.712851 17.56437,11.917286 C 18.110251,11.08364 19.177955,11.13319 19.601231,11.106099 C 19.386552,12.360193 19.118839,13.087165 20.204746,14.119079 C 20.686019,14.819217 20.580946,15.566409 20.506503,16.320874 C 20.998614,16.579029 21.555275,16.245404 22.090728,16.031163 C 22.31922,17.312379 21.799204,18.530069 21.562652,19.623566 C 21.446434,20.160804 23.080707,20.092448 23.448634,19.565623 C 24.586638,17.936156 24.78408,21.200933 24.806542,22.230954 C 24.822038,22.941495 24.266616,23.626125 23.97671,24.316864"
           style="fill:url(#radialGradient6073);fill-opacity:1;fill-rule:evenodd;stroke:none;stroke-width:0.32750669;stroke-linecap:round;stroke-linejoin:round;stroke-miterlimit:4;stroke-dasharray:none;stroke-opacity:1" />
        <path
           sodipodi:nodetypes="csscssccccccsss"
           id="path6064"
           d="M 1.5177127,24.322343 C 1.0718016,23.553198 1.1674436,23.488345 1.7459371,23.090423 C 4.4116895,21.256763 1.5772807,23.929898 4.4857321,23.789232 C 6.8572745,23.674533 7.14186,22.522187 8.7129111,21.763411 C 9.4546744,22.064955 8.1769608,22.804969 8.7129111,23.042877 C 9.5059632,23.394912 12.201894,22.49089 12.040691,21.941114 C 11.770191,21.018593 17.268185,18.050442 16.71757,19.133397 C 16.88301,20.155437 18.083216,19.230437 18.60631,18.742449 C 19.257118,18.231104 20.530051,18.261497 21.034689,18.244879 C 20.778745,19.014122 20.459573,19.460035 21.754209,20.092997 C 22.327991,20.52245 22.202721,20.980767 22.113969,21.443544 C 22.700672,21.601892 23.364333,21.397252 24.002708,21.265841 C 24.27512,22.051719 23.65515,22.798631 23.373128,23.469366 C 23.234571,23.798899 25.182978,23.756971 25.621627,23.433825 C 26.978374,22.434333 27.123827,23.619463 27.150608,24.251261"
           style="fill:url(#radialGradient7050);fill-opacity:1;fill-rule:evenodd;stroke:none;stroke-width:0.31654999;stroke-linecap:round;stroke-linejoin:round;stroke-miterlimit:4;stroke-dasharray:none;stroke-opacity:1" />
        <path
           style="fill:#00bf00;fill-opacity:0.35423201;fill-rule:evenodd;stroke:none;stroke-width:0.31654999;stroke-linecap:round;stroke-linejoin:round;stroke-miterlimit:4;stroke-dasharray:none;stroke-opacity:1"
           d="M 1.3911629,24.143737 C 1.289486,23.657141 1.3112944,23.616112 1.4432027,23.364368 C 2.0510485,22.20431 1.4047456,23.895458 2.0679318,23.806466 C 2.6086918,23.733903 2.6735831,23.004876 3.0318147,22.524839 C 3.2009518,22.71561 2.9096071,23.183776 3.0318147,23.334288 C 3.2126468,23.557002 3.8273739,22.985076 3.7906163,22.637262 C 3.7289368,22.053633 4.9825911,20.175844 4.8570401,20.860971 C 4.8947641,21.507561 5.1684351,20.922363 5.2877111,20.61364 C 5.4361091,20.290139 5.7263631,20.309367 5.8414311,20.298854 C 5.7830711,20.785512 5.7102931,21.067618 6.0054961,21.468058 C 6.1363301,21.73975 6.1077661,22.029702 6.0875291,22.322476 C 6.2213091,22.422655 6.3726371,22.29319 6.5182001,22.210053 C 6.5803151,22.707236 6.4389501,23.179767 6.3746431,23.604105 C 6.3430491,23.812582 6.7873261,23.786057 6.8873461,23.58162 C 7.1967131,22.949295 7.2298781,23.699063 7.2359851,24.098767"
           id="path10106"
           sodipodi:nodetypes="csscssccccccsss" />
        <path
           sodipodi:nodetypes="csscssccccccsss"
           id="path10108"
           d="M 21.216482,24.143737 C 21.114805,23.657141 21.136614,23.616112 21.268522,23.364368 C 21.876368,22.20431 21.230065,23.895458 21.893251,23.806466 C 22.434011,23.733903 22.498902,23.004876 22.857134,22.524839 C 23.026271,22.71561 22.734926,23.183776 22.857134,23.334288 C 23.037966,23.557002 23.652693,22.985076 23.615936,22.637262 C 23.554256,22.053633 24.80791,20.175844 24.682359,20.860971 C 24.720083,21.507561 24.993754,20.922363 25.11303,20.61364 C 25.261428,20.290139 25.551682,20.309367 25.66675,20.298854 C 25.60839,20.785512 25.535612,21.067618 25.830815,21.468058 C 25.961649,21.73975 25.933085,22.029702 25.912848,22.322476 C 26.046628,22.422655 26.197956,22.29319 26.343519,22.210053 C 26.405634,22.707236 26.264269,23.179767 26.199962,23.604105 C 26.168368,23.812582 26.612645,23.786057 26.712665,23.58162 C 27.022032,22.949295 27.055197,23.699063 27.061304,24.098767"
           style="fill:#00bf00;fill-opacity:0.35423201;fill-rule:evenodd;stroke:none;stroke-width:0.31654999;stroke-linecap:round;stroke-linejoin:round;stroke-miterlimit:4;stroke-dasharray:none;stroke-opacity:1" />
        <path
           style="fill:#00bf00;fill-opacity:0.35423201;fill-rule:evenodd;stroke:none;stroke-width:0.31654999;stroke-linecap:round;stroke-linejoin:round;stroke-miterlimit:4;stroke-dasharray:none;stroke-opacity:1"
           d="M 3.4788642,24.143737 C 3.3234005,23.657141 3.3567464,23.616112 3.5584331,23.364368 C 4.4878271,22.20431 3.4996326,23.895458 4.5136411,23.806466 C 5.3404609,23.733903 5.439679,23.004876 5.9874142,22.524839 C 6.2460239,22.71561 5.8005587,23.183776 5.9874142,23.334288 C 6.2639056,23.557002 7.2038205,22.985076 7.1476192,22.637262 C 7.0533108,22.053633 8.9701431,20.175844 8.7781761,20.860971 C 8.835856,21.507561 9.2542978,20.922363 9.4366703,20.61364 C 9.6635702,20.290139 10.107367,20.309367 10.283306,20.298854 C 10.194074,20.785512 10.082796,21.067618 10.534161,21.468058 C 10.734205,21.73975 10.690531,22.029702 10.659589,22.322476 C 10.864138,22.422655 11.095518,22.29319 11.318083,22.210053 C 11.413056,22.707236 11.19691,23.179767 11.098585,23.604105 C 11.050278,23.812582 11.729575,23.786057 11.882505,23.58162 C 12.355526,22.949295 12.406235,23.699063 12.415573,24.098767"
           id="path10110"
           sodipodi:nodetypes="csscssccccccsss" />
        <path
           style="fill:url(#radialGradient8027);fill-opacity:1;fill-rule:evenodd;stroke:none;stroke-width:0.31654999;stroke-linecap:round;stroke-linejoin:round;stroke-miterlimit:4;stroke-dasharray:none;stroke-opacity:1"
           d="M 1.5177127,24.322343 C 1.0718016,23.926162 1.1674436,23.892757 1.7459371,23.68779 C 4.4116895,22.743285 1.5772807,24.120197 4.4857321,24.047741 C 6.8572745,23.988661 7.14186,23.395096 8.7129111,23.004256 C 9.4546744,23.159579 8.1769608,23.540755 8.7129111,23.663299 C 9.5059632,23.84463 12.201894,23.378975 12.040691,23.095789 C 11.770191,22.620606 17.268185,21.091733 16.71757,21.649555 C 16.88301,22.176 18.083216,21.69954 18.60631,21.448181 C 19.257118,21.184791 20.530051,21.200446 21.034689,21.191886 C 20.778745,21.588117 20.459573,21.817804 21.754209,22.143838 C 22.327991,22.365046 22.202721,22.601122 22.113969,22.839495 C 22.700672,22.921059 23.364333,22.81565 24.002708,22.747961 C 24.27512,23.152761 23.65515,23.53749 23.373128,23.882981 C 23.234571,24.052721 25.182978,24.031124 25.621627,23.864674 C 26.978374,23.349843 27.123827,23.960295 27.150608,24.285729"
           id="path10112"
           sodipodi:nodetypes="csscssccccccsss" />
      </g>
    </g>
  </g>
</svg>
