<?xml version="1.0" encoding="UTF-8" standalone="no"?>
<!-- Created with Inkscape (http://www.inkscape.org/) -->
<svg
   xmlns:dc="http://purl.org/dc/elements/1.1/"
   xmlns:cc="http://web.resource.org/cc/"
   xmlns:rdf="http://www.w3.org/1999/02/22-rdf-syntax-ns#"
   xmlns:svg="http://www.w3.org/2000/svg"
   xmlns="http://www.w3.org/2000/svg"
   xmlns:xlink="http://www.w3.org/1999/xlink"
   xmlns:sodipodi="http://sodipodi.sourceforge.net/DTD/sodipodi-0.dtd"
   xmlns:inkscape="http://www.inkscape.org/namespaces/inkscape"
   version="1.0"
   width="40"
   height="40"
   id="svg2193"
   sodipodi:version="0.32"
   inkscape:version="0.44.1"
   sodipodi:docname="50.svg"
   sodipodi:docbase="/home/carsten/svn/kalzium_www/files">
  <metadata
     id="metadata125">
    <rdf:RDF>
      <cc:Work
         rdf:about="">
        <dc:format>image/svg+xml</dc:format>
        <dc:type
           rdf:resource="http://purl.org/dc/dcmitype/StillImage" />
      </cc:Work>
    </rdf:RDF>
  </metadata>
  <sodipodi:namedview
     inkscape:window-height="637"
     inkscape:window-width="925"
     inkscape:pageshadow="2"
     inkscape:pageopacity="0.0"
     guidetolerance="10.0"
     gridtolerance="10.0"
     objecttolerance="10.0"
     borderopacity="1.0"
     bordercolor="#666666"
     pagecolor="#ffffff"
     id="base"
     inkscape:zoom="10.875"
     inkscape:cx="20"
     inkscape:cy="19.954023"
     inkscape:window-x="347"
     inkscape:window-y="0"
     inkscape:current-layer="svg2193" />
  <defs
     id="defs2195">
    <linearGradient
       id="linearGradient3509">
      <stop
         style="stop-color:#989898;stop-opacity:1"
         offset="0"
         id="stop3511" />
      <stop
         style="stop-color:#dedfdd;stop-opacity:1"
         offset="1"
         id="stop3513" />
    </linearGradient>
    <linearGradient
       id="linearGradient3397">
      <stop
         style="stop-color:#000000;stop-opacity:1"
         offset="0"
         id="stop3399" />
      <stop
         style="stop-color:#000000;stop-opacity:0"
         offset="1"
         id="stop3401" />
    </linearGradient>
    <linearGradient
       id="linearGradient3544">
      <stop
         style="stop-color:#000000;stop-opacity:0"
         offset="0"
         id="stop3546" />
      <stop
         style="stop-color:#ffffff;stop-opacity:0"
         offset="0.125"
         id="stop3548" />
      <stop
         style="stop-color:#000000;stop-opacity:0.41414142"
         offset="0.75"
         id="stop3550" />
      <stop
         style="stop-color:#0a0a0a;stop-opacity:0.3131313"
         offset="1"
         id="stop3552" />
    </linearGradient>
    <linearGradient
       id="linearGradient3514">
      <stop
         style="stop-color:#000000;stop-opacity:0.72727275"
         offset="0"
         id="stop3516" />
      <stop
         style="stop-color:#ffffff;stop-opacity:0.55555558"
         offset="0.6875"
         id="stop3518" />
      <stop
         style="stop-color:#000000;stop-opacity:0.3131313"
         offset="0.8203125"
         id="stop3520" />
      <stop
         style="stop-color:#000000;stop-opacity:0.83838385"
         offset="1"
         id="stop3522" />
    </linearGradient>
    <linearGradient
       id="linearGradient3492">
      <stop
         style="stop-color:#000000;stop-opacity:0"
         offset="0"
         id="stop3494" />
      <stop
         style="stop-color:#000000;stop-opacity:0.28282827"
         offset="0.95537955"
         id="stop3500" />
      <stop
         style="stop-color:#000000;stop-opacity:0"
         offset="1"
         id="stop3496" />
    </linearGradient>
    <linearGradient
       id="linearGradient3456">
      <stop
         style="stop-color:#000000;stop-opacity:1"
         offset="0"
         id="stop3458" />
      <stop
         style="stop-color:#ffffff;stop-opacity:1"
         offset="0.125"
         id="stop3466" />
      <stop
         style="stop-color:#000000;stop-opacity:0.56565654"
         offset="0.75"
         id="stop3468" />
      <stop
         style="stop-color:#ffffff;stop-opacity:0.5151515"
         offset="0.875"
         id="stop3470" />
      <stop
         style="stop-color:#000000;stop-opacity:1"
         offset="1"
         id="stop3460" />
    </linearGradient>
    <linearGradient
       id="linearGradient3239">
      <stop
         style="stop-color:#eeeeec;stop-opacity:1"
         offset="0"
         id="stop3241" />
      <stop
         style="stop-color:#eeeeec;stop-opacity:0"
         offset="1"
         id="stop3243" />
    </linearGradient>
    <linearGradient
       id="linearGradient3291">
      <stop
         style="stop-color:#000000;stop-opacity:1"
         offset="0"
         id="stop3293" />
      <stop
         style="stop-color:#000000;stop-opacity:0"
         offset="1"
         id="stop3295" />
    </linearGradient>
    <linearGradient
       id="linearGradient2308">
      <stop
         style="stop-color:#0e0000;stop-opacity:0"
         offset="0"
         id="stop2310" />
      <stop
         style="stop-color:#0e0000;stop-opacity:0"
         offset="0.5"
         id="stop3480" />
      <stop
         style="stop-color:#0e0000;stop-opacity:1"
         offset="1"
         id="stop2312" />
    </linearGradient>
    <radialGradient
       cx="63.912209"
       cy="115.70919"
       r="63.912209"
       fx="75.857941"
       fy="115.70919"
       id="radialGradient2595"
       xlink:href="#linearGradient3291"
       gradientUnits="userSpaceOnUse"
       gradientTransform="matrix(1,0,0,0.197802,0,92.82166)" />
    <radialGradient
       cx="19.579216"
       cy="1.2115231"
       r="17.031681"
       fx="19.579216"
       fy="1.2115231"
       id="radialGradient3464"
       xlink:href="#linearGradient2308"
       gradientUnits="userSpaceOnUse"
       gradientTransform="matrix(-1.4021593,-1.6850221e-2,3.7083978e-3,-0.3085885,47.042869,21.361708)" />
    <radialGradient
       cx="20.419422"
       cy="17.578127"
       r="17.5"
       fx="20.419422"
       fy="17.578127"
       id="radialGradient3478"
       xlink:href="#linearGradient3456"
       gradientUnits="userSpaceOnUse"
       gradientTransform="matrix(-1.0045575,6.6312732e-2,-1.9519413e-2,-0.2956954,41.275022,21.42183)" />
    <radialGradient
       cx="19.775957"
       cy="67.226227"
       r="16.515625"
       fx="19.775957"
       fy="67.226227"
       id="radialGradient3490"
       xlink:href="#linearGradient3492"
       gradientUnits="userSpaceOnUse"
       gradientTransform="matrix(-1.2233441,-2.3104457e-2,9.2740738e-3,-0.4910435,43.303714,50.062812)" />
    <linearGradient
       x1="3.21875"
       y1="28.296875"
       x2="36.25"
       y2="28.296875"
       id="linearGradient3504"
       xlink:href="#linearGradient3492"
       gradientUnits="userSpaceOnUse" />
    <linearGradient
       x1="2.625"
       y1="16.167227"
       x2="36.625"
       y2="16.167227"
       id="linearGradient3512"
       xlink:href="#linearGradient3514"
       gradientUnits="userSpaceOnUse" />
    <radialGradient
       cx="19.703125"
       cy="16.827438"
       r="16.546875"
       fx="19.703125"
       fy="16.827438"
       id="radialGradient3534"
       xlink:href="#linearGradient3514"
       gradientUnits="userSpaceOnUse"
       gradientTransform="matrix(-0.9092494,4.6121639e-2,-1.0902263e-2,-0.2149291,37.801638,19.535403)" />
    <radialGradient
       cx="21.378475"
       cy="12.11699"
       r="10.75"
       fx="21.378475"
       fy="12.11699"
       id="radialGradient3542"
       xlink:href="#linearGradient3544"
       gradientUnits="userSpaceOnUse"
       gradientTransform="matrix(0.8935107,0.6283693,-0.4623776,0.6574782,8.8637262,-8.8201711)" />
    <linearGradient
       x1="31.962305"
       y1="18.629904"
       x2="30.865049"
       y2="14.5625"
       id="linearGradient3366"
       xlink:href="#linearGradient3291"
       gradientUnits="userSpaceOnUse" />
    <linearGradient
       x1="6.5625"
       y1="14.624666"
       x2="28.991732"
       y2="23.975822"
       id="linearGradient3374"
       xlink:href="#linearGradient3291"
       gradientUnits="userSpaceOnUse" />
    <linearGradient
       x1="9.53125"
       y1="17.75"
       x2="29.15625"
       y2="17.75"
       id="linearGradient3382"
       xlink:href="#linearGradient3291"
       gradientUnits="userSpaceOnUse" />
    <linearGradient
       x1="17.859913"
       y1="19.682596"
       x2="20.626682"
       y2="14.3125"
       id="linearGradient3393"
       xlink:href="#linearGradient2308"
       gradientUnits="userSpaceOnUse" />
    <linearGradient
       x1="15.009063"
       y1="18.313177"
       x2="25.311893"
       y2="18.313177"
       id="linearGradient3403"
       xlink:href="#linearGradient3397"
       gradientUnits="userSpaceOnUse" />
    <linearGradient
       x1="12.53125"
       y1="7.125"
       x2="11.513686"
       y2="3.8125"
       id="linearGradient3411"
       xlink:href="#linearGradient2308"
       gradientUnits="userSpaceOnUse" />
    <linearGradient
       x1="21.96875"
       y1="4.90625"
       x2="21.96875"
       y2="13.551009"
       id="linearGradient3419"
       xlink:href="#linearGradient3514"
       gradientUnits="userSpaceOnUse" />
    <linearGradient
       x1="25.34375"
       y1="17.079247"
       x2="32.587975"
       y2="17.079247"
       id="linearGradient3427"
       xlink:href="#linearGradient3239"
       gradientUnits="userSpaceOnUse" />
    <linearGradient
       x1="26.46875"
       y1="17.28125"
       x2="29.5625"
       y2="17.28125"
       id="linearGradient3435"
       xlink:href="#linearGradient3239"
       gradientUnits="userSpaceOnUse" />
    <linearGradient
       x1="22.369564"
       y1="10.643757"
       x2="7.8692832"
       y2="10.643757"
       id="linearGradient3443"
       xlink:href="#linearGradient3514"
       gradientUnits="userSpaceOnUse" />
    <linearGradient
       x1="16.058212"
       y1="13.413011"
       x2="22.468367"
       y2="13.413011"
       id="linearGradient3451"
       xlink:href="#linearGradient3514"
       gradientUnits="userSpaceOnUse" />
    <linearGradient
       x1="15.150584"
       y1="15.943935"
       x2="11.884241"
       y2="9.4989948"
       id="linearGradient3459"
       xlink:href="#linearGradient3514"
       gradientUnits="userSpaceOnUse" />
    <linearGradient
       x1="21.152653"
       y1="18.176662"
       x2="23.064554"
       y2="12.198477"
       id="linearGradient3465"
       xlink:href="#linearGradient3291"
       gradientUnits="userSpaceOnUse" />
    <radialGradient
       cx="54.654888"
       cy="6.5838761"
       r="1.0235276"
       fx="54.654888"
       fy="6.5838761"
       id="radialGradient3473"
       xlink:href="#linearGradient3456"
       gradientUnits="userSpaceOnUse"
       gradientTransform="matrix(1.0166632,-3.6315509e-3,1.6919204e-3,0.4736585,-0.9218665,3.6532317)" />
    <linearGradient
       x1="18.096079"
       y1="4.6294832"
       x2="16.879789"
       y2="-1.3748243"
       id="linearGradient3483"
       xlink:href="#linearGradient3456"
       gradientUnits="userSpaceOnUse" />
    <linearGradient
       x1="11.980626"
       y1="3.0756733"
       x2="18.506899"
       y2="3.0756733"
       id="linearGradient3491"
       xlink:href="#linearGradient3514"
       gradientUnits="userSpaceOnUse" />
    <linearGradient
       x1="17.35573"
       y1="1.465713"
       x2="25.29747"
       y2="1.465713"
       id="linearGradient3499"
       xlink:href="#linearGradient3514"
       gradientUnits="userSpaceOnUse" />
    <linearGradient
       x1="37.271694"
       y1="28.510576"
       x2="25.624437"
       y2="28.510576"
       id="linearGradient3507"
       xlink:href="#linearGradient3509"
       gradientUnits="userSpaceOnUse" />
    <linearGradient
       x1="18.181873"
       y1="0.53001034"
       x2="19.019646"
       y2="4.808239"
       id="linearGradient3521"
       xlink:href="#linearGradient3514"
       gradientUnits="userSpaceOnUse" />
  </defs>
  <g
     id="layer1">
    <path
       d="M 127.82442 115.70919 A 63.912209 12.641975 0 1 1  0,115.70919 A 63.912209 12.641975 0 1 1  127.82442 115.70919 z"
       transform="matrix(0.2772262,0,0,0.404337,2.70576,-12.777688)"
       style="opacity:0.38139535;fill:url(#radialGradient2595);fill-opacity:1;fill-rule:nonzero;stroke:none;stroke-width:0;stroke-linecap:round;stroke-linejoin:round;stroke-miterlimit:4;stroke-dasharray:none;stroke-dashoffset:4;stroke-opacity:1"
       id="path2593" />
    <path
       d="M 19.65625,12.40625 C 9.9906125,12.40625 2.15625,14.708622 2.15625,17.5625 C 2.15625,17.969884 2.2934421,18.371094 2.59375,18.75 C 2.5855085,18.814493 2.5625,18.872412 2.5625,18.9375 C 2.5625,19.417962 2.8264976,19.871522 3.25,20.3125 L 3.5,20.90625 L 3.71875,30.5 C 3.7627707,33.862029 10.880675,36.59375 19.65625,36.59375 C 28.431824,36.59375 35.549729,33.86203 35.59375,30.5 L 35.6875,20.90625 C 35.6875,20.90625 35.987408,20.486728 36.25,20 C 36.492582,19.660504 36.625,19.29795 36.625,18.9375 C 36.625,18.905942 36.626946,18.87517 36.625,18.84375 C 36.977583,18.434978 37.15625,18.004716 37.15625,17.5625 C 37.15625,14.708621 29.321887,12.40625 19.65625,12.40625 z M 34.78125,19.375 C 34.42929,19.571238 34.035803,19.757898 33.59375,19.9375 C 33.152001,20.116978 32.679695,20.276973 32.15625,20.4375 C 31.639669,20.595922 31.088144,20.737296 30.5,20.875 C 31.088335,20.736389 31.639794,20.597022 32.15625,20.4375 C 32.672706,20.277978 33.157001,20.115662 33.59375,19.9375 C 34.030499,19.759338 34.432037,19.569532 34.78125,19.375 z "
       style="opacity:1;fill:#babdb6;fill-opacity:1;fill-rule:nonzero;stroke:none;stroke-width:0.2;stroke-linecap:round;stroke-linejoin:round;stroke-miterlimit:4;stroke-dasharray:none;stroke-opacity:1"
       id="path2327" />
    <path
       d="M 19.65625,12.40625 C 9.9906125,12.40625 2.15625,14.708622 2.15625,17.5625 C 2.15625,20.416379 9.9906119,22.750001 19.65625,22.75 C 29.321887,22.75 37.15625,20.41638 37.15625,17.5625 C 37.15625,14.708621 29.321887,12.40625 19.65625,12.40625 z M 19.625,12.5 C 29.004211,12.5 36.625,14.624753 36.625,17.25 C 36.624999,19.875248 29.004211,22 19.625,22 C 10.24579,21.999999 2.625,19.875247 2.625,17.25 C 2.6250001,14.624754 10.245789,12.5 19.625,12.5 z "
       style="opacity:0.42233013;fill:url(#radialGradient3478);fill-opacity:1;fill-rule:nonzero;stroke:none;stroke-width:0.2;stroke-linecap:round;stroke-linejoin:round;stroke-miterlimit:4;stroke-dasharray:none;stroke-opacity:1"
       id="path3249" />
    <path
       d="M 21.375,0.53125 C 20.263161,0.548759 19.187499,0.75 19.1875,0.75 L 11.6875,3.125 C 11.6875,3.125 11.053794,3.5082 11.3125,3.90625 C 11.223757,4.130946 11.28059,4.412834 11.84375,4.65625 C 12.145854,4.786829 12.460851,4.852538 12.78125,4.90625 L 12.8125,4.96875 C 12.763364,4.963423 12.738944,4.942543 12.6875,4.9375 C 12.634039,4.932259 12.584463,4.912559 12.53125,4.90625 C 12.07292,4.851909 11.637083,4.765062 11.21875,4.65625 C 11.14708,4.637376 11.099753,4.613226 11.03125,4.59375 C 10.636481,4.483733 10.283626,4.367826 9.96875,4.25 C 9.748411,4.167549 9.642872,4.134251 9.46875,4.0625 C 9.224631,3.959188 9.027395,3.870587 8.90625,3.8125 C 8.815637,3.769052 8.6875,3.71875 8.6875,3.71875 C 8.6875,3.71875 8.91317,6.130418 9.625,8.03125 C 10.566085,10.54427 14.65625,12.625 14.65625,12.625 L 20.53125,14.84375 L 30.1875,19.40625 L 31.03125,19.8125 L 32.09375,19.90625 C 32.298651,19.974455 32.508571,20.039454 32.71875,20.09375 C 32.810549,20.117465 32.907638,20.135427 33,20.15625 C 33.666549,19.914608 34.286875,19.650396 34.78125,19.375 C 34.972278,19.108107 35.0625,18.844918 35.0625,18.5625 C 35.0625,16.733972 30.908669,15.175239 25.09375,14.5625 C 24.35641,13.379579 23.927703,12.607701 22.4375,10.90625 C 20.86138,9.106702 18.203238,7.35139 16.375,6.34375 C 15.660671,5.950044 15.220222,5.657064 14.75,5.4375 L 14.4375,4.96875 C 15.328533,4.87949 15.999999,4.65625 16,4.65625 C 16,4.65625 17.799368,4.398528 19.90625,4.0625 C 22.013132,3.726472 24.427528,3.312137 25.625,3.03125 C 25.976206,2.948869 26.254758,2.695919 26.34375,2.375 C 26.365998,2.29477 26.365946,2.216215 26.34375,2.125 C 26.321554,2.033785 26.290718,1.925255 26.25,1.84375 C 26.168564,1.68074 26.0625,1.5625 26.0625,1.5625 L 25.9375,1.53125 C 25.867158,1.469104 25.781251,1.40625 25.78125,1.40625 L 23.625,0.6875 C 23.625,0.6875 22.486838,0.513741 21.375,0.53125 z M 20.28125,1.4375 C 20.551977,1.427593 20.853932,1.431158 21.15625,1.4375 C 22.710646,1.470107 24.946702,1.725484 24.90625,2.03125 C 24.879189,2.235812 24.142124,2.396585 22.71875,2.5 C 21.364461,2.598395 20.935303,2.715914 19.5625,2.625 C 18.189697,2.534086 17.84375,2.15625 17.84375,2.15625 C 17.84375,2.15625 17.777239,1.914215 18.375,1.71875 C 18.823319,1.572151 19.469069,1.467222 20.28125,1.4375 z M 15.34375,3.1875 C 16.095496,3.141475 16.893725,3.192032 17.34375,3.4375 C 17.692381,3.627661 16.432079,3.702412 15.5625,3.875 C 14.371524,4.111377 13.052269,4.012511 13.125,3.8125 C 13.197733,3.612489 13.734042,3.426713 14.625,3.28125 C 14.847739,3.244884 15.093168,3.202842 15.34375,3.1875 z "
       style="opacity:1;fill:#babdb6;fill-opacity:1;fill-rule:evenodd;stroke:none;stroke-width:1px;stroke-linecap:butt;stroke-linejoin:miter;stroke-opacity:1"
       id="path2430" />
    <path
       d="M 8.6875,3.71875 C 8.6875,3.71875 8.91317,6.1304185 9.625,8.03125 C 10.566085,10.54427 14.65625,12.625 14.65625,12.625 L 20.53125,14.84375 L 30.1875,19.40625 C 29.584368,19.020114 28.631439,18.388222 27.59375,17.46875 C 26.10088,16.145955 24.84375,14.53125 24.84375,14.53125 C 24.84375,14.53125 23.119414,11.623017 20.625,9.46875 C 18.130585,7.314483 14.875,5.9062499 14.875,5.90625 C 14.875,5.90625 13.64978,5.8226469 12.875,6.125 C 12.100219,6.4273533 11.781251,7.1249998 11.78125,7.125 C 11.78125,7.125 11.175221,6.7827954 10.34375,5.78125 C 9.80792,5.1358178 9.286522,4.3907967 8.90625,3.8125 C 8.815637,3.7690524 8.6875,3.71875 8.6875,3.71875 z M 9.96875,4.25 C 10.338454,4.390898 10.742115,4.5307308 11.21875,4.65625 C 10.759377,4.5354377 10.336814,4.3871066 9.96875,4.25 z "
       style="opacity:0.53398061;fill:#cf4913;fill-opacity:1;fill-rule:evenodd;stroke:none;stroke-width:1px;stroke-linecap:butt;stroke-linejoin:miter;stroke-opacity:1"
       id="path3556" />
    <path
       d="M 10.956528,1.0198748 L 10.956528,-1.7748336 L 10.956528,1.0198748 z "
       style="fill:#ffffff;fill-opacity:0.75688076;fill-rule:nonzero;stroke:none;stroke-width:0.5;stroke-linecap:round;stroke-linejoin:round;stroke-miterlimit:4;stroke-dasharray:none;stroke-dashoffset:4;stroke-opacity:1"
       id="path2276" />
    <path
       d="M 36.25,20 C 34.61791,22.283589 27.776005,24 19.59375,24 C 11.775616,24 5.2137865,22.412705 3.21875,20.28125 L 3.5,20.90625 L 3.71875,30.5 C 3.7627707,33.862029 10.880675,36.59375 19.65625,36.59375 C 28.431824,36.59375 35.549729,33.86203 35.59375,30.5 L 35.6875,20.90625 C 35.6875,20.90625 35.987408,20.486728 36.25,20 z "
       style="opacity:1;fill:#b1cef8;fill-opacity:1;fill-rule:nonzero;stroke:none;stroke-width:0.2;stroke-linecap:round;stroke-linejoin:round;stroke-miterlimit:4;stroke-dasharray:none;stroke-opacity:1"
       id="path3232" />
    <path
       d="M 2.59375,18.75 C 2.5855085,18.814493 2.5625,18.872412 2.5625,18.9375 C 2.5625,21.725088 10.196364,24 19.59375,24 C 28.991136,24 36.625001,21.725088 36.625,18.9375 C 36.625,18.905942 36.626946,18.87517 36.625,18.84375 C 34.719778,21.089974 27.851727,22.75 19.65625,22.75 C 11.340488,22.750001 4.3777725,21.046262 2.59375,18.75 z "
       style="opacity:1;fill:url(#radialGradient3464);fill-opacity:1;fill-rule:nonzero;stroke:none;stroke-width:0.2;stroke-linecap:round;stroke-linejoin:round;stroke-miterlimit:4;stroke-dasharray:none;stroke-opacity:1"
       id="path3242" />
    <path
       d="M 17.8125,14.03125 C 15.962257,14.084571 14.206782,14.211251 12.59375,14.40625 C 12.068218,14.470015 11.554017,14.548024 11.0625,14.625 C 6.9556864,15.265155 4.0790327,16.341218 3.5625,17.59375 C 3.390534,17.840973 3.2435684,18.107722 3.15625,18.40625 C 3.4706793,18.749524 3.9037166,19.062875 4.46875,19.375 C 4.5059781,19.395606 4.5554922,19.417063 4.59375,19.4375 C 4.378266,19.155192 4.25,18.862098 4.25,18.5625 C 4.25,16.254525 10.857839,14.397086 19.09375,14.3125 L 18.34375,14.03125 C 18.167237,14.034888 17.987197,14.026216 17.8125,14.03125 z M 24.875,14.25 C 24.943275,14.360351 25.020755,14.445393 25.09375,14.5625 C 25.275843,14.581688 25.477521,14.603969 25.65625,14.625 C 26.178001,14.686806 26.696885,14.766994 27.1875,14.84375 C 27.844312,14.946843 28.469967,15.059658 29.0625,15.1875 C 29.072101,15.189565 29.084167,15.185429 29.09375,15.1875 C 29.12645,15.194592 29.155011,15.211587 29.1875,15.21875 C 29.754401,15.343738 30.314363,15.479455 30.8125,15.625 C 31.063261,15.698267 31.299469,15.765707 31.53125,15.84375 C 31.775715,15.926183 32.027921,16.006338 32.25,16.09375 C 32.593558,16.229173 32.901295,16.384921 33.1875,16.53125 C 33.265502,16.5712 33.364001,16.615548 33.4375,16.65625 C 33.577516,16.734387 33.720745,16.8255 33.84375,16.90625 C 33.862918,16.918885 33.887509,16.924804 33.90625,16.9375 C 33.984945,16.990699 34.053889,17.039506 34.125,17.09375 C 34.188313,17.142067 34.255366,17.200889 34.3125,17.25 C 34.32897,17.264171 34.35905,17.267015 34.375,17.28125 C 34.474258,17.369938 34.577675,17.471443 34.65625,17.5625 C 34.688944,17.601256 34.721131,17.648349 34.75,17.6875 C 34.799892,17.75398 34.836416,17.838675 34.875,17.90625 C 34.91253,17.975065 34.943184,18.055159 34.96875,18.125 C 35.021697,18.268898 35.0625,18.41472 35.0625,18.5625 C 35.0625,18.844918 34.972278,19.108107 34.78125,19.375 C 34.946099,19.28317 35.137463,19.18885 35.28125,19.09375 C 35.696375,18.819714 36.022445,18.546098 36.25,18.25 C 36.105515,17.84495 35.858393,17.479576 35.5625,17.1875 C 34.891048,16.37929 33.230325,15.675649 30.90625,15.125 C 30.284657,14.977724 29.61643,14.840309 28.90625,14.71875 C 27.845829,14.537242 26.691925,14.396866 25.46875,14.28125 C 25.275806,14.263013 25.069936,14.26631 24.875,14.25 z M 4.71875,19.5 C 5.0407186,19.666114 5.0440328,19.667862 4.71875,19.5 z "
       style="opacity:0.74757284;fill:url(#radialGradient3534);fill-opacity:1;fill-rule:nonzero;stroke:none;stroke-width:0.2;stroke-linecap:round;stroke-linejoin:round;stroke-miterlimit:4;stroke-dasharray:none;stroke-opacity:1"
       id="path3254" />
    <path
       d="M 19.09375,14.3125 C 10.857839,14.397086 4.25,16.254525 4.25,18.5625 C 4.25,18.862098 4.3782658,19.155192 4.59375,19.4375 C 7.433779,20.954619 13.085995,22 19.625,22 C 25.075902,22 29.86755,21.274461 32.96875,20.15625 C 32.885373,20.138087 32.800829,20.114954 32.71875,20.09375 C 32.508571,20.039454 32.298651,19.974455 32.09375,19.90625 L 31.03125,19.8125 L 30.1875,19.40625 L 20.53125,14.84375 L 19.09375,14.3125 z M 27.1875,14.84375 C 27.846948,14.94692 28.467397,15.059516 29.0625,15.1875 C 28.469967,15.059658 27.844312,14.946843 27.1875,14.84375 z M 29.1875,15.21875 C 29.753769,15.343206 30.314485,15.480131 30.8125,15.625 C 30.314363,15.479455 29.754401,15.343738 29.1875,15.21875 z M 32.25,16.09375 C 32.597473,16.230517 32.898725,16.383351 33.1875,16.53125 C 32.901295,16.384921 32.593558,16.229173 32.25,16.09375 z "
       style="opacity:1;fill:#eb7331;fill-opacity:1;fill-rule:nonzero;stroke:none;stroke-width:0.2;stroke-linecap:round;stroke-linejoin:round;stroke-miterlimit:4;stroke-dasharray:none;stroke-opacity:1"
       id="path3269" />
    <path
       d="M 25.09375,14.5625 C 25.319146,14.849269 25.559564,15.148431 25.8125,15.4375 C 27.003015,16.798089 28.406249,18 28.40625,18 C 28.40625,18 30.4511,19.507941 32.71875,20.09375 C 32.810549,20.117465 32.907638,20.135427 33,20.15625 C 33.666549,19.914608 34.286875,19.650396 34.78125,19.375 C 34.972278,19.108107 35.0625,18.844918 35.0625,18.5625 C 35.0625,16.733972 30.908669,15.175239 25.09375,14.5625 z "
       style="opacity:0.39320391;fill:url(#linearGradient3366);fill-opacity:1;fill-rule:evenodd;stroke:none;stroke-width:1px;stroke-linecap:butt;stroke-linejoin:miter;stroke-opacity:1"
       id="path3286" />
    <path
       d="M 8.90625,3.8125 C 9.286522,4.3907967 9.80792,5.1358178 10.34375,5.78125 C 11.175221,6.7827954 11.78125,7.125 11.78125,7.125 C 11.781251,7.1249998 12.100219,6.4273533 12.875,6.125 C 13.64978,5.8226469 14.875,5.90625 14.875,5.90625 C 14.875,5.9062499 18.130585,7.314483 20.625,9.46875 C 23.119414,11.623017 24.84375,14.53125 24.84375,14.53125 C 24.84375,14.53125 26.10088,16.145955 27.59375,17.46875 C 28.631439,18.388222 29.584368,19.020114 30.1875,19.40625 L 31.03125,19.8125 L 32.09375,19.90625 C 30.087954,19.238584 28.40625,18 28.40625,18 C 28.406249,18 27.003015,16.798089 25.8125,15.4375 C 25.559564,15.148431 25.319146,14.849269 25.09375,14.5625 C 24.35641,13.379579 23.917472,12.609981 22.427269,10.90853 C 20.851149,9.1089831 18.203238,7.3403193 16.375,6.3326788 C 14.884227,5.511033 14.615004,5.126471 12.6875,4.9375 C 10.983974,4.7704877 9.390831,4.0448501 8.90625,3.8125 z "
       style="opacity:0.39320391;fill:#888a85;fill-opacity:1;fill-rule:evenodd;stroke:none;stroke-width:1px;stroke-linecap:butt;stroke-linejoin:miter;stroke-opacity:1"
       id="path3301" />
    <path
       d="M 8.6875,3.71875 C 8.6875,3.71875 8.91317,6.1304185 9.625,8.03125 C 10.566085,10.54427 14.65625,12.625 14.65625,12.625 L 20.53125,14.84375 L 30.1875,19.40625 C 29.584368,19.020114 28.631439,18.388222 27.59375,17.46875 C 26.10088,16.145955 24.84375,14.53125 24.84375,14.53125 C 24.84375,14.53125 23.119414,11.623017 20.625,9.46875 C 18.130585,7.314483 14.875,5.9062499 14.875,5.90625 C 14.875,5.90625 13.64978,5.8226469 12.875,6.125 C 12.100219,6.4273533 11.781251,7.1249998 11.78125,7.125 C 11.78125,7.125 11.175221,6.7827954 10.34375,5.78125 C 9.80792,5.1358178 9.286522,4.3907967 8.90625,3.8125 C 8.815637,3.7690524 8.6875,3.71875 8.6875,3.71875 z M 9.96875,4.25 C 10.338454,4.390898 10.742115,4.5307308 11.21875,4.65625 C 10.759377,4.5354377 10.336814,4.3871066 9.96875,4.25 z "
       style="opacity:0.96601939;fill:url(#radialGradient3542);fill-opacity:1;fill-rule:evenodd;stroke:none;stroke-width:1px;stroke-linecap:butt;stroke-linejoin:miter;stroke-opacity:1"
       id="path3311" />
    <path
       d="M 55.725394 6.5647645 A 1.0235276 0.45490116 0 1 1  53.678339,6.5647645 A 1.0235276 0.45490116 0 1 1  55.725394 6.5647645 z"
       transform="matrix(0.8665802,0.6486126,-0.6486126,0.8665802,-28.595324,-34.41491)"
       style="opacity:0.81553399;fill:url(#radialGradient3473);fill-opacity:1;fill-rule:nonzero;stroke:none;stroke-width:0.2;stroke-linecap:round;stroke-linejoin:round;stroke-miterlimit:4;stroke-dasharray:none;stroke-opacity:1"
       id="path2281" />
    <path
       d="M 55.725394 6.5647645 A 1.0235276 0.45490116 0 1 1  53.678339,6.5647645 A 1.0235276 0.45490116 0 1 1  55.725394 6.5647645 z"
       transform="matrix(0.5903426,0.4418559,-0.4418559,0.5903426,-14.841928,-21.29151)"
       style="opacity:1;fill:#000000;fill-opacity:1;fill-rule:nonzero;stroke:none;stroke-width:0.2;stroke-linecap:round;stroke-linejoin:round;stroke-miterlimit:4;stroke-dasharray:none;stroke-opacity:1"
       id="path2279" />
    <path
       d="M 21.375,0.53125 C 20.263161,0.5487593 19.187499,0.7500002 19.1875,0.75 L 11.6875,3.125 C 11.6875,3.125 11.053794,3.5082002 11.3125,3.90625 C 11.223757,4.1309461 11.28059,4.4128339 11.84375,4.65625 C 13.637207,5.4314406 15.999999,4.6562498 16,4.65625 C 16,4.65625 23.230055,3.5930236 25.625,3.03125 C 25.976206,2.9488688 26.254758,2.6959194 26.34375,2.375 C 26.432741,2.0540807 26.062499,1.5625 26.0625,1.5625 L 25.9375,1.53125 C 25.867158,1.4691042 25.781251,1.40625 25.78125,1.40625 L 23.625,0.6875 C 23.625,0.6875 22.486838,0.5137407 21.375,0.53125 z M 20.28125,1.4375 C 20.551977,1.4275926 20.853932,1.4311581 21.15625,1.4375 C 22.710646,1.4701071 24.946702,1.725484 24.90625,2.03125 C 24.879189,2.2358121 24.142124,2.3965852 22.71875,2.5 C 21.364461,2.5983953 20.935303,2.7159141 19.5625,2.625 C 18.189697,2.5340859 17.84375,2.15625 17.84375,2.15625 C 17.84375,2.1562501 17.777239,1.9142154 18.375,1.71875 C 18.823319,1.5721509 19.469069,1.4672221 20.28125,1.4375 z M 15.34375,3.1875 C 16.095496,3.1414748 16.893725,3.1920319 17.34375,3.4375 C 17.692381,3.6276613 16.432079,3.7024118 15.5625,3.875 C 14.371524,4.1113766 13.052269,4.012511 13.125,3.8125 C 13.197733,3.6124888 13.734042,3.4267125 14.625,3.28125 C 14.847739,3.2448844 15.093168,3.2028417 15.34375,3.1875 z "
       style="opacity:0.27184466;fill:url(#linearGradient3521);fill-opacity:1;fill-rule:evenodd;stroke:none;stroke-width:1px;stroke-linecap:butt;stroke-linejoin:miter;stroke-opacity:1"
       id="path3278" />
    <path
       d="M 25.9375,1.53125 C 26.038792,1.6207399 26.114166,1.7305832 26.0625,1.90625 C 25.974953,2.2039077 25.413788,2.6012871 25.34375,2.53125 C 25.203678,2.3911759 15.90625,4.25 15.90625,4.25 C 15.90625,4.2499998 13.576836,4.9690011 11.8125,4.25 C 11.536301,4.1374435 11.388671,4.0234477 11.3125,3.90625 C 11.223757,4.1309461 11.28059,4.4128339 11.84375,4.65625 C 13.637207,5.4314406 15.999999,4.6562498 16,4.65625 C 16,4.65625 23.230055,3.5930236 25.625,3.03125 C 25.976206,2.9488688 26.254758,2.6959194 26.34375,2.375 C 26.432741,2.0540807 26.062499,1.5625 26.0625,1.5625 L 25.9375,1.53125 z "
       style="opacity:0.27184466;fill:url(#linearGradient3483);fill-opacity:1;fill-rule:evenodd;stroke:none;stroke-width:1px;stroke-linecap:butt;stroke-linejoin:miter;stroke-opacity:1"
       id="path3280" />
    <path
       d="M 23.84375,12.65625 C 24.239941,13.202332 24.550261,13.693896 24.875,14.21875 C 29.853554,14.635239 33.763103,15.62477 35.25,16.875 C 35.37497,16.980079 35.47239,17.079036 35.5625,17.1875 C 35.858393,17.479576 36.105515,17.84495 36.25,18.25 C 36.494411,17.931969 36.625,17.589876 36.625,17.25 C 36.625,15.033281 31.181432,13.181419 23.84375,12.65625 z M 14.875,12.71875 C 7.8128058,13.294743 2.6250001,15.088116 2.625,17.25 C 2.625,17.646449 2.8228321,18.042245 3.15625,18.40625 C 3.2435684,18.107722 3.390534,17.840973 3.5625,17.59375 C 3.6148384,17.466835 3.7131093,17.341885 3.8125,17.21875 C 5.2076309,15.49032 11.116497,14.177502 18.375,14.03125 L 14.875,12.71875 z "
       style="opacity:1;fill:url(#linearGradient3512);fill-opacity:1;fill-rule:nonzero;stroke:none;stroke-width:0.2;stroke-linecap:round;stroke-linejoin:round;stroke-miterlimit:4;stroke-dasharray:none;stroke-opacity:1"
       id="path2473" />
    <path
       d="M 10.5625,6.3125 C 10.5625,6.3125 10.809987,8.0258492 11.6875,9.4375 C 12.565012,10.84915 14.0625,11.96875 14.0625,11.96875 C 14.0625,11.96875 12.823941,10.656845 12.03125,9.5 C 11.23856,8.3431553 10.893807,7.3244774 10.96875,6.9375 C 11.001033,6.770802 11.162302,6.7768593 11.375,6.84375 C 11.240576,6.7328473 11.060056,6.5610199 10.875,6.375 C 10.76856,6.3563424 10.5625,6.3125 10.5625,6.3125 z M 12.0625,6.71875 C 11.89717,6.9107662 11.834738,7.0175347 11.8125,7.0625 C 12.704023,7.5672738 14.146621,8.7005066 15.3125,9.34375 C 15.786684,9.6053688 15.959126,9.7598421 18.15625,10.46875 C 18.731179,10.654253 18.765436,9.9545473 19.25,10.125 C 20.695806,10.633584 22.79114,13.115618 25.03125,14.96875 C 25.300584,15.191557 19.708191,9.396802 19.125,9.375 C 18.541808,9.3531983 18.187501,10.0625 18.1875,10.0625 C 18.1875,10.0625 16.595136,9.312467 14.6875,8.375 C 13.733682,7.9062667 13.265869,7.2756034 12.46875,6.875 C 12.345236,6.8129263 12.195489,6.7692701 12.0625,6.71875 z "
       style="opacity:0.28640777;fill:url(#linearGradient3443);fill-opacity:1;fill-rule:evenodd;stroke:none;stroke-width:1px;stroke-linecap:butt;stroke-linejoin:miter;stroke-opacity:1"
       id="path3477" />
    <path
       d="M 14,9.5 C 13.717559,9.509621 13.486878,9.568719 13.34375,9.6875 C 13.032649,9.94568 13.496637,10.817322 13.961472,11.361178 C 13.80522,11.038483 13.510624,10.360223 13.71875,10.1875 C 14.29126,9.712376 15.777545,10.082505 17.504374,11.100294 C 17.904447,11.336097 22.576941,14.217887 22.881379,14.460525 C 23.185817,14.703163 22.370629,13.810957 22.565305,14.042101 C 22.306385,13.472676 18.651482,11.490925 17.53125,10.830662 C 16.236129,10.06732 14.847323,9.471136 14,9.5 z "
       style="opacity:0.48543689;fill:url(#linearGradient3459);fill-opacity:1;fill-rule:nonzero;stroke:none;stroke-width:0.2;stroke-linecap:round;stroke-linejoin:round;stroke-miterlimit:4;stroke-dasharray:none;stroke-opacity:1"
       id="path3481" />
    <path
       d="M 16.53693,11.533507 C 15.596814,11.355422 16.11798,12.643046 17.432992,13.509507 C 16.806673,12.892914 15.980889,11.945406 16.65193,11.949257 C 18.378732,11.959167 21.076254,14.421528 22.468367,15.309193 C 22.254625,15.111144 19.761185,13.028121 19.43614,12.82086 C 18.218041,12.044153 17.139497,11.64765 16.53693,11.533507 z "
       style="opacity:0.28640777;fill:url(#linearGradient3451);fill-opacity:1;fill-rule:nonzero;stroke:none;stroke-width:0.2;stroke-linecap:round;stroke-linejoin:round;stroke-miterlimit:4;stroke-dasharray:none;stroke-opacity:1"
       id="path2311" />
    <path
       d="M 26.46875,16.125 C 26.640912,16.305014 26.804267,16.461833 26.96875,16.625 C 28.207673,16.926823 28.96875,17.336381 28.96875,17.78125 C 28.96875,17.931329 28.849529,18.080135 28.6875,18.21875 C 28.786834,18.285906 28.943817,18.342748 29.09375,18.4375 C 29.387198,18.224149 29.5625,17.988249 29.5625,17.75 C 29.5625,17.096787 28.334986,16.503579 26.46875,16.125 z "
       style="opacity:0.5385437;fill:url(#linearGradient3435);fill-opacity:1;fill-rule:nonzero;stroke:none;stroke-width:0.2;stroke-linecap:round;stroke-linejoin:round;stroke-miterlimit:4;stroke-dasharray:none;stroke-opacity:1"
       id="path2317" />
    <path
       d="M 25.34375,14.875 C 25.47282,15.035294 25.612863,15.184482 25.75,15.34375 C 29.622379,15.931985 32.28125,17.059144 32.28125,18.375 C 32.28125,18.400188 32.208302,19.107879 32.112952,19.193404 C 32.221393,19.236027 32.177025,19.371235 32.303629,19.196254 C 32.707985,18.63739 32.5625,18.06021 32.5625,17.8125 C 32.5625,16.504445 29.602815,15.391489 25.34375,14.875 z "
       style="opacity:0.5385437;fill:url(#linearGradient3427);fill-opacity:1;fill-rule:nonzero;stroke:none;stroke-width:0.2;stroke-linecap:round;stroke-linejoin:round;stroke-miterlimit:4;stroke-dasharray:none;stroke-opacity:1"
       id="path2338" />
    <path
       d="M 19.65625,14.625 C 12.42211,14.625 6.5625,16.361033 6.5625,18.5 C 6.562499,18.771345 6.660424,19.025565 6.84375,19.28125 C 9.259941,20.655295 14.061855,21.625 19.625,21.625 C 24.429413,21.625001 28.656387,20.919509 31.28125,19.84375 L 31.03125,19.8125 L 30.875,19.71875 C 28.293761,20.59364 24.371726,21.187499 19.9375,21.1875 C 14.510929,21.1875 9.825626,20.347256 7.46875,19.125 C 7.289924,18.897559 7.1875,18.647619 7.1875,18.40625 C 7.1875,16.50357 12.912206,14.96875 19.96875,14.96875 C 20.268964,14.96875 20.548655,14.994514 20.84375,15 L 20.53125,14.84375 L 19.96875,14.625 C 19.862511,14.624248 19.763095,14.625 19.65625,14.625 z "
       style="opacity:0.14077669;fill:url(#linearGradient3374);fill-opacity:1;fill-rule:nonzero;stroke:none;stroke-width:0.2;stroke-linecap:round;stroke-linejoin:round;stroke-miterlimit:4;stroke-dasharray:none;stroke-opacity:1"
       id="path2362" />
    <path
       d="M 20.0625,15.46875 C 14.258852,15.46875 9.53125,16.609714 9.53125,18 C 9.5312496,18.176368 9.634176,18.36506 9.78125,18.53125 C 11.71966,19.424351 15.568172,20.03125 20.03125,20.03125 C 23.759465,20.031249 27.040315,19.602272 29.15625,18.9375 L 28.65625,18.6875 C 26.715062,19.302216 23.620071,19.718751 20.09375,19.71875 C 15.985765,19.71875 12.440434,19.166909 10.65625,18.375 C 10.520877,18.22764 10.4375,18.093884 10.4375,17.9375 C 10.4375,16.704739 14.783105,15.6875 20.125,15.6875 C 20.939769,15.6875 21.71222,15.705515 22.46875,15.75 L 21.96875,15.53125 C 21.350822,15.50381 20.713341,15.46875 20.0625,15.46875 z "
       style="opacity:0.12621358;fill:url(#linearGradient3382);fill-opacity:1;fill-rule:nonzero;stroke:none;stroke-width:0.2;stroke-linecap:round;stroke-linejoin:round;stroke-miterlimit:4;stroke-dasharray:none;stroke-opacity:1"
       id="path2367" />
    <path
       d="M 8.90625,3.8125 C 9.286522,4.3907967 9.80792,5.1358178 10.34375,5.78125 C 11.175221,6.7827954 11.78125,7.125 11.78125,7.125 C 11.78125,7.125 11.833515,7.0509168 11.84375,7.03125 C 11.855584,6.9579432 11.860412,6.8854395 11.875,6.8125 C 12.056943,5.9027834 12.381919,5.2008675 12.53125,4.90625 C 10.888848,4.7115205 9.3756236,4.0375583 8.90625,3.8125 z "
       style="opacity:0.6359223;fill:url(#linearGradient3411);fill-opacity:1;fill-rule:evenodd;stroke:none;stroke-width:1px;stroke-linecap:butt;stroke-linejoin:miter;stroke-opacity:1"
       id="path2393" />
    <path
       d="M 12.78125,4.90625 L 12.8125,4.96875 C 13.722239,5.0673729 14.26508,5.2110729 14.75,5.4375 L 14.4375,4.96875 C 13.930681,5.0195212 13.354715,5.0023852 12.78125,4.90625 z "
       style="fill:#555753;fill-opacity:1;fill-rule:evenodd;stroke:none;stroke-width:1px;stroke-linecap:butt;stroke-linejoin:miter;stroke-opacity:1"
       id="path3369" />
    <path
       d="M 12.53125,4.90625 C 12.381919,5.2008675 12.056943,5.9027834 11.875,6.8125 C 11.860412,6.8854395 11.855584,6.9579432 11.84375,7.03125 C 11.915396,6.8935822 12.197067,6.3895591 12.875,6.125 C 13.64978,5.8226469 14.875,5.90625 14.875,5.90625 C 14.875,5.9062499 18.130585,7.314483 20.625,9.46875 C 23.119414,11.623017 24.84375,14.53125 24.84375,14.53125 C 24.84375,14.53125 26.10088,16.145955 27.59375,17.46875 C 28.631439,18.388222 29.584368,19.020114 30.1875,19.40625 L 31.03125,19.8125 L 32.09375,19.90625 C 30.087954,19.238584 28.40625,18 28.40625,18 C 28.406249,18 27.003015,16.798089 25.8125,15.4375 C 25.559564,15.148431 25.319146,14.849269 25.09375,14.5625 C 24.35641,13.379579 23.927703,12.607701 22.4375,10.90625 C 20.86138,9.1067028 18.203238,7.3513905 16.375,6.34375 C 14.884227,5.5221042 14.615004,5.126471 12.6875,4.9375 C 12.634039,4.9322587 12.584463,4.9125591 12.53125,4.90625 z "
       style="opacity:0.57281554;fill:url(#linearGradient3419);fill-opacity:1;fill-rule:evenodd;stroke:none;stroke-width:1px;stroke-linecap:butt;stroke-linejoin:miter;stroke-opacity:1"
       id="path3371" />
    <path
       d="M 16.255476,2.1838494 C 15.69123,2.1842535 15.37585,2.2469082 14.625,2.46875 C 13.645017,2.7582904 12.813067,2.8243644 12.3125,3.21875 C 11.811933,3.6131356 11.863793,3.8467074 12.5625,3.96875 C 12.566003,3.8779205 12.484338,3.7640411 12.660813,3.625 C 13.082075,3.2930954 14.422283,3.0417441 15.266648,2.8786506 C 15.927148,2.7510717 16.034212,2.7260512 16.629563,2.8400994 C 17.389355,2.9856488 17.451591,2.9921997 17.635039,3.2794247 C 17.72938,3.4271354 17.539864,3.5765989 17.516428,3.6516868 C 17.67421,3.6141244 18.323833,3.4381163 18.34375,3.40625 C 18.480183,3.1879575 18.642276,3.1823073 18.316151,2.8410121 C 17.990024,2.4997169 17.933786,2.3904517 17.03125,2.2160121 C 16.809333,2.1731206 16.443558,2.1837147 16.255476,2.1838494 z "
       style="opacity:0.79126216;fill:url(#linearGradient3491);fill-opacity:1;fill-rule:evenodd;stroke:none;stroke-width:1px;stroke-linecap:butt;stroke-linejoin:miter;stroke-opacity:1"
       id="path3389" />
    <path
       d="M 20.503656,0.86313557 C 19.483999,0.93021821 18.358012,1.0670632 17.857445,1.461449 C 17.356878,1.8558346 17.075027,1.9983943 17.773734,2.1204369 C 17.777237,2.0296074 18.029283,1.8550533 18.205758,1.7160122 C 18.62702,1.3841076 20.103346,1.311484 20.96328,1.3033735 C 21.62378,1.297144 21.639832,1.3024609 22.235183,1.3558344 C 23.0057,1.4249116 23.337485,1.4321298 23.756394,1.5221237 C 24.477611,1.677062 25.14517,1.8869121 25.093976,1.9550605 C 25.251758,1.9174981 25.264296,1.832502 25.284213,1.8006357 C 25.420646,1.5823432 24.479864,1.1792228 23.577328,1.0047832 C 23.355411,0.96189175 22.953398,0.70196847 20.503656,0.86313557 z "
       style="opacity:0.70388351;fill:url(#linearGradient3499);fill-opacity:1;fill-rule:evenodd;stroke:none;stroke-width:1px;stroke-linecap:butt;stroke-linejoin:miter;stroke-opacity:1"
       id="path3393" />
    <path
       d="M 36.25,20 C 34.61791,22.283589 27.776005,24 19.59375,24 C 11.775616,24 5.2137865,22.412705 3.21875,20.28125 L 3.5,20.90625 L 3.71875,30.5 C 3.7627707,33.862029 10.880675,36.59375 19.65625,36.59375 C 28.431824,36.59375 35.549729,33.86203 35.59375,30.5 L 35.6875,20.90625 C 35.6875,20.90625 35.987408,20.486728 36.25,20 z "
       style="opacity:1;fill:url(#radialGradient3490);fill-opacity:1;fill-rule:nonzero;stroke:none;stroke-width:0.2;stroke-linecap:round;stroke-linejoin:round;stroke-miterlimit:4;stroke-dasharray:none;stroke-opacity:1"
       id="path3482" />
    <path
       d="M 36.25,20 C 34.61791,22.283589 27.776005,24 19.59375,24 C 11.775616,24 5.2137865,22.412705 3.21875,20.28125 L 3.5,20.90625 L 3.71875,30.5 C 3.7627707,33.862029 10.880675,36.59375 19.65625,36.59375 C 28.431824,36.59375 35.549729,33.86203 35.59375,30.5 L 35.6875,20.90625 C 35.6875,20.90625 35.987408,20.486728 36.25,20 z "
       style="opacity:1;fill:url(#linearGradient3504);fill-opacity:1;fill-rule:nonzero;stroke:none;stroke-width:0.2;stroke-linecap:round;stroke-linejoin:round;stroke-miterlimit:4;stroke-dasharray:none;stroke-opacity:1"
       id="path3502" />
    <path
       d="M 25.624438,34.1797 L 25.624438,25.864986 C 25.624438,25.864986 28.742456,25.487044 31.104591,24.731161 C 33.466726,23.975278 35.072977,22.841453 35.072977,22.841453 L 35.072977,30.500066 C 35.072977,30.500066 33.642096,31.757867 31.279961,32.664927 C 28.917826,33.571987 25.624438,34.1797 25.624438,34.1797 z "
       style="opacity:1;fill:url(#linearGradient3507);fill-opacity:1;fill-rule:evenodd;stroke:none;stroke-width:1px;stroke-linecap:butt;stroke-linejoin:miter;stroke-opacity:1"
       id="path3284" />
    <g
       transform="translate(-40,0)"
       style="fill:#000000;fill-opacity:1"
       id="g2455">
      <path
         d="M 67.0625,27.28125 C 66.949454,27.30184 66.833255,27.324109 66.71875,27.34375 L 66.71875,33.5 C 66.835305,33.479747 66.947479,33.458735 67.0625,33.4375 L 67.0625,27.28125 z "
         style="opacity:0.48543689;fill:#000000;fill-opacity:1;fill-rule:nonzero;stroke:none;stroke-width:0.2;stroke-linecap:round;stroke-linejoin:round;stroke-miterlimit:4;stroke-dasharray:none;stroke-opacity:1"
         id="path2423" />
      <path
         d="M 68.15625,28.21875 C 68.051536,28.241621 67.94995,28.259228 67.84375,28.28125 L 67.84375,33.28125 C 67.95116,33.258624 68.050391,33.210995 68.15625,33.1875 L 68.15625,28.21875 z "
         style="opacity:0.48543689;fill:#000000;fill-opacity:1;fill-rule:nonzero;stroke:none;stroke-width:0.2;stroke-linecap:round;stroke-linejoin:round;stroke-miterlimit:4;stroke-dasharray:none;stroke-opacity:1"
         id="path2425" />
      <path
         d="M 68.65625,28.09375 C 68.554011,28.117965 68.447531,28.132863 68.34375,28.15625 L 68.34375,33.15625 C 68.446408,33.132776 68.555131,33.118036 68.65625,33.09375 L 68.65625,28.09375 z "
         style="opacity:0.48543689;fill:#000000;fill-opacity:1;fill-rule:nonzero;stroke:none;stroke-width:0.2;stroke-linecap:round;stroke-linejoin:round;stroke-miterlimit:4;stroke-dasharray:none;stroke-opacity:1"
         id="path2427" />
      <path
         d="M 71.0625,27.40625 C 70.951617,27.444955 70.832537,27.462446 70.71875,27.5 L 70.71875,32.5 C 70.834588,32.46116 70.949753,32.415044 71.0625,32.375 L 71.0625,27.40625 z "
         style="opacity:0.48543689;fill:#000000;fill-opacity:1;fill-rule:nonzero;stroke:none;stroke-width:0.2;stroke-linecap:round;stroke-linejoin:round;stroke-miterlimit:4;stroke-dasharray:none;stroke-opacity:1"
         id="path2429" />
      <path
         d="M 73.0625,26.5625 C 72.950372,26.619435 72.836082,26.663348 72.71875,26.71875 L 72.71875,31.6875 C 72.836939,31.630458 72.949808,31.558631 73.0625,31.5 L 73.0625,26.5625 z "
         style="opacity:0.48543689;fill:#000000;fill-opacity:1;fill-rule:nonzero;stroke:none;stroke-width:0.2;stroke-linecap:round;stroke-linejoin:round;stroke-miterlimit:4;stroke-dasharray:none;stroke-opacity:1"
         id="path2431" />
      <path
         d="M 69.125,28 C 69.001921,28.031378 68.875496,28.063604 68.75,28.09375 L 68.75,33.0625 C 68.877319,33.03146 69.00022,33.001062 69.125,32.96875 L 69.125,28 z "
         style="opacity:0.48543689;fill:#000000;fill-opacity:1;fill-rule:nonzero;stroke:none;stroke-width:0.2;stroke-linecap:round;stroke-linejoin:round;stroke-miterlimit:4;stroke-dasharray:none;stroke-opacity:1"
         id="path2433" />
      <path
         d="M 70.65625,27.53125 C 70.551457,27.56546 70.450915,27.591781 70.34375,27.625 L 70.34375,32.625 C 70.453161,32.590542 70.549377,32.5355 70.65625,32.5 L 70.65625,27.53125 z "
         style="opacity:0.48543689;fill:#000000;fill-opacity:1;fill-rule:nonzero;stroke:none;stroke-width:0.2;stroke-linecap:round;stroke-linejoin:round;stroke-miterlimit:4;stroke-dasharray:none;stroke-opacity:1"
         id="path2435" />
      <path
         d="M 72.65625,26.75 C 72.551292,26.798906 72.452688,26.858595 72.34375,26.90625 L 72.34375,31.875 C 72.454394,31.82564 72.549861,31.769423 72.65625,31.71875 L 72.65625,26.75 z "
         style="opacity:0.48543689;fill:#000000;fill-opacity:1;fill-rule:nonzero;stroke:none;stroke-width:0.2;stroke-linecap:round;stroke-linejoin:round;stroke-miterlimit:4;stroke-dasharray:none;stroke-opacity:1"
         id="path2437" />
      <path
         d="M 70.15625,27.6875 C 70.055139,27.717899 69.94685,27.751737 69.84375,27.78125 L 69.84375,32.75 C 69.944595,32.720675 70.057354,32.717679 70.15625,32.6875 L 70.15625,27.6875 z "
         style="opacity:0.48543689;fill:#000000;fill-opacity:1;fill-rule:nonzero;stroke:none;stroke-width:0.2;stroke-linecap:round;stroke-linejoin:round;stroke-miterlimit:4;stroke-dasharray:none;stroke-opacity:1"
         id="path2439" />
      <path
         d="M 72.15625,26.96875 C 72.055853,27.011238 71.94729,27.052326 71.84375,27.09375 L 71.84375,32.09375 C 71.949764,32.050603 72.053634,31.981778 72.15625,31.9375 L 72.15625,26.96875 z "
         style="opacity:0.48543689;fill:#000000;fill-opacity:1;fill-rule:nonzero;stroke:none;stroke-width:0.2;stroke-linecap:round;stroke-linejoin:round;stroke-miterlimit:4;stroke-dasharray:none;stroke-opacity:1"
         id="path2441" />
      <path
         d="M 74.15625,25.9375 C 74.059294,26.002354 73.946918,26.061636 73.84375,26.125 L 73.84375,31.09375 C 73.953415,31.024501 74.053994,30.945988 74.15625,30.875 L 74.15625,25.9375 z "
         style="opacity:0.48543689;fill:#000000;fill-opacity:1;fill-rule:nonzero;stroke:none;stroke-width:0.2;stroke-linecap:round;stroke-linejoin:round;stroke-miterlimit:4;stroke-dasharray:none;stroke-opacity:1"
         id="path2443" />
      <path
         d="M 74.90625,24.53125 C 74.858812,24.572689 74.799862,24.615292 74.75,24.65625 L 74.75,30.4375 C 74.806832,30.388666 74.85286,30.330747 74.90625,30.28125 L 74.90625,24.53125 z "
         style="opacity:0.48543689;fill:#000000;fill-opacity:1;fill-rule:nonzero;stroke:none;stroke-width:0.2;stroke-linecap:round;stroke-linejoin:round;stroke-miterlimit:4;stroke-dasharray:none;stroke-opacity:1"
         id="path2445" />
      <path
         d="M 71.40625,27.28125 C 71.367305,27.295647 71.320586,27.298249 71.28125,27.3125 L 71.28125,32.3125 C 71.335202,32.292641 71.384305,32.270136 71.4375,32.25 L 71.4375,27.28125 C 71.428261,27.284682 71.415511,27.277826 71.40625,27.28125 z "
         style="opacity:0.48543689;fill:#000000;fill-opacity:1;fill-rule:nonzero;stroke:none;stroke-width:0.2;stroke-linecap:round;stroke-linejoin:round;stroke-miterlimit:4;stroke-dasharray:none;stroke-opacity:1"
         id="path2447" />
      <path
         d="M 73.4375,26.375 C 73.385131,26.403917 73.334931,26.44019 73.28125,26.46875 L 73.28125,31.40625 C 73.338106,31.375258 73.382185,31.343903 73.4375,31.3125 L 73.4375,26.375 z "
         style="opacity:0.48543689;fill:#000000;fill-opacity:1;fill-rule:nonzero;stroke:none;stroke-width:0.2;stroke-linecap:round;stroke-linejoin:round;stroke-miterlimit:4;stroke-dasharray:none;stroke-opacity:1"
         id="path2449" />
      <path
         d="M 67.4375,28.34375 C 67.386701,28.353601 67.332363,28.365342 67.28125,28.375 L 67.28125,33.375 C 67.331448,33.365373 67.38761,33.384813 67.4375,33.375 L 67.4375,28.34375 z "
         style="opacity:0.48543689;fill:#000000;fill-opacity:1;fill-rule:nonzero;stroke:none;stroke-width:0.2;stroke-linecap:round;stroke-linejoin:round;stroke-miterlimit:4;stroke-dasharray:none;stroke-opacity:1"
         id="path2451" />
      <path
         d="M 74.5625,25.625 C 74.509954,25.665404 74.46115,25.710102 74.40625,25.75 L 74.40625,30.6875 C 74.459338,30.647306 74.511792,30.603193 74.5625,30.5625 L 74.5625,25.625 z "
         style="opacity:0.48543689;fill:#000000;fill-opacity:1;fill-rule:nonzero;stroke:none;stroke-width:0.2;stroke-linecap:round;stroke-linejoin:round;stroke-miterlimit:4;stroke-dasharray:none;stroke-opacity:1"
         id="path2453" />
    </g>
    <path
       d="M 19.09375,14.3125 C 10.857839,14.397086 4.25,16.254525 4.25,18.5625 C 4.25,18.862098 4.3782658,19.155192 4.59375,19.4375 C 7.433779,20.954619 13.085995,22 19.625,22 C 25.075902,22 29.86755,21.274461 32.96875,20.15625 C 32.885373,20.138087 32.800829,20.114954 32.71875,20.09375 C 32.508571,20.039454 32.298651,19.974455 32.09375,19.90625 L 31.03125,19.8125 L 30.1875,19.40625 L 20.53125,14.84375 L 19.09375,14.3125 z M 27.1875,14.84375 C 27.846948,14.94692 28.467397,15.059516 29.0625,15.1875 C 28.469967,15.059658 27.844312,14.946843 27.1875,14.84375 z M 29.1875,15.21875 C 29.753769,15.343206 30.314485,15.480131 30.8125,15.625 C 30.314363,15.479455 29.754401,15.343738 29.1875,15.21875 z M 32.25,16.09375 C 32.597473,16.230517 32.898725,16.383351 33.1875,16.53125 C 32.901295,16.384921 32.593558,16.229173 32.25,16.09375 z "
       style="opacity:1;fill:url(#linearGradient3393);fill-opacity:1;fill-rule:nonzero;stroke:none;stroke-width:0.2;stroke-linecap:round;stroke-linejoin:round;stroke-miterlimit:4;stroke-dasharray:none;stroke-opacity:1"
       id="path3385" />
    <path
       d="M 25.311894 18.313177 A 5.1514158 1.2083567 0 1 1  15.009063,18.313177 A 5.1514158 1.2083567 0 1 1  25.311894 18.313177 z"
       transform="translate(-1.0175632,-0.635977)"
       style="opacity:0.15048547;fill:url(#linearGradient3403);fill-opacity:1;fill-rule:nonzero;stroke:none;stroke-width:0.30000001;stroke-linecap:round;stroke-linejoin:round;stroke-miterlimit:4;stroke-dasharray:none;stroke-opacity:1"
       id="path3395" />
    <path
       d="M 8.6875,3.71875 C 8.6875,3.71875 8.91317,6.1304185 9.625,8.03125 C 10.566085,10.54427 14.65625,12.625 14.65625,12.625 L 20.53125,14.84375 L 30.1875,19.40625 C 29.584368,19.020114 28.631439,18.388222 27.59375,17.46875 C 26.10088,16.145955 24.84375,14.53125 24.84375,14.53125 C 24.84375,14.53125 23.119414,11.623017 20.625,9.46875 C 18.130585,7.314483 14.875,5.9062499 14.875,5.90625 C 14.875,5.90625 13.64978,5.8226469 12.875,6.125 C 12.100219,6.4273533 11.781251,7.1249998 11.78125,7.125 C 11.78125,7.125 11.175221,6.7827954 10.34375,5.78125 C 9.80792,5.1358178 9.286522,4.3907967 8.90625,3.8125 C 8.815637,3.7690524 8.6875,3.71875 8.6875,3.71875 z M 9.96875,4.25 C 10.338454,4.390898 10.742115,4.5307308 11.21875,4.65625 C 10.759377,4.5354377 10.336814,4.3871066 9.96875,4.25 z "
       style="opacity:0.96601939;fill:url(#linearGradient3465);fill-opacity:1;fill-rule:evenodd;stroke:none;stroke-width:1px;stroke-linecap:butt;stroke-linejoin:miter;stroke-opacity:1"
       id="path3461" />
    <rect
       width="40.001965"
       height="10.004759"
       x="-0.0019644466"
       y="30"
       style="opacity:0.61162792;fill:#555753;fill-opacity:1;fill-rule:nonzero;stroke:none;stroke-width:0.69999999;stroke-linecap:round;stroke-linejoin:miter;stroke-miterlimit:4;stroke-dasharray:none;stroke-opacity:1"
       id="rect1951" />
    <text
       x="12.493196"
       y="39.168156"
       style="font-size:12px;font-style:normal;font-weight:normal;fill:#eeeeec;fill-opacity:1;stroke:none;stroke-width:1px;stroke-linecap:butt;stroke-linejoin:miter;stroke-opacity:1;font-family:Bitstream Vera Sans"
       id="text2840"
       xml:space="preserve"><tspan
         x="12.493196"
         y="39.168156"
         id="tspan2842">Sn</tspan></text>
  </g>
</svg>
