<?xml version="1.0" encoding="UTF-8" standalone="no"?>
<!-- Created with Inkscape (http://www.inkscape.org/) -->
<svg
   xmlns:dc="http://purl.org/dc/elements/1.1/"
   xmlns:cc="http://web.resource.org/cc/"
   xmlns:rdf="http://www.w3.org/1999/02/22-rdf-syntax-ns#"
   xmlns:svg="http://www.w3.org/2000/svg"
   xmlns="http://www.w3.org/2000/svg"
   xmlns:xlink="http://www.w3.org/1999/xlink"
   xmlns:sodipodi="http://sodipodi.sourceforge.net/DTD/sodipodi-0.dtd"
   xmlns:inkscape="http://www.inkscape.org/namespaces/inkscape"
   width="40"
   height="40"
   id="svg2193"
   sodipodi:version="0.32"
   inkscape:version="0.44.1"
   version="1.0"
   sodipodi:docbase="/home/carsten/svn/kalzium_www/files"
   sodipodi:docname="52.svg">
  <defs
     id="defs2195">
    <linearGradient
       id="linearGradient4541">
      <stop
         style="stop-color:#535551;stop-opacity:0.58125001;"
         offset="0"
         id="stop4543" />
      <stop
         id="stop4550"
         offset="0.5"
         style="stop-color:#3c3e3b;stop-opacity:0.49803922;" />
      <stop
         style="stop-color:#2f312e;stop-opacity:0.26875001;"
         offset="1"
         id="stop4545" />
    </linearGradient>
    <linearGradient
       id="linearGradient5585">
      <stop
         id="stop5587"
         offset="0"
         style="stop-color:#000000;stop-opacity:1;" />
      <stop
         style="stop-color:#474747;stop-opacity:0.16078432;"
         offset="0.94117647"
         id="stop5589" />
      <stop
         id="stop5591"
         offset="1"
         style="stop-color:#dfdfdf;stop-opacity:0;" />
    </linearGradient>
    <linearGradient
       id="linearGradient5573">
      <stop
         id="stop5575"
         offset="0"
         style="stop-color:#010101;stop-opacity:1;" />
      <stop
         style="stop-color:#6c6c6c;stop-opacity:1;"
         offset="0.50588238"
         id="stop5577" />
      <stop
         id="stop5579"
         offset="1"
         style="stop-color:#111111;stop-opacity:1;" />
    </linearGradient>
    <linearGradient
       id="linearGradient4547">
      <stop
         style="stop-color:#373737;stop-opacity:1;"
         offset="0"
         id="stop4549" />
      <stop
         id="stop4555"
         offset="0.5"
         style="stop-color:#888888;stop-opacity:1;" />
      <stop
         style="stop-color:#3c3c3c;stop-opacity:1;"
         offset="1"
         id="stop4551" />
    </linearGradient>
    <linearGradient
       id="linearGradient4531">
      <stop
         id="stop4533"
         offset="0"
         style="stop-color:#ffffff;stop-opacity:0.00625;" />
      <stop
         style="stop-color:#ffffff;stop-opacity:0.49803922;"
         offset="0.83529413"
         id="stop4537" />
      <stop
         id="stop4535"
         offset="1"
         style="stop-color:#ffffff;stop-opacity:1;" />
    </linearGradient>
    <linearGradient
       id="linearGradient4509">
      <stop
         style="stop-color:#888888;stop-opacity:1;"
         offset="0"
         id="stop4511" />
      <stop
         id="stop4517"
         offset="0.94117647"
         style="stop-color:#d4d4d4;stop-opacity:0.16249999;" />
      <stop
         style="stop-color:#888888;stop-opacity:0;"
         offset="1"
         id="stop4513" />
    </linearGradient>
    <linearGradient
       inkscape:collect="always"
       id="linearGradient4501">
      <stop
         style="stop-color:#555555;stop-opacity:1"
         offset="0"
         id="stop4503" />
      <stop
         style="stop-color:#ffffff;stop-opacity:0"
         offset="1"
         id="stop4505" />
    </linearGradient>
    <linearGradient
       id="linearGradient3291">
      <stop
         id="stop3293"
         offset="0"
         style="stop-color:#000000;stop-opacity:1;" />
      <stop
         id="stop3295"
         offset="1"
         style="stop-color:#000000;stop-opacity:0;" />
    </linearGradient>
    <radialGradient
       inkscape:collect="always"
       xlink:href="#linearGradient3291"
       id="radialGradient2595"
       gradientUnits="userSpaceOnUse"
       gradientTransform="matrix(1,0,0,0.197802,0,92.82166)"
       cx="63.912209"
       cy="115.70919"
       fx="75.857941"
       fy="115.70919"
       r="63.912209" />
    <radialGradient
       inkscape:collect="always"
       xlink:href="#linearGradient4501"
       id="radialGradient4507"
       cx="16.697474"
       cy="16.988987"
       fx="16.697474"
       fy="16.988987"
       r="4.6519192"
       gradientTransform="matrix(2.394443,-1.9340467e-2,1.936885e-2,2.3979569,-22.631912,-23.432765)"
       gradientUnits="userSpaceOnUse" />
    <radialGradient
       inkscape:collect="always"
       xlink:href="#linearGradient4509"
       id="radialGradient4515"
       cx="21.262299"
       cy="16.792412"
       fx="21.262299"
       fy="16.792412"
       r="7.2988682"
       gradientTransform="matrix(1.0493775,0,0,1.2999335,-1.0498783,-5.0989725)"
       gradientUnits="userSpaceOnUse" />
    <radialGradient
       inkscape:collect="always"
       xlink:href="#linearGradient4547"
       id="radialGradient4563"
       cx="20.843847"
       cy="16.997791"
       fx="20.843847"
       fy="16.997791"
       r="11.907206"
       gradientTransform="matrix(1.0454013,-3.695351e-8,5.287811e-8,1.4959025,-0.9463412,-8.4292466)"
       gradientUnits="userSpaceOnUse" />
    <radialGradient
       inkscape:collect="always"
       xlink:href="#linearGradient5573"
       id="radialGradient5571"
       gradientUnits="userSpaceOnUse"
       gradientTransform="matrix(1.6260848,1.4812955e-8,-2.0973346e-8,2.0453012,-13.268261,-17.734635)"
       cx="21.19243"
       cy="16.966053"
       fx="21.19243"
       fy="16.966053"
       r="11.361388" />
    <radialGradient
       inkscape:collect="always"
       xlink:href="#linearGradient5585"
       id="radialGradient5583"
       gradientUnits="userSpaceOnUse"
       gradientTransform="matrix(1,0,0,1.2992925,0,-5.0778126)"
       cx="21.46273"
       cy="16.966053"
       fx="21.46273"
       fy="16.966053"
       r="11.361388" />
    <linearGradient
       inkscape:collect="always"
       xlink:href="#linearGradient4541"
       id="linearGradient4548"
       x1="12.664735"
       y1="32.59375"
       x2="12.664735"
       y2="1.3125"
       gradientUnits="userSpaceOnUse" />
    <linearGradient
       inkscape:collect="always"
       xlink:href="#linearGradient4541"
       id="linearGradient6549"
       x1="13.351731"
       y1="1.2186784"
       x2="13.351731"
       y2="32.15625"
       gradientUnits="userSpaceOnUse" />
    <linearGradient
       inkscape:collect="always"
       xlink:href="#linearGradient4547"
       id="linearGradient6568"
       gradientUnits="userSpaceOnUse"
       x1="20.736124"
       y1="33.094086"
       x2="19.742517"
       y2="1.15625" />
    <radialGradient
       inkscape:collect="always"
       xlink:href="#linearGradient4547"
       id="radialGradient2596"
       gradientUnits="userSpaceOnUse"
       gradientTransform="matrix(0.6819835,8.9607637e-3,-1.9466796e-2,1.4815738,4.165491,-8.091096)"
       cx="11.70197"
       cy="16.338678"
       fx="11.70197"
       fy="16.338678"
       r="13.885189" />
    <linearGradient
       inkscape:collect="always"
       xlink:href="#linearGradient4531"
       id="linearGradient2633"
       x1="8.2816448"
       y1="11.717455"
       x2="28.140471"
       y2="18.349289"
       gradientUnits="userSpaceOnUse" />
    <linearGradient
       inkscape:collect="always"
       xlink:href="#linearGradient4531"
       id="linearGradient2642"
       x1="14.181886"
       y1="10.936784"
       x2="29.003565"
       y2="24.09096"
       gradientUnits="userSpaceOnUse" />
  </defs>
  <sodipodi:namedview
     id="base"
     pagecolor="#ffffff"
     bordercolor="#666666"
     borderopacity="1.0"
     inkscape:pageopacity="0.0"
     inkscape:pageshadow="2"
     inkscape:zoom="17.709817"
     inkscape:cx="19.999018"
     inkscape:cy="19.532428"
     inkscape:current-layer="layer1"
     showgrid="false"
     inkscape:grid-bbox="false"
     inkscape:document-units="px"
     width="40px"
     height="40px"
     gridempspacing="2"
     inkscape:window-width="1167"
     inkscape:window-height="914"
     inkscape:window-x="78"
     inkscape:window-y="40" />
  <metadata
     id="metadata2198">
    <rdf:RDF>
      <cc:Work
         rdf:about="">
        <dc:format>image/svg+xml</dc:format>
        <dc:type
           rdf:resource="http://purl.org/dc/dcmitype/StillImage" />
        <dc:creator>
          <cc:Agent>
            <dc:title>Jarle Akselsen</dc:title>
          </cc:Agent>
        </dc:creator>
        <cc:license
           rdf:resource="http://creativecommons.org/licenses/GPL/2.0/" />
      </cc:Work>
      <cc:License
         rdf:about="http://creativecommons.org/licenses/GPL/2.0/">
        <cc:permits
           rdf:resource="http://web.resource.org/cc/Reproduction" />
        <cc:permits
           rdf:resource="http://web.resource.org/cc/Distribution" />
        <cc:requires
           rdf:resource="http://web.resource.org/cc/Notice" />
        <cc:permits
           rdf:resource="http://web.resource.org/cc/DerivativeWorks" />
        <cc:requires
           rdf:resource="http://web.resource.org/cc/ShareAlike" />
        <cc:requires
           rdf:resource="http://web.resource.org/cc/SourceCode" />
      </cc:License>
    </rdf:RDF>
  </metadata>
  <g
     id="layer1"
     inkscape:label="Layer 1"
     inkscape:groupmode="layer">
    <path
       style="opacity:1;fill:#000000;fill-opacity:1;fill-rule:nonzero;stroke:none;stroke-width:0.2;stroke-linecap:round;stroke-linejoin:round;stroke-miterlimit:4;stroke-dasharray:none;stroke-opacity:1"
       d="M 20.40625,1.15625 L 18.65625,1.21875 C 18.656248,1.21875 17.682623,1.3537 17.40625,1.40625 L 15.84375,1.6875 C 15.833709,1.6897 15.822654,1.68564 15.8125,1.6875 C 15.720094,1.70445 15.622045,1.72697 15.53125,1.75 L 15.375,1.78125 L 15.34375,1.78125 C 13.942045,2.16609 12.611908,2.87361 11.40625,3.84375 C 11.327899,3.8968735 11.264929,3.9758505 11.1875,4.03125 C 8.29638,6.457969 6.17344,10.42173 5.625,15.125 C 4.92029,21.168427 7.00977,26.787869 10.625,29.8125 C 11.479792,30.52579 12.429381,31.07281 13.4375,31.46875 C 13.388698,31.42511 14.658951,31.95071 15.28125,32.15625 C 14.903096,31.99437 17.666935,32.8644 18.625,33 C 25.328262,33.94879 31.602276,27.61435 32.625,18.84375 C 32.63111,18.79135 32.619453,18.73957 32.625,18.6875 C 33.128444,14.3701 32.213177,10.2654 30.34375,7.15625 C 30.14441,6.82499 29.939421,6.49542 29.71875,6.1875 C 29.464589,5.83233 29.187096,5.50877 28.90625,5.1875 C 29.115496,5.42662 29.33671,5.64821 29.53125,5.90625 C 29.504642,5.86869 29.496133,5.81826 29.46875,5.78125 C 29.165427,5.37129 28.869631,4.95759 28.53125,4.59375 C 27.856308,3.86802 27.111852,3.26628 26.3125,2.75 C 25.905368,2.48705 25.497978,2.2331 25.0625,2.03125 C 24.644017,1.83729 24.192258,1.66464 23.75,1.53125 C 23.522697,1.46269 23.295614,1.42674 23.0625,1.375 C 22.82164,1.32153 22.590467,1.25367 22.34375,1.21875 L 20.40625,1.15625 z M 11.1875,4.03125 C 10.404328,4.5915983 9.671306,5.2562702 9,6.03125 C 9.673889,5.2566597 10.40248,4.5925425 11.1875,4.03125 z M 9,6.03125 C 8.660233,6.4234899 8.336206,6.8404263 8.03125,7.28125 C 8.33423,6.846592 8.663056,6.4185452 9,6.03125 z M 8.03125,7.28125 C 7.730434,7.7160896 7.450445,8.1782922 7.1875,8.65625 C 7.452395,8.1782036 7.72827,7.715908 8.03125,7.28125 z M 26.0625,2.8125 C 26.113221,2.84185 26.168464,2.84472 26.21875,2.875 C 26.383342,2.97375 26.527708,3.11039 26.6875,3.21875 C 26.477164,3.07594 26.281112,2.93858 26.0625,2.8125 z M 19.34375,8.84375 C 19.528596,8.87789 19.697043,8.91425 19.875,8.96875 C 19.89715,8.97552 19.915464,8.99292 19.9375,9 C 20.114892,9.05705 20.298948,9.11115 20.46875,9.1875 C 20.48953,9.19682 20.51059,9.20915 20.53125,9.21875 C 20.700326,9.29749 20.870463,9.40306 21.03125,9.5 C 21.050671,9.51167 21.074456,9.51932 21.09375,9.53125 C 21.253248,9.63022 21.411942,9.72778 21.5625,9.84375 C 21.574493,9.85303 21.581817,9.86561 21.59375,9.875 C 21.750471,9.99762 21.885033,10.14126 22.03125,10.28125 C 22.041958,10.29155 22.051851,10.30211 22.0625,10.3125 C 22.208285,10.45403 22.365511,10.59229 22.5,10.75 C 22.509508,10.76119 22.521801,10.76998 22.53125,10.78125 C 22.665087,10.94025 22.784479,11.10728 22.90625,11.28125 C 22.914698,11.29336 22.929112,11.30032 22.9375,11.3125 C 23.058986,11.48818 23.172686,11.68549 23.28125,11.875 C 23.28575,11.88291 23.276773,11.89831 23.28125,11.90625 C 23.391708,12.10065 23.497587,12.29246 23.59375,12.5 C 23.597705,12.50859 23.58982,12.52264 23.59375,12.53125 C 23.689275,12.73926 23.794548,12.93644 23.875,13.15625 C 23.87833,13.1654 23.871697,13.17833 23.875,13.1875 C 24.038003,13.63738 24.18603,14.10299 24.28125,14.59375 C 24.283136,14.6035 24.279392,14.61524 24.28125,14.625 C 24.470752,15.618 24.502303,16.68952 24.375,17.78125 C 24.147034,19.73624 23.419491,21.44413 22.375,22.71875 C 22.114844,23.0366 21.826572,23.33463 21.53125,23.59375 C 20.642565,24.37339 19.621211,24.86638 18.53125,25 C 18.464288,24.973805 18.365971,24.954957 18.28125,24.90625 C 17.505661,24.45929 16.813475,23.8136 16.25,23.03125 C 16.245019,23.02431 16.254962,23.00697 16.25,23 C 15.117546,21.4169 14.472676,19.26988 14.5625,16.9375 C 14.573689,16.64603 14.590477,16.35856 14.625,16.0625 C 14.735598,15.11404 14.96555,14.19688 15.28125,13.375 C 15.286382,13.36184 15.30732,13.35687 15.3125,13.34375 C 15.470452,12.93706 15.642994,12.55517 15.84375,12.1875 C 15.848039,12.17973 15.839443,12.164 15.84375,12.15625 C 16.045655,11.78906 16.29156,11.44782 16.53125,11.125 C 16.536121,11.11851 16.526364,11.10022 16.53125,11.09375 C 16.771919,10.77161 17.039106,10.49118 17.3125,10.21875 C 17.923831,9.61553 18.613521,9.16158 19.34375,8.84375 z M 29.59375,27 C 29.392929,27.29125 29.21596,27.57199 29,27.84375 C 28.940282,27.91932 28.845008,27.98743 28.78125,28.0625 C 29.06593,27.71712 29.334,27.3787 29.59375,27 z "
       id="path2543" />
    <path
       id="path5569"
       d="M 19.477866,2.494713 C 14.694172,3.708113 10.729634,8.812526 9.961799,15.397297 C 9.016774,23.50163 13.296574,30.76408 19.490611,31.640793 C 25.684652,32.517504 31.477491,26.671375 32.42252,18.567041 C 33.367545,10.462708 29.109842,3.161985 22.915804,2.285272 C 21.754422,2.120889 20.581796,2.214697 19.477866,2.494713 z M 20.185596,8.516734 C 20.830848,8.353064 21.513574,8.303509 22.192407,8.399592 C 25.812855,8.912034 28.301952,13.173337 27.749582,17.910361 C 27.197211,22.647384 23.812359,26.077189 20.191911,25.564747 C 16.571461,25.052304 14.082366,20.791001 14.634737,16.053978 C 15.083537,12.205147 17.389503,9.225973 20.185596,8.516734 z "
       style="opacity:1;fill:url(#radialGradient5571);fill-opacity:1;fill-rule:nonzero;stroke:none;stroke-width:0.2;stroke-linecap:round;stroke-linejoin:round;stroke-miterlimit:4;stroke-dasharray:none;stroke-opacity:1" />
    <path
       style="opacity:0.4805825;fill:url(#radialGradient2596);fill-opacity:1;fill-rule:nonzero;stroke:none;stroke-width:0.2;stroke-linecap:round;stroke-linejoin:round;stroke-miterlimit:4;stroke-dasharray:none;stroke-opacity:1"
       d="M 20.40625,1.15625 L 18.65625,1.21875 C 18.65625,1.2187499 17.682623,1.353694 17.40625,1.40625 L 15.84375,1.6875 C 15.833706,1.689699 15.822654,1.685638 15.8125,1.6875 C 15.720094,1.704442 15.622045,1.726969 15.53125,1.75 L 15.375,1.78125 L 15.34375,1.78125 C 13.942043,2.16609 12.611908,2.873617 11.40625,3.84375 C 11.328829,3.8962425 11.264004,3.9765496 11.1875,4.03125 C 8.29638,6.457969 6.17344,10.42173 5.625,15.125 C 4.92029,21.168427 7.00977,26.787869 10.625,29.8125 C 11.479796,30.52579 12.429381,31.072814 13.4375,31.46875 C 13.388699,31.425112 14.658951,31.950715 15.28125,32.15625 C 14.903095,31.994368 17.666935,32.864394 18.625,33 C 25.32826,33.948786 31.602276,27.614351 32.625,18.84375 C 32.63111,18.791352 32.619453,18.739566 32.625,18.6875 C 32.253749,21.871247 31.152252,24.727773 29.59375,27 C 29.392931,27.291246 29.21596,27.571988 29,27.84375 C 28.935731,27.925083 28.846794,28.01423 28.78125,28.09375 C 28.519738,28.409381 28.24947,28.6827 27.96875,28.96875 C 27.942971,28.995152 27.932182,29.036361 27.90625,29.0625 C 27.676584,29.292757 27.428653,29.509242 27.1875,29.71875 C 27.100843,29.794626 27.025565,29.864423 26.9375,29.9375 C 26.809444,30.042933 26.662141,30.150527 26.53125,30.25 C 26.331679,30.402348 26.143297,30.549557 25.9375,30.6875 C 25.910754,30.70541 25.870597,30.732334 25.84375,30.75 C 25.248093,31.142001 24.607781,31.454829 23.96875,31.71875 C 23.635249,31.855788 23.280157,31.962574 22.9375,32.0625 C 22.695135,32.133179 22.464968,32.22985 22.21875,32.28125 C 22.178032,32.289704 22.134568,32.304583 22.09375,32.3125 C 21.723502,32.384755 21.345755,32.410517 20.96875,32.4375 C 20.764763,32.451622 20.580608,32.468303 20.375,32.46875 C 20.309391,32.468891 20.222002,32.47002 20.15625,32.46875 C 19.781652,32.462434 19.409039,32.428473 19.03125,32.375 C 18.671779,32.324121 18.315231,32.247294 17.96875,32.15625 C 17.813872,32.115553 17.683364,32.048435 17.53125,32 C 17.04084,31.837121 16.554533,31.63986 16.09375,31.40625 C 14.974461,30.834917 13.96486,30.059634 13.0625,29.09375 C 12.761714,28.771789 12.459922,28.42054 12.1875,28.0625 C 11.966683,27.772284 11.763699,27.469046 11.5625,27.15625 C 11.372544,26.860934 11.201901,26.566602 11.03125,26.25 C 10.8606,25.933397 10.683557,25.612522 10.53125,25.28125 C 10.456727,25.119161 10.413506,24.947223 10.34375,24.78125 C 10.247561,24.549525 10.149225,24.301354 10.0625,24.0625 C 9.790275,23.321456 9.550059,22.58258 9.375,21.78125 C 9.300527,21.440348 9.243316,21.068841 9.1875,20.71875 C 9.171058,20.615627 9.139787,20.510114 9.125,20.40625 C 9.084483,20.115806 9.058712,19.826988 9.03125,19.53125 C 9.015144,19.362268 9.011714,19.201844 9,19.03125 C 8.97732,18.700946 8.943346,18.367013 8.9375,18.03125 C 8.936763,17.9889 8.937965,17.948679 8.9375,17.90625 C 8.933094,17.504368 8.948285,17.064565 8.96875,16.65625 C 8.990851,16.215317 9.010397,15.790579 9.0625,15.34375 C 9.112365,14.916119 9.174862,14.477383 9.25,14.0625 C 9.313621,13.713392 9.419297,13.370742 9.5,13.03125 C 9.561588,12.771356 9.616244,12.535037 9.6875,12.28125 C 9.704215,12.221489 9.698169,12.150228 9.71875,12.09375 C 9.733234,12.04396 9.766399,11.987046 9.78125,11.9375 C 9.812464,11.833456 9.843743,11.727755 9.875,11.625 C 9.948424,11.39424 10.012493,11.193825 10.09375,10.96875 C 10.106252,10.933557 10.11207,10.878826 10.125,10.84375 C 10.135007,10.816507 10.177371,10.808586 10.1875,10.78125 C 10.255371,10.59937 10.302143,10.427911 10.375,10.25 C 10.422478,10.131723 10.481837,9.98916 10.53125,9.875 C 10.557824,9.8139805 10.566592,9.748011 10.59375,9.6875 C 10.627297,9.6122436 10.681997,9.541453 10.71875,9.46875 C 10.797577,9.2986484 10.885379,9.134643 10.96875,8.96875 C 10.982305,8.9427403 10.986711,8.93244 11,8.90625 C 11.090579,8.7286359 11.189784,8.552346 11.28125,8.375 C 11.356456,8.2392025 11.42175,8.101324 11.5,7.96875 C 11.596232,7.8058511 11.683892,7.654788 11.78125,7.5 C 11.828755,7.4252688 11.889021,7.354839 11.9375,7.28125 C 11.989691,7.2015568 12.039051,7.110761 12.09375,7.03125 C 12.145117,6.9561149 12.196688,6.884595 12.25,6.8125 C 12.37568,6.6355879 12.493682,6.481956 12.625,6.3125 C 12.639039,6.2944861 12.673589,6.268213 12.6875,6.25 C 12.948406,5.91645 13.218583,5.584099 13.5,5.28125 C 13.639739,5.1306399 13.793294,4.987317 13.9375,4.84375 C 13.947526,4.8338681 13.927453,4.822343 13.9375,4.8125 C 14.168447,4.5874409 14.414162,4.391653 14.65625,4.1875 C 14.796827,4.0679121 14.949655,3.956011 15.09375,3.84375 C 15.226268,3.7413089 15.364666,3.627374 15.5,3.53125 C 15.726088,3.370667 15.954085,3.236178 16.1875,3.09375 C 16.701809,2.7799231 17.236417,2.50214 17.78125,2.28125 C 17.79032,2.2834429 17.803237,2.248827 17.8125,2.25 C 17.930357,2.202356 18.037189,2.136798 18.15625,2.09375 C 18.462363,1.983071 18.749291,1.891947 19.0625,1.8125 C 19.351616,1.739165 19.675208,1.703292 19.96875,1.65625 C 20.178634,1.622615 20.381799,1.613125 20.59375,1.59375 C 20.678234,1.586028 20.758955,1.56788 20.84375,1.5625 C 21.025716,1.552331 21.19168,1.530511 21.375,1.53125 C 21.407743,1.531148 21.467216,1.53099 21.5,1.53125 C 21.885631,1.536955 22.234723,1.569759 22.625,1.625 C 23.030549,1.682401 23.454769,1.766418 23.84375,1.875 C 23.888111,1.887457 23.924616,1.893146 23.96875,1.90625 C 24.106096,1.946833 24.239909,2.015757 24.375,2.0625 C 24.645046,2.1563701 24.895688,2.257224 25.15625,2.375 C 25.177407,2.384563 25.228909,2.365282 25.25,2.375 C 25.529507,2.503159 25.794729,2.658075 26.0625,2.8125 C 26.113224,2.8418549 26.168464,2.844728 26.21875,2.875 C 26.383343,2.973753 26.527708,3.110391 26.6875,3.21875 C 26.980598,3.418005 27.255196,3.644896 27.53125,3.875 C 27.82407,4.119078 28.133896,4.34845 28.40625,4.625 C 28.465715,4.6853798 28.50405,4.750639 28.5625,4.8125 C 28.676756,4.9331611 28.795931,5.0613 28.90625,5.1875 C 29.115496,5.4266228 29.33671,5.648209 29.53125,5.90625 C 29.504642,5.868686 29.496133,5.8182593 29.46875,5.78125 C 29.165424,5.3712891 28.869631,4.957593 28.53125,4.59375 C 27.856305,3.8680202 27.111852,3.266273 26.3125,2.75 C 25.905367,2.4870481 25.497978,2.233092 25.0625,2.03125 C 24.644017,1.8372851 24.192258,1.664643 23.75,1.53125 C 23.522695,1.4626909 23.295614,1.426747 23.0625,1.375 C 22.821639,1.321534 22.590467,1.253671 22.34375,1.21875 L 20.40625,1.15625 z M 11.1875,4.03125 C 10.40347,4.5918346 9.670622,5.2566247 9,6.03125 C 9.673889,5.2566597 10.40248,4.5925425 11.1875,4.03125 z M 9,6.03125 C 8.660977,6.4228506 8.335302,6.8412029 8.03125,7.28125 C 8.33423,6.846592 8.663056,6.4185452 9,6.03125 z M 8.03125,7.28125 C 7.731326,7.7153235 7.449509,8.1790961 7.1875,8.65625 C 7.452395,8.1782036 7.72827,7.715908 8.03125,7.28125 z M 29.71875,6.1875 C 29.939422,6.4954222 30.14441,6.824988 30.34375,7.15625 C 30.151245,6.8147643 29.925255,6.5071248 29.71875,6.1875 z "
       id="path3285" />
    <path
       sodipodi:nodetypes="ccc"
       id="path2276"
       d="M 10.956528,1.0198748 L 10.956528,-1.7748336 L 10.956528,1.0198748 z "
       style="fill:#ffffff;fill-opacity:0.75688076;fill-rule:nonzero;stroke:none;stroke-width:0.5;stroke-linecap:round;stroke-linejoin:round;stroke-miterlimit:4;stroke-dasharray:none;stroke-dashoffset:4;stroke-opacity:1" />
    <path
       sodipodi:nodetypes="cssssccssssc"
       id="path3290"
       d="M 19.072456,1.826885 C 14.061119,3.098024 9.8783841,8.44589 9.0740062,15.344009 C 8.0840045,23.834002 12.551784,31.457637 19.040582,32.376073 C 25.529376,33.294508 31.623885,27.167518 32.613886,18.677527 C 33.603888,10.187534 29.128015,2.533713 22.639223,1.615278 C 21.422574,1.443071 20.228918,1.533545 19.072456,1.826885 z M 19.477866,2.494713 C 20.581796,2.214697 21.754422,2.120889 22.915804,2.285272 C 29.109842,3.161985 33.367545,10.462708 32.42252,18.567041 C 31.477491,26.671375 25.684652,32.517504 19.490611,31.640793 C 13.296574,30.76408 9.0167737,23.50163 9.9617989,15.397297 C 10.729634,8.812526 14.694172,3.708113 19.477866,2.494713 z "
       style="opacity:1;fill:url(#radialGradient4563);fill-opacity:1.0;fill-rule:nonzero;stroke:none;stroke-width:0.2;stroke-linecap:round;stroke-linejoin:round;stroke-miterlimit:4;stroke-dasharray:none;stroke-opacity:1" />
    <path
       style="opacity:1;fill:url(#radialGradient4507);fill-opacity:1;fill-rule:nonzero;stroke:none;stroke-width:0.2;stroke-linecap:round;stroke-linejoin:round;stroke-miterlimit:4;stroke-dasharray:none;stroke-opacity:1"
       d="M 20.185596,8.5167343 C 19.868705,8.5971147 19.568657,8.6910466 19.266031,8.8278356 C 22.609137,9.3952616 24.895971,13.36712 24.381689,17.777509 C 23.925758,21.687489 21.429039,24.652822 18.522477,25.009146 C 19.045167,25.278562 19.600577,25.481048 20.191911,25.564747 C 23.812359,26.077189 27.197211,22.647384 27.749582,17.910361 C 28.301952,13.173337 25.812854,8.9120341 22.192407,8.3995916 C 21.513574,8.3035086 20.830848,8.3530638 20.185596,8.5167343 z "
       id="path3296" />
    <path
       style="opacity:0.38834951;fill:url(#radialGradient4515);fill-opacity:1.0;fill-rule:nonzero;stroke:none;stroke-width:0.2;stroke-linecap:round;stroke-linejoin:round;stroke-miterlimit:4;stroke-dasharray:none;stroke-opacity:1"
       d="M 19.997402,7.6936462 C 16.923985,8.4732282 14.361,11.737767 13.867685,15.968337 C 13.260528,21.175192 15.991988,25.869341 19.971521,26.43261 C 23.951054,26.995879 27.690092,23.229287 28.297249,18.022433 C 28.904406,12.815578 26.142761,8.1295183 22.163228,7.5662483 C 21.417065,7.4606353 20.706653,7.5137426 19.997402,7.6936462 z M 20.185596,8.5167343 C 20.830848,8.3530638 21.513574,8.3035086 22.192407,8.3995916 C 25.812855,8.9120339 28.301952,13.173337 27.749582,17.910361 C 27.197211,22.647384 23.812358,26.077189 20.191911,25.564747 C 16.571464,25.052303 14.082366,20.791001 14.634737,16.053978 C 15.083538,12.205147 17.389503,9.2259729 20.185596,8.5167343 z "
       id="path3301" />
    <path
       style="opacity:1;fill:#000000;fill-opacity:1;fill-rule:nonzero;stroke:none;stroke-width:0.2;stroke-linecap:round;stroke-linejoin:round;stroke-miterlimit:4;stroke-dasharray:none;stroke-opacity:1"
       d="M 21.5625,1.53125 L 21.5625,2.21875 C 21.573223,2.218513 21.583024,2.218947 21.59375,2.21875 L 21.59375,1.53125 C 21.583015,1.531009 21.573231,1.531452 21.5625,1.53125 z M 20.46875,1.59375 L 20.5,2.28125 C 20.510048,2.279836 20.521195,2.282632 20.53125,2.28125 L 20.5,1.59375 C 20.489982,1.59476 20.478764,1.592708 20.46875,1.59375 z M 22.65625,1.625 L 22.59375,2.25 C 22.604079,2.251055 22.614672,2.248905 22.625,2.25 L 22.6875,1.625 C 22.67754,1.623524 22.666219,1.626444 22.65625,1.625 z M 19.375,1.75 L 19.46875,2.5 C 19.478491,2.497529 19.490249,2.502442 19.5,2.5 L 19.40625,1.75 C 19.396181,1.752188 19.385063,1.747781 19.375,1.75 z M 23.75,1.84375 L 23.65625,2.4375 C 23.665984,2.439739 23.677777,2.435229 23.6875,2.4375 L 23.78125,1.875 C 23.76969,1.871853 23.761575,1.846853 23.75,1.84375 z M 18.3125,2.0625 L 18.46875,2.84375 C 18.481285,2.839011 18.487451,2.817185 18.5,2.8125 L 18.34375,2.0625 C 18.334268,2.065716 18.321975,2.059255 18.3125,2.0625 z M 24.8125,2.1875 L 24.6875,2.75 C 24.696739,2.753332 24.709523,2.746638 24.71875,2.75 L 24.8125,2.1875 z M 17.3125,2.46875 C 17.300079,2.474519 17.293656,2.49418 17.28125,2.5 L 17.5,3.25 C 17.512478,3.243721 17.518755,3.224975 17.53125,3.21875 L 17.3125,2.46875 z M 25.8125,2.6875 L 25.65625,3.15625 C 25.664704,3.160449 25.679058,3.152025 25.6875,3.15625 L 25.84375,2.6875 C 25.835729,2.683134 25.820532,2.691844 25.8125,2.6875 z M 16.28125,3 L 16.5625,3.78125 C 16.574929,3.773324 16.581299,3.75787 16.59375,3.75 L 16.3125,3 C 16.304868,3.004526 16.288874,2.995454 16.28125,3 z M 26.75,3.28125 L 26.59375,3.6875 C 26.600959,3.692154 26.617801,3.682826 26.625,3.6875 L 26.78125,3.28125 C 26.773923,3.276158 26.757338,3.286322 26.75,3.28125 z M 15.375,3.59375 C 15.363218,3.602346 15.355511,3.616356 15.34375,3.625 L 15.6875,4.40625 C 15.699021,4.397268 15.707206,4.383932 15.71875,4.375 L 15.375,3.59375 z M 27.65625,3.96875 L 27.46875,4.34375 C 27.475014,4.348814 27.493745,4.33867 27.5,4.34375 L 27.6875,4 C 27.676559,3.990567 27.66722,3.978135 27.65625,3.96875 z M 14.46875,4.3125 L 14.875,5.09375 C 14.885637,5.083886 14.895589,5.072319 14.90625,5.0625 L 14.5,4.3125 L 14.46875,4.3125 z M 28.46875,4.75 L 28.3125,5.0625 L 28.5,4.78125 C 28.489742,4.770556 28.479039,4.760648 28.46875,4.75 z M 13.65625,5.125 C 13.645979,5.135687 13.635246,5.145522 13.625,5.15625 L 14.09375,5.875 C 14.103749,5.864043 14.114974,5.854665 14.125,5.84375 L 13.65625,5.125 z M 29.21875,5.59375 L 29.03125,5.875 C 29.040665,5.886188 29.053117,5.895019 29.0625,5.90625 L 29.25,5.625 C 29.240804,5.613527 29.227977,5.605183 29.21875,5.59375 z M 12.875,6 L 13.40625,6.6875 C 13.415308,6.675927 13.428415,6.667785 13.4375,6.65625 L 12.90625,6 C 12.902065,6.005115 12.87918,5.994877 12.875,6 z M 29.9375,6.5 L 29.71875,6.75 C 29.726939,6.761665 29.741842,6.769549 29.75,6.78125 L 29.9375,6.53125 C 29.932654,6.524051 29.942357,6.507187 29.9375,6.5 z M 12.1875,6.90625 C 12.179372,6.917848 12.164354,6.925871 12.15625,6.9375 L 12.75,7.59375 C 12.758049,7.581719 12.773174,7.574498 12.78125,7.5625 L 12.1875,6.90625 z M 30.53125,7.5 L 30.34375,7.71875 L 30.5625,7.53125 C 30.555572,7.51893 30.538208,7.512291 30.53125,7.5 z M 11.5625,7.90625 C 11.555052,7.918704 11.538671,7.925017 11.53125,7.9375 L 12.1875,8.53125 C 12.194659,8.518736 12.211563,8.512485 12.21875,8.5 L 11.5625,7.90625 z M 31.0625,8.5 L 30.84375,8.6875 C 30.854024,8.708529 30.864811,8.728896 30.875,8.75 L 31.09375,8.5625 C 31.083992,8.541611 31.072336,8.520821 31.0625,8.5 z M 11,8.9375 C 10.993622,8.950078 10.975102,8.956147 10.96875,8.96875 L 11.65625,9.5 C 11.660285,9.491692 11.652204,9.477047 11.65625,9.46875 L 11,8.9375 z M 31.5,9.59375 L 31.3125,9.71875 C 31.321188,9.740394 31.335147,9.759541 31.34375,9.78125 L 31.53125,9.625 C 31.526306,9.612144 31.504972,9.606585 31.5,9.59375 z M 10.5,10 C 10.49088,10.021389 10.477798,10.041051 10.46875,10.0625 L 11.21875,10.5 C 11.222371,10.491161 11.215116,10.477578 11.21875,10.46875 L 10.5,10 z M 31.875,10.65625 L 31.6875,10.78125 C 31.690585,10.790808 31.684431,10.802932 31.6875,10.8125 L 31.875,10.71875 C 31.869159,10.699967 31.880898,10.674996 31.875,10.65625 z M 10.0625,11.125 C 10.058139,11.137414 10.035587,11.143819 10.03125,11.15625 L 10.8125,11.5625 C 10.816747,11.549892 10.839478,11.54384 10.84375,11.53125 L 10.0625,11.125 z M 32.1875,11.75 L 32,11.84375 C 32.00492,11.863292 31.995143,11.886672 32,11.90625 L 32.1875,11.8125 C 32.182702,11.79273 32.19236,11.769735 32.1875,11.75 z M 9.6875,12.28125 C 9.684787,12.2909 9.690199,12.302841 9.6875,12.3125 L 10.5,12.625 C 10.503396,12.612433 10.52783,12.606302 10.53125,12.59375 L 9.6875,12.28125 z M 32.4375,12.875 L 32.25,12.9375 C 32.253707,12.957553 32.246358,12.979916 32.25,13 L 32.4375,12.9375 C 32.433935,12.917403 32.441128,12.895067 32.4375,12.875 z M 9.40625,13.4375 C 9.403588,13.449826 9.37764,13.456412 9.375,13.46875 L 10.25,13.71875 C 10.252058,13.708814 10.247927,13.697427 10.25,13.6875 L 9.40625,13.4375 z M 32.625,13.96875 L 32.4375,14.03125 C 32.440018,14.051836 32.435049,14.073137 32.4375,14.09375 L 32.625,14.03125 C 32.622575,14.010653 32.62749,13.989321 32.625,13.96875 z M 9.15625,14.65625 C 9.154716,14.666386 9.157769,14.677357 9.15625,14.6875 L 10.0625,14.84375 C 10.063988,14.833579 10.060996,14.822664 10.0625,14.8125 L 9.15625,14.65625 z M 32.71875,15.125 L 32.5,15.15625 C 32.50064,15.16675 32.499377,15.176994 32.5,15.1875 L 32.71875,15.15625 C 32.718131,15.145727 32.719386,15.135518 32.71875,15.125 z M 9.03125,15.84375 C 9.029356,15.864343 9.03308,15.885668 9.03125,15.90625 L 9.90625,15.96875 C 9.907233,15.957457 9.936497,15.948797 9.9375,15.9375 L 9.03125,15.84375 z M 32.75,16.21875 L 32.53125,16.25 C 32.531285,16.260283 32.531231,16.270963 32.53125,16.28125 L 32.75,16.28125 C 32.749957,16.260555 32.750108,16.239427 32.75,16.21875 z M 8.9375,17.0625 C 8.936817,17.083791 8.938115,17.103725 8.9375,17.125 L 9.84375,17.09375 C 9.844049,17.083167 9.843433,17.073087 9.84375,17.0625 L 8.9375,17.0625 z M 32.5,17.3125 C 32.49893,17.333266 32.501137,17.354219 32.5,17.375 L 32.71875,17.375 C 32.719282,17.364783 32.718234,17.353964 32.71875,17.34375 L 32.5,17.3125 z M 9.84375,18.21875 L 8.9375,18.3125 C 8.937827,18.322962 8.937156,18.333293 8.9375,18.34375 L 9.84375,18.25 C 9.843407,18.239597 9.844076,18.229159 9.84375,18.21875 z M 32.4375,18.4375 C 32.436344,18.448 32.438673,18.458247 32.4375,18.46875 L 32.625,18.5 C 32.626196,18.488865 32.655073,18.479882 32.65625,18.46875 L 32.4375,18.4375 z M 9.9375,19.34375 L 9.03125,19.5625 C 9.032217,19.572672 9.030268,19.583584 9.03125,19.59375 L 9.9375,19.40625 C 9.935584,19.386019 9.939351,19.364005 9.9375,19.34375 z M 32.28125,19.5 C 32.279582,19.510035 32.282933,19.521223 32.28125,19.53125 L 32.46875,19.59375 C 32.472316,19.571867 32.496502,19.553168 32.5,19.53125 L 32.28125,19.5 z M 10.0625,20.5 L 9.1875,20.78125 C 9.189117,20.79136 9.185867,20.802397 9.1875,20.8125 L 10.09375,20.5625 C 10.090173,20.540172 10.065997,20.522365 10.0625,20.5 z M 32.0625,20.53125 C 32.058081,20.551039 32.066978,20.573996 32.0625,20.59375 L 32.28125,20.65625 C 32.28342,20.646341 32.279095,20.634917 32.28125,20.625 L 32.0625,20.53125 z M 31.8125,21.59375 C 31.809707,21.603534 31.815307,21.615225 31.8125,21.625 L 32,21.71875 C 32.002673,21.70915 31.99734,21.697108 32,21.6875 L 31.8125,21.59375 z M 10.28125,21.65625 L 9.4375,22 C 9.442106,22.020061 9.432831,22.042474 9.4375,22.0625 L 10.28125,21.6875 C 10.279028,21.677721 10.283456,21.666038 10.28125,21.65625 z M 31.46875,22.625 C 31.462112,22.643825 31.475444,22.668717 31.46875,22.6875 L 31.6875,22.78125 C 31.690718,22.771859 31.684295,22.759401 31.6875,22.75 L 31.46875,22.625 z M 10.5625,22.78125 L 9.75,23.21875 C 9.752884,23.228197 9.747102,23.240562 9.75,23.25 L 10.5625,22.8125 C 10.559654,22.802968 10.565331,22.790792 10.5625,22.78125 z M 31.09375,23.625 C 31.088544,23.63733 31.067731,23.643941 31.0625,23.65625 L 31.28125,23.8125 C 31.286483,23.799789 31.307292,23.793981 31.3125,23.78125 L 31.09375,23.625 z M 10.9375,23.875 L 10.15625,24.375 C 10.161187,24.38783 10.182535,24.393441 10.1875,24.40625 L 10.9375,23.90625 C 10.934045,23.89708 10.94094,23.884181 10.9375,23.875 z M 30.65625,24.59375 C 30.64587,24.614613 30.635454,24.635458 30.625,24.65625 L 30.84375,24.8125 C 30.84988,24.79987 30.868896,24.793904 30.875,24.78125 L 30.65625,24.59375 z M 11.375,24.9375 L 10.65625,25.53125 C 10.660298,25.539752 10.652188,25.55401 10.65625,25.5625 L 11.40625,25 C 11.396472,24.979049 11.384695,24.958522 11.375,24.9375 z M 30.125,25.5625 C 30.120432,25.57031 30.129579,25.585952 30.125,25.59375 L 30.34375,25.8125 C 30.348243,25.804583 30.339268,25.789178 30.34375,25.78125 L 30.125,25.5625 z M 11.9375,26 L 11.21875,26.65625 C 11.225815,26.668396 11.242906,26.675383 11.25,26.6875 L 11.9375,26 z M 29.59375,26.46875 C 29.585721,26.480559 29.570556,26.488223 29.5625,26.5 L 29.75,26.75 C 29.757803,26.738171 29.773472,26.730609 29.78125,26.71875 L 29.59375,26.46875 z M 12.53125,26.96875 L 11.90625,27.6875 L 12.5625,26.96875 C 12.559345,26.964102 12.5344,26.973403 12.53125,26.96875 z M 28.9375,27.3125 C 28.928491,27.323884 28.915285,27.332404 28.90625,27.34375 L 29.125,27.625 C 29.133993,27.613225 29.147283,27.605561 29.15625,27.59375 L 28.9375,27.3125 z M 13.21875,27.875 L 12.65625,28.65625 C 12.661456,28.662383 12.651035,28.681379 12.65625,28.6875 L 13.25,27.90625 C 13.240709,27.89491 13.228009,27.886382 13.21875,27.875 z M 28.25,28.125 C 28.240032,28.135791 28.228744,28.145501 28.21875,28.15625 L 28.40625,28.46875 C 28.415874,28.457921 28.427901,28.448366 28.4375,28.4375 L 28.25,28.125 z M 13.96875,28.75 L 13.46875,29.53125 C 13.479291,29.54148 13.489429,29.552316 13.5,29.5625 L 14,28.75 C 13.994961,28.744907 13.973781,28.755104 13.96875,28.75 z M 27.46875,28.90625 C 27.457946,28.916136 27.448329,28.92766 27.4375,28.9375 L 27.625,29.28125 C 27.630572,29.275902 27.650684,29.28661 27.65625,29.28125 L 27.46875,28.90625 z M 14.8125,29.5 L 14.375,30.34375 C 14.381162,30.348577 14.40008,30.338938 14.40625,30.34375 L 14.84375,29.53125 C 14.83236,29.521896 14.823859,29.509407 14.8125,29.5 z M 26.625,29.59375 L 26.8125,30.03125 C 26.824051,30.021906 26.832223,30.009392 26.84375,30 L 26.65625,29.59375 C 26.649614,29.598843 26.631643,29.588673 26.625,29.59375 z M 15.6875,30.15625 L 15.34375,31 C 15.35592,31.007544 15.362804,31.02376 15.375,31.03125 L 15.71875,30.1875 C 15.706585,30.179508 15.699636,30.164299 15.6875,30.15625 z M 25.78125,30.1875 C 25.769289,30.195044 25.761981,30.211258 25.75,30.21875 L 25.9375,30.6875 L 25.78125,30.1875 z M 16.625,30.71875 L 16.34375,31.53125 C 16.356249,31.537171 16.362478,31.556633 16.375,31.5625 L 16.65625,30.71875 C 16.648031,30.714573 16.633208,30.722952 16.625,30.71875 z M 24.8125,30.71875 L 24.96875,31.28125 C 24.981252,31.274564 24.987516,31.256738 25,31.25 L 24.84375,30.71875 C 24.835039,30.723091 24.82122,30.714436 24.8125,30.71875 z M 23.875,31.125 L 23.96875,31.71875 C 23.977388,31.715194 23.991368,31.722331 24,31.71875 L 23.90625,31.125 C 23.897092,31.128428 23.884166,31.1216 23.875,31.125 z M 17.65625,31.15625 L 17.4375,31.96875 C 17.450292,31.972971 17.455938,31.995833 17.46875,32 L 17.6875,31.1875 C 17.675101,31.183 17.668629,31.160804 17.65625,31.15625 z M 18.65625,31.46875 L 18.53125,32.28125 L 18.6875,31.46875 C 18.677787,31.466445 18.665952,31.471087 18.65625,31.46875 z M 22.84375,31.46875 L 22.90625,32.09375 C 22.915835,32.091015 22.927922,32.096515 22.9375,32.09375 L 22.875,31.46875 C 22.865048,31.471229 22.853709,31.466305 22.84375,31.46875 z M 19.6875,31.65625 L 19.625,32.40625 C 19.636084,32.407098 19.645169,32.436692 19.65625,32.4375 L 19.71875,31.65625 L 19.6875,31.65625 z M 21.8125,31.65625 L 21.84375,32.34375 C 21.855566,32.341786 21.863191,32.314509 21.875,32.3125 L 21.84375,31.65625 C 21.833585,31.657561 21.822671,31.654975 21.8125,31.65625 z M 20.75,31.71875 L 20.71875,32.4375 C 20.729221,32.43705 20.739533,32.437986 20.75,32.4375 L 20.8125,31.71875 C 20.791335,31.718949 20.771182,31.718705 20.75,31.71875 z "
       id="path3374" />
    <path
       style="opacity:0.98999999;fill:url(#linearGradient6568);fill-opacity:1;fill-rule:nonzero;stroke:none;stroke-width:0.2;stroke-linecap:round;stroke-linejoin:round;stroke-miterlimit:4;stroke-dasharray:none;stroke-opacity:1"
       d="M 20.40625,1.15625 L 18.65625,1.21875 C 18.65624,1.21875 17.68262,1.3537 17.40625,1.40625 L 16.9375,1.5 C 16.13907,1.702524 15.370051,2.039242 14.625,2.4375 C 14.604191,2.448623 14.583271,2.457529 14.5625,2.46875 C 14.554348,2.473139 14.539399,2.464355 14.53125,2.46875 L 13.625,2.65625 C 13.50084,2.72434 13.37052,2.77045 13.25,2.84375 C 13.67379,2.5645 14.10131,2.22877 14.15625,2.1875 C 13.19076,2.59029 12.26464,3.15304 11.40625,3.84375 C 11.3825,3.85985 11.36741,3.88993 11.34375,3.90625 L 12,3.78125 L 12,3.8125 C 11.65101,4.1091 11.30026,4.42106 10.96875,4.75 L 11.65625,4.625 C 11.43282,4.84919 11.2119,5.1008 11,5.34375 L 10.3125,5.46875 C 10.51383,5.23446 10.72491,4.99924 10.9375,4.78125 L 10.90625,4.78125 C 10.850658,4.836814 10.931805,4.439682 11,4.1875 C 10.754658,4.401492 10.545752,4.639107 10.3125,4.875 C 10.09715,5.09278 9.89171,5.32687 9.6875,5.5625 L 10.28125,5.46875 C 9.95043,5.86546 9.64929,6.31877 9.34375,6.75 L 9.96875,6.65625 C 9.8283,6.85796 9.69547,7.07053 9.5625,7.28125 L 8.9375,7.34375 C 9.0641,7.14187 9.17896,6.94359 9.3125,6.75 C 9.29794,6.74849 9.28339,6.74698 9.28125,6.75 C 9.3035426,6.718462 9.4174418,6.110798 9.46875,5.8125 C 9.1983556,6.13918 8.9353036,6.486705 8.6875,6.84375 C 8.5563146,7.032767 8.4056794,7.209143 8.28125,7.40625 L 8.90625,7.34375 C 8.64399,7.77326 8.42388,8.26199 8.1875,8.71875 L 8.78125,8.65625 C 8.69279,8.82982 8.61481,9.00931 8.53125,9.1875 L 7.90625,9.21875 C 7.98675,9.04544 8.07107,8.88767 8.15625,8.71875 C 8.14131,8.71742 8.12637,8.71609 8.125,8.71875 C 8.1272054,8.714468 8.1256061,8.010232 8.125,7.6875 C 7.9087898,8.045385 7.693,8.399351 7.5,8.78125 C 7.41906,8.9414 7.3579,9.11708 7.28125,9.28125 C 7.2754525,9.293668 7.2557726,9.30006 7.25,9.3125 L 7.90625,9.25 C 7.70355,9.70022 7.52033,10.21549 7.34375,10.6875 C 7.3555167,10.656011 7.1893946,9.91463 7.125,9.59375 C 6.960166,9.965833 6.8295731,10.359264 6.6875,10.75 C 6.6383413,10.885199 6.5775735,11.018927 6.53125,11.15625 C 6.5269932,11.168869 6.5042326,11.174863 6.5,11.1875 L 7.125,11.1875 C 6.95984,11.70084 6.85099,12.27724 6.71875,12.8125 C 6.71798,12.81561 6.65702,12.80939 6.65625,12.8125 C 6.6569165,12.809799 6.4879917,11.732937 6.4375,11.40625 C 6.2814011,11.89182 6.1505561,12.396579 6.03125,12.90625 C 6.0092995,13.000022 5.9894062,13.092961 5.96875,13.1875 C 5.9616866,13.219828 5.9444108,13.248834 5.9375,13.28125 L 6.59375,13.28125 C 6.48647,13.80664 6.41801,14.36337 6.34375,14.90625 C 6.2025655,14.485878 5.9699282,13.683089 5.90625,13.46875 C 5.8062305,13.961353 5.7200255,14.457275 5.65625,14.96875 C 5.6495714,15.022312 5.6312684,15.071244 5.625,15.125 C 5.6201399,15.166679 5.6295947,15.208362 5.625,15.25 C 5.6203096,15.292505 5.5981647,15.332539 5.59375,15.375 L 6.28125,15.4375 C 6.22761,15.99223 6.17249,16.54685 6.15625,17.09375 C 5.9556443,16.636267 5.6799114,15.820587 5.59375,15.5625 C 5.5442717,16.085413 5.5086303,16.610698 5.5,17.125 C 5.49844,17.21777 5.50026,17.31382 5.5,17.40625 C 5.4998816,17.4484 5.4998501,17.489172 5.5,17.53125 L 6.1875,17.625 C 6.19286,18.17772 6.20778,18.70918 6.25,19.25 C 6.0034011,18.773331 5.5702669,17.810775 5.5,17.65625 C 5.5052875,18.188605 5.5152887,18.699974 5.5625,19.21875 C 5.5720965,19.3242 5.582468,19.426441 5.59375,19.53125 C 5.5948159,19.541589 5.5926175,19.552132 5.59375,19.5625 C 5.5972722,19.594733 5.6213193,19.62408 5.625,19.65625 L 6.28125,19.78125 C 6.34746,20.33325 6.45879,20.902589 6.5625,21.4375 C 6.3285965,21.039696 5.7394298,19.987936 5.625,19.78125 C 5.6903522,20.321542 5.7973024,20.854742 5.90625,21.375 C 5.9302176,21.489453 5.9427374,21.605378 5.96875,21.71875 C 5.9733096,21.738622 5.964128,21.761412 5.96875,21.78125 L 6.6875,21.96875 C 6.8131,22.490426 6.93346,23.030827 7.09375,23.53125 C 6.7865774,23.082245 6.0808932,21.999005 6,21.875 C 6.1272707,22.408071 6.2663429,22.931506 6.4375,23.4375 C 6.4553103,23.490153 6.4817292,23.541416 6.5,23.59375 C 6.5426711,23.697947 6.5863467,23.802175 6.625,23.90625 C 6.6330251,23.927857 6.6481457,23.947201 6.65625,23.96875 L 7.34375,24.15625 C 7.52059,24.621104 7.70048,25.058325 7.90625,25.5 L 8.4375,25.65625 C 8.53892,25.867503 8.64068,26.077202 8.75,26.28125 L 8.15625,26.125 C 8.04587,25.91883 7.94603,25.713561 7.84375,25.5 L 7.90625,25.5 C 7.6709232,25.194344 6.937044,24.398247 6.71875,24.15625 C 6.8761203,24.560346 7.0652812,24.961933 7.25,25.34375 C 7.3119923,25.471889 7.3725306,25.593297 7.4375,25.71875 C 7.4707833,25.790054 7.4933495,25.867053 7.53125,25.9375 C 7.5424514,25.958321 7.5512162,25.979258 7.5625,26 L 8.21875,26.1875 L 8.25,26.1875 C 8.46766,26.582866 8.72781,26.972394 8.96875,27.34375 C 8.5978219,26.976735 7.8031889,26.227753 7.625,26.0625 C 7.837484,26.44791 8.0409966,26.831155 8.28125,27.1875 C 8.4344948,27.414797 8.5881261,27.63048 8.75,27.84375 C 8.7588438,27.855316 8.7723755,27.863472 8.78125,27.875 C 8.8040028,27.904722 8.8205652,27.939149 8.84375,27.96875 C 8.8616546,27.99161 8.8882239,28.008544 8.90625,28.03125 L 9.53125,28.21875 L 9.5,28.1875 C 9.29693,27.926937 9.12456,27.654544 8.9375,27.375 L 9.5,27.5625 C 9.68976,27.844809 9.8877,28.111997 10.09375,28.375 L 9.5625,28.21875 C 9.85767,28.588397 10.17927,28.977643 10.5,29.3125 L 11.15625,29.53125 C 11.42265,29.797519 11.68318,30.045379 11.96875,30.28125 L 11.25,30.03125 C 10.98966,29.810474 10.74392,29.55912 10.5,29.3125 C 10.258566,29.060437 9.2159681,28.277997 8.96875,28.09375 C 9.2566917,28.451564 9.5576932,28.808145 9.875,29.125 C 9.8855396,29.135525 9.8956901,29.145779 9.90625,29.15625 C 10.139466,29.387439 10.377017,29.605029 10.625,29.8125 C 11.46176,30.510747 12.39047,31.043105 13.375,31.4375 C 13.01603,31.258932 12.68115,31.035781 12.34375,30.8125 C 12.44512,30.847315 12.80176,30.991852 13.0625,31.09375 C 13.76187,31.538214 14.50005,31.898231 15.28125,32.15625 C 14.77847,31.941016 14.30939,31.670867 13.84375,31.375 C 13.99832,31.432234 14.12841,31.491091 14.25,31.53125 C 14.09433,31.464609 14.68049,31.627242 15.21875,31.78125 C 15.78297,32.099412 16.35651,32.390659 16.96875,32.59375 C 17.60412,32.769517 18.24649,32.946425 18.625,33 C 25.32826,33.948786 31.60228,27.614352 32.625,18.84375 C 32.63111,18.79135 32.61945,18.73957 32.625,18.6875 C 32.25375,21.871245 31.15226,24.727773 29.59375,27 C 29.39293,27.291246 29.21596,27.571988 29,27.84375 C 28.93572,27.925085 28.84679,28.01423 28.78125,28.09375 C 28.51975,28.409379 28.24947,28.6827 27.96875,28.96875 C 27.94296,28.99515 27.93218,29.036361 27.90625,29.0625 C 27.67658,29.292759 27.42865,29.509242 27.1875,29.71875 C 27.10084,29.79463 27.02556,29.864423 26.9375,29.9375 C 26.80944,30.042933 26.66214,30.150527 26.53125,30.25 C 26.33168,30.402352 26.14329,30.549557 25.9375,30.6875 C 25.91075,30.70541 25.8706,30.732334 25.84375,30.75 C 25.24809,31.141999 24.60778,31.454829 23.96875,31.71875 C 23.63525,31.85579 23.28015,31.962574 22.9375,32.0625 C 22.69513,32.133183 22.46497,32.22985 22.21875,32.28125 C 22.17803,32.289707 22.13457,32.304583 22.09375,32.3125 C 21.72351,32.384755 21.34576,32.410517 20.96875,32.4375 C 20.76477,32.451622 20.58061,32.468303 20.375,32.46875 C 20.30939,32.468891 20.22201,32.47002 20.15625,32.46875 C 19.78166,32.46243 19.40904,32.428473 19.03125,32.375 C 18.67179,32.324117 18.31523,32.247294 17.96875,32.15625 C 17.81387,32.115549 17.68336,32.048435 17.53125,32 C 17.04083,31.837118 16.55454,31.63986 16.09375,31.40625 C 15.19069,30.945291 14.3553,30.344477 13.59375,29.625 L 12.90625,30.125 L 13,30.15625 C 13.30778,30.448201 13.60633,30.715944 13.9375,30.96875 L 12.71875,30.53125 C 12.42298,30.28553 12.11897,30.059466 11.84375,29.78125 L 12.875,30.125 C 12.52093,29.778177 12.16903,29.387744 11.84375,29 L 13.46875,29.5 C 13.33076,29.365675 13.1958,29.236437 13.0625,29.09375 C 12.76171,28.771787 12.45992,28.42054 12.1875,28.0625 C 12.00316,27.820225 11.82507,27.57091 11.65625,27.3125 L 11.1875,28.0625 L 11.1875,28.09375 L 11.25,28.09375 C 11.45928,28.393927 11.67866,28.69104 11.90625,28.96875 L 10.84375,28.625 C 11.126344,28.988 11.407185,29.332442 11.71875,29.65625 C 8.391354,26.496082 6.507199,21.084071 7.1875,15.25 C 7.999562,8.285975 12.190785,2.877035 17.25,1.59375 C 17.785428,1.457937 18.321447,1.378386 18.875,1.34375 C 18.671387,1.370124 18.482621,1.429467 18.28125,1.46875 C 18.522327,1.421043 18.756745,1.373098 19,1.34375 C 19.029937,1.336279 19.063656,1.349154 19.09375,1.34375 C 18.55903,1.4997 16.88852,2.04848 16.59375,2.1875 C 16.83638,2.07308 17.09466,1.97526 17.34375,1.875 L 16.15625,2.125 C 15.621233,2.358513 15.09828,2.646581 14.59375,2.96875 L 15.59375,2.75 C 15.33981,2.90762 15.08911,3.07149 14.84375,3.25 L 13.90625,3.4375 C 13.228479,3.939046 12.598796,4.537852 12,5.1875 C 12.2432,4.92294 12.49282,4.67824 12.75,4.4375 L 13.625,4.28125 C 13.36148,4.52678 13.12404,4.7922 12.875,5.0625 L 12,5.1875 C 11.089347,6.175488 10.267526,7.306646 9.59375,8.59375 L 10.4375,8.5 C 10.33897,8.68661 10.24911,8.87042 10.15625,9.0625 L 9.34375,9.125 C 9.1098122,9.611314 8.8835048,10.104925 8.6875,10.625 L 9.5,10.5625 C 9.43873,10.72409 9.40109,10.8979 9.34375,11.0625 L 8.53125,11.0625 C 8.3283072,11.644666 8.1534663,12.255874 8,12.875 L 8.78125,12.875 C 8.75415,12.98642 8.74409,13.10627 8.71875,13.21875 L 7.90625,13.21875 C 7.7731269,13.808559 7.6761477,14.414014 7.59375,15.03125 L 8.375,15.0625 C 8.3612,15.16719 8.35604,15.26959 8.34375,15.375 C 8.34254,15.38537 8.34494,15.39588 8.34375,15.40625 L 7.53125,15.375 C 7.4567789,16.013644 7.4222085,16.654241 7.40625,17.28125 L 8.21875,17.34375 C 8.21595,17.46928 8.21927,17.59381 8.21875,17.71875 L 7.40625,17.625 C 7.4005854,18.257761 7.4176287,18.88505 7.46875,19.5 L 8.3125,19.625 C 8.32281,19.74005 8.33151,19.85443 8.34375,19.96875 L 7.5,19.84375 C 7.5646157,20.485863 7.6577069,21.103002 7.78125,21.71875 L 8.65625,21.875 C 8.68447,22.010198 8.68779,22.147508 8.71875,22.28125 L 7.875,22.125 C 8.0081935,22.721029 8.1579317,23.310933 8.34375,23.875 L 9.21875,24.09375 C 9.27657,24.262587 9.3439,24.428149 9.40625,24.59375 L 8.5,24.375 C 8.6884121,24.895019 8.9248344,25.389218 9.15625,25.875 L 9.96875,26.09375 C 9.74518,25.625945 9.53585,25.118323 9.34375,24.625 L 10.375,24.90625 C 10.36053,24.865994 10.36047,24.821038 10.34375,24.78125 C 10.24756,24.549527 10.14922,24.301354 10.0625,24.0625 C 9.90053,23.621608 9.75732,23.171719 9.625,22.71875 L 9.125,24 C 8.95585,23.48085 8.82063,22.916317 8.6875,22.375 L 9.59375,22.5625 C 9.52081,22.302933 9.43428,22.052633 9.375,21.78125 C 9.30052,21.44035 9.24331,21.068841 9.1875,20.71875 C 9.17105,20.615627 9.13979,20.510114 9.125,20.40625 C 9.12071,20.375484 9.12898,20.34324 9.125,20.3125 L 8.5625,21.8125 C 8.45147,21.24685 8.38257,20.646734 8.3125,20.0625 L 9.09375,20.1875 C 9.06817,19.97015 9.05183,19.75278 9.03125,19.53125 C 9.01515,19.36227 9.01171,19.20185 9,19.03125 C 8.97732,18.70095 8.94334,18.36702 8.9375,18.03125 L 8.21875,19.53125 C 8.17641,18.98254 8.16153,18.40429 8.15625,17.84375 L 8.9375,17.9375 C 8.93754,17.9271 8.93761,17.91686 8.9375,17.90625 C 8.93308,17.50436 8.94828,17.06456 8.96875,16.65625 C 8.984,16.35185 9.00687,16.05156 9.03125,15.75 L 8.125,17.25 C 8.1442,16.69169 8.19251,16.09732 8.25,15.53125 L 9.03125,15.59375 C 9.03908,15.50966 9.05254,15.42918 9.0625,15.34375 C 9.11236,14.91612 9.17486,14.47739 9.25,14.0625 C 9.29635,13.80816 9.37243,13.56126 9.4375,13.3125 L 8.34375,14.96875 C 8.4233,14.41766 8.48065,13.84561 8.59375,13.3125 L 9.4375,13.3125 C 9.46175,13.21981 9.47809,13.12341 9.5,13.03125 C 9.56159,12.77135 9.61624,12.53503 9.6875,12.28125 C 9.70422,12.22148 9.69817,12.15022 9.71875,12.09375 C 9.73325,12.04396 9.7664,11.98705 9.78125,11.9375 C 9.81246,11.83346 9.84374,11.72776 9.875,11.625 C 9.92324,11.47336 9.95229,11.32854 10,11.1875 L 8.75,12.75 C 8.89092,12.20585 9.04426,11.67763 9.21875,11.15625 L 10.0625,11.09375 C 10.07658,11.0533 10.07866,11.01055 10.09375,10.96875 C 10.10625,10.93356 10.11207,10.87882 10.125,10.84375 C 10.13501,10.81651 10.17737,10.80859 10.1875,10.78125 C 10.25538,10.59937 10.30214,10.42792 10.375,10.25 C 10.42247,10.13173 10.48184,9.98916 10.53125,9.875 C 10.55783,9.81398 10.56659,9.74801 10.59375,9.6875 C 10.6273,9.61224 10.682,9.54145 10.71875,9.46875 C 10.77787,9.34117 10.84269,9.21784 10.90625,9.09375 L 9.40625,10.5 C 9.59545,10.01608 9.81448,9.55404 10.03125,9.09375 C 10.03374,9.08846 10.06,9.09904 10.0625,9.09375 L 10.9375,9.03125 C 10.94803,9.01056 10.95833,8.98949 10.96875,8.96875 C 10.9823,8.94274 10.98671,8.93244 11,8.90625 C 11.09058,8.72863 11.18979,8.55234 11.28125,8.375 C 11.35646,8.2392 11.42175,8.10132 11.5,7.96875 C 11.59623,7.80585 11.68389,7.65479 11.78125,7.5 C 11.82875,7.42527 11.88902,7.35484 11.9375,7.28125 C 11.98969,7.20156 12.03905,7.11077 12.09375,7.03125 C 12.07788,7.04605 12.04567,7.04048 12.03125,7.0625 L 10.375,8.46875 C 10.62173,8.0129 10.91391,7.55159 11.1875,7.125 L 12.09375,7 C 12.1403,6.93256 12.20173,6.87778 12.25,6.8125 C 12.37568,6.63559 12.49368,6.48195 12.625,6.3125 C 12.63903,6.29448 12.67359,6.26822 12.6875,6.25 C 12.94841,5.91645 13.21858,5.5841 13.5,5.28125 C 13.6048,5.16829 13.70193,5.04544 13.8125,4.9375 L 11.71875,6.3125 C 12.03691,5.88948 12.40477,5.50883 12.75,5.125 L 13.8125,4.9375 C 13.84936,4.90152 13.90145,4.87964 13.9375,4.84375 C 13.94752,4.83387 13.92746,4.82234 13.9375,4.8125 C 14.16845,4.58744 14.41416,4.39166 14.65625,4.1875 C 14.79683,4.06792 14.94965,3.95601 15.09375,3.84375 C 15.22626,3.74131 15.36467,3.62737 15.5,3.53125 C 15.72608,3.37066 15.95408,3.23618 16.1875,3.09375 C 16.70181,2.77993 17.23642,2.50214 17.78125,2.28125 C 17.79032,2.28344 17.80323,2.24883 17.8125,2.25 C 17.93034,2.20236 18.03719,2.1368 18.15625,2.09375 C 18.46236,1.98307 18.74929,1.89194 19.0625,1.8125 C 19.35161,1.73916 19.67521,1.70329 19.96875,1.65625 C 20.17864,1.62262 20.3818,1.61313 20.59375,1.59375 C 20.67824,1.58603 20.75895,1.56788 20.84375,1.5625 C 21.02572,1.55234 21.19168,1.53051 21.375,1.53125 C 21.40774,1.53115 21.46722,1.53099 21.5,1.53125 C 21.88562,1.53695 22.23473,1.56976 22.625,1.625 C 23.03055,1.6824 23.45477,1.76641 23.84375,1.875 C 23.88811,1.88745 23.92461,1.89315 23.96875,1.90625 C 24.10609,1.94684 24.23991,2.01575 24.375,2.0625 C 24.64504,2.15637 24.89569,2.25723 25.15625,2.375 C 25.17741,2.38457 25.22891,2.36528 25.25,2.375 C 25.52951,2.50316 25.79473,2.65807 26.0625,2.8125 C 26.11322,2.84185 26.16846,2.84472 26.21875,2.875 C 26.38334,2.97375 26.5277,3.11039 26.6875,3.21875 C 26.98059,3.41801 27.2552,3.6449 27.53125,3.875 C 27.82408,4.11908 28.13389,4.34845 28.40625,4.625 C 28.46571,4.68538 28.50405,4.75064 28.5625,4.8125 C 28.67676,4.93316 28.79594,5.0613 28.90625,5.1875 C 29.1155,5.42662 29.33671,5.64821 29.53125,5.90625 C 29.50464,5.86869 29.49613,5.81826 29.46875,5.78125 C 29.16542,5.37129 28.86963,4.95759 28.53125,4.59375 C 27.8563,3.86802 27.11185,3.26627 26.3125,2.75 C 25.90537,2.48705 25.49798,2.2331 25.0625,2.03125 C 24.644,1.83729 24.19226,1.66464 23.75,1.53125 C 23.5227,1.46269 23.29561,1.42674 23.0625,1.375 C 22.82164,1.32153 22.59047,1.25367 22.34375,1.21875 L 20.40625,1.15625 z M 9.96875,26.09375 L 10.0625,26.125 C 10.17387,26.350615 10.286,26.56391 10.40625,26.78125 L 9.46875,26.5 C 9.7054617,26.944986 9.9778481,27.372785 10.25,27.78125 L 11.15625,28.0625 C 10.87715,27.65462 10.59341,27.251464 10.34375,26.8125 L 11.5625,27.125 C 11.37838,26.837299 11.19752,26.558477 11.03125,26.25 C 10.86061,25.933399 10.68355,25.612522 10.53125,25.28125 C 10.50368,25.221301 10.49067,25.155595 10.46875,25.09375 L 9.96875,26.09375 z M 11,4.1875 C 11.000696,4.184927 11.03056,4.190042 11.03125,4.1875 C 11.036079,4.169709 11.026793,4.140987 11.03125,4.125 C 10.745226,4.337513 10.482772,4.566947 10.21875,4.8125 C 10.472108,4.588525 10.734625,4.385684 11,4.1875 z M 15.8125,1.6875 C 15.72009,1.70445 15.62205,1.72697 15.53125,1.75 L 15.375,1.78125 L 15.34375,1.78125 C 14.99332,1.87746 14.65315,1.98939 14.3125,2.125 L 14.6875,2.09375 C 15.05303,1.93119 15.43696,1.80361 15.8125,1.6875 z M 16,3.09375 L 13.5625,4.25 C 13.93235,3.91211 14.32665,3.60512 14.71875,3.3125 L 16,3.09375 z M 13.3125,3.21875 C 13.245494,3.266142 13.191225,3.326093 13.125,3.375 C 12.99371,3.471958 12.846614,3.553429 12.71875,3.65625 L 12.03125,3.78125 C 12.19092,3.64687 12.33341,3.49831 12.5,3.375 L 13.3125,3.21875 z M 29.71875,6.1875 C 29.93941,6.49542 30.14441,6.82499 30.34375,7.15625 C 30.15125,6.81476 29.92525,6.50713 29.71875,6.1875 z M 10.21875,10.34375 L 10.25,10.34375 L 10.25,10.40625 C 10.23913,10.43718 10.23105,10.46785 10.21875,10.5 L 10.21875,10.34375 z M 7.90625,10.65625 C 7.85405,10.79844 7.79916,10.94927 7.75,11.09375 L 7.15625,11.125 C 7.20325,10.98504 7.26261,10.85655 7.3125,10.71875 L 7.90625,10.65625 z M 6.65625,12.90625 L 7.25,12.90625 C 7.22805,12.99923 7.17696,13.09379 7.15625,13.1875 L 6.59375,13.1875 C 6.61447,13.0924 6.63425,13.00059 6.65625,12.90625 z M 6.28125,14.96875 L 6.84375,15 C 6.83281,15.08478 6.82244,15.16475 6.8125,15.25 C 6.80885,15.28127 6.816,15.31251 6.8125,15.34375 L 6.25,15.3125 C 6.25567,15.26051 6.24393,15.20831 6.25,15.15625 C 6.25738,15.09299 6.27332,15.03174 6.28125,14.96875 z M 6.125,17.1875 L 6.6875,17.21875 C 6.6851,17.33435 6.68795,17.44743 6.6875,17.5625 L 6.125,17.5 C 6.12525,17.39754 6.12319,17.29037 6.125,17.1875 z M 6.21875,19.3125 L 6.75,19.40625 C 6.75907,19.51022 6.77058,19.6154 6.78125,19.71875 L 6.25,19.65625 C 6.23779,19.54227 6.229,19.42723 6.21875,19.3125 z M 6.5,21.5 L 7.0625,21.59375 C 7.08873,21.72177 7.12752,21.842062 7.15625,21.96875 L 6.59375,21.84375 C 6.56765,21.728217 6.52402,21.616638 6.5,21.5 z M 7.09375,23.59375 L 7.65625,23.71875 C 7.7114,23.883113 7.75297,24.057485 7.8125,24.21875 L 7.25,24.0625 C 7.19381,23.909416 7.14599,23.749623 7.09375,23.59375 z "
       id="path4141" />
    <path
       transform="matrix(0.2334059,0,0,0.3370476,6.0315332,-6.4165365)"
       d="M 127.82442 115.70919 A 63.912209 12.641975 0 1 1  0,115.70919 A 63.912209 12.641975 0 1 1  127.82442 115.70919 z"
       sodipodi:ry="12.641975"
       sodipodi:rx="63.912209"
       sodipodi:cy="115.70919"
       sodipodi:cx="63.912209"
       id="path2593"
       style="opacity:0.38139535;fill:url(#radialGradient2595);fill-opacity:1;fill-rule:nonzero;stroke:none;stroke-width:0;stroke-linecap:round;stroke-linejoin:round;stroke-miterlimit:4;stroke-dasharray:none;stroke-dashoffset:4;stroke-opacity:1"
       sodipodi:type="arc" />
    <rect
       style="opacity:0.61162792;fill:#555753;fill-opacity:1;fill-rule:nonzero;stroke:none;stroke-width:0.69999999;stroke-linecap:round;stroke-linejoin:miter;stroke-miterlimit:4;stroke-dasharray:none;stroke-opacity:1"
       id="rect1951"
       width="40.001965"
       height="10.004759"
       x="-0.0019645691"
       y="30" />
    <text
       xml:space="preserve"
       style="font-size:12px;font-style:normal;font-weight:normal;fill:#eeeeec;fill-opacity:1;stroke:none;stroke-width:1px;stroke-linecap:butt;stroke-linejoin:miter;stroke-opacity:1;font-family:Bitstream Vera Sans"
       x="14.087512"
       y="39.168156"
       id="text2840"><tspan
         sodipodi:role="line"
         id="tspan2842"
         x="14.087512"
         y="39.168156">Te</tspan></text>
    <path
       style="opacity:0.42718446;fill:#888888;fill-opacity:1;fill-rule:nonzero;stroke:none;stroke-width:0.2;stroke-linecap:round;stroke-linejoin:round;stroke-miterlimit:4;stroke-dasharray:none;stroke-opacity:1"
       d="M 21.6875,8.34375 C 21.178854,8.324824 20.671439,8.408497 20.1875,8.53125 C 20.134628,8.544661 20.083762,8.578725 20.03125,8.59375 C 20.637612,8.450887 21.271717,8.378937 21.90625,8.46875 C 25.457937,8.971461 27.88563,13.165444 27.34375,17.8125 C 26.801867,22.459555 23.489187,25.81521 19.9375,25.3125 C 18.827598,25.155403 17.835947,24.652399 17,23.875 C 17.891296,24.777897 18.964185,25.389349 20.1875,25.5625 C 23.807947,26.074942 27.197631,22.643272 27.75,17.90625 C 28.30237,13.169226 25.807949,8.918691 22.1875,8.40625 C 22.017792,8.382229 21.857049,8.350059 21.6875,8.34375 z "
       id="path5566"
       sodipodi:nodetypes="cssssscsssc" />
    <path
       style="opacity:1;fill:url(#radialGradient5583);fill-opacity:1.0;fill-rule:nonzero;stroke:none;stroke-width:0.2;stroke-linecap:round;stroke-linejoin:round;stroke-miterlimit:4;stroke-dasharray:none;stroke-opacity:1"
       d="M 19.477866,2.4947126 C 14.694172,3.7081134 10.729634,8.812526 9.961799,15.397297 C 9.016774,23.50163 13.296574,30.76408 19.490611,31.640793 C 25.684652,32.517504 31.477491,26.671375 32.42252,18.567041 C 33.367545,10.462708 29.109842,3.1619847 22.915804,2.2852724 C 21.754422,2.1208891 20.581796,2.2146974 19.477866,2.4947126 z M 20.185596,8.5167343 C 20.830848,8.3530637 21.513574,8.3035088 22.192407,8.3995916 C 25.812855,8.9120339 28.301952,13.173337 27.749582,17.910361 C 27.197211,22.647384 23.812359,26.077189 20.191911,25.564747 C 16.571461,25.052304 14.082366,20.791001 14.634737,16.053978 C 15.083537,12.205147 17.389503,9.2259731 20.185596,8.5167343 z "
       id="path5581" />
    <path
       style="opacity:0.98999999;fill:url(#linearGradient4548);fill-opacity:1.0;fill-rule:nonzero;stroke:none;stroke-width:0.2;stroke-linecap:round;stroke-linejoin:round;stroke-miterlimit:4;stroke-dasharray:none;stroke-opacity:1"
       d="M 19.21875,1.3125 C 18.858512,1.34707 18.509877,1.394094 18.15625,1.46875 C 17.855172,1.547303 17.544571,1.612384 17.25,1.71875 C 12.508351,3.430905 8.685275,8.694269 7.90625,15.375 C 7.054622,22.678369 10.145896,29.353143 15.0625,31.9375 C 15.091911,31.948679 15.09586,31.957761 15.125,31.96875 C 15.314611,32.066821 15.498766,32.160764 15.6875,32.25 C 16.016362,32.337975 16.482325,32.459187 16.96875,32.59375 C 11.19237,30.677622 7.40861,23.394552 8.34375,15.375 C 9.17471,8.248887 13.47928,2.750652 18.65625,1.4375 C 18.84857,1.388719 19.02403,1.349952 19.21875,1.3125 z M 16.9375,1.5 L 15.84375,1.6875 C 15.83371,1.689701 15.82265,1.685638 15.8125,1.6875 C 10.97901,3.181849 7.03487,8.425466 6.25,15.15625 C 5.40751,22.381245 8.46241,28.993733 13.375,31.4375 C 13.39621,31.445996 13.41624,31.460401 13.4375,31.46875 C 13.430879,31.462829 13.650465,31.549682 13.6875,31.5625 C 13.378705,31.372977 13.077434,31.156486 12.78125,30.9375 C 12.749368,30.917364 12.719196,30.895502 12.6875,30.875 C 8.364298,28.078636 5.778414,21.880384 6.5625,15.15625 C 7.34737,8.425466 11.29151,3.181849 16.125,1.6875 C 16.13515,1.685638 16.14621,1.689701 16.15625,1.6875 L 16.53125,1.625 C 16.66816,1.583863 16.799241,1.53507 16.9375,1.5 z "
       id="path3564" />
    <path
       style="opacity:1;fill:url(#linearGradient6549);fill-opacity:1.0;fill-rule:nonzero;stroke:none;stroke-width:0.2;stroke-linecap:round;stroke-linejoin:round;stroke-miterlimit:4;stroke-dasharray:none;stroke-opacity:1"
       d="M 19.25,1.21875 C 18.472236,1.2156904 17.684082,1.3106273 16.9375,1.5 C 11.843346,2.792147 7.63017,8.237882 6.8125,15.25 C 5.891906,23.14476 9.591659,30.277074 15.28125,32.15625 C 14.123511,31.660636 13.073354,30.930792 12.125,30.03125 C 11.984104,29.909689 11.854831,29.785492 11.71875,29.65625 C 8.391354,26.496082 6.507199,21.084071 7.1875,15.25 C 7.999562,8.2859748 12.190785,2.8770347 17.25,1.59375 C 17.785428,1.457937 18.321447,1.3783861 18.875,1.34375 C 18.915311,1.3385286 18.95961,1.3484574 19,1.34375 C 19.335676,1.3046277 19.69081,1.2528762 20.03125,1.25 C 19.770565,1.2291617 19.509255,1.2197699 19.25,1.21875 z "
       id="path2270" />
    <path
       style="opacity:0.42718446;fill:url(#linearGradient2633);fill-opacity:1;fill-rule:nonzero;stroke:none;stroke-width:0.2;stroke-linecap:round;stroke-linejoin:round;stroke-miterlimit:4;stroke-dasharray:none;stroke-opacity:1"
       d="M 20.96875,8.4375 C 21.135078,8.443689 21.302265,8.445185 21.46875,8.46875 C 25.020437,8.971461 27.47938,13.165444 26.9375,17.8125 C 26.43923,22.085572 23.591478,25.249019 20.375,25.34375 C 23.756395,25.521654 26.824395,22.266363 27.34375,17.8125 C 27.88563,13.165444 25.457937,8.971461 21.90625,8.46875 C 21.594091,8.424567 21.278408,8.422083 20.96875,8.4375 z "
       id="path2596" />
    <path
       style="opacity:1;fill:url(#linearGradient2642);fill-opacity:1;fill-rule:nonzero;stroke:none;stroke-width:0.2;stroke-linecap:round;stroke-linejoin:round;stroke-miterlimit:4;stroke-dasharray:none;stroke-opacity:1"
       d="M 19.28125,8.8125 C 22.624358,9.3799256 24.889282,13.370861 24.375,17.78125 C 23.919071,21.691229 21.437812,24.643676 18.53125,25 C 19.053941,25.269416 19.366442,25.269416 18.84375,25 C 21.750312,24.643676 24.231568,21.691229 24.6875,17.78125 C 25.201782,13.370861 22.936855,9.3799256 19.59375,8.8125 C 19.896376,8.675711 19.583876,8.675711 19.28125,8.8125 z "
       id="path2635"
       sodipodi:nodetypes="csccscc" />
  </g>
</svg>
