<?xml version="1.0" encoding="UTF-8" standalone="no"?>
<!-- Created with Inkscape (http://www.inkscape.org/) -->
<svg
   xmlns:svg="http://www.w3.org/2000/svg"
   xmlns="http://www.w3.org/2000/svg"
   xmlns:xlink="http://www.w3.org/1999/xlink"
   version="1.0"
   width="40"
   height="40"
   id="svg2193">
  <defs
     id="defs2195">
    <linearGradient
       id="linearGradient3288">
      <stop
         style="stop-color:#ef2929;stop-opacity:0.28282827"
         offset="0"
         id="stop3291" />
      <stop
         style="stop-color:#cc0000;stop-opacity:0.68686867"
         offset="1"
         id="stop3297" />
    </linearGradient>
    <linearGradient
       id="linearGradient3224">
      <stop
         style="stop-color:#000000;stop-opacity:1"
         offset="0"
         id="stop3226" />
      <stop
         style="stop-color:#ffffff;stop-opacity:1"
         offset="1"
         id="stop3228" />
    </linearGradient>
    <linearGradient
       id="linearGradient3236">
      <stop
         style="stop-color:#000000;stop-opacity:1"
         offset="0"
         id="stop3238" />
      <stop
         style="stop-color:#a2a2a2;stop-opacity:1"
         offset="1"
         id="stop3240" />
    </linearGradient>
    <linearGradient
       id="linearGradient3252">
      <stop
         style="stop-color:#2e3436;stop-opacity:1"
         offset="0"
         id="stop2445" />
      <stop
         style="stop-color:#a2a2a2;stop-opacity:1"
         offset="1"
         id="stop3256" />
    </linearGradient>
    <linearGradient
       id="linearGradient3351">
      <stop
         style="stop-color:#ffffff;stop-opacity:1"
         offset="0"
         id="stop3353" />
      <stop
         style="stop-color:#cacac3;stop-opacity:1"
         offset="1"
         id="stop3355" />
    </linearGradient>
    <radialGradient
       cx="17.787594"
       cy="9.7594652"
       r="6.7547455"
       fx="17.787594"
       fy="9.7594652"
       id="radialGradient2534"
       xlink:href="#linearGradient3224"
       gradientUnits="userSpaceOnUse"
       gradientTransform="matrix(2.2954423,2.8677388e-2,-1.3265418e-2,1.0618123,-22.728864,3.3475638)" />
    <linearGradient
       x1="22.727272"
       y1="8.930481"
       x2="18.609625"
       y2="9.015625"
       id="linearGradient2539"
       xlink:href="#linearGradient3224"
       gradientUnits="userSpaceOnUse"
       gradientTransform="matrix(1.2306207,0,0,1.2306207,-5.26646,2.5998378)" />
    <linearGradient
       x1="23.504011"
       y1="10.047544"
       x2="25.125"
       y2="10.421875"
       id="linearGradient2542"
       xlink:href="#linearGradient3351"
       gradientUnits="userSpaceOnUse"
       gradientTransform="matrix(1.2306207,0,0,0.8784086,-5.26646,7.9823108)" />
    <linearGradient
       x1="32.08556"
       y1="23.048128"
       x2="9"
       y2="22.887701"
       id="linearGradient2557"
       xlink:href="#linearGradient3252"
       gradientUnits="userSpaceOnUse"
       gradientTransform="matrix(1.2306207,0,0,-1.2306207,-5.26646,39.595369)" />
    <linearGradient
       x1="35.775402"
       y1="11.97861"
       x2="8.1283426"
       y2="11.176471"
       id="linearGradient2560"
       xlink:href="#linearGradient3236"
       gradientUnits="userSpaceOnUse"
       gradientTransform="matrix(1.2306207,0,0,0.8784086,-5.305747,7.9928956)" />
    <radialGradient
       cx="20.453125"
       cy="6.5601015"
       r="9.7253513"
       fx="20.453125"
       fy="6.5601015"
       id="radialGradient2563"
       xlink:href="#linearGradient3236"
       gradientUnits="userSpaceOnUse"
       gradientTransform="matrix(2.3268271,3.2294124e-8,0,0.5057918,-27.687306,14.738513)" />
    <radialGradient
       cx="19.625574"
       cy="9.2808027"
       r="6.5521412"
       fx="19.625574"
       fy="9.2808027"
       id="radialGradient3301"
       xlink:href="#linearGradient3288"
       gradientUnits="userSpaceOnUse"
       gradientTransform="matrix(1.001244,0,0,0.8932632,0.6006084,1.2766961)" />
  </defs>
  <g
     id="layer1">
    <path
       d="M 22.384049,7.060838 L 12.000687,7.0992949 C 8.627526,7.3221232 5.94854,10.402889 5.809126,14.329192 L 5.809126,18.52099 L 5.809126,18.597904 L 5.809126,18.751731 C 5.467249,19.185305 5.2541,19.639555 5.27073,20.097723 C 5.283001,20.435814 5.408978,20.746682 5.616842,21.059145 C 5.535138,20.995447 5.449284,20.930198 5.3861,20.866861 C 5.449941,21.03828 5.573632,21.199554 5.693756,21.3668 C 5.427046,21.749228 5.256079,22.155318 5.27073,22.558964 C 5.283001,22.897055 5.409782,23.20728 5.616842,23.520387 C 5.535138,23.456688 5.449284,23.39144 5.3861,23.328102 C 5.449941,23.499521 5.573632,23.660795 5.693756,23.828042 C 5.427046,24.210469 5.256079,24.616559 5.27073,25.020206 C 5.283001,25.358296 5.409782,25.668521 5.616842,25.981628 C 5.535138,25.91793 5.449284,25.852681 5.3861,25.789343 C 5.449941,25.960763 5.573632,26.122037 5.693756,26.289283 C 5.427046,26.671711 5.256079,27.077801 5.27073,27.481447 C 5.283001,27.819538 5.409782,28.129763 5.616842,28.442869 C 5.535138,28.379171 5.449284,28.313922 5.3861,28.250585 C 5.449941,28.422004 5.573632,28.583278 5.693756,28.750525 C 5.427046,29.132952 5.256079,29.539042 5.27073,29.942688 C 5.283001,30.280779 5.409782,30.591004 5.616842,30.904111 C 5.535138,30.840413 5.449284,30.775164 5.3861,30.711826 C 5.449941,30.883246 5.573632,31.04452 5.693756,31.211766 C 5.591369,31.358575 5.488591,31.523471 5.424557,31.673249 C 5.408644,31.709689 5.399717,31.751981 5.3861,31.788619 C 5.357683,31.869191 5.325479,31.937881 5.309187,32.019361 C 5.303809,32.043047 5.313453,32.072554 5.309187,32.096275 C 5.294057,32.194622 5.26711,32.304206 5.27073,32.40393 C 5.283001,32.742021 5.409782,33.052245 5.616842,33.365352 C 5.54583,33.302746 5.449287,33.236408 5.3861,33.173068 C 5.453646,33.354432 5.567475,33.53491 5.693756,33.711464 C 5.437521,34.08486 5.256558,34.474727 5.27073,34.865171 C 5.283001,35.203262 5.409782,35.513487 5.616842,35.826594 C 5.53591,35.763535 5.450626,35.69899 5.3861,35.634309 C 5.455391,35.82036 5.562139,35.991946 5.693756,36.172706 C 5.436726,36.547088 5.256559,36.935969 5.27073,37.326413 C 5.28458,37.708005 5.463796,38.05845 5.732213,38.403206 C 5.609697,38.300253 5.487622,38.197318 5.3861,38.09555 C 5.478248,38.342975 5.609025,38.588428 5.809126,38.826232 L 5.809126,39.441542 L 6.155238,39.441542 L 6.155238,39.518456 L 6.578264,39.518456 L 7.039747,39.518456 L 7.6166,39.518456 L 9.616359,39.518456 L 13.808161,39.518456 L 24.460721,39.518456 L 29.537032,39.518456 L 30.229256,39.518456 L 31.575247,39.518456 L 32.690497,39.518456 L 33.613463,39.518456 L 33.613463,39.441542 L 34.113402,39.441542 L 34.113402,38.326292 C 34.470194,37.889948 34.668389,37.447699 34.651799,36.9803 C 34.637575,36.579546 34.448902,36.1932 34.151859,35.826594 C 34.488478,35.397876 34.667961,34.974373 34.651799,34.519059 C 34.637575,34.118305 34.448902,33.731959 34.151859,33.365352 C 34.289201,33.186229 34.380338,33.011282 34.459514,32.826956 C 34.477366,32.785398 34.52164,32.753367 34.536428,32.711585 C 34.557958,32.657276 34.558845,32.612481 34.574885,32.557757 C 34.588696,32.505823 34.604345,32.456155 34.613342,32.40393 C 34.63392,32.293528 34.6558,32.170518 34.651799,32.057818 C 34.648319,31.959773 34.634815,31.845725 34.613342,31.750162 C 34.606085,31.721255 34.583819,31.701973 34.574885,31.673249 C 34.568256,31.649173 34.582616,31.620258 34.574885,31.596335 C 34.558578,31.550966 34.518163,31.525824 34.497971,31.480964 C 34.428392,31.311497 34.350084,31.143179 34.228773,30.981025 C 34.208927,30.954497 34.172998,30.930453 34.151859,30.904111 C 34.480194,30.479065 34.667795,30.047222 34.651799,29.596576 C 34.637524,29.19437 34.443449,28.806235 34.151859,28.442869 C 34.480194,28.017824 34.667795,27.585981 34.651799,27.135335 C 34.637524,26.733129 34.443449,26.344993 34.151859,25.981628 C 34.480194,25.556583 34.667795,25.124739 34.651799,24.674093 C 34.637524,24.271887 34.443449,23.883752 34.151859,23.520387 C 34.480194,23.095341 34.667795,22.663498 34.651799,22.212852 C 34.637524,21.810646 34.443449,21.422511 34.151859,21.059145 C 34.480194,20.6341 34.667795,20.202257 34.651799,19.751611 C 34.637006,19.334825 34.424666,18.934675 34.113402,18.559447 C 34.107638,18.552499 34.119255,18.527926 34.113402,18.52099 L 33.921118,18.328705 L 33.728833,18.136421 C 33.731499,18.108168 33.76729,18.087915 33.76729,18.059507 C 33.76729,17.886379 33.709609,17.725787 33.613463,17.559568 L 33.613463,17.290369 C 33.594608,17.34031 33.559591,17.394725 33.536549,17.444197 C 32.677412,16.253287 29.418283,15.267963 25.076032,14.829131 C 25.011136,14.732948 24.960661,14.649882 24.960661,14.559933 C 24.96066,14.233913 24.066921,13.964399 22.768618,13.790795 L 22.768618,12.060235 C 22.772468,12.050768 22.766625,12.031327 22.768618,12.021778 C 22.68161,11.695289 21.489188,11.444924 20.038178,11.444924 C 18.587168,11.444924 17.394746,11.695289 17.307738,12.021778 L 17.230825,12.021778 L 17.230825,13.790795 C 15.848304,13.961893 14.884955,14.22151 14.884954,14.559933 L 14.654213,14.829131 C 13.454314,14.953205 12.351011,15.129837 11.346919,15.329069 C 11.474628,12.625053 13.246606,10.460293 15.538721,10.175847 L 22.422506,10.175847 L 23.999239,9.5605363 L 24.037695,7.5992346 L 22.422506,7.1762087 L 22.384049,7.1762087 L 22.384049,7.060838 z "
       style="fill:#555753;fill-opacity:1;fill-rule:nonzero;stroke:none;stroke-width:0.2;stroke-linecap:round;stroke-linejoin:round;stroke-miterlimit:4;stroke-dasharray:none;stroke-opacity:1"
       id="path4226" />
    <path
       d="M 30.295166,10.957985 L 22.270109,11.974425 L 19.891183,19.18687 L 17.110473,12.643262 L 9,13.502933 L 15.306484,8.4423211 L 12.672861,1.7611826 L 19.351191,5.1771592 L 25.833998,0.18831751 L 23.654947,7.3601194 L 30.295166,10.957985 z "
       style="fill:#fce94f;fill-opacity:1;fill-rule:nonzero;stroke:none;stroke-width:0.64224052;stroke-linecap:round;stroke-linejoin:miter;stroke-miterlimit:4;stroke-opacity:1"
       id="path3255" />
    <path
       d="M 26.232162,10.349621 L 21.287685,10.97588 L 19.821959,15.419682 L 18.108682,11.387971 L 13.111578,11.917639 L 16.99719,8.7996461 L 15.374537,4.6831979 L 19.489255,6.7878824 L 23.483504,3.714109 L 22.140926,8.1328691 L 26.232162,10.349621 z "
       style="fill:url(#radialGradient3301);fill-opacity:1;fill-rule:nonzero;stroke:none;stroke-width:0.64224052;stroke-linecap:round;stroke-linejoin:miter;stroke-miterlimit:4;stroke-opacity:1"
       id="path3286" />
    <path
       d="M 19.922807,15.440854 C 26.495743,15.440854 31.871797,16.583858 31.871797,18.056555 C 31.871797,19.529253 26.495742,20.672258 19.922807,20.672258 C 13.349874,20.672258 7.935361,19.529253 7.935361,18.056555 C 7.935361,16.583858 13.349873,15.440854 19.922807,15.440854 z "
       style="fill:url(#radialGradient2563);fill-opacity:1;fill-rule:nonzero;stroke:none;stroke-width:1;stroke-linecap:round;stroke-linejoin:round;stroke-miterlimit:4;stroke-dasharray:none;stroke-opacity:1"
       id="path2217" />
    <path
       d="M 19.883525,14.58096 C 12.236829,14.58096 6.00058,16.135392 6.00058,18.067138 C 6.00058,19.998885 12.236829,21.580773 19.883525,21.580773 C 27.53022,21.580773 33.728006,19.998885 33.728008,18.067138 C 33.728008,16.135392 27.53022,14.58096 19.883525,14.58096 z M 19.883525,15.451437 C 26.456461,15.451437 31.832515,16.594441 31.832515,18.067138 C 31.832515,19.539837 26.456459,20.682841 19.883525,20.682841 C 13.310591,20.682841 7.896078,19.539837 7.896078,18.067138 C 7.896078,16.594441 13.31059,15.451437 19.883525,15.451437 z "
       style="fill:url(#linearGradient2560);fill-opacity:1;fill-rule:nonzero;stroke:none;stroke-width:1;stroke-linecap:round;stroke-linejoin:round;stroke-miterlimit:4;stroke-dasharray:none;stroke-opacity:1"
       id="path2186" />
    <path
       d="M 6.155238,17.290369 L 6.155238,17.636481 C 6.187812,17.570413 6.223558,17.509044 6.270609,17.444197 C 6.247535,17.394725 6.21255,17.34031 6.193695,17.290369 L 6.155238,17.290369 z M 33.613463,17.290369 C 33.594608,17.34031 33.559591,17.394725 33.536549,17.444197 C 33.565398,17.484186 33.590059,17.519106 33.613463,17.559568 L 33.613463,17.290369 z M 6.039868,18.097964 L 5.809126,18.52099 L 5.809126,39.441542 L 6.155238,39.441542 L 6.155238,39.518456 L 33.613463,39.518456 L 33.613463,39.441542 L 34.113402,39.441542 L 34.113402,18.52099 L 33.728833,18.136421 C 33.571033,19.808933 28.812467,21.180284 22.49942,21.482171 C 21.667404,21.521958 20.800142,21.559085 19.922807,21.559085 C 19.045473,21.559085 18.179107,21.521958 17.346195,21.482171 C 10.967631,21.177479 6.112204,19.791175 6.039868,18.097964 z "
       style="fill:url(#linearGradient2557);fill-opacity:1;fill-rule:nonzero;stroke:none;stroke-width:1;stroke-linecap:round;stroke-linejoin:round;stroke-miterlimit:4;stroke-dasharray:none;stroke-opacity:1"
       id="rect2196" />
    <g
       transform="matrix(1.2306207,0,0,1.2306207,-5.26646,2.5998378)"
       id="g3261">
      <path
         d="M 9.0610674,13.036385 C 9.025165,13.171498 9.0045709,13.30717 9.009556,13.444536 C 9.0893278,15.642394 14.493011,17.269941 21.079356,17.057417 C 26.430761,16.884741 30.91942,15.548123 32.372048,13.878885 C 31.781832,15.889371 26.779369,17.623932 20.642825,17.821942 C 14.056478,18.034466 8.6527989,16.406918 8.5730242,14.209061 C 8.5583546,13.804887 8.7384032,13.414877 9.0610674,13.036385 z "
         style="opacity:1;fill:#d3d7cf;fill-opacity:1;fill-rule:nonzero;stroke:none;stroke-width:1;stroke-linecap:round;stroke-linejoin:round;stroke-miterlimit:4;stroke-dasharray:none;stroke-opacity:1"
         id="path3234" />
      <path
         d="M 31.855936,12.79017 C 31.901445,12.922685 31.931721,13.056733 31.936597,13.194103 C 32.014613,15.392017 26.740005,17.360319 20.15349,17.568154 C 14.801948,17.73702 10.227715,16.422227 8.6587129,14.849413 C 9.3917468,16.817673 14.507146,18.496742 20.643846,18.303101 C 27.230362,18.095266 32.504966,16.126963 32.426953,13.92905 C 32.412607,13.524866 32.205003,13.147226 31.855936,12.79017 z "
         style="opacity:1;fill:#2e3436;fill-opacity:1;fill-rule:nonzero;stroke:none;stroke-width:1;stroke-linecap:round;stroke-linejoin:round;stroke-miterlimit:4;stroke-dasharray:none;stroke-opacity:1"
         id="path3184" />
    </g>
    <use
       transform="translate(0,2.4612414)"
       id="use3289"
       x="0"
       y="0"
       width="40"
       height="30"
       xlink:href="#g3261" />
    <use
       transform="translate(0,4.9224828)"
       id="use3291"
       x="0"
       y="0"
       width="40"
       height="30"
       xlink:href="#g3261" />
    <use
       transform="translate(0,7.3837242)"
       id="use3293"
       x="0"
       y="0"
       width="40"
       height="30"
       xlink:href="#g3261" />
    <use
       transform="translate(0,9.8449656)"
       id="use3295"
       x="0"
       y="0"
       width="40"
       height="30"
       xlink:href="#g3261" />
    <use
       transform="translate(0,12.306207)"
       id="use3297"
       x="0"
       y="0"
       width="40"
       height="30"
       xlink:href="#g3261" />
    <path
       d="M 5.88604,35.86505 C 5.488963,36.330831 5.252678,36.829028 5.27073,37.326413 C 5.300316,38.141541 5.959539,38.873586 7.039747,39.518456 L 9.616359,39.518456 C 7.293793,38.723357 5.854293,37.609401 5.809126,36.36499 C 5.802992,36.195945 5.841858,36.031323 5.88604,35.86505 z M 34.574885,36.903387 C 33.696269,37.913019 31.903209,38.828052 29.537032,39.518456 L 31.575247,39.518456 C 33.21971,38.757645 34.296706,37.850965 34.574885,36.903387 z "
       style="fill:#d3d7cf;fill-opacity:1;fill-rule:nonzero;stroke:none;stroke-width:1;stroke-linecap:round;stroke-linejoin:round;stroke-miterlimit:4;stroke-dasharray:none;stroke-opacity:1"
       id="path3305" />
    <path
       d="M 33.921118,35.557395 C 33.977122,35.72047 34.030488,35.888285 34.036489,36.057335 C 34.082092,37.342114 32.623137,38.563085 30.229256,39.518456 L 32.690497,39.518456 C 33.953038,38.745833 34.684004,37.887628 34.651799,36.9803 C 34.634146,36.482903 34.350687,35.996796 33.921118,35.557395 z M 5.3861,38.09555 C 5.570396,38.5904 5.979048,39.069931 6.578264,39.518456 L 7.6166,39.518456 C 6.664526,39.085095 5.887467,38.598135 5.3861,38.09555 z "
       style="fill:#2e3436;fill-opacity:1;fill-rule:nonzero;stroke:none;stroke-width:1;stroke-linecap:round;stroke-linejoin:round;stroke-miterlimit:4;stroke-dasharray:none;stroke-opacity:1"
       id="path3307" />
    <path
       d="M 5.884277,33.410128 C 5.840095,33.576401 5.814751,33.743362 5.820886,33.912407 C 5.919055,36.617137 12.568939,38.62003 20.674232,38.358493 C 27.259782,38.145995 32.783618,36.501125 34.571252,34.446926 C 33.84492,36.921072 27.688786,39.055659 20.137028,39.299334 C 12.031733,39.56087 5.381853,37.557976 5.283681,34.853248 C 5.265628,34.355863 5.4872,33.875908 5.884277,33.410128 z "
       style="fill:#d3d7cf;fill-opacity:1;fill-rule:nonzero;stroke:none;stroke-width:1;stroke-linecap:round;stroke-linejoin:round;stroke-miterlimit:4;stroke-dasharray:none;stroke-opacity:1"
       id="path3311" />
    <path
       d="M 33.921118,33.096154 C 33.977122,33.259228 34.030488,33.427043 34.036489,33.596094 C 34.132495,36.300892 27.64374,38.724293 19.538238,38.980059 C 12.95252,39.18787 7.316947,37.569847 5.3861,35.634309 C 6.017206,37.328885 9.314146,38.839538 13.808161,39.518456 L 24.460721,39.518456 C 30.412495,38.704363 34.729803,36.716706 34.651799,34.519059 C 34.634146,34.021662 34.350687,33.535554 33.921118,33.096154 z "
       style="fill:#2e3436;fill-opacity:1;fill-rule:nonzero;stroke:none;stroke-width:1;stroke-linecap:round;stroke-linejoin:round;stroke-miterlimit:4;stroke-dasharray:none;stroke-opacity:1"
       id="path3313" />
    <path
       d="M 19.922807,13.609616 C 17.143841,13.609616 14.884955,14.03882 14.884954,14.570375 L 14.115816,15.39388 L 14.115816,20.334927 C 15.846711,20.542128 17.814749,20.664331 19.922807,20.664331 C 22.00073,20.664331 23.944716,20.536613 25.652885,20.334927 L 25.652885,15.39388 C 25.652884,15.39388 24.96066,14.930173 24.960661,14.570375 C 24.96066,14.03882 22.701773,13.609616 19.922807,13.609616 z "
       style="fill:url(#linearGradient2542);fill-opacity:1;fill-rule:nonzero;stroke:none;stroke-width:1;stroke-linecap:round;stroke-linejoin:round;stroke-miterlimit:4;stroke-dasharray:none;stroke-opacity:1"
       id="path3330" />
    <path
       d="M 17.230825,12.021778 L 17.230825,14.675304 L 17.307738,14.675304 C 17.304347,14.688051 17.307738,14.700819 17.307738,14.71376 C 17.307738,15.05886 18.530635,15.367525 20.038178,15.367525 C 21.545722,15.367525 22.768618,15.05886 22.768618,14.71376 C 22.768618,14.700819 22.772009,14.688051 22.768618,14.675304 L 22.768618,12.021778 C 22.699552,12.352836 21.501382,12.637088 20.038178,12.637088 C 18.574974,12.637088 17.376805,12.352835 17.307738,12.021778 L 17.230825,12.021778 z "
       style="fill:url(#linearGradient2539);fill-opacity:1;fill-rule:nonzero;stroke:none;stroke-width:1;stroke-linecap:round;stroke-linejoin:round;stroke-miterlimit:4;stroke-dasharray:none;stroke-opacity:1"
       id="path3196" />
    <path
       d="M 22.780748 5.0267382 A 2.2192514 0.64171124 0 1 1  18.342245,5.0267382 A 2.2192514 0.64171124 0 1 1  22.780748 5.0267382 z"
       transform="matrix(1.2306207,0,0,0.9742414,-5.26646,7.1724378)"
       style="fill:#555753;fill-opacity:1;fill-rule:nonzero;stroke:none;stroke-width:1;stroke-linecap:round;stroke-linejoin:round;stroke-miterlimit:4;stroke-dasharray:none;stroke-opacity:1"
       id="path3198" />
    <path
       d="M 14.318973,7.3379887 C 10.945812,7.5608169 8.140582,10.364432 8.001169,14.290735 L 8.001169,18.251792 C 8.050731,18.401404 8.151795,18.533943 8.308825,18.674818 L 8.347281,18.713274 L 9.462532,19.328585 C 10.007523,19.545343 10.671235,19.732753 11.46229,19.905438 C 11.440475,18.218198 11.345856,15.435963 11.346919,15.405982 C 11.447273,12.573486 13.341367,10.298142 15.769463,10.13739 L 22.422506,10.175847 L 23.999239,9.5605363 L 24.037695,7.5992346 L 22.422506,7.1762087 L 14.318973,7.3379887 z "
       style="fill:#555753;fill-opacity:1;fill-rule:nonzero;stroke:none;stroke-width:1;stroke-linecap:round;stroke-linejoin:round;stroke-miterlimit:4;stroke-dasharray:none;stroke-opacity:1"
       id="path3231" />
    <rect
       width="0.34772986"
       height="2.5884016"
       ry="0.2"
       x="19.899326"
       y="9.5013199"
       style="opacity:1;fill:#eeeeec;fill-opacity:1;fill-rule:nonzero;stroke:#59a6ff;stroke-width:0.2;stroke-linecap:round;stroke-linejoin:round;stroke-miterlimit:4;stroke-dasharray:none;stroke-opacity:0.79187814"
       id="rect3303" />
    <path
       d="M 22.397405,7.0491582 L 11.988352,7.085248 C 8.615191,7.3080762 5.94854,10.413003 5.809126,14.339306 L 5.809126,18.597904 C 5.809126,18.597904 6.762944,19.134437 7.590519,19.229119 C 8.418094,19.323801 9.119426,18.976633 9.119426,18.976633 C 9.119224,17.436854 9.118236,15.491655 9.119426,15.458089 C 9.219779,12.625593 11.141844,10.349726 13.56994,10.188974 L 22.434186,10.188974 L 22.397405,7.0491582 z "
       style="fill:url(#radialGradient2534);fill-opacity:1;fill-rule:nonzero;stroke:none;stroke-width:1;stroke-linecap:round;stroke-linejoin:round;stroke-miterlimit:4;stroke-dasharray:none;stroke-opacity:1"
       id="rect3214" />
    <path
       d="M 10.956528,1.0198748 L 10.956528,-1.7748336 L 10.956528,1.0198748 z "
       style="fill:#ffffff;fill-opacity:0.75688076;fill-rule:nonzero;stroke:none;stroke-width:0.5;stroke-linecap:round;stroke-linejoin:round;stroke-miterlimit:4;stroke-dasharray:none;stroke-dashoffset:4;stroke-opacity:1"
       id="path2276" />
    <rect
       width="40.001965"
       height="10.004759"
       x="-0.0019644466"
       y="30"
       style="opacity:0.61162792;fill:#555753;fill-opacity:1;fill-rule:nonzero;stroke:none;stroke-width:0.69999999;stroke-linecap:round;stroke-linejoin:miter;stroke-miterlimit:4;stroke-dasharray:none;stroke-opacity:1"
       id="rect1951" />
    <text
       x="12.231838"
       y="39.168156"
       style="font-size:12px;font-style:normal;font-weight:normal;fill:#eeeeec;fill-opacity:1;stroke:none;stroke-width:1px;stroke-linecap:butt;stroke-linejoin:miter;stroke-opacity:1;font-family:Bitstream Vera Sans"
       id="text2840"
       xml:space="preserve"><tspan
         x="12.231838"
         y="39.168156"
         id="tspan2842">Ba</tspan></text>
  </g>
</svg>
