<?xml version="1.0" encoding="UTF-8" standalone="no"?>
<!-- Created with Inkscape (http://www.inkscape.org/) -->
<svg
   xmlns:dc="http://purl.org/dc/elements/1.1/"
   xmlns:cc="http://web.resource.org/cc/"
   xmlns:rdf="http://www.w3.org/1999/02/22-rdf-syntax-ns#"
   xmlns:svg="http://www.w3.org/2000/svg"
   xmlns="http://www.w3.org/2000/svg"
   xmlns:xlink="http://www.w3.org/1999/xlink"
   xmlns:sodipodi="http://sodipodi.sourceforge.net/DTD/sodipodi-0.dtd"
   xmlns:inkscape="http://www.inkscape.org/namespaces/inkscape"
   width="40"
   height="30"
   id="svg2160"
   sodipodi:version="0.32"
   inkscape:version="0.45"
   version="1.0"
   sodipodi:docbase="/home/jra/Desktop"
   sodipodi:docname="tennplugg10.svg"
   inkscape:output_extension="org.inkscape.output.svg.inkscape"
   sodipodi:modified="true">
  <defs
     id="defs2162">
    <linearGradient
       id="linearGradient3351">
      <stop
         style="stop-color:#ffffff;stop-opacity:1;"
         offset="0"
         id="stop3353" />
      <stop
         style="stop-color:#cacac3;stop-opacity:1;"
         offset="1"
         id="stop3355" />
    </linearGradient>
    <linearGradient
       id="linearGradient3252">
      <stop
         style="stop-color:#2e3436;stop-opacity:1;"
         offset="0"
         id="stop3254" />
      <stop
         style="stop-color:#a2a2a2;stop-opacity:1;"
         offset="1"
         id="stop3256" />
    </linearGradient>
    <linearGradient
       id="linearGradient3236">
      <stop
         style="stop-color:#000000;stop-opacity:1;"
         offset="0"
         id="stop3238" />
      <stop
         style="stop-color:#a2a2a2;stop-opacity:1;"
         offset="1"
         id="stop3240" />
    </linearGradient>
    <linearGradient
       id="linearGradient3224">
      <stop
         style="stop-color:#000000;stop-opacity:1;"
         offset="0"
         id="stop3226" />
      <stop
         style="stop-color:#ffffff;stop-opacity:1;"
         offset="1"
         id="stop3228" />
    </linearGradient>
    <linearGradient
       id="linearGradient3211">
      <stop
         style="stop-color:#555753;stop-opacity:1;"
         offset="0"
         id="stop3213" />
      <stop
         style="stop-color:#0a0a0a;stop-opacity:1;"
         offset="1"
         id="stop3215" />
    </linearGradient>
    <linearGradient
       id="linearGradient3195">
      <stop
         style="stop-color:#c17d11;stop-opacity:1;"
         offset="0"
         id="stop3197" />
      <stop
         style="stop-color:#c17d11;stop-opacity:0;"
         offset="1"
         id="stop3199" />
    </linearGradient>
    <linearGradient
       inkscape:collect="always"
       xlink:href="#linearGradient3211"
       id="linearGradient3217"
       x1="31.925133"
       y1="21.44385"
       x2="8.7165775"
       y2="21.390375"
       gradientUnits="userSpaceOnUse" />
    <linearGradient
       inkscape:collect="always"
       xlink:href="#linearGradient3236"
       id="linearGradient3242"
       x1="35.775402"
       y1="11.97861"
       x2="8.1283426"
       y2="11.176471"
       gradientUnits="userSpaceOnUse"
       gradientTransform="matrix(1,0,0,0.7137931,-3.1924834e-2,3.9068939)" />
    <linearGradient
       inkscape:collect="always"
       xlink:href="#linearGradient3252"
       id="linearGradient3258"
       x1="32.08556"
       y1="23.048128"
       x2="9"
       y2="22.887701"
       gradientUnits="userSpaceOnUse"
       gradientTransform="matrix(1,0,0,-1,0,29.587003)" />
    <linearGradient
       inkscape:collect="always"
       xlink:href="#linearGradient3236"
       id="linearGradient3339"
       gradientUnits="userSpaceOnUse"
       x1="35.775402"
       y1="11.97861"
       x2="8.1283426"
       y2="11.176471"
       gradientTransform="matrix(1,0,0,-1,0,30)" />
    <linearGradient
       inkscape:collect="always"
       xlink:href="#linearGradient3351"
       id="linearGradient3357"
       x1="23.504011"
       y1="10.047544"
       x2="25.125"
       y2="10.421875"
       gradientUnits="userSpaceOnUse"
       gradientTransform="matrix(1,0,0,0.7137931,0,3.8982927)" />
    <radialGradient
       inkscape:collect="always"
       xlink:href="#linearGradient3236"
       id="radialGradient3192"
       cx="20.453125"
       cy="6.5601015"
       fx="20.453125"
       fy="6.5601015"
       r="9.7253513"
       gradientTransform="matrix(1.8907752,2.6242143e-8,0,0.4110054,-18.219136,9.3883693)"
       gradientUnits="userSpaceOnUse" />
    <linearGradient
       inkscape:collect="always"
       xlink:href="#linearGradient3224"
       id="linearGradient3212"
       x1="22.727272"
       y1="8.930481"
       x2="18.609625"
       y2="9.015625"
       gradientUnits="userSpaceOnUse"
       gradientTransform="translate(0,-0.4754944)" />
    <radialGradient
       inkscape:collect="always"
       xlink:href="#linearGradient3224"
       id="radialGradient3249"
       cx="17.787594"
       cy="9.7594652"
       fx="17.787594"
       fy="9.7594652"
       r="6.7547455"
       gradientTransform="matrix(1.865272,2.330319e-2,-1.0779453e-2,0.8628266,-14.189916,0.1321063)"
       gradientUnits="userSpaceOnUse" />
    <radialGradient
       inkscape:collect="always"
       xlink:href="#linearGradient3236"
       id="radialGradient4266"
       gradientUnits="userSpaceOnUse"
       gradientTransform="matrix(1.8907752,2.6242143e-8,0,0.4110054,-50.219136,9.8638636)"
       cx="20.453125"
       cy="6.5601015"
       fx="20.453125"
       fy="6.5601015"
       r="9.7253513" />
    <linearGradient
       inkscape:collect="always"
       xlink:href="#linearGradient3236"
       id="linearGradient4268"
       gradientUnits="userSpaceOnUse"
       gradientTransform="matrix(1,0,0,0.7137931,-32,4.373787)"
       x1="35.775402"
       y1="11.97861"
       x2="8.1283426"
       y2="11.176471" />
    <linearGradient
       inkscape:collect="always"
       xlink:href="#linearGradient3252"
       id="linearGradient4270"
       gradientUnits="userSpaceOnUse"
       gradientTransform="matrix(1,0,0,-1,-32,30.0625)"
       x1="32.08556"
       y1="23.048128"
       x2="9"
       y2="22.887701" />
    <linearGradient
       inkscape:collect="always"
       xlink:href="#linearGradient3351"
       id="linearGradient4272"
       gradientUnits="userSpaceOnUse"
       gradientTransform="matrix(1,0,0,0.7137931,-32,4.373787)"
       x1="23.504011"
       y1="10.047544"
       x2="25.125"
       y2="10.421875" />
    <linearGradient
       inkscape:collect="always"
       xlink:href="#linearGradient3224"
       id="linearGradient4274"
       gradientUnits="userSpaceOnUse"
       x1="22.727272"
       y1="8.930481"
       x2="18.609625"
       y2="9.015625"
       gradientTransform="translate(-32,0)" />
    <radialGradient
       inkscape:collect="always"
       xlink:href="#linearGradient3224"
       id="radialGradient4276"
       gradientUnits="userSpaceOnUse"
       gradientTransform="matrix(1.865272,2.330319e-2,-1.0779453e-2,0.8628266,-46.189916,0.6076006)"
       cx="17.787594"
       cy="9.7594652"
       fx="17.787594"
       fy="9.7594652"
       r="6.7547455" />
    <radialGradient
       inkscape:collect="always"
       xlink:href="#linearGradient3236"
       id="radialGradient4302"
       gradientUnits="userSpaceOnUse"
       gradientTransform="matrix(1.8907752,2.6242143e-8,0,0.4110054,-50.219136,9.8638636)"
       cx="20.453125"
       cy="6.5601015"
       fx="20.453125"
       fy="6.5601015"
       r="9.7253513" />
    <linearGradient
       inkscape:collect="always"
       xlink:href="#linearGradient3236"
       id="linearGradient4304"
       gradientUnits="userSpaceOnUse"
       gradientTransform="matrix(1,0,0,0.7137931,-32,4.373787)"
       x1="35.775402"
       y1="11.97861"
       x2="8.1283426"
       y2="11.176471" />
    <linearGradient
       inkscape:collect="always"
       xlink:href="#linearGradient3252"
       id="linearGradient4306"
       gradientUnits="userSpaceOnUse"
       gradientTransform="matrix(1,0,0,-1,-32,30.0625)"
       x1="32.08556"
       y1="23.048128"
       x2="9"
       y2="22.887701" />
    <linearGradient
       inkscape:collect="always"
       xlink:href="#linearGradient3351"
       id="linearGradient4308"
       gradientUnits="userSpaceOnUse"
       gradientTransform="matrix(1,0,0,0.7137931,-32,4.373787)"
       x1="23.504011"
       y1="10.047544"
       x2="25.125"
       y2="10.421875" />
    <linearGradient
       inkscape:collect="always"
       xlink:href="#linearGradient3224"
       id="linearGradient4310"
       gradientUnits="userSpaceOnUse"
       gradientTransform="translate(-32,0)"
       x1="22.727272"
       y1="8.930481"
       x2="18.609625"
       y2="9.015625" />
    <radialGradient
       inkscape:collect="always"
       xlink:href="#linearGradient3224"
       id="radialGradient4312"
       gradientUnits="userSpaceOnUse"
       gradientTransform="matrix(1.865272,2.330319e-2,-1.0779453e-2,0.8628266,-46.189916,0.6076006)"
       cx="17.787594"
       cy="9.7594652"
       fx="17.787594"
       fy="9.7594652"
       r="6.7547455" />
    <radialGradient
       inkscape:collect="always"
       xlink:href="#linearGradient3224"
       id="radialGradient4315"
       gradientUnits="userSpaceOnUse"
       gradientTransform="matrix(1.865272,2.330319e-2,-1.0779453e-2,0.8628266,-50.189916,0.6076006)"
       cx="17.787594"
       cy="9.7594652"
       fx="17.787594"
       fy="9.7594652"
       r="6.7547455" />
    <linearGradient
       inkscape:collect="always"
       xlink:href="#linearGradient3224"
       id="linearGradient4320"
       gradientUnits="userSpaceOnUse"
       gradientTransform="translate(-36,0)"
       x1="22.727272"
       y1="8.930481"
       x2="18.609625"
       y2="9.015625" />
    <linearGradient
       inkscape:collect="always"
       xlink:href="#linearGradient3351"
       id="linearGradient4323"
       gradientUnits="userSpaceOnUse"
       gradientTransform="matrix(1,0,0,0.7137931,-36,4.373787)"
       x1="23.504011"
       y1="10.047544"
       x2="25.125"
       y2="10.421875" />
    <linearGradient
       inkscape:collect="always"
       xlink:href="#linearGradient3252"
       id="linearGradient4338"
       gradientUnits="userSpaceOnUse"
       gradientTransform="translate(-36,-6.25e-2)"
       x1="32.08556"
       y1="23.048128"
       x2="9"
       y2="22.887701" />
    <linearGradient
       inkscape:collect="always"
       xlink:href="#linearGradient3236"
       id="linearGradient4341"
       gradientUnits="userSpaceOnUse"
       gradientTransform="matrix(1,0,0,-0.7137931,-36,25.626213)"
       x1="35.775402"
       y1="11.97861"
       x2="8.1283426"
       y2="11.176471" />
    <radialGradient
       inkscape:collect="always"
       xlink:href="#linearGradient3236"
       id="radialGradient4344"
       gradientUnits="userSpaceOnUse"
       gradientTransform="matrix(1.8907752,-2.6242143e-8,0,-0.4110054,-54.219136,20.136136)"
       cx="20.453125"
       cy="6.5601015"
       fx="20.453125"
       fy="6.5601015"
       r="9.7253513" />
    <linearGradient
       inkscape:collect="always"
       xlink:href="#linearGradient3236"
       id="linearGradient4352"
       gradientUnits="userSpaceOnUse"
       gradientTransform="matrix(1,0,0,0.7137931,-36,4.373787)"
       x1="35.775402"
       y1="11.97861"
       x2="8.1283426"
       y2="11.176471" />
    <linearGradient
       inkscape:collect="always"
       xlink:href="#linearGradient3236"
       id="linearGradient4355"
       gradientUnits="userSpaceOnUse"
       gradientTransform="matrix(1,0,0,-0.7137931,-36,25.626213)"
       x1="35.775402"
       y1="11.97861"
       x2="8.1283426"
       y2="11.176471" />
    <linearGradient
       inkscape:collect="always"
       xlink:href="#linearGradient3236"
       id="linearGradient4358"
       gradientUnits="userSpaceOnUse"
       gradientTransform="matrix(1,0,0,0.7137931,-36,4.373787)"
       x1="35.775402"
       y1="11.97861"
       x2="8.1283426"
       y2="11.176471" />
    <linearGradient
       inkscape:collect="always"
       xlink:href="#linearGradient3236"
       id="linearGradient4361"
       gradientUnits="userSpaceOnUse"
       gradientTransform="matrix(1,0,0,-0.7137931,-36,25.626213)"
       x1="35.775402"
       y1="11.97861"
       x2="8.1283426"
       y2="11.176471" />
    <linearGradient
       inkscape:collect="always"
       xlink:href="#linearGradient3236"
       id="linearGradient4400"
       gradientUnits="userSpaceOnUse"
       gradientTransform="matrix(1,0,0,0.7137931,-36,4.373787)"
       x1="35.775402"
       y1="11.97861"
       x2="8.1283426"
       y2="11.176471" />
    <linearGradient
       inkscape:collect="always"
       xlink:href="#linearGradient3236"
       id="linearGradient4406"
       gradientUnits="userSpaceOnUse"
       gradientTransform="matrix(1,0,0,-0.7137931,-36,25.626213)"
       x1="35.775402"
       y1="11.97861"
       x2="8.1283426"
       y2="11.176471" />
    <linearGradient
       inkscape:collect="always"
       xlink:href="#linearGradient3236"
       id="linearGradient4411"
       gradientUnits="userSpaceOnUse"
       gradientTransform="matrix(1,0,0,0.7137931,-36,4.373787)"
       x1="35.775402"
       y1="11.97861"
       x2="8.1283426"
       y2="11.176471" />
    <linearGradient
       inkscape:collect="always"
       xlink:href="#linearGradient3236"
       id="linearGradient4414"
       gradientUnits="userSpaceOnUse"
       gradientTransform="matrix(1,0,0,-0.7137931,-36,25.626213)"
       x1="35.775402"
       y1="11.97861"
       x2="8.1283426"
       y2="11.176471" />
    <linearGradient
       inkscape:collect="always"
       xlink:href="#linearGradient3236"
       id="linearGradient4425"
       gradientUnits="userSpaceOnUse"
       gradientTransform="matrix(1,0,0,0.7137931,-36,4.373787)"
       x1="35.775402"
       y1="11.97861"
       x2="8.1283426"
       y2="11.176471" />
    <linearGradient
       inkscape:collect="always"
       xlink:href="#linearGradient3236"
       id="linearGradient4428"
       gradientUnits="userSpaceOnUse"
       gradientTransform="matrix(1,0,0,-0.7137931,-36,25.626213)"
       x1="35.775402"
       y1="11.97861"
       x2="8.1283426"
       y2="11.176471" />
    <linearGradient
       inkscape:collect="always"
       xlink:href="#linearGradient3236"
       id="linearGradient4431"
       gradientUnits="userSpaceOnUse"
       gradientTransform="matrix(1,0,0,0.7137931,-36,4.373787)"
       x1="35.775402"
       y1="11.97861"
       x2="8.1283426"
       y2="11.176471" />
    <linearGradient
       inkscape:collect="always"
       xlink:href="#linearGradient3236"
       id="linearGradient4434"
       gradientUnits="userSpaceOnUse"
       gradientTransform="matrix(1,0,0,-0.7137931,-36,25.626213)"
       x1="35.775402"
       y1="11.97861"
       x2="8.1283426"
       y2="11.176471" />
    <linearGradient
       inkscape:collect="always"
       xlink:href="#linearGradient3236"
       id="linearGradient4437"
       gradientUnits="userSpaceOnUse"
       gradientTransform="matrix(1,0,0,0.7137931,-36,4.373787)"
       x1="35.775402"
       y1="11.97861"
       x2="8.1283426"
       y2="11.176471" />
    <linearGradient
       inkscape:collect="always"
       xlink:href="#linearGradient3236"
       id="linearGradient4440"
       gradientUnits="userSpaceOnUse"
       gradientTransform="matrix(1,0,0,-0.7137931,-36,25.626213)"
       x1="35.775402"
       y1="11.97861"
       x2="8.1283426"
       y2="11.176471" />
    <linearGradient
       inkscape:collect="always"
       xlink:href="#linearGradient3236"
       id="linearGradient4443"
       gradientUnits="userSpaceOnUse"
       gradientTransform="matrix(1,0,0,0.7137931,-36,4.373787)"
       x1="35.775402"
       y1="11.97861"
       x2="8.1283426"
       y2="11.176471" />
    <linearGradient
       inkscape:collect="always"
       xlink:href="#linearGradient3236"
       id="linearGradient4446"
       gradientUnits="userSpaceOnUse"
       gradientTransform="matrix(1,0,0,-0.7137931,-36,25.626213)"
       x1="35.775402"
       y1="11.97861"
       x2="8.1283426"
       y2="11.176471" />
    <linearGradient
       inkscape:collect="always"
       xlink:href="#linearGradient3236"
       id="linearGradient4451"
       gradientUnits="userSpaceOnUse"
       gradientTransform="matrix(1,0,0,0.7137931,-36,4.373787)"
       x1="35.775402"
       y1="11.97861"
       x2="8.1283426"
       y2="11.176471" />
    <linearGradient
       inkscape:collect="always"
       xlink:href="#linearGradient3236"
       id="linearGradient4454"
       gradientUnits="userSpaceOnUse"
       gradientTransform="matrix(1,0,0,-0.7137931,-36,25.626213)"
       x1="35.775402"
       y1="11.97861"
       x2="8.1283426"
       y2="11.176471" />
  </defs>
  <sodipodi:namedview
     id="base"
     pagecolor="#ffffff"
     bordercolor="#666666"
     borderopacity="1.0"
     inkscape:pageopacity="0.0"
     inkscape:pageshadow="2"
     inkscape:zoom="18.92766"
     inkscape:cx="20.500039"
     inkscape:cy="14.545679"
     inkscape:current-layer="layer1"
     showgrid="true"
     inkscape:grid-bbox="true"
     inkscape:document-units="px"
     width="40px"
     height="30px"
     gridempspacing="2"
     inkscape:window-width="1230"
     inkscape:window-height="782"
     inkscape:window-x="46"
     inkscape:window-y="128" />
  <metadata
     id="metadata2165">
    <rdf:RDF>
      <cc:Work
         rdf:about="">
        <dc:format>image/svg+xml</dc:format>
        <dc:type
           rdf:resource="http://purl.org/dc/dcmitype/StillImage" />
        <dc:creator>
          <cc:Agent>
            <dc:title>Jarle Akselsen</dc:title>
          </cc:Agent>
        </dc:creator>
        <cc:license
           rdf:resource="http://creativecommons.org/licenses/GPL/2.0/" />
      </cc:Work>
      <cc:License
         rdf:about="http://creativecommons.org/licenses/GPL/2.0/">
        <cc:permits
           rdf:resource="http://web.resource.org/cc/Reproduction" />
        <cc:permits
           rdf:resource="http://web.resource.org/cc/Distribution" />
        <cc:requires
           rdf:resource="http://web.resource.org/cc/Notice" />
        <cc:permits
           rdf:resource="http://web.resource.org/cc/DerivativeWorks" />
        <cc:requires
           rdf:resource="http://web.resource.org/cc/ShareAlike" />
        <cc:requires
           rdf:resource="http://web.resource.org/cc/SourceCode" />
      </cc:License>
    </rdf:RDF>
  </metadata>
  <g
     id="layer1"
     inkscape:label="Layer 1"
     inkscape:groupmode="layer">
    <path
       sodipodi:type="star"
       style="opacity:1;fill:#fce94f;fill-opacity:1;fill-rule:nonzero;stroke:#a40000;stroke-width:0.99325413;stroke-linecap:round;stroke-linejoin:miter;stroke-miterlimit:4;stroke-dasharray:none;stroke-opacity:1"
       id="path3255"
       sodipodi:sides="5"
       sodipodi:cx="-32.75"
       sodipodi:cy="-5"
       sodipodi:r1="5.8962383"
       sodipodi:r2="2.3124964"
       sodipodi:arg1="0.55859931"
       sodipodi:arg2="1.1757145"
       inkscape:flatsided="false"
       inkscape:rounded="0"
       inkscape:randomized="0"
       d="M -27.75,-1.875 L -31.859958,-2.8656466 L -34.176967,0.72096081 L -34.504853,-3.4939681 L -38.631914,-4.5892518 L -34.724601,-6.2035745 L -34.958256,-10.467104 L -32.215518,-7.2498819 L -28.232863,-8.7896046 L -30.445071,-5.186929 L -27.75,-1.875 z "
       transform="matrix(1.2351809,-3.8078407e-2,2.8476753e-2,1.0683062,61.758947,11.546637)" />
    <path
       sodipodi:nodetypes="csssc"
       id="path2217"
       d="M 20.46875,9.9590903 C 25.809905,9.9590903 30.178476,10.887893 30.178476,12.084604 C 30.178476,13.281316 25.809904,14.210119 20.46875,14.210119 C 15.127597,14.210119 10.727774,13.281316 10.727774,12.084604 C 10.727774,10.887893 15.127596,9.9590903 20.46875,9.9590903 z "
       style="opacity:1;fill:url(#radialGradient3192);fill-opacity:1;fill-rule:nonzero;stroke:none;stroke-width:1;stroke-linecap:round;stroke-linejoin:round;stroke-miterlimit:4;stroke-dasharray:none;stroke-opacity:1" />
    <path
       style="opacity:1;fill:url(#linearGradient3242);fill-opacity:1;fill-rule:nonzero;stroke:none;stroke-width:1;stroke-linecap:round;stroke-linejoin:round;stroke-miterlimit:4;stroke-dasharray:none;stroke-opacity:1"
       d="M 20.436829,9.2603422 C 14.223139,9.2603422 9.1555751,10.523471 9.1555751,12.093204 C 9.1555751,13.662938 14.223139,14.948377 20.436829,14.948377 C 26.650519,14.948377 31.686828,13.662938 31.686829,12.093204 C 31.686829,10.523471 26.650519,9.2603422 20.436829,9.2603422 z M 20.436829,9.9676903 C 25.777984,9.9676903 30.146555,10.896493 30.146555,12.093204 C 30.146555,13.289916 25.777983,14.218719 20.436829,14.218719 C 15.095676,14.218719 10.695853,13.289916 10.695853,12.093204 C 10.695853,10.896493 15.095675,9.9676903 20.436829,9.9676903 z "
       id="path2186"
       sodipodi:nodetypes="csssccsssc" />
    <path
       style="opacity:1;fill:url(#linearGradient3258);fill-opacity:1;fill-rule:nonzero;stroke:none;stroke-width:1;stroke-linecap:round;stroke-linejoin:round;stroke-miterlimit:4;stroke-dasharray:none;stroke-opacity:1"
       d="M 9.28125,11.462003 L 9.28125,11.743253 C 9.3077195,11.689566 9.3367661,11.639698 9.375,11.587003 C 9.3562497,11.546802 9.3278214,11.502585 9.3125,11.462003 L 9.28125,11.462003 z M 31.59375,11.462003 C 31.578429,11.502585 31.549974,11.546802 31.53125,11.587003 C 31.554693,11.619498 31.574732,11.647874 31.59375,11.680753 L 31.59375,11.462003 z M 9.1875,12.118253 L 9,12.462003 L 9,29.462003 L 9.28125,29.462003 L 9.28125,29.524503 L 31.59375,29.524503 L 31.59375,29.462003 L 32,29.462003 L 32,12.462003 L 31.6875,12.149503 C 31.559272,13.508583 27.69247,14.62294 22.5625,14.868253 C 21.886406,14.900584 21.18167,14.930753 20.46875,14.930753 C 19.75583,14.930753 19.051822,14.900584 18.375,14.868253 C 13.191791,14.620661 9.2462806,13.494153 9.1875,12.118253 z "
       id="rect2196" />
    <g
       id="g3261"
       transform="translate(0,-0.4754944)">
      <path
         style="opacity:1;fill:#d3d7cf;fill-opacity:1;fill-rule:nonzero;stroke:none;stroke-width:1;stroke-linecap:round;stroke-linejoin:round;stroke-miterlimit:4;stroke-dasharray:none;stroke-opacity:1"
         d="M 9.0610674,13.036385 C 9.025165,13.171498 9.0045709,13.30717 9.009556,13.444536 C 9.0893278,15.642394 14.493011,17.269941 21.079356,17.057417 C 26.430761,16.884741 30.91942,15.548123 32.372048,13.878885 C 31.781832,15.889371 26.779369,17.623932 20.642825,17.821942 C 14.056478,18.034466 8.6527989,16.406918 8.5730242,14.209061 C 8.5583546,13.804887 8.7384032,13.414877 9.0610674,13.036385 z "
         id="path3234" />
      <path
         sodipodi:nodetypes="csscssc"
         id="path3184"
         d="M 31.855936,12.79017 C 31.901445,12.922685 31.931721,13.056733 31.936597,13.194103 C 32.014613,15.392017 26.740005,17.360319 20.15349,17.568154 C 14.801948,17.73702 10.227715,16.422227 8.6587129,14.849413 C 9.3917468,16.817673 14.507146,18.496742 20.643846,18.303101 C 27.230362,18.095266 32.504966,16.126963 32.426953,13.92905 C 32.412607,13.524866 32.205003,13.147226 31.855936,12.79017 z "
         style="opacity:1;fill:#2e3436;fill-opacity:1;fill-rule:nonzero;stroke:none;stroke-width:1;stroke-linecap:round;stroke-linejoin:round;stroke-miterlimit:4;stroke-dasharray:none;stroke-opacity:1" />
    </g>
    <use
       x="0"
       y="0"
       xlink:href="#g3261"
       id="use3289"
       transform="translate(0,2)"
       width="40"
       height="30" />
    <use
       x="0"
       y="0"
       xlink:href="#g3261"
       id="use3291"
       transform="translate(0,4)"
       width="40"
       height="30" />
    <use
       x="0"
       y="0"
       xlink:href="#g3261"
       id="use3293"
       transform="translate(0,6)"
       width="40"
       height="30" />
    <use
       x="0"
       y="0"
       xlink:href="#g3261"
       id="use3295"
       transform="translate(0,8)"
       width="40"
       height="30" />
    <use
       x="0"
       y="0"
       xlink:href="#g3261"
       id="use3297"
       transform="translate(0,10)"
       width="40"
       height="30" />
    <path
       style="fill:#d3d7cf;fill-opacity:1;fill-rule:nonzero;stroke:none;stroke-width:1;stroke-linecap:round;stroke-linejoin:round;stroke-miterlimit:4;stroke-dasharray:none;stroke-opacity:1"
       d="M 9.0625,26.555753 C 8.7398358,26.934245 8.5478308,27.339079 8.5625,27.743253 C 8.5865419,28.405625 9.1222247,29.000483 10,29.524503 L 12.09375,29.524503 C 10.206437,28.878407 9.0367021,27.973209 9,26.962003 C 8.9950149,26.824637 9.0265974,26.690866 9.0625,26.555753 z M 32.375,27.399503 C 31.661038,28.219928 30.204001,28.963482 28.28125,29.524503 L 29.9375,29.524503 C 31.273787,28.90627 32.148952,28.169503 32.375,27.399503 z "
       id="path3305" />
    <path
       style="fill:#2e3436;fill-opacity:1;fill-rule:nonzero;stroke:none;stroke-width:1;stroke-linecap:round;stroke-linejoin:round;stroke-miterlimit:4;stroke-dasharray:none;stroke-opacity:1"
       d="M 31.84375,26.305753 C 31.889259,26.438267 31.932624,26.574633 31.9375,26.712003 C 31.974557,27.756012 30.789013,28.748171 28.84375,29.524503 L 30.84375,29.524503 C 31.869688,28.896671 32.46367,28.199296 32.4375,27.462003 C 32.423155,27.057819 32.192817,26.662809 31.84375,26.305753 z M 8.65625,28.368253 C 8.8060081,28.770367 9.1380783,29.160033 9.625,29.524503 L 10.46875,29.524503 C 9.6950959,29.172355 9.0636594,28.776652 8.65625,28.368253 z "
       id="path3307" />
    <path
       id="path3311"
       d="M 9.0610674,24.560888 C 9.025165,24.696001 9.0045709,24.831673 9.009556,24.969039 C 9.0893278,27.166897 14.493011,28.794444 21.079356,28.58192 C 26.430761,28.409244 30.91942,27.072626 32.372048,25.403388 C 31.781832,27.413874 26.779369,29.148435 20.642825,29.346445 C 14.056478,29.558969 8.6527989,27.931421 8.5730242,25.733564 C 8.5583546,25.32939 8.7384032,24.93938 9.0610674,24.560888 z "
       style="fill:#d3d7cf;fill-opacity:1;fill-rule:nonzero;stroke:none;stroke-width:1;stroke-linecap:round;stroke-linejoin:round;stroke-miterlimit:4;stroke-dasharray:none;stroke-opacity:1" />
    <path
       style="fill:#2e3436;fill-opacity:1;fill-rule:nonzero;stroke:none;stroke-width:1;stroke-linecap:round;stroke-linejoin:round;stroke-miterlimit:4;stroke-dasharray:none;stroke-opacity:1"
       d="M 31.84375,24.305753 C 31.889259,24.438267 31.932624,24.574633 31.9375,24.712003 C 32.015515,26.909917 26.742765,28.879168 20.15625,29.087003 C 14.804708,29.25587 10.225252,27.941067 8.65625,26.368253 C 9.1690853,27.745262 11.848172,28.972816 15.5,29.524503 L 24.15625,29.524503 C 28.99265,28.862973 32.500886,27.247807 32.4375,25.462003 C 32.423155,25.057819 32.192817,24.662809 31.84375,24.305753 z "
       id="path3313" />
    <path
       style="opacity:1;fill:url(#linearGradient3357);fill-opacity:1;fill-rule:nonzero;stroke:none;stroke-width:1;stroke-linecap:round;stroke-linejoin:round;stroke-miterlimit:4;stroke-dasharray:none;stroke-opacity:1"
       d="M 20.46875,8.4710298 C 18.210567,8.4710298 16.375001,8.8198007 16.375,9.251741 L 15.75,9.9209196 L 15.75,13.936005 C 17.156522,14.104376 18.755746,14.203678 20.46875,14.203678 C 22.157266,14.203678 23.736945,14.099894 25.125,13.936005 L 25.125,9.9209196 C 25.124999,9.9209196 24.562499,9.5441117 24.5625,9.251741 C 24.562499,8.8198007 22.726932,8.4710298 20.46875,8.4710298 z "
       id="path3330" />
    <path
       style="opacity:1;fill:url(#linearGradient3212);fill-opacity:1;fill-rule:nonzero;stroke:none;stroke-width:1;stroke-linecap:round;stroke-linejoin:round;stroke-miterlimit:4;stroke-dasharray:none;stroke-opacity:1"
       d="M 18.28125,7.1807557 L 18.28125,9.3370057 L 18.34375,9.3370057 C 18.340994,9.3473639 18.34375,9.3577397 18.34375,9.3682557 C 18.34375,9.6486831 19.337473,9.8995036 20.5625,9.8995036 C 21.787527,9.8995036 22.78125,9.6486831 22.78125,9.3682557 C 22.78125,9.3577397 22.784006,9.3473639 22.78125,9.3370057 L 22.78125,7.1807557 C 22.725127,7.4497727 21.751497,7.6807557 20.5625,7.6807557 C 19.373503,7.6807555 18.399873,7.4497724 18.34375,7.1807557 L 18.28125,7.1807557 z "
       id="path3196" />
    <path
       transform="matrix(1,0,0,0.7916667,0,3.2401915)"
       d="M 22.780748 5.0267382 A 2.2192514 0.64171124 0 1 1  18.342245,5.0267382 A 2.2192514 0.64171124 0 1 1  22.780748 5.0267382 z"
       sodipodi:ry="0.64171124"
       sodipodi:rx="2.2192514"
       sodipodi:cy="5.0267382"
       sodipodi:cx="20.561497"
       id="path3198"
       style="opacity:1;fill:#555753;fill-opacity:1;fill-rule:nonzero;stroke:none;stroke-width:1;stroke-linecap:round;stroke-linejoin:round;stroke-miterlimit:4;stroke-dasharray:none;stroke-opacity:1"
       sodipodi:type="arc" />
    <path
       style="opacity:1;fill:#555753;fill-opacity:1;fill-rule:nonzero;stroke:none;stroke-width:1;stroke-linecap:round;stroke-linejoin:round;stroke-miterlimit:4;stroke-dasharray:none;stroke-opacity:1"
       d="M 15.915085,3.3747178 C 13.174061,3.5557876 10.894536,5.8339998 10.78125,9.0245057 L 10.78125,12.243253 C 10.821524,12.364828 10.903648,12.472529 11.03125,12.587003 L 11.0625,12.618253 L 11.96875,13.118253 C 12.411609,13.29439 12.95094,13.446679 13.59375,13.587003 C 13.576023,12.215955 13.499136,9.9551163 13.5,9.9307536 C 13.581547,7.6290729 15.120684,5.7801323 17.09375,5.6495057 L 22.5,5.6807557 L 23.78125,5.1807557 L 23.8125,3.5870057 L 22.5,3.2432557 L 15.915085,3.3747178 z "
       id="path3231"
       sodipodi:nodetypes="cccccccscccccc" />
    <path
       style="opacity:1;fill:url(#radialGradient3249);fill-opacity:1;fill-rule:nonzero;stroke:none;stroke-width:1;stroke-linecap:round;stroke-linejoin:round;stroke-miterlimit:4;stroke-dasharray:none;stroke-opacity:1"
       d="M 22.479603,3.1400147 L 14.021227,3.1693412 C 11.280203,3.350411 9.1132872,5.8734687 9,9.0639746 L 9,12.524503 C 9,12.524503 9.7750706,12.960489 10.447556,13.037427 C 11.120042,13.114366 11.689943,12.832258 11.689943,12.832258 C 11.689779,11.581036 11.688976,10.000371 11.689943,9.9730953 C 11.77149,7.6714151 13.333356,5.8220498 15.306422,5.6914232 L 22.509491,5.6914232 L 22.479603,3.1400147 z "
       id="rect3214"
       sodipodi:nodetypes="ccccscsccc" />
    <path
       style="fill:none;fill-opacity:1;fill-rule:nonzero;stroke:#2e3436;stroke-width:1;stroke-linecap:round;stroke-linejoin:round;stroke-miterlimit:4;stroke-dasharray:none;stroke-opacity:1"
       d="M 22.46875,3.1495057 L 14.03125,3.1807557 C 11.290226,3.3618255 9.113287,5.8652498 9,9.0557557 L 9,12.462003 L 9,12.524503 L 9,12.649503 C 8.722191,13.001824 8.548987,13.370947 8.5625,13.743253 C 8.572472,14.017985 8.67484,14.270596 8.84375,14.524503 C 8.777358,14.472742 8.707593,14.419721 8.65625,14.368253 C 8.708127,14.507548 8.808638,14.638599 8.90625,14.774503 C 8.689522,15.085263 8.550595,15.415251 8.5625,15.743253 C 8.572472,16.017985 8.675494,16.270073 8.84375,16.524503 C 8.777358,16.472742 8.707593,16.419721 8.65625,16.368253 C 8.708127,16.507548 8.808638,16.638599 8.90625,16.774503 C 8.689522,17.085263 8.550595,17.415251 8.5625,17.743253 C 8.572472,18.017985 8.675494,18.270073 8.84375,18.524503 C 8.777358,18.472742 8.707593,18.419721 8.65625,18.368253 C 8.708127,18.507548 8.808638,18.638599 8.90625,18.774503 C 8.689522,19.085263 8.550595,19.415251 8.5625,19.743253 C 8.572472,20.017985 8.675494,20.270073 8.84375,20.524503 C 8.777358,20.472742 8.707593,20.419721 8.65625,20.368253 C 8.708127,20.507548 8.808638,20.638599 8.90625,20.774503 C 8.689522,21.085263 8.550595,21.415251 8.5625,21.743253 C 8.572472,22.017985 8.675494,22.270073 8.84375,22.524503 C 8.777358,22.472742 8.707593,22.419721 8.65625,22.368253 C 8.708127,22.507548 8.808638,22.638599 8.90625,22.774503 C 8.823051,22.8938 8.739534,23.027794 8.6875,23.149503 C 8.674569,23.179114 8.667315,23.213481 8.65625,23.243253 C 8.633158,23.308725 8.606989,23.364543 8.59375,23.430753 C 8.58938,23.45 8.597217,23.473978 8.59375,23.493253 C 8.581456,23.57317 8.559559,23.662218 8.5625,23.743253 C 8.572472,24.017985 8.675494,24.270073 8.84375,24.524503 C 8.786046,24.473629 8.707595,24.419723 8.65625,24.368253 C 8.711137,24.515629 8.803635,24.662285 8.90625,24.805753 C 8.698034,25.109174 8.550984,25.425979 8.5625,25.743253 C 8.572472,26.017985 8.675494,26.270073 8.84375,26.524503 C 8.777985,26.473262 8.708683,26.420813 8.65625,26.368253 C 8.712555,26.519438 8.799299,26.658868 8.90625,26.805753 C 8.697388,27.109975 8.550985,27.425979 8.5625,27.743253 C 8.573755,28.053334 8.719385,28.338105 8.9375,28.618253 C 8.837944,28.534594 8.738746,28.450949 8.65625,28.368253 C 8.731129,28.56931 8.837398,28.768764 9,28.962003 L 9,29.462003 L 9.28125,29.462003 L 9.28125,29.524503 L 9.625,29.524503 L 10,29.524503 L 10.46875,29.524503 L 12.09375,29.524503 L 15.5,29.524503 L 24.15625,29.524503 L 28.28125,29.524503 L 28.84375,29.524503 L 29.9375,29.524503 L 30.84375,29.524503 L 31.59375,29.524503 L 31.59375,29.462003 L 32,29.462003 L 32,28.555753 C 32.289928,28.201181 32.450981,27.84181 32.4375,27.462003 C 32.425942,27.136351 32.272626,26.822407 32.03125,26.524503 C 32.304786,26.176128 32.450633,25.83199 32.4375,25.462003 C 32.425942,25.136351 32.272626,24.822407 32.03125,24.524503 C 32.142854,24.378948 32.216911,24.236786 32.28125,24.087003 C 32.295756,24.053233 32.331733,24.027205 32.34375,23.993253 C 32.361245,23.949122 32.361966,23.912721 32.375,23.868253 C 32.386223,23.826051 32.398939,23.785691 32.40625,23.743253 C 32.422972,23.653541 32.440751,23.553583 32.4375,23.462003 C 32.434672,23.382332 32.423699,23.289657 32.40625,23.212003 C 32.400353,23.188513 32.38226,23.172844 32.375,23.149503 C 32.369613,23.129939 32.381282,23.106443 32.375,23.087003 C 32.361749,23.050136 32.328908,23.029706 32.3125,22.993253 C 32.25596,22.855544 32.192327,22.718769 32.09375,22.587003 C 32.077623,22.565447 32.048427,22.545909 32.03125,22.524503 C 32.298054,22.179112 32.450498,21.828197 32.4375,21.462003 C 32.4259,21.135171 32.268195,20.819773 32.03125,20.524503 C 32.298054,20.179112 32.450498,19.828197 32.4375,19.462003 C 32.4259,19.135171 32.268195,18.819773 32.03125,18.524503 C 32.298054,18.179112 32.450498,17.828197 32.4375,17.462003 C 32.4259,17.135171 32.268195,16.819773 32.03125,16.524503 C 32.298054,16.179112 32.450498,15.828197 32.4375,15.462003 C 32.4259,15.135171 32.268195,14.819773 32.03125,14.524503 C 32.298054,14.179112 32.450498,13.828197 32.4375,13.462003 C 32.425479,13.123324 32.252932,12.798163 32,12.493253 C 31.995316,12.487607 32.004756,12.467639 32,12.462003 L 31.84375,12.305753 L 31.6875,12.149503 C 31.689666,12.126545 31.71875,12.110087 31.71875,12.087003 C 31.71875,11.946319 31.671878,11.815823 31.59375,11.680753 L 31.59375,11.462003 C 31.578429,11.502585 31.549974,11.546802 31.53125,11.587003 C 30.833117,10.619272 28.184755,9.8185992 24.65625,9.4620057 C 24.603516,9.3838477 24.5625,9.3163485 24.5625,9.2432557 C 24.562499,8.9783326 23.836249,8.759326 22.78125,8.6182557 L 22.78125,7.2120057 C 22.784379,7.2043135 22.779631,7.1885158 22.78125,7.1807557 C 22.710548,6.9154518 21.741588,6.7120056 20.5625,6.7120057 C 19.383412,6.7120057 18.414452,6.9154517 18.34375,7.1807557 L 18.28125,7.1807557 L 18.28125,8.6182557 C 17.157816,8.7572897 16.375001,8.9682537 16.375,9.2432557 L 16.1875,9.4620057 C 15.212465,9.5628277 14.315923,9.7063588 13.5,9.8682539 C 13.603776,7.6709762 15.043682,5.9118965 16.90625,5.6807557 L 22.5,5.6807557 L 23.78125,5.1807557 L 23.8125,3.5870057 L 22.5,3.2432557 L 22.46875,3.2432557 L 22.46875,3.1495057 z "
       id="path4226"
       sodipodi:nodetypes="ccccccssscssscssscssscssscssssssscssscsscccccccccccccccccccscscsssssssssscscscscscsscccsccccsccssccccccccccccc" />
  </g>
</svg>
