<?xml version="1.0" encoding="UTF-8" standalone="no"?>
<!-- Created with Inkscape (http://www.inkscape.org/) -->
<svg
   xmlns:dc="http://purl.org/dc/elements/1.1/"
   xmlns:cc="http://web.resource.org/cc/"
   xmlns:rdf="http://www.w3.org/1999/02/22-rdf-syntax-ns#"
   xmlns:svg="http://www.w3.org/2000/svg"
   xmlns="http://www.w3.org/2000/svg"
   xmlns:xlink="http://www.w3.org/1999/xlink"
   xmlns:sodipodi="http://sodipodi.sourceforge.net/DTD/sodipodi-0.dtd"
   xmlns:inkscape="http://www.inkscape.org/namespaces/inkscape"
   width="40"
   height="40"
   id="svg2193"
   sodipodi:version="0.32"
   inkscape:version="0.44.1"
   version="1.0"
   sodipodi:docbase="/home/carsten/svn/kalzium_www/files"
   sodipodi:docname="7.svg">
  <defs
     id="defs2195">
    <linearGradient
       id="linearGradient4431">
      <stop
         id="stop4433"
         offset="0"
         style="stop-color:#000000;stop-opacity:0.55624998;" />
      <stop
         style="stop-color:#7f7f7f;stop-opacity:0.17647059;"
         offset="0.25"
         id="stop7404" />
      <stop
         id="stop7406"
         offset="0.375"
         style="stop-color:#bfbfbf;stop-opacity:0.26666667;" />
      <stop
         style="stop-color:#ffffff;stop-opacity:0.35624999;"
         offset="0.5"
         id="stop4435" />
      <stop
         id="stop4437"
         offset="1"
         style="stop-color:#000000;stop-opacity:0.48750001;" />
    </linearGradient>
    <linearGradient
       id="linearGradient3388">
      <stop
         style="stop-color:#000000;stop-opacity:1"
         offset="0"
         id="stop3390" />
      <stop
         id="stop3394"
         offset="0.5"
         style="stop-color:#ffffff;stop-opacity:1;" />
      <stop
         style="stop-color:#7e7e7e;stop-opacity:1;"
         offset="1"
         id="stop3392" />
    </linearGradient>
    <linearGradient
       inkscape:collect="always"
       id="linearGradient3239">
      <stop
         style="stop-color:#eeeeec;stop-opacity:1;"
         offset="0"
         id="stop3241" />
      <stop
         style="stop-color:#eeeeec;stop-opacity:0;"
         offset="1"
         id="stop3243" />
    </linearGradient>
    <linearGradient
       id="linearGradient3291">
      <stop
         id="stop3293"
         offset="0"
         style="stop-color:#000000;stop-opacity:0.73124999;" />
      <stop
         id="stop3295"
         offset="1"
         style="stop-color:#030303;stop-opacity:0.13124999;" />
    </linearGradient>
    <radialGradient
       inkscape:collect="always"
       xlink:href="#linearGradient3291"
       id="radialGradient2595"
       gradientUnits="userSpaceOnUse"
       gradientTransform="matrix(1,0,0,0.197802,0,92.82166)"
       cx="63.912209"
       cy="115.70919"
       fx="75.857941"
       fy="115.70919"
       r="63.912209" />
    <linearGradient
       inkscape:collect="always"
       xlink:href="#linearGradient3388"
       id="linearGradient3386"
       x1="27.704737"
       y1="32.74987"
       x2="27.471092"
       y2="32.273239"
       gradientUnits="userSpaceOnUse"
       gradientTransform="translate(-1.5094981,-1.0978168)" />
    <linearGradient
       inkscape:collect="always"
       xlink:href="#linearGradient3388"
       id="linearGradient3398"
       gradientUnits="userSpaceOnUse"
       x1="27.704737"
       y1="32.74987"
       x2="27.471092"
       y2="32.273239"
       gradientTransform="matrix(0.9955656,9.406981e-2,-9.406981e-2,0.9955656,2.1053406,-3.1926983)" />
    <linearGradient
       inkscape:collect="always"
       xlink:href="#linearGradient3388"
       id="linearGradient3402"
       gradientUnits="userSpaceOnUse"
       gradientTransform="matrix(0.9999297,-1.1855327e-2,1.1855327e-2,0.9999297,-0.6075227,-3.1862942e-2)"
       x1="27.704737"
       y1="32.74987"
       x2="27.471092"
       y2="32.273239" />
    <linearGradient
       inkscape:collect="always"
       xlink:href="#linearGradient3388"
       id="linearGradient3406"
       gradientUnits="userSpaceOnUse"
       gradientTransform="matrix(0.9992882,3.7724467e-2,-3.7724467e-2,0.9992882,1.4533309,-1.1369204)"
       x1="27.704737"
       y1="32.74987"
       x2="27.471092"
       y2="32.273239" />
    <linearGradient
       inkscape:collect="always"
       xlink:href="#linearGradient3388"
       id="linearGradient3410"
       gradientUnits="userSpaceOnUse"
       gradientTransform="matrix(0.9995182,-3.1037361e-2,3.1037361e-2,0.9995182,-2.3625066,0.6596683)"
       x1="27.704737"
       y1="32.74987"
       x2="27.471092"
       y2="32.273239" />
    <linearGradient
       inkscape:collect="always"
       xlink:href="#linearGradient3388"
       id="linearGradient3414"
       gradientUnits="userSpaceOnUse"
       gradientTransform="matrix(0.9995182,-3.1037361e-2,3.1037361e-2,0.9995182,-4.0386576,0.2863076)"
       x1="27.704737"
       y1="32.74987"
       x2="27.471092"
       y2="32.273239" />
    <linearGradient
       inkscape:collect="always"
       xlink:href="#linearGradient4431"
       id="linearGradient4429"
       x1="22.487413"
       y1="8.2399206"
       x2="24.278887"
       y2="16.087183"
       gradientUnits="userSpaceOnUse"
       gradientTransform="translate(-1.509498,-1.0978168)" />
    <linearGradient
       inkscape:collect="always"
       xlink:href="#linearGradient4431"
       id="linearGradient4445"
       x1="23.283073"
       y1="16.175579"
       x2="25.040688"
       y2="22.730017"
       gradientUnits="userSpaceOnUse"
       gradientTransform="translate(-1.5094981,-1.0978168)" />
    <linearGradient
       inkscape:collect="always"
       xlink:href="#linearGradient4431"
       id="linearGradient4453"
       x1="6.0625"
       y1="17.375"
       x2="8.823638"
       y2="23.981478"
       gradientUnits="userSpaceOnUse"
       gradientTransform="translate(-1.5094981,-1.0978168)" />
    <linearGradient
       inkscape:collect="always"
       xlink:href="#linearGradient3291"
       id="linearGradient7373"
       x1="7.9290709"
       y1="12.5625"
       x2="9.7185049"
       y2="19.419222"
       gradientUnits="userSpaceOnUse"
       gradientTransform="translate(-1.5094981,-1.0978168)" />
    <linearGradient
       inkscape:collect="always"
       xlink:href="#linearGradient3291"
       id="linearGradient7381"
       x1="4.6265626"
       y1="18.21875"
       x2="7.3083797"
       y2="24.829348"
       gradientUnits="userSpaceOnUse"
       gradientTransform="translate(-1.5094981,-1.0978168)" />
    <linearGradient
       inkscape:collect="always"
       xlink:href="#linearGradient3291"
       id="linearGradient7389"
       x1="10.185824"
       y1="19.8125"
       x2="13.03125"
       y2="26.375"
       gradientUnits="userSpaceOnUse"
       gradientTransform="translate(-1.5094981,-1.0978168)" />
    <linearGradient
       inkscape:collect="always"
       xlink:href="#linearGradient3239"
       id="linearGradient7402"
       x1="1.0403181"
       y1="-8.9208126"
       x2="18.216799"
       y2="11.121162"
       gradientUnits="userSpaceOnUse" />
    <linearGradient
       inkscape:collect="always"
       xlink:href="#linearGradient3239"
       id="linearGradient2289"
       gradientUnits="userSpaceOnUse"
       x1="1.0403181"
       y1="-8.9208126"
       x2="18.216799"
       y2="11.121162" />
    <linearGradient
       inkscape:collect="always"
       xlink:href="#linearGradient3239"
       id="linearGradient2291"
       gradientUnits="userSpaceOnUse"
       x1="1.0403181"
       y1="-8.9208126"
       x2="18.216799"
       y2="11.121162" />
    <linearGradient
       inkscape:collect="always"
       xlink:href="#linearGradient3239"
       id="linearGradient2293"
       gradientUnits="userSpaceOnUse"
       x1="1.0403181"
       y1="-8.9208126"
       x2="18.216799"
       y2="11.121162" />
  </defs>
  <sodipodi:namedview
     id="base"
     pagecolor="#ffffff"
     bordercolor="#666666"
     borderopacity="1.0"
     inkscape:pageopacity="0.0"
     inkscape:pageshadow="2"
     inkscape:zoom="7.2871926"
     inkscape:cx="20.019474"
     inkscape:cy="34.112958"
     inkscape:current-layer="layer1"
     showgrid="false"
     inkscape:grid-bbox="false"
     inkscape:document-units="px"
     width="40px"
     height="40px"
     gridempspacing="2"
     inkscape:window-width="1167"
     inkscape:window-height="914"
     inkscape:window-x="71"
     inkscape:window-y="40" />
  <metadata
     id="metadata2198">
    <rdf:RDF>
      <cc:Work
         rdf:about="">
        <dc:format>image/svg+xml</dc:format>
        <dc:type
           rdf:resource="http://purl.org/dc/dcmitype/StillImage" />
        <dc:creator>
          <cc:Agent>
            <dc:title>Jarle Akselsen</dc:title>
          </cc:Agent>
        </dc:creator>
        <cc:license
           rdf:resource="http://creativecommons.org/licenses/GPL/2.0/" />
      </cc:Work>
      <cc:License
         rdf:about="http://creativecommons.org/licenses/GPL/2.0/">
        <cc:permits
           rdf:resource="http://web.resource.org/cc/Reproduction" />
        <cc:permits
           rdf:resource="http://web.resource.org/cc/Distribution" />
        <cc:requires
           rdf:resource="http://web.resource.org/cc/Notice" />
        <cc:permits
           rdf:resource="http://web.resource.org/cc/DerivativeWorks" />
        <cc:requires
           rdf:resource="http://web.resource.org/cc/ShareAlike" />
        <cc:requires
           rdf:resource="http://web.resource.org/cc/SourceCode" />
      </cc:License>
    </rdf:RDF>
  </metadata>
  <g
     id="layer1"
     inkscape:label="Layer 1"
     inkscape:groupmode="layer">
    <path
       transform="matrix(0.2709573,-6.6467497e-2,4.9937798e-2,0.2617101,-1.8935124,-2.0189276)"
       d="M 127.82442 115.70919 A 63.912209 12.641975 0 1 1  0,115.70919 A 63.912209 12.641975 0 1 1  127.82442 115.70919 z"
       sodipodi:ry="12.641975"
       sodipodi:rx="63.912209"
       sodipodi:cy="115.70919"
       sodipodi:cx="63.912209"
       id="path2593"
       style="opacity:0.38139535;fill:url(#radialGradient2595);fill-opacity:1;fill-rule:nonzero;stroke:none;stroke-width:0;stroke-linecap:round;stroke-linejoin:round;stroke-miterlimit:4;stroke-dasharray:none;stroke-dashoffset:4;stroke-opacity:1"
       sodipodi:type="arc" />
    <path
       style="opacity:1;fill:#e3ad00;fill-opacity:1;fill-rule:nonzero;stroke:none;stroke-width:0.5;stroke-linecap:round;stroke-linejoin:round;stroke-miterlimit:4;stroke-dasharray:none;stroke-opacity:1"
       d="M 25.477305,31.880501 L 24.164805,31.911751 C 24.144051,31.909135 24.123056,31.909137 24.102305,31.911751 C 23.767497,32.015262 23.347637,32.133214 23.039805,32.474251 C 23.028952,32.48627 23.019139,32.492862 23.008555,32.505501 C 22.728052,32.726046 22.435408,32.913643 22.133555,33.036751 C 22.114547,33.04253 22.120082,33.062636 22.102305,33.068001 C 21.899802,33.129118 21.759874,33.158791 21.664805,33.193001 C 21.588226,33.207298 21.436829,33.23338 21.321055,33.255501 C 21.310837,33.257451 21.299868,33.253529 21.289805,33.255501 C 21.168622,33.264645 20.42552,33.700751 20.156809,33.722435 C 19.8741,33.745247 19.562913,33.74252 19.469309,33.722435 C 19.448555,33.719819 19.42756,33.719821 19.406809,33.722435 C 18.181336,33.707804 13.666144,33.907596 14.709253,34.089684 C 14.574338,34.07589 14.43901,34.062613 14.303003,34.058434 L 14.365503,34.152184 C 14.365503,34.152184 15.521508,34.171169 16.240503,34.339684 C 16.959497,34.508199 17.240503,34.808434 17.240503,34.808434 C 17.250896,34.808732 17.26136,34.808141 17.271753,34.808434 C 17.282704,34.80938 17.292072,34.807553 17.303003,34.808434 C 17.488903,34.823416 17.654383,34.810475 17.834253,34.808434 C 17.749914,34.836655 17.669137,34.875341 17.584253,34.902184 C 17.572935,34.911656 17.562477,34.922115 17.553003,34.933434 C 16.194032,35.442311 15.266006,35.721251 14.303003,35.902184 C 12.875511,36.065198 9.4265915,36.290044 8.7717521,36.277184 C 8.9123542,36.305607 10.288497,36.566771 11.740503,36.652184 C 12.799843,36.714497 13.65917,36.686071 14.209253,36.652184 C 15.85943,36.362438 18.331353,35.767766 19.906809,35.191185 C 20.900023,34.866266 22.348625,33.988366 23.289805,33.630501 C 23.300212,33.631151 23.310649,33.631153 23.321055,33.630501 C 23.378827,33.600371 23.604421,33.534243 23.852305,33.474251 C 24.089899,33.416748 24.357347,33.356119 24.539805,33.318001 C 24.549889,33.316606 24.560971,33.319403 24.571055,33.318001 C 25.296864,33.217065 26.040886,33.079324 26.758555,32.943001 C 26.778499,32.939211 26.80113,32.946808 26.821055,32.943001 C 26.843249,32.935559 26.864287,32.925042 26.883555,32.911751 C 26.922673,32.889505 26.955061,32.857118 26.977305,32.818001 C 26.993856,32.789139 27.004479,32.757269 27.008555,32.724251 C 27.016239,32.640181 26.98098,32.557915 26.914805,32.505501 C 26.871509,32.467237 26.816296,32.445154 26.758555,32.443001 L 26.696055,32.443001 C 26.685917,32.444936 26.674948,32.441069 26.664805,32.443001 L 26.227305,32.474251 C 26.222396,32.466805 26.227315,32.443009 26.227305,32.443001 C 26.227258,32.442958 26.164887,32.411787 26.164805,32.411751 C 26.164642,32.411676 26.102606,32.411806 26.102305,32.411751 C 26.101703,32.411639 26.078765,32.380743 26.071055,32.380501 C 26.063346,32.380257 26.044523,32.380397 26.039805,32.380501 C 26.03037,32.380706 26.016452,32.379983 26.008555,32.380501 C 25.992762,32.381535 25.99951,32.409648 25.977305,32.411751 C 25.969904,32.41245 25.954444,32.410919 25.946055,32.411751 C 25.90411,32.415911 25.858945,32.404091 25.789805,32.411751 C 25.663914,32.425697 25.429671,32.446005 25.196055,32.474251 C 25.320021,32.442992 25.45166,32.419112 25.602305,32.380501 C 25.6379,32.36707 25.669967,32.345696 25.696055,32.318001 C 25.762227,32.265585 25.797488,32.183319 25.789805,32.099251 C 25.785726,32.066231 25.775105,32.034361 25.758555,32.005501 C 25.736308,31.966382 25.703922,31.933995 25.664805,31.911751 C 25.645534,31.898458 25.624498,31.887941 25.602305,31.880501 C 25.581551,31.877885 25.560556,31.877887 25.539805,31.880501 L 25.477305,31.880501 z M 24.227305,32.411751 L 24.321055,32.411751 C 24.193318,32.518656 24.041882,32.595852 23.914805,32.693001 C 23.745386,32.723596 23.584248,32.75153 23.414805,32.786751 C 23.604975,32.585621 23.881494,32.518667 24.227305,32.411751 z "
       id="path2372"
       sodipodi:nodetypes="ccssssssssssscccscsssscccsccsssssssssssccccssssssssssssssssccccccc" />
    <path
       style="opacity:1;fill:#b3925d;fill-opacity:1;fill-rule:nonzero;stroke:none;stroke-width:0.2;stroke-linecap:round;stroke-linejoin:round;stroke-miterlimit:4;stroke-dasharray:none;stroke-opacity:1"
       d="M 33.771753,5.5271832 L 7.3655019,10.808434 L 7.3030019,10.808434 C 5.9199679,10.808434 4.9999749,12.5001 5.2405019,14.589684 C 5.3106559,15.199146 5.4813881,15.767524 5.7092519,16.277184 C 5.5614419,16.311774 4.2766358,16.619224 4.2717519,16.620934 C 3.2411651,16.981769 2.6040908,18.424143 2.8030019,20.152184 C 3.0331472,22.15157 4.2921674,23.745934 5.6155019,23.745934 C 5.6648411,23.745934 7.0525342,23.366991 7.8655019,23.152184 C 8.3887936,24.724942 9.4893926,25.870933 10.646753,25.870934 C 10.850807,25.870934 11.057572,25.844119 11.240503,25.777184 C 11.240503,25.777184 36.529174,18.308434 36.584253,18.308434 C 37.808232,18.308434 38.640868,16.813957 38.428003,14.964684 C 38.215138,13.115411 37.058232,11.620934 35.834253,11.620934 L 34.990503,11.839684 C 35.878704,11.488078 36.444705,10.2172 36.271753,8.7146832 C 36.067695,6.9419308 34.945087,5.5271834 33.771753,5.5271832 z "
       id="path3313" />
    <path
       id="path3679"
       d="M 31.456348,13.470729 L 30.343418,13.763604 L 29.054763,14.085769 L 27.824683,14.349359 C 28.175853,14.582029 28.502307,14.940049 28.761888,15.374424 L 29.962683,15.081549 C 30.291985,15.618108 30.523819,16.262531 30.607008,16.985244 C 30.672875,17.557476 30.640099,18.07945 30.519148,18.537489 L 31.866378,18.156749 C 31.97597,17.707691 32.016952,17.207884 31.954238,16.663079 C 31.869804,15.92955 31.622394,15.263572 31.280623,14.730094 L 32.422843,14.437219 C 32.156313,14.017998 31.839269,13.681417 31.485638,13.470729 C 31.477948,13.466147 31.464064,13.475191 31.456348,13.470729 z M 27.151068,14.525084 L 26.008848,14.817959 C 26.681654,15.290196 27.186358,16.205897 27.414658,17.278119 C 27.104209,16.936392 26.603831,16.342319 26.243153,16.077329 C 25.255225,15.351506 24.536439,15.261721 24.485893,15.227984 L 23.138663,15.550149 C 23.937713,16.104481 24.56702,17.23607 24.720193,18.566776 C 24.785905,19.137632 24.767063,19.671664 24.661618,20.148309 L 26.038138,19.767569 C 26.149698,19.30268 26.191179,18.781573 26.125998,18.215324 C 26.090644,17.908173 26.037562,17.617778 25.950273,17.336694 C 26.013682,17.388967 26.061587,17.423729 26.125998,17.483134 C 26.766361,18.073689 27.35538,18.947731 27.473233,19.123242 C 27.458791,19.197911 27.46261,19.28607 27.443943,19.357544 L 28.703313,19.006089 C 28.814067,18.548688 28.855274,18.040009 28.791173,17.483134 C 28.637872,16.151273 27.971317,15.028388 27.151068,14.525084 z M 22.435758,15.725874 L 18.276913,16.809519 C 18.644043,17.059731 18.968677,17.440112 19.243408,17.893159 L 20.473488,17.541709 C 20.825313,18.123562 21.086842,18.843197 21.176388,19.621129 C 21.238334,20.159289 21.212262,20.661043 21.117813,21.114799 L 22.699348,20.675484 C 22.798965,20.213671 22.850675,19.703883 22.787208,19.152529 C 22.700052,18.39536 22.452676,17.705756 22.113593,17.131684 L 23.402248,16.780229 C 23.132151,16.321257 22.804517,15.973827 22.435758,15.725874 z "
       style="opacity:0.35436892;color:#000000;fill:#bf0303;fill-opacity:1;fill-rule:evenodd;stroke:none;stroke-width:1px;stroke-linecap:butt;stroke-linejoin:miter;marker:none;marker-start:none;marker-mid:none;marker-end:none;stroke-miterlimit:4;stroke-dasharray:none;stroke-dashoffset:0;stroke-opacity:1;visibility:visible;display:inline;overflow:visible;enable-background:accumulate" />
    <path
       sodipodi:nodetypes="ccc"
       id="path2276"
       d="M 10.956528,1.0198748 L 10.956528,-1.7748336 L 10.956528,1.0198748 z "
       style="fill:#ffffff;fill-opacity:0.75688076;fill-rule:nonzero;stroke:none;stroke-width:0.5;stroke-linecap:round;stroke-linejoin:round;stroke-miterlimit:4;stroke-dasharray:none;stroke-dashoffset:4;stroke-opacity:1" />
    <g
       id="g7391"
       transform="translate(-1.5094981,18.902184)"
       style="fill:url(#linearGradient7402);fill-opacity:1">
      <path
         style="opacity:0.76699033;fill:url(#linearGradient2289);fill-opacity:1;fill-rule:nonzero;stroke:none;stroke-width:0.2;stroke-linecap:round;stroke-linejoin:round;stroke-miterlimit:4;stroke-dasharray:none;stroke-opacity:1"
         d="M 6.28125,-2.375 C 4.957915,-2.375 4.082354,-0.749386 4.3125,1.25 C 4.542645,3.249386 5.801666,4.84375 7.125,4.84375 C 8.448335,4.84375 9.323894,3.249386 9.09375,1.25 C 8.863605,-0.749386 7.604584,-2.375 6.28125,-2.375 z M 6.3125,-1.78125 C 7.409781,-1.78125 8.434168,-0.407848 8.625,1.25 C 8.815832,2.907848 8.097281,4.25 7,4.25 C 5.90272,4.25 4.847082,2.907848 4.65625,1.25 C 4.465417,-0.407848 5.215219,-1.78125 6.3125,-1.78125 z "
         id="path3373" />
      <path
         style="opacity:0.76699033;fill:url(#linearGradient2291);fill-opacity:1;fill-rule:nonzero;stroke:none;stroke-width:0.2;stroke-linecap:round;stroke-linejoin:round;stroke-miterlimit:4;stroke-dasharray:none;stroke-opacity:1"
         d="M 11.25,-0.90625 C 9.807267,-0.90625 8.842841,0.851468 9.09375,3.03125 C 9.34466,5.211032 10.713517,6.968751 12.15625,6.96875 C 13.598983,6.96875 14.56341,5.211032 14.3125,3.03125 C 14.06159,0.851468 12.692733,-0.906249 11.25,-0.90625 z M 11.28125,-0.1875 C 12.47803,-0.1875 13.604365,1.285572 13.8125,3.09375 C 14.020636,4.901928 13.22803,6.375 12.03125,6.375 C 10.83447,6.375 9.708135,4.901928 9.5,3.09375 C 9.291864,1.285572 10.08447,-0.1875 11.28125,-0.1875 z "
         id="path3375" />
      <path
         style="opacity:0.76699033;fill:url(#linearGradient2293);fill-opacity:1;fill-rule:nonzero;stroke:none;stroke-width:0.2;stroke-linecap:round;stroke-linejoin:round;stroke-miterlimit:4;stroke-dasharray:none;stroke-opacity:1"
         d="M 8.8125,-8.09375 C 7.429466,-8.09375 6.509472,-6.402084 6.75,-4.3125 C 6.990528,-2.222916 8.304465,-0.53125 9.6875,-0.53125 C 11.070534,-0.53125 11.990527,-2.222916 11.75,-4.3125 C 11.509472,-6.402084 10.195534,-8.09375 8.8125,-8.09375 z M 8.78125,-7.4375 C 9.938229,-7.4375 11.048786,-5.998046 11.25,-4.25 C 11.451214,-2.501955 10.65698,-1.09375 9.5,-1.09375 C 8.343021,-1.093751 7.263714,-2.501954 7.0625,-4.25 C 6.861286,-5.998046 7.62427,-7.4375 8.78125,-7.4375 z "
         id="path3377" />
    </g>
    <path
       id="path3379"
       d="M 7.2717519,11.464684 C 6.1147719,11.464684 5.3517889,12.90414 5.5530019,14.652184 C 5.7542159,16.40023 6.8335229,17.808433 7.9905019,17.808434 C 8.3332809,17.808434 8.667648,17.685412 8.9280022,17.464684 C 7.9002299,17.245508 6.9843109,15.946053 6.8030019,14.370934 C 6.6563879,13.097222 7.0424689,12.016227 7.7092519,11.527184 C 7.5679909,11.484977 7.4163749,11.464684 7.2717519,11.464684 z "
       style="opacity:0.76699033;fill:url(#linearGradient7373);fill-opacity:1;fill-rule:nonzero;stroke:none;stroke-width:0.2;stroke-linecap:round;stroke-linejoin:round;stroke-miterlimit:4;stroke-dasharray:none;stroke-opacity:1" />
    <path
       id="path3381"
       d="M 9.7717528,18.714684 C 8.5749719,18.714684 7.7823669,20.187756 7.9905019,21.995934 C 8.1986369,23.804112 9.3249725,25.277184 10.521753,25.277184 C 10.903152,25.277184 11.240408,25.101298 11.521753,24.839684 C 10.410003,24.69512 9.4040015,23.344065 9.2092524,21.652184 C 9.0635083,20.386033 9.4129275,19.278545 10.053003,18.745934 C 9.9584329,18.727727 9.8674949,18.714684 9.7717528,18.714684 z "
       style="opacity:0.76699033;fill:url(#linearGradient7389);fill-opacity:1;fill-rule:nonzero;stroke:none;stroke-width:0.2;stroke-linecap:round;stroke-linejoin:round;stroke-miterlimit:4;stroke-dasharray:none;stroke-opacity:1" />
    <path
       id="path3383"
       d="M 4.8030019,17.120934 C 3.7057209,17.120934 2.9559199,18.494335 3.1467519,20.152184 C 3.3375839,21.810032 4.3932209,23.152185 5.4905019,23.152184 C 5.8562619,23.152184 6.1635219,22.975419 6.4280019,22.714684 C 5.4637169,22.490642 4.5984319,21.289047 4.4280019,19.808434 C 4.2969599,18.670008 4.6124749,17.681827 5.1780019,17.183434 C 5.0537749,17.149065 4.9298549,17.120934 4.8030019,17.120934 z "
       style="opacity:0.76699033;fill:url(#linearGradient7381);fill-opacity:1;fill-rule:nonzero;stroke:none;stroke-width:0.2;stroke-linecap:round;stroke-linejoin:round;stroke-miterlimit:4;stroke-dasharray:none;stroke-opacity:1" />
    <path
       style="opacity:0.5;fill:url(#linearGradient4429);fill-opacity:1;fill-rule:nonzero;stroke:none;stroke-width:0.2;stroke-linecap:round;stroke-linejoin:round;stroke-miterlimit:4;stroke-dasharray:none;stroke-opacity:1"
       d="M 33.771753,5.5271832 L 7.365502,10.808434 C 8.726396,10.856649 10.003464,12.53041 10.240503,14.589684 C 10.442374,16.343442 9.825372,17.785411 8.803002,18.214684 C 10.227124,17.9235 34.347316,11.933434 34.490503,11.933434 C 35.663836,11.933434 36.475811,10.487437 36.271753,8.7146832 C 36.067695,6.9419308 34.945087,5.5271834 33.771753,5.5271832 z M 5.240502,14.589684 C 5.300634,15.11208 5.436886,15.605993 5.615502,16.058434 C 5.436536,15.605596 5.300634,15.11208 5.240502,14.589684 z M 5.615502,16.058434 C 5.790683,16.502175 6.012499,16.907999 6.271752,17.245934 C 6.00557,16.903348 5.794468,16.511272 5.615502,16.058434 z M 7.178002,18.058434 C 7.499431,18.249677 7.832243,18.370934 8.178002,18.370934 C 7.832244,18.370934 7.499781,18.250074 7.178002,18.058434 z "
       id="path3405" />
    <path
       style="opacity:0.5;fill:url(#linearGradient4445);fill-opacity:1;fill-rule:nonzero;stroke:none;stroke-width:0.2;stroke-linecap:round;stroke-linejoin:round;stroke-miterlimit:4;stroke-dasharray:none;stroke-opacity:1"
       d="M 35.834253,11.620934 L 9.7717528,17.995934 C 11.202986,18.021337 12.553913,19.769461 12.803003,21.933434 C 13.018425,23.804916 12.350955,25.370865 11.240503,25.777184 C 11.240503,25.777184 36.529174,18.308434 36.584253,18.308434 C 37.808232,18.308434 38.640868,16.813957 38.428003,14.964684 C 38.215138,13.115411 37.058232,11.620934 35.834253,11.620934 z M 7.9592519,23.464684 C 8.1454092,23.936002 8.4010421,24.358733 8.678002,24.714684 C 8.4003303,24.35731 8.145943,23.937069 7.9592519,23.464684 z "
       id="path3415" />
    <path
       style="opacity:0.43689348;fill:url(#linearGradient4453);fill-opacity:1;fill-rule:nonzero;stroke:none;stroke-width:0.2;stroke-linecap:round;stroke-linejoin:round;stroke-miterlimit:4;stroke-dasharray:none;stroke-opacity:1"
       d="M 5.7405019,16.277184 C 5.6203909,16.305301 4.5806459,16.551596 4.5530019,16.558434 C 4.6271819,16.547611 4.6944609,16.527184 4.7717519,16.527184 C 5.3047119,16.527184 5.8226649,16.800363 6.2717519,17.245934 C 6.0534829,16.965014 5.9020409,16.6347 5.7405019,16.277184 z M 6.5842519,17.589684 C 7.0931919,18.246011 7.4691789,19.152491 7.5842519,20.152184 C 7.5988759,20.279229 7.6096549,20.403932 7.6155019,20.527184 C 7.7753569,19.38502 8.2830019,18.497459 9.0217522,18.152184 L 9.0217522,18.120934 C 8.7652631,18.27561 8.4859059,18.370934 8.1780019,18.370934 C 7.6117299,18.370934 7.0591609,18.068909 6.5842519,17.589684 z M 7.5530019,21.464684 C 7.4105079,22.456858 6.9770379,23.221881 6.3342519,23.558434 C 6.5118919,23.516234 7.4626329,23.257765 7.8655019,23.152184 C 7.7382239,22.767209 7.6333599,22.360057 7.5842519,21.933434 C 7.5654139,21.769776 7.5584209,21.623137 7.5530019,21.464684 z "
       id="path3420" />
    <g
       id="g6393"
       style="opacity:0.31068019;fill:#000000;fill-opacity:1"
       transform="translate(-1.5094981,18.902184)">
      <path
         style="opacity:0.76699033;fill:#000000;fill-opacity:1;fill-rule:nonzero;stroke:none;stroke-width:0.2;stroke-linecap:round;stroke-linejoin:round;stroke-miterlimit:4;stroke-dasharray:none;stroke-opacity:1"
         d="M 9.21875,-7.375 C 8.551967,-6.885957 8.165886,-5.804962 8.3125,-4.53125 C 8.493809,-2.956131 9.409728,-1.656676 10.4375,-1.4375 C 11.055917,-1.961793 11.3916,-3.019848 11.25,-4.25 C 11.073938,-5.77954 10.207575,-7.079552 9.21875,-7.375 z M 10.3125,-5.1875 C 10.557,-5.187502 10.769978,-4.900657 10.8125,-4.53125 C 10.855022,-4.161841 10.71325,-3.875 10.46875,-3.875 C 10.22425,-3.875003 9.980022,-4.161843 9.9375,-4.53125 C 9.894978,-4.900656 10.068,-5.1875 10.3125,-5.1875 z M 10,-1.1875 C 9.841017,-1.129154 9.67139,-1.09375 9.5,-1.09375 C 9.668726,-1.09375 9.849339,-1.130534 10,-1.1875 z "
         id="path3515" />
      <path
         style="opacity:0.76699033;fill:#000000;fill-opacity:1;fill-rule:nonzero;stroke:none;stroke-width:0.2;stroke-linecap:round;stroke-linejoin:round;stroke-miterlimit:4;stroke-dasharray:none;stroke-opacity:1"
         d="M 6.6875,-1.71875 C 6.121973,-1.220357 5.806458,-0.232176 5.9375,0.90625 C 6.10793,2.386863 6.973215,3.588458 7.9375,3.8125 C 8.46646,3.29103 8.752221,2.355231 8.625,1.25 C 8.45623,-0.216189 7.637835,-1.455829 6.6875,-1.71875 z M 7.9375,3.8125 C 7.80526,3.942867 7.655595,4.048217 7.5,4.125 C 7.660175,4.055033 7.80526,3.942868 7.9375,3.8125 z M 7.84375,0.3125 C 8.05736,0.312497 8.244101,0.583514 8.28125,0.90625 C 8.3184,1.228986 8.182359,1.5 7.96875,1.5 C 7.755141,1.500004 7.568399,1.228986 7.53125,0.90625 C 7.4941,0.583514 7.630141,0.3125 7.84375,0.3125 z M 5.3125,3.09375 C 5.37379,3.189083 5.432681,3.289629 5.5,3.375 C 5.433247,3.289734 5.373262,3.188747 5.3125,3.09375 z "
         id="path3517" />
      <path
         style="opacity:0.76699033;fill:#000000;fill-opacity:1;fill-rule:nonzero;stroke:none;stroke-width:0.2;stroke-linecap:round;stroke-linejoin:round;stroke-miterlimit:4;stroke-dasharray:none;stroke-opacity:1"
         d="M 11.5625,-0.15625 C 10.922425,0.376361 10.573006,1.483849 10.71875,2.75 C 10.913499,4.441881 11.9195,5.792936 13.03125,5.9375 C 13.632728,5.378204 13.954305,4.325683 13.8125,3.09375 C 13.621015,1.430226 12.650057,0.053132 11.5625,-0.15625 z M 13.03125,5.9375 C 12.890577,6.068307 12.729657,6.173327 12.5625,6.25 C 12.733059,6.179992 12.888846,6.069917 13.03125,5.9375 z M 12.78125,2.03125 C 13.036962,2.031252 13.268028,2.363652 13.3125,2.75 C 13.356972,3.13635 13.193212,3.4375 12.9375,3.4375 C 12.681788,3.437502 12.450722,3.136348 12.40625,2.75 C 12.361778,2.363654 12.525538,2.03125 12.78125,2.03125 z "
         id="path3519" />
    </g>
    <g
       id="g7708"
       transform="translate(-41.509497,-61.097816)">
      <path
         sodipodi:type="arc"
         style="opacity:1;fill:#000000;fill-opacity:1;fill-rule:nonzero;stroke:none;stroke-width:0.2;stroke-linecap:round;stroke-linejoin:round;stroke-miterlimit:4;stroke-dasharray:none;stroke-opacity:1"
         id="path6733"
         sodipodi:cx="11.329201"
         sodipodi:cy="15.789281"
         sodipodi:rx="2.5054963"
         sodipodi:ry="3.7854781"
         d="M 13.834697 15.789281 A 2.5054963 3.7854781 0 1 1  8.8237045,15.789281 A 2.5054963 3.7854781 0 1 1  13.834697 15.789281 z"
         transform="matrix(0.176785,0,2.0349345e-2,0.176785,48.059853,72.677062)" />
      <path
         transform="matrix(0.1848922,0,2.1282545e-2,0.1848922,50.430785,79.820029)"
         d="M 13.834697 15.789281 A 2.5054963 3.7854781 0 1 1  8.8237045,15.789281 A 2.5054963 3.7854781 0 1 1  13.834697 15.789281 z"
         sodipodi:ry="3.7854781"
         sodipodi:rx="2.5054963"
         sodipodi:cy="15.789281"
         sodipodi:cx="11.329201"
         id="path6735"
         style="opacity:1;fill:#000000;fill-opacity:1;fill-rule:nonzero;stroke:none;stroke-width:0.2;stroke-linecap:round;stroke-linejoin:round;stroke-miterlimit:4;stroke-dasharray:none;stroke-opacity:1"
         sodipodi:type="arc" />
      <path
         transform="matrix(0.1544499,0,1.7778415e-2,0.1544499,45.875969,78.469482)"
         d="M 13.834697 15.789281 A 2.5054963 3.7854781 0 1 1  8.8237045,15.789281 A 2.5054963 3.7854781 0 1 1  13.834697 15.789281 z"
         sodipodi:ry="3.7854781"
         sodipodi:rx="2.5054963"
         sodipodi:cy="15.789281"
         sodipodi:cx="11.329201"
         id="path6737"
         style="opacity:1;fill:#000000;fill-opacity:1;fill-rule:nonzero;stroke:none;stroke-width:0.2;stroke-linecap:round;stroke-linejoin:round;stroke-miterlimit:4;stroke-dasharray:none;stroke-opacity:1"
         sodipodi:type="arc" />
    </g>
    <path
       sodipodi:nodetypes="cccssssccccsssccsssssssssssccccssssssssscssccsssccccssscccsssc"
       id="path6703"
       d="M 6.1813519,19.235884 C 6.1307399,19.252978 6.0869329,19.285833 6.0563519,19.329634 L 5.1813519,20.360884 C 5.1680609,20.380152 5.1575419,20.401191 5.1501019,20.423384 C 4.9825249,20.751769 4.6488709,20.977995 4.4001019,21.423384 C 4.1471739,21.911388 3.9188669,22.420846 3.7126019,22.923384 C 3.7090379,22.932067 3.7161529,22.945952 3.7126019,22.954634 C 3.3211129,23.721456 2.8578509,24.468736 2.4313519,25.235884 C 1.9897699,25.956711 1.6553549,26.705481 1.4313519,27.517134 C 1.2499779,28.238107 1.4349649,28.923498 1.5251019,29.548384 C 1.6319779,30.661123 2.0893559,31.626042 2.6188519,32.548384 C 3.3302109,33.733401 4.3762329,34.599733 5.4313519,35.392134 C 6.3201049,36.057186 7.3004489,36.512316 8.3688519,36.767134 C 8.3792579,36.767786 8.3896959,36.767786 8.4001019,36.767134 C 9.9994219,37.030552 11.62992,36.969498 13.212603,36.798384 C 15.201575,36.507296 17.166444,36.052547 19.056353,35.360884 C 20.049566,35.035967 20.958923,34.562499 21.900103,34.204634 C 21.910509,34.205286 21.920947,34.205286 21.931353,34.204634 C 21.989124,34.174506 22.214719,34.108376 22.462603,34.048384 C 22.700196,33.990883 22.967645,33.930252 23.150103,33.892134 C 23.160186,33.890741 23.171269,33.893536 23.181353,33.892134 C 23.907161,33.7912 24.651184,33.653457 25.368853,33.517134 C 25.388796,33.513346 25.411428,33.520941 25.431353,33.517134 C 25.453546,33.509694 25.474585,33.499175 25.493853,33.485884 C 25.53297,33.46364 25.565359,33.431251 25.587603,33.392134 C 25.604153,33.363274 25.614777,33.331402 25.618853,33.298384 C 25.626536,33.214316 25.591278,33.132048 25.525103,33.079634 C 25.481806,33.041372 25.426594,33.019287 25.368853,33.017134 L 25.306353,33.017134 C 25.296214,33.019071 25.285246,33.015202 25.275103,33.017134 L 24.837603,33.048384 C 24.832693,33.04094 24.837613,33.017142 24.837603,33.017134 C 24.837555,33.017093 24.775185,32.98592 24.775103,32.985884 C 24.774939,32.985811 24.712904,32.985939 24.712603,32.985884 C 24.712,32.985774 24.689063,32.954876 24.681353,32.954634 C 24.673643,32.954392 24.654821,32.95453 24.650103,32.954634 C 24.640667,32.954841 24.62675,32.954116 24.618853,32.954634 C 24.603059,32.95567 24.609808,32.983781 24.587603,32.985884 C 24.580201,32.986585 24.564742,32.985052 24.556353,32.985884 C 24.514407,32.990046 24.469243,32.978224 24.400103,32.985884 C 24.234167,33.004268 23.967207,33.038746 23.618853,33.079634 C 22.551966,33.263359 21.458059,33.409793 20.400103,33.829634 C 19.448294,34.200704 18.536719,34.591994 17.587603,34.892134 C 17.576284,34.901608 17.565827,34.912065 17.556353,34.923384 C 16.197381,35.432263 15.269356,35.711201 14.306353,35.892134 C 12.7916,36.065115 8.7801851,36.313515 8.4938519,36.267134 C 8.4843339,36.264864 8.4721019,36.269433 8.4626019,36.267134 C 7.4633459,36.025278 6.5679929,35.633837 5.7438519,35.017134 C 4.7035009,34.235823 3.7117609,33.390199 3.0563519,32.298384 C 2.5405439,31.399884 2.1215939,30.490505 2.0251019,29.485884 C 1.9299509,28.826232 1.7888199,28.208709 1.9313519,27.642134 C 2.1428269,26.875875 2.4497799,26.169967 2.8688519,25.485884 C 3.2945549,24.720167 3.7452379,23.969212 4.1501019,23.173384 C 4.1507539,23.162978 4.1507539,23.15254 4.1501019,23.142134 C 4.3547989,22.641723 4.5888959,22.153244 4.8376019,21.673384 C 5.0136389,21.358213 5.3231279,21.102636 5.5563519,20.673384 L 5.5876019,20.642134 L 6.3063519,19.767134 C 6.3194499,19.77787 6.3192689,19.772987 6.3376019,19.798384 C 6.3852679,19.864417 6.8522459,19.667293 6.7438519,19.517134 C 6.6354579,19.366975 6.4563869,19.235881 6.2438519,19.235884 C 6.2231009,19.23327 6.2021029,19.23327 6.1813519,19.235884 z "
       style="fill:#00892c;fill-opacity:1;fill-rule:nonzero;stroke:none;stroke-width:0.5;stroke-linecap:round;stroke-linejoin:round;stroke-miterlimit:4;stroke-dasharray:none;stroke-opacity:1" />
    <path
       sodipodi:nodetypes="cssssssscccccccssscccccssscsss"
       id="path6705"
       d="M 6.2053519,19.842246 C 6.2190529,19.963145 6.2009289,20.075378 6.1741019,20.127911 C 6.1472749,20.180444 6.1439279,20.159651 6.1428519,20.159651 C 6.1221009,20.156996 6.1011029,20.156996 6.0803519,20.159651 C 6.0131389,20.178036 5.9565149,20.224047 5.9241019,20.286614 C 5.7897369,20.526387 5.6508329,20.773182 5.5178519,21.016647 C 5.2388759,21.508474 5.0403669,22.013946 4.8303519,22.508453 C 4.8266729,22.517116 4.8340389,22.531536 4.8303519,22.540194 C 4.4443599,23.33215 3.9304649,24.087769 3.4866019,24.888995 C 3.0637849,25.612362 2.7499219,26.399809 2.5491019,27.206056 C 2.4047709,27.895868 2.4960269,28.568075 2.5803519,29.205711 C 2.7055779,30.30436 3.1284219,31.291509 3.6428519,32.221065 C 4.3423769,33.43009 5.3835869,34.280151 6.4553519,35.045975 C 7.2332589,35.635107 8.1259689,35.974529 9.0491023,36.220375 C 9.9379109,36.19399 11.492005,36.094863 12.955353,35.966451 C 11.817474,36.046895 10.667654,36.049589 9.5491026,35.871229 C 9.5396076,35.86914 9.5273366,35.873352 9.5178526,35.871229 C 8.5211939,35.648121 7.5858899,35.252872 6.7678519,34.633347 C 6.7685039,34.622778 6.7685039,34.612176 6.7678519,34.601607 C 5.7105969,33.846151 4.7196829,33.072127 4.0803519,31.96714 C 3.5828699,31.06821 3.1947339,30.145741 3.0803519,29.14223 C 2.9962629,28.506373 2.9272429,27.915429 3.0491019,27.333018 C 3.2389719,26.570731 3.5282809,25.820103 3.9241019,25.14292 C 4.3594339,24.357093 4.8603389,23.604268 5.2678519,22.762377 C 5.2685039,22.751808 5.2685039,22.741206 5.2678519,22.730637 C 5.4854819,22.219539 5.6944769,21.730486 5.9553519,21.270571 C 6.0862009,21.031011 6.2269329,20.780854 6.3616019,20.540538 C 6.4548399,20.481457 6.5643549,20.442616 6.6116019,20.350095 C 6.6969099,20.183043 6.7287999,19.985667 6.7053519,19.778765 C 6.6822449,19.574867 6.1913099,19.718341 6.2053519,19.842246 z "
       style="fill:#e3ad00;fill-opacity:1;fill-rule:nonzero;stroke:none;stroke-width:0.5;stroke-linecap:round;stroke-linejoin:round;stroke-miterlimit:4;stroke-dasharray:none;stroke-opacity:1" />
    <path
       id="path6707"
       d="M 6.2405019,19.589684 C 6.1927269,19.605818 6.1443729,19.642093 6.1155019,19.683434 L 5.2717519,20.652184 C 5.2591949,20.670381 5.2475219,20.693721 5.2405019,20.714684 C 5.0822839,21.024709 4.7878659,21.23168 4.5530019,21.652184 C 4.3142049,22.112917 4.0914969,22.615226 3.8967519,23.089684 C 3.8933959,23.097891 3.9001079,23.112746 3.8967519,23.120934 C 3.5271459,23.844912 3.0806659,24.521656 2.6780019,25.245934 C 2.2610939,25.926469 1.9519949,26.635891 1.7405019,27.402184 C 1.5692679,28.082867 1.7491549,28.749718 1.8342519,29.339684 C 1.9351569,30.390246 2.3656009,31.281382 2.8655019,32.152184 C 3.2373939,32.771695 3.7270389,33.302944 4.2405019,33.777184 C 3.7805969,33.331638 3.3807069,32.854341 3.0530019,32.308434 C 2.5371949,31.409932 2.1182439,30.500555 2.0217519,29.495934 C 1.9266019,28.83628 1.7854699,28.218759 1.9280019,27.652184 C 2.1394779,26.885923 2.4464299,26.180017 2.8655019,25.495934 C 3.2912059,24.730215 3.7418879,23.979262 4.1467519,23.183434 C 4.1474049,23.173026 4.1474039,23.16259 4.1467519,23.152184 C 4.3514499,22.651771 4.5855459,22.163294 4.8342519,21.683434 C 5.0102899,21.368265 5.3197779,21.112686 5.5530019,20.683434 L 5.5842519,20.652184 L 6.3030019,19.777184 C 6.3161009,19.787922 6.3159189,19.783037 6.3342519,19.808434 C 6.3607009,19.845075 6.5007829,19.787109 6.6155019,19.714684 C 6.5239499,19.645175 6.3956859,19.589682 6.2717519,19.589684 C 6.2521619,19.587205 6.2600979,19.587205 6.2405019,19.589684 z M 4.2405019,33.777184 C 4.6326779,34.139402 5.0381849,34.459347 5.4592519,34.777184 C 5.0441319,34.456095 4.6118189,34.136908 4.2405019,33.777184 z M 24.396753,32.995934 C 24.230818,33.014316 23.963857,33.048796 23.615503,33.089684 C 22.548617,33.273407 21.454709,33.419843 20.396753,33.839684 C 19.444945,34.210752 18.533369,34.602044 17.584253,34.902184 C 17.572935,34.911656 17.562477,34.922115 17.553003,34.933434 C 16.194032,35.442311 15.266006,35.721251 14.303003,35.902184 C 12.992121,36.051882 10.164776,36.223206 9.1467523,36.245934 C 10.390661,36.364438 11.64118,36.315797 12.865503,36.183434 C 14.743323,35.908605 16.612459,35.461442 18.396753,34.808434 C 19.334468,34.501668 20.164413,34.052539 21.053003,33.714684 C 21.062825,33.715291 21.074432,33.715291 21.084253,33.714684 C 21.138799,33.686236 21.350229,33.646316 21.584253,33.589684 C 21.808572,33.535395 22.068245,33.469422 22.240503,33.433434 C 22.250016,33.432113 22.26223,33.434761 22.271753,33.433434 C 22.957003,33.338137 23.656694,33.218387 24.334253,33.089684 C 24.353085,33.086107 24.377938,33.093281 24.396753,33.089684 C 24.4177,33.082665 24.441065,33.07099 24.459253,33.058434 C 24.483882,33.044436 24.503736,33.01749 24.521753,32.995934 C 24.486502,32.995283 24.452065,32.989806 24.396753,32.995934 z "
       style="opacity:0.50485439;fill:#2e3436;fill-opacity:1;fill-rule:nonzero;stroke:none;stroke-width:0.5;stroke-linecap:round;stroke-linejoin:round;stroke-miterlimit:4;stroke-dasharray:none;stroke-opacity:1" />
    <path
       style="opacity:0.5533981;fill:#2e3436;fill-opacity:1;fill-rule:nonzero;stroke:none;stroke-width:0.5;stroke-linecap:round;stroke-linejoin:round;stroke-miterlimit:4;stroke-dasharray:none;stroke-opacity:1"
       d="M 6.5842519,19.964684 C 6.4665729,19.989262 6.3588319,20.030826 6.3655019,20.089684 C 6.3785169,20.204542 6.3597399,20.321025 6.3342519,20.370934 C 6.3087649,20.420847 6.3040239,20.402184 6.3030019,20.402184 C 6.2832869,20.399665 6.2602179,20.399666 6.2405019,20.402184 C 6.1766459,20.419653 6.1462949,20.467744 6.1155019,20.527184 C 5.9878529,20.754982 5.8355909,21.014636 5.7092519,21.245934 C 5.4442069,21.713199 5.2525319,22.151127 5.0530019,22.620934 C 5.0495129,22.629157 5.0565089,22.643958 5.0530019,22.652184 C 4.6862979,23.404585 4.2246979,24.140978 3.8030019,24.902184 C 3.4013079,25.589415 3.0875459,26.354955 2.8967519,27.120934 C 2.7596319,27.776287 2.8478889,28.421395 2.9280019,29.027184 C 3.0469739,30.07096 3.4392669,30.987807 3.9280019,31.870934 C 4.5925909,33.019575 5.5972779,33.799616 6.6155019,34.527184 C 6.6652459,34.564857 6.7210439,34.585366 6.7717519,34.620934 C 6.7724029,34.610365 6.7724039,34.600253 6.7717519,34.589684 C 5.7144959,33.834226 4.7235829,33.069671 4.0842519,31.964684 C 3.5867689,31.065753 3.1986339,30.155695 3.0842519,29.152184 C 3.0001619,28.516327 2.9311429,27.922095 3.0530019,27.339684 C 3.2428709,26.577397 3.5321809,25.829367 3.9280019,25.152184 C 4.3633329,24.366357 4.8642389,23.619075 5.2717519,22.777184 C 5.2724029,22.766615 5.2724039,22.756503 5.2717519,22.745934 C 5.4893809,22.234836 5.6983769,21.737099 5.9592519,21.277184 C 6.0900999,21.037624 6.2308329,20.7675 6.3655019,20.527184 C 6.4587389,20.468104 6.5682549,20.432205 6.6155019,20.339684 C 6.6723729,20.228317 6.7004309,20.096845 6.7092519,19.964684 C 6.6733239,19.962612 6.6234779,19.956491 6.5842519,19.964684 z M 25.803003,32.058434 C 25.115026,32.098579 24.483592,32.154159 24.271753,32.214684 C 23.642632,32.394432 23.825079,32.26492 23.521753,32.433434 C 23.218427,32.601948 23.084253,32.870934 23.084253,32.870934 L 22.084253,33.370934 C 22.084253,33.370934 21.827777,33.606609 20.771753,34.089684 C 19.71573,34.572758 18.225001,35.218559 17.865503,35.308434 C 17.506006,35.39831 17.126196,35.692608 15.834253,35.995934 C 14.54231,36.299262 14.430552,36.448544 12.678003,36.527184 C 11.181572,36.594333 9.6912787,36.402888 9.2092524,36.339684 C 9.6976417,36.426118 10.605474,36.585417 11.740503,36.652184 C 12.799843,36.714497 13.65917,36.686071 14.209253,36.652184 C 15.85943,36.362438 18.321297,35.760015 19.896753,35.183434 C 20.889967,34.858515 22.361823,33.978799 23.303003,33.620934 C 23.313411,33.621584 23.323847,33.621586 23.334253,33.620934 C 23.392026,33.590804 23.617619,33.524676 23.865503,33.464684 C 24.103098,33.407181 24.370545,33.346552 24.553003,33.308434 C 24.563088,33.307039 24.574169,33.309836 24.584253,33.308434 C 25.310063,33.207498 26.054084,33.069757 26.771753,32.933434 C 26.791698,32.929644 26.814328,32.937241 26.834253,32.933434 C 26.856448,32.925992 26.877485,32.915475 26.896753,32.902184 C 26.935872,32.879938 26.968259,32.847551 26.990503,32.808434 C 27.007055,32.779572 27.017677,32.747702 27.021753,32.714684 C 27.029438,32.630614 26.994178,32.548348 26.928003,32.495934 C 26.884708,32.45767 26.829494,32.435587 26.771753,32.433434 L 26.709253,32.433434 C 26.699116,32.435369 26.688146,32.431502 26.678003,32.433434 L 26.240503,32.464684 C 26.235595,32.457238 26.240513,32.433442 26.240503,32.433434 C 26.240457,32.433391 26.178085,32.40222 26.178003,32.402184 C 26.177841,32.402109 26.115804,32.402239 26.115503,32.402184 C 26.114902,32.402072 26.091963,32.371176 26.084253,32.370934 C 26.076545,32.37069 26.057721,32.37083 26.053003,32.370934 C 26.043569,32.371139 26.02965,32.370416 26.021753,32.370934 C 26.005961,32.371968 26.012708,32.400081 25.990503,32.402184 C 25.983103,32.402883 25.967642,32.401352 25.959253,32.402184 C 25.917309,32.406344 25.872143,32.394524 25.803003,32.402184 C 25.677113,32.41613 25.442869,32.436438 25.209253,32.464684 C 25.33322,32.433425 25.464858,32.409545 25.615503,32.370934 C 25.651099,32.357503 25.683165,32.336129 25.709253,32.308434 C 25.775426,32.256018 25.810686,32.173752 25.803003,32.089684 C 25.80178,32.079778 25.805388,32.068083 25.803003,32.058434 z M 24.240503,32.402184 L 24.334253,32.402184 C 24.206517,32.509089 24.05508,32.586285 23.928003,32.683434 C 23.758585,32.714029 23.597446,32.741963 23.428003,32.777184 C 23.618174,32.576054 23.894692,32.5091 24.240503,32.402184 z "
       id="path6709" />
    <path
       sodipodi:nodetypes="cccccccsccccccsssssssssccsscsscccccsccssc"
       id="path6711"
       d="M 11.254453,20.954634 C 11.192431,20.965117 11.136639,20.998592 11.098203,21.048384 L 10.379453,22.079634 L 10.410703,22.079634 C 9.7115407,22.938556 8.8843191,23.761852 8.1294519,24.610884 C 7.2525649,25.620416 6.6050599,26.729501 6.0044519,27.892134 C 5.3696589,29.019978 5.0790079,30.244842 4.9107019,31.485884 C 4.7148289,32.659281 4.9262809,33.614275 5.5982019,34.579634 C 5.6086079,34.580286 5.6190459,34.580286 5.6294519,34.579634 C 6.5101919,35.659973 7.6341789,36.38527 8.9419522,36.798384 C 10.65887,37.218113 12.434563,37.214342 14.160703,37.079634 C 16.610745,36.788866 18.941473,36.000575 21.223203,35.204634 C 21.223855,35.194228 21.223855,35.18379 21.223203,35.173384 C 23.019164,34.488908 24.787698,33.827375 26.598203,33.204634 C 26.598855,33.194228 26.598855,33.18379 26.598203,33.173384 C 26.730253,33.123931 26.85284,33.065234 26.973203,33.017134 C 27.002434,33.005453 27.039051,32.996333 27.066953,32.985884 C 27.077359,32.986536 27.087797,32.986536 27.098203,32.985884 C 27.159803,32.953471 27.205103,32.896847 27.223203,32.829634 C 27.229114,32.798664 27.229114,32.766854 27.223203,32.735884 C 27.219127,32.702866 27.208503,32.670994 27.191953,32.642134 C 27.169709,32.603017 27.13732,32.570628 27.098203,32.548384 C 27.069343,32.531834 27.037471,32.52121 27.004453,32.517134 C 26.994047,32.516482 26.983609,32.516482 26.973203,32.517134 L 25.660703,32.579634 C 25.627685,32.58371 25.595813,32.594334 25.566953,32.610884 C 25.440696,32.660682 25.286595,32.705155 25.129453,32.767134 C 23.346879,33.4157 21.611915,34.114835 19.848203,34.767134 C 18.140042,35.358712 16.380945,35.991188 15.285703,36.204634 C 15.27523,36.205533 15.264928,36.203748 15.254453,36.204634 C 13.583615,36.345887 9.3728385,36.373163 9.0669523,36.298384 C 7.8452809,35.912468 6.8515429,35.260445 6.0357019,34.267134 C 5.4186429,33.380597 5.2310809,32.624423 5.4107019,31.548384 C 5.5746039,30.339816 5.8509629,29.192152 6.4419519,28.142134 C 7.0354859,26.993195 7.6682949,25.886024 8.5044519,24.923384 C 9.2451574,24.09028 10.063683,23.279138 10.785703,22.392134 C 10.796109,22.392786 10.806547,22.392786 10.816953,22.392134 L 11.410703,21.548384 C 11.43,21.564977 11.450902,21.548883 11.473203,21.579634 C 11.538514,21.669691 11.553133,20.954636 11.316953,20.954634 C 11.296202,20.95202 11.275204,20.95202 11.254453,20.954634 z "
       style="fill:#00892c;fill-opacity:1;fill-rule:nonzero;stroke:none;stroke-width:0.5;stroke-linecap:round;stroke-linejoin:round;stroke-miterlimit:4;stroke-dasharray:none;stroke-opacity:1" />
    <path
       sodipodi:nodetypes="csssssssssccscsscccccsccs"
       id="path6713"
       d="M 11.417403,21.735336 C 11.416751,21.74593 11.416751,21.756556 11.417403,21.767149 C 11.406084,21.776794 11.395627,21.787439 11.386153,21.798962 C 11.36533,21.867771 11.345479,21.900152 11.323653,21.926215 C 11.31274,21.939245 11.326973,21.955766 11.323653,21.958028 C 11.320333,21.96029 11.292656,21.958004 11.292403,21.958028 C 11.271939,21.959514 11.230616,21.957875 11.229903,21.958028 C 11.229368,21.958142 11.199085,21.989625 11.198653,21.989841 C 11.198221,21.990056 11.105216,22.021321 11.104903,22.021654 C 10.467303,22.700589 9.8396478,23.405116 9.2299024,24.121315 C 8.3621849,25.143585 7.6932369,26.264077 7.0736519,27.429872 C 6.4590789,28.562015 6.1526629,29.803652 6.0111519,31.056559 C 5.8327299,32.195261 6.0269229,33.166602 6.6674019,34.110611 C 6.6778079,34.111275 6.6882459,34.111275 6.6986519,34.110611 C 7.5125549,35.115988 8.5561879,35.769201 9.7299028,36.178459 C 9.7460798,36.178685 9.7446068,36.17825 9.7611528,36.178459 C 10.796125,36.191522 12.479872,36.17041 13.823653,36.114833 C 12.570982,36.148389 11.320107,36.065245 10.104903,35.76489 C 8.9029772,35.387246 7.9065129,34.774267 7.1049019,33.792481 C 6.5235209,32.935575 6.3481159,32.160695 6.5111519,31.120185 C 6.6476289,29.911847 6.9375489,28.741043 7.5111519,27.684376 C 8.1236309,26.531952 8.7738071,25.418572 9.6049027,24.439445 C 10.204828,23.734781 10.843135,23.08146 11.479903,22.40341 L 11.511153,22.40341 C 11.583364,22.366375 11.416751,21.724743 11.417403,21.735336 z "
       style="fill:#e3ad00;fill-opacity:1;fill-rule:nonzero;stroke:none;stroke-width:0.5;stroke-linecap:round;stroke-linejoin:round;stroke-miterlimit:4;stroke-dasharray:none;stroke-opacity:1" />
    <path
       id="path6715"
       d="M 11.428003,22.096071 C 11.417331,22.105165 11.405687,22.117021 11.396753,22.127884 C 11.377128,22.192754 11.354828,22.198754 11.334253,22.223323 C 11.323971,22.235609 11.337384,22.253002 11.334253,22.255136 C 11.331123,22.257269 11.30324,22.255113 11.303003,22.255136 C 11.283708,22.256539 11.24118,22.254992 11.240503,22.255136 C 11.240003,22.25524 11.209667,22.286742 11.209253,22.286949 C 11.208849,22.287157 11.115799,22.318448 11.115503,22.318762 C 10.514456,22.958768 9.9402869,23.616037 9.3655025,24.291171 C 8.5475299,25.254845 7.9183139,26.341701 7.3342519,27.440663 C 6.7549119,28.507895 6.4676539,29.663583 6.3342519,30.844658 C 6.1660639,31.918085 6.3242429,32.81795 6.9280019,33.707833 C 6.9378149,33.708462 6.9494399,33.70846 6.9592519,33.707833 C 7.1910109,33.994116 7.4718109,34.242833 7.7405019,34.471346 C 7.5155769,34.269915 7.3159049,34.048719 7.1155019,33.803272 C 6.5341219,32.946363 6.3587159,32.171486 6.5217519,31.130976 C 6.6582299,29.922635 6.9481489,28.751834 7.5217519,27.695167 C 8.1342319,26.54274 8.7844071,25.429363 9.6155027,24.450236 C 10.215429,23.745569 10.853735,23.092251 11.490503,22.414201 C 11.462188,22.255985 11.435762,22.122854 11.428003,22.096071 z M 7.7405019,34.471346 C 7.9711849,34.667533 8.2048939,34.854712 8.4592519,35.012167 C 8.2094729,34.850581 7.9654269,34.672777 7.7405019,34.471346 z "
       style="opacity:0.46601945;fill:#2e3436;fill-opacity:1;fill-rule:nonzero;stroke:none;stroke-width:0.5;stroke-linecap:round;stroke-linejoin:round;stroke-miterlimit:4;stroke-dasharray:none;stroke-opacity:1" />
    <path
       id="path6717"
       d="M 11.428003,21.214684 C 11.368239,21.224779 11.308794,21.260451 11.271753,21.308434 L 10.584253,22.277184 L 10.615503,22.277184 C 9.9417559,23.104886 9.1554373,23.896513 8.4280019,24.714684 C 7.5829829,25.687534 6.9442849,26.781806 6.3655019,27.902184 C 5.7537839,28.989042 5.4651879,30.14375 5.3030019,31.339684 C 5.1142469,32.470438 5.3429979,33.409414 5.9905019,34.339684 C 6.0005309,34.340315 6.0117239,34.340316 6.0217519,34.339684 C 6.8704789,35.380762 7.9490079,36.066582 9.2092524,36.464684 C 10.863772,36.869159 12.577102,36.875746 14.240503,36.745934 C 16.601508,36.465732 18.822949,35.700449 21.021753,34.933434 C 21.022388,34.923409 21.022387,34.912212 21.021753,34.902184 C 22.752447,34.242584 24.464547,33.59604 26.209253,32.995934 C 26.209886,32.985907 26.209887,32.974712 26.209253,32.964684 C 26.336505,32.91703 26.468264,32.886038 26.584253,32.839684 C 26.612423,32.828427 26.651109,32.818505 26.678003,32.808434 C 26.688031,32.809066 26.699225,32.809068 26.709253,32.808434 C 26.76862,32.777198 26.78556,32.716958 26.803003,32.652184 C 26.808699,32.62234 26.808698,32.588279 26.803003,32.558434 C 26.801824,32.548888 26.805301,32.536482 26.803003,32.527184 L 25.646753,32.589684 C 25.613735,32.593758 25.581863,32.604384 25.553003,32.620934 C 25.426746,32.67073 25.272645,32.715205 25.115503,32.777184 C 23.332929,33.425748 21.597965,34.124885 19.834253,34.777184 C 18.126092,35.36876 16.366995,36.001238 15.271753,36.214684 C 15.26128,36.215581 15.250978,36.213798 15.240503,36.214684 C 13.569665,36.355935 9.3588885,36.383213 9.0530023,36.308434 C 7.8313309,35.922516 6.8375929,35.270495 6.0217519,34.277184 C 5.4046929,33.390645 5.2171309,32.634473 5.3967519,31.558434 C 5.5606539,30.349864 5.8370129,29.202202 6.4280019,28.152184 C 7.0215359,27.003243 7.6543449,25.896074 8.4905019,24.933434 C 9.2312074,24.100328 10.049733,23.289188 10.771753,22.402184 C 10.782159,22.402838 10.792597,22.402836 10.803003,22.402184 L 11.396753,21.558434 C 11.41605,21.575029 11.436952,21.558933 11.459253,21.589684 C 11.498151,21.643322 11.529845,21.411069 11.490503,21.214684 C 11.470509,21.212159 11.447998,21.21216 11.428003,21.214684 z "
       style="opacity:0.50970878;fill:#2e3436;fill-opacity:1;fill-rule:nonzero;stroke:none;stroke-width:0.5;stroke-linecap:round;stroke-linejoin:round;stroke-miterlimit:4;stroke-dasharray:none;stroke-opacity:1" />
    <path
       sodipodi:nodetypes="cccsssssssccsscsscssssccsccccsssccsc"
       id="path6697"
       d="M 8.7818021,14.36472 L 8.750552,14.461584 L 8.750552,14.493871 C 8.716805,14.542249 8.657438,14.574617 8.6255519,14.623022 C 8.5345709,14.761139 8.4400709,14.928486 8.3443019,15.07505 C 7.9900729,15.661255 7.7441379,16.298503 7.5005519,16.91545 C 7.4901459,16.914776 7.4797079,16.914776 7.4693019,16.91545 C 7.3442789,17.292515 7.2240299,17.683098 7.0630519,18.045519 C 7.0526459,18.044846 7.0422079,18.044846 7.0318019,18.045519 C 6.8650519,18.523321 6.9192509,19.022543 6.9068019,19.433891 C 6.8801009,20.329216 6.8449419,21.209363 6.8443019,22.113771 C 6.8074989,23.453105 6.8204269,24.775318 7.0005519,26.117447 C 7.1418749,26.929338 7.3571739,27.761529 7.6568019,28.539025 C 8.0287369,29.497362 8.6157549,30.32116 9.2193024,31.089755 C 9.8708409,31.922979 10.6724,32.550001 11.500553,33.12388 C 12.407776,33.802229 13.426194,34.033528 14.469303,34.221663 C 13.426194,34.033528 17.087583,34.012822 18.313053,34.027936 C 17.087583,34.012822 15.864237,33.944527 14.656803,33.769635 C 13.591881,33.585665 12.635029,33.342115 11.781803,32.70414 C 11.772329,32.692445 11.761872,32.681641 11.750553,32.671852 C 10.936986,32.108082 10.196407,31.536882 9.5943027,30.766878 C 9.0004792,30.010665 8.4345149,29.221899 8.0943019,28.345299 C 7.8112919,27.610925 7.6378169,26.841451 7.5005519,26.052872 C 7.3260949,24.75297 7.3078789,23.439291 7.3443019,22.113771 C 7.3449319,21.223034 7.3799989,20.332667 7.4068019,19.433891 C 7.4203669,18.985655 7.4126959,18.580527 7.5318019,18.239246 L 7.5005519,18.239246 C 7.6682819,17.861622 7.8387989,17.502769 7.9693019,17.109176 L 7.9380519,17.109176 C 8.1794699,16.49772 8.4555909,15.873191 8.7818021,15.333352 C 8.8717711,15.195665 8.9669332,15.091815 9.0630523,14.945899 C 9.1127013,14.870528 9.1372803,14.788623 9.1880524,14.719885 C 9.2157474,14.692931 9.2371234,14.659802 9.2505524,14.623022 L 9.2818024,14.461584 C 9.2824544,14.450832 9.2824544,14.440047 9.2818024,14.429296 C 9.3000864,14.314802 8.7899361,14.313788 8.7818021,14.36472 z "
       style="fill:#e3ad00;fill-opacity:1;fill-rule:nonzero;stroke:none;stroke-width:0.5;stroke-linecap:round;stroke-linejoin:round;stroke-miterlimit:4;stroke-dasharray:none;stroke-opacity:1" />
    <path
       sodipodi:nodetypes="ccccsssscccscccccsssssssccsssssssssscccssssssssssscssscscccccccccsssccccccssc"
       id="path6695"
       d="M 8.695302,13.735884 C 8.64469,13.752978 8.6008829,13.785833 8.5703019,13.829634 L 7.7578019,14.860884 C 7.5593559,15.129885 7.3625889,15.448492 7.1953019,15.704634 C 6.8863879,16.285461 6.6353099,16.888747 6.3828019,17.485884 C 6.3723959,17.485232 6.3619579,17.485232 6.3515519,17.485884 C 6.2217839,17.850315 6.0855709,18.223894 5.9140519,18.579634 C 5.9027329,18.589108 5.8922759,18.599565 5.8828019,18.610884 C 5.7614669,19.070805 5.7754879,19.532233 5.7578019,19.954634 C 5.7655439,20.82268 5.7869339,21.686407 5.7890519,22.548384 C 5.7789129,23.849579 5.7970029,25.148109 5.9765519,26.454634 C 6.1153479,27.228806 6.2276139,28.053355 6.5703019,28.829634 C 6.9747349,29.745988 7.5492779,30.558218 8.1328019,31.329634 C 8.7917541,32.13354 9.5801286,32.791183 10.414053,33.360884 L 10.414053,33.329634 L 10.445303,33.329634 C 11.402382,34.041657 12.525957,34.334428 13.632803,34.517134 C 14.839992,34.695196 16.049029,34.764341 17.257803,34.798384 C 17.268757,34.799332 17.278122,34.797503 17.289053,34.798384 C 18.338846,34.882992 19.279487,34.666275 20.257803,34.485884 C 20.291138,34.479602 20.415268,34.472395 20.507803,34.454634 C 20.546037,34.447169 20.623154,34.405039 20.695303,34.392134 C 20.716054,34.394748 20.737052,34.394748 20.757803,34.392134 C 20.800684,34.384516 20.832476,34.395549 20.851553,34.392134 C 20.862741,34.389905 20.871584,34.394394 20.882803,34.392134 C 20.882803,34.392134 20.914053,34.360884 20.914053,34.360884 C 21.425317,34.256527 21.970423,34.147426 22.257803,34.048384 C 22.258455,34.037978 22.258455,34.02754 22.257803,34.017134 C 22.685423,33.837967 23.012156,33.557223 23.320303,33.298384 C 23.331622,33.28891 23.342079,33.278453 23.351553,33.267134 C 23.516918,33.075046 23.8228,33.050109 24.195303,32.954634 C 24.230901,32.941205 24.262965,32.919829 24.289053,32.892134 C 24.355228,32.83972 24.390486,32.757452 24.382803,32.673384 C 24.378727,32.640366 24.368103,32.608494 24.351553,32.579634 C 24.329309,32.540517 24.29692,32.508128 24.257803,32.485884 C 24.238535,32.472593 24.217496,32.462074 24.195303,32.454634 C 24.174552,32.45202 24.153554,32.45202 24.132803,32.454634 L 24.070303,32.454634 L 22.757803,32.485884 C 22.737052,32.48327 22.716054,32.48327 22.695303,32.485884 C 22.360498,32.589397 21.940635,32.707347 21.632803,33.048384 C 21.621953,33.060405 21.612137,33.066995 21.601553,33.079634 C 21.321053,33.300181 21.028406,33.487776 20.726553,33.610884 C 20.707548,33.616665 20.71308,33.636769 20.695303,33.642134 C 20.492803,33.703253 20.352872,33.732924 20.257803,33.767134 C 20.181227,33.781433 20.029827,33.807513 19.914053,33.829634 C 19.903838,33.831586 19.892866,33.827662 19.882803,33.829634 C 19.761623,33.83878 19.557764,33.87045 19.289053,33.892134 C 19.006347,33.914948 18.695157,33.912219 18.601553,33.892134 C 18.580802,33.88952 18.559804,33.88952 18.539053,33.892134 C 17.313583,33.877505 13.652194,33.897546 14.695303,34.079634 C 14.363506,34.045712 14.025633,34.065858 13.695303,34.017134 C 12.602507,33.836747 11.584867,33.60135 10.726553,32.954634 C 10.727205,32.944228 10.727205,32.93379 10.726553,32.923384 C 9.9131029,32.367669 9.1222023,31.766686 8.5078019,31.017134 C 7.9298639,30.253102 7.3850689,29.496936 7.0078019,28.642134 C 6.7040499,27.954057 6.6185539,27.184186 6.4765519,26.392134 C 6.3024249,25.125063 6.2789749,23.841657 6.2890519,22.548384 C 6.2869159,21.678981 6.2654959,20.8174 6.2578019,19.954634 C 6.2761779,19.515773 6.2838269,19.111053 6.3828019,18.735884 C 6.5512299,18.384962 6.7176199,18.049509 6.8515519,17.673384 L 6.8203019,17.673384 C 7.0708919,17.080781 7.3353179,16.513969 7.6328019,15.954634 C 7.8101729,15.68305 7.9575359,15.410963 8.1328019,15.173384 L 8.8203021,14.298384 C 8.8400141,14.312086 8.8579481,14.296758 8.8828021,14.329634 C 8.9392882,14.404351 9.4108105,14.178191 9.2890524,14.017134 C 9.1672943,13.856077 8.9778182,13.735882 8.757802,13.735884 C 8.737051,13.73327 8.716053,13.73327 8.695302,13.735884 z M 22.820303,32.985884 L 22.914053,32.985884 C 22.63604,33.218561 22.370227,33.45397 22.070303,33.579634 L 22.070303,33.548384 C 21.966699,33.58409 21.700082,33.654772 21.507803,33.704634 C 21.650659,33.606189 21.815411,33.526148 21.945303,33.423384 C 21.956622,33.41391 21.967079,33.403453 21.976553,33.392134 C 22.16689,33.164851 22.456291,33.098427 22.820303,32.985884 z "
       style="fill:#00892c;fill-opacity:1;fill-rule:nonzero;stroke:none;stroke-width:0.5;stroke-linecap:round;stroke-linejoin:round;stroke-miterlimit:4;stroke-dasharray:none;stroke-opacity:1" />
    <path
       id="path6701"
       d="M 9.1467523,14.662801 C 9.0264122,14.654986 8.9318742,14.670815 8.9280022,14.695088 L 8.8967521,14.791951 L 8.8967521,14.824239 C 8.8645951,14.870345 8.8021481,14.874971 8.7717521,14.921102 C 8.68505,15.052729 8.5817709,15.233447 8.4905019,15.37313 C 8.1529119,15.931813 7.9101509,16.528691 7.6780019,17.116667 C 7.5588499,17.476023 7.4251699,17.836757 7.2717519,18.182161 C 7.2618359,18.18152 7.2504179,18.181518 7.2405019,18.182161 C 7.0815829,18.637523 7.1273609,19.11393 7.1155019,19.505957 C 7.0900509,20.359243 7.0536119,21.227031 7.0530019,22.088974 C 7.0179299,23.365407 7.0375779,24.61982 7.2092519,25.898924 C 7.3439339,26.67269 7.5486939,27.450361 7.8342519,28.191351 C 8.1887179,29.104684 8.759045,29.912713 9.3342525,30.645217 C 9.9551919,31.439313 10.70124,32.035557 11.490503,32.58248 C 11.706657,32.744104 11.94989,32.855551 12.178003,32.969933 C 12.038285,32.887632 11.9063,32.812234 11.771753,32.711631 C 11.762277,32.699934 11.751822,32.689132 11.740503,32.679343 C 10.926934,32.115571 10.186357,31.544373 9.5842526,30.774368 C 8.9904272,30.018154 8.4244649,29.229389 8.0842519,28.35279 C 7.8012399,27.618413 7.6277669,26.848942 7.4905019,26.060362 C 7.3160429,24.760458 7.2978289,23.446781 7.3342519,22.121262 C 7.3348799,21.230527 7.3699489,20.340158 7.3967519,19.441382 C 7.4103149,18.993148 7.4026459,18.588018 7.5217519,18.246736 L 7.4905019,18.246736 C 7.6582299,17.869115 7.8287489,17.510259 7.9592519,17.116667 L 7.9280019,17.116667 C 8.1694179,16.505213 8.4455409,15.880682 8.7717521,15.340843 C 8.8617191,15.203157 8.9568832,15.099306 9.0530023,14.95339 C 9.1026493,14.878021 9.1272303,14.796114 9.1780024,14.727376 C 9.1950444,14.71079 9.1973744,14.683477 9.2092524,14.662801 C 9.1904264,14.660466 9.1662673,14.664067 9.1467523,14.662801 z "
       style="opacity:0.54368932;fill:#555753;fill-opacity:1;fill-rule:nonzero;stroke:none;stroke-width:0.5;stroke-linecap:round;stroke-linejoin:round;stroke-miterlimit:4;stroke-dasharray:none;stroke-opacity:1" />
    <path
       id="path6699"
       d="M 8.8030021,14.058434 C 8.754777,14.074724 8.738392,14.110451 8.709252,14.152184 L 7.9280019,15.120934 C 7.7389059,15.377253 7.5561519,15.689381 7.3967519,15.933434 C 7.1024139,16.486869 6.8561079,17.051957 6.6155019,17.620934 C 6.6055899,17.620313 6.5941739,17.620315 6.5842519,17.620934 C 6.4606109,17.96817 6.3414359,18.313219 6.1780019,18.652184 C 6.1672209,18.661205 6.1557799,18.672654 6.1467519,18.683434 C 6.0311379,19.121664 6.0386019,19.562204 6.0217519,19.964684 C 6.0291299,20.791788 6.0509829,21.612113 6.0530019,22.433434 C 6.0433479,23.673259 6.0381729,24.938531 6.2092519,26.183434 C 6.3415029,26.921088 6.4764839,27.693774 6.8030019,28.433434 C 7.1883619,29.306569 7.7157499,30.073406 8.2717519,30.808434 C 8.4906409,31.075477 8.745022,31.322914 8.9905022,31.558434 C 8.8172451,31.388003 8.675352,31.214572 8.5217519,31.027184 C 7.9438139,30.26315 7.3990189,29.506986 7.0217519,28.652184 C 6.7179999,27.964105 6.6325039,27.194236 6.4905019,26.402184 C 6.3163749,25.135111 6.2929249,23.851707 6.3030019,22.558434 C 6.3008659,21.689033 6.2794459,20.82745 6.2717519,19.964684 C 6.2901279,19.525825 6.2977769,19.121103 6.3967519,18.745934 C 6.5651799,18.395014 6.7315699,18.059559 6.8655019,17.683434 L 6.8342519,17.683434 C 7.0848419,17.090833 7.3492679,16.524019 7.6467519,15.964684 C 7.8241229,15.693102 7.9714859,15.421013 8.1467519,15.183434 L 8.8342521,14.308434 C 8.8539641,14.322138 8.8718981,14.306808 8.8967521,14.339684 C 8.9355862,14.391053 9.1369833,14.297564 9.2405024,14.183434 C 9.1371043,14.104031 9.0052572,14.058433 8.8655021,14.058434 C 8.8457311,14.05594 8.8227741,14.055941 8.8030021,14.058434 z M 8.9905022,31.558434 C 9.1729683,31.733496 9.3591075,31.89852 9.5530026,32.058434 C 9.3648995,31.901732 9.1637593,31.728865 8.9905022,31.558434 z M 9.5530026,32.058434 C 9.8464978,32.300492 10.147581,32.533013 10.459253,32.745934 L 10.459253,32.714684 C 10.153657,32.499204 9.8383658,32.29616 9.5530026,32.058434 z M 22.709253,32.495934 C 22.374448,32.599445 21.954585,32.717397 21.646753,33.058434 C 21.635903,33.070453 21.626087,33.077045 21.615503,33.089684 C 21.335003,33.310229 21.042356,33.497826 20.740503,33.620934 C 20.721498,33.626713 20.72703,33.646819 20.709253,33.652184 C 21.102817,33.571189 21.52018,33.478113 21.740503,33.402184 C 21.741122,33.392266 21.741122,33.380848 21.740503,33.370934 C 22.147949,33.20022 22.446887,32.930069 22.740503,32.683434 C 22.751295,32.67441 22.76273,32.662975 22.771753,32.652184 C 22.837405,32.575924 22.945954,32.533277 23.053003,32.495934 L 22.771753,32.495934 C 22.751002,32.493318 22.730004,32.49332 22.709253,32.495934 z M 15.771753,33.902184 C 15.302682,33.915155 14.893719,33.937427 14.678003,33.964684 C 15.442028,34.036235 16.194861,34.099406 16.959253,34.120934 C 16.96969,34.121836 16.980089,34.120086 16.990503,34.120934 C 17.801876,34.186323 18.553819,34.042902 19.303003,33.902184 C 19.020297,33.924996 18.709107,33.922269 18.615503,33.902184 C 18.594752,33.899568 18.573754,33.89957 18.553003,33.902184 C 17.940268,33.894868 16.709895,33.876241 15.771753,33.902184 z "
       style="opacity:0.39805824;fill:#2e3436;fill-opacity:1;fill-rule:nonzero;stroke:none;stroke-width:0.5;stroke-linecap:round;stroke-linejoin:round;stroke-miterlimit:4;stroke-dasharray:none;stroke-opacity:1" />
    <path
       style="opacity:1;color:#000000;fill:url(#linearGradient3386);fill-opacity:1;fill-rule:evenodd;stroke:none;stroke-width:1px;stroke-linecap:butt;stroke-linejoin:miter;marker:none;marker-start:none;marker-mid:none;marker-end:none;stroke-miterlimit:4;stroke-dasharray:none;stroke-dashoffset:0;stroke-opacity:1;visibility:visible;display:inline;overflow:visible;enable-background:accumulate"
       d="M 27.209253,30.620934 C 27.09691,30.587231 26.803003,30.777185 26.803003,30.777184 L 24.771753,31.902184 L 25.490503,31.870934 L 25.553003,31.870934 C 25.573754,31.86832 25.59475,31.868318 25.615503,31.870934 L 27.334253,30.995934 C 27.334253,30.995934 27.321594,30.654637 27.209253,30.620934 z "
       id="path2409" />
    <path
       style="opacity:1;color:#000000;fill:url(#linearGradient3398);fill-opacity:1;fill-rule:evenodd;stroke:none;stroke-width:1px;stroke-linecap:butt;stroke-linejoin:miter;marker:none;marker-start:none;marker-mid:none;marker-end:none;stroke-miterlimit:4;stroke-dasharray:none;stroke-dashoffset:0;stroke-opacity:1;visibility:visible;display:inline;overflow:visible;enable-background:accumulate"
       d="M 27.709253,31.089684 C 27.600578,31.045562 27.303003,31.214685 27.303003,31.214684 L 25.678003,31.902184 C 25.71712,31.924428 25.749507,31.956815 25.771753,31.995934 C 25.788303,32.024794 25.798925,32.056664 25.803003,32.089684 C 25.809209,32.157585 25.783988,32.226413 25.740503,32.277184 L 27.803003,31.464684 C 27.803003,31.464684 27.817926,31.133806 27.709253,31.089684 z "
       id="path3396" />
    <path
       style="opacity:1;color:#000000;fill:url(#linearGradient3402);fill-opacity:1;fill-rule:evenodd;stroke:none;stroke-width:1px;stroke-linecap:butt;stroke-linejoin:miter;marker:none;marker-start:none;marker-mid:none;marker-end:none;stroke-miterlimit:4;stroke-dasharray:none;stroke-dashoffset:0;stroke-opacity:1;visibility:visible;display:inline;overflow:visible;enable-background:accumulate"
       d="M 28.490503,31.339684 C 28.377767,31.307315 28.084253,31.527182 28.084253,31.527184 L 26.365503,32.464684 L 26.678003,32.433434 C 26.688146,32.431502 26.699116,32.435369 26.709253,32.433434 L 26.771753,32.433434 C 26.829494,32.435587 26.884708,32.45767 26.928003,32.495934 C 26.948365,32.512061 26.945096,32.537471 26.959253,32.558434 L 28.615503,31.714684 C 28.615503,31.714684 28.603236,31.372052 28.490503,31.339684 z "
       id="path3400" />
    <path
       style="opacity:1;color:#000000;fill:url(#linearGradient3406);fill-opacity:1;fill-rule:evenodd;stroke:none;stroke-width:1px;stroke-linecap:butt;stroke-linejoin:miter;marker:none;marker-start:none;marker-mid:none;marker-end:none;stroke-miterlimit:4;stroke-dasharray:none;stroke-dashoffset:0;stroke-opacity:1;visibility:visible;display:inline;overflow:visible;enable-background:accumulate"
       d="M 28.959253,31.652184 C 28.84826,31.614267 28.553003,31.808432 28.553003,31.808434 L 27.053003,32.558434 C 27.062153,32.562315 27.075595,32.55347 27.084253,32.558434 C 27.12337,32.580678 27.155759,32.613069 27.178003,32.652184 C 27.194553,32.681044 27.205177,32.712918 27.209253,32.745934 C 27.215164,32.776904 27.215164,32.808716 27.209253,32.839684 L 29.053003,31.995934 C 29.053003,31.995934 29.070243,31.690099 28.959253,31.652184 z "
       id="path3404" />
    <path
       style="opacity:1;color:#000000;fill:url(#linearGradient3410);fill-opacity:1;fill-rule:evenodd;stroke:none;stroke-width:1px;stroke-linecap:butt;stroke-linejoin:miter;marker:none;marker-start:none;marker-mid:none;marker-end:none;stroke-miterlimit:4;stroke-dasharray:none;stroke-dashoffset:0;stroke-opacity:1;visibility:visible;display:inline;overflow:visible;enable-background:accumulate"
       d="M 27.334253,31.464684 C 27.220917,31.434484 26.928003,31.652183 26.928003,31.652184 L 24.865503,32.870934 C 24.949577,32.840055 25.031224,32.807848 25.115503,32.777184 C 25.272645,32.715205 25.426746,32.67073 25.553003,32.620934 C 25.581863,32.604384 25.613735,32.593758 25.646753,32.589684 L 26.146753,32.558434 L 27.459253,31.839684 C 27.459253,31.839684 27.447586,31.494881 27.334253,31.464684 z "
       id="path3408" />
    <path
       style="opacity:1;color:#000000;fill:url(#linearGradient3414);fill-opacity:1;fill-rule:evenodd;stroke:none;stroke-width:1px;stroke-linecap:butt;stroke-linejoin:miter;marker:none;marker-start:none;marker-mid:none;marker-end:none;stroke-miterlimit:4;stroke-dasharray:none;stroke-dashoffset:0;stroke-opacity:1;visibility:visible;display:inline;overflow:visible;enable-background:accumulate"
       d="M 25.646753,31.120934 C 25.533417,31.090734 25.240503,31.277186 25.240503,31.277184 L 23.178003,32.495934 L 23.928003,32.464684 L 25.771753,31.464684 C 25.771753,31.464684 25.760086,31.151133 25.646753,31.120934 z "
       id="path3412" />
    <rect
       style="opacity:0.61162792;fill:#555753;fill-opacity:1;fill-rule:nonzero;stroke:none;stroke-width:0.69999999;stroke-linecap:round;stroke-linejoin:miter;stroke-miterlimit:4;stroke-dasharray:none;stroke-opacity:1"
       id="rect1951"
       width="40.001965"
       height="10.004759"
       x="-0.0019644466"
       y="30" />
    <text
       xml:space="preserve"
       style="font-size:12px;font-style:normal;font-weight:normal;fill:#eeeeec;fill-opacity:1;stroke:none;stroke-width:1px;stroke-linecap:butt;stroke-linejoin:miter;stroke-opacity:1;font-family:Bitstream Vera Sans"
       x="16.000019"
       y="39.168156"
       id="text2840"><tspan
         sodipodi:role="line"
         id="tspan2842"
         x="16.000019"
         y="39.168156">N</tspan></text>
  </g>
</svg>
