<?xml version="1.0" encoding="UTF-8" standalone="no"?>
<!-- Created with Inkscape (http://www.inkscape.org/) -->
<svg
   xmlns:dc="http://purl.org/dc/elements/1.1/"
   xmlns:cc="http://web.resource.org/cc/"
   xmlns:rdf="http://www.w3.org/1999/02/22-rdf-syntax-ns#"
   xmlns:svg="http://www.w3.org/2000/svg"
   xmlns="http://www.w3.org/2000/svg"
   xmlns:xlink="http://www.w3.org/1999/xlink"
   xmlns:sodipodi="http://sodipodi.sourceforge.net/DTD/sodipodi-0.dtd"
   xmlns:inkscape="http://www.inkscape.org/namespaces/inkscape"
   width="40"
   height="40"
   id="svg2193"
   sodipodi:version="0.32"
   inkscape:version="0.45.1"
   version="1.0"
   sodipodi:docbase="/home/jra/Desktop/send-now"
   sodipodi:docname="74.svg"
   inkscape:output_extension="org.inkscape.output.svg.inkscape">
  <defs
     id="defs2195">
    <linearGradient
       id="linearGradient5287">
      <stop
         style="stop-color:#000000;stop-opacity:0;"
         offset="0"
         id="stop5289" />
      <stop
         style="stop-color:#000000;stop-opacity:1;"
         offset="1"
         id="stop5291" />
    </linearGradient>
    <linearGradient
       inkscape:collect="always"
       id="linearGradient5279">
      <stop
         style="stop-color:#ffffff;stop-opacity:1;"
         offset="0"
         id="stop5281" />
      <stop
         style="stop-color:#ffffff;stop-opacity:0;"
         offset="1"
         id="stop5283" />
    </linearGradient>
    <linearGradient
       id="linearGradient3291">
      <stop
         id="stop3293"
         offset="0"
         style="stop-color:#000000;stop-opacity:1;" />
      <stop
         id="stop3295"
         offset="1"
         style="stop-color:#000000;stop-opacity:0;" />
    </linearGradient>
    <radialGradient
       inkscape:collect="always"
       xlink:href="#linearGradient3291"
       id="radialGradient2595"
       gradientUnits="userSpaceOnUse"
       gradientTransform="matrix(1,0,0,0.197802,0,92.82166)"
       cx="63.912209"
       cy="115.70919"
       fx="75.857941"
       fy="115.70919"
       r="63.912209" />
    <radialGradient
       inkscape:collect="always"
       xlink:href="#linearGradient5279"
       id="radialGradient3302"
       gradientUnits="userSpaceOnUse"
       gradientTransform="matrix(1.1334671,0,0,1.0830497,-2.3849054,1.8387451)"
       cx="17.643915"
       cy="10.334119"
       fx="17.643915"
       fy="10.334119"
       r="9.2113314" />
    <linearGradient
       inkscape:collect="always"
       xlink:href="#linearGradient2400"
       id="linearGradient3321"
       gradientUnits="userSpaceOnUse"
       gradientTransform="matrix(0.4854689,0,0,0.7137931,10.224353,12.265695)"
       x1="38.645477"
       y1="17.490171"
       x2="7.7906866"
       y2="7.4999995" />
    <linearGradient
       id="linearGradient2400">
      <stop
         id="stop2402"
         offset="0"
         style="stop-color:#000000;stop-opacity:1;" />
      <stop
         style="stop-color:#dddddd;stop-opacity:1;"
         offset="0.5"
         id="stop2406" />
      <stop
         id="stop3408"
         offset="0.625"
         style="stop-color:#b1b1b1;stop-opacity:1;" />
      <stop
         id="stop2408"
         offset="0.75"
         style="stop-color:#fefefe;stop-opacity:1;" />
      <stop
         id="stop2404"
         offset="1"
         style="stop-color:#010101;stop-opacity:1;" />
    </linearGradient>
    <linearGradient
       inkscape:collect="always"
       xlink:href="#linearGradient2400"
       id="linearGradient5257"
       x1="27.160517"
       y1="23.733698"
       x2="13.643393"
       y2="23.897619"
       gradientUnits="userSpaceOnUse"
       gradientTransform="translate(0,3.1145066)" />
    <linearGradient
       inkscape:collect="always"
       xlink:href="#linearGradient2400"
       id="linearGradient5261"
       gradientUnits="userSpaceOnUse"
       gradientTransform="matrix(0.4854689,0,0,-1,10.224353,37.954406)"
       x1="33.436184"
       y1="12.169454"
       x2="7.1428909"
       y2="12.169454" />
    <linearGradient
       inkscape:collect="always"
       xlink:href="#linearGradient5287"
       id="linearGradient5269"
       x1="14.4375"
       y1="23.006376"
       x2="25.969166"
       y2="23.006376"
       gradientUnits="userSpaceOnUse"
       gradientTransform="translate(0,3.1145066)" />
    <linearGradient
       inkscape:collect="always"
       xlink:href="#linearGradient5279"
       id="linearGradient5285"
       x1="26.906855"
       y1="17.911234"
       x2="11.351547"
       y2="17.829273"
       gradientUnits="userSpaceOnUse"
       gradientTransform="translate(0,3.1145066)" />
    <radialGradient
       inkscape:collect="always"
       xlink:href="#linearGradient5287"
       id="radialGradient5293"
       cx="20.078125"
       cy="8.6265621"
       fx="20.078125"
       fy="8.6265621"
       r="9.203125"
       gradientTransform="matrix(1,0,0,1.0747066,0,2.3219141)"
       gradientUnits="userSpaceOnUse" />
    <linearGradient
       inkscape:collect="always"
       xlink:href="#linearGradient2400"
       id="linearGradient5303"
       x1="2.7472682"
       y1="16.109667"
       x2="30.26757"
       y2="16.109667"
       gradientUnits="userSpaceOnUse"
       gradientTransform="translate(0,3.1145066)" />
    <linearGradient
       inkscape:collect="always"
       xlink:href="#linearGradient5287"
       id="linearGradient5429"
       gradientUnits="userSpaceOnUse"
       gradientTransform="matrix(0.4854689,0,0,0.7137931,10.224353,12.265695)"
       x1="15.750002"
       y1="10.421875"
       x2="25.125"
       y2="10.421875" />
    <linearGradient
       inkscape:collect="always"
       xlink:href="#linearGradient5279"
       id="linearGradient5455"
       gradientUnits="userSpaceOnUse"
       gradientTransform="matrix(0.4854689,0,0,0.7137931,10.224353,12.265695)"
       x1="7.6322036"
       y1="10.419588"
       x2="25.125"
       y2="10.421875" />
    <radialGradient
       inkscape:collect="always"
       xlink:href="#linearGradient5279"
       id="radialGradient6483"
       cx="17.97891"
       cy="14.890342"
       fx="17.97891"
       fy="14.890342"
       r="9.2113314"
       gradientTransform="matrix(1.6161942,-2.7884388e-2,2.9825585e-2,1.728707,-11.51519,-10.000075)"
       gradientUnits="userSpaceOnUse" />
  </defs>
  <sodipodi:namedview
     id="base"
     pagecolor="#ffffff"
     bordercolor="#666666"
     borderopacity="1.0"
     inkscape:pageopacity="0.0"
     inkscape:pageshadow="2"
     inkscape:zoom="19.131083"
     inkscape:cx="19.999018"
     inkscape:cy="18.080992"
     inkscape:current-layer="layer1"
     showgrid="false"
     inkscape:grid-bbox="true"
     inkscape:document-units="px"
     width="40px"
     height="40px"
     gridempspacing="2"
     inkscape:window-width="1167"
     inkscape:window-height="914"
     inkscape:window-x="351"
     inkscape:window-y="58" />
  <metadata
     id="metadata2198">
    <rdf:RDF>
      <cc:Work
         rdf:about="">
        <dc:format>image/svg+xml</dc:format>
        <dc:type
           rdf:resource="http://purl.org/dc/dcmitype/StillImage" />
        <dc:creator>
          <cc:Agent>
            <dc:title>Jarle Akselsen</dc:title>
          </cc:Agent>
        </dc:creator>
        <cc:license
           rdf:resource="http://creativecommons.org/licenses/GPL/2.0/" />
      </cc:Work>
      <cc:License
         rdf:about="http://creativecommons.org/licenses/GPL/2.0/">
        <cc:permits
           rdf:resource="http://web.resource.org/cc/Reproduction" />
        <cc:permits
           rdf:resource="http://web.resource.org/cc/Distribution" />
        <cc:requires
           rdf:resource="http://web.resource.org/cc/Notice" />
        <cc:permits
           rdf:resource="http://web.resource.org/cc/DerivativeWorks" />
        <cc:requires
           rdf:resource="http://web.resource.org/cc/ShareAlike" />
        <cc:requires
           rdf:resource="http://web.resource.org/cc/SourceCode" />
      </cc:License>
    </rdf:RDF>
  </metadata>
  <g
     id="layer1"
     inkscape:label="Layer 1"
     inkscape:groupmode="layer">
    <path
       style="fill:#000000;fill-opacity:1;fill-rule:nonzero;stroke:none;stroke-width:1;stroke-linecap:round;stroke-linejoin:round;stroke-miterlimit:4;stroke-dasharray:none;stroke-opacity:1"
       d="M 20.15625,17.614499 C 17.139695,17.614499 14.6875,18.888516 14.6875,20.458249 C 14.687498,22.027984 17.139697,23.301999 20.15625,23.301999 C 23.172801,23.302 25.625,22.027983 25.625,20.458249 C 25.624998,18.888517 23.172803,17.614499 20.15625,17.614499 z "
       id="path4242" />
    <path
       transform="matrix(0.1251717,0,0,0.2255356,12,6.1716847)"
       d="M 127.82442 115.70919 A 63.912209 12.641975 0 1 1  0,115.70919 A 63.912209 12.641975 0 1 1  127.82442 115.70919 z"
       sodipodi:ry="12.641975"
       sodipodi:rx="63.912209"
       sodipodi:cy="115.70919"
       sodipodi:cx="63.912209"
       id="path2593"
       style="opacity:0.38139535;fill:url(#radialGradient2595);fill-opacity:1;fill-rule:nonzero;stroke:none;stroke-width:0;stroke-linecap:round;stroke-linejoin:round;stroke-miterlimit:4;stroke-dasharray:none;stroke-dashoffset:4;stroke-opacity:1"
       sodipodi:type="arc" />
    <path
       style="opacity:0.25;fill:url(#radialGradient5293);fill-opacity:1;fill-rule:nonzero;stroke:none;stroke-width:1;stroke-linecap:round;stroke-linejoin:miter;stroke-miterlimit:4;stroke-opacity:1"
       d="M 20.09375,3.8332567 C 15.008813,3.8332567 10.875,7.4896865 10.875,11.989502 C 10.875,14.562173 12.238009,16.838879 14.34375,18.333249 L 14.34375,21.083249 C 14.34375,21.083248 15.63056,23.629708 20.25,23.614499 C 25.027318,23.59877 26.0625,20.989499 26.0625,20.989499 L 26.0625,18.176999 C 28.039688,16.681466 29.28125,14.469932 29.28125,11.989502 C 29.28125,7.4896862 25.178687,3.8332567 20.09375,3.8332567 z M 20.15625,17.614499 C 23.172803,17.614499 25.624998,18.888517 25.625,20.458249 C 25.625,22.027983 23.172801,23.302 20.15625,23.301999 C 17.139697,23.301999 14.687498,22.027984 14.6875,20.458249 C 14.6875,18.888516 17.139695,17.614499 20.15625,17.614499 z "
       id="path2262" />
    <path
       d="M 20.161295,18.326493 C 22.75426,18.326493 24.875065,19.255296 24.875065,20.452007 C 24.875065,21.648719 22.754259,22.577522 20.161295,22.577522 C 17.568332,22.577522 15.432354,21.648719 15.432354,20.452007 C 15.432354,19.255296 17.568331,18.326493 20.161295,18.326493 z "
       style="opacity:0.5;fill:url(#linearGradient5285);fill-opacity:1;fill-rule:nonzero;stroke:none;stroke-width:1;stroke-linecap:round;stroke-linejoin:round;stroke-miterlimit:4;stroke-dasharray:none;stroke-opacity:1"
       id="path2217" />
    <path
       d="M 20.161295,17.619141 C 17.144742,17.619141 14.684599,18.882274 14.684599,20.452007 C 14.684599,22.021741 17.144742,23.30718 20.161295,23.30718 C 23.177848,23.30718 25.62282,22.021741 25.62282,20.452007 C 25.62282,18.882274 23.177848,17.619141 20.161295,17.619141 z M 20.161295,18.326493 C 22.75426,18.326493 24.875065,19.255296 24.875065,20.452007 C 24.875065,21.648719 22.754259,22.577522 20.161295,22.577522 C 17.568332,22.577522 15.432354,21.648719 15.432354,20.452007 C 15.432354,19.255296 17.568331,18.326493 20.161295,18.326493 z "
       style="opacity:0.65;fill:url(#linearGradient3321);fill-opacity:1;fill-rule:nonzero;stroke:none;stroke-width:1;stroke-linecap:round;stroke-linejoin:round;stroke-miterlimit:4;stroke-dasharray:none;stroke-opacity:1"
       id="path2186" />
    <path
       style="fill:#babdb6;fill-opacity:1;fill-rule:evenodd;stroke:none;stroke-width:0.30000001;stroke-linecap:butt;stroke-linejoin:miter;stroke-miterlimit:4;stroke-opacity:1"
       d="M 16.65625,11.28125 C 16.621264,11.295816 16.578269,11.341605 16.5625,11.375 C 16.530962,11.441789 16.553789,11.499592 16.5625,11.53125 L 16.84375,11.4375 C 16.843597,11.436944 16.868559,11.447461 16.84375,11.5 C 16.831346,11.526269 16.809247,11.550844 16.78125,11.5625 C 16.764452,11.569494 16.761241,11.593207 16.75,11.59375 C 16.825506,11.645765 16.946479,11.768076 17.09375,11.90625 C 17.388292,12.182599 17.775855,12.566736 18.03125,12.875 L 18.03125,12.90625 C 18.144852,13.01192 18.277974,13.371422 18.34375,13.75 C 18.409526,14.128578 18.424782,14.511167 18.46875,14.75 C 18.735026,17.307877 18.558165,19.878886 18.5625,22.46875 L 18.84375,22.46875 C 18.839439,19.893456 19.051138,17.311317 18.78125,14.71875 L 18.78125,14.6875 C 18.743679,14.483417 18.693888,14.08399 18.625,13.6875 C 18.557959,13.301645 18.442511,12.943033 18.21875,12.71875 C 18.212583,12.712568 18.225138,12.693442 18.21875,12.6875 L 18.25,12.6875 C 17.982858,12.365058 17.617764,11.973908 17.3125,11.6875 C 17.159868,11.544296 17.009717,11.446277 16.90625,11.375 C 16.854517,11.339361 16.838321,11.29075 16.75,11.28125 C 16.72792,11.278875 16.691236,11.266684 16.65625,11.28125 z "
       id="path5383" />
    <path
       id="path4256"
       d="M 14.71875,19.833249 L 14.71875,20.114499 C 14.731602,20.060812 14.762689,20.010944 14.78125,19.958249 C 14.772148,19.918048 14.757439,19.873831 14.75,19.833249 L 14.71875,19.833249 z M 25.5625,19.833249 C 25.555065,19.873831 25.54034,19.918048 25.53125,19.958249 C 25.542634,19.990744 25.553267,20.01912 25.5625,20.051999 L 25.5625,19.833249 z M 14.6875,20.489499 L 14.59375,20.833249 L 14.59375,21.114499 C 14.456913,21.407512 14.368368,21.709173 14.375,22.020749 C 14.379841,22.248228 14.449567,22.466331 14.53125,22.676999 C 14.502405,22.633765 14.463092,22.595754 14.4375,22.551999 C 14.470157,22.701556 14.526521,22.844988 14.59375,22.989499 L 14.59375,23.114499 C 14.456913,23.407512 14.368368,23.709173 14.375,24.020749 C 14.379841,24.248228 14.449567,24.466331 14.53125,24.676999 C 14.502405,24.633765 14.463092,24.595754 14.4375,24.551999 C 14.475039,24.723915 14.542028,24.886951 14.625,25.051999 L 14.625,25.708249 C 14.602878,25.598455 14.59617,25.509488 14.59375,25.395749 C 14.59133,25.28201 14.607571,25.163874 14.625,25.051999 C 14.468357,25.365391 14.367876,25.686093 14.375,26.020749 C 14.379841,26.248228 14.449567,26.466331 14.53125,26.676999 C 14.502405,26.633765 14.463092,26.595754 14.4375,26.551999 C 14.475039,26.723915 14.542028,26.886951 14.625,27.051999 L 14.625,27.708249 C 14.602878,27.598455 14.59617,27.509488 14.59375,27.395749 C 14.59133,27.28201 14.607571,27.163872 14.625,27.051999 C 14.468357,27.365391 14.367876,27.686094 14.375,28.020749 C 14.379841,28.248228 14.449567,28.466331 14.53125,28.676999 C 14.502405,28.633765 14.463092,28.595754 14.4375,28.551999 C 14.481983,28.755714 14.548469,28.952077 14.65625,29.145749 L 14.65625,29.270749 C 14.65625,29.270749 14.758321,29.399144 14.96875,29.583249 C 15.359433,30.05062 15.925594,30.455334 16.625,30.770749 C 17.190646,31.104818 17.813023,31.382584 18.4375,31.489499 C 20.513327,31.844896 20.441311,31.845952 22.5,31.301999 C 24.402788,30.79924 25.75,29.270749 25.75,29.270749 L 25.75,28.708249 C 25.892019,28.408209 25.975378,28.089227 25.96875,27.770749 C 25.962947,27.491861 25.871559,27.240717 25.75,26.989499 L 25.75,26.708249 C 25.892019,26.408209 25.975378,26.089227 25.96875,25.770749 C 25.962947,25.491862 25.871559,25.240717 25.75,24.989499 L 25.75,24.708249 C 25.892019,24.408209 25.975378,24.089227 25.96875,23.770749 C 25.962947,23.491861 25.871559,23.240717 25.75,22.989499 L 25.75,22.708249 C 25.892019,22.408209 25.975378,22.089227 25.96875,21.770749 C 25.962947,21.491862 25.871559,21.240717 25.75,20.989499 L 25.75,20.833249 L 25.59375,20.520749 C 25.531498,21.879829 23.677942,22.994186 21.1875,23.239499 C 20.859277,23.27183 20.502351,23.301999 20.15625,23.301999 C 19.810148,23.301999 19.484826,23.27183 19.15625,23.239499 C 16.639964,22.991907 14.716036,21.865399 14.6875,20.489499 z "
       style="fill:#000000;fill-opacity:1;fill-rule:nonzero;stroke:none;stroke-width:1;stroke-linecap:round;stroke-linejoin:round;stroke-miterlimit:4;stroke-opacity:1" />
    <path
       style="fill:#babdb6;fill-opacity:1;fill-rule:evenodd;stroke:none;stroke-width:0.30000001;stroke-linecap:butt;stroke-linejoin:miter;stroke-miterlimit:4;stroke-dasharray:none;stroke-opacity:1"
       d="M 23.125,11.34375 C 23.036678,11.353249 23.020483,11.370611 22.96875,11.40625 C 22.865283,11.477527 22.746382,11.606796 22.59375,11.75 C 22.298174,12.027318 21.921412,12.402318 21.65625,12.71875 C 21.647558,12.729122 21.633478,12.739766 21.625,12.75 C 21.40631,12.97511 21.316369,13.368008 21.25,13.75 C 21.181112,14.14649 21.162571,14.545917 21.125,14.75 C 20.855112,17.342565 21.035561,19.955956 21.03125,22.53125 L 21.3125,22.53125 C 21.316818,19.951827 21.144643,17.360319 21.40625,14.8125 C 21.407309,14.802186 21.405176,14.791563 21.40625,14.78125 C 21.448276,14.540657 21.498672,14.148613 21.5625,13.78125 C 21.628276,13.402672 21.730148,13.04317 21.84375,12.9375 L 21.875,12.9375 C 22.130395,12.629236 22.486708,12.245098 22.78125,11.96875 C 22.928521,11.830576 23.049494,11.708265 23.125,11.65625 C 23.143877,11.643246 23.116191,11.62874 23.125,11.625 C 23.097003,11.613343 23.043654,11.588769 23.03125,11.5625 C 23.006442,11.509962 23.031403,11.499443 23.03125,11.5 L 23.3125,11.5625 C 23.321211,11.530842 23.344037,11.504289 23.3125,11.4375 C 23.296731,11.404106 23.253736,11.358316 23.21875,11.34375 C 23.183765,11.329184 23.147081,11.341375 23.125,11.34375 z "
       id="use5385" />
    <path
       id="path5259"
       d="M 14.71875,19.833249 L 14.71875,20.114499 C 14.731602,20.060812 14.762689,20.010944 14.78125,19.958249 C 14.772148,19.918048 14.757439,19.873831 14.75,19.833249 L 14.71875,19.833249 z M 25.5625,19.833249 C 25.555065,19.873831 25.54034,19.918048 25.53125,19.958249 C 25.542634,19.990744 25.553267,20.01912 25.5625,20.051999 L 25.5625,19.833249 z M 14.6875,20.489499 L 14.59375,20.833249 L 14.59375,21.114499 C 14.456913,21.407512 14.368368,21.709173 14.375,22.020749 C 14.379841,22.248228 14.449567,22.466331 14.53125,22.676999 C 14.502405,22.633765 14.463092,22.595754 14.4375,22.551999 C 14.470157,22.701556 14.526521,22.844988 14.59375,22.989499 L 14.59375,23.114499 C 14.456913,23.407512 14.368368,23.709173 14.375,24.020749 C 14.379841,24.248228 14.449567,24.466331 14.53125,24.676999 C 14.502405,24.633765 14.463092,24.595754 14.4375,24.551999 C 14.475039,24.723915 14.542028,24.886951 14.625,25.051999 L 14.625,25.708249 C 14.602878,25.598455 14.59617,25.509488 14.59375,25.395749 C 14.59133,25.28201 14.607571,25.163874 14.625,25.051999 C 14.468357,25.365391 14.367876,25.686093 14.375,26.020749 C 14.379841,26.248228 14.449567,26.466331 14.53125,26.676999 C 14.502405,26.633765 14.463092,26.595754 14.4375,26.551999 C 14.475039,26.723915 14.542028,26.886951 14.625,27.051999 L 14.625,27.708249 C 14.602878,27.598455 14.59617,27.509488 14.59375,27.395749 C 14.59133,27.28201 14.607571,27.163872 14.625,27.051999 C 14.468357,27.365391 14.367876,27.686094 14.375,28.020749 C 14.379841,28.248228 14.449567,28.466331 14.53125,28.676999 C 14.502405,28.633765 14.463092,28.595754 14.4375,28.551999 C 14.481983,28.755714 14.548469,28.952077 14.65625,29.145749 L 14.65625,29.270749 C 14.65625,29.270749 14.758321,29.399144 14.96875,29.583249 C 15.359433,30.05062 15.925594,30.455334 16.625,30.770749 C 17.190646,31.104818 17.813023,31.382584 18.4375,31.489499 C 20.513327,31.844896 20.441311,31.845952 22.5,31.301999 C 24.402788,30.79924 25.75,29.270749 25.75,29.270749 L 25.75,28.708249 C 25.892019,28.408209 25.975378,28.089227 25.96875,27.770749 C 25.962947,27.491861 25.871559,27.240717 25.75,26.989499 L 25.75,26.708249 C 25.892019,26.408209 25.975378,26.089227 25.96875,25.770749 C 25.962947,25.491862 25.871559,25.240717 25.75,24.989499 L 25.75,24.708249 C 25.892019,24.408209 25.975378,24.089227 25.96875,23.770749 C 25.962947,23.491861 25.871559,23.240717 25.75,22.989499 L 25.75,22.708249 C 25.892019,22.408209 25.975378,22.089227 25.96875,21.770749 C 25.962947,21.491862 25.871559,21.240717 25.75,20.989499 L 25.75,20.833249 L 25.59375,20.520749 C 25.531498,21.879829 23.677942,22.994186 21.1875,23.239499 C 20.859277,23.27183 20.502351,23.301999 20.15625,23.301999 C 19.810148,23.301999 19.484826,23.27183 19.15625,23.239499 C 16.639964,22.991907 14.716036,21.865399 14.6875,20.489499 z "
       style="opacity:0.4;fill:url(#linearGradient5261);fill-opacity:1;fill-rule:nonzero;stroke:none;stroke-width:1;stroke-linecap:round;stroke-linejoin:round;stroke-miterlimit:4;stroke-opacity:1" />
    <path
       id="path5391"
       d="M 20.161295,16.83843 C 19.065017,16.83843 18.173908,17.187201 18.173907,17.619141 L 17.870489,18.288322 L 17.870489,22.303408 C 18.553311,22.471779 19.329685,22.571081 20.161295,22.571081 C 20.981016,22.571081 21.747902,22.467297 22.421759,22.303408 L 22.421759,18.288322 C 22.421759,18.288322 22.148683,17.911512 22.148683,17.619141 C 22.148683,17.187201 21.257572,16.83843 20.161295,16.83843 z "
       style="opacity:0.5;fill:url(#linearGradient5429);fill-opacity:1;fill-rule:nonzero;stroke:none;stroke-width:1;stroke-linecap:round;stroke-linejoin:round;stroke-miterlimit:4;stroke-opacity:1" />
    <path
       style="opacity:1;fill:url(#linearGradient5269);fill-opacity:1;fill-rule:nonzero;stroke:none;stroke-width:1;stroke-linecap:round;stroke-linejoin:round;stroke-miterlimit:4;stroke-dasharray:none;stroke-opacity:1"
       d="M 25.6875,20.833249 C 25.709589,20.942971 25.716382,21.063256 25.71875,21.176999 C 25.756625,22.996874 23.197548,24.629912 20,24.801999 C 17.401991,24.941822 15.199202,23.854292 14.4375,22.551999 C 14.793363,24.181722 17.270823,25.556084 20.25,25.395749 C 22.809801,25.257983 24.950481,24.189075 25.6875,22.833249 C 25.87112,22.49546 25.976304,22.133721 25.96875,21.770749 C 25.961787,21.436084 25.856961,21.128892 25.6875,20.833249 z M 25.6875,22.833249 C 25.709589,22.942972 25.716382,23.063257 25.71875,23.176999 C 25.756625,24.996875 23.197548,26.629911 20,26.801999 C 17.401991,26.941822 15.199202,25.854291 14.4375,24.551999 C 14.793363,26.181722 17.270823,27.556084 20.25,27.395749 C 22.809801,27.257983 24.950481,26.189075 25.6875,24.833249 C 25.87112,24.49546 25.976304,24.13372 25.96875,23.770749 C 25.961787,23.436085 25.856961,23.128892 25.6875,22.833249 z M 25.6875,24.833249 C 25.709589,24.942971 25.716382,25.063256 25.71875,25.176999 C 25.756625,26.996874 23.197548,28.629912 20,28.801999 C 17.401991,28.941822 15.199202,27.854292 14.4375,26.551999 C 14.793363,28.181722 17.270823,29.556084 20.25,29.395749 C 22.809801,29.257983 24.950481,28.189075 25.6875,26.833249 C 25.87112,26.49546 25.976304,26.133721 25.96875,25.770749 C 25.961787,25.436084 25.856961,25.128892 25.6875,24.833249 z M 25.6875,26.833249 C 25.709589,26.942972 25.716382,27.063257 25.71875,27.176999 C 25.756625,28.996875 23.197548,30.629911 20,30.801999 C 17.401991,30.941822 15.199202,29.854291 14.4375,28.551999 C 14.793363,30.181722 17.270823,31.556084 20.25,31.395749 C 23.447547,31.22366 26.006623,29.590624 25.96875,27.770749 C 25.961787,27.436085 25.856961,27.128892 25.6875,26.833249 z "
       id="path5233" />
    <path
       id="path5411"
       d="M 20.0625,10.5625 C 19.331595,10.5625 18.750816,10.848128 18.3125,11.09375 C 17.874184,11.339372 17.542749,11.46875 17.5,11.46875 C 17.319682,11.4662 17.151959,11.560938 17.061056,11.716686 C 16.970153,11.872435 16.970153,12.065065 17.061056,12.220814 C 17.151959,12.376562 17.319682,12.4713 17.5,12.46875 C 18.059074,12.46875 18.387797,12.189232 18.78125,11.96875 C 19.174703,11.748268 19.589758,11.5625 20.0625,11.5625 C 20.535242,11.5625 20.817289,11.72432 21.125,11.9375 C 21.432711,12.15068 21.753426,12.46875 22.3125,12.46875 C 22.492818,12.4713 22.660541,12.376562 22.751444,12.220814 C 22.842347,12.065065 22.842347,11.872435 22.751444,11.716686 C 22.660541,11.560938 22.492818,11.4662 22.3125,11.46875 C 22.269751,11.46875 22.052578,11.346674 21.6875,11.09375 C 21.322422,10.840826 20.793404,10.5625 20.0625,10.5625 z "
       style="fill:#fce94f;fill-opacity:1;fill-rule:evenodd;stroke:none;stroke-width:1;stroke-linecap:round;stroke-linejoin:miter;stroke-miterlimit:4;stroke-opacity:1" />
    <path
       style="fill:url(#linearGradient5257);fill-opacity:1;fill-rule:nonzero;stroke:none;stroke-width:1;stroke-linecap:round;stroke-linejoin:round;stroke-miterlimit:4;stroke-dasharray:none;stroke-opacity:1;opacity:0.75"
       d="M 14.625,21.051999 C 14.468357,21.365391 14.367876,21.686093 14.375,22.020749 C 14.413728,23.840578 17.052532,25.16547 20.25,24.989499 C 23.229101,24.825546 25.650964,23.404183 25.9375,21.739499 C 25.232294,23.12163 23.066689,24.221523 20.46875,24.364499 C 17.271284,24.540469 14.632476,23.215578 14.59375,21.395749 C 14.59133,21.28201 14.607568,21.163874 14.625,21.051999 z M 14.625,23.051999 C 14.468357,23.365391 14.367876,23.686094 14.375,24.020749 C 14.413728,25.840578 17.052532,27.165471 20.25,26.989499 C 23.229101,26.825547 25.650964,25.404184 25.9375,23.739499 C 25.232294,25.121631 23.066689,26.221524 20.46875,26.364499 C 17.271284,26.540469 14.632476,25.215578 14.59375,23.395749 C 14.59133,23.28201 14.607568,23.163874 14.625,23.051999 z M 14.625,25.051999 C 14.468357,25.365391 14.367876,25.686093 14.375,26.020749 C 14.413728,27.840578 17.052532,29.16547 20.25,28.989499 C 23.229101,28.825546 25.650964,27.404183 25.9375,25.739499 C 25.232294,27.12163 23.066689,28.221523 20.46875,28.364499 C 17.271284,28.540469 14.632476,27.215578 14.59375,25.395749 C 14.59133,25.28201 14.607568,25.163874 14.625,25.051999 z M 14.625,27.051999 C 14.468357,27.365391 14.367876,27.686094 14.375,28.020749 C 14.413728,29.840578 17.052532,31.165471 20.25,30.989499 C 23.229101,30.825547 25.650964,29.404184 25.9375,27.739499 C 25.232294,29.121631 23.066689,30.221524 20.46875,30.364499 C 17.271284,30.540469 14.632476,29.215578 14.59375,27.395749 C 14.59133,27.28201 14.607568,27.163874 14.625,27.051999 z "
       id="path5231" />
    <path
       id="path5413"
       d="M 20.0625,10.9375 C 19.429129,10.9375 18.921367,11.170126 18.5,11.40625 C 18.078633,11.642374 17.737816,11.875 17.5,11.875 C 17.489626,11.873663 17.479124,11.873663 17.46875,11.875 C 17.458376,11.873663 17.447874,11.873663 17.4375,11.875 C 17.427126,11.873663 17.416624,11.873663 17.40625,11.875 C 17.404913,11.885374 17.404913,11.895876 17.40625,11.90625 C 17.394021,11.914681 17.383431,11.925271 17.375,11.9375 C 17.373663,11.947874 17.373663,11.958376 17.375,11.96875 C 17.373663,11.979124 17.373663,11.989626 17.375,12 C 17.373663,12.010374 17.373663,12.020876 17.375,12.03125 C 17.383431,12.043479 17.394021,12.054069 17.40625,12.0625 C 17.414681,12.074729 17.425271,12.085319 17.4375,12.09375 C 17.447874,12.095087 17.458376,12.095087 17.46875,12.09375 C 17.479124,12.095087 17.489626,12.095087 17.5,12.09375 C 17.864006,12.09375 18.183348,11.85498 18.59375,11.625 C 19.004152,11.39502 19.492224,11.1875 20.0625,11.1875 C 20.632776,11.1875 21.014366,11.396805 21.34375,11.625 C 21.673134,11.853195 21.948493,12.09375 22.3125,12.09375 C 22.322874,12.095087 22.333376,12.095087 22.34375,12.09375 C 22.354124,12.095087 22.364626,12.095087 22.375,12.09375 C 22.387229,12.085319 22.397819,12.074729 22.40625,12.0625 C 22.407587,12.052126 22.407587,12.041624 22.40625,12.03125 C 22.418479,12.022819 22.429069,12.012229 22.4375,12 C 22.438837,11.989626 22.438837,11.979124 22.4375,11.96875 C 22.429069,11.956521 22.418479,11.945931 22.40625,11.9375 C 22.407587,11.927126 22.407587,11.916624 22.40625,11.90625 C 22.397819,11.894021 22.387229,11.883431 22.375,11.875 C 22.364626,11.873663 22.354124,11.873663 22.34375,11.875 C 22.333376,11.873663 22.322874,11.873663 22.3125,11.875 C 22.074683,11.875 21.812155,11.644159 21.46875,11.40625 C 21.125345,11.168341 20.695871,10.9375 20.0625,10.9375 z "
       style="fill:#fcaf3e;fill-opacity:1;fill-rule:evenodd;stroke:none;stroke-width:0.24440011;stroke-linecap:round;stroke-linejoin:miter;stroke-miterlimit:4;stroke-opacity:1" />
    <path
       d="M 20.090459,3.8384377 C 15.005523,3.8384377 10.86138,7.4880226 10.86138,11.987839 C 10.86138,14.56051 12.234292,16.843211 14.340033,18.337581 L 14.340033,21.088005 C 14.340033,21.088005 15.630342,23.642308 20.249782,23.627099 C 25.027101,23.61137 26.053864,21.003115 26.053864,21.003115 L 26.053864,18.167801 C 28.031052,16.672268 29.284042,14.468269 29.284042,11.987839 C 29.284042,7.4880226 25.175396,3.8384377 20.090459,3.8384377 z "
       style="opacity:1;fill:url(#radialGradient3302);fill-opacity:1;fill-rule:nonzero;stroke:none;stroke-width:1;stroke-linecap:round;stroke-linejoin:miter;stroke-miterlimit:4;stroke-opacity:1"
       id="path3200" />
    <path
       style="fill:url(#linearGradient5455);fill-opacity:1;fill-rule:nonzero;stroke:none;stroke-width:1;stroke-linecap:round;stroke-linejoin:round;stroke-miterlimit:4;stroke-opacity:1"
       d="M 20.15625,16.84375 C 19.675822,16.843751 19.250141,16.919641 18.90625,17.03125 C 18.908191,17.168111 18.905304,17.300458 18.90625,17.4375 C 18.802083,17.540947 18.697917,17.565331 18.59375,17.4375 C 18.592568,17.343288 18.595202,17.250238 18.59375,17.15625 C 18.347534,17.286176 18.1875,17.450277 18.1875,17.625 L 17.875,18.28125 L 17.875,22.3125 C 18.557822,22.480869 19.32464,22.5625 20.15625,22.5625 C 20.975971,22.562502 21.732393,22.476389 22.40625,22.3125 L 22.40625,18.28125 C 22.40625,18.28125 22.15625,17.917371 22.15625,17.625 C 22.15625,17.360755 21.791206,17.141181 21.28125,17 C 21.278345,17.146257 21.283303,17.290716 21.28125,17.4375 C 21.1875,17.465576 21.09375,17.552541 21,17.4375 C 21.002224,17.270608 20.996809,17.104232 21,16.9375 C 20.742771,16.889795 20.459338,16.84375 20.15625,16.84375 z "
       id="path5440" />
    <path
       id="path5295"
       style="opacity:0.1;fill:url(#linearGradient5303);fill-opacity:1;fill-rule:nonzero;stroke:none;stroke-width:1;stroke-linecap:round;stroke-linejoin:miter;stroke-miterlimit:4;stroke-opacity:1"
       d="M 20.090459,3.8384377 C 15.005523,3.8384377 10.86138,7.4880226 10.86138,11.987839 C 10.86138,14.56051 12.234292,16.843211 14.340033,18.337581 L 14.340033,21.088005 C 14.340033,21.088005 15.630342,23.642308 20.249782,23.627099 C 25.027101,23.61137 26.053864,21.003115 26.053864,21.003115 L 26.053864,18.167801 C 28.031052,16.672268 29.284042,14.468269 29.284042,11.987839 C 29.284042,7.4880226 25.175396,3.8384377 20.090459,3.8384377 z " />
    <path
       d="M 20.090459,3.8384377 C 15.005523,3.8384377 10.86138,7.4880226 10.86138,11.987839 C 10.86138,14.56051 12.234292,16.843211 14.340033,18.337581 L 14.340033,21.088005 C 14.340033,21.088005 15.630342,23.642308 20.249782,23.627099 C 25.027101,23.61137 26.053864,21.003115 26.053864,21.003115 L 26.053864,18.167801 C 28.031052,16.672268 29.284042,14.468269 29.284042,11.987839 C 29.284042,7.4880226 25.175396,3.8384377 20.090459,3.8384377 z "
       style="opacity:0.3;fill:url(#radialGradient6483);fill-opacity:1.0;fill-rule:nonzero;stroke:none;stroke-width:1;stroke-linecap:round;stroke-linejoin:miter;stroke-miterlimit:4;stroke-opacity:1"
       id="path5506" />
    <rect
       style="opacity:0.61162792;fill:#555753;fill-opacity:1;fill-rule:nonzero;stroke:none;stroke-width:0.69999999;stroke-linecap:round;stroke-linejoin:miter;stroke-miterlimit:4;stroke-dasharray:none;stroke-opacity:1"
       id="rect1951"
       width="40.001965"
       height="10.004759"
       x="-0.0019644466"
       y="30" />
    <text
       xml:space="preserve"
       style="font-size:12px;font-style:normal;font-weight:normal;fill:#eeeeec;fill-opacity:1;stroke:none;stroke-width:1px;stroke-linecap:butt;stroke-linejoin:miter;stroke-opacity:1;font-family:Bitstream Vera Sans"
       x="14.057973"
       y="39.168156"
       id="text2840"><tspan
         sodipodi:role="line"
         id="tspan2842"
         x="14.057973"
         y="39.168156">W</tspan></text>
  </g>
</svg>
