<?xml version="1.0" encoding="UTF-8" standalone="no"?>
<!-- Created with Inkscape (http://www.inkscape.org/) -->
<svg
   xmlns:svg="http://www.w3.org/2000/svg"
   xmlns="http://www.w3.org/2000/svg"
   xmlns:xlink="http://www.w3.org/1999/xlink"
   version="1.0"
   width="744.09448"
   height="1052.3622"
   id="svg2">
  <defs
     id="defs4">
    <linearGradient
       id="linearGradient12562">
      <stop
         style="stop-color:black;stop-opacity:1"
         offset="0"
         id="stop12564" />
      <stop
         style="stop-color:white;stop-opacity:1"
         offset="1"
         id="stop12566" />
    </linearGradient>
    <linearGradient
       id="linearGradient9893">
      <stop
         style="stop-color:white;stop-opacity:0.53061223"
         offset="0"
         id="stop9895" />
      <stop
         style="stop-color:white;stop-opacity:0"
         offset="1"
         id="stop9897" />
    </linearGradient>
    <linearGradient
       id="linearGradient2760">
      <stop
         style="stop-color:white;stop-opacity:1"
         offset="0"
         id="stop2762" />
      <stop
         style="stop-color:white;stop-opacity:1"
         offset="0.28"
         id="stop11673" />
      <stop
         style="stop-color:#5f64a6;stop-opacity:1"
         offset="1"
         id="stop2764" />
    </linearGradient>
    <radialGradient
       cx="274.28571"
       cy="470.85791"
       r="146.37978"
       fx="274.28571"
       fy="470.85791"
       id="radialGradient2766"
       xlink:href="#linearGradient2760"
       gradientUnits="userSpaceOnUse"
       gradientTransform="matrix(1.722192,0,0,1.019519,-198.0869,-7.686295)" />
    <linearGradient
       x1="283.57144"
       y1="345.21933"
       x2="286.58722"
       y2="238.07646"
       id="linearGradient9899"
       xlink:href="#linearGradient9893"
       gradientUnits="userSpaceOnUse" />
    <linearGradient
       x1="167.97627"
       y1="611.4538"
       x2="344.76926"
       y2="620.21643"
       id="linearGradient12568"
       xlink:href="#linearGradient12562"
       gradientUnits="userSpaceOnUse"
       gradientTransform="matrix(0.99669,8.129339e-2,-8.129339e-2,0.99669,29.00777,-21.87907)" />
    <linearGradient
       x1="167.97627"
       y1="611.4538"
       x2="344.76926"
       y2="620.21643"
       id="linearGradient15260"
       xlink:href="#linearGradient12562"
       gradientUnits="userSpaceOnUse"
       gradientTransform="matrix(0.99669,8.129339e-2,-8.129339e-2,0.99669,29.00777,-21.87907)" />
  </defs>
  <g
     id="layer1">
    <g
       id="g17924">
      <path
         d="M 419.99998,393.79074 A 145.71428,148.57143 0 1 1 419.98047,391.35928"
         transform="translate(102.0254,39.39595)"
         style="opacity:1;fill:url(#radialGradient2766);fill-opacity:1;fill-rule:nonzero;stroke:black;stroke-width:5;stroke-linecap:round;stroke-linejoin:round;stroke-miterlimit:4;stroke-dasharray:none;stroke-dashoffset:0;stroke-opacity:1"
         id="path1872" />
      <path
         d="M 319.16827,490.32956 C 337.7397,577.47242 337.7397,578.90099 337.7397,578.90099"
         style="fill:none;fill-rule:evenodd;stroke:black;stroke-width:5;stroke-linecap:butt;stroke-linejoin:miter;stroke-miterlimit:4;stroke-dasharray:none;stroke-opacity:1"
         id="path2770" />
      <path
         d="M 433.11273,493.4866 C 403.11741,577.38569 402.36666,578.60109 402.36666,578.60109"
         style="fill:none;fill-rule:evenodd;stroke:black;stroke-width:5;stroke-linecap:butt;stroke-linejoin:miter;stroke-miterlimit:4;stroke-dasharray:none;stroke-opacity:1"
         id="path3657" />
      <path
         d="M 322.50755,492.05891 C 353.62113,463.71498 358.66449,423.22692 308.33323,403.34727 C 288.23735,393.7633 281.77197,412.37313 287.70619,422.05884 C 312.30637,459.19841 402.68812,424.11675 390.32289,392.50343 C 380.12536,382.94593 362.01247,393.89672 359.17387,402.04659 C 344.11582,434.90107 407.08012,446.29282 441.32966,438.07304 C 458.52064,433.50326 455.93841,415.79361 435.9748,416.08216 C 388.11045,420.9711 401.58585,465.57185 418.32948,485.27784 C 421.43917,489.51159 426.82264,492.69678 433.18317,494.72981"
         style="fill:none;fill-rule:evenodd;stroke:white;stroke-width:10;stroke-linecap:butt;stroke-linejoin:miter;stroke-miterlimit:4;stroke-dasharray:none;stroke-opacity:1"
         id="path7218" />
      <path
         d="M 322.60914,492.06072 C 353.72272,463.71679 358.76608,423.22873 308.43482,403.34908 C 288.33894,393.76511 281.87356,412.37494 287.80778,422.06065 C 312.40796,459.20022 402.78971,424.11856 390.42448,392.50524 C 380.22695,382.94774 362.11406,393.89853 359.27546,402.0484 C 344.21741,434.90288 407.18171,446.29463 441.43125,438.07485 C 458.62223,433.50507 456.04,415.79542 436.07639,416.08397 C 388.21204,420.97291 401.68744,465.57366 418.43107,485.27965 C 421.54076,489.5134 426.92423,492.69859 433.28476,494.73162"
         style="fill:none;fill-rule:evenodd;stroke:yellow;stroke-width:6;stroke-linecap:butt;stroke-linejoin:miter;stroke-miterlimit:4;stroke-dasharray:none;stroke-opacity:1"
         id="path3661" />
      <path
         d="M 490,238.07646 A 192.14285,107.14286 0 1 1 489.97427,236.32301"
         transform="matrix(0.806692,0,0,0.726667,128.1752,138.0416)"
         style="opacity:1;fill:url(#linearGradient9899);fill-opacity:1;fill-rule:nonzero;stroke:none;stroke-width:10;stroke-linecap:round;stroke-linejoin:round;stroke-miterlimit:4;stroke-dasharray:none;stroke-dashoffset:0;stroke-opacity:1"
         id="path8992" />
      <g
         transform="matrix(0.92272,0,0,0.974478,122.9224,52.67883)"
         id="g15251">
        <path
           d="M 294.99999,711.29077 A 30.714285,8.9285717 0 1 1 294.99588,711.14465"
           transform="matrix(0.998733,5.032219e-2,-5.032219e-2,0.998733,36.12855,-14.39826)"
           style="opacity:1;fill:black;fill-opacity:1;fill-rule:nonzero;stroke:none;stroke-width:5;stroke-linecap:round;stroke-linejoin:round;stroke-miterlimit:4;stroke-dasharray:none;stroke-dashoffset:0;stroke-opacity:0"
           id="path13465" />
        <path
           d="M 195.26743,522.94505 L 213.84754,699.32497 C 244.05588,710.29381 277.83565,712.69123 310.90114,704.37436 L 347.12387,523.86445 L 195.26743,522.94505 z "
           style="fill:url(#linearGradient15260);fill-opacity:1;fill-rule:evenodd;stroke:black;stroke-width:5;stroke-linecap:butt;stroke-linejoin:miter;stroke-miterlimit:4;stroke-dasharray:none;stroke-opacity:1"
           id="path11675" />
        <path
           d="M 340,558.07647 L 200,572.36218"
           style="fill:none;fill-rule:evenodd;stroke:black;stroke-width:5;stroke-linecap:butt;stroke-linejoin:miter;stroke-miterlimit:4;stroke-dasharray:none;stroke-opacity:1"
           id="path12570" />
        <path
           d="M 335.21105,583.53361 L 201.17995,597.91134"
           style="fill:none;fill-rule:evenodd;stroke:black;stroke-width:4.90798235;stroke-linecap:butt;stroke-linejoin:miter;stroke-miterlimit:4;stroke-dasharray:none;stroke-opacity:1"
           id="path13457" />
        <path
           d="M 329.73085,607.68133 L 205.14493,622.21032"
           style="fill:none;fill-rule:evenodd;stroke:black;stroke-width:4.75671673;stroke-linecap:butt;stroke-linejoin:miter;stroke-miterlimit:4;stroke-dasharray:none;stroke-opacity:1"
           id="path13459" />
        <path
           d="M 326.75429,628.35587 L 208.62658,642.99264"
           style="fill:none;fill-rule:evenodd;stroke:black;stroke-width:4.64893675;stroke-linecap:butt;stroke-linejoin:miter;stroke-miterlimit:4;stroke-dasharray:none;stroke-opacity:1"
           id="path13461" />
        <path
           d="M 321.25423,648.9879 L 209.58092,663.73627"
           style="fill:none;fill-rule:evenodd;stroke:black;stroke-width:4.53734398;stroke-linecap:butt;stroke-linejoin:miter;stroke-miterlimit:4;stroke-dasharray:none;stroke-opacity:1"
           id="path13463" />
      </g>
      <g
         transform="translate(102.0254,39.39595)"
         id="g17917">
        <path
           d="M 112.51974,451.74212 L 0.33740672,492.26796"
           style="fill:none;fill-rule:evenodd;stroke:#fffb00;stroke-width:15;stroke-linecap:butt;stroke-linejoin:miter;stroke-miterlimit:4;stroke-dasharray:none;stroke-opacity:1"
           id="path14352" />
        <path
           d="M 92.131466,281.9711 L 1.4399697,224.18183"
           style="fill:none;fill-rule:evenodd;stroke:#fffb00;stroke-width:15;stroke-linecap:butt;stroke-linejoin:miter;stroke-miterlimit:4;stroke-dasharray:none;stroke-opacity:1"
           id="path14354" />
        <path
           d="M 277.18122,205.23752 L 275.67592,99.486815"
           style="fill:none;fill-opacity:1;fill-rule:evenodd;stroke:#fffb00;stroke-width:15;stroke-linecap:butt;stroke-linejoin:miter;stroke-miterlimit:4;stroke-dasharray:none;stroke-opacity:1"
           id="path14356" />
        <path
           d="M 423.55024,469.47981 L 532.16405,510.00565"
           style="fill:none;fill-rule:evenodd;stroke:#fffb00;stroke-width:15;stroke-linecap:butt;stroke-linejoin:miter;stroke-miterlimit:4;stroke-dasharray:none;stroke-opacity:1"
           id="path15247" />
        <path
           d="M 443.28996,299.70879 L 531.09656,241.91952"
           style="fill:none;fill-rule:evenodd;stroke:#fffb00;stroke-width:15;stroke-linecap:butt;stroke-linejoin:miter;stroke-miterlimit:4;stroke-dasharray:none;stroke-opacity:1"
           id="path15249" />
      </g>
    </g>
  </g>
</svg>
