<?xml version="1.0" encoding="UTF-8" standalone="no"?>
<!-- Created with Inkscape (http://www.inkscape.org/) -->
<svg
   xmlns:dc="http://purl.org/dc/elements/1.1/"
   xmlns:cc="http://web.resource.org/cc/"
   xmlns:rdf="http://www.w3.org/1999/02/22-rdf-syntax-ns#"
   xmlns:svg="http://www.w3.org/2000/svg"
   xmlns="http://www.w3.org/2000/svg"
   xmlns:xlink="http://www.w3.org/1999/xlink"
   xmlns:sodipodi="http://sodipodi.sourceforge.net/DTD/sodipodi-0.dtd"
   xmlns:inkscape="http://www.inkscape.org/namespaces/inkscape"
   width="40"
   height="40"
   id="svg2193"
   sodipodi:version="0.32"
   inkscape:version="0.45.1"
   version="1.0"
   sodipodi:docbase="/home/jra/Desktop"
   sodipodi:docname="radioactive11clean2radium.svg"
   inkscape:output_extension="org.inkscape.output.svg.inkscape">
  <defs
     id="defs2195">
    <linearGradient
       id="linearGradient4506">
      <stop
         style="stop-color:#000000;stop-opacity:0;"
         offset="0"
         id="stop4508" />
      <stop
         style="stop-color:#000000;stop-opacity:0.78750002;"
         offset="1"
         id="stop4510" />
    </linearGradient>
    <linearGradient
       id="linearGradient4444">
      <stop
         id="stop4446"
         offset="0"
         style="stop-color:#000000;stop-opacity:1;" />
      <stop
         style="stop-color:#ffffff;stop-opacity:1;"
         offset="0.5"
         id="stop4450" />
      <stop
         id="stop4448"
         offset="1"
         style="stop-color:#000000;stop-opacity:1;" />
    </linearGradient>
    <linearGradient
       id="linearGradient4387">
      <stop
         style="stop-color:#000000;stop-opacity:1;"
         offset="0"
         id="stop4389" />
      <stop
         id="stop4421"
         offset="0.94"
         style="stop-color:#000000;stop-opacity:0.49803922;" />
      <stop
         style="stop-color:#000000;stop-opacity:0;"
         offset="1"
         id="stop4391" />
    </linearGradient>
    <linearGradient
       id="linearGradient3325">
      <stop
         style="stop-color:#ffffff;stop-opacity:1;"
         offset="0"
         id="stop3327" />
      <stop
         style="stop-color:#d3d7cf;stop-opacity:0;"
         offset="1"
         id="stop3329" />
    </linearGradient>
    <linearGradient
       inkscape:collect="always"
       id="linearGradient3211">
      <stop
         style="stop-color:#888a85;stop-opacity:1;"
         offset="0"
         id="stop3213" />
      <stop
         style="stop-color:#888a85;stop-opacity:0;"
         offset="1"
         id="stop3215" />
    </linearGradient>
    <linearGradient
       inkscape:collect="always"
       xlink:href="#linearGradient3211"
       id="linearGradient3217"
       x1="11.018672"
       y1="25.580914"
       x2="11.018672"
       y2="42.091286"
       gradientUnits="userSpaceOnUse"
       gradientTransform="matrix(0.9181771,0,0,0.8709947,-4.3731938,-9.150515)" />
    <linearGradient
       inkscape:collect="always"
       id="linearGradient3239">
      <stop
         style="stop-color:#eeeeec;stop-opacity:1;"
         offset="0"
         id="stop3241" />
      <stop
         style="stop-color:#eeeeec;stop-opacity:0;"
         offset="1"
         id="stop3243" />
    </linearGradient>
    <linearGradient
       inkscape:collect="always"
       xlink:href="#linearGradient3239"
       id="linearGradient3245"
       x1="-0.70457029"
       y1="5.5863867"
       x2="-1.8764184"
       y2="5.4314895"
       gradientUnits="userSpaceOnUse"
       gradientTransform="matrix(0.8834827,0,0,0.9061674,1.6702013,2.2373643)" />
    <linearGradient
       y2="24.178755"
       x2="-28.773472"
       y1="24.178755"
       x1="-51.34446"
       gradientTransform="matrix(0.6798311,0,0,0.7929132,42.482412,21.618251)"
       gradientUnits="userSpaceOnUse"
       id="linearGradient2245"
       xlink:href="#linearGradient4467"
       inkscape:collect="always" />
    <linearGradient
       id="linearGradient4467">
      <stop
         id="stop4469"
         offset="0"
         style="stop-color:#3465a4;stop-opacity:0.63636363" />
      <stop
         id="stop4471"
         offset="1"
         style="stop-color:#3465a4;stop-opacity:0" />
    </linearGradient>
    <linearGradient
       gradientTransform="translate(0.353486,-0.619608)"
       y2="19.813564"
       x2="30"
       y1="19.813564"
       x1="18.710375"
       gradientUnits="userSpaceOnUse"
       id="linearGradient2249"
       xlink:href="#linearGradient3180"
       inkscape:collect="always" />
    <linearGradient
       id="linearGradient3180">
      <stop
         id="stop3182"
         offset="0"
         style="stop-color:#f57900;stop-opacity:1" />
      <stop
         id="stop3184"
         offset="1"
         style="stop-color:#f57900;stop-opacity:0" />
    </linearGradient>
    <linearGradient
       gradientTransform="matrix(0.5858982,0.6028445,-0.582762,0.6060888,23.779163,-2.670758)"
       y2="17.566504"
       x2="20.707037"
       y1="23.672857"
       x1="27.010117"
       gradientUnits="userSpaceOnUse"
       id="linearGradient2252"
       xlink:href="#linearGradient3220"
       inkscape:collect="always" />
    <linearGradient
       id="linearGradient3220">
      <stop
         id="stop3222"
         offset="0"
         style="stop-color:#000000;stop-opacity:1" />
      <stop
         id="stop3224"
         offset="1"
         style="stop-color:#c1c3c0;stop-opacity:1" />
    </linearGradient>
    <linearGradient
       gradientTransform="matrix(0.5858982,0.6028445,-0.582762,0.6060888,23.779163,-2.670758)"
       y2="24.831848"
       x2="27.933493"
       y1="15.864811"
       x1="19.014454"
       gradientUnits="userSpaceOnUse"
       id="linearGradient2254"
       xlink:href="#linearGradient3228"
       inkscape:collect="always" />
    <linearGradient
       id="linearGradient3228">
      <stop
         id="stop3230"
         offset="0"
         style="stop-color:#204a87;stop-opacity:1" />
      <stop
         id="stop3232"
         offset="1"
         style="stop-color:#000000;stop-opacity:1" />
    </linearGradient>
    <linearGradient
       gradientTransform="matrix(-0.2165963,0.812271,-0.8192895,-0.1889973,31.966721,3.425248)"
       y2="22.208611"
       x2="18.848137"
       y1="20.9065"
       x1="26.929329"
       gradientUnits="userSpaceOnUse"
       id="linearGradient2262"
       xlink:href="#linearGradient3250"
       inkscape:collect="always" />
    <linearGradient
       id="linearGradient3250">
      <stop
         id="stop3252"
         offset="0"
         style="stop-color:#6c0000;stop-opacity:1" />
      <stop
         id="stop3254"
         offset="1"
         style="stop-color:#a40000;stop-opacity:1" />
    </linearGradient>
    <linearGradient
       gradientTransform="matrix(-0.2165963,0.812271,-0.8192895,-0.1889973,27.295684,3.267965)"
       y2="22.208611"
       x2="18.848137"
       y1="20.9065"
       x1="26.929329"
       gradientUnits="userSpaceOnUse"
       id="linearGradient2265"
       xlink:href="#linearGradient3250"
       inkscape:collect="always" />
    <linearGradient
       gradientTransform="matrix(-0.2165963,0.812271,-0.8192895,-0.1889973,23.295684,3.267965)"
       y2="22.208611"
       x2="18.848137"
       y1="20.9065"
       x1="26.929329"
       gradientUnits="userSpaceOnUse"
       id="linearGradient2268"
       xlink:href="#linearGradient3250"
       inkscape:collect="always" />
    <linearGradient
       gradientTransform="translate(0.353486,-0.619608)"
       y2="19.813564"
       x2="30"
       y1="19.813564"
       x1="18.710375"
       gradientUnits="userSpaceOnUse"
       id="linearGradient2273"
       xlink:href="#linearGradient3180"
       inkscape:collect="always" />
    <linearGradient
       gradientTransform="matrix(0.5858982,0.6028445,-0.582762,0.6060888,23.779163,-2.670758)"
       y2="17.566504"
       x2="20.707037"
       y1="23.672857"
       x1="27.010117"
       gradientUnits="userSpaceOnUse"
       id="linearGradient2276"
       xlink:href="#linearGradient3220"
       inkscape:collect="always" />
    <linearGradient
       gradientTransform="matrix(0.5858982,0.6028445,-0.582762,0.6060888,23.779163,-2.670758)"
       y2="24.831848"
       x2="27.933493"
       y1="15.864811"
       x1="19.014454"
       gradientUnits="userSpaceOnUse"
       id="linearGradient2278"
       xlink:href="#linearGradient3228"
       inkscape:collect="always" />
    <linearGradient
       gradientTransform="matrix(-0.2165963,0.812271,-0.8192895,-0.1889973,23.295684,3.267965)"
       y2="22.208611"
       x2="18.848137"
       y1="20.9065"
       x1="26.929329"
       gradientUnits="userSpaceOnUse"
       id="linearGradient2290"
       xlink:href="#linearGradient3250"
       inkscape:collect="always" />
    <linearGradient
       gradientTransform="matrix(-0.2165963,0.812271,-0.8192895,-0.1889973,27.295684,3.267965)"
       y2="22.208611"
       x2="18.848137"
       y1="20.9065"
       x1="26.929329"
       gradientUnits="userSpaceOnUse"
       id="linearGradient2287"
       xlink:href="#linearGradient3250"
       inkscape:collect="always" />
    <filter
       id="filter3656">
      <feGaussianBlur
         inkscape:collect="always"
         stdDeviation="2.2506447"
         id="feGaussianBlur3658" />
    </filter>
    <linearGradient
       inkscape:collect="always"
       xlink:href="#linearGradient4467"
       id="linearGradient2376"
       gradientUnits="userSpaceOnUse"
       gradientTransform="matrix(0.5501635,0,0,0.4885842,32.847677,13.578005)"
       x1="-51.34446"
       y1="24.178755"
       x2="-28.773472"
       y2="24.178755" />
    <linearGradient
       inkscape:collect="always"
       xlink:href="#linearGradient3180"
       id="linearGradient2380"
       gradientUnits="userSpaceOnUse"
       gradientTransform="matrix(0.7066346,0,0,0.6134265,2.7593966,-5.2308267e-2)"
       x1="18.710375"
       y1="19.813564"
       x2="30"
       y2="19.813564" />
    <linearGradient
       inkscape:collect="always"
       xlink:href="#linearGradient3220"
       id="linearGradient2383"
       gradientUnits="userSpaceOnUse"
       gradientTransform="matrix(0.4892042,0.443781,-0.5747733,0.3231391,15.583477,-0.6791362)"
       x1="27.010117"
       y1="23.672857"
       x2="20.707037"
       y2="17.566504" />
    <linearGradient
       inkscape:collect="always"
       xlink:href="#linearGradient3228"
       id="linearGradient2385"
       gradientUnits="userSpaceOnUse"
       gradientTransform="matrix(0.4892042,0.443781,-0.5747733,0.3231391,15.583477,-0.6791362)"
       x1="19.014454"
       y1="15.864811"
       x2="27.933493"
       y2="24.831848" />
    <linearGradient
       inkscape:collect="always"
       xlink:href="#linearGradient3250"
       id="linearGradient2393"
       gradientUnits="userSpaceOnUse"
       gradientTransform="matrix(-0.1530544,0.4982686,-0.5789383,-0.115936,8.5818529,-4.2641255)"
       x1="26.929329"
       y1="20.9065"
       x2="18.848137"
       y2="22.208611" />
    <linearGradient
       inkscape:collect="always"
       xlink:href="#linearGradient3250"
       id="linearGradient2396"
       gradientUnits="userSpaceOnUse"
       gradientTransform="matrix(-0.1530544,0.4982686,-0.5789383,-0.115936,5.2811369,-4.3606071)"
       x1="26.929329"
       y1="20.9065"
       x2="18.848137"
       y2="22.208611" />
    <linearGradient
       inkscape:collect="always"
       xlink:href="#linearGradient3250"
       id="linearGradient2399"
       gradientUnits="userSpaceOnUse"
       gradientTransform="matrix(-0.1530544,0.4982686,-0.5789383,-0.115936,2.4545989,-4.3606071)"
       x1="26.929329"
       y1="20.9065"
       x2="18.848137"
       y2="22.208611" />
    <linearGradient
       inkscape:collect="always"
       xlink:href="#linearGradient3180"
       id="linearGradient2404"
       gradientUnits="userSpaceOnUse"
       gradientTransform="matrix(0.7066346,0,0,0.6134265,26.759397,-5.2308267e-2)"
       x1="18.710375"
       y1="19.813564"
       x2="30"
       y2="19.813564" />
    <linearGradient
       inkscape:collect="always"
       xlink:href="#linearGradient3220"
       id="linearGradient2407"
       gradientUnits="userSpaceOnUse"
       gradientTransform="matrix(0.5368335,0.3848015,-0.5339599,0.3868722,13.59044,-0.5940728)"
       x1="27.010117"
       y1="23.672857"
       x2="20.707037"
       y2="17.566504" />
    <linearGradient
       inkscape:collect="always"
       xlink:href="#linearGradient3228"
       id="linearGradient2409"
       gradientUnits="userSpaceOnUse"
       gradientTransform="matrix(0.5368335,0.3848015,-0.5339599,0.3868722,13.59044,-0.5940728)"
       x1="19.014454"
       y1="15.864811"
       x2="27.933493"
       y2="24.831848" />
    <linearGradient
       inkscape:collect="always"
       xlink:href="#linearGradient3250"
       id="linearGradient2421"
       gradientUnits="userSpaceOnUse"
       gradientTransform="matrix(-0.1530544,0.4982686,-0.5789383,-0.115936,2.4545989,-4.3606071)"
       x1="26.929329"
       y1="20.9065"
       x2="18.848137"
       y2="22.208611" />
    <linearGradient
       inkscape:collect="always"
       xlink:href="#linearGradient3180"
       id="linearGradient3407"
       gradientUnits="userSpaceOnUse"
       gradientTransform="matrix(0.8864023,0,0,0.7744539,-5.6130232,-1.4487278)"
       x1="18.710375"
       y1="19.813564"
       x2="30"
       y2="19.813564" />
    <linearGradient
       gradientUnits="userSpaceOnUse"
       y2="-41.8423"
       x2="-27.202675"
       y1="-41.8423"
       x1="-102.18439"
       id="linearGradient2321"
       xlink:href="#linearGradient2298"
       inkscape:collect="always" />
    <linearGradient
       id="linearGradient3291">
      <stop
         id="stop3293"
         offset="0"
         style="stop-color:#000000;stop-opacity:1;" />
      <stop
         id="stop3295"
         offset="1"
         style="stop-color:#000000;stop-opacity:0;" />
    </linearGradient>
    <linearGradient
       id="linearGradient2298">
      <stop
         id="stop2300"
         offset="0"
         style="stop-color:#0e0000;stop-opacity:1;" />
      <stop
         style="stop-color:#4b0000;stop-opacity:1;"
         offset="0.63186812"
         id="stop2399" />
      <stop
         id="stop2302"
         offset="1"
         style="stop-color:#950000;stop-opacity:1;" />
    </linearGradient>
    <linearGradient
       id="linearGradient2308">
      <stop
         id="stop2310"
         offset="0"
         style="stop-color:#0e0000;stop-opacity:1;" />
      <stop
         id="stop2312"
         offset="1"
         style="stop-color:#0e0000;stop-opacity:0;" />
    </linearGradient>
    <linearGradient
       id="linearGradient2255">
      <stop
         id="stop2257"
         offset="0"
         style="stop-color:#003fa2;stop-opacity:1;" />
      <stop
         id="stop2259"
         offset="1"
         style="stop-color:#2b7eff;stop-opacity:1;" />
    </linearGradient>
    <radialGradient
       inkscape:collect="always"
       xlink:href="#linearGradient3291"
       id="radialGradient2573"
       gradientUnits="userSpaceOnUse"
       gradientTransform="matrix(1,0,0,0.197802,0,92.82166)"
       cx="63.912209"
       cy="115.70919"
       fx="14.046639"
       fy="115.70919"
       r="63.912209" />
    <radialGradient
       inkscape:collect="always"
       xlink:href="#linearGradient3291"
       id="radialGradient2595"
       gradientUnits="userSpaceOnUse"
       gradientTransform="matrix(1,0,0,0.197802,0,92.82166)"
       cx="63.912209"
       cy="115.70919"
       fx="75.857941"
       fy="115.70919"
       r="63.912209" />
    <radialGradient
       inkscape:collect="always"
       xlink:href="#linearGradient4387"
       id="radialGradient4436"
       cx="60.59375"
       cy="-13.902055"
       fx="60.59375"
       fy="-13.902055"
       r="12.5625"
       gradientTransform="matrix(1.07679,0,0,1.0992262,-45.592397,31.215531)"
       gradientUnits="userSpaceOnUse" />
    <linearGradient
       inkscape:collect="always"
       xlink:href="#linearGradient4444"
       id="linearGradient4440"
       x1="44.494144"
       y1="-28.567741"
       x2="75.567909"
       y2="-32.265625"
       gradientUnits="userSpaceOnUse"
       gradientTransform="translate(-40.939396,40)" />
    <linearGradient
       inkscape:collect="always"
       xlink:href="#linearGradient3325"
       id="linearGradient4613"
       x1="76.047768"
       y1="-15.629025"
       x2="47.75"
       y2="-31.224443"
       gradientUnits="userSpaceOnUse"
       gradientTransform="translate(-40.939396,40)" />
    <radialGradient
       inkscape:collect="always"
       xlink:href="#linearGradient4387"
       id="radialGradient4687"
       gradientUnits="userSpaceOnUse"
       gradientTransform="matrix(1.1143307,-1.5780478e-7,1.6472222e-7,1.1631779,-11.500959,-15.41412)"
       cx="100.59375"
       cy="43.599236"
       fx="100.59375"
       fy="43.599236"
       r="11.25" />
    <radialGradient
       inkscape:collect="always"
       xlink:href="#linearGradient3325"
       id="radialGradient4704"
       gradientUnits="userSpaceOnUse"
       gradientTransform="matrix(1.6884655,-1.4834229e-2,-1.4210552e-2,-1.6174772,27.61118,62.211587)"
       cx="18.14547"
       cy="16.087112"
       fx="18.14547"
       fy="16.087112"
       r="11.313953" />
    <linearGradient
       inkscape:collect="always"
       xlink:href="#linearGradient4506"
       id="linearGradient4392"
       x1="53.305214"
       y1="-33.06604"
       x2="85.08548"
       y2="-18.91762"
       gradientUnits="userSpaceOnUse"
       gradientTransform="translate(-40.939396,40)" />
  </defs>
  <sodipodi:namedview
     id="base"
     pagecolor="#ffffff"
     bordercolor="#666666"
     borderopacity="1.0"
     inkscape:pageopacity="0.0"
     inkscape:pageshadow="2"
     inkscape:zoom="18.268332"
     inkscape:cx="19.999018"
     inkscape:cy="18.935121"
     inkscape:current-layer="layer1"
     showgrid="false"
     inkscape:grid-bbox="false"
     inkscape:document-units="px"
     width="40px"
     height="40px"
     gridempspacing="2"
     inkscape:window-width="1167"
     inkscape:window-height="914"
     inkscape:window-x="43"
     inkscape:window-y="53" />
  <metadata
     id="metadata2198">
    <rdf:RDF>
      <cc:Work
         rdf:about="">
        <dc:format>image/svg+xml</dc:format>
        <dc:type
           rdf:resource="http://purl.org/dc/dcmitype/StillImage" />
        <dc:creator>
          <cc:Agent>
            <dc:title>Jarle Akselsen</dc:title>
          </cc:Agent>
        </dc:creator>
        <cc:license
           rdf:resource="http://creativecommons.org/licenses/GPL/2.0/" />
      </cc:Work>
      <cc:License
         rdf:about="http://creativecommons.org/licenses/GPL/2.0/">
        <cc:permits
           rdf:resource="http://web.resource.org/cc/Reproduction" />
        <cc:permits
           rdf:resource="http://web.resource.org/cc/Distribution" />
        <cc:requires
           rdf:resource="http://web.resource.org/cc/Notice" />
        <cc:permits
           rdf:resource="http://web.resource.org/cc/DerivativeWorks" />
        <cc:requires
           rdf:resource="http://web.resource.org/cc/ShareAlike" />
        <cc:requires
           rdf:resource="http://web.resource.org/cc/SourceCode" />
      </cc:License>
    </rdf:RDF>
  </metadata>
  <g
     id="layer1"
     inkscape:label="Layer 1"
     inkscape:groupmode="layer">
    <path
       transform="matrix(0.2772262,0,0,0.5613587,4.3497065,-37.15889)"
       d="M 127.82442 115.70919 A 63.912209 12.641975 0 1 1  0,115.70919 A 63.912209 12.641975 0 1 1  127.82442 115.70919 z"
       sodipodi:ry="12.641975"
       sodipodi:rx="63.912209"
       sodipodi:cy="115.70919"
       sodipodi:cx="63.912209"
       id="path2593"
       style="opacity:0.38139535;fill:url(#radialGradient2595);fill-opacity:1;fill-rule:nonzero;stroke:none;stroke-width:0;stroke-linecap:round;stroke-linejoin:round;stroke-miterlimit:4;stroke-dasharray:none;stroke-dashoffset:4;stroke-opacity:1"
       sodipodi:type="arc" />
    <path
       style="opacity:1;fill:#000000;fill-opacity:1;fill-rule:nonzero;stroke:none;stroke-width:0.2;stroke-linecap:round;stroke-linejoin:round;stroke-miterlimit:4;stroke-dasharray:none;stroke-opacity:1"
       d="M 19.654354,2.125 C 13.238571,2.124997 7.957824,6.905688 7.123102,13.09375 C 6.916225,14.007509 6.810602,14.961917 6.810602,15.9375 C 6.810603,23.021664 12.57019,28.75 19.654354,28.75 C 26.738514,28.75 32.498104,23.021664 32.498104,15.9375 C 32.498104,14.961917 32.392481,14.007509 32.185604,13.09375 C 31.350882,6.905687 26.070139,2.125 19.654354,2.125 z M 16.810604,3.40625 C 16.480257,3.481041 16.16206,3.587731 15.841854,3.6875 C 16.163016,3.587019 16.479117,3.481564 16.810604,3.40625 z M 22.498104,3.40625 C 22.829591,3.481564 23.145692,3.587019 23.466854,3.6875 C 23.146649,3.587731 22.828451,3.481041 22.498104,3.40625 z M 19.654354,4.46875 C 25.989514,4.468752 31.123104,9.602337 31.123104,15.9375 C 31.123104,22.272664 25.989514,27.40625 19.654354,27.40625 C 13.319193,27.406249 8.185602,22.272663 8.185602,15.9375 C 8.185601,9.602338 13.319191,4.46875 19.654354,4.46875 z "
       id="path4394"
       sodipodi:nodetypes="ccssscccsccsccsssc" />
    <path
       sodipodi:nodetypes="ccc"
       id="path2276"
       d="M 10.956528,1.0198748 L 10.956528,-1.7748336 L 10.956528,1.0198748 z "
       style="fill:#ffffff;fill-opacity:0.75688076;fill-rule:nonzero;stroke:none;stroke-width:0.5;stroke-linecap:round;stroke-linejoin:round;stroke-miterlimit:4;stroke-dasharray:none;stroke-dashoffset:4;stroke-opacity:1" />
    <rect
       style="opacity:0.61162792;fill:#555753;fill-opacity:1;fill-rule:nonzero;stroke:none;stroke-width:0.69999999;stroke-linecap:round;stroke-linejoin:miter;stroke-miterlimit:4;stroke-dasharray:none;stroke-opacity:1"
       id="rect1951"
       width="40.001965"
       height="10.004759"
       x="-0.0019644466"
       y="30" />
    <text
       xml:space="preserve"
       style="font-size:12px;font-style:normal;font-weight:normal;fill:#eeeeec;fill-opacity:1;stroke:none;stroke-width:1px;stroke-linecap:butt;stroke-linejoin:miter;stroke-opacity:1;font-family:Bitstream Vera Sans"
       x="12.277712"
       y="39.168156"
       id="text2840"><tspan
         sodipodi:role="line"
         id="tspan2842"
         x="12.277712"
         y="39.168156">Ra</tspan></text>
    <path
       style="opacity:0.5;fill:#000000;fill-opacity:1;fill-rule:nonzero;stroke:none;stroke-width:0.2;stroke-linecap:round;stroke-linejoin:round;stroke-miterlimit:4;stroke-dasharray:none;stroke-opacity:1"
       d="M 19.654354,3.09375 C 12.570189,3.093749 6.810602,8.853336 6.810602,15.9375 C 6.810603,23.021662 12.57019,28.75 19.654354,28.75 C 26.738517,28.749999 32.498104,23.021664 32.498104,15.9375 C 32.498101,8.853333 26.738518,3.09375 19.654354,3.09375 z M 19.654354,4.46875 C 25.989518,4.468752 31.123104,9.602337 31.123104,15.9375 C 31.1231,22.272664 25.989517,27.40625 19.654354,27.40625 C 13.319193,27.406249 8.185602,22.272663 8.185602,15.9375 C 8.185601,9.602338 13.319191,4.46875 19.654354,4.46875 z "
       id="path2306" />
    <path
       style="opacity:1;fill:#ffaa00;fill-opacity:1;fill-rule:nonzero;stroke:none;stroke-width:0.2;stroke-linecap:round;stroke-linejoin:round;stroke-miterlimit:4;stroke-dasharray:none;stroke-opacity:1"
       d="M 19.654354,4.46875 C 13.319191,4.46875 8.185601,9.602338 8.185602,15.9375 C 8.185602,22.272663 13.319193,27.406249 19.654354,27.40625 C 25.989517,27.40625 31.1231,22.272664 31.123104,15.9375 C 31.123104,9.602337 25.989518,4.468752 19.654354,4.46875 z M 24.248104,6.9375 C 26.906409,8.30202 28.907792,10.786447 29.560604,13.78125 C 29.562723,13.790972 29.558513,13.802767 29.560604,13.8125 C 29.593463,14.140113 29.623104,14.476138 29.623104,14.8125 C 29.623104,14.958473 29.59807,15.105551 29.591854,15.25 L 22.623104,15.28125 C 22.620944,15.271652 22.625354,15.259564 22.623104,15.25 C 22.642567,15.109665 22.654354,14.957958 22.654354,14.8125 C 22.654354,13.709204 22.070022,12.776766 21.185604,12.25 L 24.248104,6.9375 z M 14.873104,7 L 18.029354,12.28125 C 17.196384,12.820189 16.654354,13.74828 16.654354,14.8125 C 16.654354,14.938515 16.695131,15.06552 16.716854,15.1875 C 16.708549,15.219723 16.692878,15.248632 16.685604,15.28125 L 9.716853,15.3125 C 9.708746,15.147764 9.685603,14.979233 9.685603,14.8125 C 9.685603,14.517075 9.722825,14.226558 9.748103,13.9375 C 10.3546,10.944446 12.264805,8.403488 14.873104,7 z M 19.654354,14.1875 C 20.32925,14.187499 20.900198,14.59229 21.185604,15.15625 C 21.090262,15.931876 20.455619,16.53125 19.654354,16.53125 C 18.853088,16.531251 18.218447,15.931875 18.123104,15.15625 C 18.40851,14.59229 18.979458,14.1875 19.654354,14.1875 z M 17.716854,18.28125 C 18.247491,18.71923 18.913099,19 19.654354,19 C 20.395604,19 21.061214,18.71923 21.591854,18.28125 L 24.623104,23.40625 C 23.156981,24.259604 21.471155,24.78125 19.654354,24.78125 C 17.849352,24.78125 16.175666,24.281475 14.716854,23.4375 L 17.716854,18.28125 z "
       id="path2313" />
    <path
       style="opacity:0.60700001;fill:url(#radialGradient4436);fill-opacity:1;fill-rule:nonzero;stroke:none;stroke-width:0.2;stroke-linecap:round;stroke-linejoin:round;stroke-miterlimit:4;stroke-dasharray:none;stroke-opacity:1"
       d="M 19.654354,2.125 C 13.151207,2.124997 7.814596,7.033108 7.091852,13.34375 C 8.289189,7.497429 13.455709,3.09375 19.654354,3.09375 C 25.852998,3.09375 31.019514,7.497428 32.216854,13.34375 C 31.49411,7.033107 26.157503,2.125 19.654354,2.125 z "
       id="path2339" />
    <path
       style="opacity:0.25;fill:url(#linearGradient4613);fill-opacity:1;fill-rule:nonzero;stroke:none;stroke-width:0.2;stroke-linecap:round;stroke-linejoin:round;stroke-miterlimit:4;stroke-dasharray:none;stroke-opacity:1"
       d="M 19.654354,3.09375 C 12.570189,3.093749 6.810602,8.853336 6.810602,15.9375 C 6.810603,23.021664 12.57019,28.75 19.654354,28.75 C 26.738514,28.75 32.498104,23.021664 32.498104,15.9375 C 32.498104,8.853335 26.738514,3.09375 19.654354,3.09375 z M 19.654354,4.46875 C 25.989514,4.468752 31.123104,9.602337 31.123104,15.9375 C 31.123104,22.272664 25.989514,27.40625 19.654354,27.40625 C 13.319193,27.406249 8.185602,22.272663 8.185602,15.9375 C 8.185601,9.602338 13.319191,4.46875 19.654354,4.46875 z M 24.248104,6.9375 L 21.185604,12.25 C 22.070024,12.776766 22.654354,13.709204 22.654354,14.8125 C 22.654354,14.957958 22.642564,15.109665 22.623104,15.25 C 22.625354,15.259564 22.620944,15.271652 22.623104,15.28125 L 29.591854,15.25 C 29.598074,15.105551 29.623104,14.958473 29.623104,14.8125 C 29.623104,14.476138 29.593464,14.140113 29.560604,13.8125 C 29.558514,13.802767 29.562724,13.790972 29.560604,13.78125 C 28.907794,10.786447 26.906404,8.30202 24.248104,6.9375 z M 14.873104,7 C 12.264805,8.403488 10.3546,10.944446 9.748103,13.9375 C 9.722825,14.226558 9.685603,14.517075 9.685603,14.8125 C 9.685603,14.979233 9.708746,15.147764 9.716853,15.3125 L 16.685604,15.28125 C 16.692878,15.248632 16.708549,15.219723 16.716854,15.1875 C 16.695131,15.06552 16.654354,14.938515 16.654354,14.8125 C 16.654354,13.74828 17.196384,12.820189 18.029354,12.28125 L 14.873104,7 z M 19.654354,14.1875 C 18.979458,14.1875 18.40851,14.59229 18.123104,15.15625 C 18.218447,15.931875 18.853088,16.531251 19.654354,16.53125 C 20.455624,16.53125 21.090264,15.931876 21.185604,15.15625 C 20.900194,14.59229 20.329254,14.187499 19.654354,14.1875 z M 17.716854,18.28125 L 14.716854,23.4375 C 16.175666,24.281475 17.849352,24.78125 19.654354,24.78125 C 21.471154,24.78125 23.156984,24.259604 24.623104,23.40625 L 21.591854,18.28125 C 21.061214,18.71923 20.395604,19 19.654354,19 C 18.913099,19 18.247491,18.71923 17.716854,18.28125 z "
       id="path2354" />
    <path
       id="path4438"
       d="M 19.654354,2.125 C 13.151207,2.124997 7.814596,7.033108 7.091852,13.34375 C 8.289189,7.497429 13.455709,3.09375 19.654354,3.09375 C 25.852998,3.09375 31.019514,7.497428 32.216854,13.34375 C 31.49411,7.033107 26.157503,2.125 19.654354,2.125 z "
       style="opacity:0.5;fill:url(#linearGradient4440);fill-opacity:1;fill-rule:nonzero;stroke:none;stroke-width:0.2;stroke-linecap:round;stroke-linejoin:round;stroke-miterlimit:4;stroke-dasharray:none;stroke-opacity:1" />
    <path
       style="opacity:0.75242716;fill:url(#linearGradient4392);fill-opacity:1;fill-rule:nonzero;stroke:none;stroke-width:0.2;stroke-linecap:round;stroke-linejoin:round;stroke-miterlimit:4;stroke-dasharray:none;stroke-opacity:1"
       d="M 19.654354,4.46875 C 13.319194,4.46875 8.185602,9.602338 8.185602,15.9375 C 8.185602,22.272663 13.319194,27.406249 19.654354,27.40625 C 25.989514,27.40625 31.123104,22.272664 31.123104,15.9375 C 31.123104,9.602337 25.989514,4.468752 19.654354,4.46875 z M 24.248104,6.9375 C 26.906404,8.30202 28.907794,10.786447 29.560604,13.78125 C 29.562724,13.790972 29.558514,13.802767 29.560604,13.8125 C 29.707154,14.494623 29.779354,15.211311 29.779354,15.9375 C 29.779354,16.085828 29.754424,16.22822 29.748104,16.375 L 22.685604,16.40625 C 22.708754,16.25437 22.716854,16.095816 22.716854,15.9375 C 22.716854,15.705853 22.671924,15.498167 22.623104,15.28125 C 22.620944,15.271652 22.625354,15.259564 22.623104,15.25 C 22.386984,14.246441 21.669104,13.417649 20.716854,13.0625 L 21.185604,12.25 L 24.248104,6.9375 z M 14.873104,7 L 18.029354,12.28125 L 18.498104,13.09375 C 17.621114,13.454472 16.966314,14.226775 16.716854,15.15625 C 16.718834,15.166203 16.715094,15.17761 16.716854,15.1875 C 16.708554,15.219723 16.692874,15.248632 16.685604,15.28125 C 16.637534,15.496811 16.591854,15.707771 16.591854,15.9375 C 16.591854,16.096865 16.630904,16.253412 16.654354,16.40625 L 9.560603,16.4375 C 9.552363,16.270106 9.529353,16.106926 9.529353,15.9375 C 9.529353,15.246692 9.615833,14.590246 9.748103,13.9375 C 10.210774,11.654227 11.443154,9.640308 13.154354,8.1875 C 13.406114,7.975554 13.663934,7.780633 13.935604,7.59375 C 14.238644,7.384107 14.547064,7.175436 14.873104,7 z M 19.654354,14.1875 C 20.329254,14.187499 20.900194,14.59229 21.185604,15.15625 C 21.304244,15.390684 21.373104,15.65695 21.373104,15.9375 C 21.373104,16.892945 20.609804,17.65625 19.654354,17.65625 C 18.698914,17.656251 17.935604,16.892946 17.935604,15.9375 C 17.935604,15.65695 18.004464,15.390684 18.123104,15.15625 C 18.408514,14.59229 18.979454,14.1875 19.654354,14.1875 z M 17.716854,18.28125 C 18.247494,18.71923 18.913094,19 19.654354,19 C 20.395604,19 21.061214,18.71923 21.591854,18.28125 L 24.623104,23.40625 L 25.216854,24.375 C 23.618634,25.429938 21.711294,26.0625 19.654354,26.0625 C 17.621784,26.0625 15.741014,25.438347 14.154354,24.40625 L 14.716854,23.4375 L 17.716854,18.28125 z "
       id="path4501" />
    <path
       style="opacity:1;fill:#000000;fill-opacity:1;fill-rule:nonzero;stroke:none;stroke-width:0.2;stroke-linecap:round;stroke-linejoin:round;stroke-miterlimit:4;stroke-dasharray:none;stroke-opacity:1"
       d="M 19.654354,5.8125 C 20.069891,5.8125 20.472681,5.825047 20.873104,5.875 C 20.471121,5.826415 20.069372,5.8125 19.654354,5.8125 z M 19.654354,5.8125 C 19.239336,5.8125 18.837587,5.826415 18.435604,5.875 C 18.834025,5.828455 19.242418,5.8125 19.654354,5.8125 z M 20.873104,5.875 C 21.263336,5.923682 21.654881,6.001089 22.029354,6.09375 C 21.649315,6.001695 21.268488,5.922787 20.873104,5.875 z M 18.216854,5.90625 C 17.854224,5.958204 17.503556,6.035647 17.154354,6.125 C 17.503355,6.037395 17.854231,5.956637 18.216854,5.90625 z M 17.154354,6.125 C 16.75997,6.225914 16.37246,6.354282 15.998104,6.5 C 16.369307,6.357291 16.763667,6.223069 17.154354,6.125 z M 22.091854,6.09375 C 22.849023,6.28596 23.564571,6.586641 24.248104,6.9375 C 23.566983,6.587878 22.851479,6.282615 22.091854,6.09375 z M 24.248104,6.9375 L 20.716854,13.0625 C 21.88327,13.497524 22.716854,14.620051 22.716854,15.9375 C 22.716854,16.095816 22.708755,16.25437 22.685604,16.40625 L 29.748104,16.375 C 29.754427,16.22822 29.779354,16.085828 29.779354,15.9375 C 29.779354,12.009232 27.519864,8.616909 24.248104,6.9375 z M 29.748104,16.375 C 29.730982,16.772479 29.684395,17.147282 29.623104,17.53125 C 29.683849,17.150345 29.731141,16.768771 29.748104,16.375 z M 14.873104,7 C 11.695968,8.709571 9.529353,12.079112 9.529353,15.9375 C 9.529353,16.106926 9.552365,16.270106 9.560603,16.4375 L 16.654354,16.40625 C 16.630901,16.253412 16.591854,16.096865 16.591854,15.9375 C 16.591854,14.655854 17.381457,13.553048 18.498104,13.09375 L 14.873104,7 z M 9.560603,16.4375 C 9.581049,16.852981 9.616488,17.255366 9.685603,17.65625 C 9.615891,17.253188 9.581197,16.855974 9.560603,16.4375 z M 9.685603,17.65625 C 9.895533,18.8739 10.331902,20.003508 10.935604,21.03125 C 10.337696,20.012269 9.894741,18.865436 9.685603,17.65625 z M 10.935604,21.03125 C 11.332819,21.707468 11.803994,22.342073 12.341854,22.90625 C 11.800073,22.340074 11.334209,21.710571 10.935604,21.03125 z M 12.341854,22.90625 C 12.845097,23.434116 13.391794,23.902774 13.998104,24.3125 C 13.396249,23.905377 12.841357,23.428245 12.341854,22.90625 z M 29.623104,17.65625 C 29.557214,18.039008 29.449261,18.414778 29.341854,18.78125 C 29.450289,18.412443 29.55686,18.041186 29.623104,17.65625 z M 29.341854,18.78125 C 29.006859,19.924247 28.499862,21.002744 27.810604,21.9375 C 28.503266,20.99901 29.004781,19.927696 29.341854,18.78125 z M 17.716854,18.28125 L 14.154354,24.40625 C 15.741015,25.438347 17.621786,26.0625 19.654354,26.0625 C 21.711291,26.0625 23.618637,25.429938 25.216854,24.375 L 21.591854,18.28125 C 21.061217,18.71923 20.395609,19 19.654354,19 C 18.913099,19 18.247491,18.71923 17.716854,18.28125 z M 26.810604,23.09375 C 26.355871,23.547749 25.846015,23.950532 25.310604,24.3125 C 25.849422,23.948382 26.352331,23.552023 26.810604,23.09375 z "
       id="path2253" />
    <path
       style="opacity:1;fill:#000000;fill-opacity:1;fill-rule:nonzero;stroke:none;stroke-width:0.2;stroke-linecap:round;stroke-linejoin:round;stroke-miterlimit:4;stroke-dasharray:none;stroke-opacity:1"
       d="M 19.65625,14.1875 C 18.98135,14.1875 18.41041,14.59229 18.125,15.15625 C 18.006364,15.390684 17.9375,15.65695 17.9375,15.9375 C 17.937504,16.892946 18.70081,17.656251 19.65625,17.65625 C 20.6117,17.65625 21.375,16.892945 21.375,15.9375 C 21.375,15.65695 21.30614,15.390684 21.1875,15.15625 C 20.90209,14.59229 20.33115,14.187499 19.65625,14.1875 z "
       id="path2350" />
  </g>
</svg>
