<?xml version="1.0" encoding="UTF-8" standalone="no"?>
<!-- Created with Inkscape (http://www.inkscape.org/) -->
<svg
   xmlns:dc="http://purl.org/dc/elements/1.1/"
   xmlns:cc="http://web.resource.org/cc/"
   xmlns:rdf="http://www.w3.org/1999/02/22-rdf-syntax-ns#"
   xmlns:svg="http://www.w3.org/2000/svg"
   xmlns="http://www.w3.org/2000/svg"
   xmlns:xlink="http://www.w3.org/1999/xlink"
   xmlns:sodipodi="http://sodipodi.sourceforge.net/DTD/sodipodi-0.dtd"
   xmlns:inkscape="http://www.inkscape.org/namespaces/inkscape"
   width="16px"
   height="16px"
   id="svg2164"
   sodipodi:version="0.32"
   inkscape:version="0.44.1"
   sodipodi:docbase="/home/carsten/svn/kdeedu/kalzium/data/iconsets/school"
   sodipodi:docname="c.svg"
   inkscape:export-filename="/home/carsten/svn/kdeedu/kalzium/data/iconsets/school/6.png"
   inkscape:export-xdpi="249.97766"
   inkscape:export-ydpi="249.97766">
  <defs
     id="defs2166">
    <linearGradient
       id="linearGradient8174">
      <stop
         style="stop-color:#e3c334;stop-opacity:1;"
         offset="0"
         id="stop8176" />
      <stop
         id="stop8182"
         offset="1"
         style="stop-color:#a77d17;stop-opacity:1;" />
    </linearGradient>
    <linearGradient
       id="linearGradient7193">
      <stop
         id="stop7195"
         offset="0"
         style="stop-color:#ffa8a8;stop-opacity:1;" />
      <stop
         style="stop-color:#b15555;stop-opacity:1;"
         offset="0.5"
         id="stop7201" />
      <stop
         id="stop7197"
         offset="1"
         style="stop-color:#f67389;stop-opacity:1" />
    </linearGradient>
    <linearGradient
       inkscape:collect="always"
       xlink:href="#linearGradient7193"
       id="linearGradient7039"
       x1="1.2511138"
       y1="3.0258663"
       x2="11.747648"
       y2="14.969307"
       gradientUnits="userSpaceOnUse"
       gradientTransform="matrix(0.9912531,0,0,0.9823763,-5.6483117,3.1542565)" />
    <linearGradient
       inkscape:collect="always"
       xlink:href="#linearGradient8174"
       id="linearGradient17014"
       gradientUnits="userSpaceOnUse"
       gradientTransform="matrix(0.9203879,0,0,0.7066708,0.6698983,0.8383175)"
       x1="6.2172031"
       y1="0.9232673"
       x2="7.5857682"
       y2="5.5183167" />
  </defs>
  <sodipodi:namedview
     id="base"
     pagecolor="#ffffff"
     bordercolor="#666666"
     borderopacity="1.0"
     inkscape:pageopacity="0.0"
     inkscape:pageshadow="2"
     inkscape:zoom="22.197802"
     inkscape:cx="21.884576"
     inkscape:cy="4.9761379"
     inkscape:current-layer="layer1"
     showgrid="true"
     inkscape:grid-bbox="true"
     inkscape:document-units="px"
     showguides="true"
     inkscape:guide-bbox="true"
     gridspacingx="0.01px"
     gridspacingy="0.01px"
     gridtolerance="0.4"
     inkscape:window-width="1272"
     inkscape:window-height="695"
     inkscape:window-x="0"
     inkscape:window-y="26">
    <sodipodi:guide
       orientation="horizontal"
       position="16.668317"
       id="guide8184" />
  </sodipodi:namedview>
  <metadata
     id="metadata2169">
    <rdf:RDF>
      <cc:Work
         rdf:about="">
        <dc:format>image/svg+xml</dc:format>
        <dc:type
           rdf:resource="http://purl.org/dc/dcmitype/StillImage" />
      </cc:Work>
    </rdf:RDF>
  </metadata>
  <g
     id="layer1"
     inkscape:label="Layer 1"
     inkscape:groupmode="layer"
     style="display:inline">
    <rect
       style="fill:none;fill-rule:evenodd;stroke:black;stroke-width:0.27147353;stroke-linecap:butt;stroke-linejoin:miter;stroke-miterlimit:4;stroke-dasharray:none;stroke-opacity:1"
       id="rect2176"
       width="16.028526"
       height="13.078526"
       x="-0.014263239"
       y="-0.014263239" />
    <rect
       style="fill:url(#linearGradient7039);fill-opacity:1;stroke:#000000;stroke-width:0.04934022;stroke-miterlimit:4;stroke-dasharray:none;stroke-opacity:1"
       id="rect6062"
       width="4.956265"
       height="4.911881"
       x="-3.6658063"
       y="7.0837607"
       transform="matrix(0.819152,-0.5735765,0.5735765,0.819152,0,0)" />
    <text
       xml:space="preserve"
       style="font-size:2.66047168px;font-style:normal;font-weight:normal;fill:#000000;fill-opacity:1;stroke:none;stroke-width:1px;stroke-linecap:butt;stroke-linejoin:miter;stroke-opacity:1;font-family:URW Chancery L"
       x="-2.2575185"
       y="9.7763996"
       id="text17016"
       transform="matrix(0.9927099,-0.7185797,0.4346515,0.6927183,0,0)"><tspan
         sodipodi:role="line"
         id="tspan17018"
         x="-2.2575185"
         y="9.7763996"
         style="font-size:0.88682383px;font-family:URW Chancery L">Call Bob to</tspan><tspan
         sodipodi:role="line"
         x="-2.2575185"
         y="10.884929"
         style="font-size:0.88682383px;font-family:URW Chancery L"
         id="tspan17020">reschedule</tspan><tspan
         sodipodi:role="line"
         x="-2.2575185"
         y="11.993459"
         style="font-size:0.88682383px;font-family:URW Chancery L"
         id="tspan17022">meeting</tspan></text>
    <path
       sodipodi:type="spiral"
       style="fill:none;fill-rule:evenodd;stroke:#000000;stroke-width:0.12984827;stroke-linecap:butt;stroke-linejoin:miter;stroke-miterlimit:4;stroke-dasharray:none;stroke-opacity:1"
       id="path17024"
       sodipodi:cx="19.776733"
       sodipodi:cy="9.197525"
       sodipodi:expansion="1"
       sodipodi:revolution="3"
       sodipodi:radius="2.6004143"
       sodipodi:argument="-17.523739"
       sodipodi:t0="0"
       d="M 19.776733,9.197525 C 19.808355,9.3240128 19.621832,9.3025555 19.566502,9.2500829 C 19.416564,9.1078855 19.521697,8.8696306 19.671618,8.777063 C 19.93979,8.6114813 20.279015,8.7767687 20.407426,9.0398514 C 20.595875,9.4259358 20.363689,9.8779229 19.986965,10.038449 C 19.48485,10.252405 18.916811,9.9509931 18.725578,9.4603145 C 18.484932,8.8428455 18.85657,8.1573851 19.461386,7.936139 C 20.193899,7.6681803 20.997484,8.110556 21.24835,8.8296198 C 21.543987,9.6770116 21.030578,10.599134 20.197196,10.879373 C 19.235025,11.202921 18.194103,10.618292 17.884654,9.670546 C 17.533039,8.5936573 18.189012,7.4337574 19.251155,7.095215 C 20.442717,6.7154216 21.721722,7.4428263 22.089274,8.6193883 C 22.497327,9.9255951 21.698427,11.323798 20.407428,11.720297"
       transform="matrix(-0.2691751,-0.1997113,0.2090525,-0.199805,9.4926644,14.962194)"
       inkscape:transform-center-y="-0.69745771"
       inkscape:transform-center-x="-0.19702435" />
    <g
       id="g17001"
       transform="matrix(0.5572064,-0.5072578,0.5626135,0.5814035,4.6465563,7.2098215)">
      <path
         sodipodi:nodetypes="cccccc"
         id="rect7203"
         d="M 2.5106738,2.2516592 L 13.938064,2.2516592 L 13.938064,2.9583298 L 2.5106738,2.9583298 L 1.1111833,2.5795378 L 2.5106738,2.2516592 z "
         style="fill:url(#linearGradient17014);fill-opacity:1;stroke:#000000;stroke-width:0.04032404;stroke-miterlimit:4;stroke-opacity:1" />
      <path
         sodipodi:nodetypes="cscccccc"
         id="path10132"
         d="M 13.840855,2.2595878 C 13.702252,2.2595878 13.580699,2.4132134 13.580699,2.6077062 C 13.580699,2.802199 13.702252,2.9558246 13.840855,2.9558247 L 13.956482,2.9614559 L 14.418982,2.9558247 L 14.430244,2.2595878 L 13.962113,2.2539566 C 13.962113,2.2539566 13.887058,2.2595878 13.840855,2.2595878 z "
         style="fill:#575757;fill-opacity:1;stroke:#000000;stroke-width:0.04063586;stroke-miterlimit:4;stroke-opacity:1" />
      <path
         id="path12089"
         d="M 2.5106748,2.4762717 C 13.609643,2.4762717 13.609643,2.4762717 13.609643,2.4762717"
         style="fill:none;fill-rule:evenodd;stroke:#000000;stroke-width:0.04298669;stroke-linecap:butt;stroke-linejoin:miter;stroke-miterlimit:4;stroke-dasharray:none;stroke-opacity:1" />
      <path
         sodipodi:nodetypes="csssssssc"
         id="path14054"
         d="M 2.5093894,2.9837093 C 2.4992626,2.9825611 0.65858354,2.5526387 0.66044595,2.5471036 C 0.66242394,2.541225 2.4821041,2.2612795 2.4916388,2.2623607 C 2.4941702,2.2626476 2.2832792,2.3800556 2.2862004,2.3795043 C 2.3003683,2.3768311 2.5745528,2.4805018 2.5849231,2.4758534 C 2.5944358,2.4715893 2.2856442,2.6154679 2.2860555,2.6124141 C 2.2888523,2.5916496 2.5474072,2.7882606 2.5530693,2.7928431 C 2.583792,2.8177043 2.3554431,2.8660903 2.3481559,2.8703937 C 2.3093295,2.8933218 2.518924,2.9847905 2.5093894,2.9837093 z "
         style="opacity:1;fill:#b3a867;fill-opacity:1;stroke:#000000;stroke-width:0.02765247;stroke-miterlimit:4;stroke-opacity:1" />
      <path
         id="path15026"
         d="M 2.5106748,2.7959302 C 13.609643,2.7959302 13.609643,2.7959302 13.609643,2.7959302"
         style="fill:none;fill-rule:evenodd;stroke:#000000;stroke-width:0.04298669;stroke-linecap:butt;stroke-linejoin:miter;stroke-miterlimit:4;stroke-dasharray:none;stroke-opacity:1;display:inline" />
      <path
         sodipodi:nodetypes="csssc"
         id="path15032"
         d="M 1.3854688,2.7102021 C 1.3769242,2.7122048 0.73941327,2.5649739 0.73923917,2.5609578 C 0.73906507,2.5569416 1.375792,2.4343981 1.3845107,2.4364117 C 1.38887,2.4374185 1.4341505,2.5157378 1.4373547,2.5896561 C 1.4405589,2.6635745 1.3897411,2.7092009 1.3854688,2.7102021 z "
         style="fill:#000000;fill-opacity:1;stroke:#000000;stroke-width:0.0255337;stroke-miterlimit:4;stroke-opacity:1" />
      <path
         sodipodi:nodetypes="csssc"
         id="path16025"
         d="M 14.2375,2.6051718 C 14.2375,2.7921287 14.132821,2.9637711 13.994028,2.9637711 C 13.855234,2.9637711 13.734626,2.7921287 13.734626,2.6051718 C 13.734626,2.418215 13.843288,2.2625 13.982081,2.2625 C 14.120874,2.2625 14.2375,2.418215 14.2375,2.6051718 z "
         style="fill:#575757;fill-opacity:1;stroke:#000000;stroke-width:0.02;stroke-miterlimit:4;stroke-dasharray:none;stroke-opacity:1;display:inline" />
      <path
         sodipodi:nodetypes="csssc"
         id="path16997"
         d="M 14.3875,2.6051718 C 14.3875,2.7921287 14.282821,2.9637711 14.144028,2.9637711 C 14.005234,2.9637711 13.884626,2.7921287 13.884626,2.6051718 C 13.884626,2.418215 13.993288,2.2625 14.132081,2.2625 C 14.270874,2.2625 14.3875,2.418215 14.3875,2.6051718 z "
         style="fill:#575757;fill-opacity:1;stroke:#000000;stroke-width:0.02;stroke-miterlimit:4;stroke-dasharray:none;stroke-opacity:1;display:inline" />
      <path
         sodipodi:nodetypes="csssc"
         id="path16999"
         d="M 14.5375,2.6051718 C 14.5375,2.7921287 14.432821,2.9637711 14.294028,2.9637711 C 14.155234,2.9637711 14.034626,2.7921287 14.034626,2.6051718 C 14.034626,2.418215 14.143288,2.2625 14.282081,2.2625 C 14.420874,2.2625 14.5375,2.418215 14.5375,2.6051718 z "
         style="fill:#575757;fill-opacity:1;stroke:#000000;stroke-width:0.02;stroke-miterlimit:4;stroke-dasharray:none;stroke-opacity:1;display:inline" />
      <path
         sodipodi:nodetypes="cssccccc"
         id="path10147"
         d="M 14.455449,2.2570971 C 14.316858,2.2570971 14.200947,2.4170194 14.200947,2.6123548 C 14.200947,2.8076902 14.322489,2.950719 14.46108,2.950719 L 14.582325,2.950719 L 15.039151,2.9619814 L 15.039151,2.2627283 L 14.576694,2.2570971 C 14.576694,2.2570971 14.501645,2.2570971 14.455449,2.2570971 z "
         style="fill:#e15959;fill-opacity:1;stroke:#000000;stroke-width:0.04072186;stroke-miterlimit:4;stroke-opacity:1" />
      <path
         sodipodi:nodetypes="csssc"
         id="path9159"
         d="M 15.2875,2.6051718 C 15.2875,2.7921287 15.182821,2.9637711 15.044028,2.9637711 C 14.905234,2.9637711 14.784626,2.7921287 14.784626,2.6051718 C 14.784626,2.418215 14.893288,2.2625 15.032081,2.2625 C 15.170874,2.2625 15.2875,2.418215 15.2875,2.6051718 z "
         style="fill:#e15959;fill-opacity:1;stroke:#000000;stroke-width:0.03986793;stroke-miterlimit:4;stroke-opacity:1" />
    </g>
  </g>
</svg>
